  0
SECTION
  2
HEADER
  9
$ANGBASE
  50
0.0
  9
$ANGDIR
  70
1
  9
$MEASUREMENT
  70
0
  0
ENDSEC
  0
SECTION
  2
TABLES
  0
TABLE
  2
LTYPE
  70
4
  0
LTYPE
  5
40F
  2
CONTINUOUS
  70
0
  3
Solid line
  72
65
  73
0
  40
0.0
  0
LTYPE
  5
410
  2
DASHDOT
 70
0
  3
Dash Dot ____ _ ____ _
 72
65
 73
4
 40
2.0
 49
1.25
 49
-0.25
 49
0.25
 49
-0.25
  0
LTYPE
  5
411
  2
DASHED
 70
0
  3
Dashed __ __ __ __ __
 72
65
 73
2
 40
0.75
 49
0.5
 49
-0.25
  0
LTYPE
  5
43B
  2
DOTTED
 70
0
  3
Dotted .  .  .  .
 72
65
 73
2
 40
0.2
 49
0.0
 49
-0.2
  0
ENDTAB
  0
TABLE
  2
STYLE
  70
4
  0
STYLE
  2
KICAD
  70
0
  40
0
  41
1
  42
1
  50
0
  71
0
  3
isocp.shx
  0
STYLE
  2
KICADB
  70
0
  40
0
  41
1
  42
1
  50
0
  71
0
  3
isocp.shx
  0
STYLE
  2
KICADI
  70
0
  40
0
  41
1
  42
1
  50
15
  71
0
  3
isocp.shx
  0
STYLE
  2
KICADBI
  70
0
  40
0
  41
1
  42
1
  50
15
  71
0
  3
isocp.shx
  0
ENDTAB
  0
TABLE
  2
LAYER
  70
1
  0
LAYER
  2
BLACK
  70
0
  62
7
  6
CONTINUOUS
  0
ENDTAB
  0
ENDSEC
  0
SECTION
  2
ENTITIES
0
LINE
8
BLACK
6
CONTINUOUS
10
0.5476207480314961
20
-1.759720590551181
11
0.5481534251968504
21
-1.7602532677165355
0
LINE
8
BLACK
6
CONTINUOUS
10
0.5481534251968504
20
-1.7602532677165355
11
0.5482283464566929
21
-1.7606299212598424
0
LINE
8
BLACK
6
CONTINUOUS
10
0.5482283464566929
20
-1.7606299212598424
11
0.5482283464566929
21
-1.8377952755905511
0
LINE
8
BLACK
6
CONTINUOUS
10
0.5482283464566929
20
-1.8377952755905511
11
0.5481534251968504
21
-1.8381719291338583
0
LINE
8
BLACK
6
CONTINUOUS
10
0.5481534251968504
20
-1.8381719291338583
11
0.5476207480314961
21
-1.8387046062992125
0
LINE
8
BLACK
6
CONTINUOUS
10
0.5476207480314961
20
-1.8387046062992125
11
0.547244094488189
21
-1.838779527559055
0
LINE
8
BLACK
6
CONTINUOUS
10
0.547244094488189
20
-1.838779527559055
11
0.4133858267716535
21
-1.838779527559055
0
LINE
8
BLACK
6
CONTINUOUS
10
0.4133858267716535
20
-1.838779527559055
11
0.4130091732283465
21
-1.8387046062992125
0
LINE
8
BLACK
6
CONTINUOUS
10
0.4130091732283465
20
-1.8387046062992125
11
0.4124764960629921
21
-1.8381719291338583
0
LINE
8
BLACK
6
CONTINUOUS
10
0.4124764960629921
20
-1.8381719291338583
11
0.4124015748031496
21
-1.8377952755905511
0
LINE
8
BLACK
6
CONTINUOUS
10
0.4124015748031496
20
-1.8377952755905511
11
0.4124015748031496
21
-1.7606299212598424
0
LINE
8
BLACK
6
CONTINUOUS
10
0.4124015748031496
20
-1.7606299212598424
11
0.4124764960629921
21
-1.7602532677165355
0
LINE
8
BLACK
6
CONTINUOUS
10
0.4124764960629921
20
-1.7602532677165355
11
0.4130091732283465
21
-1.759720590551181
0
LINE
8
BLACK
6
CONTINUOUS
10
0.4130091732283465
20
-1.759720590551181
11
0.4133858267716535
21
-1.7596456692913385
0
LINE
8
BLACK
6
CONTINUOUS
10
0.4133858267716535
20
-1.7596456692913385
11
0.547244094488189
21
-1.7596456692913385
0
LINE
8
BLACK
6
CONTINUOUS
10
0.547244094488189
20
-1.7596456692913385
11
0.5476207480314961
21
-1.759720590551181
0
LINE
8
BLACK
6
CONTINUOUS
10
0.4143700787401575
20
-1.7616141732283463
11
0.4143700787401575
21
-1.8368110236220472
0
LINE
8
BLACK
6
CONTINUOUS
10
0.4143700787401575
20
-1.8368110236220472
11
0.5462598425196851
21
-1.8368110236220472
0
LINE
8
BLACK
6
CONTINUOUS
10
0.5462598425196851
20
-1.8368110236220472
11
0.5462598425196851
21
-1.7616141732283463
0
LINE
8
BLACK
6
CONTINUOUS
10
0.5462598425196851
20
-1.7616141732283463
11
0.4143700787401575
21
-1.7616141732283463
0
LINE
8
BLACK
6
CONTINUOUS
10
-0.3086784645669291
20
-1.6686772834645669
11
-0.3081457874015748
21
-1.6692099606299213
0
LINE
8
BLACK
6
CONTINUOUS
10
-0.3081457874015748
20
-1.6692099606299213
11
-0.3080708661417323
21
-1.6695866141732283
0
LINE
8
BLACK
6
CONTINUOUS
10
-0.3080708661417323
20
-1.6695866141732283
11
-0.3080708661417323
21
-1.8018700787401574
0
LINE
8
BLACK
6
CONTINUOUS
10
-0.3080708661417323
20
-1.8018700787401574
11
-0.3081457874015748
21
-1.8022467322834645
0
LINE
8
BLACK
6
CONTINUOUS
10
-0.3081457874015748
20
-1.8022467322834645
11
-0.3086784645669291
21
-1.8027794094488188
0
LINE
8
BLACK
6
CONTINUOUS
10
-0.3086784645669291
20
-1.8027794094488188
11
-0.3090551181102362
21
-1.8028543307086613
0
LINE
8
BLACK
6
CONTINUOUS
10
-0.3090551181102362
20
-1.8028543307086613
11
-0.3838582677165354
21
-1.8028543307086613
0
LINE
8
BLACK
6
CONTINUOUS
10
-0.3838582677165354
20
-1.8028543307086613
11
-0.3842349212598425
21
-1.8027794094488188
0
LINE
8
BLACK
6
CONTINUOUS
10
-0.3842349212598425
20
-1.8027794094488188
11
-0.3847675984251969
21
-1.8022467322834645
0
LINE
8
BLACK
6
CONTINUOUS
10
-0.3847675984251969
20
-1.8022467322834645
11
-0.3848425196850394
21
-1.8018700787401574
0
LINE
8
BLACK
6
CONTINUOUS
10
-0.3848425196850394
20
-1.8018700787401574
11
-0.3848425196850394
21
-1.6695866141732283
0
LINE
8
BLACK
6
CONTINUOUS
10
-0.3848425196850394
20
-1.6695866141732283
11
-0.3847675984251969
21
-1.6692099606299213
0
LINE
8
BLACK
6
CONTINUOUS
10
-0.3847675984251969
20
-1.6692099606299213
11
-0.3842349212598425
21
-1.6686772834645669
0
LINE
8
BLACK
6
CONTINUOUS
10
-0.3842349212598425
20
-1.6686772834645669
11
-0.3838582677165354
21
-1.6686023622047244
0
LINE
8
BLACK
6
CONTINUOUS
10
-0.3838582677165354
20
-1.6686023622047244
11
-0.3090551181102362
21
-1.6686023622047244
0
LINE
8
BLACK
6
CONTINUOUS
10
-0.3090551181102362
20
-1.6686023622047244
11
-0.3086784645669291
21
-1.6686772834645669
0
LINE
8
BLACK
6
CONTINUOUS
10
-0.3828740157480315
20
-1.6705708661417322
11
-0.3828740157480315
21
-1.8008858267716534
0
LINE
8
BLACK
6
CONTINUOUS
10
-0.3828740157480315
20
-1.8008858267716534
11
-0.3100393700787402
21
-1.8008858267716534
0
LINE
8
BLACK
6
CONTINUOUS
10
-0.3100393700787402
20
-1.8008858267716534
11
-0.3100393700787402
21
-1.6705708661417322
0
LINE
8
BLACK
6
CONTINUOUS
10
-0.3100393700787402
20
-1.6705708661417322
11
-0.3828740157480315
21
-1.6705708661417322
0
LINE
8
BLACK
6
CONTINUOUS
10
-0.2102532677165354
20
-1.6686772834645669
11
-0.2097205905511811
21
-1.6692099606299213
0
LINE
8
BLACK
6
CONTINUOUS
10
-0.2097205905511811
20
-1.6692099606299213
11
-0.2096456692913386
21
-1.6695866141732283
0
LINE
8
BLACK
6
CONTINUOUS
10
-0.2096456692913386
20
-1.6695866141732283
11
-0.2096456692913386
21
-1.8018700787401574
0
LINE
8
BLACK
6
CONTINUOUS
10
-0.2096456692913386
20
-1.8018700787401574
11
-0.2097205905511811
21
-1.8022467322834645
0
LINE
8
BLACK
6
CONTINUOUS
10
-0.2097205905511811
20
-1.8022467322834645
11
-0.2102532677165354
21
-1.8027794094488188
0
LINE
8
BLACK
6
CONTINUOUS
10
-0.2102532677165354
20
-1.8027794094488188
11
-0.2106299212598425
21
-1.8028543307086613
0
LINE
8
BLACK
6
CONTINUOUS
10
-0.2106299212598425
20
-1.8028543307086613
11
-0.2854330708661417
21
-1.8028543307086613
0
LINE
8
BLACK
6
CONTINUOUS
10
-0.2854330708661417
20
-1.8028543307086613
11
-0.2858097244094488
21
-1.8027794094488188
0
LINE
8
BLACK
6
CONTINUOUS
10
-0.2858097244094488
20
-1.8027794094488188
11
-0.2863424015748031
21
-1.8022467322834645
0
LINE
8
BLACK
6
CONTINUOUS
10
-0.2863424015748031
20
-1.8022467322834645
11
-0.2864173228346457
21
-1.8018700787401574
0
LINE
8
BLACK
6
CONTINUOUS
10
-0.2864173228346457
20
-1.8018700787401574
11
-0.2864173228346457
21
-1.6695866141732283
0
LINE
8
BLACK
6
CONTINUOUS
10
-0.2864173228346457
20
-1.6695866141732283
11
-0.2863424015748031
21
-1.6692099606299213
0
LINE
8
BLACK
6
CONTINUOUS
10
-0.2863424015748031
20
-1.6692099606299213
11
-0.2858097244094488
21
-1.6686772834645669
0
LINE
8
BLACK
6
CONTINUOUS
10
-0.2858097244094488
20
-1.6686772834645669
11
-0.2854330708661417
21
-1.6686023622047244
0
LINE
8
BLACK
6
CONTINUOUS
10
-0.2854330708661417
20
-1.6686023622047244
11
-0.2106299212598425
21
-1.6686023622047244
0
LINE
8
BLACK
6
CONTINUOUS
10
-0.2106299212598425
20
-1.6686023622047244
11
-0.2102532677165354
21
-1.6686772834645669
0
LINE
8
BLACK
6
CONTINUOUS
10
-0.2844488188976378
20
-1.6705708661417322
11
-0.2844488188976378
21
-1.8008858267716534
0
LINE
8
BLACK
6
CONTINUOUS
10
-0.2844488188976378
20
-1.8008858267716534
11
-0.2116141732283464
21
-1.8008858267716534
0
LINE
8
BLACK
6
CONTINUOUS
10
-0.2116141732283464
20
-1.8008858267716534
11
-0.2116141732283464
21
-1.6705708661417322
0
LINE
8
BLACK
6
CONTINUOUS
10
-0.2116141732283464
20
-1.6705708661417322
11
-0.2844488188976378
21
-1.6705708661417322
0
LINE
8
BLACK
6
CONTINUOUS
10
-0.1118280708661417
20
-1.6686772834645669
11
-0.1112953937007874
21
-1.6692099606299213
0
LINE
8
BLACK
6
CONTINUOUS
10
-0.1112953937007874
20
-1.6692099606299213
11
-0.1112204724409449
21
-1.6695866141732283
0
LINE
8
BLACK
6
CONTINUOUS
10
-0.1112204724409449
20
-1.6695866141732283
11
-0.1112204724409449
21
-1.8018700787401574
0
LINE
8
BLACK
6
CONTINUOUS
10
-0.1112204724409449
20
-1.8018700787401574
11
-0.1112953937007874
21
-1.8022467322834645
0
LINE
8
BLACK
6
CONTINUOUS
10
-0.1112953937007874
20
-1.8022467322834645
11
-0.1118280708661417
21
-1.8027794094488188
0
LINE
8
BLACK
6
CONTINUOUS
10
-0.1118280708661417
20
-1.8027794094488188
11
-0.1122047244094488
21
-1.8028543307086613
0
LINE
8
BLACK
6
CONTINUOUS
10
-0.1122047244094488
20
-1.8028543307086613
11
-0.187007874015748
21
-1.8028543307086613
0
LINE
8
BLACK
6
CONTINUOUS
10
-0.187007874015748
20
-1.8028543307086613
11
-0.1873845275590551
21
-1.8027794094488188
0
LINE
8
BLACK
6
CONTINUOUS
10
-0.1873845275590551
20
-1.8027794094488188
11
-0.1879172047244095
21
-1.8022467322834645
0
LINE
8
BLACK
6
CONTINUOUS
10
-0.1879172047244095
20
-1.8022467322834645
11
-0.187992125984252
21
-1.8018700787401574
0
LINE
8
BLACK
6
CONTINUOUS
10
-0.187992125984252
20
-1.8018700787401574
11
-0.187992125984252
21
-1.6695866141732283
0
LINE
8
BLACK
6
CONTINUOUS
10
-0.187992125984252
20
-1.6695866141732283
11
-0.1879172047244095
21
-1.6692099606299213
0
LINE
8
BLACK
6
CONTINUOUS
10
-0.1879172047244095
20
-1.6692099606299213
11
-0.1873845275590551
21
-1.6686772834645669
0
LINE
8
BLACK
6
CONTINUOUS
10
-0.1873845275590551
20
-1.6686772834645669
11
-0.187007874015748
21
-1.6686023622047244
0
LINE
8
BLACK
6
CONTINUOUS
10
-0.187007874015748
20
-1.6686023622047244
11
-0.1122047244094488
21
-1.6686023622047244
0
LINE
8
BLACK
6
CONTINUOUS
10
-0.1122047244094488
20
-1.6686023622047244
11
-0.1118280708661417
21
-1.6686772834645669
0
LINE
8
BLACK
6
CONTINUOUS
10
-0.1860236220472441
20
-1.6705708661417322
11
-0.1860236220472441
21
-1.8008858267716534
0
LINE
8
BLACK
6
CONTINUOUS
10
-0.1860236220472441
20
-1.8008858267716534
11
-0.1131889763779527
21
-1.8008858267716534
0
LINE
8
BLACK
6
CONTINUOUS
10
-0.1131889763779527
20
-1.8008858267716534
11
-0.1131889763779527
21
-1.6705708661417322
0
LINE
8
BLACK
6
CONTINUOUS
10
-0.1131889763779527
20
-1.6705708661417322
11
-0.1860236220472441
21
-1.6705708661417322
0
LINE
8
BLACK
6
CONTINUOUS
10
-0.0055288582677165
20
-1.6686772834645669
11
-0.0049961811023622
21
-1.6692099606299213
0
LINE
8
BLACK
6
CONTINUOUS
10
-0.0049961811023622
20
-1.6692099606299213
11
-0.0049212598425197
21
-1.6695866141732283
0
LINE
8
BLACK
6
CONTINUOUS
10
-0.0049212598425197
20
-1.6695866141732283
11
-0.0049212598425197
21
-1.8018700787401574
0
LINE
8
BLACK
6
CONTINUOUS
10
-0.0049212598425197
20
-1.8018700787401574
11
-0.0049961811023622
21
-1.8022467322834645
0
LINE
8
BLACK
6
CONTINUOUS
10
-0.0049961811023622
20
-1.8022467322834645
11
-0.0055288582677165
21
-1.8027794094488188
0
LINE
8
BLACK
6
CONTINUOUS
10
-0.0055288582677165
20
-1.8027794094488188
11
-0.0059055118110236
21
-1.8028543307086613
0
LINE
8
BLACK
6
CONTINUOUS
10
-0.0059055118110236
20
-1.8028543307086613
11
-0.0807086614173228
21
-1.8028543307086613
0
LINE
8
BLACK
6
CONTINUOUS
10
-0.0807086614173228
20
-1.8028543307086613
11
-0.0810853149606299
21
-1.8027794094488188
0
LINE
8
BLACK
6
CONTINUOUS
10
-0.0810853149606299
20
-1.8027794094488188
11
-0.0816179921259843
21
-1.8022467322834645
0
LINE
8
BLACK
6
CONTINUOUS
10
-0.0816179921259843
20
-1.8022467322834645
11
-0.0816929133858268
21
-1.8018700787401574
0
LINE
8
BLACK
6
CONTINUOUS
10
-0.0816929133858268
20
-1.8018700787401574
11
-0.0816929133858268
21
-1.6695866141732283
0
LINE
8
BLACK
6
CONTINUOUS
10
-0.0816929133858268
20
-1.6695866141732283
11
-0.0816179921259843
21
-1.6692099606299213
0
LINE
8
BLACK
6
CONTINUOUS
10
-0.0816179921259843
20
-1.6692099606299213
11
-0.0810853149606299
21
-1.6686772834645669
0
LINE
8
BLACK
6
CONTINUOUS
10
-0.0810853149606299
20
-1.6686772834645669
11
-0.0807086614173228
21
-1.6686023622047244
0
LINE
8
BLACK
6
CONTINUOUS
10
-0.0807086614173228
20
-1.6686023622047244
11
-0.0059055118110236
21
-1.6686023622047244
0
LINE
8
BLACK
6
CONTINUOUS
10
-0.0059055118110236
20
-1.6686023622047244
11
-0.0055288582677165
21
-1.6686772834645669
0
LINE
8
BLACK
6
CONTINUOUS
10
-0.0797244094488189
20
-1.6705708661417322
11
-0.0797244094488189
21
-1.8008858267716534
0
LINE
8
BLACK
6
CONTINUOUS
10
-0.0797244094488189
20
-1.8008858267716534
11
-0.0068897637795276
21
-1.8008858267716534
0
LINE
8
BLACK
6
CONTINUOUS
10
-0.0068897637795276
20
-1.8008858267716534
11
-0.0068897637795276
21
-1.6705708661417322
0
LINE
8
BLACK
6
CONTINUOUS
10
-0.0068897637795276
20
-1.6705708661417322
11
-0.0797244094488189
21
-1.6705708661417322
0
LINE
8
BLACK
6
CONTINUOUS
10
0.5515577559055118
20
-1.6691694094488188
11
0.5520904330708661
21
-1.6697020866141732
0
LINE
8
BLACK
6
CONTINUOUS
10
0.5520904330708661
20
-1.6697020866141732
11
0.5521653543307087
21
-1.6700787401574804
0
LINE
8
BLACK
6
CONTINUOUS
10
0.5521653543307087
20
-1.6700787401574804
11
0.5521653543307087
21
-1.7472440944881888
0
LINE
8
BLACK
6
CONTINUOUS
10
0.5521653543307087
20
-1.7472440944881888
11
0.5520904330708661
21
-1.747620748031496
0
LINE
8
BLACK
6
CONTINUOUS
10
0.5520904330708661
20
-1.747620748031496
11
0.5515577559055118
21
-1.7481534251968505
0
LINE
8
BLACK
6
CONTINUOUS
10
0.5515577559055118
20
-1.7481534251968505
11
0.5511811023622047
21
-1.7482283464566928
0
LINE
8
BLACK
6
CONTINUOUS
10
0.5511811023622047
20
-1.7482283464566928
11
0.4173228346456693
21
-1.7482283464566928
0
LINE
8
BLACK
6
CONTINUOUS
10
0.4173228346456693
20
-1.7482283464566928
11
0.4169461811023622
21
-1.7481534251968505
0
LINE
8
BLACK
6
CONTINUOUS
10
0.4169461811023622
20
-1.7481534251968505
11
0.4164135039370079
21
-1.747620748031496
0
LINE
8
BLACK
6
CONTINUOUS
10
0.4164135039370079
20
-1.747620748031496
11
0.4163385826771653
21
-1.7472440944881888
0
LINE
8
BLACK
6
CONTINUOUS
10
0.4163385826771653
20
-1.7472440944881888
11
0.4163385826771653
21
-1.6700787401574804
0
LINE
8
BLACK
6
CONTINUOUS
10
0.4163385826771653
20
-1.6700787401574804
11
0.4164135039370079
21
-1.6697020866141732
0
LINE
8
BLACK
6
CONTINUOUS
10
0.4164135039370079
20
-1.6697020866141732
11
0.4169461811023622
21
-1.6691694094488188
0
LINE
8
BLACK
6
CONTINUOUS
10
0.4169461811023622
20
-1.6691694094488188
11
0.4173228346456693
21
-1.6690944881889764
0
LINE
8
BLACK
6
CONTINUOUS
10
0.4173228346456693
20
-1.6690944881889764
11
0.5511811023622047
21
-1.6690944881889764
0
LINE
8
BLACK
6
CONTINUOUS
10
0.5511811023622047
20
-1.6690944881889764
11
0.5515577559055118
21
-1.6691694094488188
0
LINE
8
BLACK
6
CONTINUOUS
10
0.4183070866141732
20
-1.6710629921259843
11
0.4183070866141732
21
-1.7462598425196849
0
LINE
8
BLACK
6
CONTINUOUS
10
0.4183070866141732
20
-1.7462598425196849
11
0.5501968503937008
21
-1.7462598425196849
0
LINE
8
BLACK
6
CONTINUOUS
10
0.5501968503937008
20
-1.7462598425196849
11
0.5501968503937008
21
-1.6710629921259843
0
LINE
8
BLACK
6
CONTINUOUS
10
0.5501968503937008
20
-1.6710629921259843
11
0.4183070866141732
21
-1.6710629921259843
0
LINE
8
BLACK
6
CONTINUOUS
10
0.4826601181102362
20
-1.5620827952755905
11
0.4831927952755906
21
-1.5626154724409449
0
LINE
8
BLACK
6
CONTINUOUS
10
0.4831927952755906
20
-1.5626154724409449
11
0.483267716535433
21
-1.5629921259842519
0
LINE
8
BLACK
6
CONTINUOUS
10
0.483267716535433
20
-1.5629921259842519
11
0.483267716535433
21
-1.6496062992125984
0
LINE
8
BLACK
6
CONTINUOUS
10
0.483267716535433
20
-1.6496062992125984
11
0.4831927952755906
21
-1.6499829527559056
0
LINE
8
BLACK
6
CONTINUOUS
10
0.4831927952755906
20
-1.6499829527559056
11
0.4826601181102362
21
-1.6505156299212598
0
LINE
8
BLACK
6
CONTINUOUS
10
0.4826601181102362
20
-1.6505156299212598
11
0.4822834645669291
21
-1.6505905511811023
0
LINE
8
BLACK
6
CONTINUOUS
10
0.4822834645669291
20
-1.6505905511811023
11
0.2736220472440945
21
-1.6505905511811023
0
LINE
8
BLACK
6
CONTINUOUS
10
0.2736220472440945
20
-1.6505905511811023
11
0.2732453937007874
21
-1.6505156299212598
0
LINE
8
BLACK
6
CONTINUOUS
10
0.2732453937007874
20
-1.6505156299212598
11
0.2727127165354331
21
-1.6499829527559056
0
LINE
8
BLACK
6
CONTINUOUS
10
0.2727127165354331
20
-1.6499829527559056
11
0.2726377952755906
21
-1.6496062992125984
0
LINE
8
BLACK
6
CONTINUOUS
10
0.2726377952755906
20
-1.6496062992125984
11
0.2726377952755906
21
-1.5629921259842519
0
LINE
8
BLACK
6
CONTINUOUS
10
0.2726377952755906
20
-1.5629921259842519
11
0.2727127165354331
21
-1.5626154724409449
0
LINE
8
BLACK
6
CONTINUOUS
10
0.2727127165354331
20
-1.5626154724409449
11
0.2732453937007874
21
-1.5620827952755905
0
LINE
8
BLACK
6
CONTINUOUS
10
0.2732453937007874
20
-1.5620827952755905
11
0.2736220472440945
21
-1.5620078740157479
0
LINE
8
BLACK
6
CONTINUOUS
10
0.2736220472440945
20
-1.5620078740157479
11
0.4822834645669291
21
-1.5620078740157479
0
LINE
8
BLACK
6
CONTINUOUS
10
0.4822834645669291
20
-1.5620078740157479
11
0.4826601181102362
21
-1.5620827952755905
0
LINE
8
BLACK
6
CONTINUOUS
10
0.2746062992125984
20
-1.5639763779527558
11
0.2746062992125984
21
-1.6486220472440944
0
LINE
8
BLACK
6
CONTINUOUS
10
0.2746062992125984
20
-1.6486220472440944
11
0.4812992125984252
21
-1.6486220472440944
0
LINE
8
BLACK
6
CONTINUOUS
10
0.4812992125984252
20
-1.6486220472440944
11
0.4812992125984252
21
-1.5639763779527558
0
LINE
8
BLACK
6
CONTINUOUS
10
0.4812992125984252
20
-1.5639763779527558
11
0.2746062992125984
21
-1.5639763779527558
0
LINE
8
BLACK
6
CONTINUOUS
10
-1.0015918897637794
20
0.9292557874015748
11
-1.0010592125984252
21
0.9287231102362205
0
LINE
8
BLACK
6
CONTINUOUS
10
-1.0010592125984252
20
0.9287231102362205
11
-1.0009842913385827
21
0.9283464566929134
0
LINE
8
BLACK
6
CONTINUOUS
10
-1.0009842913385827
20
0.9283464566929134
11
-1.0009842913385827
21
0.8511811023622047
0
LINE
8
BLACK
6
CONTINUOUS
10
-1.0009842913385827
20
0.8511811023622047
11
-1.0010592125984252
21
0.8508044488188976
0
LINE
8
BLACK
6
CONTINUOUS
10
-1.0010592125984252
20
0.8508044488188976
11
-1.0012731102362205
21
0.8505905511811024
0
LINE
8
BLACK
6
CONTINUOUS
10
-1.0012731102362205
20
0.8505905511811024
11
-0.9940944881889764
21
0.8505905511811024
0
LINE
8
BLACK
6
CONTINUOUS
10
-0.9940944881889764
20
0.8505905511811024
11
-0.9937178346456693
21
0.8505156299212598
0
LINE
8
BLACK
6
CONTINUOUS
10
-0.9937178346456693
20
0.8505156299212598
11
-0.9931851574803149
21
0.8499829527559055
0
LINE
8
BLACK
6
CONTINUOUS
10
-0.9931851574803149
20
0.8499829527559055
11
-0.9931102362204725
21
0.8496062992125984
0
LINE
8
BLACK
6
CONTINUOUS
10
-0.9931102362204725
20
0.8496062992125984
11
-0.9931102362204725
21
0.7724409448818897
0
LINE
8
BLACK
6
CONTINUOUS
10
-0.9931102362204725
20
0.7724409448818897
11
-0.9931851574803149
21
0.7720642913385827
0
LINE
8
BLACK
6
CONTINUOUS
10
-0.9931851574803149
20
0.7720642913385827
11
-0.9937178346456693
21
0.7715316141732284
0
LINE
8
BLACK
6
CONTINUOUS
10
-0.9937178346456693
20
0.7715316141732284
11
-0.9940944881889764
21
0.7714566929133858
0
LINE
8
BLACK
6
CONTINUOUS
10
-0.9940944881889764
20
0.7714566929133858
11
-1.1279527559055118
21
0.7714566929133858
0
LINE
8
BLACK
6
CONTINUOUS
10
-1.1279527559055118
20
0.7714566929133858
11
-1.1283294094488188
21
0.7715316141732284
0
LINE
8
BLACK
6
CONTINUOUS
10
-1.1283294094488188
20
0.7715316141732284
11
-1.1288620866141732
21
0.7720642913385827
0
LINE
8
BLACK
6
CONTINUOUS
10
-1.1288620866141732
20
0.7720642913385827
11
-1.1289370078740157
21
0.7724409448818897
0
LINE
8
BLACK
6
CONTINUOUS
10
-1.1289370078740157
20
0.7724409448818897
11
-1.1289370078740157
21
0.8496062992125984
0
LINE
8
BLACK
6
CONTINUOUS
10
-1.1289370078740157
20
0.8496062992125984
11
-1.1288620866141732
21
0.8499829527559055
0
LINE
8
BLACK
6
CONTINUOUS
10
-1.1288620866141732
20
0.8499829527559055
11
-1.128648188976378
21
0.8501968503937007
0
LINE
8
BLACK
6
CONTINUOUS
10
-1.128648188976378
20
0.8501968503937007
11
-1.135826811023622
21
0.8501968503937007
0
LINE
8
BLACK
6
CONTINUOUS
10
-1.135826811023622
20
0.8501968503937007
11
-1.136203464566929
21
0.8502717716535433
0
LINE
8
BLACK
6
CONTINUOUS
10
-1.136203464566929
20
0.8502717716535433
11
-1.1367361417322834
21
0.8508044488188976
0
LINE
8
BLACK
6
CONTINUOUS
10
-1.1367361417322834
20
0.8508044488188976
11
-1.136811062992126
21
0.8511811023622047
0
LINE
8
BLACK
6
CONTINUOUS
10
-1.136811062992126
20
0.8511811023622047
11
-1.136811062992126
21
0.9283464566929134
0
LINE
8
BLACK
6
CONTINUOUS
10
-1.136811062992126
20
0.9283464566929134
11
-1.1367361417322834
21
0.9287231102362205
0
LINE
8
BLACK
6
CONTINUOUS
10
-1.1367361417322834
20
0.9287231102362205
11
-1.136203464566929
21
0.9292557874015748
0
LINE
8
BLACK
6
CONTINUOUS
10
-1.136203464566929
20
0.9292557874015748
11
-1.135826811023622
21
0.9293307086614173
0
LINE
8
BLACK
6
CONTINUOUS
10
-1.135826811023622
20
0.9293307086614173
11
-1.0019685433070866
21
0.9293307086614173
0
LINE
8
BLACK
6
CONTINUOUS
10
-1.0019685433070866
20
0.9293307086614173
11
-1.0015918897637794
21
0.9292557874015748
0
LINE
8
BLACK
6
CONTINUOUS
10
-1.1269685039370079
20
0.8486220472440945
11
-1.1269685039370079
21
0.7734251968503937
0
LINE
8
BLACK
6
CONTINUOUS
10
-1.1269685039370079
20
0.7734251968503937
11
-0.9950787401574803
21
0.7734251968503937
0
LINE
8
BLACK
6
CONTINUOUS
10
-0.9950787401574803
20
0.7734251968503937
11
-0.9950787401574803
21
0.8486220472440945
0
LINE
8
BLACK
6
CONTINUOUS
10
-0.9950787401574803
20
0.8486220472440945
11
-1.1269685039370079
21
0.8486220472440945
0
LINE
8
BLACK
6
CONTINUOUS
10
-1.1348425590551181
20
0.9273622047244094
11
-1.1348425590551181
21
0.8521653543307086
0
LINE
8
BLACK
6
CONTINUOUS
10
-1.1348425590551181
20
0.8521653543307086
11
-1.0029527952755906
21
0.8521653543307086
0
LINE
8
BLACK
6
CONTINUOUS
10
-1.0029527952755906
20
0.8521653543307086
11
-1.0029527952755906
21
0.9273622047244094
0
LINE
8
BLACK
6
CONTINUOUS
10
-1.0029527952755906
20
0.9273622047244094
11
-1.1348425590551181
21
0.9273622047244094
0
LINE
8
BLACK
6
CONTINUOUS
10
-0.7366312204724409
20
0.9635077559055117
11
-0.7360985433070866
21
0.9629750787401574
0
LINE
8
BLACK
6
CONTINUOUS
10
-0.7360985433070866
20
0.9629750787401574
11
-0.736023622047244
21
0.9625984251968503
0
LINE
8
BLACK
6
CONTINUOUS
10
-0.736023622047244
20
0.9625984251968503
11
-0.736023622047244
21
0.8287401574803149
0
LINE
8
BLACK
6
CONTINUOUS
10
-0.736023622047244
20
0.8287401574803149
11
-0.7360985433070866
21
0.8283635039370079
0
LINE
8
BLACK
6
CONTINUOUS
10
-0.7360985433070866
20
0.8283635039370079
11
-0.7366312204724409
21
0.8278308267716535
0
LINE
8
BLACK
6
CONTINUOUS
10
-0.7366312204724409
20
0.8278308267716535
11
-0.737007874015748
21
0.827755905511811
0
LINE
8
BLACK
6
CONTINUOUS
10
-0.737007874015748
20
0.827755905511811
11
-0.8141732283464567
21
0.827755905511811
0
LINE
8
BLACK
6
CONTINUOUS
10
-0.8141732283464567
20
0.827755905511811
11
-0.8145498818897637
21
0.8278308267716535
0
LINE
8
BLACK
6
CONTINUOUS
10
-0.8145498818897637
20
0.8278308267716535
11
-0.8150825590551181
21
0.8283635039370079
0
LINE
8
BLACK
6
CONTINUOUS
10
-0.8150825590551181
20
0.8283635039370079
11
-0.8151574803149606
21
0.8287401574803149
0
LINE
8
BLACK
6
CONTINUOUS
10
-0.8151574803149606
20
0.8287401574803149
11
-0.8151574803149606
21
0.9625984251968503
0
LINE
8
BLACK
6
CONTINUOUS
10
-0.8151574803149606
20
0.9625984251968503
11
-0.8150825590551181
21
0.9629750787401574
0
LINE
8
BLACK
6
CONTINUOUS
10
-0.8150825590551181
20
0.9629750787401574
11
-0.8145498818897637
21
0.9635077559055117
0
LINE
8
BLACK
6
CONTINUOUS
10
-0.8145498818897637
20
0.9635077559055117
11
-0.8141732283464567
21
0.9635826771653543
0
LINE
8
BLACK
6
CONTINUOUS
10
-0.8141732283464567
20
0.9635826771653543
11
-0.737007874015748
21
0.9635826771653543
0
LINE
8
BLACK
6
CONTINUOUS
10
-0.737007874015748
20
0.9635826771653543
11
-0.7366312204724409
21
0.9635077559055117
0
LINE
8
BLACK
6
CONTINUOUS
10
-0.8131889763779527
20
0.9616141732283464
11
-0.8131889763779527
21
0.8297244094488189
0
LINE
8
BLACK
6
CONTINUOUS
10
-0.8131889763779527
20
0.8297244094488189
11
-0.7379921259842519
21
0.8297244094488189
0
LINE
8
BLACK
6
CONTINUOUS
10
-0.7379921259842519
20
0.8297244094488189
11
-0.7379921259842519
21
0.9616141732283464
0
LINE
8
BLACK
6
CONTINUOUS
10
-0.7379921259842519
20
0.9616141732283464
11
-0.8131889763779527
21
0.9616141732283464
0
LINE
8
BLACK
6
CONTINUOUS
10
-0.5788591338582677
20
0.9696149606299213
11
-0.5783264566929134
21
0.9690822834645669
0
LINE
8
BLACK
6
CONTINUOUS
10
-0.5783264566929134
20
0.9690822834645669
11
-0.5782515354330708
21
0.9687056299212599
0
LINE
8
BLACK
6
CONTINUOUS
10
-0.5782515354330708
20
0.9687056299212599
11
-0.5782515354330708
21
0.8348473622047244
0
LINE
8
BLACK
6
CONTINUOUS
10
-0.5782515354330708
20
0.8348473622047244
11
-0.5783264566929134
21
0.8344707086614173
0
LINE
8
BLACK
6
CONTINUOUS
10
-0.5783264566929134
20
0.8344707086614173
11
-0.5788591338582677
21
0.8339380314960629
0
LINE
8
BLACK
6
CONTINUOUS
10
-0.5788591338582677
20
0.8339380314960629
11
-0.5792357874015748
21
0.8338631102362205
0
LINE
8
BLACK
6
CONTINUOUS
10
-0.5792357874015748
20
0.8338631102362205
11
-0.7304168897637795
21
0.8338631102362205
0
LINE
8
BLACK
6
CONTINUOUS
10
-0.7304168897637795
20
0.8338631102362205
11
-0.7307935433070866
21
0.8339380314960629
0
LINE
8
BLACK
6
CONTINUOUS
10
-0.7307935433070866
20
0.8339380314960629
11
-0.7313262204724409
21
0.8344707086614173
0
LINE
8
BLACK
6
CONTINUOUS
10
-0.7313262204724409
20
0.8344707086614173
11
-0.7314011417322834
21
0.8348473622047244
0
LINE
8
BLACK
6
CONTINUOUS
10
-0.7314011417322834
20
0.8348473622047244
11
-0.7314011417322834
21
0.9687056299212599
0
LINE
8
BLACK
6
CONTINUOUS
10
-0.7314011417322834
20
0.9687056299212599
11
-0.7313262204724409
21
0.9690822834645669
0
LINE
8
BLACK
6
CONTINUOUS
10
-0.7313262204724409
20
0.9690822834645669
11
-0.7307935433070866
21
0.9696149606299213
0
LINE
8
BLACK
6
CONTINUOUS
10
-0.7307935433070866
20
0.9696149606299213
11
-0.7304168897637795
21
0.9696898818897638
0
LINE
8
BLACK
6
CONTINUOUS
10
-0.7304168897637795
20
0.9696898818897638
11
-0.5792357874015748
21
0.9696898818897638
0
LINE
8
BLACK
6
CONTINUOUS
10
-0.5792357874015748
20
0.9696898818897638
11
-0.5788591338582677
21
0.9696149606299213
0
LINE
8
BLACK
6
CONTINUOUS
10
-0.7294326377952756
20
0.9677213779527559
11
-0.7294326377952756
21
0.8358316141732284
0
LINE
8
BLACK
6
CONTINUOUS
10
-0.7294326377952756
20
0.8358316141732284
11
-0.5802200393700787
21
0.8358316141732284
0
LINE
8
BLACK
6
CONTINUOUS
10
-0.5802200393700787
20
0.8358316141732284
11
-0.5802200393700787
21
0.9677213779527559
0
LINE
8
BLACK
6
CONTINUOUS
10
-0.5802200393700787
20
0.9677213779527559
11
-0.7294326377952756
21
0.9677213779527559
0
LINE
8
BLACK
6
CONTINUOUS
10
-0.8603714960629921
20
1.171814842519685
11
-0.8598388188976378
21
1.1712821653543306
0
LINE
8
BLACK
6
CONTINUOUS
10
-0.8598388188976378
20
1.1712821653543306
11
-0.8597638976377953
21
1.1709055118110236
0
LINE
8
BLACK
6
CONTINUOUS
10
-0.8597638976377953
20
1.1709055118110236
11
-0.8597638976377953
21
0.920511811023622
0
LINE
8
BLACK
6
CONTINUOUS
10
-0.8597638976377953
20
0.920511811023622
11
-0.8598388188976378
21
0.9201351574803149
0
LINE
8
BLACK
6
CONTINUOUS
10
-0.8598388188976378
20
0.9201351574803149
11
-0.8603714960629921
21
0.9196024803149606
0
LINE
8
BLACK
6
CONTINUOUS
10
-0.8603714960629921
20
0.9196024803149606
11
-0.8607481496062992
21
0.9195275590551181
0
LINE
8
BLACK
6
CONTINUOUS
10
-0.8607481496062992
20
0.9195275590551181
11
-0.9985433464566928
21
0.9195275590551181
0
LINE
8
BLACK
6
CONTINUOUS
10
-0.9985433464566928
20
0.9195275590551181
11
-0.99892
21
0.9196024803149606
0
LINE
8
BLACK
6
CONTINUOUS
10
-0.99892
20
0.9196024803149606
11
-0.9994526771653544
21
0.9201351574803149
0
LINE
8
BLACK
6
CONTINUOUS
10
-0.9994526771653544
20
0.9201351574803149
11
-0.9995275984251968
21
0.920511811023622
0
LINE
8
BLACK
6
CONTINUOUS
10
-0.9995275984251968
20
0.920511811023622
11
-0.9995275984251968
21
1.1709055118110236
0
LINE
8
BLACK
6
CONTINUOUS
10
-0.9995275984251968
20
1.1709055118110236
11
-0.9994526771653544
21
1.1712821653543306
0
LINE
8
BLACK
6
CONTINUOUS
10
-0.9994526771653544
20
1.1712821653543306
11
-0.99892
21
1.171814842519685
0
LINE
8
BLACK
6
CONTINUOUS
10
-0.99892
20
1.171814842519685
11
-0.9985433464566928
21
1.1718897637795276
0
LINE
8
BLACK
6
CONTINUOUS
10
-0.9985433464566928
20
1.1718897637795276
11
-0.8607481496062992
21
1.1718897637795276
0
LINE
8
BLACK
6
CONTINUOUS
10
-0.8607481496062992
20
1.1718897637795276
11
-0.8603714960629921
21
1.171814842519685
0
LINE
8
BLACK
6
CONTINUOUS
10
-0.9975590944881889
20
1.1699212598425197
11
-0.9975590944881889
21
0.9214960629921259
0
LINE
8
BLACK
6
CONTINUOUS
10
-0.9975590944881889
20
0.9214960629921259
11
-0.8617324015748031
21
0.9214960629921259
0
LINE
8
BLACK
6
CONTINUOUS
10
-0.8617324015748031
20
0.9214960629921259
11
-0.8617324015748031
21
1.1699212598425197
0
LINE
8
BLACK
6
CONTINUOUS
10
-0.8617324015748031
20
1.1699212598425197
11
-0.9975590944881889
21
1.1699212598425197
0
LINE
8
BLACK
6
CONTINUOUS
10
-1.0046863779527559
20
1.0675471259842519
11
-1.0041537007874015
21
1.0670144488188975
0
LINE
8
BLACK
6
CONTINUOUS
10
-1.0041537007874015
20
1.0670144488188975
11
-1.004078779527559
21
1.0666377952755906
0
LINE
8
BLACK
6
CONTINUOUS
10
-1.004078779527559
20
1.0666377952755906
11
-1.004078779527559
21
0.9327795275590551
0
LINE
8
BLACK
6
CONTINUOUS
10
-1.004078779527559
20
0.9327795275590551
11
-1.0041537007874015
21
0.9324028740157481
0
LINE
8
BLACK
6
CONTINUOUS
10
-1.0041537007874015
20
0.9324028740157481
11
-1.0046863779527559
21
0.9318701968503936
0
LINE
8
BLACK
6
CONTINUOUS
10
-1.0046863779527559
20
0.9318701968503936
11
-1.0050630314960629
21
0.9317952755905512
0
LINE
8
BLACK
6
CONTINUOUS
10
-1.0050630314960629
20
0.9317952755905512
11
-1.0822283858267716
21
0.9317952755905512
0
LINE
8
BLACK
6
CONTINUOUS
10
-1.0822283858267716
20
0.9317952755905512
11
-1.0826050393700788
21
0.9318701968503936
0
LINE
8
BLACK
6
CONTINUOUS
10
-1.0826050393700788
20
0.9318701968503936
11
-1.083137716535433
21
0.9324028740157481
0
LINE
8
BLACK
6
CONTINUOUS
10
-1.083137716535433
20
0.9324028740157481
11
-1.0832126377952755
21
0.9327795275590551
0
LINE
8
BLACK
6
CONTINUOUS
10
-1.0832126377952755
20
0.9327795275590551
11
-1.0832126377952755
21
1.0666377952755906
0
LINE
8
BLACK
6
CONTINUOUS
10
-1.0832126377952755
20
1.0666377952755906
11
-1.083137716535433
21
1.0670144488188975
0
LINE
8
BLACK
6
CONTINUOUS
10
-1.083137716535433
20
1.0670144488188975
11
-1.0826050393700788
21
1.0675471259842519
0
LINE
8
BLACK
6
CONTINUOUS
10
-1.0826050393700788
20
1.0675471259842519
11
-1.0822283858267716
21
1.0676220472440945
0
LINE
8
BLACK
6
CONTINUOUS
10
-1.0822283858267716
20
1.0676220472440945
11
-1.0050630314960629
21
1.0676220472440945
0
LINE
8
BLACK
6
CONTINUOUS
10
-1.0050630314960629
20
1.0676220472440945
11
-1.0046863779527559
21
1.0675471259842519
0
LINE
8
BLACK
6
CONTINUOUS
10
-1.0812441338582677
20
1.0656535433070866
11
-1.0812441338582677
21
0.9337637795275591
0
LINE
8
BLACK
6
CONTINUOUS
10
-1.0812441338582677
20
0.9337637795275591
11
-1.0060472834645668
21
0.9337637795275591
0
LINE
8
BLACK
6
CONTINUOUS
10
-1.0060472834645668
20
0.9337637795275591
11
-1.0060472834645668
21
1.0656535433070866
0
LINE
8
BLACK
6
CONTINUOUS
10
-1.0060472834645668
20
1.0656535433070866
11
-1.0812441338582677
21
1.0656535433070866
0
LINE
8
BLACK
6
CONTINUOUS
10
-0.6708831889763779
20
1.2604565748031495
11
-0.6703505118110236
21
1.2599238976377953
0
LINE
8
BLACK
6
CONTINUOUS
10
-0.6703505118110236
20
1.2599238976377953
11
-0.6702755905511811
21
1.2595472440944881
0
LINE
8
BLACK
6
CONTINUOUS
10
-0.6702755905511811
20
1.2595472440944881
11
-0.6702755905511811
21
1.1272637795275591
0
LINE
8
BLACK
6
CONTINUOUS
10
-0.6702755905511811
20
1.1272637795275591
11
-0.6703505118110236
21
1.1268871259842519
0
LINE
8
BLACK
6
CONTINUOUS
10
-0.6703505118110236
20
1.1268871259842519
11
-0.6707612598425197
21
1.1264763779527558
0
LINE
8
BLACK
6
CONTINUOUS
10
-0.6707612598425197
20
1.1264763779527558
11
-0.6703505118110236
21
1.1260656299212599
0
LINE
8
BLACK
6
CONTINUOUS
10
-0.6703505118110236
20
1.1260656299212599
11
-0.6702755905511811
21
1.1256889763779527
0
LINE
8
BLACK
6
CONTINUOUS
10
-0.6702755905511811
20
1.1256889763779527
11
-0.6702755905511811
21
0.9934055118110235
0
LINE
8
BLACK
6
CONTINUOUS
10
-0.6702755905511811
20
0.9934055118110235
11
-0.6703505118110236
21
0.9930288582677165
0
LINE
8
BLACK
6
CONTINUOUS
10
-0.6703505118110236
20
0.9930288582677165
11
-0.6708831889763779
21
0.9924961811023622
0
LINE
8
BLACK
6
CONTINUOUS
10
-0.6708831889763779
20
0.9924961811023622
11
-0.6712598425196851
21
0.9924212598425196
0
LINE
8
BLACK
6
CONTINUOUS
10
-0.6712598425196851
20
0.9924212598425196
11
-0.7460629921259843
21
0.9924212598425196
0
LINE
8
BLACK
6
CONTINUOUS
10
-0.7460629921259843
20
0.9924212598425196
11
-0.7464396456692913
21
0.9924961811023622
0
LINE
8
BLACK
6
CONTINUOUS
10
-0.7464396456692913
20
0.9924961811023622
11
-0.7469723228346457
21
0.9930288582677165
0
LINE
8
BLACK
6
CONTINUOUS
10
-0.7469723228346457
20
0.9930288582677165
11
-0.7470472440944882
21
0.9934055118110235
0
LINE
8
BLACK
6
CONTINUOUS
10
-0.7470472440944882
20
0.9934055118110235
11
-0.7470472440944882
21
1.1256889763779527
0
LINE
8
BLACK
6
CONTINUOUS
10
-0.7470472440944882
20
1.1256889763779527
11
-0.7469723228346457
21
1.1260656299212599
0
LINE
8
BLACK
6
CONTINUOUS
10
-0.7469723228346457
20
1.1260656299212599
11
-0.7465615748031496
21
1.1264763779527558
0
LINE
8
BLACK
6
CONTINUOUS
10
-0.7465615748031496
20
1.1264763779527558
11
-0.7469723228346457
21
1.1268871259842519
0
LINE
8
BLACK
6
CONTINUOUS
10
-0.7469723228346457
20
1.1268871259842519
11
-0.7470472440944882
21
1.1272637795275591
0
LINE
8
BLACK
6
CONTINUOUS
10
-0.7470472440944882
20
1.1272637795275591
11
-0.7470472440944882
21
1.2595472440944881
0
LINE
8
BLACK
6
CONTINUOUS
10
-0.7470472440944882
20
1.2595472440944881
11
-0.7469723228346457
21
1.2599238976377953
0
LINE
8
BLACK
6
CONTINUOUS
10
-0.7469723228346457
20
1.2599238976377953
11
-0.7464396456692913
21
1.2604565748031495
0
LINE
8
BLACK
6
CONTINUOUS
10
-0.7464396456692913
20
1.2604565748031495
11
-0.7460629921259843
21
1.2605314960629921
0
LINE
8
BLACK
6
CONTINUOUS
10
-0.7460629921259843
20
1.2605314960629921
11
-0.6712598425196851
21
1.2605314960629921
0
LINE
8
BLACK
6
CONTINUOUS
10
-0.6712598425196851
20
1.2605314960629921
11
-0.6708831889763779
21
1.2604565748031495
0
LINE
8
BLACK
6
CONTINUOUS
10
-0.7450787401574803
20
1.1247047244094488
11
-0.7450787401574803
21
0.9943897637795276
0
LINE
8
BLACK
6
CONTINUOUS
10
-0.7450787401574803
20
0.9943897637795276
11
-0.672244094488189
21
0.9943897637795276
0
LINE
8
BLACK
6
CONTINUOUS
10
-0.672244094488189
20
0.9943897637795276
11
-0.672244094488189
21
1.1247047244094488
0
LINE
8
BLACK
6
CONTINUOUS
10
-0.672244094488189
20
1.1247047244094488
11
-0.7450787401574803
21
1.1247047244094488
0
LINE
8
BLACK
6
CONTINUOUS
10
-0.7450787401574803
20
1.2585629921259842
11
-0.7450787401574803
21
1.128248031496063
0
LINE
8
BLACK
6
CONTINUOUS
10
-0.7450787401574803
20
1.128248031496063
11
-0.672244094488189
21
1.128248031496063
0
LINE
8
BLACK
6
CONTINUOUS
10
-0.672244094488189
20
1.128248031496063
11
-0.672244094488189
21
1.2585629921259842
0
LINE
8
BLACK
6
CONTINUOUS
10
-0.672244094488189
20
1.2585629921259842
11
-0.7450787401574803
21
1.2585629921259842
0
LINE
8
BLACK
6
CONTINUOUS
10
-0.8423398818897637
20
1.2752007086614172
11
-0.8418072047244094
21
1.274668031496063
0
LINE
8
BLACK
6
CONTINUOUS
10
-0.8418072047244094
20
1.274668031496063
11
-0.8417322834645669
21
1.2742913779527558
0
LINE
8
BLACK
6
CONTINUOUS
10
-0.8417322834645669
20
1.2742913779527558
11
-0.8417322834645669
21
1.1971260236220471
0
LINE
8
BLACK
6
CONTINUOUS
10
-0.8417322834645669
20
1.1971260236220471
11
-0.8418072047244094
21
1.1967493700787402
0
LINE
8
BLACK
6
CONTINUOUS
10
-0.8418072047244094
20
1.1967493700787402
11
-0.8423398818897637
21
1.1962166929133857
0
LINE
8
BLACK
6
CONTINUOUS
10
-0.8423398818897637
20
1.1962166929133857
11
-0.8427165354330709
21
1.1961417716535432
0
LINE
8
BLACK
6
CONTINUOUS
10
-0.8427165354330709
20
1.1961417716535432
11
-0.9765748031496063
21
1.1961417716535432
0
LINE
8
BLACK
6
CONTINUOUS
10
-0.9765748031496063
20
1.1961417716535432
11
-0.9769514566929134
21
1.1962166929133857
0
LINE
8
BLACK
6
CONTINUOUS
10
-0.9769514566929134
20
1.1962166929133857
11
-0.9774841338582677
21
1.1967493700787402
0
LINE
8
BLACK
6
CONTINUOUS
10
-0.9774841338582677
20
1.1967493700787402
11
-0.9775590551181103
21
1.1971260236220471
0
LINE
8
BLACK
6
CONTINUOUS
10
-0.9775590551181103
20
1.1971260236220471
11
-0.9775590551181103
21
1.2742913779527558
0
LINE
8
BLACK
6
CONTINUOUS
10
-0.9775590551181103
20
1.2742913779527558
11
-0.9774841338582677
21
1.274668031496063
0
LINE
8
BLACK
6
CONTINUOUS
10
-0.9774841338582677
20
1.274668031496063
11
-0.9769514566929134
21
1.2752007086614172
0
LINE
8
BLACK
6
CONTINUOUS
10
-0.9769514566929134
20
1.2752007086614172
11
-0.9765748031496063
21
1.2752756299212598
0
LINE
8
BLACK
6
CONTINUOUS
10
-0.9765748031496063
20
1.2752756299212598
11
-0.8427165354330709
21
1.2752756299212598
0
LINE
8
BLACK
6
CONTINUOUS
10
-0.8427165354330709
20
1.2752756299212598
11
-0.8423398818897637
21
1.2752007086614172
0
LINE
8
BLACK
6
CONTINUOUS
10
-0.9755905511811024
20
1.2733071259842519
11
-0.9755905511811024
21
1.1981102755905511
0
LINE
8
BLACK
6
CONTINUOUS
10
-0.9755905511811024
20
1.1981102755905511
11
-0.8437007874015748
21
1.1981102755905511
0
LINE
8
BLACK
6
CONTINUOUS
10
-0.8437007874015748
20
1.1981102755905511
11
-0.8437007874015748
21
1.2733071259842519
0
LINE
8
BLACK
6
CONTINUOUS
10
-0.8437007874015748
20
1.2733071259842519
11
-0.9755905511811024
21
1.2733071259842519
0
LINE
8
BLACK
6
CONTINUOUS
10
-0.66891468503937
20
1.4516967322834646
11
-0.6683820078740157
21
1.4511640551181102
0
LINE
8
BLACK
6
CONTINUOUS
10
-0.6683820078740157
20
1.4511640551181102
11
-0.6683070866141733
21
1.450787401574803
0
LINE
8
BLACK
6
CONTINUOUS
10
-0.6683070866141733
20
1.450787401574803
11
-0.6683070866141733
21
1.2893700787401574
0
LINE
8
BLACK
6
CONTINUOUS
10
-0.6683070866141733
20
1.2893700787401574
11
-0.6683820078740157
21
1.2889934251968505
0
LINE
8
BLACK
6
CONTINUOUS
10
-0.6683820078740157
20
1.2889934251968505
11
-0.66891468503937
21
1.288460748031496
0
LINE
8
BLACK
6
CONTINUOUS
10
-0.66891468503937
20
1.288460748031496
11
-0.6692913385826772
21
1.2883858267716535
0
LINE
8
BLACK
6
CONTINUOUS
10
-0.6692913385826772
20
1.2883858267716535
11
-0.8031496062992126
21
1.2883858267716535
0
LINE
8
BLACK
6
CONTINUOUS
10
-0.8031496062992126
20
1.2883858267716535
11
-0.8035262598425197
21
1.288460748031496
0
LINE
8
BLACK
6
CONTINUOUS
10
-0.8035262598425197
20
1.288460748031496
11
-0.804058937007874
21
1.2889934251968505
0
LINE
8
BLACK
6
CONTINUOUS
10
-0.804058937007874
20
1.2889934251968505
11
-0.8041338582677166
21
1.2893700787401574
0
LINE
8
BLACK
6
CONTINUOUS
10
-0.8041338582677166
20
1.2893700787401574
11
-0.8041338582677166
21
1.450787401574803
0
LINE
8
BLACK
6
CONTINUOUS
10
-0.8041338582677166
20
1.450787401574803
11
-0.804058937007874
21
1.4511640551181102
0
LINE
8
BLACK
6
CONTINUOUS
10
-0.804058937007874
20
1.4511640551181102
11
-0.8035262598425197
21
1.4516967322834646
0
LINE
8
BLACK
6
CONTINUOUS
10
-0.8035262598425197
20
1.4516967322834646
11
-0.8031496062992126
21
1.451771653543307
0
LINE
8
BLACK
6
CONTINUOUS
10
-0.8031496062992126
20
1.451771653543307
11
-0.6692913385826772
21
1.451771653543307
0
LINE
8
BLACK
6
CONTINUOUS
10
-0.6692913385826772
20
1.451771653543307
11
-0.66891468503937
21
1.4516967322834646
0
LINE
8
BLACK
6
CONTINUOUS
10
-0.8021653543307087
20
1.4498031496062991
11
-0.8021653543307087
21
1.2903543307086613
0
LINE
8
BLACK
6
CONTINUOUS
10
-0.8021653543307087
20
1.2903543307086613
11
-0.6702755905511811
21
1.2903543307086613
0
LINE
8
BLACK
6
CONTINUOUS
10
-0.6702755905511811
20
1.2903543307086613
11
-0.6702755905511811
21
1.4498031496062991
0
LINE
8
BLACK
6
CONTINUOUS
10
-0.6702755905511811
20
1.4498031496062991
11
-0.8021653543307087
21
1.4498031496062991
0
LINE
8
BLACK
6
CONTINUOUS
10
-0.5752138976377953
20
1.4438227165354331
11
-0.574681220472441
21
1.4432900393700787
0
LINE
8
BLACK
6
CONTINUOUS
10
-0.574681220472441
20
1.4432900393700787
11
-0.5746062992125984
21
1.4429133858267715
0
LINE
8
BLACK
6
CONTINUOUS
10
-0.5746062992125984
20
1.4429133858267715
11
-0.5746062992125984
21
1.3090551181102361
0
LINE
8
BLACK
6
CONTINUOUS
10
-0.5746062992125984
20
1.3090551181102361
11
-0.574681220472441
21
1.3086784645669292
0
LINE
8
BLACK
6
CONTINUOUS
10
-0.574681220472441
20
1.3086784645669292
11
-0.5752138976377953
21
1.3081457874015747
0
LINE
8
BLACK
6
CONTINUOUS
10
-0.5752138976377953
20
1.3081457874015747
11
-0.5755905511811024
21
1.3080708661417322
0
LINE
8
BLACK
6
CONTINUOUS
10
-0.5755905511811024
20
1.3080708661417322
11
-0.6527559055118111
21
1.3080708661417322
0
LINE
8
BLACK
6
CONTINUOUS
10
-0.6527559055118111
20
1.3080708661417322
11
-0.6531325590551181
21
1.3081457874015747
0
LINE
8
BLACK
6
CONTINUOUS
10
-0.6531325590551181
20
1.3081457874015747
11
-0.6536652362204725
21
1.3086784645669292
0
LINE
8
BLACK
6
CONTINUOUS
10
-0.6536652362204725
20
1.3086784645669292
11
-0.653740157480315
21
1.3090551181102361
0
LINE
8
BLACK
6
CONTINUOUS
10
-0.653740157480315
20
1.3090551181102361
11
-0.653740157480315
21
1.4429133858267715
0
LINE
8
BLACK
6
CONTINUOUS
10
-0.653740157480315
20
1.4429133858267715
11
-0.6536652362204725
21
1.4432900393700787
0
LINE
8
BLACK
6
CONTINUOUS
10
-0.6536652362204725
20
1.4432900393700787
11
-0.6531325590551181
21
1.4438227165354331
0
LINE
8
BLACK
6
CONTINUOUS
10
-0.6531325590551181
20
1.4438227165354331
11
-0.6527559055118111
21
1.4438976377952755
0
LINE
8
BLACK
6
CONTINUOUS
10
-0.6527559055118111
20
1.4438976377952755
11
-0.5755905511811024
21
1.4438976377952755
0
LINE
8
BLACK
6
CONTINUOUS
10
-0.5755905511811024
20
1.4438976377952755
11
-0.5752138976377953
21
1.4438227165354331
0
LINE
8
BLACK
6
CONTINUOUS
10
-0.651771653543307
20
1.4419291338582676
11
-0.651771653543307
21
1.3100393700787401
0
LINE
8
BLACK
6
CONTINUOUS
10
-0.651771653543307
20
1.3100393700787401
11
-0.5765748031496063
21
1.3100393700787401
0
LINE
8
BLACK
6
CONTINUOUS
10
-0.5765748031496063
20
1.3100393700787401
11
-0.5765748031496063
21
1.4419291338582676
0
LINE
8
BLACK
6
CONTINUOUS
10
-0.5765748031496063
20
1.4419291338582676
11
-0.651771653543307
21
1.4419291338582676
0
LINE
8
BLACK
6
CONTINUOUS
10
-1.0273398818897637
20
1.5252006692913385
11
-1.0268072047244095
21
1.5246679921259843
0
LINE
8
BLACK
6
CONTINUOUS
10
-1.0268072047244095
20
1.5246679921259843
11
-1.0267322834645669
21
1.5242913385826771
0
LINE
8
BLACK
6
CONTINUOUS
10
-1.0267322834645669
20
1.5242913385826771
11
-1.0267322834645669
21
1.4471259842519684
0
LINE
8
BLACK
6
CONTINUOUS
10
-1.0267322834645669
20
1.4471259842519684
11
-1.0268072047244095
21
1.4467493307086614
0
LINE
8
BLACK
6
CONTINUOUS
10
-1.0268072047244095
20
1.4467493307086614
11
-1.0273398818897637
21
1.446216653543307
0
LINE
8
BLACK
6
CONTINUOUS
10
-1.0273398818897637
20
1.446216653543307
11
-1.0277165354330708
21
1.4461417322834644
0
LINE
8
BLACK
6
CONTINUOUS
10
-1.0277165354330708
20
1.4461417322834644
11
-1.1615748031496063
21
1.4461417322834644
0
LINE
8
BLACK
6
CONTINUOUS
10
-1.1615748031496063
20
1.4461417322834644
11
-1.1619514566929134
21
1.446216653543307
0
LINE
8
BLACK
6
CONTINUOUS
10
-1.1619514566929134
20
1.446216653543307
11
-1.1624841338582677
21
1.4467493307086614
0
LINE
8
BLACK
6
CONTINUOUS
10
-1.1624841338582677
20
1.4467493307086614
11
-1.1625590551181102
21
1.4471259842519684
0
LINE
8
BLACK
6
CONTINUOUS
10
-1.1625590551181102
20
1.4471259842519684
11
-1.1625590551181102
21
1.5242913385826771
0
LINE
8
BLACK
6
CONTINUOUS
10
-1.1625590551181102
20
1.5242913385826771
11
-1.1624841338582677
21
1.5246679921259843
0
LINE
8
BLACK
6
CONTINUOUS
10
-1.1624841338582677
20
1.5246679921259843
11
-1.1619514566929134
21
1.5252006692913385
0
LINE
8
BLACK
6
CONTINUOUS
10
-1.1619514566929134
20
1.5252006692913385
11
-1.1615748031496063
21
1.525275590551181
0
LINE
8
BLACK
6
CONTINUOUS
10
-1.1615748031496063
20
1.525275590551181
11
-1.0277165354330708
21
1.525275590551181
0
LINE
8
BLACK
6
CONTINUOUS
10
-1.0277165354330708
20
1.525275590551181
11
-1.0273398818897637
21
1.5252006692913385
0
LINE
8
BLACK
6
CONTINUOUS
10
-1.1605905511811023
20
1.5233070866141731
11
-1.1605905511811023
21
1.4481102362204723
0
LINE
8
BLACK
6
CONTINUOUS
10
-1.1605905511811023
20
1.4481102362204723
11
-1.0287007874015748
21
1.4481102362204723
0
LINE
8
BLACK
6
CONTINUOUS
10
-1.0287007874015748
20
1.4481102362204723
11
-1.0287007874015748
21
1.5233070866141731
0
LINE
8
BLACK
6
CONTINUOUS
10
-1.0287007874015748
20
1.5233070866141731
11
-1.1605905511811023
21
1.5233070866141731
0
LINE
8
BLACK
6
CONTINUOUS
10
-0.6704107874015748
20
1.5352006299212597
11
-0.6698781102362205
21
1.5346679527559055
0
LINE
8
BLACK
6
CONTINUOUS
10
-0.6698781102362205
20
1.5346679527559055
11
-0.6698031889763779
21
1.5342912992125983
0
LINE
8
BLACK
6
CONTINUOUS
10
-0.6698031889763779
20
1.5342912992125983
11
-0.6698031889763779
21
1.4571259448818896
0
LINE
8
BLACK
6
CONTINUOUS
10
-0.6698031889763779
20
1.4571259448818896
11
-0.6698781102362205
21
1.4567492913385827
0
LINE
8
BLACK
6
CONTINUOUS
10
-0.6698781102362205
20
1.4567492913385827
11
-0.6704107874015748
21
1.4562166141732282
0
LINE
8
BLACK
6
CONTINUOUS
10
-0.6704107874015748
20
1.4562166141732282
11
-0.6707874409448819
21
1.4561416929133857
0
LINE
8
BLACK
6
CONTINUOUS
10
-0.6707874409448819
20
1.4561416929133857
11
-0.8046457086614173
21
1.4561416929133857
0
LINE
8
BLACK
6
CONTINUOUS
10
-0.8046457086614173
20
1.4561416929133857
11
-0.8050223622047243
21
1.4562166141732282
0
LINE
8
BLACK
6
CONTINUOUS
10
-0.8050223622047243
20
1.4562166141732282
11
-0.8055550393700788
21
1.4567492913385827
0
LINE
8
BLACK
6
CONTINUOUS
10
-0.8055550393700788
20
1.4567492913385827
11
-0.8056299606299212
21
1.4571259448818896
0
LINE
8
BLACK
6
CONTINUOUS
10
-0.8056299606299212
20
1.4571259448818896
11
-0.8056299606299212
21
1.5342912992125983
0
LINE
8
BLACK
6
CONTINUOUS
10
-0.8056299606299212
20
1.5342912992125983
11
-0.8055550393700788
21
1.5346679527559055
0
LINE
8
BLACK
6
CONTINUOUS
10
-0.8055550393700788
20
1.5346679527559055
11
-0.8050223622047243
21
1.5352006299212597
0
LINE
8
BLACK
6
CONTINUOUS
10
-0.8050223622047243
20
1.5352006299212597
11
-0.8046457086614173
21
1.5352755511811023
0
LINE
8
BLACK
6
CONTINUOUS
10
-0.8046457086614173
20
1.5352755511811023
11
-0.6707874409448819
21
1.5352755511811023
0
LINE
8
BLACK
6
CONTINUOUS
10
-0.6707874409448819
20
1.5352755511811023
11
-0.6704107874015748
21
1.5352006299212597
0
LINE
8
BLACK
6
CONTINUOUS
10
-0.8036614566929133
20
1.5333070472440944
11
-0.8036614566929133
21
1.4581101968503936
0
LINE
8
BLACK
6
CONTINUOUS
10
-0.8036614566929133
20
1.4581101968503936
11
-0.6717716929133858
21
1.4581101968503936
0
LINE
8
BLACK
6
CONTINUOUS
10
-0.6717716929133858
20
1.4581101968503936
11
-0.6717716929133858
21
1.5333070472440944
0
LINE
8
BLACK
6
CONTINUOUS
10
-0.6717716929133858
20
1.5333070472440944
11
-0.8036614566929133
21
1.5333070472440944
0
LINE
8
BLACK
6
CONTINUOUS
10
-0.9396863385826771
20
1.6725470866141732
11
-0.9391536614173228
21
1.672014409448819
0
LINE
8
BLACK
6
CONTINUOUS
10
-0.9391536614173228
20
1.672014409448819
11
-0.9390787401574803
21
1.6716377559055118
0
LINE
8
BLACK
6
CONTINUOUS
10
-0.9390787401574803
20
1.6716377559055118
11
-0.9390787401574803
21
1.5377794881889764
0
LINE
8
BLACK
6
CONTINUOUS
10
-0.9390787401574803
20
1.5377794881889764
11
-0.9391536614173228
21
1.5374028346456692
0
LINE
8
BLACK
6
CONTINUOUS
10
-0.9391536614173228
20
1.5374028346456692
11
-0.9396863385826771
21
1.536870157480315
0
LINE
8
BLACK
6
CONTINUOUS
10
-0.9396863385826771
20
1.536870157480315
11
-0.9400629921259842
21
1.5367952362204724
0
LINE
8
BLACK
6
CONTINUOUS
10
-0.9400629921259842
20
1.5367952362204724
11
-1.0172283464566929
21
1.5367952362204724
0
LINE
8
BLACK
6
CONTINUOUS
10
-1.0172283464566929
20
1.5367952362204724
11
-1.0176049999999999
21
1.536870157480315
0
LINE
8
BLACK
6
CONTINUOUS
10
-1.0176049999999999
20
1.536870157480315
11
-1.0181376771653543
21
1.5374028346456692
0
LINE
8
BLACK
6
CONTINUOUS
10
-1.0181376771653543
20
1.5374028346456692
11
-1.0182125984251968
21
1.5377794881889764
0
LINE
8
BLACK
6
CONTINUOUS
10
-1.0182125984251968
20
1.5377794881889764
11
-1.0182125984251968
21
1.6716377559055118
0
LINE
8
BLACK
6
CONTINUOUS
10
-1.0182125984251968
20
1.6716377559055118
11
-1.0181376771653543
21
1.672014409448819
0
LINE
8
BLACK
6
CONTINUOUS
10
-1.0181376771653543
20
1.672014409448819
11
-1.0176049999999999
21
1.6725470866141732
0
LINE
8
BLACK
6
CONTINUOUS
10
-1.0176049999999999
20
1.6725470866141732
11
-1.0172283464566929
21
1.6726220078740157
0
LINE
8
BLACK
6
CONTINUOUS
10
-1.0172283464566929
20
1.6726220078740157
11
-0.9400629921259842
21
1.6726220078740157
0
LINE
8
BLACK
6
CONTINUOUS
10
-0.9400629921259842
20
1.6726220078740157
11
-0.9396863385826771
21
1.6725470866141732
0
LINE
8
BLACK
6
CONTINUOUS
10
-1.016244094488189
20
1.6706535039370078
11
-1.016244094488189
21
1.5387637401574803
0
LINE
8
BLACK
6
CONTINUOUS
10
-1.016244094488189
20
1.5387637401574803
11
-0.9410472440944881
21
1.5387637401574803
0
LINE
8
BLACK
6
CONTINUOUS
10
-0.9410472440944881
20
1.5387637401574803
11
-0.9410472440944881
21
1.6706535039370078
0
LINE
8
BLACK
6
CONTINUOUS
10
-0.9410472440944881
20
1.6706535039370078
11
-1.016244094488189
21
1.6706535039370078
0
LINE
8
BLACK
6
CONTINUOUS
10
-0.8588674409448819
20
1.6717596456692914
11
-0.8583347637795276
21
1.6712269685039369
0
LINE
8
BLACK
6
CONTINUOUS
10
-0.8583347637795276
20
1.6712269685039369
11
-0.858259842519685
21
1.67085031496063
0
LINE
8
BLACK
6
CONTINUOUS
10
-0.858259842519685
20
1.67085031496063
11
-0.858259842519685
21
1.5385668503937007
0
LINE
8
BLACK
6
CONTINUOUS
10
-0.858259842519685
20
1.5385668503937007
11
-0.8583347637795276
21
1.5381901968503937
0
LINE
8
BLACK
6
CONTINUOUS
10
-0.8583347637795276
20
1.5381901968503937
11
-0.8588674409448819
21
1.5376575196850393
0
LINE
8
BLACK
6
CONTINUOUS
10
-0.8588674409448819
20
1.5376575196850393
11
-0.8592440944881889
21
1.5375825984251967
0
LINE
8
BLACK
6
CONTINUOUS
10
-0.8592440944881889
20
1.5375825984251967
11
-0.9340472440944881
21
1.5375825984251967
0
LINE
8
BLACK
6
CONTINUOUS
10
-0.9340472440944881
20
1.5375825984251967
11
-0.9344238976377952
21
1.5376575196850393
0
LINE
8
BLACK
6
CONTINUOUS
10
-0.9344238976377952
20
1.5376575196850393
11
-0.9349565748031495
21
1.5381901968503937
0
LINE
8
BLACK
6
CONTINUOUS
10
-0.9349565748031495
20
1.5381901968503937
11
-0.9350314960629921
21
1.5385668503937007
0
LINE
8
BLACK
6
CONTINUOUS
10
-0.9350314960629921
20
1.5385668503937007
11
-0.9350314960629921
21
1.67085031496063
0
LINE
8
BLACK
6
CONTINUOUS
10
-0.9350314960629921
20
1.67085031496063
11
-0.9349565748031495
21
1.6712269685039369
0
LINE
8
BLACK
6
CONTINUOUS
10
-0.9349565748031495
20
1.6712269685039369
11
-0.9344238976377952
21
1.6717596456692914
0
LINE
8
BLACK
6
CONTINUOUS
10
-0.9344238976377952
20
1.6717596456692914
11
-0.9340472440944881
21
1.6718345669291339
0
LINE
8
BLACK
6
CONTINUOUS
10
-0.9340472440944881
20
1.6718345669291339
11
-0.8592440944881889
21
1.6718345669291339
0
LINE
8
BLACK
6
CONTINUOUS
10
-0.8592440944881889
20
1.6718345669291339
11
-0.8588674409448819
21
1.6717596456692914
0
LINE
8
BLACK
6
CONTINUOUS
10
-0.9330629921259842
20
1.669866062992126
11
-0.9330629921259842
21
1.5395511023622046
0
LINE
8
BLACK
6
CONTINUOUS
10
-0.9330629921259842
20
1.5395511023622046
11
-0.8602283464566929
21
1.5395511023622046
0
LINE
8
BLACK
6
CONTINUOUS
10
-0.8602283464566929
20
1.5395511023622046
11
-0.8602283464566929
21
1.669866062992126
0
LINE
8
BLACK
6
CONTINUOUS
10
-0.8602283464566929
20
1.669866062992126
11
-0.9330629921259842
21
1.669866062992126
0
LINE
8
BLACK
6
CONTINUOUS
10
-1.0273399212598424
20
1.7363266535433071
11
-1.0268072440944882
21
1.7357939763779526
0
LINE
8
BLACK
6
CONTINUOUS
10
-1.0268072440944882
20
1.7357939763779526
11
-1.0267323228346457
21
1.7354173228346457
0
LINE
8
BLACK
6
CONTINUOUS
10
-1.0267323228346457
20
1.7354173228346457
11
-1.0267323228346457
21
1.5740000000000001
0
LINE
8
BLACK
6
CONTINUOUS
10
-1.0267323228346457
20
1.5740000000000001
11
-1.0268072440944882
21
1.5736233464566929
0
LINE
8
BLACK
6
CONTINUOUS
10
-1.0268072440944882
20
1.5736233464566929
11
-1.0273399212598424
21
1.5730906692913385
0
LINE
8
BLACK
6
CONTINUOUS
10
-1.0273399212598424
20
1.5730906692913385
11
-1.0277165748031496
21
1.5730157480314961
0
LINE
8
BLACK
6
CONTINUOUS
10
-1.0277165748031496
20
1.5730157480314961
11
-1.161574842519685
21
1.5730157480314961
0
LINE
8
BLACK
6
CONTINUOUS
10
-1.161574842519685
20
1.5730157480314961
11
-1.1619514960629922
21
1.5730906692913385
0
LINE
8
BLACK
6
CONTINUOUS
10
-1.1619514960629922
20
1.5730906692913385
11
-1.1624841732283464
21
1.5736233464566929
0
LINE
8
BLACK
6
CONTINUOUS
10
-1.1624841732283464
20
1.5736233464566929
11
-1.1625590944881889
21
1.5740000000000001
0
LINE
8
BLACK
6
CONTINUOUS
10
-1.1625590944881889
20
1.5740000000000001
11
-1.1625590944881889
21
1.7354173228346457
0
LINE
8
BLACK
6
CONTINUOUS
10
-1.1625590944881889
20
1.7354173228346457
11
-1.1624841732283464
21
1.7357939763779526
0
LINE
8
BLACK
6
CONTINUOUS
10
-1.1624841732283464
20
1.7357939763779526
11
-1.1619514960629922
21
1.7363266535433071
0
LINE
8
BLACK
6
CONTINUOUS
10
-1.1619514960629922
20
1.7363266535433071
11
-1.161574842519685
21
1.7364015748031496
0
LINE
8
BLACK
6
CONTINUOUS
10
-1.161574842519685
20
1.7364015748031496
11
-1.0277165748031496
21
1.7364015748031496
0
LINE
8
BLACK
6
CONTINUOUS
10
-1.0277165748031496
20
1.7364015748031496
11
-1.0273399212598424
21
1.7363266535433071
0
LINE
8
BLACK
6
CONTINUOUS
10
-1.1605905905511811
20
1.7344330708661417
11
-1.1605905905511811
21
1.574984251968504
0
LINE
8
BLACK
6
CONTINUOUS
10
-1.1605905905511811
20
1.574984251968504
11
-1.0287008267716535
21
1.574984251968504
0
LINE
8
BLACK
6
CONTINUOUS
10
-1.0287008267716535
20
1.574984251968504
11
-1.0287008267716535
21
1.7344330708661417
0
LINE
8
BLACK
6
CONTINUOUS
10
-1.0287008267716535
20
1.7344330708661417
11
-1.1605905905511811
21
1.7344330708661417
0
LINE
8
BLACK
6
CONTINUOUS
10
-0.5173398818897638
20
1.8827990944881889
11
-0.5168072047244094
21
1.8822664173228345
0
LINE
8
BLACK
6
CONTINUOUS
10
-0.5168072047244094
20
1.8822664173228345
11
-0.5167322834645669
21
1.8818897637795275
0
LINE
8
BLACK
6
CONTINUOUS
10
-0.5167322834645669
20
1.8818897637795275
11
-0.5167322834645669
21
1.594488188976378
0
LINE
8
BLACK
6
CONTINUOUS
10
-0.5167322834645669
20
1.594488188976378
11
-0.5168072047244094
21
1.5941115354330708
0
LINE
8
BLACK
6
CONTINUOUS
10
-0.5168072047244094
20
1.5941115354330708
11
-0.5173398818897638
21
1.5935788582677164
0
LINE
8
BLACK
6
CONTINUOUS
10
-0.5173398818897638
20
1.5935788582677164
11
-0.5177165354330708
21
1.5935039370078741
0
LINE
8
BLACK
6
CONTINUOUS
10
-0.5177165354330708
20
1.5935039370078741
11
-0.6948818897637795
21
1.5935039370078741
0
LINE
8
BLACK
6
CONTINUOUS
10
-0.6948818897637795
20
1.5935039370078741
11
-0.6952585433070866
21
1.5935788582677164
0
LINE
8
BLACK
6
CONTINUOUS
10
-0.6952585433070866
20
1.5935788582677164
11
-0.6957912204724409
21
1.5941115354330708
0
LINE
8
BLACK
6
CONTINUOUS
10
-0.6957912204724409
20
1.5941115354330708
11
-0.6958661417322834
21
1.594488188976378
0
LINE
8
BLACK
6
CONTINUOUS
10
-0.6958661417322834
20
1.594488188976378
11
-0.6958661417322834
21
1.8818897637795275
0
LINE
8
BLACK
6
CONTINUOUS
10
-0.6958661417322834
20
1.8818897637795275
11
-0.6957912204724409
21
1.8822664173228345
0
LINE
8
BLACK
6
CONTINUOUS
10
-0.6957912204724409
20
1.8822664173228345
11
-0.6952585433070866
21
1.8827990944881889
0
LINE
8
BLACK
6
CONTINUOUS
10
-0.6952585433070866
20
1.8827990944881889
11
-0.6948818897637795
21
1.8828740157480315
0
LINE
8
BLACK
6
CONTINUOUS
10
-0.6948818897637795
20
1.8828740157480315
11
-0.5177165354330708
21
1.8828740157480315
0
LINE
8
BLACK
6
CONTINUOUS
10
-0.5177165354330708
20
1.8828740157480315
11
-0.5173398818897638
21
1.8827990944881889
0
LINE
8
BLACK
6
CONTINUOUS
10
-0.6938976377952756
20
1.8809055118110236
11
-0.6938976377952756
21
1.5954724409448819
0
LINE
8
BLACK
6
CONTINUOUS
10
-0.6938976377952756
20
1.5954724409448819
11
-0.5187007874015748
21
1.5954724409448819
0
LINE
8
BLACK
6
CONTINUOUS
10
-0.5187007874015748
20
1.5954724409448819
11
-0.5187007874015748
21
1.8809055118110236
0
LINE
8
BLACK
6
CONTINUOUS
10
-0.5187007874015748
20
1.8809055118110236
11
-0.6938976377952756
21
1.8809055118110236
0
LINE
8
BLACK
6
CONTINUOUS
10
-0.7221273228346456
20
1.6800195669291338
11
-0.7215946456692913
21
1.6794868897637796
0
LINE
8
BLACK
6
CONTINUOUS
10
-0.7215946456692913
20
1.6794868897637796
11
-0.7215197244094488
21
1.6791102362204724
0
LINE
8
BLACK
6
CONTINUOUS
10
-0.7215197244094488
20
1.6791102362204724
11
-0.7215197244094488
21
1.6043070866141731
0
LINE
8
BLACK
6
CONTINUOUS
10
-0.7215197244094488
20
1.6043070866141731
11
-0.7215946456692913
21
1.6039304330708661
0
LINE
8
BLACK
6
CONTINUOUS
10
-0.7215946456692913
20
1.6039304330708661
11
-0.7221273228346456
21
1.6033977559055117
0
LINE
8
BLACK
6
CONTINUOUS
10
-0.7221273228346456
20
1.6033977559055117
11
-0.7225039763779527
21
1.6033228346456692
0
LINE
8
BLACK
6
CONTINUOUS
10
-0.7225039763779527
20
1.6033228346456692
11
-0.8547874409448819
21
1.6033228346456692
0
LINE
8
BLACK
6
CONTINUOUS
10
-0.8547874409448819
20
1.6033228346456692
11
-0.855164094488189
21
1.6033977559055117
0
LINE
8
BLACK
6
CONTINUOUS
10
-0.855164094488189
20
1.6033977559055117
11
-0.8556967716535433
21
1.6039304330708661
0
LINE
8
BLACK
6
CONTINUOUS
10
-0.8556967716535433
20
1.6039304330708661
11
-0.8557716929133858
21
1.6043070866141731
0
LINE
8
BLACK
6
CONTINUOUS
10
-0.8557716929133858
20
1.6043070866141731
11
-0.8557716929133858
21
1.6791102362204724
0
LINE
8
BLACK
6
CONTINUOUS
10
-0.8557716929133858
20
1.6791102362204724
11
-0.8556967716535433
21
1.6794868897637796
0
LINE
8
BLACK
6
CONTINUOUS
10
-0.8556967716535433
20
1.6794868897637796
11
-0.855164094488189
21
1.6800195669291338
0
LINE
8
BLACK
6
CONTINUOUS
10
-0.855164094488189
20
1.6800195669291338
11
-0.8547874409448819
21
1.6800944881889763
0
LINE
8
BLACK
6
CONTINUOUS
10
-0.8547874409448819
20
1.6800944881889763
11
-0.7225039763779527
21
1.6800944881889763
0
LINE
8
BLACK
6
CONTINUOUS
10
-0.7225039763779527
20
1.6800944881889763
11
-0.7221273228346456
21
1.6800195669291338
0
LINE
8
BLACK
6
CONTINUOUS
10
-0.853803188976378
20
1.6781259842519685
11
-0.853803188976378
21
1.605291338582677
0
LINE
8
BLACK
6
CONTINUOUS
10
-0.853803188976378
20
1.605291338582677
11
-0.7234882283464567
21
1.605291338582677
0
LINE
8
BLACK
6
CONTINUOUS
10
-0.7234882283464567
20
1.605291338582677
11
-0.7234882283464567
21
1.6781259842519685
0
LINE
8
BLACK
6
CONTINUOUS
10
-0.7234882283464567
20
1.6781259842519685
11
-0.853803188976378
21
1.6781259842519685
0
LINE
8
BLACK
6
CONTINUOUS
10
-0.9531272834645669
20
1.8140194881889764
11
-0.9525946062992126
21
1.813486811023622
0
LINE
8
BLACK
6
CONTINUOUS
10
-0.9525946062992126
20
1.813486811023622
11
-0.95251968503937
21
1.813110157480315
0
LINE
8
BLACK
6
CONTINUOUS
10
-0.95251968503937
20
1.813110157480315
11
-0.95251968503937
21
1.7383070078740157
0
LINE
8
BLACK
6
CONTINUOUS
10
-0.95251968503937
20
1.7383070078740157
11
-0.9525946062992126
21
1.7379303543307085
0
LINE
8
BLACK
6
CONTINUOUS
10
-0.9525946062992126
20
1.7379303543307085
11
-0.9531272834645669
21
1.7373976771653543
0
LINE
8
BLACK
6
CONTINUOUS
10
-0.9531272834645669
20
1.7373976771653543
11
-0.9535039370078739
21
1.7373227559055118
0
LINE
8
BLACK
6
CONTINUOUS
10
-0.9535039370078739
20
1.7373227559055118
11
-1.085787401574803
21
1.7373227559055118
0
LINE
8
BLACK
6
CONTINUOUS
10
-1.085787401574803
20
1.7373227559055118
11
-1.0861640551181102
21
1.7373976771653543
0
LINE
8
BLACK
6
CONTINUOUS
10
-1.0861640551181102
20
1.7373976771653543
11
-1.0866967322834646
21
1.7379303543307085
0
LINE
8
BLACK
6
CONTINUOUS
10
-1.0866967322834646
20
1.7379303543307085
11
-1.086771653543307
21
1.7383070078740157
0
LINE
8
BLACK
6
CONTINUOUS
10
-1.086771653543307
20
1.7383070078740157
11
-1.086771653543307
21
1.813110157480315
0
LINE
8
BLACK
6
CONTINUOUS
10
-1.086771653543307
20
1.813110157480315
11
-1.0866967322834646
21
1.813486811023622
0
LINE
8
BLACK
6
CONTINUOUS
10
-1.0866967322834646
20
1.813486811023622
11
-1.0861640551181102
21
1.8140194881889764
0
LINE
8
BLACK
6
CONTINUOUS
10
-1.0861640551181102
20
1.8140194881889764
11
-1.085787401574803
21
1.8140944094488189
0
LINE
8
BLACK
6
CONTINUOUS
10
-1.085787401574803
20
1.8140944094488189
11
-0.9535039370078739
21
1.8140944094488189
0
LINE
8
BLACK
6
CONTINUOUS
10
-0.9535039370078739
20
1.8140944094488189
11
-0.9531272834645669
21
1.8140194881889764
0
LINE
8
BLACK
6
CONTINUOUS
10
-1.0848031496062991
20
1.8121259055118111
11
-1.0848031496062991
21
1.7392912598425196
0
LINE
8
BLACK
6
CONTINUOUS
10
-1.0848031496062991
20
1.7392912598425196
11
-0.9544881889763779
21
1.7392912598425196
0
LINE
8
BLACK
6
CONTINUOUS
10
-0.9544881889763779
20
1.7392912598425196
11
-0.9544881889763779
21
1.8121259055118111
0
LINE
8
BLACK
6
CONTINUOUS
10
-0.9544881889763779
20
1.8121259055118111
11
-1.0848031496062991
21
1.8121259055118111
0
LINE
8
BLACK
6
CONTINUOUS
10
-0.3480485433070866
20
1.8859487007874016
11
-0.3475158661417323
21
1.8854160236220472
0
LINE
8
BLACK
6
CONTINUOUS
10
-0.3475158661417323
20
1.8854160236220472
11
-0.3474409448818898
21
1.88503937007874
0
LINE
8
BLACK
6
CONTINUOUS
10
-0.3474409448818898
20
1.88503937007874
11
-0.3474409448818898
21
1.8078740157480315
0
LINE
8
BLACK
6
CONTINUOUS
10
-0.3474409448818898
20
1.8078740157480315
11
-0.3475158661417323
21
1.8074973622047243
0
LINE
8
BLACK
6
CONTINUOUS
10
-0.3475158661417323
20
1.8074973622047243
11
-0.3480485433070866
21
1.8069646850393701
0
LINE
8
BLACK
6
CONTINUOUS
10
-0.3480485433070866
20
1.8069646850393701
11
-0.3484251968503937
21
1.8068897637795276
0
LINE
8
BLACK
6
CONTINUOUS
10
-0.3484251968503937
20
1.8068897637795276
11
-0.4822834645669291
21
1.8068897637795276
0
LINE
8
BLACK
6
CONTINUOUS
10
-0.4822834645669291
20
1.8068897637795276
11
-0.4826601181102362
21
1.8069646850393701
0
LINE
8
BLACK
6
CONTINUOUS
10
-0.4826601181102362
20
1.8069646850393701
11
-0.4831927952755906
21
1.8074973622047243
0
LINE
8
BLACK
6
CONTINUOUS
10
-0.4831927952755906
20
1.8074973622047243
11
-0.483267716535433
21
1.8078740157480315
0
LINE
8
BLACK
6
CONTINUOUS
10
-0.483267716535433
20
1.8078740157480315
11
-0.483267716535433
21
1.88503937007874
0
LINE
8
BLACK
6
CONTINUOUS
10
-0.483267716535433
20
1.88503937007874
11
-0.4831927952755906
21
1.8854160236220472
0
LINE
8
BLACK
6
CONTINUOUS
10
-0.4831927952755906
20
1.8854160236220472
11
-0.4826601181102362
21
1.8859487007874016
0
LINE
8
BLACK
6
CONTINUOUS
10
-0.4826601181102362
20
1.8859487007874016
11
-0.4822834645669291
21
1.8860236220472439
0
LINE
8
BLACK
6
CONTINUOUS
10
-0.4822834645669291
20
1.8860236220472439
11
-0.3484251968503937
21
1.8860236220472439
0
LINE
8
BLACK
6
CONTINUOUS
10
-0.3484251968503937
20
1.8860236220472439
11
-0.3480485433070866
21
1.8859487007874016
0
LINE
8
BLACK
6
CONTINUOUS
10
-0.4812992125984252
20
1.8840551181102361
11
-0.4812992125984252
21
1.8088582677165355
0
LINE
8
BLACK
6
CONTINUOUS
10
-0.4812992125984252
20
1.8088582677165355
11
-0.3494094488188976
21
1.8088582677165355
0
LINE
8
BLACK
6
CONTINUOUS
10
-0.3494094488188976
20
1.8088582677165355
11
-0.3494094488188976
21
1.8840551181102361
0
LINE
8
BLACK
6
CONTINUOUS
10
-0.3494094488188976
20
1.8840551181102361
11
-0.4812992125984252
21
1.8840551181102361
0
LINE
8
BLACK
6
CONTINUOUS
10
-0.2614343700787402
20
1.9595707480314961
11
-0.2609016929133858
21
1.9590380708661417
0
LINE
8
BLACK
6
CONTINUOUS
10
-0.2609016929133858
20
1.9590380708661417
11
-0.2608267716535433
21
1.9586614173228345
0
LINE
8
BLACK
6
CONTINUOUS
10
-0.2608267716535433
20
1.9586614173228345
11
-0.2608267716535433
21
0.765748031496063
0
LINE
8
BLACK
6
CONTINUOUS
10
-0.2608267716535433
20
0.765748031496063
11
-0.2609016929133858
21
0.7653713779527559
0
LINE
8
BLACK
6
CONTINUOUS
10
-0.2609016929133858
20
0.7653713779527559
11
-0.2614343700787402
21
0.7648387007874016
0
LINE
8
BLACK
6
CONTINUOUS
10
-0.2614343700787402
20
0.7648387007874016
11
-0.2618110236220472
21
0.764763779527559
0
LINE
8
BLACK
6
CONTINUOUS
10
-0.2618110236220472
20
0.764763779527559
11
-1.4547244094488188
21
0.764763779527559
0
LINE
8
BLACK
6
CONTINUOUS
10
-1.4547244094488188
20
0.764763779527559
11
-1.4551010629921259
21
0.7648387007874016
0
LINE
8
BLACK
6
CONTINUOUS
10
-1.4551010629921259
20
0.7648387007874016
11
-1.4556337401574804
21
0.7653713779527559
0
LINE
8
BLACK
6
CONTINUOUS
10
-1.4556337401574804
20
0.7653713779527559
11
-1.4557086614173227
21
0.765748031496063
0
LINE
8
BLACK
6
CONTINUOUS
10
-1.4557086614173227
20
0.765748031496063
11
-1.4557086614173227
21
1.9586614173228345
0
LINE
8
BLACK
6
CONTINUOUS
10
-1.4557086614173227
20
1.9586614173228345
11
-1.4556337401574804
21
1.9590380708661417
0
LINE
8
BLACK
6
CONTINUOUS
10
-1.4556337401574804
20
1.9590380708661417
11
-1.4551010629921259
21
1.9595707480314961
0
LINE
8
BLACK
6
CONTINUOUS
10
-1.4551010629921259
20
1.9595707480314961
11
-1.4547244094488188
21
1.9596456692913384
0
LINE
8
BLACK
6
CONTINUOUS
10
-1.4547244094488188
20
1.9596456692913384
11
-0.2618110236220472
21
1.9596456692913384
0
LINE
8
BLACK
6
CONTINUOUS
10
-0.2618110236220472
20
1.9596456692913384
11
-0.2614343700787402
21
1.9595707480314961
0
LINE
8
BLACK
6
CONTINUOUS
10
-1.4537401574803148
20
1.9576771653543306
11
-1.4537401574803148
21
0.7667322834645669
0
LINE
8
BLACK
6
CONTINUOUS
10
-1.4537401574803148
20
0.7667322834645669
11
-0.2627952755905512
21
0.7667322834645669
0
LINE
8
BLACK
6
CONTINUOUS
10
-0.2627952755905512
20
0.7667322834645669
11
-0.2627952755905512
21
1.9576771653543306
0
LINE
8
BLACK
6
CONTINUOUS
10
-0.2627952755905512
20
1.9576771653543306
11
-1.4537401574803148
21
1.9576771653543306
0
LINE
8
BLACK
6
CONTINUOUS
10
-0.2023792519685039
20
2.0186258661417322
11
-0.2018465748031496
21
2.018093188976378
0
LINE
8
BLACK
6
CONTINUOUS
10
-0.2018465748031496
20
2.018093188976378
11
-0.2017716535433071
21
2.0177165354330708
0
LINE
8
BLACK
6
CONTINUOUS
10
-0.2017716535433071
20
2.0177165354330708
11
-0.2017716535433071
21
0.7066929133858267
0
LINE
8
BLACK
6
CONTINUOUS
10
-0.2017716535433071
20
0.7066929133858267
11
-0.2018465748031496
21
0.7063162598425197
0
LINE
8
BLACK
6
CONTINUOUS
10
-0.2018465748031496
20
0.7063162598425197
11
-0.2023792519685039
21
0.7057835826771653
0
LINE
8
BLACK
6
CONTINUOUS
10
-0.2023792519685039
20
0.7057835826771653
11
-0.202755905511811
21
0.7057086614173228
0
LINE
8
BLACK
6
CONTINUOUS
10
-0.202755905511811
20
0.7057086614173228
11
-1.5137795275590551
21
0.7057086614173228
0
LINE
8
BLACK
6
CONTINUOUS
10
-1.5137795275590551
20
0.7057086614173228
11
-1.5141561811023623
21
0.7057835826771653
0
LINE
8
BLACK
6
CONTINUOUS
10
-1.5141561811023623
20
0.7057835826771653
11
-1.5146888582677165
21
0.7063162598425197
0
LINE
8
BLACK
6
CONTINUOUS
10
-1.5146888582677165
20
0.7063162598425197
11
-1.514763779527559
21
0.7066929133858267
0
LINE
8
BLACK
6
CONTINUOUS
10
-1.514763779527559
20
0.7066929133858267
11
-1.514763779527559
21
2.0177165354330708
0
LINE
8
BLACK
6
CONTINUOUS
10
-1.514763779527559
20
2.0177165354330708
11
-1.5146888582677165
21
2.018093188976378
0
LINE
8
BLACK
6
CONTINUOUS
10
-1.5146888582677165
20
2.018093188976378
11
-1.5141561811023623
21
2.0186258661417322
0
LINE
8
BLACK
6
CONTINUOUS
10
-1.5141561811023623
20
2.0186258661417322
11
-1.5137795275590551
21
2.0187007874015745
0
LINE
8
BLACK
6
CONTINUOUS
10
-1.5137795275590551
20
2.0187007874015745
11
-0.202755905511811
21
2.0187007874015745
0
LINE
8
BLACK
6
CONTINUOUS
10
-0.202755905511811
20
2.0187007874015745
11
-0.2023792519685039
21
2.0186258661417322
0
LINE
8
BLACK
6
CONTINUOUS
10
-1.5127952755905512
20
2.0167322834645667
11
-1.5127952755905512
21
0.7076771653543307
0
LINE
8
BLACK
6
CONTINUOUS
10
-1.5127952755905512
20
0.7076771653543307
11
-0.203740157480315
21
0.7076771653543307
0
LINE
8
BLACK
6
CONTINUOUS
10
-0.203740157480315
20
0.7076771653543307
11
-0.203740157480315
21
2.0167322834645667
0
LINE
8
BLACK
6
CONTINUOUS
10
-0.203740157480315
20
2.0167322834645667
11
-1.5127952755905512
21
2.0167322834645667
0
LINE
8
BLACK
6
CONTINUOUS
10
-1.5985179921259842
20
0.8677075590551181
11
-1.5910267322834646
21
0.8652734645669291
0
LINE
8
BLACK
6
CONTINUOUS
10
-1.5910267322834646
20
0.8652734645669291
11
-1.5840084251968503
21
0.8616974803149606
0
LINE
8
BLACK
6
CONTINUOUS
10
-1.5840084251968503
20
0.8616974803149606
11
-1.5776359842519685
21
0.8570676377952756
0
LINE
8
BLACK
6
CONTINUOUS
10
-1.5776359842519685
20
0.8570676377952756
11
-1.5720662204724409
21
0.8514978740157481
0
LINE
8
BLACK
6
CONTINUOUS
10
-1.5720662204724409
20
0.8514978740157481
11
-1.5674363779527558
21
0.8451254330708661
0
LINE
8
BLACK
6
CONTINUOUS
10
-1.5674363779527558
20
0.8451254330708661
11
-1.5638603937007873
21
0.838107125984252
0
LINE
8
BLACK
6
CONTINUOUS
10
-1.5638603937007873
20
0.838107125984252
11
-1.5614262992125985
21
0.8306158661417322
0
LINE
8
BLACK
6
CONTINUOUS
10
-1.5614262992125985
20
0.8306158661417322
11
-1.5601940944881889
21
0.8228360236220472
0
LINE
8
BLACK
6
CONTINUOUS
10
-1.5601940944881889
20
0.8228360236220472
11
-1.5601940944881889
21
0.8149592519685039
0
LINE
8
BLACK
6
CONTINUOUS
10
-1.5601940944881889
20
0.8149592519685039
11
-1.5614262992125985
21
0.8071794094488188
0
LINE
8
BLACK
6
CONTINUOUS
10
-1.5614262992125985
20
0.8071794094488188
11
-1.5638603937007873
21
0.7996881496062992
0
LINE
8
BLACK
6
CONTINUOUS
10
-1.5638603937007873
20
0.7996881496062992
11
-1.5674363779527558
21
0.792669842519685
0
LINE
8
BLACK
6
CONTINUOUS
10
-1.5674363779527558
20
0.792669842519685
11
-1.5720662204724409
21
0.7862974015748031
0
LINE
8
BLACK
6
CONTINUOUS
10
-1.5720662204724409
20
0.7862974015748031
11
-1.5776359842519685
21
0.7807276377952755
0
LINE
8
BLACK
6
CONTINUOUS
10
-1.5776359842519685
20
0.7807276377952755
11
-1.5840084251968503
21
0.7760977952755905
0
LINE
8
BLACK
6
CONTINUOUS
10
-1.5840084251968503
20
0.7760977952755905
11
-1.5910267322834646
21
0.7725218110236221
0
LINE
8
BLACK
6
CONTINUOUS
10
-1.5910267322834646
20
0.7725218110236221
11
-1.5985179921259842
21
0.7700877165354331
0
LINE
8
BLACK
6
CONTINUOUS
10
-1.5985179921259842
20
0.7700877165354331
11
-1.6062978346456693
21
0.7688555118110236
0
LINE
8
BLACK
6
CONTINUOUS
10
-1.6062978346456693
20
0.7688555118110236
11
-1.6141746062992126
21
0.7688555118110236
0
LINE
8
BLACK
6
CONTINUOUS
10
-1.6141746062992126
20
0.7688555118110236
11
-1.6219544488188975
21
0.7700877165354331
0
LINE
8
BLACK
6
CONTINUOUS
10
-1.6219544488188975
20
0.7700877165354331
11
-1.6294457086614174
21
0.7725218110236221
0
LINE
8
BLACK
6
CONTINUOUS
10
-1.6294457086614174
20
0.7725218110236221
11
-1.6364640157480315
21
0.7760977952755905
0
LINE
8
BLACK
6
CONTINUOUS
10
-1.6364640157480315
20
0.7760977952755905
11
-1.6428364566929134
21
0.7807276377952755
0
LINE
8
BLACK
6
CONTINUOUS
10
-1.6428364566929134
20
0.7807276377952755
11
-1.648406220472441
21
0.7862974015748031
0
LINE
8
BLACK
6
CONTINUOUS
10
-1.648406220472441
20
0.7862974015748031
11
-1.6530360629921259
21
0.792669842519685
0
LINE
8
BLACK
6
CONTINUOUS
10
-1.6530360629921259
20
0.792669842519685
11
-1.6566120472440944
21
0.7996881496062992
0
LINE
8
BLACK
6
CONTINUOUS
10
-1.6566120472440944
20
0.7996881496062992
11
-1.6590461417322835
21
0.8071794094488188
0
LINE
8
BLACK
6
CONTINUOUS
10
-1.6590461417322835
20
0.8071794094488188
11
-1.6602783464566928
21
0.8149592519685039
0
LINE
8
BLACK
6
CONTINUOUS
10
-1.6602783464566928
20
0.8149592519685039
11
-1.6602783464566928
21
0.8226933070866141
0
LINE
8
BLACK
6
CONTINUOUS
10
-1.6602783464566928
20
0.8226933070866141
11
-1.6602783464566928
21
0.8228360236220472
0
LINE
8
BLACK
6
CONTINUOUS
10
-1.6602783464566928
20
0.8228360236220472
11
-1.6590461417322835
21
0.8306158661417322
0
LINE
8
BLACK
6
CONTINUOUS
10
-1.6590461417322835
20
0.8306158661417322
11
-1.6566120472440944
21
0.838107125984252
0
LINE
8
BLACK
6
CONTINUOUS
10
-1.6566120472440944
20
0.838107125984252
11
-1.6530360629921259
21
0.8451254330708661
0
LINE
8
BLACK
6
CONTINUOUS
10
-1.6530360629921259
20
0.8451254330708661
11
-1.648406220472441
21
0.8514978740157481
0
LINE
8
BLACK
6
CONTINUOUS
10
-1.648406220472441
20
0.8514978740157481
11
-1.6428364566929134
21
0.8570676377952756
0
LINE
8
BLACK
6
CONTINUOUS
10
-1.6428364566929134
20
0.8570676377952756
11
-1.6364640157480315
21
0.8616974803149606
0
LINE
8
BLACK
6
CONTINUOUS
10
-1.6364640157480315
20
0.8616974803149606
11
-1.6294457086614174
21
0.8652734645669291
0
LINE
8
BLACK
6
CONTINUOUS
10
-1.6294457086614174
20
0.8652734645669291
11
-1.6219544488188975
21
0.8677075590551181
0
LINE
8
BLACK
6
CONTINUOUS
10
-1.6219544488188975
20
0.8677075590551181
11
-1.6141746062992126
21
0.8689397637795275
0
LINE
8
BLACK
6
CONTINUOUS
10
-1.6141746062992126
20
0.8689397637795275
11
-1.6062978346456693
21
0.8689397637795275
0
LINE
8
BLACK
6
CONTINUOUS
10
-1.6062978346456693
20
0.8689397637795275
11
-1.5985179921259842
21
0.8677075590551181
0
LINE
8
BLACK
6
CONTINUOUS
10
-1.6584645669291338
20
0.815101968503937
11
-1.6572770078740158
21
0.8076041338582677
0
LINE
8
BLACK
6
CONTINUOUS
10
-1.6572770078740158
20
0.8076041338582677
11
-1.6549311811023621
21
0.8003843700787402
0
LINE
8
BLACK
6
CONTINUOUS
10
-1.6549311811023621
20
0.8003843700787402
11
-1.6514848031496063
21
0.7936204724409449
0
LINE
8
BLACK
6
CONTINUOUS
10
-1.6514848031496063
20
0.7936204724409449
11
-1.6470227559055117
21
0.7874789763779527
0
LINE
8
BLACK
6
CONTINUOUS
10
-1.6470227559055117
20
0.7874789763779527
11
-1.6416548818897638
21
0.7821111023622047
0
LINE
8
BLACK
6
CONTINUOUS
10
-1.6416548818897638
20
0.7821111023622047
11
-1.6355133858267716
21
0.7776490551181102
0
LINE
8
BLACK
6
CONTINUOUS
10
-1.6355133858267716
20
0.7776490551181102
11
-1.6287494881889764
21
0.7742026771653543
0
LINE
8
BLACK
6
CONTINUOUS
10
-1.6287494881889764
20
0.7742026771653543
11
-1.6215297244094489
21
0.7718568503937008
0
LINE
8
BLACK
6
CONTINUOUS
10
-1.6215297244094489
20
0.7718568503937008
11
-1.6140318897637795
21
0.7706692913385826
0
LINE
8
BLACK
6
CONTINUOUS
10
-1.6140318897637795
20
0.7706692913385826
11
-1.6064405511811024
21
0.7706692913385826
0
LINE
8
BLACK
6
CONTINUOUS
10
-1.6064405511811024
20
0.7706692913385826
11
-1.5989427165354331
21
0.7718568503937008
0
LINE
8
BLACK
6
CONTINUOUS
10
-1.5989427165354331
20
0.7718568503937008
11
-1.5917229527559056
21
0.7742026771653543
0
LINE
8
BLACK
6
CONTINUOUS
10
-1.5917229527559056
20
0.7742026771653543
11
-1.5849590551181103
21
0.7776490551181102
0
LINE
8
BLACK
6
CONTINUOUS
10
-1.5849590551181103
20
0.7776490551181102
11
-1.5788175590551181
21
0.7821111023622047
0
LINE
8
BLACK
6
CONTINUOUS
10
-1.5788175590551181
20
0.7821111023622047
11
-1.57344968503937
21
0.7874789763779527
0
LINE
8
BLACK
6
CONTINUOUS
10
-1.57344968503937
20
0.7874789763779527
11
-1.5689876377952756
21
0.7936204724409449
0
LINE
8
BLACK
6
CONTINUOUS
10
-1.5689876377952756
20
0.7936204724409449
11
-1.5655412598425196
21
0.8003843700787402
0
LINE
8
BLACK
6
CONTINUOUS
10
-1.5655412598425196
20
0.8003843700787402
11
-1.5631954330708662
21
0.8076041338582677
0
LINE
8
BLACK
6
CONTINUOUS
10
-1.5631954330708662
20
0.8076041338582677
11
-1.5620078740157479
21
0.815101968503937
0
LINE
8
BLACK
6
CONTINUOUS
10
-1.5620078740157479
20
0.815101968503937
11
-1.5620078740157479
21
0.8226933070866141
0
LINE
8
BLACK
6
CONTINUOUS
10
-1.5620078740157479
20
0.8226933070866141
11
-1.5631954330708662
21
0.8301911417322835
0
LINE
8
BLACK
6
CONTINUOUS
10
-1.5631954330708662
20
0.8301911417322835
11
-1.5655412598425196
21
0.837410905511811
0
LINE
8
BLACK
6
CONTINUOUS
10
-1.5655412598425196
20
0.837410905511811
11
-1.5689876377952756
21
0.8441748031496062
0
LINE
8
BLACK
6
CONTINUOUS
10
-1.5689876377952756
20
0.8441748031496062
11
-1.57344968503937
21
0.8503162992125984
0
LINE
8
BLACK
6
CONTINUOUS
10
-1.57344968503937
20
0.8503162992125984
11
-1.5788175590551181
21
0.8556841732283464
0
LINE
8
BLACK
6
CONTINUOUS
10
-1.5788175590551181
20
0.8556841732283464
11
-1.5849590551181103
21
0.8601462204724409
0
LINE
8
BLACK
6
CONTINUOUS
10
-1.5849590551181103
20
0.8601462204724409
11
-1.5917229527559056
21
0.8635925984251969
0
LINE
8
BLACK
6
CONTINUOUS
10
-1.5917229527559056
20
0.8635925984251969
11
-1.5989427165354331
21
0.8659384251968504
0
LINE
8
BLACK
6
CONTINUOUS
10
-1.5989427165354331
20
0.8659384251968504
11
-1.6064405511811024
21
0.8671259842519685
0
LINE
8
BLACK
6
CONTINUOUS
10
-1.6064405511811024
20
0.8671259842519685
11
-1.6140318897637795
21
0.8671259842519685
0
LINE
8
BLACK
6
CONTINUOUS
10
-1.6140318897637795
20
0.8671259842519685
11
-1.6215297244094489
21
0.8659384251968504
0
LINE
8
BLACK
6
CONTINUOUS
10
-1.6215297244094489
20
0.8659384251968504
11
-1.6287494881889764
21
0.8635925984251969
0
LINE
8
BLACK
6
CONTINUOUS
10
-1.6287494881889764
20
0.8635925984251969
11
-1.6355133858267716
21
0.8601462204724409
0
LINE
8
BLACK
6
CONTINUOUS
10
-1.6355133858267716
20
0.8601462204724409
11
-1.6416548818897638
21
0.8556841732283464
0
LINE
8
BLACK
6
CONTINUOUS
10
-1.6416548818897638
20
0.8556841732283464
11
-1.6470227559055117
21
0.8503162992125984
0
LINE
8
BLACK
6
CONTINUOUS
10
-1.6470227559055117
20
0.8503162992125984
11
-1.6514848031496063
21
0.8441748031496062
0
LINE
8
BLACK
6
CONTINUOUS
10
-1.6514848031496063
20
0.8441748031496062
11
-1.6549311811023621
21
0.837410905511811
0
LINE
8
BLACK
6
CONTINUOUS
10
-1.6549311811023621
20
0.837410905511811
11
-1.6572770078740158
21
0.8301911417322835
0
LINE
8
BLACK
6
CONTINUOUS
10
-1.6572770078740158
20
0.8301911417322835
11
-1.6584645669291338
21
0.8226933070866141
0
LINE
8
BLACK
6
CONTINUOUS
10
-1.6584645669291338
20
0.8226933070866141
11
-1.6584645669291338
21
0.815101968503937
0
LINE
8
BLACK
6
CONTINUOUS
10
0.1645498818897638
20
2.0154762598425195
11
0.1650825590551181
21
2.0149435826771653
0
LINE
8
BLACK
6
CONTINUOUS
10
0.1650825590551181
20
2.0149435826771653
11
0.1651574803149606
21
2.0145669291338582
0
LINE
8
BLACK
6
CONTINUOUS
10
0.1651574803149606
20
2.0145669291338582
11
0.1651574803149606
21
1.6862204724409449
0
LINE
8
BLACK
6
CONTINUOUS
10
0.1651574803149606
20
1.6862204724409449
11
0.1650825590551181
21
1.6858438188976377
0
LINE
8
BLACK
6
CONTINUOUS
10
0.1650825590551181
20
1.6858438188976377
11
0.1645498818897638
21
1.6853111417322835
0
LINE
8
BLACK
6
CONTINUOUS
10
0.1645498818897638
20
1.6853111417322835
11
0.1641732283464567
21
1.6852362204724409
0
LINE
8
BLACK
6
CONTINUOUS
10
0.1641732283464567
20
1.6852362204724409
11
-0.1641732283464567
21
1.6852362204724409
0
LINE
8
BLACK
6
CONTINUOUS
10
-0.1641732283464567
20
1.6852362204724409
11
-0.1645498818897638
21
1.6853111417322835
0
LINE
8
BLACK
6
CONTINUOUS
10
-0.1645498818897638
20
1.6853111417322835
11
-0.1650825590551181
21
1.6858438188976377
0
LINE
8
BLACK
6
CONTINUOUS
10
-0.1650825590551181
20
1.6858438188976377
11
-0.1651574803149606
21
1.6862204724409449
0
LINE
8
BLACK
6
CONTINUOUS
10
-0.1651574803149606
20
1.6862204724409449
11
-0.1651574803149606
21
2.0145669291338582
0
LINE
8
BLACK
6
CONTINUOUS
10
-0.1651574803149606
20
2.0145669291338582
11
-0.1650825590551181
21
2.0149435826771653
0
LINE
8
BLACK
6
CONTINUOUS
10
-0.1650825590551181
20
2.0149435826771653
11
-0.1645498818897638
21
2.0154762598425195
0
LINE
8
BLACK
6
CONTINUOUS
10
-0.1645498818897638
20
2.0154762598425195
11
-0.1641732283464567
21
2.0155511811023623
0
LINE
8
BLACK
6
CONTINUOUS
10
-0.1641732283464567
20
2.0155511811023623
11
0.1641732283464567
21
2.0155511811023623
0
LINE
8
BLACK
6
CONTINUOUS
10
0.1641732283464567
20
2.0155511811023623
11
0.1645498818897638
21
2.0154762598425195
0
LINE
8
BLACK
6
CONTINUOUS
10
-0.1631889763779528
20
2.0135826771653544
11
-0.1631889763779528
21
1.6872047244094488
0
LINE
8
BLACK
6
CONTINUOUS
10
-0.1631889763779528
20
1.6872047244094488
11
0.1631889763779528
21
1.6872047244094488
0
LINE
8
BLACK
6
CONTINUOUS
10
0.1631889763779528
20
1.6872047244094488
11
0.1631889763779528
21
2.0135826771653544
0
LINE
8
BLACK
6
CONTINUOUS
10
0.1631889763779528
20
2.0135826771653544
11
-0.1631889763779528
21
2.0135826771653544
0
LINE
8
BLACK
6
CONTINUOUS
10
-0.3032424015748031
20
2.1354240944881888
11
-0.2957511417322835
21
2.1329899999999999
0
LINE
8
BLACK
6
CONTINUOUS
10
-0.2957511417322835
20
2.1329899999999999
11
-0.2887328346456693
21
2.1294140157480315
0
LINE
8
BLACK
6
CONTINUOUS
10
-0.2887328346456693
20
2.1294140157480315
11
-0.2823603937007874
21
2.1247841732283463
0
LINE
8
BLACK
6
CONTINUOUS
10
-0.2823603937007874
20
2.1247841732283463
11
-0.2767906299212599
21
2.1192144094488188
0
LINE
8
BLACK
6
CONTINUOUS
10
-0.2767906299212599
20
2.1192144094488188
11
-0.2721607874015748
21
2.112841968503937
0
LINE
8
BLACK
6
CONTINUOUS
10
-0.2721607874015748
20
2.112841968503937
11
-0.2685848031496063
21
2.1058236614173227
0
LINE
8
BLACK
6
CONTINUOUS
10
-0.2685848031496063
20
2.1058236614173227
11
-0.2661507086614173
21
2.0983324015748033
0
LINE
8
BLACK
6
CONTINUOUS
10
-0.2661507086614173
20
2.0983324015748033
11
-0.2649185039370079
21
2.0905525590551179
0
LINE
8
BLACK
6
CONTINUOUS
10
-0.2649185039370079
20
2.0905525590551179
11
-0.2649185039370079
21
2.0826757874015747
0
LINE
8
BLACK
6
CONTINUOUS
10
-0.2649185039370079
20
2.0826757874015747
11
-0.2661507086614173
21
2.0748959448818898
0
LINE
8
BLACK
6
CONTINUOUS
10
-0.2661507086614173
20
2.0748959448818898
11
-0.2685848031496063
21
2.0674046850393699
0
LINE
8
BLACK
6
CONTINUOUS
10
-0.2685848031496063
20
2.0674046850393699
11
-0.2721607874015748
21
2.060386377952756
0
LINE
8
BLACK
6
CONTINUOUS
10
-0.2721607874015748
20
2.060386377952756
11
-0.2767906299212599
21
2.0540139370078738
0
LINE
8
BLACK
6
CONTINUOUS
10
-0.2767906299212599
20
2.0540139370078738
11
-0.2823603937007874
21
2.0484441732283463
0
LINE
8
BLACK
6
CONTINUOUS
10
-0.2823603937007874
20
2.0484441732283463
11
-0.2887328346456693
21
2.0438143307086616
0
LINE
8
BLACK
6
CONTINUOUS
10
-0.2887328346456693
20
2.0438143307086616
11
-0.2957511417322835
21
2.0402383464566927
0
LINE
8
BLACK
6
CONTINUOUS
10
-0.2957511417322835
20
2.0402383464566927
11
-0.3032424015748031
21
2.0378042519685038
0
LINE
8
BLACK
6
CONTINUOUS
10
-0.3032424015748031
20
2.0378042519685038
11
-0.3110222440944882
21
2.0365720472440945
0
LINE
8
BLACK
6
CONTINUOUS
10
-0.3110222440944882
20
2.0365720472440945
11
-0.3188990157480315
21
2.0365720472440945
0
LINE
8
BLACK
6
CONTINUOUS
10
-0.3188990157480315
20
2.0365720472440945
11
-0.3266788582677165
21
2.0378042519685038
0
LINE
8
BLACK
6
CONTINUOUS
10
-0.3266788582677165
20
2.0378042519685038
11
-0.3341701181102362
21
2.0402383464566927
0
LINE
8
BLACK
6
CONTINUOUS
10
-0.3341701181102362
20
2.0402383464566927
11
-0.3411884251968504
21
2.0438143307086616
0
LINE
8
BLACK
6
CONTINUOUS
10
-0.3411884251968504
20
2.0438143307086616
11
-0.3475608661417323
21
2.0484441732283463
0
LINE
8
BLACK
6
CONTINUOUS
10
-0.3475608661417323
20
2.0484441732283463
11
-0.3531306299212598
21
2.0540139370078738
0
LINE
8
BLACK
6
CONTINUOUS
10
-0.3531306299212598
20
2.0540139370078738
11
-0.3577604724409449
21
2.060386377952756
0
LINE
8
BLACK
6
CONTINUOUS
10
-0.3577604724409449
20
2.060386377952756
11
-0.3613364566929134
21
2.0674046850393699
0
LINE
8
BLACK
6
CONTINUOUS
10
-0.3613364566929134
20
2.0674046850393699
11
-0.3637705511811024
21
2.0748959448818898
0
LINE
8
BLACK
6
CONTINUOUS
10
-0.3637705511811024
20
2.0748959448818898
11
-0.3650027559055118
21
2.0826757874015747
0
LINE
8
BLACK
6
CONTINUOUS
10
-0.3650027559055118
20
2.0826757874015747
11
-0.3650027559055118
21
2.0904098425196849
0
LINE
8
BLACK
6
CONTINUOUS
10
-0.3650027559055118
20
2.0904098425196849
11
-0.3650027559055118
21
2.0905525590551179
0
LINE
8
BLACK
6
CONTINUOUS
10
-0.3650027559055118
20
2.0905525590551179
11
-0.3637705511811024
21
2.0983324015748033
0
LINE
8
BLACK
6
CONTINUOUS
10
-0.3637705511811024
20
2.0983324015748033
11
-0.3613364566929134
21
2.1058236614173227
0
LINE
8
BLACK
6
CONTINUOUS
10
-0.3613364566929134
20
2.1058236614173227
11
-0.3577604724409449
21
2.112841968503937
0
LINE
8
BLACK
6
CONTINUOUS
10
-0.3577604724409449
20
2.112841968503937
11
-0.3531306299212598
21
2.1192144094488188
0
LINE
8
BLACK
6
CONTINUOUS
10
-0.3531306299212598
20
2.1192144094488188
11
-0.3475608661417323
21
2.1247841732283463
0
LINE
8
BLACK
6
CONTINUOUS
10
-0.3475608661417323
20
2.1247841732283463
11
-0.3411884251968504
21
2.1294140157480315
0
LINE
8
BLACK
6
CONTINUOUS
10
-0.3411884251968504
20
2.1294140157480315
11
-0.3341701181102362
21
2.1329899999999999
0
LINE
8
BLACK
6
CONTINUOUS
10
-0.3341701181102362
20
2.1329899999999999
11
-0.3266788582677165
21
2.1354240944881888
0
LINE
8
BLACK
6
CONTINUOUS
10
-0.3266788582677165
20
2.1354240944881888
11
-0.3188990157480315
21
2.1366562992125986
0
LINE
8
BLACK
6
CONTINUOUS
10
-0.3188990157480315
20
2.1366562992125986
11
-0.3110222440944882
21
2.1366562992125986
0
LINE
8
BLACK
6
CONTINUOUS
10
-0.3110222440944882
20
2.1366562992125986
11
-0.3032424015748031
21
2.1354240944881888
0
LINE
8
BLACK
6
CONTINUOUS
10
-0.3631889763779527
20
2.0828185039370077
11
-0.3620014173228346
21
2.0753206692913384
0
LINE
8
BLACK
6
CONTINUOUS
10
-0.3620014173228346
20
2.0753206692913384
11
-0.3596555905511811
21
2.0681009055118111
0
LINE
8
BLACK
6
CONTINUOUS
10
-0.3596555905511811
20
2.0681009055118111
11
-0.3562092125984252
21
2.0613370078740156
0
LINE
8
BLACK
6
CONTINUOUS
10
-0.3562092125984252
20
2.0613370078740156
11
-0.3517471653543307
21
2.0551955118110237
0
LINE
8
BLACK
6
CONTINUOUS
10
-0.3517471653543307
20
2.0551955118110237
11
-0.3463792913385827
21
2.0498276377952753
0
LINE
8
BLACK
6
CONTINUOUS
10
-0.3463792913385827
20
2.0498276377952753
11
-0.3402377952755906
21
2.0453655905511812
0
LINE
8
BLACK
6
CONTINUOUS
10
-0.3402377952755906
20
2.0453655905511812
11
-0.3334738976377953
21
2.0419192125984251
0
LINE
8
BLACK
6
CONTINUOUS
10
-0.3334738976377953
20
2.0419192125984251
11
-0.3262541338582677
21
2.0395733858267717
0
LINE
8
BLACK
6
CONTINUOUS
10
-0.3262541338582677
20
2.0395733858267717
11
-0.3187562992125984
21
2.0383858267716537
0
LINE
8
BLACK
6
CONTINUOUS
10
-0.3187562992125984
20
2.0383858267716537
11
-0.3111649606299213
21
2.0383858267716537
0
LINE
8
BLACK
6
CONTINUOUS
10
-0.3111649606299213
20
2.0383858267716537
11
-0.3036671259842519
21
2.0395733858267717
0
LINE
8
BLACK
6
CONTINUOUS
10
-0.3036671259842519
20
2.0395733858267717
11
-0.2964473622047244
21
2.0419192125984251
0
LINE
8
BLACK
6
CONTINUOUS
10
-0.2964473622047244
20
2.0419192125984251
11
-0.2896834645669291
21
2.0453655905511812
0
LINE
8
BLACK
6
CONTINUOUS
10
-0.2896834645669291
20
2.0453655905511812
11
-0.283541968503937
21
2.0498276377952753
0
LINE
8
BLACK
6
CONTINUOUS
10
-0.283541968503937
20
2.0498276377952753
11
-0.278174094488189
21
2.0551955118110237
0
LINE
8
BLACK
6
CONTINUOUS
10
-0.278174094488189
20
2.0551955118110237
11
-0.2737120472440945
21
2.0613370078740156
0
LINE
8
BLACK
6
CONTINUOUS
10
-0.2737120472440945
20
2.0613370078740156
11
-0.2702656692913386
21
2.0681009055118111
0
LINE
8
BLACK
6
CONTINUOUS
10
-0.2702656692913386
20
2.0681009055118111
11
-0.267919842519685
21
2.0753206692913384
0
LINE
8
BLACK
6
CONTINUOUS
10
-0.267919842519685
20
2.0753206692913384
11
-0.2667322834645669
21
2.0828185039370077
0
LINE
8
BLACK
6
CONTINUOUS
10
-0.2667322834645669
20
2.0828185039370077
11
-0.2667322834645669
21
2.0904098425196849
0
LINE
8
BLACK
6
CONTINUOUS
10
-0.2667322834645669
20
2.0904098425196849
11
-0.267919842519685
21
2.0979076771653542
0
LINE
8
BLACK
6
CONTINUOUS
10
-0.267919842519685
20
2.0979076771653542
11
-0.2702656692913386
21
2.1051274409448819
0
LINE
8
BLACK
6
CONTINUOUS
10
-0.2702656692913386
20
2.1051274409448819
11
-0.2737120472440945
21
2.111891338582677
0
LINE
8
BLACK
6
CONTINUOUS
10
-0.2737120472440945
20
2.111891338582677
11
-0.278174094488189
21
2.1180328346456694
0
LINE
8
BLACK
6
CONTINUOUS
10
-0.278174094488189
20
2.1180328346456694
11
-0.283541968503937
21
2.1234007086614173
0
LINE
8
BLACK
6
CONTINUOUS
10
-0.283541968503937
20
2.1234007086614173
11
-0.2896834645669291
21
2.1278627559055119
0
LINE
8
BLACK
6
CONTINUOUS
10
-0.2896834645669291
20
2.1278627559055119
11
-0.2964473622047244
21
2.1313091338582675
0
LINE
8
BLACK
6
CONTINUOUS
10
-0.2964473622047244
20
2.1313091338582675
11
-0.3036671259842519
21
2.1336549606299213
0
LINE
8
BLACK
6
CONTINUOUS
10
-0.3036671259842519
20
2.1336549606299213
11
-0.3111649606299213
21
2.1348425196850394
0
LINE
8
BLACK
6
CONTINUOUS
10
-0.3111649606299213
20
2.1348425196850394
11
-0.3187562992125984
21
2.1348425196850394
0
LINE
8
BLACK
6
CONTINUOUS
10
-0.3187562992125984
20
2.1348425196850394
11
-0.3262541338582677
21
2.1336549606299213
0
LINE
8
BLACK
6
CONTINUOUS
10
-0.3262541338582677
20
2.1336549606299213
11
-0.3334738976377953
21
2.1313091338582675
0
LINE
8
BLACK
6
CONTINUOUS
10
-0.3334738976377953
20
2.1313091338582675
11
-0.3402377952755906
21
2.1278627559055119
0
LINE
8
BLACK
6
CONTINUOUS
10
-0.3402377952755906
20
2.1278627559055119
11
-0.3463792913385827
21
2.1234007086614173
0
LINE
8
BLACK
6
CONTINUOUS
10
-0.3463792913385827
20
2.1234007086614173
11
-0.3517471653543307
21
2.1180328346456694
0
LINE
8
BLACK
6
CONTINUOUS
10
-0.3517471653543307
20
2.1180328346456694
11
-0.3562092125984252
21
2.111891338582677
0
LINE
8
BLACK
6
CONTINUOUS
10
-0.3562092125984252
20
2.111891338582677
11
-0.3596555905511811
21
2.1051274409448819
0
LINE
8
BLACK
6
CONTINUOUS
10
-0.3596555905511811
20
2.1051274409448819
11
-0.3620014173228346
21
2.0979076771653542
0
LINE
8
BLACK
6
CONTINUOUS
10
-0.3620014173228346
20
2.0979076771653542
11
-0.3631889763779527
21
2.0904098425196849
0
LINE
8
BLACK
6
CONTINUOUS
10
-0.3631889763779527
20
2.0904098425196849
11
-0.3631889763779527
21
2.0828185039370077
0
CIRCLE
8
BLACK
10
0.45
20
-1.918503937007874
40
0.0068897637795276
0
CIRCLE
8
BLACK
10
0.45
20
-2.0185039370078739
40
0.0068897637795276
0
CIRCLE
8
BLACK
10
0.35
20
-1.918503937007874
40
0.0068897637795276
0
CIRCLE
8
BLACK
10
0.35
20
-2.0185039370078739
40
0.0068897637795276
0
CIRCLE
8
BLACK
10
0.25
20
-1.918503937007874
40
0.0068897637795276
0
CIRCLE
8
BLACK
10
0.25
20
-2.0185039370078739
40
0.0068897637795276
0
CIRCLE
8
BLACK
10
0.15
20
-1.918503937007874
40
0.0068897637795276
0
CIRCLE
8
BLACK
10
0.15
20
-2.0185039370078739
40
0.0068897637795276
0
CIRCLE
8
BLACK
10
0.05
20
-1.918503937007874
40
0.0068897637795276
0
CIRCLE
8
BLACK
10
0.05
20
-2.0185039370078739
40
0.0068897637795276
0
CIRCLE
8
BLACK
10
-0.05
20
-1.918503937007874
40
0.0068897637795276
0
CIRCLE
8
BLACK
10
-0.05
20
-2.0185039370078739
40
0.0068897637795276
0
CIRCLE
8
BLACK
10
-0.15
20
-1.918503937007874
40
0.0068897637795276
0
CIRCLE
8
BLACK
10
-0.15
20
-2.0185039370078739
40
0.0068897637795276
0
CIRCLE
8
BLACK
10
-0.25
20
-1.918503937007874
40
0.0068897637795276
0
CIRCLE
8
BLACK
10
-0.25
20
-2.0185039370078739
40
0.0068897637795276
0
CIRCLE
8
BLACK
10
-0.35
20
-1.918503937007874
40
0.0068897637795276
0
CIRCLE
8
BLACK
10
-0.35
20
-2.0185039370078739
40
0.0068897637795276
0
CIRCLE
8
BLACK
10
-0.45
20
-1.918503937007874
40
0.0068897637795276
0
CIRCLE
8
BLACK
10
-0.45
20
-2.0185039370078739
40
0.0068897637795276
0
CIRCLE
8
BLACK
10
0.7858267716535433
20
-1.9196850393700786
40
0.0068897637795276
0
CIRCLE
8
BLACK
10
0.8858267716535433
20
-1.9196850393700786
40
0.0068897637795276
0
CIRCLE
8
BLACK
10
0.7858267716535433
20
-2.0196850393700787
40
0.0068897637795276
0
CIRCLE
8
BLACK
10
0.8858267716535433
20
-2.0196850393700787
40
0.0068897637795276
0
CIRCLE
8
BLACK
10
0.7858267716535433
20
-2.1196850393700788
40
0.0068897637795276
0
CIRCLE
8
BLACK
10
0.8858267716535433
20
-2.1196850393700788
40
0.0068897637795276
0
CIRCLE
8
BLACK
10
0.
20
1.8503937007874016
40
0.0068897637795276
0
CIRCLE
8
BLACK
10
-0.1
20
1.9503937007874015
40
0.0068897637795276
0
CIRCLE
8
BLACK
10
-0.1
20
1.7503937007874015
40
0.0068897637795276
0
CIRCLE
8
BLACK
10
0.1
20
1.9503937007874015
40
0.0068897637795276
0
CIRCLE
8
BLACK
10
0.1
20
1.7503937007874015
40
0.0068897637795276
  0
ENDSEC
  0
EOF
