  0
SECTION
  2
HEADER
  9
$ANGBASE
  50
0.0
  9
$ANGDIR
  70
1
  9
$MEASUREMENT
  70
0
  0
ENDSEC
  0
SECTION
  2
TABLES
  0
TABLE
  2
LTYPE
  70
4
  0
LTYPE
  5
40F
  2
CONTINUOUS
  70
0
  3
Solid line
  72
65
  73
0
  40
0.0
  0
LTYPE
  5
410
  2
DASHDOT
 70
0
  3
Dash Dot ____ _ ____ _
 72
65
 73
4
 40
2.0
 49
1.25
 49
-0.25
 49
0.25
 49
-0.25
  0
LTYPE
  5
411
  2
DASHED
 70
0
  3
Dashed __ __ __ __ __
 72
65
 73
2
 40
0.75
 49
0.5
 49
-0.25
  0
LTYPE
  5
43B
  2
DOTTED
 70
0
  3
Dotted .  .  .  .
 72
65
 73
2
 40
0.2
 49
0.0
 49
-0.2
  0
ENDTAB
  0
TABLE
  2
STYLE
  70
4
  0
STYLE
  2
KICAD
  70
0
  40
0
  41
1
  42
1
  50
0
  71
0
  3
isocp.shx
  0
STYLE
  2
KICADB
  70
0
  40
0
  41
1
  42
1
  50
0
  71
0
  3
isocp.shx
  0
STYLE
  2
KICADI
  70
0
  40
0
  41
1
  42
1
  50
15
  71
0
  3
isocp.shx
  0
STYLE
  2
KICADBI
  70
0
  40
0
  41
1
  42
1
  50
15
  71
0
  3
isocp.shx
  0
ENDTAB
  0
TABLE
  2
LAYER
  70
1
  0
LAYER
  2
BLACK
  70
0
  62
7
  6
CONTINUOUS
  0
ENDTAB
  0
ENDSEC
  0
SECTION
  2
ENTITIES
0
LINE
8
BLACK
6
CONTINUOUS
10
0.8165800787401575
20
-2.0878663779527558
11
0.8172187007874016
21
-2.0882931102362203
0
LINE
8
BLACK
6
CONTINUOUS
10
0.8172187007874016
20
-2.0882931102362203
11
0.8176454330708661
21
-2.0889317322834646
0
LINE
8
BLACK
6
CONTINUOUS
10
0.8176454330708661
20
-2.0889317322834646
11
0.8177952755905512
21
-2.0896850393700785
0
LINE
8
BLACK
6
CONTINUOUS
10
0.8177952755905512
20
-2.0896850393700785
11
0.8177952755905512
21
-2.1496850393700786
0
LINE
8
BLACK
6
CONTINUOUS
10
0.8177952755905512
20
-2.1496850393700786
11
0.8176454330708661
21
-2.150438346456693
0
LINE
8
BLACK
6
CONTINUOUS
10
0.8176454330708661
20
-2.150438346456693
11
0.8172187007874016
21
-2.1510769685039368
0
LINE
8
BLACK
6
CONTINUOUS
10
0.8172187007874016
20
-2.1510769685039368
11
0.8165800787401575
21
-2.1515037007874014
0
LINE
8
BLACK
6
CONTINUOUS
10
0.8165800787401575
20
-2.1515037007874014
11
0.8158267716535433
21
-2.1516535433070865
0
LINE
8
BLACK
6
CONTINUOUS
10
0.8158267716535433
20
-2.1516535433070865
11
0.7558267716535433
21
-2.1516535433070865
0
LINE
8
BLACK
6
CONTINUOUS
10
0.7558267716535433
20
-2.1516535433070865
11
0.7550734645669291
21
-2.1515037007874014
0
LINE
8
BLACK
6
CONTINUOUS
10
0.7550734645669291
20
-2.1515037007874014
11
0.7544348425196851
21
-2.1510769685039368
0
LINE
8
BLACK
6
CONTINUOUS
10
0.7544348425196851
20
-2.1510769685039368
11
0.7540081102362205
21
-2.150438346456693
0
LINE
8
BLACK
6
CONTINUOUS
10
0.7540081102362205
20
-2.150438346456693
11
0.7538582677165354
21
-2.1496850393700786
0
LINE
8
BLACK
6
CONTINUOUS
10
0.7538582677165354
20
-2.1496850393700786
11
0.7538582677165354
21
-2.0896850393700785
0
LINE
8
BLACK
6
CONTINUOUS
10
0.7538582677165354
20
-2.0896850393700785
11
0.7540081102362205
21
-2.0889317322834646
0
LINE
8
BLACK
6
CONTINUOUS
10
0.7540081102362205
20
-2.0889317322834646
11
0.7544348425196851
21
-2.0882931102362203
0
LINE
8
BLACK
6
CONTINUOUS
10
0.7544348425196851
20
-2.0882931102362203
11
0.7550734645669291
21
-2.0878663779527558
0
LINE
8
BLACK
6
CONTINUOUS
10
0.7550734645669291
20
-2.0878663779527558
11
0.7558267716535433
21
-2.0877165354330707
0
LINE
8
BLACK
6
CONTINUOUS
10
0.7558267716535433
20
-2.0877165354330707
11
0.8158267716535433
21
-2.0877165354330707
0
LINE
8
BLACK
6
CONTINUOUS
10
0.8158267716535433
20
-2.0877165354330707
11
0.8165800787401575
21
-2.0878663779527558
0
LINE
8
BLACK
6
CONTINUOUS
10
0.9165800787401575
20
-2.0878663779527558
11
0.9172187007874015
21
-2.0882931102362203
0
LINE
8
BLACK
6
CONTINUOUS
10
0.9172187007874015
20
-2.0882931102362203
11
0.9176454330708661
21
-2.0889317322834646
0
LINE
8
BLACK
6
CONTINUOUS
10
0.9176454330708661
20
-2.0889317322834646
11
0.9177952755905512
21
-2.0896850393700785
0
LINE
8
BLACK
6
CONTINUOUS
10
0.9177952755905512
20
-2.0896850393700785
11
0.9177952755905512
21
-2.1496850393700786
0
LINE
8
BLACK
6
CONTINUOUS
10
0.9177952755905512
20
-2.1496850393700786
11
0.9176454330708661
21
-2.150438346456693
0
LINE
8
BLACK
6
CONTINUOUS
10
0.9176454330708661
20
-2.150438346456693
11
0.9172187007874015
21
-2.1510769685039368
0
LINE
8
BLACK
6
CONTINUOUS
10
0.9172187007874015
20
-2.1510769685039368
11
0.9165800787401575
21
-2.1515037007874014
0
LINE
8
BLACK
6
CONTINUOUS
10
0.9165800787401575
20
-2.1515037007874014
11
0.9158267716535433
21
-2.1516535433070865
0
LINE
8
BLACK
6
CONTINUOUS
10
0.9158267716535433
20
-2.1516535433070865
11
0.8558267716535433
21
-2.1516535433070865
0
LINE
8
BLACK
6
CONTINUOUS
10
0.8558267716535433
20
-2.1516535433070865
11
0.8550734645669291
21
-2.1515037007874014
0
LINE
8
BLACK
6
CONTINUOUS
10
0.8550734645669291
20
-2.1515037007874014
11
0.854434842519685
21
-2.1510769685039368
0
LINE
8
BLACK
6
CONTINUOUS
10
0.854434842519685
20
-2.1510769685039368
11
0.8540081102362205
21
-2.150438346456693
0
LINE
8
BLACK
6
CONTINUOUS
10
0.8540081102362205
20
-2.150438346456693
11
0.8538582677165354
21
-2.1496850393700786
0
LINE
8
BLACK
6
CONTINUOUS
10
0.8538582677165354
20
-2.1496850393700786
11
0.8538582677165354
21
-2.0896850393700785
0
LINE
8
BLACK
6
CONTINUOUS
10
0.8538582677165354
20
-2.0896850393700785
11
0.8540081102362205
21
-2.0889317322834646
0
LINE
8
BLACK
6
CONTINUOUS
10
0.8540081102362205
20
-2.0889317322834646
11
0.854434842519685
21
-2.0882931102362203
0
LINE
8
BLACK
6
CONTINUOUS
10
0.854434842519685
20
-2.0882931102362203
11
0.8550734645669291
21
-2.0878663779527558
0
LINE
8
BLACK
6
CONTINUOUS
10
0.8550734645669291
20
-2.0878663779527558
11
0.8558267716535433
21
-2.0877165354330707
0
LINE
8
BLACK
6
CONTINUOUS
10
0.8558267716535433
20
-2.0877165354330707
11
0.9158267716535433
21
-2.0877165354330707
0
LINE
8
BLACK
6
CONTINUOUS
10
0.9158267716535433
20
-2.0877165354330707
11
0.9165800787401575
21
-2.0878663779527558
0
LINE
8
BLACK
6
CONTINUOUS
10
0.8165800787401575
20
-1.9878663779527559
11
0.8172187007874016
21
-1.9882931102362205
0
LINE
8
BLACK
6
CONTINUOUS
10
0.8172187007874016
20
-1.9882931102362205
11
0.8176454330708661
21
-1.9889317322834645
0
LINE
8
BLACK
6
CONTINUOUS
10
0.8176454330708661
20
-1.9889317322834645
11
0.8177952755905512
21
-1.9896850393700787
0
LINE
8
BLACK
6
CONTINUOUS
10
0.8177952755905512
20
-1.9896850393700787
11
0.8177952755905512
21
-2.0496850393700785
0
LINE
8
BLACK
6
CONTINUOUS
10
0.8177952755905512
20
-2.0496850393700785
11
0.8176454330708661
21
-2.0504383464566929
0
LINE
8
BLACK
6
CONTINUOUS
10
0.8176454330708661
20
-2.0504383464566929
11
0.8172187007874016
21
-2.0510769685039372
0
LINE
8
BLACK
6
CONTINUOUS
10
0.8172187007874016
20
-2.0510769685039372
11
0.8165800787401575
21
-2.0515037007874017
0
LINE
8
BLACK
6
CONTINUOUS
10
0.8165800787401575
20
-2.0515037007874017
11
0.8158267716535433
21
-2.0516535433070864
0
LINE
8
BLACK
6
CONTINUOUS
10
0.8158267716535433
20
-2.0516535433070864
11
0.7558267716535433
21
-2.0516535433070864
0
LINE
8
BLACK
6
CONTINUOUS
10
0.7558267716535433
20
-2.0516535433070864
11
0.7550734645669291
21
-2.0515037007874017
0
LINE
8
BLACK
6
CONTINUOUS
10
0.7550734645669291
20
-2.0515037007874017
11
0.7544348425196851
21
-2.0510769685039372
0
LINE
8
BLACK
6
CONTINUOUS
10
0.7544348425196851
20
-2.0510769685039372
11
0.7540081102362205
21
-2.0504383464566929
0
LINE
8
BLACK
6
CONTINUOUS
10
0.7540081102362205
20
-2.0504383464566929
11
0.7538582677165354
21
-2.0496850393700785
0
LINE
8
BLACK
6
CONTINUOUS
10
0.7538582677165354
20
-2.0496850393700785
11
0.7538582677165354
21
-1.9896850393700787
0
LINE
8
BLACK
6
CONTINUOUS
10
0.7538582677165354
20
-1.9896850393700787
11
0.7540081102362205
21
-1.9889317322834645
0
LINE
8
BLACK
6
CONTINUOUS
10
0.7540081102362205
20
-1.9889317322834645
11
0.7544348425196851
21
-1.9882931102362205
0
LINE
8
BLACK
6
CONTINUOUS
10
0.7544348425196851
20
-1.9882931102362205
11
0.7550734645669291
21
-1.9878663779527559
0
LINE
8
BLACK
6
CONTINUOUS
10
0.7550734645669291
20
-1.9878663779527559
11
0.7558267716535433
21
-1.9877165354330708
0
LINE
8
BLACK
6
CONTINUOUS
10
0.7558267716535433
20
-1.9877165354330708
11
0.8158267716535433
21
-1.9877165354330708
0
LINE
8
BLACK
6
CONTINUOUS
10
0.8158267716535433
20
-1.9877165354330708
11
0.8165800787401575
21
-1.9878663779527559
0
LINE
8
BLACK
6
CONTINUOUS
10
0.9165800787401575
20
-1.9878663779527559
11
0.9172187007874015
21
-1.9882931102362205
0
LINE
8
BLACK
6
CONTINUOUS
10
0.9172187007874015
20
-1.9882931102362205
11
0.9176454330708661
21
-1.9889317322834645
0
LINE
8
BLACK
6
CONTINUOUS
10
0.9176454330708661
20
-1.9889317322834645
11
0.9177952755905512
21
-1.9896850393700787
0
LINE
8
BLACK
6
CONTINUOUS
10
0.9177952755905512
20
-1.9896850393700787
11
0.9177952755905512
21
-2.0496850393700785
0
LINE
8
BLACK
6
CONTINUOUS
10
0.9177952755905512
20
-2.0496850393700785
11
0.9176454330708661
21
-2.0504383464566929
0
LINE
8
BLACK
6
CONTINUOUS
10
0.9176454330708661
20
-2.0504383464566929
11
0.9172187007874015
21
-2.0510769685039372
0
LINE
8
BLACK
6
CONTINUOUS
10
0.9172187007874015
20
-2.0510769685039372
11
0.9165800787401575
21
-2.0515037007874017
0
LINE
8
BLACK
6
CONTINUOUS
10
0.9165800787401575
20
-2.0515037007874017
11
0.9158267716535433
21
-2.0516535433070864
0
LINE
8
BLACK
6
CONTINUOUS
10
0.9158267716535433
20
-2.0516535433070864
11
0.8558267716535433
21
-2.0516535433070864
0
LINE
8
BLACK
6
CONTINUOUS
10
0.8558267716535433
20
-2.0516535433070864
11
0.8550734645669291
21
-2.0515037007874017
0
LINE
8
BLACK
6
CONTINUOUS
10
0.8550734645669291
20
-2.0515037007874017
11
0.854434842519685
21
-2.0510769685039372
0
LINE
8
BLACK
6
CONTINUOUS
10
0.854434842519685
20
-2.0510769685039372
11
0.8540081102362205
21
-2.0504383464566929
0
LINE
8
BLACK
6
CONTINUOUS
10
0.8540081102362205
20
-2.0504383464566929
11
0.8538582677165354
21
-2.0496850393700785
0
LINE
8
BLACK
6
CONTINUOUS
10
0.8538582677165354
20
-2.0496850393700785
11
0.8538582677165354
21
-1.9896850393700787
0
LINE
8
BLACK
6
CONTINUOUS
10
0.8538582677165354
20
-1.9896850393700787
11
0.8540081102362205
21
-1.9889317322834645
0
LINE
8
BLACK
6
CONTINUOUS
10
0.8540081102362205
20
-1.9889317322834645
11
0.854434842519685
21
-1.9882931102362205
0
LINE
8
BLACK
6
CONTINUOUS
10
0.854434842519685
20
-1.9882931102362205
11
0.8550734645669291
21
-1.9878663779527559
0
LINE
8
BLACK
6
CONTINUOUS
10
0.8550734645669291
20
-1.9878663779527559
11
0.8558267716535433
21
-1.9877165354330708
0
LINE
8
BLACK
6
CONTINUOUS
10
0.8558267716535433
20
-1.9877165354330708
11
0.9158267716535433
21
-1.9877165354330708
0
LINE
8
BLACK
6
CONTINUOUS
10
0.9158267716535433
20
-1.9877165354330708
11
0.9165800787401575
21
-1.9878663779527559
0
LINE
8
BLACK
6
CONTINUOUS
10
-0.4192466929133858
20
-1.9866852755905511
11
-0.4186080708661417
21
-1.9871120078740157
0
LINE
8
BLACK
6
CONTINUOUS
10
-0.4186080708661417
20
-1.9871120078740157
11
-0.4181813385826771
21
-1.9877506299212597
0
LINE
8
BLACK
6
CONTINUOUS
10
-0.4181813385826771
20
-1.9877506299212597
11
-0.4180314960629921
21
-1.9885039370078739
0
LINE
8
BLACK
6
CONTINUOUS
10
-0.4180314960629921
20
-1.9885039370078739
11
-0.4180314960629921
21
-2.0485039370078741
0
LINE
8
BLACK
6
CONTINUOUS
10
-0.4180314960629921
20
-2.0485039370078741
11
-0.4181813385826771
21
-2.0492572440944881
0
LINE
8
BLACK
6
CONTINUOUS
10
-0.4181813385826771
20
-2.0492572440944881
11
-0.4186080708661417
21
-2.0498958661417324
0
LINE
8
BLACK
6
CONTINUOUS
10
-0.4186080708661417
20
-2.0498958661417324
11
-0.4192466929133858
21
-2.0503225984251969
0
LINE
8
BLACK
6
CONTINUOUS
10
-0.4192466929133858
20
-2.0503225984251969
11
-0.42
21
-2.050472440944882
0
LINE
8
BLACK
6
CONTINUOUS
10
-0.42
20
-2.050472440944882
11
-0.48
21
-2.050472440944882
0
LINE
8
BLACK
6
CONTINUOUS
10
-0.48
20
-2.050472440944882
11
-0.4807533070866142
21
-2.0503225984251969
0
LINE
8
BLACK
6
CONTINUOUS
10
-0.4807533070866142
20
-2.0503225984251969
11
-0.4813919291338583
21
-2.0498958661417324
0
LINE
8
BLACK
6
CONTINUOUS
10
-0.4813919291338583
20
-2.0498958661417324
11
-0.4818186614173228
21
-2.0492572440944881
0
LINE
8
BLACK
6
CONTINUOUS
10
-0.4818186614173228
20
-2.0492572440944881
11
-0.4819685039370079
21
-2.0485039370078741
0
LINE
8
BLACK
6
CONTINUOUS
10
-0.4819685039370079
20
-2.0485039370078741
11
-0.4819685039370079
21
-1.9885039370078739
0
LINE
8
BLACK
6
CONTINUOUS
10
-0.4819685039370079
20
-1.9885039370078739
11
-0.4818186614173228
21
-1.9877506299212597
0
LINE
8
BLACK
6
CONTINUOUS
10
-0.4818186614173228
20
-1.9877506299212597
11
-0.4813919291338583
21
-1.9871120078740157
0
LINE
8
BLACK
6
CONTINUOUS
10
-0.4813919291338583
20
-1.9871120078740157
11
-0.4807533070866142
21
-1.9866852755905511
0
LINE
8
BLACK
6
CONTINUOUS
10
-0.4807533070866142
20
-1.9866852755905511
11
-0.48
21
-1.986535433070866
0
LINE
8
BLACK
6
CONTINUOUS
10
-0.48
20
-1.986535433070866
11
-0.42
21
-1.986535433070866
0
LINE
8
BLACK
6
CONTINUOUS
10
-0.42
20
-1.986535433070866
11
-0.4192466929133858
21
-1.9866852755905511
0
LINE
8
BLACK
6
CONTINUOUS
10
-0.3192466929133858
20
-1.9866852755905511
11
-0.3186080708661417
21
-1.9871120078740157
0
LINE
8
BLACK
6
CONTINUOUS
10
-0.3186080708661417
20
-1.9871120078740157
11
-0.3181813385826772
21
-1.9877506299212597
0
LINE
8
BLACK
6
CONTINUOUS
10
-0.3181813385826772
20
-1.9877506299212597
11
-0.3180314960629921
21
-1.9885039370078739
0
LINE
8
BLACK
6
CONTINUOUS
10
-0.3180314960629921
20
-1.9885039370078739
11
-0.3180314960629921
21
-2.0485039370078741
0
LINE
8
BLACK
6
CONTINUOUS
10
-0.3180314960629921
20
-2.0485039370078741
11
-0.3181813385826772
21
-2.0492572440944881
0
LINE
8
BLACK
6
CONTINUOUS
10
-0.3181813385826772
20
-2.0492572440944881
11
-0.3186080708661417
21
-2.0498958661417324
0
LINE
8
BLACK
6
CONTINUOUS
10
-0.3186080708661417
20
-2.0498958661417324
11
-0.3192466929133858
21
-2.0503225984251969
0
LINE
8
BLACK
6
CONTINUOUS
10
-0.3192466929133858
20
-2.0503225984251969
11
-0.32
21
-2.050472440944882
0
LINE
8
BLACK
6
CONTINUOUS
10
-0.32
20
-2.050472440944882
11
-0.38
21
-2.050472440944882
0
LINE
8
BLACK
6
CONTINUOUS
10
-0.38
20
-2.050472440944882
11
-0.3807533070866141
21
-2.0503225984251969
0
LINE
8
BLACK
6
CONTINUOUS
10
-0.3807533070866141
20
-2.0503225984251969
11
-0.3813919291338583
21
-2.0498958661417324
0
LINE
8
BLACK
6
CONTINUOUS
10
-0.3813919291338583
20
-2.0498958661417324
11
-0.3818186614173228
21
-2.0492572440944881
0
LINE
8
BLACK
6
CONTINUOUS
10
-0.3818186614173228
20
-2.0492572440944881
11
-0.3819685039370079
21
-2.0485039370078741
0
LINE
8
BLACK
6
CONTINUOUS
10
-0.3819685039370079
20
-2.0485039370078741
11
-0.3819685039370079
21
-1.9885039370078739
0
LINE
8
BLACK
6
CONTINUOUS
10
-0.3819685039370079
20
-1.9885039370078739
11
-0.3818186614173228
21
-1.9877506299212597
0
LINE
8
BLACK
6
CONTINUOUS
10
-0.3818186614173228
20
-1.9877506299212597
11
-0.3813919291338583
21
-1.9871120078740157
0
LINE
8
BLACK
6
CONTINUOUS
10
-0.3813919291338583
20
-1.9871120078740157
11
-0.3807533070866141
21
-1.9866852755905511
0
LINE
8
BLACK
6
CONTINUOUS
10
-0.3807533070866141
20
-1.9866852755905511
11
-0.38
21
-1.986535433070866
0
LINE
8
BLACK
6
CONTINUOUS
10
-0.38
20
-1.986535433070866
11
-0.32
21
-1.986535433070866
0
LINE
8
BLACK
6
CONTINUOUS
10
-0.32
20
-1.986535433070866
11
-0.3192466929133858
21
-1.9866852755905511
0
LINE
8
BLACK
6
CONTINUOUS
10
-0.2192466929133858
20
-1.9866852755905511
11
-0.2186080708661417
21
-1.9871120078740157
0
LINE
8
BLACK
6
CONTINUOUS
10
-0.2186080708661417
20
-1.9871120078740157
11
-0.2181813385826772
21
-1.9877506299212597
0
LINE
8
BLACK
6
CONTINUOUS
10
-0.2181813385826772
20
-1.9877506299212597
11
-0.2180314960629921
21
-1.9885039370078739
0
LINE
8
BLACK
6
CONTINUOUS
10
-0.2180314960629921
20
-1.9885039370078739
11
-0.2180314960629921
21
-2.0485039370078741
0
LINE
8
BLACK
6
CONTINUOUS
10
-0.2180314960629921
20
-2.0485039370078741
11
-0.2181813385826772
21
-2.0492572440944881
0
LINE
8
BLACK
6
CONTINUOUS
10
-0.2181813385826772
20
-2.0492572440944881
11
-0.2186080708661417
21
-2.0498958661417324
0
LINE
8
BLACK
6
CONTINUOUS
10
-0.2186080708661417
20
-2.0498958661417324
11
-0.2192466929133858
21
-2.0503225984251969
0
LINE
8
BLACK
6
CONTINUOUS
10
-0.2192466929133858
20
-2.0503225984251969
11
-0.22
21
-2.050472440944882
0
LINE
8
BLACK
6
CONTINUOUS
10
-0.22
20
-2.050472440944882
11
-0.28
21
-2.050472440944882
0
LINE
8
BLACK
6
CONTINUOUS
10
-0.28
20
-2.050472440944882
11
-0.2807533070866142
21
-2.0503225984251969
0
LINE
8
BLACK
6
CONTINUOUS
10
-0.2807533070866142
20
-2.0503225984251969
11
-0.2813919291338582
21
-2.0498958661417324
0
LINE
8
BLACK
6
CONTINUOUS
10
-0.2813919291338582
20
-2.0498958661417324
11
-0.2818186614173228
21
-2.0492572440944881
0
LINE
8
BLACK
6
CONTINUOUS
10
-0.2818186614173228
20
-2.0492572440944881
11
-0.2819685039370078
21
-2.0485039370078741
0
LINE
8
BLACK
6
CONTINUOUS
10
-0.2819685039370078
20
-2.0485039370078741
11
-0.2819685039370078
21
-1.9885039370078739
0
LINE
8
BLACK
6
CONTINUOUS
10
-0.2819685039370078
20
-1.9885039370078739
11
-0.2818186614173228
21
-1.9877506299212597
0
LINE
8
BLACK
6
CONTINUOUS
10
-0.2818186614173228
20
-1.9877506299212597
11
-0.2813919291338582
21
-1.9871120078740157
0
LINE
8
BLACK
6
CONTINUOUS
10
-0.2813919291338582
20
-1.9871120078740157
11
-0.2807533070866142
21
-1.9866852755905511
0
LINE
8
BLACK
6
CONTINUOUS
10
-0.2807533070866142
20
-1.9866852755905511
11
-0.28
21
-1.986535433070866
0
LINE
8
BLACK
6
CONTINUOUS
10
-0.28
20
-1.986535433070866
11
-0.22
21
-1.986535433070866
0
LINE
8
BLACK
6
CONTINUOUS
10
-0.22
20
-1.986535433070866
11
-0.2192466929133858
21
-1.9866852755905511
0
LINE
8
BLACK
6
CONTINUOUS
10
-0.1192466929133858
20
-1.9866852755905511
11
-0.1186080708661417
21
-1.9871120078740157
0
LINE
8
BLACK
6
CONTINUOUS
10
-0.1186080708661417
20
-1.9871120078740157
11
-0.1181813385826772
21
-1.9877506299212597
0
LINE
8
BLACK
6
CONTINUOUS
10
-0.1181813385826772
20
-1.9877506299212597
11
-0.1180314960629921
21
-1.9885039370078739
0
LINE
8
BLACK
6
CONTINUOUS
10
-0.1180314960629921
20
-1.9885039370078739
11
-0.1180314960629921
21
-2.0485039370078741
0
LINE
8
BLACK
6
CONTINUOUS
10
-0.1180314960629921
20
-2.0485039370078741
11
-0.1181813385826772
21
-2.0492572440944881
0
LINE
8
BLACK
6
CONTINUOUS
10
-0.1181813385826772
20
-2.0492572440944881
11
-0.1186080708661417
21
-2.0498958661417324
0
LINE
8
BLACK
6
CONTINUOUS
10
-0.1186080708661417
20
-2.0498958661417324
11
-0.1192466929133858
21
-2.0503225984251969
0
LINE
8
BLACK
6
CONTINUOUS
10
-0.1192466929133858
20
-2.0503225984251969
11
-0.12
21
-2.050472440944882
0
LINE
8
BLACK
6
CONTINUOUS
10
-0.12
20
-2.050472440944882
11
-0.18
21
-2.050472440944882
0
LINE
8
BLACK
6
CONTINUOUS
10
-0.18
20
-2.050472440944882
11
-0.1807533070866142
21
-2.0503225984251969
0
LINE
8
BLACK
6
CONTINUOUS
10
-0.1807533070866142
20
-2.0503225984251969
11
-0.1813919291338583
21
-2.0498958661417324
0
LINE
8
BLACK
6
CONTINUOUS
10
-0.1813919291338583
20
-2.0498958661417324
11
-0.1818186614173228
21
-2.0492572440944881
0
LINE
8
BLACK
6
CONTINUOUS
10
-0.1818186614173228
20
-2.0492572440944881
11
-0.1819685039370079
21
-2.0485039370078741
0
LINE
8
BLACK
6
CONTINUOUS
10
-0.1819685039370079
20
-2.0485039370078741
11
-0.1819685039370079
21
-1.9885039370078739
0
LINE
8
BLACK
6
CONTINUOUS
10
-0.1819685039370079
20
-1.9885039370078739
11
-0.1818186614173228
21
-1.9877506299212597
0
LINE
8
BLACK
6
CONTINUOUS
10
-0.1818186614173228
20
-1.9877506299212597
11
-0.1813919291338583
21
-1.9871120078740157
0
LINE
8
BLACK
6
CONTINUOUS
10
-0.1813919291338583
20
-1.9871120078740157
11
-0.1807533070866142
21
-1.9866852755905511
0
LINE
8
BLACK
6
CONTINUOUS
10
-0.1807533070866142
20
-1.9866852755905511
11
-0.18
21
-1.986535433070866
0
LINE
8
BLACK
6
CONTINUOUS
10
-0.18
20
-1.986535433070866
11
-0.12
21
-1.986535433070866
0
LINE
8
BLACK
6
CONTINUOUS
10
-0.12
20
-1.986535433070866
11
-0.1192466929133858
21
-1.9866852755905511
0
LINE
8
BLACK
6
CONTINUOUS
10
-0.0192466929133858
20
-1.9866852755905511
11
-0.0186080708661417
21
-1.9871120078740157
0
LINE
8
BLACK
6
CONTINUOUS
10
-0.0186080708661417
20
-1.9871120078740157
11
-0.0181813385826772
21
-1.9877506299212597
0
LINE
8
BLACK
6
CONTINUOUS
10
-0.0181813385826772
20
-1.9877506299212597
11
-0.0180314960629921
21
-1.9885039370078739
0
LINE
8
BLACK
6
CONTINUOUS
10
-0.0180314960629921
20
-1.9885039370078739
11
-0.0180314960629921
21
-2.0485039370078741
0
LINE
8
BLACK
6
CONTINUOUS
10
-0.0180314960629921
20
-2.0485039370078741
11
-0.0181813385826772
21
-2.0492572440944881
0
LINE
8
BLACK
6
CONTINUOUS
10
-0.0181813385826772
20
-2.0492572440944881
11
-0.0186080708661417
21
-2.0498958661417324
0
LINE
8
BLACK
6
CONTINUOUS
10
-0.0186080708661417
20
-2.0498958661417324
11
-0.0192466929133858
21
-2.0503225984251969
0
LINE
8
BLACK
6
CONTINUOUS
10
-0.0192466929133858
20
-2.0503225984251969
11
-0.02
21
-2.050472440944882
0
LINE
8
BLACK
6
CONTINUOUS
10
-0.02
20
-2.050472440944882
11
-0.08
21
-2.050472440944882
0
LINE
8
BLACK
6
CONTINUOUS
10
-0.08
20
-2.050472440944882
11
-0.0807533070866142
21
-2.0503225984251969
0
LINE
8
BLACK
6
CONTINUOUS
10
-0.0807533070866142
20
-2.0503225984251969
11
-0.0813919291338583
21
-2.0498958661417324
0
LINE
8
BLACK
6
CONTINUOUS
10
-0.0813919291338583
20
-2.0498958661417324
11
-0.0818186614173228
21
-2.0492572440944881
0
LINE
8
BLACK
6
CONTINUOUS
10
-0.0818186614173228
20
-2.0492572440944881
11
-0.0819685039370079
21
-2.0485039370078741
0
LINE
8
BLACK
6
CONTINUOUS
10
-0.0819685039370079
20
-2.0485039370078741
11
-0.0819685039370079
21
-1.9885039370078739
0
LINE
8
BLACK
6
CONTINUOUS
10
-0.0819685039370079
20
-1.9885039370078739
11
-0.0818186614173228
21
-1.9877506299212597
0
LINE
8
BLACK
6
CONTINUOUS
10
-0.0818186614173228
20
-1.9877506299212597
11
-0.0813919291338583
21
-1.9871120078740157
0
LINE
8
BLACK
6
CONTINUOUS
10
-0.0813919291338583
20
-1.9871120078740157
11
-0.0807533070866142
21
-1.9866852755905511
0
LINE
8
BLACK
6
CONTINUOUS
10
-0.0807533070866142
20
-1.9866852755905511
11
-0.08
21
-1.986535433070866
0
LINE
8
BLACK
6
CONTINUOUS
10
-0.08
20
-1.986535433070866
11
-0.02
21
-1.986535433070866
0
LINE
8
BLACK
6
CONTINUOUS
10
-0.02
20
-1.986535433070866
11
-0.0192466929133858
21
-1.9866852755905511
0
LINE
8
BLACK
6
CONTINUOUS
10
0.0807533070866142
20
-1.9866852755905511
11
0.0813919291338583
21
-1.9871120078740157
0
LINE
8
BLACK
6
CONTINUOUS
10
0.0813919291338583
20
-1.9871120078740157
11
0.0818186614173228
21
-1.9877506299212597
0
LINE
8
BLACK
6
CONTINUOUS
10
0.0818186614173228
20
-1.9877506299212597
11
0.0819685039370079
21
-1.9885039370078739
0
LINE
8
BLACK
6
CONTINUOUS
10
0.0819685039370079
20
-1.9885039370078739
11
0.0819685039370079
21
-2.0485039370078741
0
LINE
8
BLACK
6
CONTINUOUS
10
0.0819685039370079
20
-2.0485039370078741
11
0.0818186614173228
21
-2.0492572440944881
0
LINE
8
BLACK
6
CONTINUOUS
10
0.0818186614173228
20
-2.0492572440944881
11
0.0813919291338583
21
-2.0498958661417324
0
LINE
8
BLACK
6
CONTINUOUS
10
0.0813919291338583
20
-2.0498958661417324
11
0.0807533070866142
21
-2.0503225984251969
0
LINE
8
BLACK
6
CONTINUOUS
10
0.0807533070866142
20
-2.0503225984251969
11
0.08
21
-2.050472440944882
0
LINE
8
BLACK
6
CONTINUOUS
10
0.08
20
-2.050472440944882
11
0.02
21
-2.050472440944882
0
LINE
8
BLACK
6
CONTINUOUS
10
0.02
20
-2.050472440944882
11
0.0192466929133858
21
-2.0503225984251969
0
LINE
8
BLACK
6
CONTINUOUS
10
0.0192466929133858
20
-2.0503225984251969
11
0.0186080708661417
21
-2.0498958661417324
0
LINE
8
BLACK
6
CONTINUOUS
10
0.0186080708661417
20
-2.0498958661417324
11
0.0181813385826772
21
-2.0492572440944881
0
LINE
8
BLACK
6
CONTINUOUS
10
0.0181813385826772
20
-2.0492572440944881
11
0.0180314960629921
21
-2.0485039370078741
0
LINE
8
BLACK
6
CONTINUOUS
10
0.0180314960629921
20
-2.0485039370078741
11
0.0180314960629921
21
-1.9885039370078739
0
LINE
8
BLACK
6
CONTINUOUS
10
0.0180314960629921
20
-1.9885039370078739
11
0.0181813385826772
21
-1.9877506299212597
0
LINE
8
BLACK
6
CONTINUOUS
10
0.0181813385826772
20
-1.9877506299212597
11
0.0186080708661417
21
-1.9871120078740157
0
LINE
8
BLACK
6
CONTINUOUS
10
0.0186080708661417
20
-1.9871120078740157
11
0.0192466929133858
21
-1.9866852755905511
0
LINE
8
BLACK
6
CONTINUOUS
10
0.0192466929133858
20
-1.9866852755905511
11
0.02
21
-1.986535433070866
0
LINE
8
BLACK
6
CONTINUOUS
10
0.02
20
-1.986535433070866
11
0.08
21
-1.986535433070866
0
LINE
8
BLACK
6
CONTINUOUS
10
0.08
20
-1.986535433070866
11
0.0807533070866142
21
-1.9866852755905511
0
LINE
8
BLACK
6
CONTINUOUS
10
0.1807533070866142
20
-1.9866852755905511
11
0.1813919291338583
21
-1.9871120078740157
0
LINE
8
BLACK
6
CONTINUOUS
10
0.1813919291338583
20
-1.9871120078740157
11
0.1818186614173228
21
-1.9877506299212597
0
LINE
8
BLACK
6
CONTINUOUS
10
0.1818186614173228
20
-1.9877506299212597
11
0.1819685039370079
21
-1.9885039370078739
0
LINE
8
BLACK
6
CONTINUOUS
10
0.1819685039370079
20
-1.9885039370078739
11
0.1819685039370079
21
-2.0485039370078741
0
LINE
8
BLACK
6
CONTINUOUS
10
0.1819685039370079
20
-2.0485039370078741
11
0.1818186614173228
21
-2.0492572440944881
0
LINE
8
BLACK
6
CONTINUOUS
10
0.1818186614173228
20
-2.0492572440944881
11
0.1813919291338583
21
-2.0498958661417324
0
LINE
8
BLACK
6
CONTINUOUS
10
0.1813919291338583
20
-2.0498958661417324
11
0.1807533070866142
21
-2.0503225984251969
0
LINE
8
BLACK
6
CONTINUOUS
10
0.1807533070866142
20
-2.0503225984251969
11
0.18
21
-2.050472440944882
0
LINE
8
BLACK
6
CONTINUOUS
10
0.18
20
-2.050472440944882
11
0.12
21
-2.050472440944882
0
LINE
8
BLACK
6
CONTINUOUS
10
0.12
20
-2.050472440944882
11
0.1192466929133858
21
-2.0503225984251969
0
LINE
8
BLACK
6
CONTINUOUS
10
0.1192466929133858
20
-2.0503225984251969
11
0.1186080708661417
21
-2.0498958661417324
0
LINE
8
BLACK
6
CONTINUOUS
10
0.1186080708661417
20
-2.0498958661417324
11
0.1181813385826772
21
-2.0492572440944881
0
LINE
8
BLACK
6
CONTINUOUS
10
0.1181813385826772
20
-2.0492572440944881
11
0.1180314960629921
21
-2.0485039370078741
0
LINE
8
BLACK
6
CONTINUOUS
10
0.1180314960629921
20
-2.0485039370078741
11
0.1180314960629921
21
-1.9885039370078739
0
LINE
8
BLACK
6
CONTINUOUS
10
0.1180314960629921
20
-1.9885039370078739
11
0.1181813385826772
21
-1.9877506299212597
0
LINE
8
BLACK
6
CONTINUOUS
10
0.1181813385826772
20
-1.9877506299212597
11
0.1186080708661417
21
-1.9871120078740157
0
LINE
8
BLACK
6
CONTINUOUS
10
0.1186080708661417
20
-1.9871120078740157
11
0.1192466929133858
21
-1.9866852755905511
0
LINE
8
BLACK
6
CONTINUOUS
10
0.1192466929133858
20
-1.9866852755905511
11
0.12
21
-1.986535433070866
0
LINE
8
BLACK
6
CONTINUOUS
10
0.12
20
-1.986535433070866
11
0.18
21
-1.986535433070866
0
LINE
8
BLACK
6
CONTINUOUS
10
0.18
20
-1.986535433070866
11
0.1807533070866142
21
-1.9866852755905511
0
LINE
8
BLACK
6
CONTINUOUS
10
0.2807533070866142
20
-1.9866852755905511
11
0.2813919291338582
21
-1.9871120078740157
0
LINE
8
BLACK
6
CONTINUOUS
10
0.2813919291338582
20
-1.9871120078740157
11
0.2818186614173228
21
-1.9877506299212597
0
LINE
8
BLACK
6
CONTINUOUS
10
0.2818186614173228
20
-1.9877506299212597
11
0.2819685039370078
21
-1.9885039370078739
0
LINE
8
BLACK
6
CONTINUOUS
10
0.2819685039370078
20
-1.9885039370078739
11
0.2819685039370078
21
-2.0485039370078741
0
LINE
8
BLACK
6
CONTINUOUS
10
0.2819685039370078
20
-2.0485039370078741
11
0.2818186614173228
21
-2.0492572440944881
0
LINE
8
BLACK
6
CONTINUOUS
10
0.2818186614173228
20
-2.0492572440944881
11
0.2813919291338582
21
-2.0498958661417324
0
LINE
8
BLACK
6
CONTINUOUS
10
0.2813919291338582
20
-2.0498958661417324
11
0.2807533070866142
21
-2.0503225984251969
0
LINE
8
BLACK
6
CONTINUOUS
10
0.2807533070866142
20
-2.0503225984251969
11
0.28
21
-2.050472440944882
0
LINE
8
BLACK
6
CONTINUOUS
10
0.28
20
-2.050472440944882
11
0.22
21
-2.050472440944882
0
LINE
8
BLACK
6
CONTINUOUS
10
0.22
20
-2.050472440944882
11
0.2192466929133858
21
-2.0503225984251969
0
LINE
8
BLACK
6
CONTINUOUS
10
0.2192466929133858
20
-2.0503225984251969
11
0.2186080708661417
21
-2.0498958661417324
0
LINE
8
BLACK
6
CONTINUOUS
10
0.2186080708661417
20
-2.0498958661417324
11
0.2181813385826772
21
-2.0492572440944881
0
LINE
8
BLACK
6
CONTINUOUS
10
0.2181813385826772
20
-2.0492572440944881
11
0.2180314960629921
21
-2.0485039370078741
0
LINE
8
BLACK
6
CONTINUOUS
10
0.2180314960629921
20
-2.0485039370078741
11
0.2180314960629921
21
-1.9885039370078739
0
LINE
8
BLACK
6
CONTINUOUS
10
0.2180314960629921
20
-1.9885039370078739
11
0.2181813385826772
21
-1.9877506299212597
0
LINE
8
BLACK
6
CONTINUOUS
10
0.2181813385826772
20
-1.9877506299212597
11
0.2186080708661417
21
-1.9871120078740157
0
LINE
8
BLACK
6
CONTINUOUS
10
0.2186080708661417
20
-1.9871120078740157
11
0.2192466929133858
21
-1.9866852755905511
0
LINE
8
BLACK
6
CONTINUOUS
10
0.2192466929133858
20
-1.9866852755905511
11
0.22
21
-1.986535433070866
0
LINE
8
BLACK
6
CONTINUOUS
10
0.22
20
-1.986535433070866
11
0.28
21
-1.986535433070866
0
LINE
8
BLACK
6
CONTINUOUS
10
0.28
20
-1.986535433070866
11
0.2807533070866142
21
-1.9866852755905511
0
LINE
8
BLACK
6
CONTINUOUS
10
0.3807533070866141
20
-1.9866852755905511
11
0.3813919291338583
21
-1.9871120078740157
0
LINE
8
BLACK
6
CONTINUOUS
10
0.3813919291338583
20
-1.9871120078740157
11
0.3818186614173228
21
-1.9877506299212597
0
LINE
8
BLACK
6
CONTINUOUS
10
0.3818186614173228
20
-1.9877506299212597
11
0.3819685039370079
21
-1.9885039370078739
0
LINE
8
BLACK
6
CONTINUOUS
10
0.3819685039370079
20
-1.9885039370078739
11
0.3819685039370079
21
-2.0485039370078741
0
LINE
8
BLACK
6
CONTINUOUS
10
0.3819685039370079
20
-2.0485039370078741
11
0.3818186614173228
21
-2.0492572440944881
0
LINE
8
BLACK
6
CONTINUOUS
10
0.3818186614173228
20
-2.0492572440944881
11
0.3813919291338583
21
-2.0498958661417324
0
LINE
8
BLACK
6
CONTINUOUS
10
0.3813919291338583
20
-2.0498958661417324
11
0.3807533070866141
21
-2.0503225984251969
0
LINE
8
BLACK
6
CONTINUOUS
10
0.3807533070866141
20
-2.0503225984251969
11
0.38
21
-2.050472440944882
0
LINE
8
BLACK
6
CONTINUOUS
10
0.38
20
-2.050472440944882
11
0.32
21
-2.050472440944882
0
LINE
8
BLACK
6
CONTINUOUS
10
0.32
20
-2.050472440944882
11
0.3192466929133858
21
-2.0503225984251969
0
LINE
8
BLACK
6
CONTINUOUS
10
0.3192466929133858
20
-2.0503225984251969
11
0.3186080708661417
21
-2.0498958661417324
0
LINE
8
BLACK
6
CONTINUOUS
10
0.3186080708661417
20
-2.0498958661417324
11
0.3181813385826772
21
-2.0492572440944881
0
LINE
8
BLACK
6
CONTINUOUS
10
0.3181813385826772
20
-2.0492572440944881
11
0.3180314960629921
21
-2.0485039370078741
0
LINE
8
BLACK
6
CONTINUOUS
10
0.3180314960629921
20
-2.0485039370078741
11
0.3180314960629921
21
-1.9885039370078739
0
LINE
8
BLACK
6
CONTINUOUS
10
0.3180314960629921
20
-1.9885039370078739
11
0.3181813385826772
21
-1.9877506299212597
0
LINE
8
BLACK
6
CONTINUOUS
10
0.3181813385826772
20
-1.9877506299212597
11
0.3186080708661417
21
-1.9871120078740157
0
LINE
8
BLACK
6
CONTINUOUS
10
0.3186080708661417
20
-1.9871120078740157
11
0.3192466929133858
21
-1.9866852755905511
0
LINE
8
BLACK
6
CONTINUOUS
10
0.3192466929133858
20
-1.9866852755905511
11
0.32
21
-1.986535433070866
0
LINE
8
BLACK
6
CONTINUOUS
10
0.32
20
-1.986535433070866
11
0.38
21
-1.986535433070866
0
LINE
8
BLACK
6
CONTINUOUS
10
0.38
20
-1.986535433070866
11
0.3807533070866141
21
-1.9866852755905511
0
LINE
8
BLACK
6
CONTINUOUS
10
0.4807533070866142
20
-1.9866852755905511
11
0.4813919291338583
21
-1.9871120078740157
0
LINE
8
BLACK
6
CONTINUOUS
10
0.4813919291338583
20
-1.9871120078740157
11
0.4818186614173228
21
-1.9877506299212597
0
LINE
8
BLACK
6
CONTINUOUS
10
0.4818186614173228
20
-1.9877506299212597
11
0.4819685039370079
21
-1.9885039370078739
0
LINE
8
BLACK
6
CONTINUOUS
10
0.4819685039370079
20
-1.9885039370078739
11
0.4819685039370079
21
-2.0485039370078741
0
LINE
8
BLACK
6
CONTINUOUS
10
0.4819685039370079
20
-2.0485039370078741
11
0.4818186614173228
21
-2.0492572440944881
0
LINE
8
BLACK
6
CONTINUOUS
10
0.4818186614173228
20
-2.0492572440944881
11
0.4813919291338583
21
-2.0498958661417324
0
LINE
8
BLACK
6
CONTINUOUS
10
0.4813919291338583
20
-2.0498958661417324
11
0.4807533070866142
21
-2.0503225984251969
0
LINE
8
BLACK
6
CONTINUOUS
10
0.4807533070866142
20
-2.0503225984251969
11
0.48
21
-2.050472440944882
0
LINE
8
BLACK
6
CONTINUOUS
10
0.48
20
-2.050472440944882
11
0.42
21
-2.050472440944882
0
LINE
8
BLACK
6
CONTINUOUS
10
0.42
20
-2.050472440944882
11
0.4192466929133858
21
-2.0503225984251969
0
LINE
8
BLACK
6
CONTINUOUS
10
0.4192466929133858
20
-2.0503225984251969
11
0.4186080708661417
21
-2.0498958661417324
0
LINE
8
BLACK
6
CONTINUOUS
10
0.4186080708661417
20
-2.0498958661417324
11
0.4181813385826771
21
-2.0492572440944881
0
LINE
8
BLACK
6
CONTINUOUS
10
0.4181813385826771
20
-2.0492572440944881
11
0.4180314960629921
21
-2.0485039370078741
0
LINE
8
BLACK
6
CONTINUOUS
10
0.4180314960629921
20
-2.0485039370078741
11
0.4180314960629921
21
-1.9885039370078739
0
LINE
8
BLACK
6
CONTINUOUS
10
0.4180314960629921
20
-1.9885039370078739
11
0.4181813385826771
21
-1.9877506299212597
0
LINE
8
BLACK
6
CONTINUOUS
10
0.4181813385826771
20
-1.9877506299212597
11
0.4186080708661417
21
-1.9871120078740157
0
LINE
8
BLACK
6
CONTINUOUS
10
0.4186080708661417
20
-1.9871120078740157
11
0.4192466929133858
21
-1.9866852755905511
0
LINE
8
BLACK
6
CONTINUOUS
10
0.4192466929133858
20
-1.9866852755905511
11
0.42
21
-1.986535433070866
0
LINE
8
BLACK
6
CONTINUOUS
10
0.42
20
-1.986535433070866
11
0.48
21
-1.986535433070866
0
LINE
8
BLACK
6
CONTINUOUS
10
0.48
20
-1.986535433070866
11
0.4807533070866142
21
-1.9866852755905511
0
LINE
8
BLACK
6
CONTINUOUS
10
0.8165800787401575
20
-1.8878663779527558
11
0.8172187007874016
21
-1.8882931102362204
0
LINE
8
BLACK
6
CONTINUOUS
10
0.8172187007874016
20
-1.8882931102362204
11
0.8176454330708661
21
-1.8889317322834644
0
LINE
8
BLACK
6
CONTINUOUS
10
0.8176454330708661
20
-1.8889317322834644
11
0.8177952755905512
21
-1.8896850393700786
0
LINE
8
BLACK
6
CONTINUOUS
10
0.8177952755905512
20
-1.8896850393700786
11
0.8177952755905512
21
-1.9496850393700786
0
LINE
8
BLACK
6
CONTINUOUS
10
0.8177952755905512
20
-1.9496850393700786
11
0.8176454330708661
21
-1.9504383464566928
0
LINE
8
BLACK
6
CONTINUOUS
10
0.8176454330708661
20
-1.9504383464566928
11
0.8172187007874016
21
-1.9510769685039369
0
LINE
8
BLACK
6
CONTINUOUS
10
0.8172187007874016
20
-1.9510769685039369
11
0.8165800787401575
21
-1.9515037007874014
0
LINE
8
BLACK
6
CONTINUOUS
10
0.8165800787401575
20
-1.9515037007874014
11
0.8158267716535433
21
-1.9516535433070865
0
LINE
8
BLACK
6
CONTINUOUS
10
0.8158267716535433
20
-1.9516535433070865
11
0.7558267716535433
21
-1.9516535433070865
0
LINE
8
BLACK
6
CONTINUOUS
10
0.7558267716535433
20
-1.9516535433070865
11
0.7550734645669291
21
-1.9515037007874014
0
LINE
8
BLACK
6
CONTINUOUS
10
0.7550734645669291
20
-1.9515037007874014
11
0.7544348425196851
21
-1.9510769685039369
0
LINE
8
BLACK
6
CONTINUOUS
10
0.7544348425196851
20
-1.9510769685039369
11
0.7540081102362205
21
-1.9504383464566928
0
LINE
8
BLACK
6
CONTINUOUS
10
0.7540081102362205
20
-1.9504383464566928
11
0.7538582677165354
21
-1.9496850393700786
0
LINE
8
BLACK
6
CONTINUOUS
10
0.7538582677165354
20
-1.9496850393700786
11
0.7538582677165354
21
-1.8896850393700786
0
LINE
8
BLACK
6
CONTINUOUS
10
0.7538582677165354
20
-1.8896850393700786
11
0.7540081102362205
21
-1.8889317322834644
0
LINE
8
BLACK
6
CONTINUOUS
10
0.7540081102362205
20
-1.8889317322834644
11
0.7544348425196851
21
-1.8882931102362204
0
LINE
8
BLACK
6
CONTINUOUS
10
0.7544348425196851
20
-1.8882931102362204
11
0.7550734645669291
21
-1.8878663779527558
0
LINE
8
BLACK
6
CONTINUOUS
10
0.7550734645669291
20
-1.8878663779527558
11
0.7558267716535433
21
-1.8877165354330707
0
LINE
8
BLACK
6
CONTINUOUS
10
0.7558267716535433
20
-1.8877165354330707
11
0.8158267716535433
21
-1.8877165354330707
0
LINE
8
BLACK
6
CONTINUOUS
10
0.8158267716535433
20
-1.8877165354330707
11
0.8165800787401575
21
-1.8878663779527558
0
LINE
8
BLACK
6
CONTINUOUS
10
0.9165800787401575
20
-1.8878663779527558
11
0.9172187007874015
21
-1.8882931102362204
0
LINE
8
BLACK
6
CONTINUOUS
10
0.9172187007874015
20
-1.8882931102362204
11
0.9176454330708661
21
-1.8889317322834644
0
LINE
8
BLACK
6
CONTINUOUS
10
0.9176454330708661
20
-1.8889317322834644
11
0.9177952755905512
21
-1.8896850393700786
0
LINE
8
BLACK
6
CONTINUOUS
10
0.9177952755905512
20
-1.8896850393700786
11
0.9177952755905512
21
-1.9496850393700786
0
LINE
8
BLACK
6
CONTINUOUS
10
0.9177952755905512
20
-1.9496850393700786
11
0.9176454330708661
21
-1.9504383464566928
0
LINE
8
BLACK
6
CONTINUOUS
10
0.9176454330708661
20
-1.9504383464566928
11
0.9172187007874015
21
-1.9510769685039369
0
LINE
8
BLACK
6
CONTINUOUS
10
0.9172187007874015
20
-1.9510769685039369
11
0.9165800787401575
21
-1.9515037007874014
0
LINE
8
BLACK
6
CONTINUOUS
10
0.9165800787401575
20
-1.9515037007874014
11
0.9158267716535433
21
-1.9516535433070865
0
LINE
8
BLACK
6
CONTINUOUS
10
0.9158267716535433
20
-1.9516535433070865
11
0.8558267716535433
21
-1.9516535433070865
0
LINE
8
BLACK
6
CONTINUOUS
10
0.8558267716535433
20
-1.9516535433070865
11
0.8550734645669291
21
-1.9515037007874014
0
LINE
8
BLACK
6
CONTINUOUS
10
0.8550734645669291
20
-1.9515037007874014
11
0.854434842519685
21
-1.9510769685039369
0
LINE
8
BLACK
6
CONTINUOUS
10
0.854434842519685
20
-1.9510769685039369
11
0.8540081102362205
21
-1.9504383464566928
0
LINE
8
BLACK
6
CONTINUOUS
10
0.8540081102362205
20
-1.9504383464566928
11
0.8538582677165354
21
-1.9496850393700786
0
LINE
8
BLACK
6
CONTINUOUS
10
0.8538582677165354
20
-1.9496850393700786
11
0.8538582677165354
21
-1.8896850393700786
0
LINE
8
BLACK
6
CONTINUOUS
10
0.8538582677165354
20
-1.8896850393700786
11
0.8540081102362205
21
-1.8889317322834644
0
LINE
8
BLACK
6
CONTINUOUS
10
0.8540081102362205
20
-1.8889317322834644
11
0.854434842519685
21
-1.8882931102362204
0
LINE
8
BLACK
6
CONTINUOUS
10
0.854434842519685
20
-1.8882931102362204
11
0.8550734645669291
21
-1.8878663779527558
0
LINE
8
BLACK
6
CONTINUOUS
10
0.8550734645669291
20
-1.8878663779527558
11
0.8558267716535433
21
-1.8877165354330707
0
LINE
8
BLACK
6
CONTINUOUS
10
0.8558267716535433
20
-1.8877165354330707
11
0.9158267716535433
21
-1.8877165354330707
0
LINE
8
BLACK
6
CONTINUOUS
10
0.9158267716535433
20
-1.8877165354330707
11
0.9165800787401575
21
-1.8878663779527558
0
LINE
8
BLACK
6
CONTINUOUS
10
-0.4192466929133858
20
-1.8866852755905512
11
-0.4186080708661417
21
-1.8871120078740158
0
LINE
8
BLACK
6
CONTINUOUS
10
-0.4186080708661417
20
-1.8871120078740158
11
-0.4181813385826771
21
-1.8877506299212599
0
LINE
8
BLACK
6
CONTINUOUS
10
-0.4181813385826771
20
-1.8877506299212599
11
-0.4180314960629921
21
-1.888503937007874
0
LINE
8
BLACK
6
CONTINUOUS
10
-0.4180314960629921
20
-1.888503937007874
11
-0.4180314960629921
21
-1.9485039370078741
0
LINE
8
BLACK
6
CONTINUOUS
10
-0.4180314960629921
20
-1.9485039370078741
11
-0.4181813385826771
21
-1.9492572440944882
0
LINE
8
BLACK
6
CONTINUOUS
10
-0.4181813385826771
20
-1.9492572440944882
11
-0.4186080708661417
21
-1.9498958661417323
0
LINE
8
BLACK
6
CONTINUOUS
10
-0.4186080708661417
20
-1.9498958661417323
11
-0.4192466929133858
21
-1.9503225984251968
0
LINE
8
BLACK
6
CONTINUOUS
10
-0.4192466929133858
20
-1.9503225984251968
11
-0.42
21
-1.9504724409448819
0
LINE
8
BLACK
6
CONTINUOUS
10
-0.42
20
-1.9504724409448819
11
-0.48
21
-1.9504724409448819
0
LINE
8
BLACK
6
CONTINUOUS
10
-0.48
20
-1.9504724409448819
11
-0.4807533070866142
21
-1.9503225984251968
0
LINE
8
BLACK
6
CONTINUOUS
10
-0.4807533070866142
20
-1.9503225984251968
11
-0.4813919291338583
21
-1.9498958661417323
0
LINE
8
BLACK
6
CONTINUOUS
10
-0.4813919291338583
20
-1.9498958661417323
11
-0.4818186614173228
21
-1.9492572440944882
0
LINE
8
BLACK
6
CONTINUOUS
10
-0.4818186614173228
20
-1.9492572440944882
11
-0.4819685039370079
21
-1.9485039370078741
0
LINE
8
BLACK
6
CONTINUOUS
10
-0.4819685039370079
20
-1.9485039370078741
11
-0.4819685039370079
21
-1.888503937007874
0
LINE
8
BLACK
6
CONTINUOUS
10
-0.4819685039370079
20
-1.888503937007874
11
-0.4818186614173228
21
-1.8877506299212599
0
LINE
8
BLACK
6
CONTINUOUS
10
-0.4818186614173228
20
-1.8877506299212599
11
-0.4813919291338583
21
-1.8871120078740158
0
LINE
8
BLACK
6
CONTINUOUS
10
-0.4813919291338583
20
-1.8871120078740158
11
-0.4807533070866142
21
-1.8866852755905512
0
LINE
8
BLACK
6
CONTINUOUS
10
-0.4807533070866142
20
-1.8866852755905512
11
-0.48
21
-1.8865354330708661
0
LINE
8
BLACK
6
CONTINUOUS
10
-0.48
20
-1.8865354330708661
11
-0.42
21
-1.8865354330708661
0
LINE
8
BLACK
6
CONTINUOUS
10
-0.42
20
-1.8865354330708661
11
-0.4192466929133858
21
-1.8866852755905512
0
LINE
8
BLACK
6
CONTINUOUS
10
-0.3192466929133858
20
-1.8866852755905512
11
-0.3186080708661417
21
-1.8871120078740158
0
LINE
8
BLACK
6
CONTINUOUS
10
-0.3186080708661417
20
-1.8871120078740158
11
-0.3181813385826772
21
-1.8877506299212599
0
LINE
8
BLACK
6
CONTINUOUS
10
-0.3181813385826772
20
-1.8877506299212599
11
-0.3180314960629921
21
-1.888503937007874
0
LINE
8
BLACK
6
CONTINUOUS
10
-0.3180314960629921
20
-1.888503937007874
11
-0.3180314960629921
21
-1.9485039370078741
0
LINE
8
BLACK
6
CONTINUOUS
10
-0.3180314960629921
20
-1.9485039370078741
11
-0.3181813385826772
21
-1.9492572440944882
0
LINE
8
BLACK
6
CONTINUOUS
10
-0.3181813385826772
20
-1.9492572440944882
11
-0.3186080708661417
21
-1.9498958661417323
0
LINE
8
BLACK
6
CONTINUOUS
10
-0.3186080708661417
20
-1.9498958661417323
11
-0.3192466929133858
21
-1.9503225984251968
0
LINE
8
BLACK
6
CONTINUOUS
10
-0.3192466929133858
20
-1.9503225984251968
11
-0.32
21
-1.9504724409448819
0
LINE
8
BLACK
6
CONTINUOUS
10
-0.32
20
-1.9504724409448819
11
-0.38
21
-1.9504724409448819
0
LINE
8
BLACK
6
CONTINUOUS
10
-0.38
20
-1.9504724409448819
11
-0.3807533070866141
21
-1.9503225984251968
0
LINE
8
BLACK
6
CONTINUOUS
10
-0.3807533070866141
20
-1.9503225984251968
11
-0.3813919291338583
21
-1.9498958661417323
0
LINE
8
BLACK
6
CONTINUOUS
10
-0.3813919291338583
20
-1.9498958661417323
11
-0.3818186614173228
21
-1.9492572440944882
0
LINE
8
BLACK
6
CONTINUOUS
10
-0.3818186614173228
20
-1.9492572440944882
11
-0.3819685039370079
21
-1.9485039370078741
0
LINE
8
BLACK
6
CONTINUOUS
10
-0.3819685039370079
20
-1.9485039370078741
11
-0.3819685039370079
21
-1.888503937007874
0
LINE
8
BLACK
6
CONTINUOUS
10
-0.3819685039370079
20
-1.888503937007874
11
-0.3818186614173228
21
-1.8877506299212599
0
LINE
8
BLACK
6
CONTINUOUS
10
-0.3818186614173228
20
-1.8877506299212599
11
-0.3813919291338583
21
-1.8871120078740158
0
LINE
8
BLACK
6
CONTINUOUS
10
-0.3813919291338583
20
-1.8871120078740158
11
-0.3807533070866141
21
-1.8866852755905512
0
LINE
8
BLACK
6
CONTINUOUS
10
-0.3807533070866141
20
-1.8866852755905512
11
-0.38
21
-1.8865354330708661
0
LINE
8
BLACK
6
CONTINUOUS
10
-0.38
20
-1.8865354330708661
11
-0.32
21
-1.8865354330708661
0
LINE
8
BLACK
6
CONTINUOUS
10
-0.32
20
-1.8865354330708661
11
-0.3192466929133858
21
-1.8866852755905512
0
LINE
8
BLACK
6
CONTINUOUS
10
-0.2192466929133858
20
-1.8866852755905512
11
-0.2186080708661417
21
-1.8871120078740158
0
LINE
8
BLACK
6
CONTINUOUS
10
-0.2186080708661417
20
-1.8871120078740158
11
-0.2181813385826772
21
-1.8877506299212599
0
LINE
8
BLACK
6
CONTINUOUS
10
-0.2181813385826772
20
-1.8877506299212599
11
-0.2180314960629921
21
-1.888503937007874
0
LINE
8
BLACK
6
CONTINUOUS
10
-0.2180314960629921
20
-1.888503937007874
11
-0.2180314960629921
21
-1.9485039370078741
0
LINE
8
BLACK
6
CONTINUOUS
10
-0.2180314960629921
20
-1.9485039370078741
11
-0.2181813385826772
21
-1.9492572440944882
0
LINE
8
BLACK
6
CONTINUOUS
10
-0.2181813385826772
20
-1.9492572440944882
11
-0.2186080708661417
21
-1.9498958661417323
0
LINE
8
BLACK
6
CONTINUOUS
10
-0.2186080708661417
20
-1.9498958661417323
11
-0.2192466929133858
21
-1.9503225984251968
0
LINE
8
BLACK
6
CONTINUOUS
10
-0.2192466929133858
20
-1.9503225984251968
11
-0.22
21
-1.9504724409448819
0
LINE
8
BLACK
6
CONTINUOUS
10
-0.22
20
-1.9504724409448819
11
-0.28
21
-1.9504724409448819
0
LINE
8
BLACK
6
CONTINUOUS
10
-0.28
20
-1.9504724409448819
11
-0.2807533070866142
21
-1.9503225984251968
0
LINE
8
BLACK
6
CONTINUOUS
10
-0.2807533070866142
20
-1.9503225984251968
11
-0.2813919291338582
21
-1.9498958661417323
0
LINE
8
BLACK
6
CONTINUOUS
10
-0.2813919291338582
20
-1.9498958661417323
11
-0.2818186614173228
21
-1.9492572440944882
0
LINE
8
BLACK
6
CONTINUOUS
10
-0.2818186614173228
20
-1.9492572440944882
11
-0.2819685039370078
21
-1.9485039370078741
0
LINE
8
BLACK
6
CONTINUOUS
10
-0.2819685039370078
20
-1.9485039370078741
11
-0.2819685039370078
21
-1.888503937007874
0
LINE
8
BLACK
6
CONTINUOUS
10
-0.2819685039370078
20
-1.888503937007874
11
-0.2818186614173228
21
-1.8877506299212599
0
LINE
8
BLACK
6
CONTINUOUS
10
-0.2818186614173228
20
-1.8877506299212599
11
-0.2813919291338582
21
-1.8871120078740158
0
LINE
8
BLACK
6
CONTINUOUS
10
-0.2813919291338582
20
-1.8871120078740158
11
-0.2807533070866142
21
-1.8866852755905512
0
LINE
8
BLACK
6
CONTINUOUS
10
-0.2807533070866142
20
-1.8866852755905512
11
-0.28
21
-1.8865354330708661
0
LINE
8
BLACK
6
CONTINUOUS
10
-0.28
20
-1.8865354330708661
11
-0.22
21
-1.8865354330708661
0
LINE
8
BLACK
6
CONTINUOUS
10
-0.22
20
-1.8865354330708661
11
-0.2192466929133858
21
-1.8866852755905512
0
LINE
8
BLACK
6
CONTINUOUS
10
-0.1192466929133858
20
-1.8866852755905512
11
-0.1186080708661417
21
-1.8871120078740158
0
LINE
8
BLACK
6
CONTINUOUS
10
-0.1186080708661417
20
-1.8871120078740158
11
-0.1181813385826772
21
-1.8877506299212599
0
LINE
8
BLACK
6
CONTINUOUS
10
-0.1181813385826772
20
-1.8877506299212599
11
-0.1180314960629921
21
-1.888503937007874
0
LINE
8
BLACK
6
CONTINUOUS
10
-0.1180314960629921
20
-1.888503937007874
11
-0.1180314960629921
21
-1.9485039370078741
0
LINE
8
BLACK
6
CONTINUOUS
10
-0.1180314960629921
20
-1.9485039370078741
11
-0.1181813385826772
21
-1.9492572440944882
0
LINE
8
BLACK
6
CONTINUOUS
10
-0.1181813385826772
20
-1.9492572440944882
11
-0.1186080708661417
21
-1.9498958661417323
0
LINE
8
BLACK
6
CONTINUOUS
10
-0.1186080708661417
20
-1.9498958661417323
11
-0.1192466929133858
21
-1.9503225984251968
0
LINE
8
BLACK
6
CONTINUOUS
10
-0.1192466929133858
20
-1.9503225984251968
11
-0.12
21
-1.9504724409448819
0
LINE
8
BLACK
6
CONTINUOUS
10
-0.12
20
-1.9504724409448819
11
-0.18
21
-1.9504724409448819
0
LINE
8
BLACK
6
CONTINUOUS
10
-0.18
20
-1.9504724409448819
11
-0.1807533070866142
21
-1.9503225984251968
0
LINE
8
BLACK
6
CONTINUOUS
10
-0.1807533070866142
20
-1.9503225984251968
11
-0.1813919291338583
21
-1.9498958661417323
0
LINE
8
BLACK
6
CONTINUOUS
10
-0.1813919291338583
20
-1.9498958661417323
11
-0.1818186614173228
21
-1.9492572440944882
0
LINE
8
BLACK
6
CONTINUOUS
10
-0.1818186614173228
20
-1.9492572440944882
11
-0.1819685039370079
21
-1.9485039370078741
0
LINE
8
BLACK
6
CONTINUOUS
10
-0.1819685039370079
20
-1.9485039370078741
11
-0.1819685039370079
21
-1.888503937007874
0
LINE
8
BLACK
6
CONTINUOUS
10
-0.1819685039370079
20
-1.888503937007874
11
-0.1818186614173228
21
-1.8877506299212599
0
LINE
8
BLACK
6
CONTINUOUS
10
-0.1818186614173228
20
-1.8877506299212599
11
-0.1813919291338583
21
-1.8871120078740158
0
LINE
8
BLACK
6
CONTINUOUS
10
-0.1813919291338583
20
-1.8871120078740158
11
-0.1807533070866142
21
-1.8866852755905512
0
LINE
8
BLACK
6
CONTINUOUS
10
-0.1807533070866142
20
-1.8866852755905512
11
-0.18
21
-1.8865354330708661
0
LINE
8
BLACK
6
CONTINUOUS
10
-0.18
20
-1.8865354330708661
11
-0.12
21
-1.8865354330708661
0
LINE
8
BLACK
6
CONTINUOUS
10
-0.12
20
-1.8865354330708661
11
-0.1192466929133858
21
-1.8866852755905512
0
LINE
8
BLACK
6
CONTINUOUS
10
-0.0192466929133858
20
-1.8866852755905512
11
-0.0186080708661417
21
-1.8871120078740158
0
LINE
8
BLACK
6
CONTINUOUS
10
-0.0186080708661417
20
-1.8871120078740158
11
-0.0181813385826772
21
-1.8877506299212599
0
LINE
8
BLACK
6
CONTINUOUS
10
-0.0181813385826772
20
-1.8877506299212599
11
-0.0180314960629921
21
-1.888503937007874
0
LINE
8
BLACK
6
CONTINUOUS
10
-0.0180314960629921
20
-1.888503937007874
11
-0.0180314960629921
21
-1.9485039370078741
0
LINE
8
BLACK
6
CONTINUOUS
10
-0.0180314960629921
20
-1.9485039370078741
11
-0.0181813385826772
21
-1.9492572440944882
0
LINE
8
BLACK
6
CONTINUOUS
10
-0.0181813385826772
20
-1.9492572440944882
11
-0.0186080708661417
21
-1.9498958661417323
0
LINE
8
BLACK
6
CONTINUOUS
10
-0.0186080708661417
20
-1.9498958661417323
11
-0.0192466929133858
21
-1.9503225984251968
0
LINE
8
BLACK
6
CONTINUOUS
10
-0.0192466929133858
20
-1.9503225984251968
11
-0.02
21
-1.9504724409448819
0
LINE
8
BLACK
6
CONTINUOUS
10
-0.02
20
-1.9504724409448819
11
-0.08
21
-1.9504724409448819
0
LINE
8
BLACK
6
CONTINUOUS
10
-0.08
20
-1.9504724409448819
11
-0.0807533070866142
21
-1.9503225984251968
0
LINE
8
BLACK
6
CONTINUOUS
10
-0.0807533070866142
20
-1.9503225984251968
11
-0.0813919291338583
21
-1.9498958661417323
0
LINE
8
BLACK
6
CONTINUOUS
10
-0.0813919291338583
20
-1.9498958661417323
11
-0.0818186614173228
21
-1.9492572440944882
0
LINE
8
BLACK
6
CONTINUOUS
10
-0.0818186614173228
20
-1.9492572440944882
11
-0.0819685039370079
21
-1.9485039370078741
0
LINE
8
BLACK
6
CONTINUOUS
10
-0.0819685039370079
20
-1.9485039370078741
11
-0.0819685039370079
21
-1.888503937007874
0
LINE
8
BLACK
6
CONTINUOUS
10
-0.0819685039370079
20
-1.888503937007874
11
-0.0818186614173228
21
-1.8877506299212599
0
LINE
8
BLACK
6
CONTINUOUS
10
-0.0818186614173228
20
-1.8877506299212599
11
-0.0813919291338583
21
-1.8871120078740158
0
LINE
8
BLACK
6
CONTINUOUS
10
-0.0813919291338583
20
-1.8871120078740158
11
-0.0807533070866142
21
-1.8866852755905512
0
LINE
8
BLACK
6
CONTINUOUS
10
-0.0807533070866142
20
-1.8866852755905512
11
-0.08
21
-1.8865354330708661
0
LINE
8
BLACK
6
CONTINUOUS
10
-0.08
20
-1.8865354330708661
11
-0.02
21
-1.8865354330708661
0
LINE
8
BLACK
6
CONTINUOUS
10
-0.02
20
-1.8865354330708661
11
-0.0192466929133858
21
-1.8866852755905512
0
LINE
8
BLACK
6
CONTINUOUS
10
0.0807533070866142
20
-1.8866852755905512
11
0.0813919291338583
21
-1.8871120078740158
0
LINE
8
BLACK
6
CONTINUOUS
10
0.0813919291338583
20
-1.8871120078740158
11
0.0818186614173228
21
-1.8877506299212599
0
LINE
8
BLACK
6
CONTINUOUS
10
0.0818186614173228
20
-1.8877506299212599
11
0.0819685039370079
21
-1.888503937007874
0
LINE
8
BLACK
6
CONTINUOUS
10
0.0819685039370079
20
-1.888503937007874
11
0.0819685039370079
21
-1.9485039370078741
0
LINE
8
BLACK
6
CONTINUOUS
10
0.0819685039370079
20
-1.9485039370078741
11
0.0818186614173228
21
-1.9492572440944882
0
LINE
8
BLACK
6
CONTINUOUS
10
0.0818186614173228
20
-1.9492572440944882
11
0.0813919291338583
21
-1.9498958661417323
0
LINE
8
BLACK
6
CONTINUOUS
10
0.0813919291338583
20
-1.9498958661417323
11
0.0807533070866142
21
-1.9503225984251968
0
LINE
8
BLACK
6
CONTINUOUS
10
0.0807533070866142
20
-1.9503225984251968
11
0.08
21
-1.9504724409448819
0
LINE
8
BLACK
6
CONTINUOUS
10
0.08
20
-1.9504724409448819
11
0.02
21
-1.9504724409448819
0
LINE
8
BLACK
6
CONTINUOUS
10
0.02
20
-1.9504724409448819
11
0.0192466929133858
21
-1.9503225984251968
0
LINE
8
BLACK
6
CONTINUOUS
10
0.0192466929133858
20
-1.9503225984251968
11
0.0186080708661417
21
-1.9498958661417323
0
LINE
8
BLACK
6
CONTINUOUS
10
0.0186080708661417
20
-1.9498958661417323
11
0.0181813385826772
21
-1.9492572440944882
0
LINE
8
BLACK
6
CONTINUOUS
10
0.0181813385826772
20
-1.9492572440944882
11
0.0180314960629921
21
-1.9485039370078741
0
LINE
8
BLACK
6
CONTINUOUS
10
0.0180314960629921
20
-1.9485039370078741
11
0.0180314960629921
21
-1.888503937007874
0
LINE
8
BLACK
6
CONTINUOUS
10
0.0180314960629921
20
-1.888503937007874
11
0.0181813385826772
21
-1.8877506299212599
0
LINE
8
BLACK
6
CONTINUOUS
10
0.0181813385826772
20
-1.8877506299212599
11
0.0186080708661417
21
-1.8871120078740158
0
LINE
8
BLACK
6
CONTINUOUS
10
0.0186080708661417
20
-1.8871120078740158
11
0.0192466929133858
21
-1.8866852755905512
0
LINE
8
BLACK
6
CONTINUOUS
10
0.0192466929133858
20
-1.8866852755905512
11
0.02
21
-1.8865354330708661
0
LINE
8
BLACK
6
CONTINUOUS
10
0.02
20
-1.8865354330708661
11
0.08
21
-1.8865354330708661
0
LINE
8
BLACK
6
CONTINUOUS
10
0.08
20
-1.8865354330708661
11
0.0807533070866142
21
-1.8866852755905512
0
LINE
8
BLACK
6
CONTINUOUS
10
0.1807533070866142
20
-1.8866852755905512
11
0.1813919291338583
21
-1.8871120078740158
0
LINE
8
BLACK
6
CONTINUOUS
10
0.1813919291338583
20
-1.8871120078740158
11
0.1818186614173228
21
-1.8877506299212599
0
LINE
8
BLACK
6
CONTINUOUS
10
0.1818186614173228
20
-1.8877506299212599
11
0.1819685039370079
21
-1.888503937007874
0
LINE
8
BLACK
6
CONTINUOUS
10
0.1819685039370079
20
-1.888503937007874
11
0.1819685039370079
21
-1.9485039370078741
0
LINE
8
BLACK
6
CONTINUOUS
10
0.1819685039370079
20
-1.9485039370078741
11
0.1818186614173228
21
-1.9492572440944882
0
LINE
8
BLACK
6
CONTINUOUS
10
0.1818186614173228
20
-1.9492572440944882
11
0.1813919291338583
21
-1.9498958661417323
0
LINE
8
BLACK
6
CONTINUOUS
10
0.1813919291338583
20
-1.9498958661417323
11
0.1807533070866142
21
-1.9503225984251968
0
LINE
8
BLACK
6
CONTINUOUS
10
0.1807533070866142
20
-1.9503225984251968
11
0.18
21
-1.9504724409448819
0
LINE
8
BLACK
6
CONTINUOUS
10
0.18
20
-1.9504724409448819
11
0.12
21
-1.9504724409448819
0
LINE
8
BLACK
6
CONTINUOUS
10
0.12
20
-1.9504724409448819
11
0.1192466929133858
21
-1.9503225984251968
0
LINE
8
BLACK
6
CONTINUOUS
10
0.1192466929133858
20
-1.9503225984251968
11
0.1186080708661417
21
-1.9498958661417323
0
LINE
8
BLACK
6
CONTINUOUS
10
0.1186080708661417
20
-1.9498958661417323
11
0.1181813385826772
21
-1.9492572440944882
0
LINE
8
BLACK
6
CONTINUOUS
10
0.1181813385826772
20
-1.9492572440944882
11
0.1180314960629921
21
-1.9485039370078741
0
LINE
8
BLACK
6
CONTINUOUS
10
0.1180314960629921
20
-1.9485039370078741
11
0.1180314960629921
21
-1.888503937007874
0
LINE
8
BLACK
6
CONTINUOUS
10
0.1180314960629921
20
-1.888503937007874
11
0.1181813385826772
21
-1.8877506299212599
0
LINE
8
BLACK
6
CONTINUOUS
10
0.1181813385826772
20
-1.8877506299212599
11
0.1186080708661417
21
-1.8871120078740158
0
LINE
8
BLACK
6
CONTINUOUS
10
0.1186080708661417
20
-1.8871120078740158
11
0.1192466929133858
21
-1.8866852755905512
0
LINE
8
BLACK
6
CONTINUOUS
10
0.1192466929133858
20
-1.8866852755905512
11
0.12
21
-1.8865354330708661
0
LINE
8
BLACK
6
CONTINUOUS
10
0.12
20
-1.8865354330708661
11
0.18
21
-1.8865354330708661
0
LINE
8
BLACK
6
CONTINUOUS
10
0.18
20
-1.8865354330708661
11
0.1807533070866142
21
-1.8866852755905512
0
LINE
8
BLACK
6
CONTINUOUS
10
0.2807533070866142
20
-1.8866852755905512
11
0.2813919291338582
21
-1.8871120078740158
0
LINE
8
BLACK
6
CONTINUOUS
10
0.2813919291338582
20
-1.8871120078740158
11
0.2818186614173228
21
-1.8877506299212599
0
LINE
8
BLACK
6
CONTINUOUS
10
0.2818186614173228
20
-1.8877506299212599
11
0.2819685039370078
21
-1.888503937007874
0
LINE
8
BLACK
6
CONTINUOUS
10
0.2819685039370078
20
-1.888503937007874
11
0.2819685039370078
21
-1.9485039370078741
0
LINE
8
BLACK
6
CONTINUOUS
10
0.2819685039370078
20
-1.9485039370078741
11
0.2818186614173228
21
-1.9492572440944882
0
LINE
8
BLACK
6
CONTINUOUS
10
0.2818186614173228
20
-1.9492572440944882
11
0.2813919291338582
21
-1.9498958661417323
0
LINE
8
BLACK
6
CONTINUOUS
10
0.2813919291338582
20
-1.9498958661417323
11
0.2807533070866142
21
-1.9503225984251968
0
LINE
8
BLACK
6
CONTINUOUS
10
0.2807533070866142
20
-1.9503225984251968
11
0.28
21
-1.9504724409448819
0
LINE
8
BLACK
6
CONTINUOUS
10
0.28
20
-1.9504724409448819
11
0.22
21
-1.9504724409448819
0
LINE
8
BLACK
6
CONTINUOUS
10
0.22
20
-1.9504724409448819
11
0.2192466929133858
21
-1.9503225984251968
0
LINE
8
BLACK
6
CONTINUOUS
10
0.2192466929133858
20
-1.9503225984251968
11
0.2186080708661417
21
-1.9498958661417323
0
LINE
8
BLACK
6
CONTINUOUS
10
0.2186080708661417
20
-1.9498958661417323
11
0.2181813385826772
21
-1.9492572440944882
0
LINE
8
BLACK
6
CONTINUOUS
10
0.2181813385826772
20
-1.9492572440944882
11
0.2180314960629921
21
-1.9485039370078741
0
LINE
8
BLACK
6
CONTINUOUS
10
0.2180314960629921
20
-1.9485039370078741
11
0.2180314960629921
21
-1.888503937007874
0
LINE
8
BLACK
6
CONTINUOUS
10
0.2180314960629921
20
-1.888503937007874
11
0.2181813385826772
21
-1.8877506299212599
0
LINE
8
BLACK
6
CONTINUOUS
10
0.2181813385826772
20
-1.8877506299212599
11
0.2186080708661417
21
-1.8871120078740158
0
LINE
8
BLACK
6
CONTINUOUS
10
0.2186080708661417
20
-1.8871120078740158
11
0.2192466929133858
21
-1.8866852755905512
0
LINE
8
BLACK
6
CONTINUOUS
10
0.2192466929133858
20
-1.8866852755905512
11
0.22
21
-1.8865354330708661
0
LINE
8
BLACK
6
CONTINUOUS
10
0.22
20
-1.8865354330708661
11
0.28
21
-1.8865354330708661
0
LINE
8
BLACK
6
CONTINUOUS
10
0.28
20
-1.8865354330708661
11
0.2807533070866142
21
-1.8866852755905512
0
LINE
8
BLACK
6
CONTINUOUS
10
0.3807533070866141
20
-1.8866852755905512
11
0.3813919291338583
21
-1.8871120078740158
0
LINE
8
BLACK
6
CONTINUOUS
10
0.3813919291338583
20
-1.8871120078740158
11
0.3818186614173228
21
-1.8877506299212599
0
LINE
8
BLACK
6
CONTINUOUS
10
0.3818186614173228
20
-1.8877506299212599
11
0.3819685039370079
21
-1.888503937007874
0
LINE
8
BLACK
6
CONTINUOUS
10
0.3819685039370079
20
-1.888503937007874
11
0.3819685039370079
21
-1.9485039370078741
0
LINE
8
BLACK
6
CONTINUOUS
10
0.3819685039370079
20
-1.9485039370078741
11
0.3818186614173228
21
-1.9492572440944882
0
LINE
8
BLACK
6
CONTINUOUS
10
0.3818186614173228
20
-1.9492572440944882
11
0.3813919291338583
21
-1.9498958661417323
0
LINE
8
BLACK
6
CONTINUOUS
10
0.3813919291338583
20
-1.9498958661417323
11
0.3807533070866141
21
-1.9503225984251968
0
LINE
8
BLACK
6
CONTINUOUS
10
0.3807533070866141
20
-1.9503225984251968
11
0.38
21
-1.9504724409448819
0
LINE
8
BLACK
6
CONTINUOUS
10
0.38
20
-1.9504724409448819
11
0.32
21
-1.9504724409448819
0
LINE
8
BLACK
6
CONTINUOUS
10
0.32
20
-1.9504724409448819
11
0.3192466929133858
21
-1.9503225984251968
0
LINE
8
BLACK
6
CONTINUOUS
10
0.3192466929133858
20
-1.9503225984251968
11
0.3186080708661417
21
-1.9498958661417323
0
LINE
8
BLACK
6
CONTINUOUS
10
0.3186080708661417
20
-1.9498958661417323
11
0.3181813385826772
21
-1.9492572440944882
0
LINE
8
BLACK
6
CONTINUOUS
10
0.3181813385826772
20
-1.9492572440944882
11
0.3180314960629921
21
-1.9485039370078741
0
LINE
8
BLACK
6
CONTINUOUS
10
0.3180314960629921
20
-1.9485039370078741
11
0.3180314960629921
21
-1.888503937007874
0
LINE
8
BLACK
6
CONTINUOUS
10
0.3180314960629921
20
-1.888503937007874
11
0.3181813385826772
21
-1.8877506299212599
0
LINE
8
BLACK
6
CONTINUOUS
10
0.3181813385826772
20
-1.8877506299212599
11
0.3186080708661417
21
-1.8871120078740158
0
LINE
8
BLACK
6
CONTINUOUS
10
0.3186080708661417
20
-1.8871120078740158
11
0.3192466929133858
21
-1.8866852755905512
0
LINE
8
BLACK
6
CONTINUOUS
10
0.3192466929133858
20
-1.8866852755905512
11
0.32
21
-1.8865354330708661
0
LINE
8
BLACK
6
CONTINUOUS
10
0.32
20
-1.8865354330708661
11
0.38
21
-1.8865354330708661
0
LINE
8
BLACK
6
CONTINUOUS
10
0.38
20
-1.8865354330708661
11
0.3807533070866141
21
-1.8866852755905512
0
LINE
8
BLACK
6
CONTINUOUS
10
0.4807533070866142
20
-1.8866852755905512
11
0.4813919291338583
21
-1.8871120078740158
0
LINE
8
BLACK
6
CONTINUOUS
10
0.4813919291338583
20
-1.8871120078740158
11
0.4818186614173228
21
-1.8877506299212599
0
LINE
8
BLACK
6
CONTINUOUS
10
0.4818186614173228
20
-1.8877506299212599
11
0.4819685039370079
21
-1.888503937007874
0
LINE
8
BLACK
6
CONTINUOUS
10
0.4819685039370079
20
-1.888503937007874
11
0.4819685039370079
21
-1.9485039370078741
0
LINE
8
BLACK
6
CONTINUOUS
10
0.4819685039370079
20
-1.9485039370078741
11
0.4818186614173228
21
-1.9492572440944882
0
LINE
8
BLACK
6
CONTINUOUS
10
0.4818186614173228
20
-1.9492572440944882
11
0.4813919291338583
21
-1.9498958661417323
0
LINE
8
BLACK
6
CONTINUOUS
10
0.4813919291338583
20
-1.9498958661417323
11
0.4807533070866142
21
-1.9503225984251968
0
LINE
8
BLACK
6
CONTINUOUS
10
0.4807533070866142
20
-1.9503225984251968
11
0.48
21
-1.9504724409448819
0
LINE
8
BLACK
6
CONTINUOUS
10
0.48
20
-1.9504724409448819
11
0.42
21
-1.9504724409448819
0
LINE
8
BLACK
6
CONTINUOUS
10
0.42
20
-1.9504724409448819
11
0.4192466929133858
21
-1.9503225984251968
0
LINE
8
BLACK
6
CONTINUOUS
10
0.4192466929133858
20
-1.9503225984251968
11
0.4186080708661417
21
-1.9498958661417323
0
LINE
8
BLACK
6
CONTINUOUS
10
0.4186080708661417
20
-1.9498958661417323
11
0.4181813385826771
21
-1.9492572440944882
0
LINE
8
BLACK
6
CONTINUOUS
10
0.4181813385826771
20
-1.9492572440944882
11
0.4180314960629921
21
-1.9485039370078741
0
LINE
8
BLACK
6
CONTINUOUS
10
0.4180314960629921
20
-1.9485039370078741
11
0.4180314960629921
21
-1.888503937007874
0
LINE
8
BLACK
6
CONTINUOUS
10
0.4180314960629921
20
-1.888503937007874
11
0.4181813385826771
21
-1.8877506299212599
0
LINE
8
BLACK
6
CONTINUOUS
10
0.4181813385826771
20
-1.8877506299212599
11
0.4186080708661417
21
-1.8871120078740158
0
LINE
8
BLACK
6
CONTINUOUS
10
0.4186080708661417
20
-1.8871120078740158
11
0.4192466929133858
21
-1.8866852755905512
0
LINE
8
BLACK
6
CONTINUOUS
10
0.4192466929133858
20
-1.8866852755905512
11
0.42
21
-1.8865354330708661
0
LINE
8
BLACK
6
CONTINUOUS
10
0.42
20
-1.8865354330708661
11
0.48
21
-1.8865354330708661
0
LINE
8
BLACK
6
CONTINUOUS
10
0.48
20
-1.8865354330708661
11
0.4807533070866142
21
-1.8866852755905512
0
LINE
8
BLACK
6
CONTINUOUS
10
-0.0892008661417323
20
1.7953753937007875
11
-0.082297125984252
21
1.7931322047244094
0
LINE
8
BLACK
6
CONTINUOUS
10
-0.082297125984252
20
1.7931322047244094
11
-0.0758292913385827
21
1.7898366929133858
0
LINE
8
BLACK
6
CONTINUOUS
10
-0.0758292913385827
20
1.7898366929133858
11
-0.0699566535433071
21
1.7855699606299211
0
LINE
8
BLACK
6
CONTINUOUS
10
-0.0699566535433071
20
1.7855699606299211
11
-0.0648237401574803
21
1.7804370472440945
0
LINE
8
BLACK
6
CONTINUOUS
10
-0.0648237401574803
20
1.7804370472440945
11
-0.0605570078740157
21
1.7745644094488189
0
LINE
8
BLACK
6
CONTINUOUS
10
-0.0605570078740157
20
1.7745644094488189
11
-0.0572614960629921
21
1.7680965748031496
0
LINE
8
BLACK
6
CONTINUOUS
10
-0.0572614960629921
20
1.7680965748031496
11
-0.0550183070866142
21
1.7611928346456693
0
LINE
8
BLACK
6
CONTINUOUS
10
-0.0550183070866142
20
1.7611928346456693
11
-0.0538827559055118
21
1.754023188976378
0
LINE
8
BLACK
6
CONTINUOUS
10
-0.0538827559055118
20
1.754023188976378
11
-0.0538827559055118
21
1.7467642125984251
0
LINE
8
BLACK
6
CONTINUOUS
10
-0.0538827559055118
20
1.7467642125984251
11
-0.0550183070866142
21
1.7395945669291337
0
LINE
8
BLACK
6
CONTINUOUS
10
-0.0550183070866142
20
1.7395945669291337
11
-0.0572614960629921
21
1.7326908267716534
0
LINE
8
BLACK
6
CONTINUOUS
10
-0.0572614960629921
20
1.7326908267716534
11
-0.0605570078740157
21
1.7262229921259842
0
LINE
8
BLACK
6
CONTINUOUS
10
-0.0605570078740157
20
1.7262229921259842
11
-0.0648237401574803
21
1.7203503543307086
0
LINE
8
BLACK
6
CONTINUOUS
10
-0.0648237401574803
20
1.7203503543307086
11
-0.0699566535433071
21
1.7152174409448819
0
LINE
8
BLACK
6
CONTINUOUS
10
-0.0699566535433071
20
1.7152174409448819
11
-0.0758292913385827
21
1.7109507086614173
0
LINE
8
BLACK
6
CONTINUOUS
10
-0.0758292913385827
20
1.7109507086614173
11
-0.082297125984252
21
1.7076551968503937
0
LINE
8
BLACK
6
CONTINUOUS
10
-0.082297125984252
20
1.7076551968503937
11
-0.0892008661417323
21
1.7054120078740158
0
LINE
8
BLACK
6
CONTINUOUS
10
-0.0892008661417323
20
1.7054120078740158
11
-0.0963705118110236
21
1.7042764566929134
0
LINE
8
BLACK
6
CONTINUOUS
10
-0.0963705118110236
20
1.7042764566929134
11
-0.1036294881889764
21
1.7042764566929134
0
LINE
8
BLACK
6
CONTINUOUS
10
-0.1036294881889764
20
1.7042764566929134
11
-0.1107991338582677
21
1.7054120078740158
0
LINE
8
BLACK
6
CONTINUOUS
10
-0.1107991338582677
20
1.7054120078740158
11
-0.117702874015748
21
1.7076551968503937
0
LINE
8
BLACK
6
CONTINUOUS
10
-0.117702874015748
20
1.7076551968503937
11
-0.1241707086614173
21
1.7109507086614173
0
LINE
8
BLACK
6
CONTINUOUS
10
-0.1241707086614173
20
1.7109507086614173
11
-0.1300433464566929
21
1.7152174409448819
0
LINE
8
BLACK
6
CONTINUOUS
10
-0.1300433464566929
20
1.7152174409448819
11
-0.1351762598425197
21
1.7203503543307086
0
LINE
8
BLACK
6
CONTINUOUS
10
-0.1351762598425197
20
1.7203503543307086
11
-0.1394429921259842
21
1.7262229921259842
0
LINE
8
BLACK
6
CONTINUOUS
10
-0.1394429921259842
20
1.7262229921259842
11
-0.1427385039370079
21
1.7326908267716534
0
LINE
8
BLACK
6
CONTINUOUS
10
-0.1427385039370079
20
1.7326908267716534
11
-0.1449816929133858
21
1.7395945669291337
0
LINE
8
BLACK
6
CONTINUOUS
10
-0.1449816929133858
20
1.7395945669291337
11
-0.1461172440944882
21
1.7467642125984251
0
LINE
8
BLACK
6
CONTINUOUS
10
-0.1461172440944882
20
1.7467642125984251
11
-0.1461172440944882
21
1.754023188976378
0
LINE
8
BLACK
6
CONTINUOUS
10
-0.1461172440944882
20
1.754023188976378
11
-0.1449816929133858
21
1.7611928346456693
0
LINE
8
BLACK
6
CONTINUOUS
10
-0.1449816929133858
20
1.7611928346456693
11
-0.1427385039370079
21
1.7680965748031496
0
LINE
8
BLACK
6
CONTINUOUS
10
-0.1427385039370079
20
1.7680965748031496
11
-0.1394429921259842
21
1.7745644094488189
0
LINE
8
BLACK
6
CONTINUOUS
10
-0.1394429921259842
20
1.7745644094488189
11
-0.1351762598425197
21
1.7804370472440945
0
LINE
8
BLACK
6
CONTINUOUS
10
-0.1351762598425197
20
1.7804370472440945
11
-0.1300433464566929
21
1.7855699606299211
0
LINE
8
BLACK
6
CONTINUOUS
10
-0.1300433464566929
20
1.7855699606299211
11
-0.1241707086614173
21
1.7898366929133858
0
LINE
8
BLACK
6
CONTINUOUS
10
-0.1241707086614173
20
1.7898366929133858
11
-0.117702874015748
21
1.7931322047244094
0
LINE
8
BLACK
6
CONTINUOUS
10
-0.117702874015748
20
1.7931322047244094
11
-0.1107991338582677
21
1.7953753937007875
0
LINE
8
BLACK
6
CONTINUOUS
10
-0.1107991338582677
20
1.7953753937007875
11
-0.1036294881889764
21
1.7965109448818897
0
LINE
8
BLACK
6
CONTINUOUS
10
-0.1036294881889764
20
1.7965109448818897
11
-0.0963705118110236
21
1.7965109448818897
0
LINE
8
BLACK
6
CONTINUOUS
10
-0.0963705118110236
20
1.7965109448818897
11
-0.0892008661417323
21
1.7953753937007875
0
LINE
8
BLACK
6
CONTINUOUS
10
0.1107991338582677
20
1.7953753937007875
11
0.117702874015748
21
1.7931322047244094
0
LINE
8
BLACK
6
CONTINUOUS
10
0.117702874015748
20
1.7931322047244094
11
0.1241707086614173
21
1.7898366929133858
0
LINE
8
BLACK
6
CONTINUOUS
10
0.1241707086614173
20
1.7898366929133858
11
0.1300433464566929
21
1.7855699606299211
0
LINE
8
BLACK
6
CONTINUOUS
10
0.1300433464566929
20
1.7855699606299211
11
0.1351762598425197
21
1.7804370472440945
0
LINE
8
BLACK
6
CONTINUOUS
10
0.1351762598425197
20
1.7804370472440945
11
0.1394429921259842
21
1.7745644094488189
0
LINE
8
BLACK
6
CONTINUOUS
10
0.1394429921259842
20
1.7745644094488189
11
0.1427385039370079
21
1.7680965748031496
0
LINE
8
BLACK
6
CONTINUOUS
10
0.1427385039370079
20
1.7680965748031496
11
0.1449816929133858
21
1.7611928346456693
0
LINE
8
BLACK
6
CONTINUOUS
10
0.1449816929133858
20
1.7611928346456693
11
0.1461172440944882
21
1.754023188976378
0
LINE
8
BLACK
6
CONTINUOUS
10
0.1461172440944882
20
1.754023188976378
11
0.1461172440944882
21
1.7467642125984251
0
LINE
8
BLACK
6
CONTINUOUS
10
0.1461172440944882
20
1.7467642125984251
11
0.1449816929133858
21
1.7395945669291337
0
LINE
8
BLACK
6
CONTINUOUS
10
0.1449816929133858
20
1.7395945669291337
11
0.1427385039370079
21
1.7326908267716534
0
LINE
8
BLACK
6
CONTINUOUS
10
0.1427385039370079
20
1.7326908267716534
11
0.1394429921259842
21
1.7262229921259842
0
LINE
8
BLACK
6
CONTINUOUS
10
0.1394429921259842
20
1.7262229921259842
11
0.1351762598425197
21
1.7203503543307086
0
LINE
8
BLACK
6
CONTINUOUS
10
0.1351762598425197
20
1.7203503543307086
11
0.1300433464566929
21
1.7152174409448819
0
LINE
8
BLACK
6
CONTINUOUS
10
0.1300433464566929
20
1.7152174409448819
11
0.1241707086614173
21
1.7109507086614173
0
LINE
8
BLACK
6
CONTINUOUS
10
0.1241707086614173
20
1.7109507086614173
11
0.117702874015748
21
1.7076551968503937
0
LINE
8
BLACK
6
CONTINUOUS
10
0.117702874015748
20
1.7076551968503937
11
0.1107991338582677
21
1.7054120078740158
0
LINE
8
BLACK
6
CONTINUOUS
10
0.1107991338582677
20
1.7054120078740158
11
0.1036294881889764
21
1.7042764566929134
0
LINE
8
BLACK
6
CONTINUOUS
10
0.1036294881889764
20
1.7042764566929134
11
0.0963705118110236
21
1.7042764566929134
0
LINE
8
BLACK
6
CONTINUOUS
10
0.0963705118110236
20
1.7042764566929134
11
0.0892008661417323
21
1.7054120078740158
0
LINE
8
BLACK
6
CONTINUOUS
10
0.0892008661417323
20
1.7054120078740158
11
0.082297125984252
21
1.7076551968503937
0
LINE
8
BLACK
6
CONTINUOUS
10
0.082297125984252
20
1.7076551968503937
11
0.0758292913385827
21
1.7109507086614173
0
LINE
8
BLACK
6
CONTINUOUS
10
0.0758292913385827
20
1.7109507086614173
11
0.0699566535433071
21
1.7152174409448819
0
LINE
8
BLACK
6
CONTINUOUS
10
0.0699566535433071
20
1.7152174409448819
11
0.0648237401574803
21
1.7203503543307086
0
LINE
8
BLACK
6
CONTINUOUS
10
0.0648237401574803
20
1.7203503543307086
11
0.0605570078740157
21
1.7262229921259842
0
LINE
8
BLACK
6
CONTINUOUS
10
0.0605570078740157
20
1.7262229921259842
11
0.0572614960629921
21
1.7326908267716534
0
LINE
8
BLACK
6
CONTINUOUS
10
0.0572614960629921
20
1.7326908267716534
11
0.0550183070866142
21
1.7395945669291337
0
LINE
8
BLACK
6
CONTINUOUS
10
0.0550183070866142
20
1.7395945669291337
11
0.0538827559055118
21
1.7467642125984251
0
LINE
8
BLACK
6
CONTINUOUS
10
0.0538827559055118
20
1.7467642125984251
11
0.0538827559055118
21
1.754023188976378
0
LINE
8
BLACK
6
CONTINUOUS
10
0.0538827559055118
20
1.754023188976378
11
0.0550183070866142
21
1.7611928346456693
0
LINE
8
BLACK
6
CONTINUOUS
10
0.0550183070866142
20
1.7611928346456693
11
0.0572614960629921
21
1.7680965748031496
0
LINE
8
BLACK
6
CONTINUOUS
10
0.0572614960629921
20
1.7680965748031496
11
0.0605570078740157
21
1.7745644094488189
0
LINE
8
BLACK
6
CONTINUOUS
10
0.0605570078740157
20
1.7745644094488189
11
0.0648237401574803
21
1.7804370472440945
0
LINE
8
BLACK
6
CONTINUOUS
10
0.0648237401574803
20
1.7804370472440945
11
0.0699566535433071
21
1.7855699606299211
0
LINE
8
BLACK
6
CONTINUOUS
10
0.0699566535433071
20
1.7855699606299211
11
0.0758292913385827
21
1.7898366929133858
0
LINE
8
BLACK
6
CONTINUOUS
10
0.0758292913385827
20
1.7898366929133858
11
0.082297125984252
21
1.7931322047244094
0
LINE
8
BLACK
6
CONTINUOUS
10
0.082297125984252
20
1.7931322047244094
11
0.0892008661417323
21
1.7953753937007875
0
LINE
8
BLACK
6
CONTINUOUS
10
0.0892008661417323
20
1.7953753937007875
11
0.0963705118110236
21
1.7965109448818897
0
LINE
8
BLACK
6
CONTINUOUS
10
0.0963705118110236
20
1.7965109448818897
11
0.1036294881889764
21
1.7965109448818897
0
LINE
8
BLACK
6
CONTINUOUS
10
0.1036294881889764
20
1.7965109448818897
11
0.1107991338582677
21
1.7953753937007875
0
LINE
8
BLACK
6
CONTINUOUS
10
0.0098800787401575
20
1.8915471653543308
11
0.0161962598425197
21
1.8894948818897637
0
LINE
8
BLACK
6
CONTINUOUS
10
0.0161962598425197
20
1.8894948818897637
11
0.0221136220472441
21
1.8864798425196849
0
LINE
8
BLACK
6
CONTINUOUS
10
0.0221136220472441
20
1.8864798425196849
11
0.0274864960629921
21
1.882576220472441
0
LINE
8
BLACK
6
CONTINUOUS
10
0.0274864960629921
20
1.882576220472441
11
0.0321825196850394
21
1.8778801968503938
0
LINE
8
BLACK
6
CONTINUOUS
10
0.0321825196850394
20
1.8778801968503938
11
0.0360861417322835
21
1.8725073228346456
0
LINE
8
BLACK
6
CONTINUOUS
10
0.0360861417322835
20
1.8725073228346456
11
0.0391011811023622
21
1.8665899606299212
0
LINE
8
BLACK
6
CONTINUOUS
10
0.0391011811023622
20
1.8665899606299212
11
0.0411534645669291
21
1.860273779527559
0
LINE
8
BLACK
6
CONTINUOUS
10
0.0411534645669291
20
1.860273779527559
11
0.0421923622047244
21
1.8537143307086614
0
LINE
8
BLACK
6
CONTINUOUS
10
0.0421923622047244
20
1.8537143307086614
11
0.0421923622047244
21
1.8470730708661416
0
LINE
8
BLACK
6
CONTINUOUS
10
0.0421923622047244
20
1.8470730708661416
11
0.0411534645669291
21
1.840513622047244
0
LINE
8
BLACK
6
CONTINUOUS
10
0.0411534645669291
20
1.840513622047244
11
0.0391011811023622
21
1.8341974409448818
0
LINE
8
BLACK
6
CONTINUOUS
10
0.0391011811023622
20
1.8341974409448818
11
0.0360861417322835
21
1.8282800787401574
0
LINE
8
BLACK
6
CONTINUOUS
10
0.0360861417322835
20
1.8282800787401574
11
0.0321825196850394
21
1.8229072047244095
0
LINE
8
BLACK
6
CONTINUOUS
10
0.0321825196850394
20
1.8229072047244095
11
0.0274864960629921
21
1.8182111811023622
0
LINE
8
BLACK
6
CONTINUOUS
10
0.0274864960629921
20
1.8182111811023622
11
0.0221136220472441
21
1.8143075590551181
0
LINE
8
BLACK
6
CONTINUOUS
10
0.0221136220472441
20
1.8143075590551181
11
0.0161962598425197
21
1.8112925196850393
0
LINE
8
BLACK
6
CONTINUOUS
10
0.0161962598425197
20
1.8112925196850393
11
0.0098800787401575
21
1.8092402362204725
0
LINE
8
BLACK
6
CONTINUOUS
10
0.0098800787401575
20
1.8092402362204725
11
0.0033206299212598
21
1.8082013385826772
0
LINE
8
BLACK
6
CONTINUOUS
10
0.0033206299212598
20
1.8082013385826772
11
-0.0033206299212598
21
1.8082013385826772
0
LINE
8
BLACK
6
CONTINUOUS
10
-0.0033206299212598
20
1.8082013385826772
11
-0.0098800787401575
21
1.8092402362204725
0
LINE
8
BLACK
6
CONTINUOUS
10
-0.0098800787401575
20
1.8092402362204725
11
-0.0161962598425197
21
1.8112925196850393
0
LINE
8
BLACK
6
CONTINUOUS
10
-0.0161962598425197
20
1.8112925196850393
11
-0.0221136220472441
21
1.8143075590551181
0
LINE
8
BLACK
6
CONTINUOUS
10
-0.0221136220472441
20
1.8143075590551181
11
-0.0274864960629921
21
1.8182111811023622
0
LINE
8
BLACK
6
CONTINUOUS
10
-0.0274864960629921
20
1.8182111811023622
11
-0.0321825196850394
21
1.8229072047244095
0
LINE
8
BLACK
6
CONTINUOUS
10
-0.0321825196850394
20
1.8229072047244095
11
-0.0360861417322835
21
1.8282800787401574
0
LINE
8
BLACK
6
CONTINUOUS
10
-0.0360861417322835
20
1.8282800787401574
11
-0.0391011811023622
21
1.8341974409448818
0
LINE
8
BLACK
6
CONTINUOUS
10
-0.0391011811023622
20
1.8341974409448818
11
-0.0411534645669291
21
1.840513622047244
0
LINE
8
BLACK
6
CONTINUOUS
10
-0.0411534645669291
20
1.840513622047244
11
-0.0421923622047244
21
1.8470730708661416
0
LINE
8
BLACK
6
CONTINUOUS
10
-0.0421923622047244
20
1.8470730708661416
11
-0.0421923622047244
21
1.8537143307086614
0
LINE
8
BLACK
6
CONTINUOUS
10
-0.0421923622047244
20
1.8537143307086614
11
-0.0411534645669291
21
1.860273779527559
0
LINE
8
BLACK
6
CONTINUOUS
10
-0.0411534645669291
20
1.860273779527559
11
-0.0391011811023622
21
1.8665899606299212
0
LINE
8
BLACK
6
CONTINUOUS
10
-0.0391011811023622
20
1.8665899606299212
11
-0.0360861417322835
21
1.8725073228346456
0
LINE
8
BLACK
6
CONTINUOUS
10
-0.0360861417322835
20
1.8725073228346456
11
-0.0321825196850394
21
1.8778801968503938
0
LINE
8
BLACK
6
CONTINUOUS
10
-0.0321825196850394
20
1.8778801968503938
11
-0.0274864960629921
21
1.882576220472441
0
LINE
8
BLACK
6
CONTINUOUS
10
-0.0274864960629921
20
1.882576220472441
11
-0.0221136220472441
21
1.8864798425196849
0
LINE
8
BLACK
6
CONTINUOUS
10
-0.0221136220472441
20
1.8864798425196849
11
-0.0161962598425197
21
1.8894948818897637
0
LINE
8
BLACK
6
CONTINUOUS
10
-0.0161962598425197
20
1.8894948818897637
11
-0.0098800787401575
21
1.8915471653543308
0
LINE
8
BLACK
6
CONTINUOUS
10
-0.0098800787401575
20
1.8915471653543308
11
-0.0033206299212598
21
1.8925860629921258
0
LINE
8
BLACK
6
CONTINUOUS
10
-0.0033206299212598
20
1.8925860629921258
11
0.0033206299212598
21
1.8925860629921258
0
LINE
8
BLACK
6
CONTINUOUS
10
0.0033206299212598
20
1.8925860629921258
11
0.0098800787401575
21
1.8915471653543308
0
LINE
8
BLACK
6
CONTINUOUS
10
-0.0892008661417323
20
1.9953753937007874
11
-0.082297125984252
21
1.9931322047244093
0
LINE
8
BLACK
6
CONTINUOUS
10
-0.082297125984252
20
1.9931322047244093
11
-0.0758292913385827
21
1.9898366929133857
0
LINE
8
BLACK
6
CONTINUOUS
10
-0.0758292913385827
20
1.9898366929133857
11
-0.0699566535433071
21
1.9855699606299213
0
LINE
8
BLACK
6
CONTINUOUS
10
-0.0699566535433071
20
1.9855699606299213
11
-0.0648237401574803
21
1.9804370472440944
0
LINE
8
BLACK
6
CONTINUOUS
10
-0.0648237401574803
20
1.9804370472440944
11
-0.0605570078740157
21
1.9745644094488188
0
LINE
8
BLACK
6
CONTINUOUS
10
-0.0605570078740157
20
1.9745644094488188
11
-0.0572614960629921
21
1.9680965748031496
0
LINE
8
BLACK
6
CONTINUOUS
10
-0.0572614960629921
20
1.9680965748031496
11
-0.0550183070866142
21
1.9611928346456693
0
LINE
8
BLACK
6
CONTINUOUS
10
-0.0550183070866142
20
1.9611928346456693
11
-0.0538827559055118
21
1.9540231889763779
0
LINE
8
BLACK
6
CONTINUOUS
10
-0.0538827559055118
20
1.9540231889763779
11
-0.0538827559055118
21
1.9467642125984252
0
LINE
8
BLACK
6
CONTINUOUS
10
-0.0538827559055118
20
1.9467642125984252
11
-0.0550183070866142
21
1.9395945669291339
0
LINE
8
BLACK
6
CONTINUOUS
10
-0.0550183070866142
20
1.9395945669291339
11
-0.0572614960629921
21
1.9326908267716536
0
LINE
8
BLACK
6
CONTINUOUS
10
-0.0572614960629921
20
1.9326908267716536
11
-0.0605570078740157
21
1.9262229921259841
0
LINE
8
BLACK
6
CONTINUOUS
10
-0.0605570078740157
20
1.9262229921259841
11
-0.0648237401574803
21
1.9203503543307086
0
LINE
8
BLACK
6
CONTINUOUS
10
-0.0648237401574803
20
1.9203503543307086
11
-0.0699566535433071
21
1.9152174409448819
0
LINE
8
BLACK
6
CONTINUOUS
10
-0.0699566535433071
20
1.9152174409448819
11
-0.0758292913385827
21
1.9109507086614173
0
LINE
8
BLACK
6
CONTINUOUS
10
-0.0758292913385827
20
1.9109507086614173
11
-0.082297125984252
21
1.9076551968503936
0
LINE
8
BLACK
6
CONTINUOUS
10
-0.082297125984252
20
1.9076551968503936
11
-0.0892008661417323
21
1.9054120078740158
0
LINE
8
BLACK
6
CONTINUOUS
10
-0.0892008661417323
20
1.9054120078740158
11
-0.0963705118110236
21
1.9042764566929133
0
LINE
8
BLACK
6
CONTINUOUS
10
-0.0963705118110236
20
1.9042764566929133
11
-0.1036294881889764
21
1.9042764566929133
0
LINE
8
BLACK
6
CONTINUOUS
10
-0.1036294881889764
20
1.9042764566929133
11
-0.1107991338582677
21
1.9054120078740158
0
LINE
8
BLACK
6
CONTINUOUS
10
-0.1107991338582677
20
1.9054120078740158
11
-0.117702874015748
21
1.9076551968503936
0
LINE
8
BLACK
6
CONTINUOUS
10
-0.117702874015748
20
1.9076551968503936
11
-0.1241707086614173
21
1.9109507086614173
0
LINE
8
BLACK
6
CONTINUOUS
10
-0.1241707086614173
20
1.9109507086614173
11
-0.1300433464566929
21
1.9152174409448819
0
LINE
8
BLACK
6
CONTINUOUS
10
-0.1300433464566929
20
1.9152174409448819
11
-0.1351762598425197
21
1.9203503543307086
0
LINE
8
BLACK
6
CONTINUOUS
10
-0.1351762598425197
20
1.9203503543307086
11
-0.1394429921259842
21
1.9262229921259841
0
LINE
8
BLACK
6
CONTINUOUS
10
-0.1394429921259842
20
1.9262229921259841
11
-0.1427385039370079
21
1.9326908267716536
0
LINE
8
BLACK
6
CONTINUOUS
10
-0.1427385039370079
20
1.9326908267716536
11
-0.1449816929133858
21
1.9395945669291339
0
LINE
8
BLACK
6
CONTINUOUS
10
-0.1449816929133858
20
1.9395945669291339
11
-0.1461172440944882
21
1.9467642125984252
0
LINE
8
BLACK
6
CONTINUOUS
10
-0.1461172440944882
20
1.9467642125984252
11
-0.1461172440944882
21
1.9540231889763779
0
LINE
8
BLACK
6
CONTINUOUS
10
-0.1461172440944882
20
1.9540231889763779
11
-0.1449816929133858
21
1.9611928346456693
0
LINE
8
BLACK
6
CONTINUOUS
10
-0.1449816929133858
20
1.9611928346456693
11
-0.1427385039370079
21
1.9680965748031496
0
LINE
8
BLACK
6
CONTINUOUS
10
-0.1427385039370079
20
1.9680965748031496
11
-0.1394429921259842
21
1.9745644094488188
0
LINE
8
BLACK
6
CONTINUOUS
10
-0.1394429921259842
20
1.9745644094488188
11
-0.1351762598425197
21
1.9804370472440944
0
LINE
8
BLACK
6
CONTINUOUS
10
-0.1351762598425197
20
1.9804370472440944
11
-0.1300433464566929
21
1.9855699606299213
0
LINE
8
BLACK
6
CONTINUOUS
10
-0.1300433464566929
20
1.9855699606299213
11
-0.1241707086614173
21
1.9898366929133857
0
LINE
8
BLACK
6
CONTINUOUS
10
-0.1241707086614173
20
1.9898366929133857
11
-0.117702874015748
21
1.9931322047244093
0
LINE
8
BLACK
6
CONTINUOUS
10
-0.117702874015748
20
1.9931322047244093
11
-0.1107991338582677
21
1.9953753937007874
0
LINE
8
BLACK
6
CONTINUOUS
10
-0.1107991338582677
20
1.9953753937007874
11
-0.1036294881889764
21
1.9965109448818896
0
LINE
8
BLACK
6
CONTINUOUS
10
-0.1036294881889764
20
1.9965109448818896
11
-0.0963705118110236
21
1.9965109448818896
0
LINE
8
BLACK
6
CONTINUOUS
10
-0.0963705118110236
20
1.9965109448818896
11
-0.0892008661417323
21
1.9953753937007874
0
LINE
8
BLACK
6
CONTINUOUS
10
0.1107991338582677
20
1.9953753937007874
11
0.117702874015748
21
1.9931322047244093
0
LINE
8
BLACK
6
CONTINUOUS
10
0.117702874015748
20
1.9931322047244093
11
0.1241707086614173
21
1.9898366929133857
0
LINE
8
BLACK
6
CONTINUOUS
10
0.1241707086614173
20
1.9898366929133857
11
0.1300433464566929
21
1.9855699606299213
0
LINE
8
BLACK
6
CONTINUOUS
10
0.1300433464566929
20
1.9855699606299213
11
0.1351762598425197
21
1.9804370472440944
0
LINE
8
BLACK
6
CONTINUOUS
10
0.1351762598425197
20
1.9804370472440944
11
0.1394429921259842
21
1.9745644094488188
0
LINE
8
BLACK
6
CONTINUOUS
10
0.1394429921259842
20
1.9745644094488188
11
0.1427385039370079
21
1.9680965748031496
0
LINE
8
BLACK
6
CONTINUOUS
10
0.1427385039370079
20
1.9680965748031496
11
0.1449816929133858
21
1.9611928346456693
0
LINE
8
BLACK
6
CONTINUOUS
10
0.1449816929133858
20
1.9611928346456693
11
0.1461172440944882
21
1.9540231889763779
0
LINE
8
BLACK
6
CONTINUOUS
10
0.1461172440944882
20
1.9540231889763779
11
0.1461172440944882
21
1.9467642125984252
0
LINE
8
BLACK
6
CONTINUOUS
10
0.1461172440944882
20
1.9467642125984252
11
0.1449816929133858
21
1.9395945669291339
0
LINE
8
BLACK
6
CONTINUOUS
10
0.1449816929133858
20
1.9395945669291339
11
0.1427385039370079
21
1.9326908267716536
0
LINE
8
BLACK
6
CONTINUOUS
10
0.1427385039370079
20
1.9326908267716536
11
0.1394429921259842
21
1.9262229921259841
0
LINE
8
BLACK
6
CONTINUOUS
10
0.1394429921259842
20
1.9262229921259841
11
0.1351762598425197
21
1.9203503543307086
0
LINE
8
BLACK
6
CONTINUOUS
10
0.1351762598425197
20
1.9203503543307086
11
0.1300433464566929
21
1.9152174409448819
0
LINE
8
BLACK
6
CONTINUOUS
10
0.1300433464566929
20
1.9152174409448819
11
0.1241707086614173
21
1.9109507086614173
0
LINE
8
BLACK
6
CONTINUOUS
10
0.1241707086614173
20
1.9109507086614173
11
0.117702874015748
21
1.9076551968503936
0
LINE
8
BLACK
6
CONTINUOUS
10
0.117702874015748
20
1.9076551968503936
11
0.1107991338582677
21
1.9054120078740158
0
LINE
8
BLACK
6
CONTINUOUS
10
0.1107991338582677
20
1.9054120078740158
11
0.1036294881889764
21
1.9042764566929133
0
LINE
8
BLACK
6
CONTINUOUS
10
0.1036294881889764
20
1.9042764566929133
11
0.0963705118110236
21
1.9042764566929133
0
LINE
8
BLACK
6
CONTINUOUS
10
0.0963705118110236
20
1.9042764566929133
11
0.0892008661417323
21
1.9054120078740158
0
LINE
8
BLACK
6
CONTINUOUS
10
0.0892008661417323
20
1.9054120078740158
11
0.082297125984252
21
1.9076551968503936
0
LINE
8
BLACK
6
CONTINUOUS
10
0.082297125984252
20
1.9076551968503936
11
0.0758292913385827
21
1.9109507086614173
0
LINE
8
BLACK
6
CONTINUOUS
10
0.0758292913385827
20
1.9109507086614173
11
0.0699566535433071
21
1.9152174409448819
0
LINE
8
BLACK
6
CONTINUOUS
10
0.0699566535433071
20
1.9152174409448819
11
0.0648237401574803
21
1.9203503543307086
0
LINE
8
BLACK
6
CONTINUOUS
10
0.0648237401574803
20
1.9203503543307086
11
0.0605570078740157
21
1.9262229921259841
0
LINE
8
BLACK
6
CONTINUOUS
10
0.0605570078740157
20
1.9262229921259841
11
0.0572614960629921
21
1.9326908267716536
0
LINE
8
BLACK
6
CONTINUOUS
10
0.0572614960629921
20
1.9326908267716536
11
0.0550183070866142
21
1.9395945669291339
0
LINE
8
BLACK
6
CONTINUOUS
10
0.0550183070866142
20
1.9395945669291339
11
0.0538827559055118
21
1.9467642125984252
0
LINE
8
BLACK
6
CONTINUOUS
10
0.0538827559055118
20
1.9467642125984252
11
0.0538827559055118
21
1.9540231889763779
0
LINE
8
BLACK
6
CONTINUOUS
10
0.0538827559055118
20
1.9540231889763779
11
0.0550183070866142
21
1.9611928346456693
0
LINE
8
BLACK
6
CONTINUOUS
10
0.0550183070866142
20
1.9611928346456693
11
0.0572614960629921
21
1.9680965748031496
0
LINE
8
BLACK
6
CONTINUOUS
10
0.0572614960629921
20
1.9680965748031496
11
0.0605570078740157
21
1.9745644094488188
0
LINE
8
BLACK
6
CONTINUOUS
10
0.0605570078740157
20
1.9745644094488188
11
0.0648237401574803
21
1.9804370472440944
0
LINE
8
BLACK
6
CONTINUOUS
10
0.0648237401574803
20
1.9804370472440944
11
0.0699566535433071
21
1.9855699606299213
0
LINE
8
BLACK
6
CONTINUOUS
10
0.0699566535433071
20
1.9855699606299213
11
0.0758292913385827
21
1.9898366929133857
0
LINE
8
BLACK
6
CONTINUOUS
10
0.0758292913385827
20
1.9898366929133857
11
0.082297125984252
21
1.9931322047244093
0
LINE
8
BLACK
6
CONTINUOUS
10
0.082297125984252
20
1.9931322047244093
11
0.0892008661417323
21
1.9953753937007874
0
LINE
8
BLACK
6
CONTINUOUS
10
0.0892008661417323
20
1.9953753937007874
11
0.0963705118110236
21
1.9965109448818896
0
LINE
8
BLACK
6
CONTINUOUS
10
0.0963705118110236
20
1.9965109448818896
11
0.1036294881889764
21
1.9965109448818896
0
LINE
8
BLACK
6
CONTINUOUS
10
0.1036294881889764
20
1.9965109448818896
11
0.1107991338582677
21
1.9953753937007874
  0
ENDSEC
  0
EOF
