  0
SECTION
  2
HEADER
  9
$ANGBASE
  50
0.0
  9
$ANGDIR
  70
1
  9
$MEASUREMENT
  70
0
  0
ENDSEC
  0
SECTION
  2
TABLES
  0
TABLE
  2
LTYPE
  70
4
  0
LTYPE
  5
40F
  2
CONTINUOUS
  70
0
  3
Solid line
  72
65
  73
0
  40
0.0
  0
LTYPE
  5
410
  2
DASHDOT
 70
0
  3
Dash Dot ____ _ ____ _
 72
65
 73
4
 40
2.0
 49
1.25
 49
-0.25
 49
0.25
 49
-0.25
  0
LTYPE
  5
411
  2
DASHED
 70
0
  3
Dashed __ __ __ __ __
 72
65
 73
2
 40
0.75
 49
0.5
 49
-0.25
  0
LTYPE
  5
43B
  2
DOTTED
 70
0
  3
Dotted .  .  .  .
 72
65
 73
2
 40
0.2
 49
0.0
 49
-0.2
  0
ENDTAB
  0
TABLE
  2
STYLE
  70
4
  0
STYLE
  2
KICAD
  70
0
  40
0
  41
1
  42
1
  50
0
  71
0
  3
isocp.shx
  0
STYLE
  2
KICADB
  70
0
  40
0
  41
1
  42
1
  50
0
  71
0
  3
isocp.shx
  0
STYLE
  2
KICADI
  70
0
  40
0
  41
1
  42
1
  50
15
  71
0
  3
isocp.shx
  0
STYLE
  2
KICADBI
  70
0
  40
0
  41
1
  42
1
  50
15
  71
0
  3
isocp.shx
  0
ENDTAB
  0
TABLE
  2
LAYER
  70
1
  0
LAYER
  2
BLACK
  70
0
  62
7
  6
CONTINUOUS
  0
ENDTAB
  0
ENDSEC
  0
SECTION
  2
ENTITIES
0
LINE
8
BLACK
6
CONTINUOUS
10
0.9364028346456693
20
-1.8667890157480314
11
0.9374672440944881
21
-1.8672299212598424
0
LINE
8
BLACK
6
CONTINUOUS
10
0.9374672440944881
20
-1.8672299212598424
11
0.9382818897637795
21
-1.8680445669291339
0
LINE
8
BLACK
6
CONTINUOUS
10
0.9382818897637795
20
-1.8680445669291339
11
0.9387227952755905
21
-1.8691089763779527
0
LINE
8
BLACK
6
CONTINUOUS
10
0.9387227952755905
20
-1.8691089763779527
11
0.9387795275590551
21
-1.8696850393700788
0
LINE
8
BLACK
6
CONTINUOUS
10
0.9387795275590551
20
-1.8696850393700788
11
0.9387795275590551
21
-2.1696850393700786
0
LINE
8
BLACK
6
CONTINUOUS
10
0.9387795275590551
20
-2.1696850393700786
11
0.9387227952755905
21
-2.1702611023622045
0
LINE
8
BLACK
6
CONTINUOUS
10
0.9387227952755905
20
-2.1702611023622045
11
0.9382818897637795
21
-2.1713255118110237
0
LINE
8
BLACK
6
CONTINUOUS
10
0.9382818897637795
20
-2.1713255118110237
11
0.9374672440944881
21
-2.1721401574803147
0
LINE
8
BLACK
6
CONTINUOUS
10
0.9374672440944881
20
-2.1721401574803147
11
0.9364028346456693
21
-2.1725810629921258
0
LINE
8
BLACK
6
CONTINUOUS
10
0.9364028346456693
20
-2.1725810629921258
11
0.9358267716535433
21
-2.1726377952755906
0
LINE
8
BLACK
6
CONTINUOUS
10
0.9358267716535433
20
-2.1726377952755906
11
0.7358267716535433
21
-2.1726377952755906
0
LINE
8
BLACK
6
CONTINUOUS
10
0.7358267716535433
20
-2.1726377952755906
11
0.7352507086614173
21
-2.1725810629921258
0
LINE
8
BLACK
6
CONTINUOUS
10
0.7352507086614173
20
-2.1725810629921258
11
0.7341862992125984
21
-2.1721401574803147
0
LINE
8
BLACK
6
CONTINUOUS
10
0.7341862992125984
20
-2.1721401574803147
11
0.733371653543307
21
-2.1713255118110237
0
LINE
8
BLACK
6
CONTINUOUS
10
0.733371653543307
20
-2.1713255118110237
11
0.732930748031496
21
-2.1702611023622045
0
LINE
8
BLACK
6
CONTINUOUS
10
0.732930748031496
20
-2.1702611023622045
11
0.7328740157480315
21
-2.1696850393700786
0
LINE
8
BLACK
6
CONTINUOUS
10
0.7328740157480315
20
-2.1696850393700786
11
0.7328740157480315
21
-1.8696850393700788
0
LINE
8
BLACK
6
CONTINUOUS
10
0.7328740157480315
20
-1.8696850393700788
11
0.732930748031496
21
-1.8691089763779527
0
LINE
8
BLACK
6
CONTINUOUS
10
0.732930748031496
20
-1.8691089763779527
11
0.733371653543307
21
-1.8680445669291339
0
LINE
8
BLACK
6
CONTINUOUS
10
0.733371653543307
20
-1.8680445669291339
11
0.7341862992125984
21
-1.8672299212598424
0
LINE
8
BLACK
6
CONTINUOUS
10
0.7341862992125984
20
-1.8672299212598424
11
0.7352507086614173
21
-1.8667890157480314
0
LINE
8
BLACK
6
CONTINUOUS
10
0.7352507086614173
20
-1.8667890157480314
11
0.7358267716535433
21
-1.866732283464567
0
LINE
8
BLACK
6
CONTINUOUS
10
0.7358267716535433
20
-1.866732283464567
11
0.9358267716535433
21
-1.866732283464567
0
LINE
8
BLACK
6
CONTINUOUS
10
0.9358267716535433
20
-1.866732283464567
11
0.9364028346456693
21
-1.8667890157480314
0
LINE
8
BLACK
6
CONTINUOUS
10
0.7387795275590551
20
-1.8726377952755906
11
0.7387795275590551
21
-2.166732283464567
0
LINE
8
BLACK
6
CONTINUOUS
10
0.7387795275590551
20
-2.166732283464567
11
0.9328740157480315
21
-2.166732283464567
0
LINE
8
BLACK
6
CONTINUOUS
10
0.9328740157480315
20
-2.166732283464567
11
0.9328740157480315
21
-1.8726377952755906
0
LINE
8
BLACK
6
CONTINUOUS
10
0.9328740157480315
20
-1.8726377952755906
11
0.7387795275590551
21
-1.8726377952755906
0
CIRCLE
8
BLACK
10
0.45
20
-1.918503937007874
40
0.0068897637795276
0
CIRCLE
8
BLACK
10
0.45
20
-2.0185039370078739
40
0.0068897637795276
0
CIRCLE
8
BLACK
10
0.35
20
-1.918503937007874
40
0.0068897637795276
0
CIRCLE
8
BLACK
10
0.35
20
-2.0185039370078739
40
0.0068897637795276
0
CIRCLE
8
BLACK
10
0.25
20
-1.918503937007874
40
0.0068897637795276
0
CIRCLE
8
BLACK
10
0.25
20
-2.0185039370078739
40
0.0068897637795276
0
CIRCLE
8
BLACK
10
0.15
20
-1.918503937007874
40
0.0068897637795276
0
CIRCLE
8
BLACK
10
0.15
20
-2.0185039370078739
40
0.0068897637795276
0
CIRCLE
8
BLACK
10
0.05
20
-1.918503937007874
40
0.0068897637795276
0
CIRCLE
8
BLACK
10
0.05
20
-2.0185039370078739
40
0.0068897637795276
0
CIRCLE
8
BLACK
10
-0.05
20
-1.918503937007874
40
0.0068897637795276
0
CIRCLE
8
BLACK
10
-0.05
20
-2.0185039370078739
40
0.0068897637795276
0
CIRCLE
8
BLACK
10
-0.15
20
-1.918503937007874
40
0.0068897637795276
0
CIRCLE
8
BLACK
10
-0.15
20
-2.0185039370078739
40
0.0068897637795276
0
CIRCLE
8
BLACK
10
-0.25
20
-1.918503937007874
40
0.0068897637795276
0
CIRCLE
8
BLACK
10
-0.25
20
-2.0185039370078739
40
0.0068897637795276
0
CIRCLE
8
BLACK
10
-0.35
20
-1.918503937007874
40
0.0068897637795276
0
CIRCLE
8
BLACK
10
-0.35
20
-2.0185039370078739
40
0.0068897637795276
0
CIRCLE
8
BLACK
10
-0.45
20
-1.918503937007874
40
0.0068897637795276
0
CIRCLE
8
BLACK
10
-0.45
20
-2.0185039370078739
40
0.0068897637795276
0
CIRCLE
8
BLACK
10
0.7858267716535433
20
-1.9196850393700786
40
0.0068897637795276
0
CIRCLE
8
BLACK
10
0.8858267716535433
20
-1.9196850393700786
40
0.0068897637795276
0
CIRCLE
8
BLACK
10
0.7858267716535433
20
-2.0196850393700787
40
0.0068897637795276
0
CIRCLE
8
BLACK
10
0.8858267716535433
20
-2.0196850393700787
40
0.0068897637795276
0
CIRCLE
8
BLACK
10
0.7858267716535433
20
-2.1196850393700788
40
0.0068897637795276
0
CIRCLE
8
BLACK
10
0.8858267716535433
20
-2.1196850393700788
40
0.0068897637795276
0
CIRCLE
8
BLACK
10
0.
20
1.8503937007874016
40
0.0068897637795276
0
CIRCLE
8
BLACK
10
-0.1
20
1.9503937007874015
40
0.0068897637795276
0
CIRCLE
8
BLACK
10
-0.1
20
1.7503937007874015
40
0.0068897637795276
0
CIRCLE
8
BLACK
10
0.1
20
1.9503937007874015
40
0.0068897637795276
0
CIRCLE
8
BLACK
10
0.1
20
1.7503937007874015
40
0.0068897637795276
  0
ENDSEC
  0
EOF
