  0
SECTION
  2
HEADER
  9
$ANGBASE
  50
0.0
  9
$ANGDIR
  70
1
  9
$MEASUREMENT
  70
0
  9
$INSUNITS
  70
1
  0
ENDSEC
  0
SECTION
  2
TABLES
  0
TABLE
  2
LTYPE
  70
4
  0
LTYPE
  5
40F
  2
CONTINUOUS
  70
0
  3
Solid line
  72
65
  73
0
  40
0.0
  0
LTYPE
  5
410
  2
DASHDOT
 70
0
  3
Dash Dot ____ _ ____ _
 72
65
 73
4
 40
2.0
 49
1.25
 49
-0.25
 49
0.25
 49
-0.25
  0
LTYPE
  5
411
  2
DASHED
 70
0
  3
Dashed __ __ __ __ __
 72
65
 73
2
 40
0.75
 49
0.5
 49
-0.25
  0
LTYPE
  5
43B
  2
DOTTED
 70
0
  3
Dotted .  .  .  .
 72
65
 73
2
 40
0.2
 49
0.0
 49
-0.2
  0
ENDTAB
  0
TABLE
  2
STYLE
  70
4
  0
STYLE
  2
KICAD
  70
0
  40
0
  41
1
  42
1
  50
0
  71
0
  3
isocp.shx
  0
STYLE
  2
KICADB
  70
0
  40
0
  41
1
  42
1
  50
0
  71
0
  3
isocp.shx
  0
STYLE
  2
KICADI
  70
0
  40
0
  41
1
  42
1
  50
15
  71
0
  3
isocp.shx
  0
STYLE
  2
KICADBI
  70
0
  40
0
  41
1
  42
1
  50
15
  71
0
  3
isocp.shx
  0
ENDTAB
  0
TABLE
  2
LAYER
  70
1
  0
LAYER
  2
BLACK
  70
0
  62
250
  6
CONTINUOUS
  0
ENDTAB
  0
ENDSEC
  0
SECTION
  2
ENTITIES
0
LINE
8
BLACK
6
CONTINUOUS
10
-1.4379380708661418
20
-0.7601142913385827
11
-1.4374053937007873
21
-0.760646968503937
0
LINE
8
BLACK
6
CONTINUOUS
10
-1.4374053937007873
20
-0.760646968503937
11
-1.4373304724409448
21
-0.7610236220472441
0
LINE
8
BLACK
6
CONTINUOUS
10
-1.4373304724409448
20
-0.7610236220472441
11
-1.4373304724409448
21
-1.0893700787401575
0
LINE
8
BLACK
6
CONTINUOUS
10
-1.4373304724409448
20
-1.0893700787401575
11
-1.4374053937007873
21
-1.0897467322834646
0
LINE
8
BLACK
6
CONTINUOUS
10
-1.4374053937007873
20
-1.0897467322834646
11
-1.4379380708661418
21
-1.0902794094488188
0
LINE
8
BLACK
6
CONTINUOUS
10
-1.4379380708661418
20
-1.0902794094488188
11
-1.4383147244094487
21
-1.0903543307086614
0
LINE
8
BLACK
6
CONTINUOUS
10
-1.4383147244094487
20
-1.0903543307086614
11
-1.7666611811023623
21
-1.0903543307086614
0
LINE
8
BLACK
6
CONTINUOUS
10
-1.7666611811023623
20
-1.0903543307086614
11
-1.7670378346456692
21
-1.0902794094488188
0
LINE
8
BLACK
6
CONTINUOUS
10
-1.7670378346456692
20
-1.0902794094488188
11
-1.7675705118110236
21
-1.0897467322834646
0
LINE
8
BLACK
6
CONTINUOUS
10
-1.7675705118110236
20
-1.0897467322834646
11
-1.7676454330708662
21
-1.0893700787401575
0
LINE
8
BLACK
6
CONTINUOUS
10
-1.7676454330708662
20
-1.0893700787401575
11
-1.7676454330708662
21
-0.7610236220472441
0
LINE
8
BLACK
6
CONTINUOUS
10
-1.7676454330708662
20
-0.7610236220472441
11
-1.7675705118110236
21
-0.760646968503937
0
LINE
8
BLACK
6
CONTINUOUS
10
-1.7675705118110236
20
-0.760646968503937
11
-1.7670378346456692
21
-0.7601142913385827
0
LINE
8
BLACK
6
CONTINUOUS
10
-1.7670378346456692
20
-0.7601142913385827
11
-1.7666611811023623
21
-0.7600393700787401
0
LINE
8
BLACK
6
CONTINUOUS
10
-1.7666611811023623
20
-0.7600393700787401
11
-1.4383147244094487
21
-0.7600393700787401
0
LINE
8
BLACK
6
CONTINUOUS
10
-1.4383147244094487
20
-0.7600393700787401
11
-1.4379380708661418
21
-0.7601142913385827
0
LINE
8
BLACK
6
CONTINUOUS
10
-1.7656769291338583
20
-0.762007874015748
11
-1.7656769291338583
21
-1.0883858267716535
0
LINE
8
BLACK
6
CONTINUOUS
10
-1.7656769291338583
20
-1.0883858267716535
11
-1.4392989763779527
21
-1.0883858267716535
0
LINE
8
BLACK
6
CONTINUOUS
10
-1.4392989763779527
20
-1.0883858267716535
11
-1.4392989763779527
21
-0.762007874015748
0
LINE
8
BLACK
6
CONTINUOUS
10
-1.4392989763779527
20
-0.762007874015748
11
-1.7656769291338583
21
-0.762007874015748
0
LINE
8
BLACK
6
CONTINUOUS
10
1.7670378346456692
20
-0.7601142913385827
11
1.7675705118110236
21
-0.760646968503937
0
LINE
8
BLACK
6
CONTINUOUS
10
1.7675705118110236
20
-0.760646968503937
11
1.7676454330708662
21
-0.7610236220472441
0
LINE
8
BLACK
6
CONTINUOUS
10
1.7676454330708662
20
-0.7610236220472441
11
1.7676454330708662
21
-1.0893700787401575
0
LINE
8
BLACK
6
CONTINUOUS
10
1.7676454330708662
20
-1.0893700787401575
11
1.7675705118110236
21
-1.0897467322834646
0
LINE
8
BLACK
6
CONTINUOUS
10
1.7675705118110236
20
-1.0897467322834646
11
1.7670378346456692
21
-1.0902794094488188
0
LINE
8
BLACK
6
CONTINUOUS
10
1.7670378346456692
20
-1.0902794094488188
11
1.7666611811023623
21
-1.0903543307086614
0
LINE
8
BLACK
6
CONTINUOUS
10
1.7666611811023623
20
-1.0903543307086614
11
1.4383147244094487
21
-1.0903543307086614
0
LINE
8
BLACK
6
CONTINUOUS
10
1.4383147244094487
20
-1.0903543307086614
11
1.4379380708661418
21
-1.0902794094488188
0
LINE
8
BLACK
6
CONTINUOUS
10
1.4379380708661418
20
-1.0902794094488188
11
1.4374053937007873
21
-1.0897467322834646
0
LINE
8
BLACK
6
CONTINUOUS
10
1.4374053937007873
20
-1.0897467322834646
11
1.4373304724409448
21
-1.0893700787401575
0
LINE
8
BLACK
6
CONTINUOUS
10
1.4373304724409448
20
-1.0893700787401575
11
1.4373304724409448
21
-0.7610236220472441
0
LINE
8
BLACK
6
CONTINUOUS
10
1.4373304724409448
20
-0.7610236220472441
11
1.4374053937007873
21
-0.760646968503937
0
LINE
8
BLACK
6
CONTINUOUS
10
1.4374053937007873
20
-0.760646968503937
11
1.4379380708661418
21
-0.7601142913385827
0
LINE
8
BLACK
6
CONTINUOUS
10
1.4379380708661418
20
-0.7601142913385827
11
1.4383147244094487
21
-0.7600393700787401
0
LINE
8
BLACK
6
CONTINUOUS
10
1.4383147244094487
20
-0.7600393700787401
11
1.7666611811023623
21
-0.7600393700787401
0
LINE
8
BLACK
6
CONTINUOUS
10
1.7666611811023623
20
-0.7600393700787401
11
1.7670378346456692
21
-0.7601142913385827
0
LINE
8
BLACK
6
CONTINUOUS
10
1.4392989763779527
20
-0.762007874015748
11
1.4392989763779527
21
-1.0883858267716535
0
LINE
8
BLACK
6
CONTINUOUS
10
1.4392989763779527
20
-1.0883858267716535
11
1.7656769291338583
21
-1.0883858267716535
0
LINE
8
BLACK
6
CONTINUOUS
10
1.7656769291338583
20
-1.0883858267716535
11
1.7656769291338583
21
-0.762007874015748
0
LINE
8
BLACK
6
CONTINUOUS
10
1.7656769291338583
20
-0.762007874015748
11
1.4392989763779527
21
-0.762007874015748
0
CIRCLE
8
BLACK
10
0.45
20
-1.918503937007874
40
0.0068897637795276
0
CIRCLE
8
BLACK
10
0.45
20
-2.0185039370078739
40
0.0068897637795276
0
CIRCLE
8
BLACK
10
0.35
20
-1.918503937007874
40
0.0068897637795276
0
CIRCLE
8
BLACK
10
0.35
20
-2.0185039370078739
40
0.0068897637795276
0
CIRCLE
8
BLACK
10
0.25
20
-1.918503937007874
40
0.0068897637795276
0
CIRCLE
8
BLACK
10
0.25
20
-2.0185039370078739
40
0.0068897637795276
0
CIRCLE
8
BLACK
10
0.15
20
-1.918503937007874
40
0.0068897637795276
0
CIRCLE
8
BLACK
10
0.15
20
-2.0185039370078739
40
0.0068897637795276
0
CIRCLE
8
BLACK
10
0.05
20
-1.918503937007874
40
0.0068897637795276
0
CIRCLE
8
BLACK
10
0.05
20
-2.0185039370078739
40
0.0068897637795276
0
CIRCLE
8
BLACK
10
-0.05
20
-1.918503937007874
40
0.0068897637795276
0
CIRCLE
8
BLACK
10
-0.05
20
-2.0185039370078739
40
0.0068897637795276
0
CIRCLE
8
BLACK
10
-0.15
20
-1.918503937007874
40
0.0068897637795276
0
CIRCLE
8
BLACK
10
-0.15
20
-2.0185039370078739
40
0.0068897637795276
0
CIRCLE
8
BLACK
10
-0.25
20
-1.918503937007874
40
0.0068897637795276
0
CIRCLE
8
BLACK
10
-0.25
20
-2.0185039370078739
40
0.0068897637795276
0
CIRCLE
8
BLACK
10
-0.35
20
-1.918503937007874
40
0.0068897637795276
0
CIRCLE
8
BLACK
10
-0.35
20
-2.0185039370078739
40
0.0068897637795276
0
CIRCLE
8
BLACK
10
-0.45
20
-1.918503937007874
40
0.0068897637795276
0
CIRCLE
8
BLACK
10
-0.45
20
-2.0185039370078739
40
0.0068897637795276
0
CIRCLE
8
BLACK
10
1.6024879527559055
20
-0.9251968503937008
40
0.0068897637795276
0
CIRCLE
8
BLACK
10
1.5024879527559054
20
-0.8251968503937007
40
0.0068897637795276
0
CIRCLE
8
BLACK
10
1.5024879527559054
20
-1.0251968503937008
40
0.0068897637795276
0
CIRCLE
8
BLACK
10
1.7024879527559054
20
-0.8251968503937007
40
0.0068897637795276
0
CIRCLE
8
BLACK
10
1.7024879527559054
20
-1.0251968503937008
40
0.0068897637795276
0
CIRCLE
8
BLACK
10
0.7858267716535433
20
-1.9196850393700786
40
0.0068897637795276
0
CIRCLE
8
BLACK
10
0.8858267716535433
20
-1.9196850393700786
40
0.0068897637795276
0
CIRCLE
8
BLACK
10
0.7858267716535433
20
-2.0196850393700787
40
0.0068897637795276
0
CIRCLE
8
BLACK
10
0.8858267716535433
20
-2.0196850393700787
40
0.0068897637795276
0
CIRCLE
8
BLACK
10
0.7858267716535433
20
-2.1196850393700788
40
0.0068897637795276
0
CIRCLE
8
BLACK
10
0.8858267716535433
20
-2.1196850393700788
40
0.0068897637795276
0
CIRCLE
8
BLACK
10
-1.6024879527559055
20
-0.9251968503937008
40
0.0068897637795276
0
CIRCLE
8
BLACK
10
-1.7024879527559054
20
-0.8251968503937007
40
0.0068897637795276
0
CIRCLE
8
BLACK
10
-1.7024879527559054
20
-1.0251968503937008
40
0.0068897637795276
0
CIRCLE
8
BLACK
10
-1.5024879527559054
20
-0.8251968503937007
40
0.0068897637795276
0
CIRCLE
8
BLACK
10
-1.5024879527559054
20
-1.0251968503937008
40
0.0068897637795276
0
CIRCLE
8
BLACK
10
0.
20
1.8503937007874016
40
0.0068897637795276
0
CIRCLE
8
BLACK
10
-0.1
20
1.9503937007874015
40
0.0068897637795276
0
CIRCLE
8
BLACK
10
-0.1
20
1.7503937007874015
40
0.0068897637795276
0
CIRCLE
8
BLACK
10
0.1
20
1.9503937007874015
40
0.0068897637795276
0
CIRCLE
8
BLACK
10
0.1
20
1.7503937007874015
40
0.0068897637795276
0
CIRCLE
8
BLACK
10
0.45
20
-1.918503937007874
40
0.0068897637795276
0
CIRCLE
8
BLACK
10
0.45
20
-2.0185039370078739
40
0.0068897637795276
0
CIRCLE
8
BLACK
10
0.35
20
-1.918503937007874
40
0.0068897637795276
0
CIRCLE
8
BLACK
10
0.35
20
-2.0185039370078739
40
0.0068897637795276
0
CIRCLE
8
BLACK
10
0.25
20
-1.918503937007874
40
0.0068897637795276
0
CIRCLE
8
BLACK
10
0.25
20
-2.0185039370078739
40
0.0068897637795276
0
CIRCLE
8
BLACK
10
0.15
20
-1.918503937007874
40
0.0068897637795276
0
CIRCLE
8
BLACK
10
0.15
20
-2.0185039370078739
40
0.0068897637795276
0
CIRCLE
8
BLACK
10
0.05
20
-1.918503937007874
40
0.0068897637795276
0
CIRCLE
8
BLACK
10
0.05
20
-2.0185039370078739
40
0.0068897637795276
0
CIRCLE
8
BLACK
10
-0.05
20
-1.918503937007874
40
0.0068897637795276
0
CIRCLE
8
BLACK
10
-0.05
20
-2.0185039370078739
40
0.0068897637795276
0
CIRCLE
8
BLACK
10
-0.15
20
-1.918503937007874
40
0.0068897637795276
0
CIRCLE
8
BLACK
10
-0.15
20
-2.0185039370078739
40
0.0068897637795276
0
CIRCLE
8
BLACK
10
-0.25
20
-1.918503937007874
40
0.0068897637795276
0
CIRCLE
8
BLACK
10
-0.25
20
-2.0185039370078739
40
0.0068897637795276
0
CIRCLE
8
BLACK
10
-0.35
20
-1.918503937007874
40
0.0068897637795276
0
CIRCLE
8
BLACK
10
-0.35
20
-2.0185039370078739
40
0.0068897637795276
0
CIRCLE
8
BLACK
10
-0.45
20
-1.918503937007874
40
0.0068897637795276
0
CIRCLE
8
BLACK
10
-0.45
20
-2.0185039370078739
40
0.0068897637795276
0
CIRCLE
8
BLACK
10
1.6024879527559055
20
-0.9251968503937008
40
0.0068897637795276
0
CIRCLE
8
BLACK
10
1.5024879527559054
20
-0.8251968503937007
40
0.0068897637795276
0
CIRCLE
8
BLACK
10
1.5024879527559054
20
-1.0251968503937008
40
0.0068897637795276
0
CIRCLE
8
BLACK
10
1.7024879527559054
20
-0.8251968503937007
40
0.0068897637795276
0
CIRCLE
8
BLACK
10
1.7024879527559054
20
-1.0251968503937008
40
0.0068897637795276
0
CIRCLE
8
BLACK
10
0.7858267716535433
20
-1.9196850393700786
40
0.0068897637795276
0
CIRCLE
8
BLACK
10
0.8858267716535433
20
-1.9196850393700786
40
0.0068897637795276
0
CIRCLE
8
BLACK
10
0.7858267716535433
20
-2.0196850393700787
40
0.0068897637795276
0
CIRCLE
8
BLACK
10
0.8858267716535433
20
-2.0196850393700787
40
0.0068897637795276
0
CIRCLE
8
BLACK
10
0.7858267716535433
20
-2.1196850393700788
40
0.0068897637795276
0
CIRCLE
8
BLACK
10
0.8858267716535433
20
-2.1196850393700788
40
0.0068897637795276
0
CIRCLE
8
BLACK
10
-1.6024879527559055
20
-0.9251968503937008
40
0.0068897637795276
0
CIRCLE
8
BLACK
10
-1.7024879527559054
20
-0.8251968503937007
40
0.0068897637795276
0
CIRCLE
8
BLACK
10
-1.7024879527559054
20
-1.0251968503937008
40
0.0068897637795276
0
CIRCLE
8
BLACK
10
-1.5024879527559054
20
-0.8251968503937007
40
0.0068897637795276
0
CIRCLE
8
BLACK
10
-1.5024879527559054
20
-1.0251968503937008
40
0.0068897637795276
0
CIRCLE
8
BLACK
10
0.
20
1.8503937007874016
40
0.0068897637795276
0
CIRCLE
8
BLACK
10
-0.1
20
1.9503937007874015
40
0.0068897637795276
0
CIRCLE
8
BLACK
10
-0.1
20
1.7503937007874015
40
0.0068897637795276
0
CIRCLE
8
BLACK
10
0.1
20
1.9503937007874015
40
0.0068897637795276
0
CIRCLE
8
BLACK
10
0.1
20
1.7503937007874015
40
0.0068897637795276
  0
ENDSEC
  0
EOF
