  0
SECTION
  2
HEADER
  9
$ANGBASE
  50
0.0
  9
$ANGDIR
  70
1
  9
$MEASUREMENT
  70
0
  0
ENDSEC
  0
SECTION
  2
TABLES
  0
TABLE
  2
LTYPE
  70
4
  0
LTYPE
  5
40F
  2
CONTINUOUS
  70
0
  3
Solid line
  72
65
  73
0
  40
0.0
  0
LTYPE
  5
410
  2
DASHDOT
 70
0
  3
Dash Dot ____ _ ____ _
 72
65
 73
4
 40
2.0
 49
1.25
 49
-0.25
 49
0.25
 49
-0.25
  0
LTYPE
  5
411
  2
DASHED
 70
0
  3
Dashed __ __ __ __ __
 72
65
 73
2
 40
0.75
 49
0.5
 49
-0.25
  0
LTYPE
  5
43B
  2
DOTTED
 70
0
  3
Dotted .  .  .  .
 72
65
 73
2
 40
0.2
 49
0.0
 49
-0.2
  0
ENDTAB
  0
TABLE
  2
STYLE
  70
4
  0
STYLE
  2
KICAD
  70
0
  40
0
  41
1
  42
1
  50
0
  71
0
  3
isocp.shx
  0
STYLE
  2
KICADB
  70
0
  40
0
  41
1
  42
1
  50
0
  71
0
  3
isocp.shx
  0
STYLE
  2
KICADI
  70
0
  40
0
  41
1
  42
1
  50
15
  71
0
  3
isocp.shx
  0
STYLE
  2
KICADBI
  70
0
  40
0
  41
1
  42
1
  50
15
  71
0
  3
isocp.shx
  0
ENDTAB
  0
TABLE
  2
LAYER
  70
1
  0
LAYER
  2
BLACK
  70
0
  62
7
  6
CONTINUOUS
  0
ENDTAB
  0
ENDSEC
  0
SECTION
  2
ENTITIES
0
LINE
8
BLACK
6
CONTINUOUS
10
0.014935
20
-0.6858227952755905
11
0.0244827165354331
21
-0.6889250393700788
0
LINE
8
BLACK
6
CONTINUOUS
10
0.0244827165354331
20
-0.6889250393700788
11
0.0334275590551181
21
-0.6934826771653543
0
LINE
8
BLACK
6
CONTINUOUS
10
0.0334275590551181
20
-0.6934826771653543
11
0.0415493307086614
21
-0.6993834645669291
0
LINE
8
BLACK
6
CONTINUOUS
10
0.0415493307086614
20
-0.6993834645669291
11
0.048648031496063
21
-0.7064821653543307
0
LINE
8
BLACK
6
CONTINUOUS
10
0.048648031496063
20
-0.7064821653543307
11
0.0545488188976378
21
-0.7146039370078739
0
LINE
8
BLACK
6
CONTINUOUS
10
0.0545488188976378
20
-0.7146039370078739
11
0.0591064566929134
21
-0.723548779527559
0
LINE
8
BLACK
6
CONTINUOUS
10
0.0591064566929134
20
-0.723548779527559
11
0.0622087007874016
21
-0.7330964960629921
0
LINE
8
BLACK
6
CONTINUOUS
10
0.0622087007874016
20
-0.7330964960629921
11
0.0637791732283465
21
-0.743011968503937
0
LINE
8
BLACK
6
CONTINUOUS
10
0.0637791732283465
20
-0.743011968503937
11
0.0637791732283465
21
-0.7530510236220472
0
LINE
8
BLACK
6
CONTINUOUS
10
0.0637791732283465
20
-0.7530510236220472
11
0.0622087007874016
21
-0.7629664960629922
0
LINE
8
BLACK
6
CONTINUOUS
10
0.0622087007874016
20
-0.7629664960629922
11
0.0591064566929134
21
-0.7725142125984252
0
LINE
8
BLACK
6
CONTINUOUS
10
0.0591064566929134
20
-0.7725142125984252
11
0.0545488188976378
21
-0.7814590551181102
0
LINE
8
BLACK
6
CONTINUOUS
10
0.0545488188976378
20
-0.7814590551181102
11
0.048648031496063
21
-0.7895808267716535
0
LINE
8
BLACK
6
CONTINUOUS
10
0.048648031496063
20
-0.7895808267716535
11
0.0415493307086614
21
-0.7966795275590551
0
LINE
8
BLACK
6
CONTINUOUS
10
0.0415493307086614
20
-0.7966795275590551
11
0.0334275590551181
21
-0.8025803149606299
0
LINE
8
BLACK
6
CONTINUOUS
10
0.0334275590551181
20
-0.8025803149606299
11
0.0244827165354331
21
-0.8071379527559055
0
LINE
8
BLACK
6
CONTINUOUS
10
0.0244827165354331
20
-0.8071379527559055
11
0.014935
21
-0.8102401968503937
0
LINE
8
BLACK
6
CONTINUOUS
10
0.014935
20
-0.8102401968503937
11
0.0050195275590551
21
-0.8118106692913386
0
LINE
8
BLACK
6
CONTINUOUS
10
0.0050195275590551
20
-0.8118106692913386
11
-0.0050195275590551
21
-0.8118106692913386
0
LINE
8
BLACK
6
CONTINUOUS
10
-0.0050195275590551
20
-0.8118106692913386
11
-0.014935
21
-0.8102401968503937
0
LINE
8
BLACK
6
CONTINUOUS
10
-0.014935
20
-0.8102401968503937
11
-0.0244827165354331
21
-0.8071379527559055
0
LINE
8
BLACK
6
CONTINUOUS
10
-0.0244827165354331
20
-0.8071379527559055
11
-0.0334275590551181
21
-0.8025803149606299
0
LINE
8
BLACK
6
CONTINUOUS
10
-0.0334275590551181
20
-0.8025803149606299
11
-0.0415493307086614
21
-0.7966795275590551
0
LINE
8
BLACK
6
CONTINUOUS
10
-0.0415493307086614
20
-0.7966795275590551
11
-0.048648031496063
21
-0.7895808267716535
0
LINE
8
BLACK
6
CONTINUOUS
10
-0.048648031496063
20
-0.7895808267716535
11
-0.0545488188976378
21
-0.7814590551181102
0
LINE
8
BLACK
6
CONTINUOUS
10
-0.0545488188976378
20
-0.7814590551181102
11
-0.0591064566929134
21
-0.7725142125984252
0
LINE
8
BLACK
6
CONTINUOUS
10
-0.0591064566929134
20
-0.7725142125984252
11
-0.0622087007874016
21
-0.7629664960629922
0
LINE
8
BLACK
6
CONTINUOUS
10
-0.0622087007874016
20
-0.7629664960629922
11
-0.0637791732283465
21
-0.7530510236220472
0
LINE
8
BLACK
6
CONTINUOUS
10
-0.0637791732283465
20
-0.7530510236220472
11
-0.0637791732283465
21
-0.7431513779527559
0
LINE
8
BLACK
6
CONTINUOUS
10
-0.0637791732283465
20
-0.7431513779527559
11
-0.0637791732283465
21
-0.743011968503937
0
LINE
8
BLACK
6
CONTINUOUS
10
-0.0637791732283465
20
-0.743011968503937
11
-0.0622087007874016
21
-0.7330964960629921
0
LINE
8
BLACK
6
CONTINUOUS
10
-0.0622087007874016
20
-0.7330964960629921
11
-0.0591064566929134
21
-0.723548779527559
0
LINE
8
BLACK
6
CONTINUOUS
10
-0.0591064566929134
20
-0.723548779527559
11
-0.0545488188976378
21
-0.7146039370078739
0
LINE
8
BLACK
6
CONTINUOUS
10
-0.0545488188976378
20
-0.7146039370078739
11
-0.048648031496063
21
-0.7064821653543307
0
LINE
8
BLACK
6
CONTINUOUS
10
-0.048648031496063
20
-0.7064821653543307
11
-0.0415493307086614
21
-0.6993834645669291
0
LINE
8
BLACK
6
CONTINUOUS
10
-0.0415493307086614
20
-0.6993834645669291
11
-0.0334275590551181
21
-0.6934826771653543
0
LINE
8
BLACK
6
CONTINUOUS
10
-0.0334275590551181
20
-0.6934826771653543
11
-0.0244827165354331
21
-0.6889250393700788
0
LINE
8
BLACK
6
CONTINUOUS
10
-0.0244827165354331
20
-0.6889250393700788
11
-0.014935
21
-0.6858227952755905
0
LINE
8
BLACK
6
CONTINUOUS
10
-0.014935
20
-0.6858227952755905
11
-0.0050195275590551
21
-0.6842523228346457
0
LINE
8
BLACK
6
CONTINUOUS
10
-0.0050195275590551
20
-0.6842523228346457
11
0.0050195275590551
21
-0.6842523228346457
0
LINE
8
BLACK
6
CONTINUOUS
10
0.0050195275590551
20
-0.6842523228346457
11
0.014935
21
-0.6858227952755905
0
LINE
8
BLACK
6
CONTINUOUS
10
-0.062007874015748
20
-0.7529116141732284
11
-0.0604810236220472
21
-0.7625516929133858
0
LINE
8
BLACK
6
CONTINUOUS
10
-0.0604810236220472
20
-0.7625516929133858
11
-0.0574649606299213
21
-0.771834251968504
0
LINE
8
BLACK
6
CONTINUOUS
10
-0.0574649606299213
20
-0.771834251968504
11
-0.0530338976377953
21
-0.7805307086614173
0
LINE
8
BLACK
6
CONTINUOUS
10
-0.0530338976377953
20
-0.7805307086614173
11
-0.047296968503937
21
-0.7884268897637795
0
LINE
8
BLACK
6
CONTINUOUS
10
-0.047296968503937
20
-0.7884268897637795
11
-0.0403953937007874
21
-0.7953284645669291
0
LINE
8
BLACK
6
CONTINUOUS
10
-0.0403953937007874
20
-0.7953284645669291
11
-0.0324992125984252
21
-0.8010653937007873
0
LINE
8
BLACK
6
CONTINUOUS
10
-0.0324992125984252
20
-0.8010653937007873
11
-0.0238027559055118
21
-0.8054964566929134
0
LINE
8
BLACK
6
CONTINUOUS
10
-0.0238027559055118
20
-0.8054964566929134
11
-0.0145201968503937
21
-0.8085125196850393
0
LINE
8
BLACK
6
CONTINUOUS
10
-0.0145201968503937
20
-0.8085125196850393
11
-0.0048801181102362
21
-0.8100393700787402
0
LINE
8
BLACK
6
CONTINUOUS
10
-0.0048801181102362
20
-0.8100393700787402
11
0.0048801181102362
21
-0.8100393700787402
0
LINE
8
BLACK
6
CONTINUOUS
10
0.0048801181102362
20
-0.8100393700787402
11
0.0145201968503937
21
-0.8085125196850393
0
LINE
8
BLACK
6
CONTINUOUS
10
0.0145201968503937
20
-0.8085125196850393
11
0.0238027559055118
21
-0.8054964566929134
0
LINE
8
BLACK
6
CONTINUOUS
10
0.0238027559055118
20
-0.8054964566929134
11
0.0324992125984252
21
-0.8010653937007873
0
LINE
8
BLACK
6
CONTINUOUS
10
0.0324992125984252
20
-0.8010653937007873
11
0.0403953937007874
21
-0.7953284645669291
0
LINE
8
BLACK
6
CONTINUOUS
10
0.0403953937007874
20
-0.7953284645669291
11
0.047296968503937
21
-0.7884268897637795
0
LINE
8
BLACK
6
CONTINUOUS
10
0.047296968503937
20
-0.7884268897637795
11
0.0530338976377953
21
-0.7805307086614173
0
LINE
8
BLACK
6
CONTINUOUS
10
0.0530338976377953
20
-0.7805307086614173
11
0.0574649606299213
21
-0.771834251968504
0
LINE
8
BLACK
6
CONTINUOUS
10
0.0574649606299213
20
-0.771834251968504
11
0.0604810236220472
21
-0.7625516929133858
0
LINE
8
BLACK
6
CONTINUOUS
10
0.0604810236220472
20
-0.7625516929133858
11
0.062007874015748
21
-0.7529116141732284
0
LINE
8
BLACK
6
CONTINUOUS
10
0.062007874015748
20
-0.7529116141732284
11
0.062007874015748
21
-0.7431513779527559
0
LINE
8
BLACK
6
CONTINUOUS
10
0.062007874015748
20
-0.7431513779527559
11
0.0604810236220472
21
-0.7335112992125984
0
LINE
8
BLACK
6
CONTINUOUS
10
0.0604810236220472
20
-0.7335112992125984
11
0.0574649606299213
21
-0.7242287401574803
0
LINE
8
BLACK
6
CONTINUOUS
10
0.0574649606299213
20
-0.7242287401574803
11
0.0530338976377953
21
-0.7155322834645669
0
LINE
8
BLACK
6
CONTINUOUS
10
0.0530338976377953
20
-0.7155322834645669
11
0.047296968503937
21
-0.7076361023622048
0
LINE
8
BLACK
6
CONTINUOUS
10
0.047296968503937
20
-0.7076361023622048
11
0.0403953937007874
21
-0.7007345275590551
0
LINE
8
BLACK
6
CONTINUOUS
10
0.0403953937007874
20
-0.7007345275590551
11
0.0324992125984252
21
-0.6949975984251968
0
LINE
8
BLACK
6
CONTINUOUS
10
0.0324992125984252
20
-0.6949975984251968
11
0.0238027559055118
21
-0.6905665354330709
0
LINE
8
BLACK
6
CONTINUOUS
10
0.0238027559055118
20
-0.6905665354330709
11
0.0145201968503937
21
-0.6875504724409449
0
LINE
8
BLACK
6
CONTINUOUS
10
0.0145201968503937
20
-0.6875504724409449
11
0.0048801181102362
21
-0.6860236220472441
0
LINE
8
BLACK
6
CONTINUOUS
10
0.0048801181102362
20
-0.6860236220472441
11
-0.0048801181102362
21
-0.6860236220472441
0
LINE
8
BLACK
6
CONTINUOUS
10
-0.0048801181102362
20
-0.6860236220472441
11
-0.0145201968503937
21
-0.6875504724409449
0
LINE
8
BLACK
6
CONTINUOUS
10
-0.0145201968503937
20
-0.6875504724409449
11
-0.0238027559055118
21
-0.6905665354330709
0
LINE
8
BLACK
6
CONTINUOUS
10
-0.0238027559055118
20
-0.6905665354330709
11
-0.0324992125984252
21
-0.6949975984251968
0
LINE
8
BLACK
6
CONTINUOUS
10
-0.0324992125984252
20
-0.6949975984251968
11
-0.0403953937007874
21
-0.7007345275590551
0
LINE
8
BLACK
6
CONTINUOUS
10
-0.0403953937007874
20
-0.7007345275590551
11
-0.047296968503937
21
-0.7076361023622048
0
LINE
8
BLACK
6
CONTINUOUS
10
-0.047296968503937
20
-0.7076361023622048
11
-0.0530338976377953
21
-0.7155322834645669
0
LINE
8
BLACK
6
CONTINUOUS
10
-0.0530338976377953
20
-0.7155322834645669
11
-0.0574649606299213
21
-0.7242287401574803
0
LINE
8
BLACK
6
CONTINUOUS
10
-0.0574649606299213
20
-0.7242287401574803
11
-0.0604810236220472
21
-0.7335112992125984
0
LINE
8
BLACK
6
CONTINUOUS
10
-0.0604810236220472
20
-0.7335112992125984
11
-0.062007874015748
21
-0.7431513779527559
0
LINE
8
BLACK
6
CONTINUOUS
10
-0.062007874015748
20
-0.7431513779527559
11
-0.062007874015748
21
-0.7529116141732284
0
LINE
8
BLACK
6
CONTINUOUS
10
0.043516062992126
20
0.5899326377952756
11
0.0724102362204724
21
0.587086811023622
0
LINE
8
BLACK
6
CONTINUOUS
10
0.0724102362204724
20
0.587086811023622
11
0.10113
21
0.5828266535433071
0
LINE
8
BLACK
6
CONTINUOUS
10
0.10113
20
0.5828266535433071
11
0.1296061417322835
21
0.5771624015748031
0
LINE
8
BLACK
6
CONTINUOUS
10
0.1296061417322835
20
0.5771624015748031
11
0.1577700393700787
21
0.5701076771653543
0
LINE
8
BLACK
6
CONTINUOUS
10
0.1577700393700787
20
0.5701076771653543
11
0.1855538582677165
21
0.5616795669291339
0
LINE
8
BLACK
6
CONTINUOUS
10
0.1855538582677165
20
0.5616795669291339
11
0.2128906692913386
21
0.5518983070866141
0
LINE
8
BLACK
6
CONTINUOUS
10
0.2128906692913386
20
0.5518983070866141
11
0.2397146062992126
21
0.5407874803149606
0
LINE
8
BLACK
6
CONTINUOUS
10
0.2397146062992126
20
0.5407874803149606
11
0.2659610236220473
21
0.5283738188976378
0
LINE
8
BLACK
6
CONTINUOUS
10
0.2659610236220473
20
0.5283738188976378
11
0.2915667322834646
21
0.5146872834645669
0
LINE
8
BLACK
6
CONTINUOUS
10
0.2915667322834646
20
0.5146872834645669
11
0.3164700393700787
21
0.4997608267716535
0
LINE
8
BLACK
6
CONTINUOUS
10
0.3164700393700787
20
0.4997608267716535
11
0.3406109448818898
21
0.4836303937007874
0
LINE
8
BLACK
6
CONTINUOUS
10
0.3406109448818898
20
0.4836303937007874
11
0.3639312992125984
21
0.466334842519685
0
LINE
8
BLACK
6
CONTINUOUS
10
0.3639312992125984
20
0.466334842519685
11
0.3863748818897638
21
0.4479158661417323
0
LINE
8
BLACK
6
CONTINUOUS
10
0.3863748818897638
20
0.4479158661417323
11
0.4078876771653543
21
0.4284177952755905
0
LINE
8
BLACK
6
CONTINUOUS
10
0.4078876771653543
20
0.4284177952755905
11
0.4284177952755905
21
0.4078876771653543
0
LINE
8
BLACK
6
CONTINUOUS
10
0.4284177952755905
20
0.4078876771653543
11
0.4479158661417323
21
0.3863748818897638
0
LINE
8
BLACK
6
CONTINUOUS
10
0.4479158661417323
20
0.3863748818897638
11
0.466334842519685
21
0.3639312992125984
0
LINE
8
BLACK
6
CONTINUOUS
10
0.466334842519685
20
0.3639312992125984
11
0.4836303937007874
21
0.3406109448818898
0
LINE
8
BLACK
6
CONTINUOUS
10
0.4836303937007874
20
0.3406109448818898
11
0.4997608267716535
21
0.3164700393700787
0
LINE
8
BLACK
6
CONTINUOUS
10
0.4997608267716535
20
0.3164700393700787
11
0.5146872834645669
21
0.2915667322834646
0
LINE
8
BLACK
6
CONTINUOUS
10
0.5146872834645669
20
0.2915667322834646
11
0.5283738188976378
21
0.2659610236220473
0
LINE
8
BLACK
6
CONTINUOUS
10
0.5283738188976378
20
0.2659610236220473
11
0.5407874803149606
21
0.2397146062992126
0
LINE
8
BLACK
6
CONTINUOUS
10
0.5407874803149606
20
0.2397146062992126
11
0.5518983070866141
21
0.2128906692913386
0
LINE
8
BLACK
6
CONTINUOUS
10
0.5518983070866141
20
0.2128906692913386
11
0.5616795669291339
21
0.1855538582677165
0
LINE
8
BLACK
6
CONTINUOUS
10
0.5616795669291339
20
0.1855538582677165
11
0.5701076771653543
21
0.1577700393700787
0
LINE
8
BLACK
6
CONTINUOUS
10
0.5701076771653543
20
0.1577700393700787
11
0.5771624015748031
21
0.1296061417322835
0
LINE
8
BLACK
6
CONTINUOUS
10
0.5771624015748031
20
0.1296061417322835
11
0.5828266535433071
21
0.10113
0
LINE
8
BLACK
6
CONTINUOUS
10
0.5828266535433071
20
0.10113
11
0.587086811023622
21
0.0724102362204724
0
LINE
8
BLACK
6
CONTINUOUS
10
0.587086811023622
20
0.0724102362204724
11
0.5899326377952756
21
0.043516062992126
0
LINE
8
BLACK
6
CONTINUOUS
10
0.5899326377952756
20
0.043516062992126
11
0.591357283464567
21
0.0145170078740157
0
LINE
8
BLACK
6
CONTINUOUS
10
0.591357283464567
20
0.0145170078740157
11
0.591357283464567
21
-0.0145170078740157
0
LINE
8
BLACK
6
CONTINUOUS
10
0.591357283464567
20
-0.0145170078740157
11
0.5899326377952756
21
-0.043516062992126
0
LINE
8
BLACK
6
CONTINUOUS
10
0.5899326377952756
20
-0.043516062992126
11
0.587086811023622
21
-0.0724102362204724
0
LINE
8
BLACK
6
CONTINUOUS
10
0.587086811023622
20
-0.0724102362204724
11
0.5828266535433071
21
-0.10113
0
LINE
8
BLACK
6
CONTINUOUS
10
0.5828266535433071
20
-0.10113
11
0.5771624015748031
21
-0.1296061417322835
0
LINE
8
BLACK
6
CONTINUOUS
10
0.5771624015748031
20
-0.1296061417322835
11
0.5701076771653543
21
-0.1577700393700787
0
LINE
8
BLACK
6
CONTINUOUS
10
0.5701076771653543
20
-0.1577700393700787
11
0.5616795669291339
21
-0.1855538582677165
0
LINE
8
BLACK
6
CONTINUOUS
10
0.5616795669291339
20
-0.1855538582677165
11
0.5518983070866141
21
-0.2128906692913386
0
LINE
8
BLACK
6
CONTINUOUS
10
0.5518983070866141
20
-0.2128906692913386
11
0.5407874803149606
21
-0.2397146062992126
0
LINE
8
BLACK
6
CONTINUOUS
10
0.5407874803149606
20
-0.2397146062992126
11
0.5283738188976378
21
-0.2659610236220473
0
LINE
8
BLACK
6
CONTINUOUS
10
0.5283738188976378
20
-0.2659610236220473
11
0.5146872834645669
21
-0.2915667322834646
0
LINE
8
BLACK
6
CONTINUOUS
10
0.5146872834645669
20
-0.2915667322834646
11
0.4997608267716535
21
-0.3164700393700787
0
LINE
8
BLACK
6
CONTINUOUS
10
0.4997608267716535
20
-0.3164700393700787
11
0.4836303937007874
21
-0.3406109448818898
0
LINE
8
BLACK
6
CONTINUOUS
10
0.4836303937007874
20
-0.3406109448818898
11
0.466334842519685
21
-0.3639312992125984
0
LINE
8
BLACK
6
CONTINUOUS
10
0.466334842519685
20
-0.3639312992125984
11
0.4479158661417323
21
-0.3863748818897638
0
LINE
8
BLACK
6
CONTINUOUS
10
0.4479158661417323
20
-0.3863748818897638
11
0.4284177952755905
21
-0.4078876771653543
0
LINE
8
BLACK
6
CONTINUOUS
10
0.4284177952755905
20
-0.4078876771653543
11
0.4078876771653543
21
-0.4284177952755905
0
LINE
8
BLACK
6
CONTINUOUS
10
0.4078876771653543
20
-0.4284177952755905
11
0.3863748818897638
21
-0.4479158661417323
0
LINE
8
BLACK
6
CONTINUOUS
10
0.3863748818897638
20
-0.4479158661417323
11
0.3639312992125984
21
-0.466334842519685
0
LINE
8
BLACK
6
CONTINUOUS
10
0.3639312992125984
20
-0.466334842519685
11
0.3406109448818898
21
-0.4836303937007874
0
LINE
8
BLACK
6
CONTINUOUS
10
0.3406109448818898
20
-0.4836303937007874
11
0.3164700393700787
21
-0.4997608267716535
0
LINE
8
BLACK
6
CONTINUOUS
10
0.3164700393700787
20
-0.4997608267716535
11
0.2915667322834646
21
-0.5146872834645669
0
LINE
8
BLACK
6
CONTINUOUS
10
0.2915667322834646
20
-0.5146872834645669
11
0.2659610236220473
21
-0.5283738188976378
0
LINE
8
BLACK
6
CONTINUOUS
10
0.2659610236220473
20
-0.5283738188976378
11
0.2397146062992126
21
-0.5407874803149606
0
LINE
8
BLACK
6
CONTINUOUS
10
0.2397146062992126
20
-0.5407874803149606
11
0.2128906692913386
21
-0.5518983070866141
0
LINE
8
BLACK
6
CONTINUOUS
10
0.2128906692913386
20
-0.5518983070866141
11
0.1855538582677165
21
-0.5616795669291339
0
LINE
8
BLACK
6
CONTINUOUS
10
0.1855538582677165
20
-0.5616795669291339
11
0.1577700393700787
21
-0.5701076771653543
0
LINE
8
BLACK
6
CONTINUOUS
10
0.1577700393700787
20
-0.5701076771653543
11
0.1296061417322835
21
-0.5771624015748031
0
LINE
8
BLACK
6
CONTINUOUS
10
0.1296061417322835
20
-0.5771624015748031
11
0.10113
21
-0.5828266535433071
0
LINE
8
BLACK
6
CONTINUOUS
10
0.10113
20
-0.5828266535433071
11
0.0724102362204724
21
-0.587086811023622
0
LINE
8
BLACK
6
CONTINUOUS
10
0.0724102362204724
20
-0.587086811023622
11
0.043516062992126
21
-0.5899326377952756
0
LINE
8
BLACK
6
CONTINUOUS
10
0.043516062992126
20
-0.5899326377952756
11
0.0145170078740157
21
-0.591357283464567
0
LINE
8
BLACK
6
CONTINUOUS
10
0.0145170078740157
20
-0.591357283464567
11
-0.0145170078740157
21
-0.591357283464567
0
LINE
8
BLACK
6
CONTINUOUS
10
-0.0145170078740157
20
-0.591357283464567
11
-0.043516062992126
21
-0.5899326377952756
0
LINE
8
BLACK
6
CONTINUOUS
10
-0.043516062992126
20
-0.5899326377952756
11
-0.0724102362204724
21
-0.587086811023622
0
LINE
8
BLACK
6
CONTINUOUS
10
-0.0724102362204724
20
-0.587086811023622
11
-0.10113
21
-0.5828266535433071
0
LINE
8
BLACK
6
CONTINUOUS
10
-0.10113
20
-0.5828266535433071
11
-0.1296061417322835
21
-0.5771624015748031
0
LINE
8
BLACK
6
CONTINUOUS
10
-0.1296061417322835
20
-0.5771624015748031
11
-0.1577700393700787
21
-0.5701076771653543
0
LINE
8
BLACK
6
CONTINUOUS
10
-0.1577700393700787
20
-0.5701076771653543
11
-0.1855538582677165
21
-0.5616795669291339
0
LINE
8
BLACK
6
CONTINUOUS
10
-0.1855538582677165
20
-0.5616795669291339
11
-0.2128906692913386
21
-0.5518983070866141
0
LINE
8
BLACK
6
CONTINUOUS
10
-0.2128906692913386
20
-0.5518983070866141
11
-0.2397146062992126
21
-0.5407874803149606
0
LINE
8
BLACK
6
CONTINUOUS
10
-0.2397146062992126
20
-0.5407874803149606
11
-0.2659610236220473
21
-0.5283738188976378
0
LINE
8
BLACK
6
CONTINUOUS
10
-0.2659610236220473
20
-0.5283738188976378
11
-0.2915667322834646
21
-0.5146872834645669
0
LINE
8
BLACK
6
CONTINUOUS
10
-0.2915667322834646
20
-0.5146872834645669
11
-0.3164700393700787
21
-0.4997608267716535
0
LINE
8
BLACK
6
CONTINUOUS
10
-0.3164700393700787
20
-0.4997608267716535
11
-0.3406109448818898
21
-0.4836303937007874
0
LINE
8
BLACK
6
CONTINUOUS
10
-0.3406109448818898
20
-0.4836303937007874
11
-0.3639312992125984
21
-0.466334842519685
0
LINE
8
BLACK
6
CONTINUOUS
10
-0.3639312992125984
20
-0.466334842519685
11
-0.3863748818897638
21
-0.4479158661417323
0
LINE
8
BLACK
6
CONTINUOUS
10
-0.3863748818897638
20
-0.4479158661417323
11
-0.4078876771653543
21
-0.4284177952755905
0
LINE
8
BLACK
6
CONTINUOUS
10
-0.4078876771653543
20
-0.4284177952755905
11
-0.4284177952755905
21
-0.4078876771653543
0
LINE
8
BLACK
6
CONTINUOUS
10
-0.4284177952755905
20
-0.4078876771653543
11
-0.4479158661417323
21
-0.3863748818897638
0
LINE
8
BLACK
6
CONTINUOUS
10
-0.4479158661417323
20
-0.3863748818897638
11
-0.466334842519685
21
-0.3639312992125984
0
LINE
8
BLACK
6
CONTINUOUS
10
-0.466334842519685
20
-0.3639312992125984
11
-0.4836303937007874
21
-0.3406109448818898
0
LINE
8
BLACK
6
CONTINUOUS
10
-0.4836303937007874
20
-0.3406109448818898
11
-0.4997608267716535
21
-0.3164700393700787
0
LINE
8
BLACK
6
CONTINUOUS
10
-0.4997608267716535
20
-0.3164700393700787
11
-0.5146872834645669
21
-0.2915667322834646
0
LINE
8
BLACK
6
CONTINUOUS
10
-0.5146872834645669
20
-0.2915667322834646
11
-0.5283738188976378
21
-0.2659610236220473
0
LINE
8
BLACK
6
CONTINUOUS
10
-0.5283738188976378
20
-0.2659610236220473
11
-0.5407874803149606
21
-0.2397146062992126
0
LINE
8
BLACK
6
CONTINUOUS
10
-0.5407874803149606
20
-0.2397146062992126
11
-0.5518983070866141
21
-0.2128906692913386
0
LINE
8
BLACK
6
CONTINUOUS
10
-0.5518983070866141
20
-0.2128906692913386
11
-0.5616795669291339
21
-0.1855538582677165
0
LINE
8
BLACK
6
CONTINUOUS
10
-0.5616795669291339
20
-0.1855538582677165
11
-0.5701076771653543
21
-0.1577700393700787
0
LINE
8
BLACK
6
CONTINUOUS
10
-0.5701076771653543
20
-0.1577700393700787
11
-0.5771624015748031
21
-0.1296061417322835
0
LINE
8
BLACK
6
CONTINUOUS
10
-0.5771624015748031
20
-0.1296061417322835
11
-0.5828266535433071
21
-0.10113
0
LINE
8
BLACK
6
CONTINUOUS
10
-0.5828266535433071
20
-0.10113
11
-0.587086811023622
21
-0.0724102362204724
0
LINE
8
BLACK
6
CONTINUOUS
10
-0.587086811023622
20
-0.0724102362204724
11
-0.5899326377952756
21
-0.043516062992126
0
LINE
8
BLACK
6
CONTINUOUS
10
-0.5899326377952756
20
-0.043516062992126
11
-0.591357283464567
21
-0.0145170078740157
0
LINE
8
BLACK
6
CONTINUOUS
10
-0.591357283464567
20
-0.0145170078740157
11
-0.591357283464567
21
0.0144730708661417
0
LINE
8
BLACK
6
CONTINUOUS
10
-0.591357283464567
20
0.0144730708661417
11
-0.591357283464567
21
0.0145170078740157
0
LINE
8
BLACK
6
CONTINUOUS
10
-0.591357283464567
20
0.0145170078740157
11
-0.5899326377952756
21
0.043516062992126
0
LINE
8
BLACK
6
CONTINUOUS
10
-0.5899326377952756
20
0.043516062992126
11
-0.587086811023622
21
0.0724102362204724
0
LINE
8
BLACK
6
CONTINUOUS
10
-0.587086811023622
20
0.0724102362204724
11
-0.5828266535433071
21
0.10113
0
LINE
8
BLACK
6
CONTINUOUS
10
-0.5828266535433071
20
0.10113
11
-0.5771624015748031
21
0.1296061417322835
0
LINE
8
BLACK
6
CONTINUOUS
10
-0.5771624015748031
20
0.1296061417322835
11
-0.5701076771653543
21
0.1577700393700787
0
LINE
8
BLACK
6
CONTINUOUS
10
-0.5701076771653543
20
0.1577700393700787
11
-0.5616795669291339
21
0.1855538582677165
0
LINE
8
BLACK
6
CONTINUOUS
10
-0.5616795669291339
20
0.1855538582677165
11
-0.5518983070866141
21
0.2128906692913386
0
LINE
8
BLACK
6
CONTINUOUS
10
-0.5518983070866141
20
0.2128906692913386
11
-0.5407874803149606
21
0.2397146062992126
0
LINE
8
BLACK
6
CONTINUOUS
10
-0.5407874803149606
20
0.2397146062992126
11
-0.5283738188976378
21
0.2659610236220473
0
LINE
8
BLACK
6
CONTINUOUS
10
-0.5283738188976378
20
0.2659610236220473
11
-0.5146872834645669
21
0.2915667322834646
0
LINE
8
BLACK
6
CONTINUOUS
10
-0.5146872834645669
20
0.2915667322834646
11
-0.4997608267716535
21
0.3164700393700787
0
LINE
8
BLACK
6
CONTINUOUS
10
-0.4997608267716535
20
0.3164700393700787
11
-0.4836303937007874
21
0.3406109448818898
0
LINE
8
BLACK
6
CONTINUOUS
10
-0.4836303937007874
20
0.3406109448818898
11
-0.466334842519685
21
0.3639312992125984
0
LINE
8
BLACK
6
CONTINUOUS
10
-0.466334842519685
20
0.3639312992125984
11
-0.4479158661417323
21
0.3863748818897638
0
LINE
8
BLACK
6
CONTINUOUS
10
-0.4479158661417323
20
0.3863748818897638
11
-0.4284177952755905
21
0.4078876771653543
0
LINE
8
BLACK
6
CONTINUOUS
10
-0.4284177952755905
20
0.4078876771653543
11
-0.4078876771653543
21
0.4284177952755905
0
LINE
8
BLACK
6
CONTINUOUS
10
-0.4078876771653543
20
0.4284177952755905
11
-0.3863748818897638
21
0.4479158661417323
0
LINE
8
BLACK
6
CONTINUOUS
10
-0.3863748818897638
20
0.4479158661417323
11
-0.3639312992125984
21
0.466334842519685
0
LINE
8
BLACK
6
CONTINUOUS
10
-0.3639312992125984
20
0.466334842519685
11
-0.3406109448818898
21
0.4836303937007874
0
LINE
8
BLACK
6
CONTINUOUS
10
-0.3406109448818898
20
0.4836303937007874
11
-0.3164700393700787
21
0.4997608267716535
0
LINE
8
BLACK
6
CONTINUOUS
10
-0.3164700393700787
20
0.4997608267716535
11
-0.2915667322834646
21
0.5146872834645669
0
LINE
8
BLACK
6
CONTINUOUS
10
-0.2915667322834646
20
0.5146872834645669
11
-0.2659610236220473
21
0.5283738188976378
0
LINE
8
BLACK
6
CONTINUOUS
10
-0.2659610236220473
20
0.5283738188976378
11
-0.2397146062992126
21
0.5407874803149606
0
LINE
8
BLACK
6
CONTINUOUS
10
-0.2397146062992126
20
0.5407874803149606
11
-0.2128906692913386
21
0.5518983070866141
0
LINE
8
BLACK
6
CONTINUOUS
10
-0.2128906692913386
20
0.5518983070866141
11
-0.1855538582677165
21
0.5616795669291339
0
LINE
8
BLACK
6
CONTINUOUS
10
-0.1855538582677165
20
0.5616795669291339
11
-0.1577700393700787
21
0.5701076771653543
0
LINE
8
BLACK
6
CONTINUOUS
10
-0.1577700393700787
20
0.5701076771653543
11
-0.1296061417322835
21
0.5771624015748031
0
LINE
8
BLACK
6
CONTINUOUS
10
-0.1296061417322835
20
0.5771624015748031
11
-0.10113
21
0.5828266535433071
0
LINE
8
BLACK
6
CONTINUOUS
10
-0.10113
20
0.5828266535433071
11
-0.0724102362204724
21
0.587086811023622
0
LINE
8
BLACK
6
CONTINUOUS
10
-0.0724102362204724
20
0.587086811023622
11
-0.043516062992126
21
0.5899326377952756
0
LINE
8
BLACK
6
CONTINUOUS
10
-0.043516062992126
20
0.5899326377952756
11
-0.0145170078740157
21
0.591357283464567
0
LINE
8
BLACK
6
CONTINUOUS
10
-0.0145170078740157
20
0.591357283464567
11
0.0145170078740157
21
0.591357283464567
0
LINE
8
BLACK
6
CONTINUOUS
10
0.0145170078740157
20
0.591357283464567
11
0.043516062992126
21
0.5899326377952756
0
LINE
8
BLACK
6
CONTINUOUS
10
-0.5895669291338582
20
-0.0144730708661417
11
-0.5881466141732283
21
-0.0433842913385827
0
LINE
8
BLACK
6
CONTINUOUS
10
-0.5881466141732283
20
-0.0433842913385827
11
-0.5853094094488189
21
-0.0721910236220472
0
LINE
8
BLACK
6
CONTINUOUS
10
-0.5853094094488189
20
-0.0721910236220472
11
-0.581062125984252
21
-0.1008238582677165
0
LINE
8
BLACK
6
CONTINUOUS
10
-0.581062125984252
20
-0.1008238582677165
11
-0.5754150393700788
21
-0.1292137795275591
0
LINE
8
BLACK
6
CONTINUOUS
10
-0.5754150393700788
20
-0.1292137795275591
11
-0.5683816929133858
21
-0.1572924015748031
0
LINE
8
BLACK
6
CONTINUOUS
10
-0.5683816929133858
20
-0.1572924015748031
11
-0.5599790944881889
21
-0.1849920866141732
0
LINE
8
BLACK
6
CONTINUOUS
10
-0.5599790944881889
20
-0.1849920866141732
11
-0.5502274409448819
21
-0.2122461417322835
0
LINE
8
BLACK
6
CONTINUOUS
10
-0.5502274409448819
20
-0.2122461417322835
11
-0.5391502362204724
21
-0.2389888582677165
0
LINE
8
BLACK
6
CONTINUOUS
10
-0.5391502362204724
20
-0.2389888582677165
11
-0.5267741732283464
21
-0.2651558267716536
0
LINE
8
BLACK
6
CONTINUOUS
10
-0.5267741732283464
20
-0.2651558267716536
11
-0.513129094488189
21
-0.2906840157480315
0
LINE
8
BLACK
6
CONTINUOUS
10
-0.513129094488189
20
-0.2906840157480315
11
-0.4982477952755905
21
-0.3155119291338583
0
LINE
8
BLACK
6
CONTINUOUS
10
-0.4982477952755905
20
-0.3155119291338583
11
-0.482166220472441
21
-0.3395797637795275
0
LINE
8
BLACK
6
CONTINUOUS
10
-0.482166220472441
20
-0.3395797637795275
11
-0.464923031496063
21
-0.3628294881889764
0
LINE
8
BLACK
6
CONTINUOUS
10
-0.464923031496063
20
-0.3628294881889764
11
-0.4465598031496063
21
-0.3852051181102362
0
LINE
8
BLACK
6
CONTINUOUS
10
-0.4465598031496063
20
-0.3852051181102362
11
-0.4271207874015748
21
-0.4066527952755906
0
LINE
8
BLACK
6
CONTINUOUS
10
-0.4271207874015748
20
-0.4066527952755906
11
-0.4066527952755906
21
-0.4271207874015748
0
LINE
8
BLACK
6
CONTINUOUS
10
-0.4066527952755906
20
-0.4271207874015748
11
-0.3852051181102362
21
-0.4465598031496063
0
LINE
8
BLACK
6
CONTINUOUS
10
-0.3852051181102362
20
-0.4465598031496063
11
-0.3628294881889764
21
-0.464923031496063
0
LINE
8
BLACK
6
CONTINUOUS
10
-0.3628294881889764
20
-0.464923031496063
11
-0.3395797637795275
21
-0.482166220472441
0
LINE
8
BLACK
6
CONTINUOUS
10
-0.3395797637795275
20
-0.482166220472441
11
-0.3155119291338583
21
-0.4982477952755905
0
LINE
8
BLACK
6
CONTINUOUS
10
-0.3155119291338583
20
-0.4982477952755905
11
-0.2906840157480315
21
-0.513129094488189
0
LINE
8
BLACK
6
CONTINUOUS
10
-0.2906840157480315
20
-0.513129094488189
11
-0.2651558267716536
21
-0.5267741732283464
0
LINE
8
BLACK
6
CONTINUOUS
10
-0.2651558267716536
20
-0.5267741732283464
11
-0.2389888582677165
21
-0.5391502362204724
0
LINE
8
BLACK
6
CONTINUOUS
10
-0.2389888582677165
20
-0.5391502362204724
11
-0.2122461417322835
21
-0.5502274409448819
0
LINE
8
BLACK
6
CONTINUOUS
10
-0.2122461417322835
20
-0.5502274409448819
11
-0.1849920866141732
21
-0.5599790944881889
0
LINE
8
BLACK
6
CONTINUOUS
10
-0.1849920866141732
20
-0.5599790944881889
11
-0.1572924015748031
21
-0.5683816929133858
0
LINE
8
BLACK
6
CONTINUOUS
10
-0.1572924015748031
20
-0.5683816929133858
11
-0.1292137795275591
21
-0.5754150393700788
0
LINE
8
BLACK
6
CONTINUOUS
10
-0.1292137795275591
20
-0.5754150393700788
11
-0.1008238582677165
21
-0.581062125984252
0
LINE
8
BLACK
6
CONTINUOUS
10
-0.1008238582677165
20
-0.581062125984252
11
-0.0721910236220472
21
-0.5853094094488189
0
LINE
8
BLACK
6
CONTINUOUS
10
-0.0721910236220472
20
-0.5853094094488189
11
-0.0433842913385827
21
-0.5881466141732283
0
LINE
8
BLACK
6
CONTINUOUS
10
-0.0433842913385827
20
-0.5881466141732283
11
-0.0144730708661417
21
-0.5895669291338582
0
LINE
8
BLACK
6
CONTINUOUS
10
-0.0144730708661417
20
-0.5895669291338582
11
0.0144730708661417
21
-0.5895669291338582
0
LINE
8
BLACK
6
CONTINUOUS
10
0.0144730708661417
20
-0.5895669291338582
11
0.0433842913385827
21
-0.5881466141732283
0
LINE
8
BLACK
6
CONTINUOUS
10
0.0433842913385827
20
-0.5881466141732283
11
0.0721910236220472
21
-0.5853094094488189
0
LINE
8
BLACK
6
CONTINUOUS
10
0.0721910236220472
20
-0.5853094094488189
11
0.1008238582677165
21
-0.581062125984252
0
LINE
8
BLACK
6
CONTINUOUS
10
0.1008238582677165
20
-0.581062125984252
11
0.1292137795275591
21
-0.5754150393700788
0
LINE
8
BLACK
6
CONTINUOUS
10
0.1292137795275591
20
-0.5754150393700788
11
0.1572924015748031
21
-0.5683816929133858
0
LINE
8
BLACK
6
CONTINUOUS
10
0.1572924015748031
20
-0.5683816929133858
11
0.1849920866141732
21
-0.5599790944881889
0
LINE
8
BLACK
6
CONTINUOUS
10
0.1849920866141732
20
-0.5599790944881889
11
0.2122461417322835
21
-0.5502274409448819
0
LINE
8
BLACK
6
CONTINUOUS
10
0.2122461417322835
20
-0.5502274409448819
11
0.2389888582677165
21
-0.5391502362204724
0
LINE
8
BLACK
6
CONTINUOUS
10
0.2389888582677165
20
-0.5391502362204724
11
0.2651558267716536
21
-0.5267741732283464
0
LINE
8
BLACK
6
CONTINUOUS
10
0.2651558267716536
20
-0.5267741732283464
11
0.2906840157480315
21
-0.513129094488189
0
LINE
8
BLACK
6
CONTINUOUS
10
0.2906840157480315
20
-0.513129094488189
11
0.3155119291338583
21
-0.4982477952755905
0
LINE
8
BLACK
6
CONTINUOUS
10
0.3155119291338583
20
-0.4982477952755905
11
0.3395797637795275
21
-0.482166220472441
0
LINE
8
BLACK
6
CONTINUOUS
10
0.3395797637795275
20
-0.482166220472441
11
0.3628294881889764
21
-0.464923031496063
0
LINE
8
BLACK
6
CONTINUOUS
10
0.3628294881889764
20
-0.464923031496063
11
0.3852051181102362
21
-0.4465598031496063
0
LINE
8
BLACK
6
CONTINUOUS
10
0.3852051181102362
20
-0.4465598031496063
11
0.4066527952755906
21
-0.4271207874015748
0
LINE
8
BLACK
6
CONTINUOUS
10
0.4066527952755906
20
-0.4271207874015748
11
0.4271207874015748
21
-0.4066527952755906
0
LINE
8
BLACK
6
CONTINUOUS
10
0.4271207874015748
20
-0.4066527952755906
11
0.4465598031496063
21
-0.3852051181102362
0
LINE
8
BLACK
6
CONTINUOUS
10
0.4465598031496063
20
-0.3852051181102362
11
0.464923031496063
21
-0.3628294881889764
0
LINE
8
BLACK
6
CONTINUOUS
10
0.464923031496063
20
-0.3628294881889764
11
0.482166220472441
21
-0.3395797637795275
0
LINE
8
BLACK
6
CONTINUOUS
10
0.482166220472441
20
-0.3395797637795275
11
0.4982477952755905
21
-0.3155119291338583
0
LINE
8
BLACK
6
CONTINUOUS
10
0.4982477952755905
20
-0.3155119291338583
11
0.513129094488189
21
-0.2906840157480315
0
LINE
8
BLACK
6
CONTINUOUS
10
0.513129094488189
20
-0.2906840157480315
11
0.5267741732283464
21
-0.2651558267716536
0
LINE
8
BLACK
6
CONTINUOUS
10
0.5267741732283464
20
-0.2651558267716536
11
0.5391502362204724
21
-0.2389888582677165
0
LINE
8
BLACK
6
CONTINUOUS
10
0.5391502362204724
20
-0.2389888582677165
11
0.5502274409448819
21
-0.2122461417322835
0
LINE
8
BLACK
6
CONTINUOUS
10
0.5502274409448819
20
-0.2122461417322835
11
0.5599790944881889
21
-0.1849920866141732
0
LINE
8
BLACK
6
CONTINUOUS
10
0.5599790944881889
20
-0.1849920866141732
11
0.5683816929133858
21
-0.1572924015748031
0
LINE
8
BLACK
6
CONTINUOUS
10
0.5683816929133858
20
-0.1572924015748031
11
0.5754150393700788
21
-0.1292137795275591
0
LINE
8
BLACK
6
CONTINUOUS
10
0.5754150393700788
20
-0.1292137795275591
11
0.581062125984252
21
-0.1008238582677165
0
LINE
8
BLACK
6
CONTINUOUS
10
0.581062125984252
20
-0.1008238582677165
11
0.5853094094488189
21
-0.0721910236220472
0
LINE
8
BLACK
6
CONTINUOUS
10
0.5853094094488189
20
-0.0721910236220472
11
0.5881466141732283
21
-0.0433842913385827
0
LINE
8
BLACK
6
CONTINUOUS
10
0.5881466141732283
20
-0.0433842913385827
11
0.5895669291338582
21
-0.0144730708661417
0
LINE
8
BLACK
6
CONTINUOUS
10
0.5895669291338582
20
-0.0144730708661417
11
0.5895669291338582
21
0.0144730708661417
0
LINE
8
BLACK
6
CONTINUOUS
10
0.5895669291338582
20
0.0144730708661417
11
0.5881466141732283
21
0.0433842913385827
0
LINE
8
BLACK
6
CONTINUOUS
10
0.5881466141732283
20
0.0433842913385827
11
0.5853094094488189
21
0.0721910236220472
0
LINE
8
BLACK
6
CONTINUOUS
10
0.5853094094488189
20
0.0721910236220472
11
0.581062125984252
21
0.1008238582677165
0
LINE
8
BLACK
6
CONTINUOUS
10
0.581062125984252
20
0.1008238582677165
11
0.5754150393700788
21
0.1292137795275591
0
LINE
8
BLACK
6
CONTINUOUS
10
0.5754150393700788
20
0.1292137795275591
11
0.5683816929133858
21
0.1572924015748031
0
LINE
8
BLACK
6
CONTINUOUS
10
0.5683816929133858
20
0.1572924015748031
11
0.5599790944881889
21
0.1849920866141732
0
LINE
8
BLACK
6
CONTINUOUS
10
0.5599790944881889
20
0.1849920866141732
11
0.5502274409448819
21
0.2122461417322835
0
LINE
8
BLACK
6
CONTINUOUS
10
0.5502274409448819
20
0.2122461417322835
11
0.5391502362204724
21
0.2389888582677165
0
LINE
8
BLACK
6
CONTINUOUS
10
0.5391502362204724
20
0.2389888582677165
11
0.5267741732283464
21
0.2651558267716536
0
LINE
8
BLACK
6
CONTINUOUS
10
0.5267741732283464
20
0.2651558267716536
11
0.513129094488189
21
0.2906840157480315
0
LINE
8
BLACK
6
CONTINUOUS
10
0.513129094488189
20
0.2906840157480315
11
0.4982477952755905
21
0.3155119291338583
0
LINE
8
BLACK
6
CONTINUOUS
10
0.4982477952755905
20
0.3155119291338583
11
0.482166220472441
21
0.3395797637795275
0
LINE
8
BLACK
6
CONTINUOUS
10
0.482166220472441
20
0.3395797637795275
11
0.464923031496063
21
0.3628294881889764
0
LINE
8
BLACK
6
CONTINUOUS
10
0.464923031496063
20
0.3628294881889764
11
0.4465598031496063
21
0.3852051181102362
0
LINE
8
BLACK
6
CONTINUOUS
10
0.4465598031496063
20
0.3852051181102362
11
0.4271207874015748
21
0.4066527952755906
0
LINE
8
BLACK
6
CONTINUOUS
10
0.4271207874015748
20
0.4066527952755906
11
0.4066527952755906
21
0.4271207874015748
0
LINE
8
BLACK
6
CONTINUOUS
10
0.4066527952755906
20
0.4271207874015748
11
0.3852051181102362
21
0.4465598031496063
0
LINE
8
BLACK
6
CONTINUOUS
10
0.3852051181102362
20
0.4465598031496063
11
0.3628294881889764
21
0.464923031496063
0
LINE
8
BLACK
6
CONTINUOUS
10
0.3628294881889764
20
0.464923031496063
11
0.3395797637795275
21
0.482166220472441
0
LINE
8
BLACK
6
CONTINUOUS
10
0.3395797637795275
20
0.482166220472441
11
0.3155119291338583
21
0.4982477952755905
0
LINE
8
BLACK
6
CONTINUOUS
10
0.3155119291338583
20
0.4982477952755905
11
0.2906840157480315
21
0.513129094488189
0
LINE
8
BLACK
6
CONTINUOUS
10
0.2906840157480315
20
0.513129094488189
11
0.2651558267716536
21
0.5267741732283464
0
LINE
8
BLACK
6
CONTINUOUS
10
0.2651558267716536
20
0.5267741732283464
11
0.2389888582677165
21
0.5391502362204724
0
LINE
8
BLACK
6
CONTINUOUS
10
0.2389888582677165
20
0.5391502362204724
11
0.2122461417322835
21
0.5502274409448819
0
LINE
8
BLACK
6
CONTINUOUS
10
0.2122461417322835
20
0.5502274409448819
11
0.1849920866141732
21
0.5599790944881889
0
LINE
8
BLACK
6
CONTINUOUS
10
0.1849920866141732
20
0.5599790944881889
11
0.1572924015748031
21
0.5683816929133858
0
LINE
8
BLACK
6
CONTINUOUS
10
0.1572924015748031
20
0.5683816929133858
11
0.1292137795275591
21
0.5754150393700788
0
LINE
8
BLACK
6
CONTINUOUS
10
0.1292137795275591
20
0.5754150393700788
11
0.1008238582677165
21
0.581062125984252
0
LINE
8
BLACK
6
CONTINUOUS
10
0.1008238582677165
20
0.581062125984252
11
0.0721910236220472
21
0.5853094094488189
0
LINE
8
BLACK
6
CONTINUOUS
10
0.0721910236220472
20
0.5853094094488189
11
0.0433842913385827
21
0.5881466141732283
0
LINE
8
BLACK
6
CONTINUOUS
10
0.0433842913385827
20
0.5881466141732283
11
0.0144730708661417
21
0.5895669291338582
0
LINE
8
BLACK
6
CONTINUOUS
10
0.0144730708661417
20
0.5895669291338582
11
-0.0144730708661417
21
0.5895669291338582
0
LINE
8
BLACK
6
CONTINUOUS
10
-0.0144730708661417
20
0.5895669291338582
11
-0.0433842913385827
21
0.5881466141732283
0
LINE
8
BLACK
6
CONTINUOUS
10
-0.0433842913385827
20
0.5881466141732283
11
-0.0721910236220472
21
0.5853094094488189
0
LINE
8
BLACK
6
CONTINUOUS
10
-0.0721910236220472
20
0.5853094094488189
11
-0.1008238582677165
21
0.581062125984252
0
LINE
8
BLACK
6
CONTINUOUS
10
-0.1008238582677165
20
0.581062125984252
11
-0.1292137795275591
21
0.5754150393700788
0
LINE
8
BLACK
6
CONTINUOUS
10
-0.1292137795275591
20
0.5754150393700788
11
-0.1572924015748031
21
0.5683816929133858
0
LINE
8
BLACK
6
CONTINUOUS
10
-0.1572924015748031
20
0.5683816929133858
11
-0.1849920866141732
21
0.5599790944881889
0
LINE
8
BLACK
6
CONTINUOUS
10
-0.1849920866141732
20
0.5599790944881889
11
-0.2122461417322835
21
0.5502274409448819
0
LINE
8
BLACK
6
CONTINUOUS
10
-0.2122461417322835
20
0.5502274409448819
11
-0.2389888582677165
21
0.5391502362204724
0
LINE
8
BLACK
6
CONTINUOUS
10
-0.2389888582677165
20
0.5391502362204724
11
-0.2651558267716536
21
0.5267741732283464
0
LINE
8
BLACK
6
CONTINUOUS
10
-0.2651558267716536
20
0.5267741732283464
11
-0.2906840157480315
21
0.513129094488189
0
LINE
8
BLACK
6
CONTINUOUS
10
-0.2906840157480315
20
0.513129094488189
11
-0.3155119291338583
21
0.4982477952755905
0
LINE
8
BLACK
6
CONTINUOUS
10
-0.3155119291338583
20
0.4982477952755905
11
-0.3395797637795275
21
0.482166220472441
0
LINE
8
BLACK
6
CONTINUOUS
10
-0.3395797637795275
20
0.482166220472441
11
-0.3628294881889764
21
0.464923031496063
0
LINE
8
BLACK
6
CONTINUOUS
10
-0.3628294881889764
20
0.464923031496063
11
-0.3852051181102362
21
0.4465598031496063
0
LINE
8
BLACK
6
CONTINUOUS
10
-0.3852051181102362
20
0.4465598031496063
11
-0.4066527952755906
21
0.4271207874015748
0
LINE
8
BLACK
6
CONTINUOUS
10
-0.4066527952755906
20
0.4271207874015748
11
-0.4271207874015748
21
0.4066527952755906
0
LINE
8
BLACK
6
CONTINUOUS
10
-0.4271207874015748
20
0.4066527952755906
11
-0.4465598031496063
21
0.3852051181102362
0
LINE
8
BLACK
6
CONTINUOUS
10
-0.4465598031496063
20
0.3852051181102362
11
-0.464923031496063
21
0.3628294881889764
0
LINE
8
BLACK
6
CONTINUOUS
10
-0.464923031496063
20
0.3628294881889764
11
-0.482166220472441
21
0.3395797637795275
0
LINE
8
BLACK
6
CONTINUOUS
10
-0.482166220472441
20
0.3395797637795275
11
-0.4982477952755905
21
0.3155119291338583
0
LINE
8
BLACK
6
CONTINUOUS
10
-0.4982477952755905
20
0.3155119291338583
11
-0.513129094488189
21
0.2906840157480315
0
LINE
8
BLACK
6
CONTINUOUS
10
-0.513129094488189
20
0.2906840157480315
11
-0.5267741732283464
21
0.2651558267716536
0
LINE
8
BLACK
6
CONTINUOUS
10
-0.5267741732283464
20
0.2651558267716536
11
-0.5391502362204724
21
0.2389888582677165
0
LINE
8
BLACK
6
CONTINUOUS
10
-0.5391502362204724
20
0.2389888582677165
11
-0.5502274409448819
21
0.2122461417322835
0
LINE
8
BLACK
6
CONTINUOUS
10
-0.5502274409448819
20
0.2122461417322835
11
-0.5599790944881889
21
0.1849920866141732
0
LINE
8
BLACK
6
CONTINUOUS
10
-0.5599790944881889
20
0.1849920866141732
11
-0.5683816929133858
21
0.1572924015748031
0
LINE
8
BLACK
6
CONTINUOUS
10
-0.5683816929133858
20
0.1572924015748031
11
-0.5754150393700788
21
0.1292137795275591
0
LINE
8
BLACK
6
CONTINUOUS
10
-0.5754150393700788
20
0.1292137795275591
11
-0.581062125984252
21
0.1008238582677165
0
LINE
8
BLACK
6
CONTINUOUS
10
-0.581062125984252
20
0.1008238582677165
11
-0.5853094094488189
21
0.0721910236220472
0
LINE
8
BLACK
6
CONTINUOUS
10
-0.5853094094488189
20
0.0721910236220472
11
-0.5881466141732283
21
0.0433842913385827
0
LINE
8
BLACK
6
CONTINUOUS
10
-0.5881466141732283
20
0.0433842913385827
11
-0.5895669291338582
21
0.0144730708661417
0
LINE
8
BLACK
6
CONTINUOUS
10
-0.5895669291338582
20
0.0144730708661417
11
-0.5895669291338582
21
-0.0144730708661417
0
LINE
8
BLACK
6
CONTINUOUS
10
-0.6328792913385827
20
0.4362244488188976
11
-0.6233315748031496
21
0.4331222047244094
0
LINE
8
BLACK
6
CONTINUOUS
10
-0.6233315748031496
20
0.4331222047244094
11
-0.6143867322834645
21
0.4285645669291339
0
LINE
8
BLACK
6
CONTINUOUS
10
-0.6143867322834645
20
0.4285645669291339
11
-0.6062649606299213
21
0.4226637795275591
0
LINE
8
BLACK
6
CONTINUOUS
10
-0.6062649606299213
20
0.4226637795275591
11
-0.5991662598425197
21
0.4155650787401575
0
LINE
8
BLACK
6
CONTINUOUS
10
-0.5991662598425197
20
0.4155650787401575
11
-0.5932654724409449
21
0.4074433070866141
0
LINE
8
BLACK
6
CONTINUOUS
10
-0.5932654724409449
20
0.4074433070866141
11
-0.5887078346456692
21
0.3984984645669291
0
LINE
8
BLACK
6
CONTINUOUS
10
-0.5887078346456692
20
0.3984984645669291
11
-0.5856055905511811
21
0.388950748031496
0
LINE
8
BLACK
6
CONTINUOUS
10
-0.5856055905511811
20
0.388950748031496
11
-0.5840351181102362
21
0.3790352755905512
0
LINE
8
BLACK
6
CONTINUOUS
10
-0.5840351181102362
20
0.3790352755905512
11
-0.5840351181102362
21
0.368996220472441
0
LINE
8
BLACK
6
CONTINUOUS
10
-0.5840351181102362
20
0.368996220472441
11
-0.5856055905511811
21
0.359080748031496
0
LINE
8
BLACK
6
CONTINUOUS
10
-0.5856055905511811
20
0.359080748031496
11
-0.5887078346456692
21
0.349533031496063
0
LINE
8
BLACK
6
CONTINUOUS
10
-0.5887078346456692
20
0.349533031496063
11
-0.5932654724409449
21
0.3405881889763779
0
LINE
8
BLACK
6
CONTINUOUS
10
-0.5932654724409449
20
0.3405881889763779
11
-0.5991662598425197
21
0.3324664173228347
0
LINE
8
BLACK
6
CONTINUOUS
10
-0.5991662598425197
20
0.3324664173228347
11
-0.6062649606299213
21
0.3253677165354331
0
LINE
8
BLACK
6
CONTINUOUS
10
-0.6062649606299213
20
0.3253677165354331
11
-0.6143867322834645
21
0.3194669291338583
0
LINE
8
BLACK
6
CONTINUOUS
10
-0.6143867322834645
20
0.3194669291338583
11
-0.6233315748031496
21
0.3149092913385827
0
LINE
8
BLACK
6
CONTINUOUS
10
-0.6233315748031496
20
0.3149092913385827
11
-0.6328792913385827
21
0.3118070472440945
0
LINE
8
BLACK
6
CONTINUOUS
10
-0.6328792913385827
20
0.3118070472440945
11
-0.6427947637795275
21
0.3102365748031496
0
LINE
8
BLACK
6
CONTINUOUS
10
-0.6427947637795275
20
0.3102365748031496
11
-0.6528338188976378
21
0.3102365748031496
0
LINE
8
BLACK
6
CONTINUOUS
10
-0.6528338188976378
20
0.3102365748031496
11
-0.6627492913385826
21
0.3118070472440945
0
LINE
8
BLACK
6
CONTINUOUS
10
-0.6627492913385826
20
0.3118070472440945
11
-0.6722970078740157
21
0.3149092913385827
0
LINE
8
BLACK
6
CONTINUOUS
10
-0.6722970078740157
20
0.3149092913385827
11
-0.6812418503937008
21
0.3194669291338583
0
LINE
8
BLACK
6
CONTINUOUS
10
-0.6812418503937008
20
0.3194669291338583
11
-0.6893636220472441
21
0.3253677165354331
0
LINE
8
BLACK
6
CONTINUOUS
10
-0.6893636220472441
20
0.3253677165354331
11
-0.6964623228346457
21
0.3324664173228347
0
LINE
8
BLACK
6
CONTINUOUS
10
-0.6964623228346457
20
0.3324664173228347
11
-0.7023631102362204
21
0.3405881889763779
0
LINE
8
BLACK
6
CONTINUOUS
10
-0.7023631102362204
20
0.3405881889763779
11
-0.7069207480314961
21
0.349533031496063
0
LINE
8
BLACK
6
CONTINUOUS
10
-0.7069207480314961
20
0.349533031496063
11
-0.7100229921259842
21
0.359080748031496
0
LINE
8
BLACK
6
CONTINUOUS
10
-0.7100229921259842
20
0.359080748031496
11
-0.7115934645669291
21
0.368996220472441
0
LINE
8
BLACK
6
CONTINUOUS
10
-0.7115934645669291
20
0.368996220472441
11
-0.7115934645669291
21
0.3788958661417323
0
LINE
8
BLACK
6
CONTINUOUS
10
-0.7115934645669291
20
0.3788958661417323
11
-0.7115934645669291
21
0.3790352755905512
0
LINE
8
BLACK
6
CONTINUOUS
10
-0.7115934645669291
20
0.3790352755905512
11
-0.7100229921259842
21
0.388950748031496
0
LINE
8
BLACK
6
CONTINUOUS
10
-0.7100229921259842
20
0.388950748031496
11
-0.7069207480314961
21
0.3984984645669291
0
LINE
8
BLACK
6
CONTINUOUS
10
-0.7069207480314961
20
0.3984984645669291
11
-0.7023631102362204
21
0.4074433070866141
0
LINE
8
BLACK
6
CONTINUOUS
10
-0.7023631102362204
20
0.4074433070866141
11
-0.6964623228346457
21
0.4155650787401575
0
LINE
8
BLACK
6
CONTINUOUS
10
-0.6964623228346457
20
0.4155650787401575
11
-0.6893636220472441
21
0.4226637795275591
0
LINE
8
BLACK
6
CONTINUOUS
10
-0.6893636220472441
20
0.4226637795275591
11
-0.6812418503937008
21
0.4285645669291339
0
LINE
8
BLACK
6
CONTINUOUS
10
-0.6812418503937008
20
0.4285645669291339
11
-0.6722970078740157
21
0.4331222047244094
0
LINE
8
BLACK
6
CONTINUOUS
10
-0.6722970078740157
20
0.4331222047244094
11
-0.6627492913385826
21
0.4362244488188976
0
LINE
8
BLACK
6
CONTINUOUS
10
-0.6627492913385826
20
0.4362244488188976
11
-0.6528338188976378
21
0.4377949212598425
0
LINE
8
BLACK
6
CONTINUOUS
10
-0.6528338188976378
20
0.4377949212598425
11
-0.6427947637795275
21
0.4377949212598425
0
LINE
8
BLACK
6
CONTINUOUS
10
-0.6427947637795275
20
0.4377949212598425
11
-0.6328792913385827
21
0.4362244488188976
0
LINE
8
BLACK
6
CONTINUOUS
10
-0.7098221653543307
20
0.3691356299212598
11
-0.7082953149606299
21
0.3594955511811024
0
LINE
8
BLACK
6
CONTINUOUS
10
-0.7082953149606299
20
0.3594955511811024
11
-0.7052792519685039
21
0.3502129921259842
0
LINE
8
BLACK
6
CONTINUOUS
10
-0.7052792519685039
20
0.3502129921259842
11
-0.7008481889763779
21
0.3415165354330709
0
LINE
8
BLACK
6
CONTINUOUS
10
-0.7008481889763779
20
0.3415165354330709
11
-0.6951112598425196
21
0.3336203543307086
0
LINE
8
BLACK
6
CONTINUOUS
10
-0.6951112598425196
20
0.3336203543307086
11
-0.6882096850393701
21
0.3267187795275591
0
LINE
8
BLACK
6
CONTINUOUS
10
-0.6882096850393701
20
0.3267187795275591
11
-0.6803135039370078
21
0.3209818503937008
0
LINE
8
BLACK
6
CONTINUOUS
10
-0.6803135039370078
20
0.3209818503937008
11
-0.6716170472440944
21
0.3165507874015748
0
LINE
8
BLACK
6
CONTINUOUS
10
-0.6716170472440944
20
0.3165507874015748
11
-0.6623344881889763
21
0.3135347244094488
0
LINE
8
BLACK
6
CONTINUOUS
10
-0.6623344881889763
20
0.3135347244094488
11
-0.6526944094488188
21
0.312007874015748
0
LINE
8
BLACK
6
CONTINUOUS
10
-0.6526944094488188
20
0.312007874015748
11
-0.6429341732283465
21
0.312007874015748
0
LINE
8
BLACK
6
CONTINUOUS
10
-0.6429341732283465
20
0.312007874015748
11
-0.633294094488189
21
0.3135347244094488
0
LINE
8
BLACK
6
CONTINUOUS
10
-0.633294094488189
20
0.3135347244094488
11
-0.6240115354330709
21
0.3165507874015748
0
LINE
8
BLACK
6
CONTINUOUS
10
-0.6240115354330709
20
0.3165507874015748
11
-0.6153150787401575
21
0.3209818503937008
0
LINE
8
BLACK
6
CONTINUOUS
10
-0.6153150787401575
20
0.3209818503937008
11
-0.6074188976377952
21
0.3267187795275591
0
LINE
8
BLACK
6
CONTINUOUS
10
-0.6074188976377952
20
0.3267187795275591
11
-0.6005173228346457
21
0.3336203543307086
0
LINE
8
BLACK
6
CONTINUOUS
10
-0.6005173228346457
20
0.3336203543307086
11
-0.5947803937007874
21
0.3415165354330709
0
LINE
8
BLACK
6
CONTINUOUS
10
-0.5947803937007874
20
0.3415165354330709
11
-0.5903493307086614
21
0.3502129921259842
0
LINE
8
BLACK
6
CONTINUOUS
10
-0.5903493307086614
20
0.3502129921259842
11
-0.5873332677165354
21
0.3594955511811024
0
LINE
8
BLACK
6
CONTINUOUS
10
-0.5873332677165354
20
0.3594955511811024
11
-0.5858064173228347
21
0.3691356299212598
0
LINE
8
BLACK
6
CONTINUOUS
10
-0.5858064173228347
20
0.3691356299212598
11
-0.5858064173228347
21
0.3788958661417323
0
LINE
8
BLACK
6
CONTINUOUS
10
-0.5858064173228347
20
0.3788958661417323
11
-0.5873332677165354
21
0.3885359448818897
0
LINE
8
BLACK
6
CONTINUOUS
10
-0.5873332677165354
20
0.3885359448818897
11
-0.5903493307086614
21
0.3978185039370079
0
LINE
8
BLACK
6
CONTINUOUS
10
-0.5903493307086614
20
0.3978185039370079
11
-0.5947803937007874
21
0.4065149606299213
0
LINE
8
BLACK
6
CONTINUOUS
10
-0.5947803937007874
20
0.4065149606299213
11
-0.6005173228346457
21
0.4144111417322834
0
LINE
8
BLACK
6
CONTINUOUS
10
-0.6005173228346457
20
0.4144111417322834
11
-0.6074188976377952
21
0.4213127165354331
0
LINE
8
BLACK
6
CONTINUOUS
10
-0.6074188976377952
20
0.4213127165354331
11
-0.6153150787401575
21
0.4270496456692913
0
LINE
8
BLACK
6
CONTINUOUS
10
-0.6153150787401575
20
0.4270496456692913
11
-0.6240115354330709
21
0.4314807086614173
0
LINE
8
BLACK
6
CONTINUOUS
10
-0.6240115354330709
20
0.4314807086614173
11
-0.633294094488189
21
0.4344967716535433
0
LINE
8
BLACK
6
CONTINUOUS
10
-0.633294094488189
20
0.4344967716535433
11
-0.6429341732283465
21
0.4360236220472441
0
LINE
8
BLACK
6
CONTINUOUS
10
-0.6429341732283465
20
0.4360236220472441
11
-0.6526944094488188
21
0.4360236220472441
0
LINE
8
BLACK
6
CONTINUOUS
10
-0.6526944094488188
20
0.4360236220472441
11
-0.6623344881889763
21
0.4344967716535433
0
LINE
8
BLACK
6
CONTINUOUS
10
-0.6623344881889763
20
0.4344967716535433
11
-0.6716170472440944
21
0.4314807086614173
0
LINE
8
BLACK
6
CONTINUOUS
10
-0.6716170472440944
20
0.4314807086614173
11
-0.6803135039370078
21
0.4270496456692913
0
LINE
8
BLACK
6
CONTINUOUS
10
-0.6803135039370078
20
0.4270496456692913
11
-0.6882096850393701
21
0.4213127165354331
0
LINE
8
BLACK
6
CONTINUOUS
10
-0.6882096850393701
20
0.4213127165354331
11
-0.6951112598425196
21
0.4144111417322834
0
LINE
8
BLACK
6
CONTINUOUS
10
-0.6951112598425196
20
0.4144111417322834
11
-0.7008481889763779
21
0.4065149606299213
0
LINE
8
BLACK
6
CONTINUOUS
10
-0.7008481889763779
20
0.4065149606299213
11
-0.7052792519685039
21
0.3978185039370079
0
LINE
8
BLACK
6
CONTINUOUS
10
-0.7052792519685039
20
0.3978185039370079
11
-0.7082953149606299
21
0.3885359448818897
0
LINE
8
BLACK
6
CONTINUOUS
10
-0.7082953149606299
20
0.3885359448818897
11
-0.7098221653543307
21
0.3788958661417323
0
LINE
8
BLACK
6
CONTINUOUS
10
-0.7098221653543307
20
0.3788958661417323
11
-0.7098221653543307
21
0.3691356299212598
0
LINE
8
BLACK
6
CONTINUOUS
10
0.6627492913385826
20
0.4362244488188976
11
0.6722970078740157
21
0.4331222047244094
0
LINE
8
BLACK
6
CONTINUOUS
10
0.6722970078740157
20
0.4331222047244094
11
0.6812418503937008
21
0.4285645669291339
0
LINE
8
BLACK
6
CONTINUOUS
10
0.6812418503937008
20
0.4285645669291339
11
0.6893636220472441
21
0.4226637795275591
0
LINE
8
BLACK
6
CONTINUOUS
10
0.6893636220472441
20
0.4226637795275591
11
0.6964623228346457
21
0.4155650787401575
0
LINE
8
BLACK
6
CONTINUOUS
10
0.6964623228346457
20
0.4155650787401575
11
0.7023631102362204
21
0.4074433070866141
0
LINE
8
BLACK
6
CONTINUOUS
10
0.7023631102362204
20
0.4074433070866141
11
0.7069207480314961
21
0.3984984645669291
0
LINE
8
BLACK
6
CONTINUOUS
10
0.7069207480314961
20
0.3984984645669291
11
0.7100229921259842
21
0.388950748031496
0
LINE
8
BLACK
6
CONTINUOUS
10
0.7100229921259842
20
0.388950748031496
11
0.7115934645669291
21
0.3790352755905512
0
LINE
8
BLACK
6
CONTINUOUS
10
0.7115934645669291
20
0.3790352755905512
11
0.7115934645669291
21
0.368996220472441
0
LINE
8
BLACK
6
CONTINUOUS
10
0.7115934645669291
20
0.368996220472441
11
0.7100229921259842
21
0.359080748031496
0
LINE
8
BLACK
6
CONTINUOUS
10
0.7100229921259842
20
0.359080748031496
11
0.7069207480314961
21
0.349533031496063
0
LINE
8
BLACK
6
CONTINUOUS
10
0.7069207480314961
20
0.349533031496063
11
0.7023631102362204
21
0.3405881889763779
0
LINE
8
BLACK
6
CONTINUOUS
10
0.7023631102362204
20
0.3405881889763779
11
0.6964623228346457
21
0.3324664173228347
0
LINE
8
BLACK
6
CONTINUOUS
10
0.6964623228346457
20
0.3324664173228347
11
0.6893636220472441
21
0.3253677165354331
0
LINE
8
BLACK
6
CONTINUOUS
10
0.6893636220472441
20
0.3253677165354331
11
0.6812418503937008
21
0.3194669291338583
0
LINE
8
BLACK
6
CONTINUOUS
10
0.6812418503937008
20
0.3194669291338583
11
0.6722970078740157
21
0.3149092913385827
0
LINE
8
BLACK
6
CONTINUOUS
10
0.6722970078740157
20
0.3149092913385827
11
0.6627492913385826
21
0.3118070472440945
0
LINE
8
BLACK
6
CONTINUOUS
10
0.6627492913385826
20
0.3118070472440945
11
0.6528338188976378
21
0.3102365748031496
0
LINE
8
BLACK
6
CONTINUOUS
10
0.6528338188976378
20
0.3102365748031496
11
0.6427947637795275
21
0.3102365748031496
0
LINE
8
BLACK
6
CONTINUOUS
10
0.6427947637795275
20
0.3102365748031496
11
0.6328792913385827
21
0.3118070472440945
0
LINE
8
BLACK
6
CONTINUOUS
10
0.6328792913385827
20
0.3118070472440945
11
0.6233315748031496
21
0.3149092913385827
0
LINE
8
BLACK
6
CONTINUOUS
10
0.6233315748031496
20
0.3149092913385827
11
0.6143867322834645
21
0.3194669291338583
0
LINE
8
BLACK
6
CONTINUOUS
10
0.6143867322834645
20
0.3194669291338583
11
0.6062649606299213
21
0.3253677165354331
0
LINE
8
BLACK
6
CONTINUOUS
10
0.6062649606299213
20
0.3253677165354331
11
0.5991662598425197
21
0.3324664173228347
0
LINE
8
BLACK
6
CONTINUOUS
10
0.5991662598425197
20
0.3324664173228347
11
0.5932654724409449
21
0.3405881889763779
0
LINE
8
BLACK
6
CONTINUOUS
10
0.5932654724409449
20
0.3405881889763779
11
0.5887078346456692
21
0.349533031496063
0
LINE
8
BLACK
6
CONTINUOUS
10
0.5887078346456692
20
0.349533031496063
11
0.5856055905511811
21
0.359080748031496
0
LINE
8
BLACK
6
CONTINUOUS
10
0.5856055905511811
20
0.359080748031496
11
0.5840351181102362
21
0.368996220472441
0
LINE
8
BLACK
6
CONTINUOUS
10
0.5840351181102362
20
0.368996220472441
11
0.5840351181102362
21
0.3788958661417323
0
LINE
8
BLACK
6
CONTINUOUS
10
0.5840351181102362
20
0.3788958661417323
11
0.5840351181102362
21
0.3790352755905512
0
LINE
8
BLACK
6
CONTINUOUS
10
0.5840351181102362
20
0.3790352755905512
11
0.5856055905511811
21
0.388950748031496
0
LINE
8
BLACK
6
CONTINUOUS
10
0.5856055905511811
20
0.388950748031496
11
0.5887078346456692
21
0.3984984645669291
0
LINE
8
BLACK
6
CONTINUOUS
10
0.5887078346456692
20
0.3984984645669291
11
0.5932654724409449
21
0.4074433070866141
0
LINE
8
BLACK
6
CONTINUOUS
10
0.5932654724409449
20
0.4074433070866141
11
0.5991662598425197
21
0.4155650787401575
0
LINE
8
BLACK
6
CONTINUOUS
10
0.5991662598425197
20
0.4155650787401575
11
0.6062649606299213
21
0.4226637795275591
0
LINE
8
BLACK
6
CONTINUOUS
10
0.6062649606299213
20
0.4226637795275591
11
0.6143867322834645
21
0.4285645669291339
0
LINE
8
BLACK
6
CONTINUOUS
10
0.6143867322834645
20
0.4285645669291339
11
0.6233315748031496
21
0.4331222047244094
0
LINE
8
BLACK
6
CONTINUOUS
10
0.6233315748031496
20
0.4331222047244094
11
0.6328792913385827
21
0.4362244488188976
0
LINE
8
BLACK
6
CONTINUOUS
10
0.6328792913385827
20
0.4362244488188976
11
0.6427947637795275
21
0.4377949212598425
0
LINE
8
BLACK
6
CONTINUOUS
10
0.6427947637795275
20
0.4377949212598425
11
0.6528338188976378
21
0.4377949212598425
0
LINE
8
BLACK
6
CONTINUOUS
10
0.6528338188976378
20
0.4377949212598425
11
0.6627492913385826
21
0.4362244488188976
0
LINE
8
BLACK
6
CONTINUOUS
10
0.5858064173228347
20
0.3691356299212598
11
0.5873332677165354
21
0.3594955511811024
0
LINE
8
BLACK
6
CONTINUOUS
10
0.5873332677165354
20
0.3594955511811024
11
0.5903493307086614
21
0.3502129921259842
0
LINE
8
BLACK
6
CONTINUOUS
10
0.5903493307086614
20
0.3502129921259842
11
0.5947803937007874
21
0.3415165354330709
0
LINE
8
BLACK
6
CONTINUOUS
10
0.5947803937007874
20
0.3415165354330709
11
0.6005173228346457
21
0.3336203543307086
0
LINE
8
BLACK
6
CONTINUOUS
10
0.6005173228346457
20
0.3336203543307086
11
0.6074188976377952
21
0.3267187795275591
0
LINE
8
BLACK
6
CONTINUOUS
10
0.6074188976377952
20
0.3267187795275591
11
0.6153150787401575
21
0.3209818503937008
0
LINE
8
BLACK
6
CONTINUOUS
10
0.6153150787401575
20
0.3209818503937008
11
0.6240115354330709
21
0.3165507874015748
0
LINE
8
BLACK
6
CONTINUOUS
10
0.6240115354330709
20
0.3165507874015748
11
0.633294094488189
21
0.3135347244094488
0
LINE
8
BLACK
6
CONTINUOUS
10
0.633294094488189
20
0.3135347244094488
11
0.6429341732283465
21
0.312007874015748
0
LINE
8
BLACK
6
CONTINUOUS
10
0.6429341732283465
20
0.312007874015748
11
0.6526944094488188
21
0.312007874015748
0
LINE
8
BLACK
6
CONTINUOUS
10
0.6526944094488188
20
0.312007874015748
11
0.6623344881889763
21
0.3135347244094488
0
LINE
8
BLACK
6
CONTINUOUS
10
0.6623344881889763
20
0.3135347244094488
11
0.6716170472440944
21
0.3165507874015748
0
LINE
8
BLACK
6
CONTINUOUS
10
0.6716170472440944
20
0.3165507874015748
11
0.6803135039370078
21
0.3209818503937008
0
LINE
8
BLACK
6
CONTINUOUS
10
0.6803135039370078
20
0.3209818503937008
11
0.6882096850393701
21
0.3267187795275591
0
LINE
8
BLACK
6
CONTINUOUS
10
0.6882096850393701
20
0.3267187795275591
11
0.6951112598425196
21
0.3336203543307086
0
LINE
8
BLACK
6
CONTINUOUS
10
0.6951112598425196
20
0.3336203543307086
11
0.7008481889763779
21
0.3415165354330709
0
LINE
8
BLACK
6
CONTINUOUS
10
0.7008481889763779
20
0.3415165354330709
11
0.7052792519685039
21
0.3502129921259842
0
LINE
8
BLACK
6
CONTINUOUS
10
0.7052792519685039
20
0.3502129921259842
11
0.7082953149606299
21
0.3594955511811024
0
LINE
8
BLACK
6
CONTINUOUS
10
0.7082953149606299
20
0.3594955511811024
11
0.7098221653543307
21
0.3691356299212598
0
LINE
8
BLACK
6
CONTINUOUS
10
0.7098221653543307
20
0.3691356299212598
11
0.7098221653543307
21
0.3788958661417323
0
LINE
8
BLACK
6
CONTINUOUS
10
0.7098221653543307
20
0.3788958661417323
11
0.7082953149606299
21
0.3885359448818897
0
LINE
8
BLACK
6
CONTINUOUS
10
0.7082953149606299
20
0.3885359448818897
11
0.7052792519685039
21
0.3978185039370079
0
LINE
8
BLACK
6
CONTINUOUS
10
0.7052792519685039
20
0.3978185039370079
11
0.7008481889763779
21
0.4065149606299213
0
LINE
8
BLACK
6
CONTINUOUS
10
0.7008481889763779
20
0.4065149606299213
11
0.6951112598425196
21
0.4144111417322834
0
LINE
8
BLACK
6
CONTINUOUS
10
0.6951112598425196
20
0.4144111417322834
11
0.6882096850393701
21
0.4213127165354331
0
LINE
8
BLACK
6
CONTINUOUS
10
0.6882096850393701
20
0.4213127165354331
11
0.6803135039370078
21
0.4270496456692913
0
LINE
8
BLACK
6
CONTINUOUS
10
0.6803135039370078
20
0.4270496456692913
11
0.6716170472440944
21
0.4314807086614173
0
LINE
8
BLACK
6
CONTINUOUS
10
0.6716170472440944
20
0.4314807086614173
11
0.6623344881889763
21
0.4344967716535433
0
LINE
8
BLACK
6
CONTINUOUS
10
0.6623344881889763
20
0.4344967716535433
11
0.6526944094488188
21
0.4360236220472441
0
LINE
8
BLACK
6
CONTINUOUS
10
0.6526944094488188
20
0.4360236220472441
11
0.6429341732283465
21
0.4360236220472441
0
LINE
8
BLACK
6
CONTINUOUS
10
0.6429341732283465
20
0.4360236220472441
11
0.633294094488189
21
0.4344967716535433
0
LINE
8
BLACK
6
CONTINUOUS
10
0.633294094488189
20
0.4344967716535433
11
0.6240115354330709
21
0.4314807086614173
0
LINE
8
BLACK
6
CONTINUOUS
10
0.6240115354330709
20
0.4314807086614173
11
0.6153150787401575
21
0.4270496456692913
0
LINE
8
BLACK
6
CONTINUOUS
10
0.6153150787401575
20
0.4270496456692913
11
0.6074188976377952
21
0.4213127165354331
0
LINE
8
BLACK
6
CONTINUOUS
10
0.6074188976377952
20
0.4213127165354331
11
0.6005173228346457
21
0.4144111417322834
0
LINE
8
BLACK
6
CONTINUOUS
10
0.6005173228346457
20
0.4144111417322834
11
0.5947803937007874
21
0.4065149606299213
0
LINE
8
BLACK
6
CONTINUOUS
10
0.5947803937007874
20
0.4065149606299213
11
0.5903493307086614
21
0.3978185039370079
0
LINE
8
BLACK
6
CONTINUOUS
10
0.5903493307086614
20
0.3978185039370079
11
0.5873332677165354
21
0.3885359448818897
0
LINE
8
BLACK
6
CONTINUOUS
10
0.5873332677165354
20
0.3885359448818897
11
0.5858064173228347
21
0.3788958661417323
0
LINE
8
BLACK
6
CONTINUOUS
10
0.5858064173228347
20
0.3788958661417323
11
0.5858064173228347
21
0.3691356299212598
0
LINE
8
BLACK
6
CONTINUOUS
10
0.0942279527559055
20
2.5583046456692915
11
0.1569835039370079
21
2.555221653543307
0
LINE
8
BLACK
6
CONTINUOUS
10
0.1569835039370079
20
2.555221653543307
11
0.2196444881889764
21
2.5505995275590552
0
LINE
8
BLACK
6
CONTINUOUS
10
0.2196444881889764
20
2.5505995275590552
11
0.2821731889763779
21
2.5444409842519686
0
LINE
8
BLACK
6
CONTINUOUS
10
0.2821731889763779
20
2.5444409842519686
11
0.3445319291338583
21
2.5367497637795275
0
LINE
8
BLACK
6
CONTINUOUS
10
0.3445319291338583
20
2.5367497637795275
11
0.4066831102362204
21
2.5275305118110234
0
LINE
8
BLACK
6
CONTINUOUS
10
0.4066831102362204
20
2.5275305118110234
11
0.4685893307086614
21
2.5167887401574802
0
LINE
8
BLACK
6
CONTINUOUS
10
0.4685893307086614
20
2.5167887401574802
11
0.5302132677165354
21
2.5045309842519683
0
LINE
8
BLACK
6
CONTINUOUS
10
0.5302132677165354
20
2.5045309842519683
11
0.5915178346456693
21
2.4907645669291338
0
LINE
8
BLACK
6
CONTINUOUS
10
0.5915178346456693
20
2.4907645669291338
11
0.6524661417322835
21
2.4754978346456693
0
LINE
8
BLACK
6
CONTINUOUS
10
0.6524661417322835
20
2.4754978346456693
11
0.7130213779527559
21
2.4587399606299214
0
LINE
8
BLACK
6
CONTINUOUS
10
0.7130213779527559
20
2.4587399606299214
11
0.7731471259842519
21
2.4405009842519685
0
LINE
8
BLACK
6
CONTINUOUS
10
0.7731471259842519
20
2.4405009842519685
11
0.8328071653543306
21
2.420791968503937
0
LINE
8
BLACK
6
CONTINUOUS
10
0.8328071653543306
20
2.420791968503937
11
0.8919655511811023
21
2.3996247637795274
0
LINE
8
BLACK
6
CONTINUOUS
10
0.8919655511811023
20
2.3996247637795274
11
0.9505866535433071
21
2.377012125984252
0
LINE
8
BLACK
6
CONTINUOUS
10
0.9505866535433071
20
2.377012125984252
11
1.0086351181102362
21
2.3529676377952757
0
LINE
8
BLACK
6
CONTINUOUS
10
1.0086351181102362
20
2.3529676377952757
11
1.066076062992126
21
2.3275058267716533
0
LINE
8
BLACK
6
CONTINUOUS
10
1.066076062992126
20
2.3275058267716533
11
1.1228748425196851
21
2.3006420078740155
0
LINE
8
BLACK
6
CONTINUOUS
10
1.1228748425196851
20
2.3006420078740155
11
1.1789972440944883
21
2.2723923622047244
0
LINE
8
BLACK
6
CONTINUOUS
10
1.1789972440944883
20
2.2723923622047244
11
1.2344094488188977
21
2.2427739370078741
0
LINE
8
BLACK
6
CONTINUOUS
10
1.2344094488188977
20
2.2427739370078741
11
1.2890780708661418
21
2.211804527559055
0
LINE
8
BLACK
6
CONTINUOUS
10
1.2890780708661418
20
2.211804527559055
11
1.3429702362204725
21
2.1795027952755905
0
LINE
8
BLACK
6
CONTINUOUS
10
1.3429702362204725
20
2.1795027952755905
11
1.3960534251968504
21
2.1458882283464566
0
LINE
8
BLACK
6
CONTINUOUS
10
1.3960534251968504
20
2.1458882283464566
11
1.4482957086614172
21
2.110981062992126
0
LINE
8
BLACK
6
CONTINUOUS
10
1.4482957086614172
20
2.110981062992126
11
1.4996655905511811
21
2.0748023228346457
0
LINE
8
BLACK
6
CONTINUOUS
10
1.4996655905511811
20
2.0748023228346457
11
1.5501320866141732
21
2.0373738188976378
0
LINE
8
BLACK
6
CONTINUOUS
10
1.5501320866141732
20
2.0373738188976378
11
1.5996648818897636
21
1.9987180314960629
0
LINE
8
BLACK
6
CONTINUOUS
10
1.5996648818897636
20
1.9987180314960629
11
1.648234094488189
21
1.9588583070866141
0
LINE
8
BLACK
6
CONTINUOUS
10
1.648234094488189
20
1.9588583070866141
11
1.6958104724409448
21
1.9178186614173227
0
LINE
8
BLACK
6
CONTINUOUS
10
1.6958104724409448
20
1.9178186614173227
11
1.7423653543307087
21
1.875623779527559
0
LINE
8
BLACK
6
CONTINUOUS
10
1.7423653543307087
20
1.875623779527559
11
1.7878707086614172
21
1.832299094488189
0
LINE
8
BLACK
6
CONTINUOUS
10
1.7878707086614172
20
1.832299094488189
11
1.832299094488189
21
1.7878707086614172
0
LINE
8
BLACK
6
CONTINUOUS
10
1.832299094488189
20
1.7878707086614172
11
1.875623779527559
21
1.7423653543307087
0
LINE
8
BLACK
6
CONTINUOUS
10
1.875623779527559
20
1.7423653543307087
11
1.9178186614173227
21
1.6958104724409448
0
LINE
8
BLACK
6
CONTINUOUS
10
1.9178186614173227
20
1.6958104724409448
11
1.9588583070866141
21
1.648234094488189
0
LINE
8
BLACK
6
CONTINUOUS
10
1.9588583070866141
20
1.648234094488189
11
1.9987180314960629
21
1.5996648818897636
0
LINE
8
BLACK
6
CONTINUOUS
10
1.9987180314960629
20
1.5996648818897636
11
2.0373738188976378
21
1.5501320866141732
0
LINE
8
BLACK
6
CONTINUOUS
10
2.0373738188976378
20
1.5501320866141732
11
2.0748023228346457
21
1.4996655905511811
0
LINE
8
BLACK
6
CONTINUOUS
10
2.0748023228346457
20
1.4996655905511811
11
2.110981062992126
21
1.4482957086614172
0
LINE
8
BLACK
6
CONTINUOUS
10
2.110981062992126
20
1.4482957086614172
11
2.1458882283464566
21
1.3960534251968504
0
LINE
8
BLACK
6
CONTINUOUS
10
2.1458882283464566
20
1.3960534251968504
11
2.1795027952755905
21
1.3429702362204725
0
LINE
8
BLACK
6
CONTINUOUS
10
2.1795027952755905
20
1.3429702362204725
11
2.211804527559055
21
1.2890780708661418
0
LINE
8
BLACK
6
CONTINUOUS
10
2.211804527559055
20
1.2890780708661418
11
2.2427739370078741
21
1.2344094488188977
0
LINE
8
BLACK
6
CONTINUOUS
10
2.2427739370078741
20
1.2344094488188977
11
2.2723923622047244
21
1.1789972440944883
0
LINE
8
BLACK
6
CONTINUOUS
10
2.2723923622047244
20
1.1789972440944883
11
2.3006420078740155
21
1.1228748425196851
0
LINE
8
BLACK
6
CONTINUOUS
10
2.3006420078740155
20
1.1228748425196851
11
2.3275058267716533
21
1.066076062992126
0
LINE
8
BLACK
6
CONTINUOUS
10
2.3275058267716533
20
1.066076062992126
11
2.3529676377952757
21
1.0086351181102362
0
LINE
8
BLACK
6
CONTINUOUS
10
2.3529676377952757
20
1.0086351181102362
11
2.377012125984252
21
0.9505866535433071
0
LINE
8
BLACK
6
CONTINUOUS
10
2.377012125984252
20
0.9505866535433071
11
2.3996247637795274
21
0.8919655511811023
0
LINE
8
BLACK
6
CONTINUOUS
10
2.3996247637795274
20
0.8919655511811023
11
2.420791968503937
21
0.8328071653543306
0
LINE
8
BLACK
6
CONTINUOUS
10
2.420791968503937
20
0.8328071653543306
11
2.4405009842519685
21
0.7731471259842519
0
LINE
8
BLACK
6
CONTINUOUS
10
2.4405009842519685
20
0.7731471259842519
11
2.4587399606299214
21
0.7130213779527559
0
LINE
8
BLACK
6
CONTINUOUS
10
2.4587399606299214
20
0.7130213779527559
11
2.4754978346456693
21
0.6524661417322835
0
LINE
8
BLACK
6
CONTINUOUS
10
2.4754978346456693
20
0.6524661417322835
11
2.4907645669291338
21
0.5915178346456693
0
LINE
8
BLACK
6
CONTINUOUS
10
2.4907645669291338
20
0.5915178346456693
11
2.5045309842519683
21
0.5302132677165354
0
LINE
8
BLACK
6
CONTINUOUS
10
2.5045309842519683
20
0.5302132677165354
11
2.5167887401574802
21
0.4685893307086614
0
LINE
8
BLACK
6
CONTINUOUS
10
2.5167887401574802
20
0.4685893307086614
11
2.5275305118110234
21
0.4066831102362204
0
LINE
8
BLACK
6
CONTINUOUS
10
2.5275305118110234
20
0.4066831102362204
11
2.5367497637795275
21
0.3445319291338583
0
LINE
8
BLACK
6
CONTINUOUS
10
2.5367497637795275
20
0.3445319291338583
11
2.5444409842519686
21
0.2821731889763779
0
LINE
8
BLACK
6
CONTINUOUS
10
2.5444409842519686
20
0.2821731889763779
11
2.5505995275590552
21
0.2196444881889764
0
LINE
8
BLACK
6
CONTINUOUS
10
2.5505995275590552
20
0.2196444881889764
11
2.555221653543307
21
0.1569835039370079
0
LINE
8
BLACK
6
CONTINUOUS
10
2.555221653543307
20
0.1569835039370079
11
2.5583046456692915
21
0.0942279527559055
0
LINE
8
BLACK
6
CONTINUOUS
10
2.5583046456692915
20
0.0942279527559055
11
2.5598466141732281
21
0.0314156299212598
0
LINE
8
BLACK
6
CONTINUOUS
10
2.5598466141732281
20
0.0314156299212598
11
2.5598466141732281
21
-0.0314156299212598
0
LINE
8
BLACK
6
CONTINUOUS
10
2.5598466141732281
20
-0.0314156299212598
11
2.5583046456692915
21
-0.0942279527559055
0
LINE
8
BLACK
6
CONTINUOUS
10
2.5583046456692915
20
-0.0942279527559055
11
2.555221653543307
21
-0.1569835039370079
0
LINE
8
BLACK
6
CONTINUOUS
10
2.555221653543307
20
-0.1569835039370079
11
2.5505995275590552
21
-0.2196444881889764
0
LINE
8
BLACK
6
CONTINUOUS
10
2.5505995275590552
20
-0.2196444881889764
11
2.5444409842519686
21
-0.2821731889763779
0
LINE
8
BLACK
6
CONTINUOUS
10
2.5444409842519686
20
-0.2821731889763779
11
2.5367497637795275
21
-0.3445319291338583
0
LINE
8
BLACK
6
CONTINUOUS
10
2.5367497637795275
20
-0.3445319291338583
11
2.5275305118110234
21
-0.4066831102362204
0
LINE
8
BLACK
6
CONTINUOUS
10
2.5275305118110234
20
-0.4066831102362204
11
2.5167887401574802
21
-0.4685893307086614
0
LINE
8
BLACK
6
CONTINUOUS
10
2.5167887401574802
20
-0.4685893307086614
11
2.5045309842519683
21
-0.5302132677165354
0
LINE
8
BLACK
6
CONTINUOUS
10
2.5045309842519683
20
-0.5302132677165354
11
2.4907645669291338
21
-0.5915178346456693
0
LINE
8
BLACK
6
CONTINUOUS
10
2.4907645669291338
20
-0.5915178346456693
11
2.4754978346456693
21
-0.6524661417322835
0
LINE
8
BLACK
6
CONTINUOUS
10
2.4754978346456693
20
-0.6524661417322835
11
2.4587399606299214
21
-0.7130213779527559
0
LINE
8
BLACK
6
CONTINUOUS
10
2.4587399606299214
20
-0.7130213779527559
11
2.4405009842519685
21
-0.7731471259842519
0
LINE
8
BLACK
6
CONTINUOUS
10
2.4405009842519685
20
-0.7731471259842519
11
2.420791968503937
21
-0.8328071653543306
0
LINE
8
BLACK
6
CONTINUOUS
10
2.420791968503937
20
-0.8328071653543306
11
2.3996247637795274
21
-0.8919655511811023
0
LINE
8
BLACK
6
CONTINUOUS
10
2.3996247637795274
20
-0.8919655511811023
11
2.377012125984252
21
-0.9505866535433071
0
LINE
8
BLACK
6
CONTINUOUS
10
2.377012125984252
20
-0.9505866535433071
11
2.3529676377952757
21
-1.0086351181102362
0
LINE
8
BLACK
6
CONTINUOUS
10
2.3529676377952757
20
-1.0086351181102362
11
2.3275058267716533
21
-1.066076062992126
0
LINE
8
BLACK
6
CONTINUOUS
10
2.3275058267716533
20
-1.066076062992126
11
2.3006420078740155
21
-1.1228748425196851
0
LINE
8
BLACK
6
CONTINUOUS
10
2.3006420078740155
20
-1.1228748425196851
11
2.2723923622047244
21
-1.1789972440944883
0
LINE
8
BLACK
6
CONTINUOUS
10
2.2723923622047244
20
-1.1789972440944883
11
2.2427739370078741
21
-1.2344094488188977
0
LINE
8
BLACK
6
CONTINUOUS
10
2.2427739370078741
20
-1.2344094488188977
11
2.211804527559055
21
-1.2890780708661418
0
LINE
8
BLACK
6
CONTINUOUS
10
2.211804527559055
20
-1.2890780708661418
11
2.1795027952755905
21
-1.3429702362204725
0
LINE
8
BLACK
6
CONTINUOUS
10
2.1795027952755905
20
-1.3429702362204725
11
2.1458882283464566
21
-1.3960534251968504
0
LINE
8
BLACK
6
CONTINUOUS
10
2.1458882283464566
20
-1.3960534251968504
11
2.110981062992126
21
-1.4482957086614172
0
LINE
8
BLACK
6
CONTINUOUS
10
2.110981062992126
20
-1.4482957086614172
11
2.0748023228346457
21
-1.4996655905511811
0
LINE
8
BLACK
6
CONTINUOUS
10
2.0748023228346457
20
-1.4996655905511811
11
2.0373738188976378
21
-1.5501320866141732
0
LINE
8
BLACK
6
CONTINUOUS
10
2.0373738188976378
20
-1.5501320866141732
11
1.9987180314960629
21
-1.5996648818897636
0
LINE
8
BLACK
6
CONTINUOUS
10
1.9987180314960629
20
-1.5996648818897636
11
1.9588583070866141
21
-1.648234094488189
0
LINE
8
BLACK
6
CONTINUOUS
10
1.9588583070866141
20
-1.648234094488189
11
1.9178186614173227
21
-1.6958104724409448
0
LINE
8
BLACK
6
CONTINUOUS
10
1.9178186614173227
20
-1.6958104724409448
11
1.875623779527559
21
-1.7423653543307087
0
LINE
8
BLACK
6
CONTINUOUS
10
1.875623779527559
20
-1.7423653543307087
11
1.832299094488189
21
-1.7878707086614172
0
LINE
8
BLACK
6
CONTINUOUS
10
1.832299094488189
20
-1.7878707086614172
11
1.7878707086614172
21
-1.832299094488189
0
LINE
8
BLACK
6
CONTINUOUS
10
1.7878707086614172
20
-1.832299094488189
11
1.7423653543307087
21
-1.875623779527559
0
LINE
8
BLACK
6
CONTINUOUS
10
1.7423653543307087
20
-1.875623779527559
11
1.6958104724409448
21
-1.9178186614173227
0
LINE
8
BLACK
6
CONTINUOUS
10
1.6958104724409448
20
-1.9178186614173227
11
1.648234094488189
21
-1.9588583070866141
0
LINE
8
BLACK
6
CONTINUOUS
10
1.648234094488189
20
-1.9588583070866141
11
1.5996648818897636
21
-1.9987180314960629
0
LINE
8
BLACK
6
CONTINUOUS
10
1.5996648818897636
20
-1.9987180314960629
11
1.5501320866141732
21
-2.0373738188976378
0
LINE
8
BLACK
6
CONTINUOUS
10
1.5501320866141732
20
-2.0373738188976378
11
1.4996655905511811
21
-2.0748023228346457
0
LINE
8
BLACK
6
CONTINUOUS
10
1.4996655905511811
20
-2.0748023228346457
11
1.4482957086614172
21
-2.110981062992126
0
LINE
8
BLACK
6
CONTINUOUS
10
1.4482957086614172
20
-2.110981062992126
11
1.3960534251968504
21
-2.1458882283464566
0
LINE
8
BLACK
6
CONTINUOUS
10
1.3960534251968504
20
-2.1458882283464566
11
1.3429702362204725
21
-2.1795027952755905
0
LINE
8
BLACK
6
CONTINUOUS
10
1.3429702362204725
20
-2.1795027952755905
11
1.2890780708661418
21
-2.211804527559055
0
LINE
8
BLACK
6
CONTINUOUS
10
1.2890780708661418
20
-2.211804527559055
11
1.2344094488188977
21
-2.2427739370078741
0
LINE
8
BLACK
6
CONTINUOUS
10
1.2344094488188977
20
-2.2427739370078741
11
1.1789972440944883
21
-2.2723923622047244
0
LINE
8
BLACK
6
CONTINUOUS
10
1.1789972440944883
20
-2.2723923622047244
11
1.1228748425196851
21
-2.3006420078740155
0
LINE
8
BLACK
6
CONTINUOUS
10
1.1228748425196851
20
-2.3006420078740155
11
1.066076062992126
21
-2.3275058267716533
0
LINE
8
BLACK
6
CONTINUOUS
10
1.066076062992126
20
-2.3275058267716533
11
1.0086351181102362
21
-2.3529676377952757
0
LINE
8
BLACK
6
CONTINUOUS
10
1.0086351181102362
20
-2.3529676377952757
11
0.9505866535433071
21
-2.377012125984252
0
LINE
8
BLACK
6
CONTINUOUS
10
0.9505866535433071
20
-2.377012125984252
11
0.8919655511811023
21
-2.3996247637795274
0
LINE
8
BLACK
6
CONTINUOUS
10
0.8919655511811023
20
-2.3996247637795274
11
0.8328071653543306
21
-2.420791968503937
0
LINE
8
BLACK
6
CONTINUOUS
10
0.8328071653543306
20
-2.420791968503937
11
0.7731471259842519
21
-2.4405009842519685
0
LINE
8
BLACK
6
CONTINUOUS
10
0.7731471259842519
20
-2.4405009842519685
11
0.7130213779527559
21
-2.4587399606299214
0
LINE
8
BLACK
6
CONTINUOUS
10
0.7130213779527559
20
-2.4587399606299214
11
0.6524661417322835
21
-2.4754978346456693
0
LINE
8
BLACK
6
CONTINUOUS
10
0.6524661417322835
20
-2.4754978346456693
11
0.5915178346456693
21
-2.4907645669291338
0
LINE
8
BLACK
6
CONTINUOUS
10
0.5915178346456693
20
-2.4907645669291338
11
0.5302132677165354
21
-2.5045309842519683
0
LINE
8
BLACK
6
CONTINUOUS
10
0.5302132677165354
20
-2.5045309842519683
11
0.4685893307086614
21
-2.5167887401574802
0
LINE
8
BLACK
6
CONTINUOUS
10
0.4685893307086614
20
-2.5167887401574802
11
0.4066831102362204
21
-2.5275305118110234
0
LINE
8
BLACK
6
CONTINUOUS
10
0.4066831102362204
20
-2.5275305118110234
11
0.3445319291338583
21
-2.5367497637795275
0
LINE
8
BLACK
6
CONTINUOUS
10
0.3445319291338583
20
-2.5367497637795275
11
0.2821731889763779
21
-2.5444409842519686
0
LINE
8
BLACK
6
CONTINUOUS
10
0.2821731889763779
20
-2.5444409842519686
11
0.2196444881889764
21
-2.5505995275590552
0
LINE
8
BLACK
6
CONTINUOUS
10
0.2196444881889764
20
-2.5505995275590552
11
0.1569835039370079
21
-2.555221653543307
0
LINE
8
BLACK
6
CONTINUOUS
10
0.1569835039370079
20
-2.555221653543307
11
0.0942279527559055
21
-2.5583046456692915
0
LINE
8
BLACK
6
CONTINUOUS
10
0.0942279527559055
20
-2.5583046456692915
11
0.0314156299212598
21
-2.5598466141732281
0
LINE
8
BLACK
6
CONTINUOUS
10
0.0314156299212598
20
-2.5598466141732281
11
-0.0314156299212598
21
-2.5598466141732281
0
LINE
8
BLACK
6
CONTINUOUS
10
-0.0314156299212598
20
-2.5598466141732281
11
-0.0942279527559055
21
-2.5583046456692915
0
LINE
8
BLACK
6
CONTINUOUS
10
-0.0942279527559055
20
-2.5583046456692915
11
-0.1569835039370079
21
-2.555221653543307
0
LINE
8
BLACK
6
CONTINUOUS
10
-0.1569835039370079
20
-2.555221653543307
11
-0.2196444881889764
21
-2.5505995275590552
0
LINE
8
BLACK
6
CONTINUOUS
10
-0.2196444881889764
20
-2.5505995275590552
11
-0.2821731889763779
21
-2.5444409842519686
0
LINE
8
BLACK
6
CONTINUOUS
10
-0.2821731889763779
20
-2.5444409842519686
11
-0.3445319291338583
21
-2.5367497637795275
0
LINE
8
BLACK
6
CONTINUOUS
10
-0.3445319291338583
20
-2.5367497637795275
11
-0.4066831102362204
21
-2.5275305118110234
0
LINE
8
BLACK
6
CONTINUOUS
10
-0.4066831102362204
20
-2.5275305118110234
11
-0.4685893307086614
21
-2.5167887401574802
0
LINE
8
BLACK
6
CONTINUOUS
10
-0.4685893307086614
20
-2.5167887401574802
11
-0.5302132677165354
21
-2.5045309842519683
0
LINE
8
BLACK
6
CONTINUOUS
10
-0.5302132677165354
20
-2.5045309842519683
11
-0.5915178346456693
21
-2.4907645669291338
0
LINE
8
BLACK
6
CONTINUOUS
10
-0.5915178346456693
20
-2.4907645669291338
11
-0.6524661417322835
21
-2.4754978346456693
0
LINE
8
BLACK
6
CONTINUOUS
10
-0.6524661417322835
20
-2.4754978346456693
11
-0.7130213779527559
21
-2.4587399606299214
0
LINE
8
BLACK
6
CONTINUOUS
10
-0.7130213779527559
20
-2.4587399606299214
11
-0.7731471259842519
21
-2.4405009842519685
0
LINE
8
BLACK
6
CONTINUOUS
10
-0.7731471259842519
20
-2.4405009842519685
11
-0.8328071653543306
21
-2.420791968503937
0
LINE
8
BLACK
6
CONTINUOUS
10
-0.8328071653543306
20
-2.420791968503937
11
-0.8919655511811023
21
-2.3996247637795274
0
LINE
8
BLACK
6
CONTINUOUS
10
-0.8919655511811023
20
-2.3996247637795274
11
-0.9505866535433071
21
-2.377012125984252
0
LINE
8
BLACK
6
CONTINUOUS
10
-0.9505866535433071
20
-2.377012125984252
11
-1.0086351181102362
21
-2.3529676377952757
0
LINE
8
BLACK
6
CONTINUOUS
10
-1.0086351181102362
20
-2.3529676377952757
11
-1.066076062992126
21
-2.3275058267716533
0
LINE
8
BLACK
6
CONTINUOUS
10
-1.066076062992126
20
-2.3275058267716533
11
-1.1228748425196851
21
-2.3006420078740155
0
LINE
8
BLACK
6
CONTINUOUS
10
-1.1228748425196851
20
-2.3006420078740155
11
-1.1789972440944883
21
-2.2723923622047244
0
LINE
8
BLACK
6
CONTINUOUS
10
-1.1789972440944883
20
-2.2723923622047244
11
-1.2344094488188977
21
-2.2427739370078741
0
LINE
8
BLACK
6
CONTINUOUS
10
-1.2344094488188977
20
-2.2427739370078741
11
-1.2890780708661418
21
-2.211804527559055
0
LINE
8
BLACK
6
CONTINUOUS
10
-1.2890780708661418
20
-2.211804527559055
11
-1.3429702362204725
21
-2.1795027952755905
0
LINE
8
BLACK
6
CONTINUOUS
10
-1.3429702362204725
20
-2.1795027952755905
11
-1.3960534251968504
21
-2.1458882283464566
0
LINE
8
BLACK
6
CONTINUOUS
10
-1.3960534251968504
20
-2.1458882283464566
11
-1.4482957086614172
21
-2.110981062992126
0
LINE
8
BLACK
6
CONTINUOUS
10
-1.4482957086614172
20
-2.110981062992126
11
-1.4996655905511811
21
-2.0748023228346457
0
LINE
8
BLACK
6
CONTINUOUS
10
-1.4996655905511811
20
-2.0748023228346457
11
-1.5501320866141732
21
-2.0373738188976378
0
LINE
8
BLACK
6
CONTINUOUS
10
-1.5501320866141732
20
-2.0373738188976378
11
-1.5996648818897636
21
-1.9987180314960629
0
LINE
8
BLACK
6
CONTINUOUS
10
-1.5996648818897636
20
-1.9987180314960629
11
-1.648234094488189
21
-1.9588583070866141
0
LINE
8
BLACK
6
CONTINUOUS
10
-1.648234094488189
20
-1.9588583070866141
11
-1.6958104724409448
21
-1.9178186614173227
0
LINE
8
BLACK
6
CONTINUOUS
10
-1.6958104724409448
20
-1.9178186614173227
11
-1.7423653543307087
21
-1.875623779527559
0
LINE
8
BLACK
6
CONTINUOUS
10
-1.7423653543307087
20
-1.875623779527559
11
-1.7878707086614172
21
-1.832299094488189
0
LINE
8
BLACK
6
CONTINUOUS
10
-1.7878707086614172
20
-1.832299094488189
11
-1.832299094488189
21
-1.7878707086614172
0
LINE
8
BLACK
6
CONTINUOUS
10
-1.832299094488189
20
-1.7878707086614172
11
-1.875623779527559
21
-1.7423653543307087
0
LINE
8
BLACK
6
CONTINUOUS
10
-1.875623779527559
20
-1.7423653543307087
11
-1.9178186614173227
21
-1.6958104724409448
0
LINE
8
BLACK
6
CONTINUOUS
10
-1.9178186614173227
20
-1.6958104724409448
11
-1.9588583070866141
21
-1.648234094488189
0
LINE
8
BLACK
6
CONTINUOUS
10
-1.9588583070866141
20
-1.648234094488189
11
-1.9987180314960629
21
-1.5996648818897636
0
LINE
8
BLACK
6
CONTINUOUS
10
-1.9987180314960629
20
-1.5996648818897636
11
-2.0373738188976378
21
-1.5501320866141732
0
LINE
8
BLACK
6
CONTINUOUS
10
-2.0373738188976378
20
-1.5501320866141732
11
-2.0748023228346457
21
-1.4996655905511811
0
LINE
8
BLACK
6
CONTINUOUS
10
-2.0748023228346457
20
-1.4996655905511811
11
-2.110981062992126
21
-1.4482957086614172
0
LINE
8
BLACK
6
CONTINUOUS
10
-2.110981062992126
20
-1.4482957086614172
11
-2.1458882283464566
21
-1.3960534251968504
0
LINE
8
BLACK
6
CONTINUOUS
10
-2.1458882283464566
20
-1.3960534251968504
11
-2.1795027952755905
21
-1.3429702362204725
0
LINE
8
BLACK
6
CONTINUOUS
10
-2.1795027952755905
20
-1.3429702362204725
11
-2.211804527559055
21
-1.2890780708661418
0
LINE
8
BLACK
6
CONTINUOUS
10
-2.211804527559055
20
-1.2890780708661418
11
-2.2427739370078741
21
-1.2344094488188977
0
LINE
8
BLACK
6
CONTINUOUS
10
-2.2427739370078741
20
-1.2344094488188977
11
-2.2723923622047244
21
-1.1789972440944883
0
LINE
8
BLACK
6
CONTINUOUS
10
-2.2723923622047244
20
-1.1789972440944883
11
-2.3006420078740155
21
-1.1228748425196851
0
LINE
8
BLACK
6
CONTINUOUS
10
-2.3006420078740155
20
-1.1228748425196851
11
-2.3275058267716533
21
-1.066076062992126
0
LINE
8
BLACK
6
CONTINUOUS
10
-2.3275058267716533
20
-1.066076062992126
11
-2.3529676377952757
21
-1.0086351181102362
0
LINE
8
BLACK
6
CONTINUOUS
10
-2.3529676377952757
20
-1.0086351181102362
11
-2.377012125984252
21
-0.9505866535433071
0
LINE
8
BLACK
6
CONTINUOUS
10
-2.377012125984252
20
-0.9505866535433071
11
-2.3996247637795274
21
-0.8919655511811023
0
LINE
8
BLACK
6
CONTINUOUS
10
-2.3996247637795274
20
-0.8919655511811023
11
-2.420791968503937
21
-0.8328071653543306
0
LINE
8
BLACK
6
CONTINUOUS
10
-2.420791968503937
20
-0.8328071653543306
11
-2.4405009842519685
21
-0.7731471259842519
0
LINE
8
BLACK
6
CONTINUOUS
10
-2.4405009842519685
20
-0.7731471259842519
11
-2.4587399606299214
21
-0.7130213779527559
0
LINE
8
BLACK
6
CONTINUOUS
10
-2.4587399606299214
20
-0.7130213779527559
11
-2.4754978346456693
21
-0.6524661417322835
0
LINE
8
BLACK
6
CONTINUOUS
10
-2.4754978346456693
20
-0.6524661417322835
11
-2.4907645669291338
21
-0.5915178346456693
0
LINE
8
BLACK
6
CONTINUOUS
10
-2.4907645669291338
20
-0.5915178346456693
11
-2.5045309842519683
21
-0.5302132677165354
0
LINE
8
BLACK
6
CONTINUOUS
10
-2.5045309842519683
20
-0.5302132677165354
11
-2.5167887401574802
21
-0.4685893307086614
0
LINE
8
BLACK
6
CONTINUOUS
10
-2.5167887401574802
20
-0.4685893307086614
11
-2.5275305118110234
21
-0.4066831102362204
0
LINE
8
BLACK
6
CONTINUOUS
10
-2.5275305118110234
20
-0.4066831102362204
11
-2.5367497637795275
21
-0.3445319291338583
0
LINE
8
BLACK
6
CONTINUOUS
10
-2.5367497637795275
20
-0.3445319291338583
11
-2.5444409842519686
21
-0.2821731889763779
0
LINE
8
BLACK
6
CONTINUOUS
10
-2.5444409842519686
20
-0.2821731889763779
11
-2.5505995275590552
21
-0.2196444881889764
0
LINE
8
BLACK
6
CONTINUOUS
10
-2.5505995275590552
20
-0.2196444881889764
11
-2.555221653543307
21
-0.1569835039370079
0
LINE
8
BLACK
6
CONTINUOUS
10
-2.555221653543307
20
-0.1569835039370079
11
-2.5583046456692915
21
-0.0942279527559055
0
LINE
8
BLACK
6
CONTINUOUS
10
-2.5583046456692915
20
-0.0942279527559055
11
-2.5598466141732281
21
-0.0314156299212598
0
LINE
8
BLACK
6
CONTINUOUS
10
-2.5598466141732281
20
-0.0314156299212598
11
-2.5598466141732281
21
0.0313938188976378
0
LINE
8
BLACK
6
CONTINUOUS
10
-2.5598466141732281
20
0.0313938188976378
11
-2.5598466141732281
21
0.0314156299212598
0
LINE
8
BLACK
6
CONTINUOUS
10
-2.5598466141732281
20
0.0314156299212598
11
-2.5583046456692915
21
0.0942279527559055
0
LINE
8
BLACK
6
CONTINUOUS
10
-2.5583046456692915
20
0.0942279527559055
11
-2.555221653543307
21
0.1569835039370079
0
LINE
8
BLACK
6
CONTINUOUS
10
-2.555221653543307
20
0.1569835039370079
11
-2.5505995275590552
21
0.2196444881889764
0
LINE
8
BLACK
6
CONTINUOUS
10
-2.5505995275590552
20
0.2196444881889764
11
-2.5444409842519686
21
0.2821731889763779
0
LINE
8
BLACK
6
CONTINUOUS
10
-2.5444409842519686
20
0.2821731889763779
11
-2.5367497637795275
21
0.3445319291338583
0
LINE
8
BLACK
6
CONTINUOUS
10
-2.5367497637795275
20
0.3445319291338583
11
-2.5275305118110234
21
0.4066831102362204
0
LINE
8
BLACK
6
CONTINUOUS
10
-2.5275305118110234
20
0.4066831102362204
11
-2.5167887401574802
21
0.4685893307086614
0
LINE
8
BLACK
6
CONTINUOUS
10
-2.5167887401574802
20
0.4685893307086614
11
-2.5045309842519683
21
0.5302132677165354
0
LINE
8
BLACK
6
CONTINUOUS
10
-2.5045309842519683
20
0.5302132677165354
11
-2.4907645669291338
21
0.5915178346456693
0
LINE
8
BLACK
6
CONTINUOUS
10
-2.4907645669291338
20
0.5915178346456693
11
-2.4754978346456693
21
0.6524661417322835
0
LINE
8
BLACK
6
CONTINUOUS
10
-2.4754978346456693
20
0.6524661417322835
11
-2.4587399606299214
21
0.7130213779527559
0
LINE
8
BLACK
6
CONTINUOUS
10
-2.4587399606299214
20
0.7130213779527559
11
-2.4405009842519685
21
0.7731471259842519
0
LINE
8
BLACK
6
CONTINUOUS
10
-2.4405009842519685
20
0.7731471259842519
11
-2.420791968503937
21
0.8328071653543306
0
LINE
8
BLACK
6
CONTINUOUS
10
-2.420791968503937
20
0.8328071653543306
11
-2.3996247637795274
21
0.8919655511811023
0
LINE
8
BLACK
6
CONTINUOUS
10
-2.3996247637795274
20
0.8919655511811023
11
-2.377012125984252
21
0.9505866535433071
0
LINE
8
BLACK
6
CONTINUOUS
10
-2.377012125984252
20
0.9505866535433071
11
-2.3529676377952757
21
1.0086351181102362
0
LINE
8
BLACK
6
CONTINUOUS
10
-2.3529676377952757
20
1.0086351181102362
11
-2.3275058267716533
21
1.066076062992126
0
LINE
8
BLACK
6
CONTINUOUS
10
-2.3275058267716533
20
1.066076062992126
11
-2.3006420078740155
21
1.1228748425196851
0
LINE
8
BLACK
6
CONTINUOUS
10
-2.3006420078740155
20
1.1228748425196851
11
-2.2723923622047244
21
1.1789972440944883
0
LINE
8
BLACK
6
CONTINUOUS
10
-2.2723923622047244
20
1.1789972440944883
11
-2.2427739370078741
21
1.2344094488188977
0
LINE
8
BLACK
6
CONTINUOUS
10
-2.2427739370078741
20
1.2344094488188977
11
-2.211804527559055
21
1.2890780708661418
0
LINE
8
BLACK
6
CONTINUOUS
10
-2.211804527559055
20
1.2890780708661418
11
-2.1795027952755905
21
1.3429702362204725
0
LINE
8
BLACK
6
CONTINUOUS
10
-2.1795027952755905
20
1.3429702362204725
11
-2.1458882283464566
21
1.3960534251968504
0
LINE
8
BLACK
6
CONTINUOUS
10
-2.1458882283464566
20
1.3960534251968504
11
-2.110981062992126
21
1.4482957086614172
0
LINE
8
BLACK
6
CONTINUOUS
10
-2.110981062992126
20
1.4482957086614172
11
-2.0748023228346457
21
1.4996655905511811
0
LINE
8
BLACK
6
CONTINUOUS
10
-2.0748023228346457
20
1.4996655905511811
11
-2.0373738188976378
21
1.5501320866141732
0
LINE
8
BLACK
6
CONTINUOUS
10
-2.0373738188976378
20
1.5501320866141732
11
-1.9987180314960629
21
1.5996648818897636
0
LINE
8
BLACK
6
CONTINUOUS
10
-1.9987180314960629
20
1.5996648818897636
11
-1.9588583070866141
21
1.648234094488189
0
LINE
8
BLACK
6
CONTINUOUS
10
-1.9588583070866141
20
1.648234094488189
11
-1.9178186614173227
21
1.6958104724409448
0
LINE
8
BLACK
6
CONTINUOUS
10
-1.9178186614173227
20
1.6958104724409448
11
-1.875623779527559
21
1.7423653543307087
0
LINE
8
BLACK
6
CONTINUOUS
10
-1.875623779527559
20
1.7423653543307087
11
-1.832299094488189
21
1.7878707086614172
0
LINE
8
BLACK
6
CONTINUOUS
10
-1.832299094488189
20
1.7878707086614172
11
-1.7878707086614172
21
1.832299094488189
0
LINE
8
BLACK
6
CONTINUOUS
10
-1.7878707086614172
20
1.832299094488189
11
-1.7423653543307087
21
1.875623779527559
0
LINE
8
BLACK
6
CONTINUOUS
10
-1.7423653543307087
20
1.875623779527559
11
-1.6958104724409448
21
1.9178186614173227
0
LINE
8
BLACK
6
CONTINUOUS
10
-1.6958104724409448
20
1.9178186614173227
11
-1.648234094488189
21
1.9588583070866141
0
LINE
8
BLACK
6
CONTINUOUS
10
-1.648234094488189
20
1.9588583070866141
11
-1.5996648818897636
21
1.9987180314960629
0
LINE
8
BLACK
6
CONTINUOUS
10
-1.5996648818897636
20
1.9987180314960629
11
-1.5501320866141732
21
2.0373738188976378
0
LINE
8
BLACK
6
CONTINUOUS
10
-1.5501320866141732
20
2.0373738188976378
11
-1.4996655905511811
21
2.0748023228346457
0
LINE
8
BLACK
6
CONTINUOUS
10
-1.4996655905511811
20
2.0748023228346457
11
-1.4482957086614172
21
2.110981062992126
0
LINE
8
BLACK
6
CONTINUOUS
10
-1.4482957086614172
20
2.110981062992126
11
-1.3960534251968504
21
2.1458882283464566
0
LINE
8
BLACK
6
CONTINUOUS
10
-1.3960534251968504
20
2.1458882283464566
11
-1.3429702362204725
21
2.1795027952755905
0
LINE
8
BLACK
6
CONTINUOUS
10
-1.3429702362204725
20
2.1795027952755905
11
-1.2890780708661418
21
2.211804527559055
0
LINE
8
BLACK
6
CONTINUOUS
10
-1.2890780708661418
20
2.211804527559055
11
-1.2344094488188977
21
2.2427739370078741
0
LINE
8
BLACK
6
CONTINUOUS
10
-1.2344094488188977
20
2.2427739370078741
11
-1.1789972440944883
21
2.2723923622047244
0
LINE
8
BLACK
6
CONTINUOUS
10
-1.1789972440944883
20
2.2723923622047244
11
-1.1228748425196851
21
2.3006420078740155
0
LINE
8
BLACK
6
CONTINUOUS
10
-1.1228748425196851
20
2.3006420078740155
11
-1.066076062992126
21
2.3275058267716533
0
LINE
8
BLACK
6
CONTINUOUS
10
-1.066076062992126
20
2.3275058267716533
11
-1.0086351181102362
21
2.3529676377952757
0
LINE
8
BLACK
6
CONTINUOUS
10
-1.0086351181102362
20
2.3529676377952757
11
-0.9505866535433071
21
2.377012125984252
0
LINE
8
BLACK
6
CONTINUOUS
10
-0.9505866535433071
20
2.377012125984252
11
-0.8919655511811023
21
2.3996247637795274
0
LINE
8
BLACK
6
CONTINUOUS
10
-0.8919655511811023
20
2.3996247637795274
11
-0.8328071653543306
21
2.420791968503937
0
LINE
8
BLACK
6
CONTINUOUS
10
-0.8328071653543306
20
2.420791968503937
11
-0.7731471259842519
21
2.4405009842519685
0
LINE
8
BLACK
6
CONTINUOUS
10
-0.7731471259842519
20
2.4405009842519685
11
-0.7130213779527559
21
2.4587399606299214
0
LINE
8
BLACK
6
CONTINUOUS
10
-0.7130213779527559
20
2.4587399606299214
11
-0.6524661417322835
21
2.4754978346456693
0
LINE
8
BLACK
6
CONTINUOUS
10
-0.6524661417322835
20
2.4754978346456693
11
-0.5915178346456693
21
2.4907645669291338
0
LINE
8
BLACK
6
CONTINUOUS
10
-0.5915178346456693
20
2.4907645669291338
11
-0.5302132677165354
21
2.5045309842519683
0
LINE
8
BLACK
6
CONTINUOUS
10
-0.5302132677165354
20
2.5045309842519683
11
-0.4685893307086614
21
2.5167887401574802
0
LINE
8
BLACK
6
CONTINUOUS
10
-0.4685893307086614
20
2.5167887401574802
11
-0.4066831102362204
21
2.5275305118110234
0
LINE
8
BLACK
6
CONTINUOUS
10
-0.4066831102362204
20
2.5275305118110234
11
-0.3445319291338583
21
2.5367497637795275
0
LINE
8
BLACK
6
CONTINUOUS
10
-0.3445319291338583
20
2.5367497637795275
11
-0.2821731889763779
21
2.5444409842519686
0
LINE
8
BLACK
6
CONTINUOUS
10
-0.2821731889763779
20
2.5444409842519686
11
-0.2196444881889764
21
2.5505995275590552
0
LINE
8
BLACK
6
CONTINUOUS
10
-0.2196444881889764
20
2.5505995275590552
11
-0.1569835039370079
21
2.555221653543307
0
LINE
8
BLACK
6
CONTINUOUS
10
-0.1569835039370079
20
2.555221653543307
11
-0.0942279527559055
21
2.5583046456692915
0
LINE
8
BLACK
6
CONTINUOUS
10
-0.0942279527559055
20
2.5583046456692915
11
-0.0314156299212598
21
2.5598466141732281
0
LINE
8
BLACK
6
CONTINUOUS
10
-0.0314156299212598
20
2.5598466141732281
11
0.0314156299212598
21
2.5598466141732281
0
LINE
8
BLACK
6
CONTINUOUS
10
0.0314156299212598
20
2.5598466141732281
11
0.0942279527559055
21
2.5583046456692915
0
LINE
8
BLACK
6
CONTINUOUS
10
-2.5580708661417324
20
-0.0313938188976378
11
-2.55653
21
-0.0941625590551181
0
LINE
8
BLACK
6
CONTINUOUS
10
-2.55653
20
-0.0941625590551181
11
-2.5534491338582677
21
-0.1568746062992126
0
LINE
8
BLACK
6
CONTINUOUS
10
-2.5534491338582677
20
-0.1568746062992126
11
-2.5488301968503935
21
-0.219492125984252
0
LINE
8
BLACK
6
CONTINUOUS
10
-2.5488301968503935
20
-0.219492125984252
11
-2.5426759448818896
21
-0.2819774409448819
0
LINE
8
BLACK
6
CONTINUOUS
10
-2.5426759448818896
20
-0.2819774409448819
11
-2.5349900393700788
21
-0.3442929133858267
0
LINE
8
BLACK
6
CONTINUOUS
10
-2.5349900393700788
20
-0.3442929133858267
11
-2.5257772047244096
21
-0.4064009842519685
0
LINE
8
BLACK
6
CONTINUOUS
10
-2.5257772047244096
20
-0.4064009842519685
11
-2.515042874015748
21
-0.4682642519685039
0
LINE
8
BLACK
6
CONTINUOUS
10
-2.515042874015748
20
-0.4682642519685039
11
-2.502793622047244
21
-0.5298454724409448
0
LINE
8
BLACK
6
CONTINUOUS
10
-2.502793622047244
20
-0.5298454724409448
11
-2.4890367716535433
21
-0.5911075196850394
0
LINE
8
BLACK
6
CONTINUOUS
10
-2.4890367716535433
20
-0.5911075196850394
11
-2.4737806299212597
21
-0.6520135039370079
0
LINE
8
BLACK
6
CONTINUOUS
10
-2.4737806299212597
20
-0.6520135039370079
11
-2.4570343307086615
21
-0.7125267716535433
0
LINE
8
BLACK
6
CONTINUOUS
10
-2.4570343307086615
20
-0.7125267716535433
11
-2.438808031496063
21
-0.7726107874015747
0
LINE
8
BLACK
6
CONTINUOUS
10
-2.438808031496063
20
-0.7726107874015747
11
-2.4191127165354329
21
-0.8322294488188976
0
LINE
8
BLACK
6
CONTINUOUS
10
-2.4191127165354329
20
-0.8322294488188976
11
-2.3979601968503936
21
-0.891346811023622
0
LINE
8
BLACK
6
CONTINUOUS
10
-2.3979601968503936
20
-0.891346811023622
11
-2.3753632283464565
21
-0.9499272440944881
0
LINE
8
BLACK
6
CONTINUOUS
10
-2.3753632283464565
20
-0.9499272440944881
11
-2.351335433070866
21
-1.0079354724409448
0
LINE
8
BLACK
6
CONTINUOUS
10
-2.351335433070866
20
-1.0079354724409448
11
-2.3258912598425194
21
-1.0653365354330708
0
LINE
8
BLACK
6
CONTINUOUS
10
-2.3258912598425194
20
-1.0653365354330708
11
-2.2990461023622046
21
-1.1220959055118109
0
LINE
8
BLACK
6
CONTINUOUS
10
-2.2990461023622046
20
-1.1220959055118109
11
-2.2708160629921261
21
-1.1781793700787402
0
LINE
8
BLACK
6
CONTINUOUS
10
-2.2708160629921261
20
-1.1781793700787402
11
-2.2412181496062993
21
-1.2335531496062992
0
LINE
8
BLACK
6
CONTINUOUS
10
-2.2412181496062993
20
-1.2335531496062992
11
-2.2102702362204725
21
-1.2881838582677165
0
LINE
8
BLACK
6
CONTINUOUS
10
-2.2102702362204725
20
-1.2881838582677165
11
-2.1779909055118112
21
-1.342038622047244
0
LINE
8
BLACK
6
CONTINUOUS
10
-2.1779909055118112
20
-1.342038622047244
11
-2.1443996850393701
21
-1.3950849999999999
0
LINE
8
BLACK
6
CONTINUOUS
10
-2.1443996850393701
20
-1.3950849999999999
11
-2.1095167322834647
21
-1.4472910629921258
0
LINE
8
BLACK
6
CONTINUOUS
10
-2.1095167322834647
20
-1.4472910629921258
11
-2.0733630708661415
21
-1.4986252755905511
0
LINE
8
BLACK
6
CONTINUOUS
10
-2.0733630708661415
20
-1.4986252755905511
11
-2.0359605118110236
21
-1.549056811023622
0
LINE
8
BLACK
6
CONTINUOUS
10
-2.0359605118110236
20
-1.549056811023622
11
-1.9973315748031495
21
-1.5985552362204725
0
LINE
8
BLACK
6
CONTINUOUS
10
-1.9973315748031495
20
-1.5985552362204725
11
-1.9574994881889762
21
-1.647090748031496
0
LINE
8
BLACK
6
CONTINUOUS
10
-1.9574994881889762
20
-1.647090748031496
11
-1.9164883070866141
21
-1.694634094488189
0
LINE
8
BLACK
6
CONTINUOUS
10
-1.9164883070866141
20
-1.694634094488189
11
-1.8743226771653543
21
-1.7411566929133857
0
LINE
8
BLACK
6
CONTINUOUS
10
-1.8743226771653543
20
-1.7411566929133857
11
-1.831028031496063
21
-1.7866304724409448
0
LINE
8
BLACK
6
CONTINUOUS
10
-1.831028031496063
20
-1.7866304724409448
11
-1.7866304724409448
21
-1.831028031496063
0
LINE
8
BLACK
6
CONTINUOUS
10
-1.7866304724409448
20
-1.831028031496063
11
-1.7411566929133857
21
-1.8743226771653543
0
LINE
8
BLACK
6
CONTINUOUS
10
-1.7411566929133857
20
-1.8743226771653543
11
-1.694634094488189
21
-1.9164883070866141
0
LINE
8
BLACK
6
CONTINUOUS
10
-1.694634094488189
20
-1.9164883070866141
11
-1.647090748031496
21
-1.9574994881889762
0
LINE
8
BLACK
6
CONTINUOUS
10
-1.647090748031496
20
-1.9574994881889762
11
-1.5985552362204725
21
-1.9973315748031495
0
LINE
8
BLACK
6
CONTINUOUS
10
-1.5985552362204725
20
-1.9973315748031495
11
-1.549056811023622
21
-2.0359605118110236
0
LINE
8
BLACK
6
CONTINUOUS
10
-1.549056811023622
20
-2.0359605118110236
11
-1.4986252755905511
21
-2.0733630708661415
0
LINE
8
BLACK
6
CONTINUOUS
10
-1.4986252755905511
20
-2.0733630708661415
11
-1.4472910629921258
21
-2.1095167322834647
0
LINE
8
BLACK
6
CONTINUOUS
10
-1.4472910629921258
20
-2.1095167322834647
11
-1.3950849999999999
21
-2.1443996850393701
0
LINE
8
BLACK
6
CONTINUOUS
10
-1.3950849999999999
20
-2.1443996850393701
11
-1.342038622047244
21
-2.1779909055118112
0
LINE
8
BLACK
6
CONTINUOUS
10
-1.342038622047244
20
-2.1779909055118112
11
-1.2881838582677165
21
-2.2102702362204725
0
LINE
8
BLACK
6
CONTINUOUS
10
-1.2881838582677165
20
-2.2102702362204725
11
-1.2335531496062992
21
-2.2412181496062993
0
LINE
8
BLACK
6
CONTINUOUS
10
-1.2335531496062992
20
-2.2412181496062993
11
-1.1781793700787402
21
-2.2708160629921261
0
LINE
8
BLACK
6
CONTINUOUS
10
-1.1781793700787402
20
-2.2708160629921261
11
-1.1220959055118109
21
-2.2990461023622046
0
LINE
8
BLACK
6
CONTINUOUS
10
-1.1220959055118109
20
-2.2990461023622046
11
-1.0653365354330708
21
-2.3258912598425194
0
LINE
8
BLACK
6
CONTINUOUS
10
-1.0653365354330708
20
-2.3258912598425194
11
-1.0079354724409448
21
-2.351335433070866
0
LINE
8
BLACK
6
CONTINUOUS
10
-1.0079354724409448
20
-2.351335433070866
11
-0.9499272440944881
21
-2.3753632283464565
0
LINE
8
BLACK
6
CONTINUOUS
10
-0.9499272440944881
20
-2.3753632283464565
11
-0.891346811023622
21
-2.3979601968503936
0
LINE
8
BLACK
6
CONTINUOUS
10
-0.891346811023622
20
-2.3979601968503936
11
-0.8322294488188976
21
-2.4191127165354329
0
LINE
8
BLACK
6
CONTINUOUS
10
-0.8322294488188976
20
-2.4191127165354329
11
-0.7726107874015747
21
-2.438808031496063
0
LINE
8
BLACK
6
CONTINUOUS
10
-0.7726107874015747
20
-2.438808031496063
11
-0.7125267716535433
21
-2.4570343307086615
0
LINE
8
BLACK
6
CONTINUOUS
10
-0.7125267716535433
20
-2.4570343307086615
11
-0.6520135039370079
21
-2.4737806299212597
0
LINE
8
BLACK
6
CONTINUOUS
10
-0.6520135039370079
20
-2.4737806299212597
11
-0.5911075196850394
21
-2.4890367716535433
0
LINE
8
BLACK
6
CONTINUOUS
10
-0.5911075196850394
20
-2.4890367716535433
11
-0.5298454724409448
21
-2.502793622047244
0
LINE
8
BLACK
6
CONTINUOUS
10
-0.5298454724409448
20
-2.502793622047244
11
-0.4682642519685039
21
-2.515042874015748
0
LINE
8
BLACK
6
CONTINUOUS
10
-0.4682642519685039
20
-2.515042874015748
11
-0.4064009842519685
21
-2.5257772047244096
0
LINE
8
BLACK
6
CONTINUOUS
10
-0.4064009842519685
20
-2.5257772047244096
11
-0.3442929133858267
21
-2.5349900393700788
0
LINE
8
BLACK
6
CONTINUOUS
10
-0.3442929133858267
20
-2.5349900393700788
11
-0.2819774409448819
21
-2.5426759448818896
0
LINE
8
BLACK
6
CONTINUOUS
10
-0.2819774409448819
20
-2.5426759448818896
11
-0.219492125984252
21
-2.5488301968503935
0
LINE
8
BLACK
6
CONTINUOUS
10
-0.219492125984252
20
-2.5488301968503935
11
-0.1568746062992126
21
-2.5534491338582677
0
LINE
8
BLACK
6
CONTINUOUS
10
-0.1568746062992126
20
-2.5534491338582677
11
-0.0941625590551181
21
-2.55653
0
LINE
8
BLACK
6
CONTINUOUS
10
-0.0941625590551181
20
-2.55653
11
-0.0313938188976378
21
-2.5580708661417324
0
LINE
8
BLACK
6
CONTINUOUS
10
-0.0313938188976378
20
-2.5580708661417324
11
0.0313938188976378
21
-2.5580708661417324
0
LINE
8
BLACK
6
CONTINUOUS
10
0.0313938188976378
20
-2.5580708661417324
11
0.0941625590551181
21
-2.55653
0
LINE
8
BLACK
6
CONTINUOUS
10
0.0941625590551181
20
-2.55653
11
0.1568746062992126
21
-2.5534491338582677
0
LINE
8
BLACK
6
CONTINUOUS
10
0.1568746062992126
20
-2.5534491338582677
11
0.219492125984252
21
-2.5488301968503935
0
LINE
8
BLACK
6
CONTINUOUS
10
0.219492125984252
20
-2.5488301968503935
11
0.2819774409448819
21
-2.5426759448818896
0
LINE
8
BLACK
6
CONTINUOUS
10
0.2819774409448819
20
-2.5426759448818896
11
0.3442929133858267
21
-2.5349900393700788
0
LINE
8
BLACK
6
CONTINUOUS
10
0.3442929133858267
20
-2.5349900393700788
11
0.4064009842519685
21
-2.5257772047244096
0
LINE
8
BLACK
6
CONTINUOUS
10
0.4064009842519685
20
-2.5257772047244096
11
0.4682642519685039
21
-2.515042874015748
0
LINE
8
BLACK
6
CONTINUOUS
10
0.4682642519685039
20
-2.515042874015748
11
0.5298454724409448
21
-2.502793622047244
0
LINE
8
BLACK
6
CONTINUOUS
10
0.5298454724409448
20
-2.502793622047244
11
0.5911075196850394
21
-2.4890367716535433
0
LINE
8
BLACK
6
CONTINUOUS
10
0.5911075196850394
20
-2.4890367716535433
11
0.6520135039370079
21
-2.4737806299212597
0
LINE
8
BLACK
6
CONTINUOUS
10
0.6520135039370079
20
-2.4737806299212597
11
0.7125267716535433
21
-2.4570343307086615
0
LINE
8
BLACK
6
CONTINUOUS
10
0.7125267716535433
20
-2.4570343307086615
11
0.7726107874015747
21
-2.438808031496063
0
LINE
8
BLACK
6
CONTINUOUS
10
0.7726107874015747
20
-2.438808031496063
11
0.8322294488188976
21
-2.4191127165354329
0
LINE
8
BLACK
6
CONTINUOUS
10
0.8322294488188976
20
-2.4191127165354329
11
0.891346811023622
21
-2.3979601968503936
0
LINE
8
BLACK
6
CONTINUOUS
10
0.891346811023622
20
-2.3979601968503936
11
0.9499272440944881
21
-2.3753632283464565
0
LINE
8
BLACK
6
CONTINUOUS
10
0.9499272440944881
20
-2.3753632283464565
11
1.0079354724409448
21
-2.351335433070866
0
LINE
8
BLACK
6
CONTINUOUS
10
1.0079354724409448
20
-2.351335433070866
11
1.0653365354330708
21
-2.3258912598425194
0
LINE
8
BLACK
6
CONTINUOUS
10
1.0653365354330708
20
-2.3258912598425194
11
1.1220959055118109
21
-2.2990461023622046
0
LINE
8
BLACK
6
CONTINUOUS
10
1.1220959055118109
20
-2.2990461023622046
11
1.1781793700787402
21
-2.2708160629921261
0
LINE
8
BLACK
6
CONTINUOUS
10
1.1781793700787402
20
-2.2708160629921261
11
1.2335531496062992
21
-2.2412181496062993
0
LINE
8
BLACK
6
CONTINUOUS
10
1.2335531496062992
20
-2.2412181496062993
11
1.2881838582677165
21
-2.2102702362204725
0
LINE
8
BLACK
6
CONTINUOUS
10
1.2881838582677165
20
-2.2102702362204725
11
1.342038622047244
21
-2.1779909055118112
0
LINE
8
BLACK
6
CONTINUOUS
10
1.342038622047244
20
-2.1779909055118112
11
1.3950849999999999
21
-2.1443996850393701
0
LINE
8
BLACK
6
CONTINUOUS
10
1.3950849999999999
20
-2.1443996850393701
11
1.4472910629921258
21
-2.1095167322834647
0
LINE
8
BLACK
6
CONTINUOUS
10
1.4472910629921258
20
-2.1095167322834647
11
1.4986252755905511
21
-2.0733630708661415
0
LINE
8
BLACK
6
CONTINUOUS
10
1.4986252755905511
20
-2.0733630708661415
11
1.549056811023622
21
-2.0359605118110236
0
LINE
8
BLACK
6
CONTINUOUS
10
1.549056811023622
20
-2.0359605118110236
11
1.5985552362204725
21
-1.9973315748031495
0
LINE
8
BLACK
6
CONTINUOUS
10
1.5985552362204725
20
-1.9973315748031495
11
1.647090748031496
21
-1.9574994881889762
0
LINE
8
BLACK
6
CONTINUOUS
10
1.647090748031496
20
-1.9574994881889762
11
1.694634094488189
21
-1.9164883070866141
0
LINE
8
BLACK
6
CONTINUOUS
10
1.694634094488189
20
-1.9164883070866141
11
1.7411566929133857
21
-1.8743226771653543
0
LINE
8
BLACK
6
CONTINUOUS
10
1.7411566929133857
20
-1.8743226771653543
11
1.7866304724409448
21
-1.831028031496063
0
LINE
8
BLACK
6
CONTINUOUS
10
1.7866304724409448
20
-1.831028031496063
11
1.831028031496063
21
-1.7866304724409448
0
LINE
8
BLACK
6
CONTINUOUS
10
1.831028031496063
20
-1.7866304724409448
11
1.8743226771653543
21
-1.7411566929133857
0
LINE
8
BLACK
6
CONTINUOUS
10
1.8743226771653543
20
-1.7411566929133857
11
1.9164883070866141
21
-1.694634094488189
0
LINE
8
BLACK
6
CONTINUOUS
10
1.9164883070866141
20
-1.694634094488189
11
1.9574994881889762
21
-1.647090748031496
0
LINE
8
BLACK
6
CONTINUOUS
10
1.9574994881889762
20
-1.647090748031496
11
1.9973315748031495
21
-1.5985552362204725
0
LINE
8
BLACK
6
CONTINUOUS
10
1.9973315748031495
20
-1.5985552362204725
11
2.0359605118110236
21
-1.549056811023622
0
LINE
8
BLACK
6
CONTINUOUS
10
2.0359605118110236
20
-1.549056811023622
11
2.0733630708661415
21
-1.4986252755905511
0
LINE
8
BLACK
6
CONTINUOUS
10
2.0733630708661415
20
-1.4986252755905511
11
2.1095167322834647
21
-1.4472910629921258
0
LINE
8
BLACK
6
CONTINUOUS
10
2.1095167322834647
20
-1.4472910629921258
11
2.1443996850393701
21
-1.3950849999999999
0
LINE
8
BLACK
6
CONTINUOUS
10
2.1443996850393701
20
-1.3950849999999999
11
2.1779909055118112
21
-1.342038622047244
0
LINE
8
BLACK
6
CONTINUOUS
10
2.1779909055118112
20
-1.342038622047244
11
2.2102702362204725
21
-1.2881838582677165
0
LINE
8
BLACK
6
CONTINUOUS
10
2.2102702362204725
20
-1.2881838582677165
11
2.2412181496062993
21
-1.2335531496062992
0
LINE
8
BLACK
6
CONTINUOUS
10
2.2412181496062993
20
-1.2335531496062992
11
2.2708160629921261
21
-1.1781793700787402
0
LINE
8
BLACK
6
CONTINUOUS
10
2.2708160629921261
20
-1.1781793700787402
11
2.2990461023622046
21
-1.1220959055118109
0
LINE
8
BLACK
6
CONTINUOUS
10
2.2990461023622046
20
-1.1220959055118109
11
2.3258912598425194
21
-1.0653365354330708
0
LINE
8
BLACK
6
CONTINUOUS
10
2.3258912598425194
20
-1.0653365354330708
11
2.351335433070866
21
-1.0079354724409448
0
LINE
8
BLACK
6
CONTINUOUS
10
2.351335433070866
20
-1.0079354724409448
11
2.3753632283464565
21
-0.9499272440944881
0
LINE
8
BLACK
6
CONTINUOUS
10
2.3753632283464565
20
-0.9499272440944881
11
2.3979601968503936
21
-0.891346811023622
0
LINE
8
BLACK
6
CONTINUOUS
10
2.3979601968503936
20
-0.891346811023622
11
2.4191127165354329
21
-0.8322294488188976
0
LINE
8
BLACK
6
CONTINUOUS
10
2.4191127165354329
20
-0.8322294488188976
11
2.438808031496063
21
-0.7726107874015747
0
LINE
8
BLACK
6
CONTINUOUS
10
2.438808031496063
20
-0.7726107874015747
11
2.4570343307086615
21
-0.7125267716535433
0
LINE
8
BLACK
6
CONTINUOUS
10
2.4570343307086615
20
-0.7125267716535433
11
2.4737806299212597
21
-0.6520135039370079
0
LINE
8
BLACK
6
CONTINUOUS
10
2.4737806299212597
20
-0.6520135039370079
11
2.4890367716535433
21
-0.5911075196850394
0
LINE
8
BLACK
6
CONTINUOUS
10
2.4890367716535433
20
-0.5911075196850394
11
2.502793622047244
21
-0.5298454724409448
0
LINE
8
BLACK
6
CONTINUOUS
10
2.502793622047244
20
-0.5298454724409448
11
2.515042874015748
21
-0.4682642519685039
0
LINE
8
BLACK
6
CONTINUOUS
10
2.515042874015748
20
-0.4682642519685039
11
2.5257772047244096
21
-0.4064009842519685
0
LINE
8
BLACK
6
CONTINUOUS
10
2.5257772047244096
20
-0.4064009842519685
11
2.5349900393700788
21
-0.3442929133858267
0
LINE
8
BLACK
6
CONTINUOUS
10
2.5349900393700788
20
-0.3442929133858267
11
2.5426759448818896
21
-0.2819774409448819
0
LINE
8
BLACK
6
CONTINUOUS
10
2.5426759448818896
20
-0.2819774409448819
11
2.5488301968503935
21
-0.219492125984252
0
LINE
8
BLACK
6
CONTINUOUS
10
2.5488301968503935
20
-0.219492125984252
11
2.5534491338582677
21
-0.1568746062992126
0
LINE
8
BLACK
6
CONTINUOUS
10
2.5534491338582677
20
-0.1568746062992126
11
2.55653
21
-0.0941625590551181
0
LINE
8
BLACK
6
CONTINUOUS
10
2.55653
20
-0.0941625590551181
11
2.5580708661417324
21
-0.0313938188976378
0
LINE
8
BLACK
6
CONTINUOUS
10
2.5580708661417324
20
-0.0313938188976378
11
2.5580708661417324
21
0.0313938188976378
0
LINE
8
BLACK
6
CONTINUOUS
10
2.5580708661417324
20
0.0313938188976378
11
2.55653
21
0.0941625590551181
0
LINE
8
BLACK
6
CONTINUOUS
10
2.55653
20
0.0941625590551181
11
2.5534491338582677
21
0.1568746062992126
0
LINE
8
BLACK
6
CONTINUOUS
10
2.5534491338582677
20
0.1568746062992126
11
2.5488301968503935
21
0.219492125984252
0
LINE
8
BLACK
6
CONTINUOUS
10
2.5488301968503935
20
0.219492125984252
11
2.5426759448818896
21
0.2819774409448819
0
LINE
8
BLACK
6
CONTINUOUS
10
2.5426759448818896
20
0.2819774409448819
11
2.5349900393700788
21
0.3442929133858267
0
LINE
8
BLACK
6
CONTINUOUS
10
2.5349900393700788
20
0.3442929133858267
11
2.5257772047244096
21
0.4064009842519685
0
LINE
8
BLACK
6
CONTINUOUS
10
2.5257772047244096
20
0.4064009842519685
11
2.515042874015748
21
0.4682642519685039
0
LINE
8
BLACK
6
CONTINUOUS
10
2.515042874015748
20
0.4682642519685039
11
2.502793622047244
21
0.5298454724409448
0
LINE
8
BLACK
6
CONTINUOUS
10
2.502793622047244
20
0.5298454724409448
11
2.4890367716535433
21
0.5911075196850394
0
LINE
8
BLACK
6
CONTINUOUS
10
2.4890367716535433
20
0.5911075196850394
11
2.4737806299212597
21
0.6520135039370079
0
LINE
8
BLACK
6
CONTINUOUS
10
2.4737806299212597
20
0.6520135039370079
11
2.4570343307086615
21
0.7125267716535433
0
LINE
8
BLACK
6
CONTINUOUS
10
2.4570343307086615
20
0.7125267716535433
11
2.438808031496063
21
0.7726107874015747
0
LINE
8
BLACK
6
CONTINUOUS
10
2.438808031496063
20
0.7726107874015747
11
2.4191127165354329
21
0.8322294488188976
0
LINE
8
BLACK
6
CONTINUOUS
10
2.4191127165354329
20
0.8322294488188976
11
2.3979601968503936
21
0.891346811023622
0
LINE
8
BLACK
6
CONTINUOUS
10
2.3979601968503936
20
0.891346811023622
11
2.3753632283464565
21
0.9499272440944881
0
LINE
8
BLACK
6
CONTINUOUS
10
2.3753632283464565
20
0.9499272440944881
11
2.351335433070866
21
1.0079354724409448
0
LINE
8
BLACK
6
CONTINUOUS
10
2.351335433070866
20
1.0079354724409448
11
2.3258912598425194
21
1.0653365354330708
0
LINE
8
BLACK
6
CONTINUOUS
10
2.3258912598425194
20
1.0653365354330708
11
2.2990461023622046
21
1.1220959055118109
0
LINE
8
BLACK
6
CONTINUOUS
10
2.2990461023622046
20
1.1220959055118109
11
2.2708160629921261
21
1.1781793700787402
0
LINE
8
BLACK
6
CONTINUOUS
10
2.2708160629921261
20
1.1781793700787402
11
2.2412181496062993
21
1.2335531496062992
0
LINE
8
BLACK
6
CONTINUOUS
10
2.2412181496062993
20
1.2335531496062992
11
2.2102702362204725
21
1.2881838582677165
0
LINE
8
BLACK
6
CONTINUOUS
10
2.2102702362204725
20
1.2881838582677165
11
2.1779909055118112
21
1.342038622047244
0
LINE
8
BLACK
6
CONTINUOUS
10
2.1779909055118112
20
1.342038622047244
11
2.1443996850393701
21
1.3950849999999999
0
LINE
8
BLACK
6
CONTINUOUS
10
2.1443996850393701
20
1.3950849999999999
11
2.1095167322834647
21
1.4472910629921258
0
LINE
8
BLACK
6
CONTINUOUS
10
2.1095167322834647
20
1.4472910629921258
11
2.0733630708661415
21
1.4986252755905511
0
LINE
8
BLACK
6
CONTINUOUS
10
2.0733630708661415
20
1.4986252755905511
11
2.0359605118110236
21
1.549056811023622
0
LINE
8
BLACK
6
CONTINUOUS
10
2.0359605118110236
20
1.549056811023622
11
1.9973315748031495
21
1.5985552362204725
0
LINE
8
BLACK
6
CONTINUOUS
10
1.9973315748031495
20
1.5985552362204725
11
1.9574994881889762
21
1.647090748031496
0
LINE
8
BLACK
6
CONTINUOUS
10
1.9574994881889762
20
1.647090748031496
11
1.9164883070866141
21
1.694634094488189
0
LINE
8
BLACK
6
CONTINUOUS
10
1.9164883070866141
20
1.694634094488189
11
1.8743226771653543
21
1.7411566929133857
0
LINE
8
BLACK
6
CONTINUOUS
10
1.8743226771653543
20
1.7411566929133857
11
1.831028031496063
21
1.7866304724409448
0
LINE
8
BLACK
6
CONTINUOUS
10
1.831028031496063
20
1.7866304724409448
11
1.7866304724409448
21
1.831028031496063
0
LINE
8
BLACK
6
CONTINUOUS
10
1.7866304724409448
20
1.831028031496063
11
1.7411566929133857
21
1.8743226771653543
0
LINE
8
BLACK
6
CONTINUOUS
10
1.7411566929133857
20
1.8743226771653543
11
1.694634094488189
21
1.9164883070866141
0
LINE
8
BLACK
6
CONTINUOUS
10
1.694634094488189
20
1.9164883070866141
11
1.647090748031496
21
1.9574994881889762
0
LINE
8
BLACK
6
CONTINUOUS
10
1.647090748031496
20
1.9574994881889762
11
1.5985552362204725
21
1.9973315748031495
0
LINE
8
BLACK
6
CONTINUOUS
10
1.5985552362204725
20
1.9973315748031495
11
1.549056811023622
21
2.0359605118110236
0
LINE
8
BLACK
6
CONTINUOUS
10
1.549056811023622
20
2.0359605118110236
11
1.4986252755905511
21
2.0733630708661415
0
LINE
8
BLACK
6
CONTINUOUS
10
1.4986252755905511
20
2.0733630708661415
11
1.4472910629921258
21
2.1095167322834647
0
LINE
8
BLACK
6
CONTINUOUS
10
1.4472910629921258
20
2.1095167322834647
11
1.3950849999999999
21
2.1443996850393701
0
LINE
8
BLACK
6
CONTINUOUS
10
1.3950849999999999
20
2.1443996850393701
11
1.342038622047244
21
2.1779909055118112
0
LINE
8
BLACK
6
CONTINUOUS
10
1.342038622047244
20
2.1779909055118112
11
1.2881838582677165
21
2.2102702362204725
0
LINE
8
BLACK
6
CONTINUOUS
10
1.2881838582677165
20
2.2102702362204725
11
1.2335531496062992
21
2.2412181496062993
0
LINE
8
BLACK
6
CONTINUOUS
10
1.2335531496062992
20
2.2412181496062993
11
1.1781793700787402
21
2.2708160629921261
0
LINE
8
BLACK
6
CONTINUOUS
10
1.1781793700787402
20
2.2708160629921261
11
1.1220959055118109
21
2.2990461023622046
0
LINE
8
BLACK
6
CONTINUOUS
10
1.1220959055118109
20
2.2990461023622046
11
1.0653365354330708
21
2.3258912598425194
0
LINE
8
BLACK
6
CONTINUOUS
10
1.0653365354330708
20
2.3258912598425194
11
1.0079354724409448
21
2.351335433070866
0
LINE
8
BLACK
6
CONTINUOUS
10
1.0079354724409448
20
2.351335433070866
11
0.9499272440944881
21
2.3753632283464565
0
LINE
8
BLACK
6
CONTINUOUS
10
0.9499272440944881
20
2.3753632283464565
11
0.891346811023622
21
2.3979601968503936
0
LINE
8
BLACK
6
CONTINUOUS
10
0.891346811023622
20
2.3979601968503936
11
0.8322294488188976
21
2.4191127165354329
0
LINE
8
BLACK
6
CONTINUOUS
10
0.8322294488188976
20
2.4191127165354329
11
0.7726107874015747
21
2.438808031496063
0
LINE
8
BLACK
6
CONTINUOUS
10
0.7726107874015747
20
2.438808031496063
11
0.7125267716535433
21
2.4570343307086615
0
LINE
8
BLACK
6
CONTINUOUS
10
0.7125267716535433
20
2.4570343307086615
11
0.6520135039370079
21
2.4737806299212597
0
LINE
8
BLACK
6
CONTINUOUS
10
0.6520135039370079
20
2.4737806299212597
11
0.5911075196850394
21
2.4890367716535433
0
LINE
8
BLACK
6
CONTINUOUS
10
0.5911075196850394
20
2.4890367716535433
11
0.5298454724409448
21
2.502793622047244
0
LINE
8
BLACK
6
CONTINUOUS
10
0.5298454724409448
20
2.502793622047244
11
0.4682642519685039
21
2.515042874015748
0
LINE
8
BLACK
6
CONTINUOUS
10
0.4682642519685039
20
2.515042874015748
11
0.4064009842519685
21
2.5257772047244096
0
LINE
8
BLACK
6
CONTINUOUS
10
0.4064009842519685
20
2.5257772047244096
11
0.3442929133858267
21
2.5349900393700788
0
LINE
8
BLACK
6
CONTINUOUS
10
0.3442929133858267
20
2.5349900393700788
11
0.2819774409448819
21
2.5426759448818896
0
LINE
8
BLACK
6
CONTINUOUS
10
0.2819774409448819
20
2.5426759448818896
11
0.219492125984252
21
2.5488301968503935
0
LINE
8
BLACK
6
CONTINUOUS
10
0.219492125984252
20
2.5488301968503935
11
0.1568746062992126
21
2.5534491338582677
0
LINE
8
BLACK
6
CONTINUOUS
10
0.1568746062992126
20
2.5534491338582677
11
0.0941625590551181
21
2.55653
0
LINE
8
BLACK
6
CONTINUOUS
10
0.0941625590551181
20
2.55653
11
0.0313938188976378
21
2.5580708661417324
0
LINE
8
BLACK
6
CONTINUOUS
10
0.0313938188976378
20
2.5580708661417324
11
-0.0313938188976378
21
2.5580708661417324
0
LINE
8
BLACK
6
CONTINUOUS
10
-0.0313938188976378
20
2.5580708661417324
11
-0.0941625590551181
21
2.55653
0
LINE
8
BLACK
6
CONTINUOUS
10
-0.0941625590551181
20
2.55653
11
-0.1568746062992126
21
2.5534491338582677
0
LINE
8
BLACK
6
CONTINUOUS
10
-0.1568746062992126
20
2.5534491338582677
11
-0.219492125984252
21
2.5488301968503935
0
LINE
8
BLACK
6
CONTINUOUS
10
-0.219492125984252
20
2.5488301968503935
11
-0.2819774409448819
21
2.5426759448818896
0
LINE
8
BLACK
6
CONTINUOUS
10
-0.2819774409448819
20
2.5426759448818896
11
-0.3442929133858267
21
2.5349900393700788
0
LINE
8
BLACK
6
CONTINUOUS
10
-0.3442929133858267
20
2.5349900393700788
11
-0.4064009842519685
21
2.5257772047244096
0
LINE
8
BLACK
6
CONTINUOUS
10
-0.4064009842519685
20
2.5257772047244096
11
-0.4682642519685039
21
2.515042874015748
0
LINE
8
BLACK
6
CONTINUOUS
10
-0.4682642519685039
20
2.515042874015748
11
-0.5298454724409448
21
2.502793622047244
0
LINE
8
BLACK
6
CONTINUOUS
10
-0.5298454724409448
20
2.502793622047244
11
-0.5911075196850394
21
2.4890367716535433
0
LINE
8
BLACK
6
CONTINUOUS
10
-0.5911075196850394
20
2.4890367716535433
11
-0.6520135039370079
21
2.4737806299212597
0
LINE
8
BLACK
6
CONTINUOUS
10
-0.6520135039370079
20
2.4737806299212597
11
-0.7125267716535433
21
2.4570343307086615
0
LINE
8
BLACK
6
CONTINUOUS
10
-0.7125267716535433
20
2.4570343307086615
11
-0.7726107874015747
21
2.438808031496063
0
LINE
8
BLACK
6
CONTINUOUS
10
-0.7726107874015747
20
2.438808031496063
11
-0.8322294488188976
21
2.4191127165354329
0
LINE
8
BLACK
6
CONTINUOUS
10
-0.8322294488188976
20
2.4191127165354329
11
-0.891346811023622
21
2.3979601968503936
0
LINE
8
BLACK
6
CONTINUOUS
10
-0.891346811023622
20
2.3979601968503936
11
-0.9499272440944881
21
2.3753632283464565
0
LINE
8
BLACK
6
CONTINUOUS
10
-0.9499272440944881
20
2.3753632283464565
11
-1.0079354724409448
21
2.351335433070866
0
LINE
8
BLACK
6
CONTINUOUS
10
-1.0079354724409448
20
2.351335433070866
11
-1.0653365354330708
21
2.3258912598425194
0
LINE
8
BLACK
6
CONTINUOUS
10
-1.0653365354330708
20
2.3258912598425194
11
-1.1220959055118109
21
2.2990461023622046
0
LINE
8
BLACK
6
CONTINUOUS
10
-1.1220959055118109
20
2.2990461023622046
11
-1.1781793700787402
21
2.2708160629921261
0
LINE
8
BLACK
6
CONTINUOUS
10
-1.1781793700787402
20
2.2708160629921261
11
-1.2335531496062992
21
2.2412181496062993
0
LINE
8
BLACK
6
CONTINUOUS
10
-1.2335531496062992
20
2.2412181496062993
11
-1.2881838582677165
21
2.2102702362204725
0
LINE
8
BLACK
6
CONTINUOUS
10
-1.2881838582677165
20
2.2102702362204725
11
-1.342038622047244
21
2.1779909055118112
0
LINE
8
BLACK
6
CONTINUOUS
10
-1.342038622047244
20
2.1779909055118112
11
-1.3950849999999999
21
2.1443996850393701
0
LINE
8
BLACK
6
CONTINUOUS
10
-1.3950849999999999
20
2.1443996850393701
11
-1.4472910629921258
21
2.1095167322834647
0
LINE
8
BLACK
6
CONTINUOUS
10
-1.4472910629921258
20
2.1095167322834647
11
-1.4986252755905511
21
2.0733630708661415
0
LINE
8
BLACK
6
CONTINUOUS
10
-1.4986252755905511
20
2.0733630708661415
11
-1.549056811023622
21
2.0359605118110236
0
LINE
8
BLACK
6
CONTINUOUS
10
-1.549056811023622
20
2.0359605118110236
11
-1.5985552362204725
21
1.9973315748031495
0
LINE
8
BLACK
6
CONTINUOUS
10
-1.5985552362204725
20
1.9973315748031495
11
-1.647090748031496
21
1.9574994881889762
0
LINE
8
BLACK
6
CONTINUOUS
10
-1.647090748031496
20
1.9574994881889762
11
-1.694634094488189
21
1.9164883070866141
0
LINE
8
BLACK
6
CONTINUOUS
10
-1.694634094488189
20
1.9164883070866141
11
-1.7411566929133857
21
1.8743226771653543
0
LINE
8
BLACK
6
CONTINUOUS
10
-1.7411566929133857
20
1.8743226771653543
11
-1.7866304724409448
21
1.831028031496063
0
LINE
8
BLACK
6
CONTINUOUS
10
-1.7866304724409448
20
1.831028031496063
11
-1.831028031496063
21
1.7866304724409448
0
LINE
8
BLACK
6
CONTINUOUS
10
-1.831028031496063
20
1.7866304724409448
11
-1.8743226771653543
21
1.7411566929133857
0
LINE
8
BLACK
6
CONTINUOUS
10
-1.8743226771653543
20
1.7411566929133857
11
-1.9164883070866141
21
1.694634094488189
0
LINE
8
BLACK
6
CONTINUOUS
10
-1.9164883070866141
20
1.694634094488189
11
-1.9574994881889762
21
1.647090748031496
0
LINE
8
BLACK
6
CONTINUOUS
10
-1.9574994881889762
20
1.647090748031496
11
-1.9973315748031495
21
1.5985552362204725
0
LINE
8
BLACK
6
CONTINUOUS
10
-1.9973315748031495
20
1.5985552362204725
11
-2.0359605118110236
21
1.549056811023622
0
LINE
8
BLACK
6
CONTINUOUS
10
-2.0359605118110236
20
1.549056811023622
11
-2.0733630708661415
21
1.4986252755905511
0
LINE
8
BLACK
6
CONTINUOUS
10
-2.0733630708661415
20
1.4986252755905511
11
-2.1095167322834647
21
1.4472910629921258
0
LINE
8
BLACK
6
CONTINUOUS
10
-2.1095167322834647
20
1.4472910629921258
11
-2.1443996850393701
21
1.3950849999999999
0
LINE
8
BLACK
6
CONTINUOUS
10
-2.1443996850393701
20
1.3950849999999999
11
-2.1779909055118112
21
1.342038622047244
0
LINE
8
BLACK
6
CONTINUOUS
10
-2.1779909055118112
20
1.342038622047244
11
-2.2102702362204725
21
1.2881838582677165
0
LINE
8
BLACK
6
CONTINUOUS
10
-2.2102702362204725
20
1.2881838582677165
11
-2.2412181496062993
21
1.2335531496062992
0
LINE
8
BLACK
6
CONTINUOUS
10
-2.2412181496062993
20
1.2335531496062992
11
-2.2708160629921261
21
1.1781793700787402
0
LINE
8
BLACK
6
CONTINUOUS
10
-2.2708160629921261
20
1.1781793700787402
11
-2.2990461023622046
21
1.1220959055118109
0
LINE
8
BLACK
6
CONTINUOUS
10
-2.2990461023622046
20
1.1220959055118109
11
-2.3258912598425194
21
1.0653365354330708
0
LINE
8
BLACK
6
CONTINUOUS
10
-2.3258912598425194
20
1.0653365354330708
11
-2.351335433070866
21
1.0079354724409448
0
LINE
8
BLACK
6
CONTINUOUS
10
-2.351335433070866
20
1.0079354724409448
11
-2.3753632283464565
21
0.9499272440944881
0
LINE
8
BLACK
6
CONTINUOUS
10
-2.3753632283464565
20
0.9499272440944881
11
-2.3979601968503936
21
0.891346811023622
0
LINE
8
BLACK
6
CONTINUOUS
10
-2.3979601968503936
20
0.891346811023622
11
-2.4191127165354329
21
0.8322294488188976
0
LINE
8
BLACK
6
CONTINUOUS
10
-2.4191127165354329
20
0.8322294488188976
11
-2.438808031496063
21
0.7726107874015747
0
LINE
8
BLACK
6
CONTINUOUS
10
-2.438808031496063
20
0.7726107874015747
11
-2.4570343307086615
21
0.7125267716535433
0
LINE
8
BLACK
6
CONTINUOUS
10
-2.4570343307086615
20
0.7125267716535433
11
-2.4737806299212597
21
0.6520135039370079
0
LINE
8
BLACK
6
CONTINUOUS
10
-2.4737806299212597
20
0.6520135039370079
11
-2.4890367716535433
21
0.5911075196850394
0
LINE
8
BLACK
6
CONTINUOUS
10
-2.4890367716535433
20
0.5911075196850394
11
-2.502793622047244
21
0.5298454724409448
0
LINE
8
BLACK
6
CONTINUOUS
10
-2.502793622047244
20
0.5298454724409448
11
-2.515042874015748
21
0.4682642519685039
0
LINE
8
BLACK
6
CONTINUOUS
10
-2.515042874015748
20
0.4682642519685039
11
-2.5257772047244096
21
0.4064009842519685
0
LINE
8
BLACK
6
CONTINUOUS
10
-2.5257772047244096
20
0.4064009842519685
11
-2.5349900393700788
21
0.3442929133858267
0
LINE
8
BLACK
6
CONTINUOUS
10
-2.5349900393700788
20
0.3442929133858267
11
-2.5426759448818896
21
0.2819774409448819
0
LINE
8
BLACK
6
CONTINUOUS
10
-2.5426759448818896
20
0.2819774409448819
11
-2.5488301968503935
21
0.219492125984252
0
LINE
8
BLACK
6
CONTINUOUS
10
-2.5488301968503935
20
0.219492125984252
11
-2.5534491338582677
21
0.1568746062992126
0
LINE
8
BLACK
6
CONTINUOUS
10
-2.5534491338582677
20
0.1568746062992126
11
-2.55653
21
0.0941625590551181
0
LINE
8
BLACK
6
CONTINUOUS
10
-2.55653
20
0.0941625590551181
11
-2.5580708661417324
21
0.0313938188976378
0
LINE
8
BLACK
6
CONTINUOUS
10
-2.5580708661417324
20
0.0313938188976378
11
-2.5580708661417324
21
-0.0313938188976378
0
CIRCLE
8
BLACK
10
0.45
20
-1.918503937007874
40
0.0068897637795276
0
CIRCLE
8
BLACK
10
0.45
20
-2.0185039370078739
40
0.0068897637795276
0
CIRCLE
8
BLACK
10
0.35
20
-1.918503937007874
40
0.0068897637795276
0
CIRCLE
8
BLACK
10
0.35
20
-2.0185039370078739
40
0.0068897637795276
0
CIRCLE
8
BLACK
10
0.25
20
-1.918503937007874
40
0.0068897637795276
0
CIRCLE
8
BLACK
10
0.25
20
-2.0185039370078739
40
0.0068897637795276
0
CIRCLE
8
BLACK
10
0.15
20
-1.918503937007874
40
0.0068897637795276
0
CIRCLE
8
BLACK
10
0.15
20
-2.0185039370078739
40
0.0068897637795276
0
CIRCLE
8
BLACK
10
0.05
20
-1.918503937007874
40
0.0068897637795276
0
CIRCLE
8
BLACK
10
0.05
20
-2.0185039370078739
40
0.0068897637795276
0
CIRCLE
8
BLACK
10
-0.05
20
-1.918503937007874
40
0.0068897637795276
0
CIRCLE
8
BLACK
10
-0.05
20
-2.0185039370078739
40
0.0068897637795276
0
CIRCLE
8
BLACK
10
-0.15
20
-1.918503937007874
40
0.0068897637795276
0
CIRCLE
8
BLACK
10
-0.15
20
-2.0185039370078739
40
0.0068897637795276
0
CIRCLE
8
BLACK
10
-0.25
20
-1.918503937007874
40
0.0068897637795276
0
CIRCLE
8
BLACK
10
-0.25
20
-2.0185039370078739
40
0.0068897637795276
0
CIRCLE
8
BLACK
10
-0.35
20
-1.918503937007874
40
0.0068897637795276
0
CIRCLE
8
BLACK
10
-0.35
20
-2.0185039370078739
40
0.0068897637795276
0
CIRCLE
8
BLACK
10
-0.45
20
-1.918503937007874
40
0.0068897637795276
0
CIRCLE
8
BLACK
10
-0.45
20
-2.0185039370078739
40
0.0068897637795276
0
CIRCLE
8
BLACK
10
0.7858267716535433
20
-1.9196850393700786
40
0.0068897637795276
0
CIRCLE
8
BLACK
10
0.8858267716535433
20
-1.9196850393700786
40
0.0068897637795276
0
CIRCLE
8
BLACK
10
0.7858267716535433
20
-2.0196850393700787
40
0.0068897637795276
0
CIRCLE
8
BLACK
10
0.8858267716535433
20
-2.0196850393700787
40
0.0068897637795276
0
CIRCLE
8
BLACK
10
0.7858267716535433
20
-2.1196850393700788
40
0.0068897637795276
0
CIRCLE
8
BLACK
10
0.8858267716535433
20
-2.1196850393700788
40
0.0068897637795276
0
CIRCLE
8
BLACK
10
0.
20
1.8503937007874016
40
0.0068897637795276
0
CIRCLE
8
BLACK
10
-0.1
20
1.9503937007874015
40
0.0068897637795276
0
CIRCLE
8
BLACK
10
-0.1
20
1.7503937007874015
40
0.0068897637795276
0
CIRCLE
8
BLACK
10
0.1
20
1.9503937007874015
40
0.0068897637795276
0
CIRCLE
8
BLACK
10
0.1
20
1.7503937007874015
40
0.0068897637795276
0
CIRCLE
8
BLACK
10
0.45
20
-1.918503937007874
40
0.0068897637795276
0
CIRCLE
8
BLACK
10
0.45
20
-2.0185039370078739
40
0.0068897637795276
0
CIRCLE
8
BLACK
10
0.35
20
-1.918503937007874
40
0.0068897637795276
0
CIRCLE
8
BLACK
10
0.35
20
-2.0185039370078739
40
0.0068897637795276
0
CIRCLE
8
BLACK
10
0.25
20
-1.918503937007874
40
0.0068897637795276
0
CIRCLE
8
BLACK
10
0.25
20
-2.0185039370078739
40
0.0068897637795276
0
CIRCLE
8
BLACK
10
0.15
20
-1.918503937007874
40
0.0068897637795276
0
CIRCLE
8
BLACK
10
0.15
20
-2.0185039370078739
40
0.0068897637795276
0
CIRCLE
8
BLACK
10
0.05
20
-1.918503937007874
40
0.0068897637795276
0
CIRCLE
8
BLACK
10
0.05
20
-2.0185039370078739
40
0.0068897637795276
0
CIRCLE
8
BLACK
10
-0.05
20
-1.918503937007874
40
0.0068897637795276
0
CIRCLE
8
BLACK
10
-0.05
20
-2.0185039370078739
40
0.0068897637795276
0
CIRCLE
8
BLACK
10
-0.15
20
-1.918503937007874
40
0.0068897637795276
0
CIRCLE
8
BLACK
10
-0.15
20
-2.0185039370078739
40
0.0068897637795276
0
CIRCLE
8
BLACK
10
-0.25
20
-1.918503937007874
40
0.0068897637795276
0
CIRCLE
8
BLACK
10
-0.25
20
-2.0185039370078739
40
0.0068897637795276
0
CIRCLE
8
BLACK
10
-0.35
20
-1.918503937007874
40
0.0068897637795276
0
CIRCLE
8
BLACK
10
-0.35
20
-2.0185039370078739
40
0.0068897637795276
0
CIRCLE
8
BLACK
10
-0.45
20
-1.918503937007874
40
0.0068897637795276
0
CIRCLE
8
BLACK
10
-0.45
20
-2.0185039370078739
40
0.0068897637795276
0
CIRCLE
8
BLACK
10
0.7858267716535433
20
-1.9196850393700786
40
0.0068897637795276
0
CIRCLE
8
BLACK
10
0.8858267716535433
20
-1.9196850393700786
40
0.0068897637795276
0
CIRCLE
8
BLACK
10
0.7858267716535433
20
-2.0196850393700787
40
0.0068897637795276
0
CIRCLE
8
BLACK
10
0.8858267716535433
20
-2.0196850393700787
40
0.0068897637795276
0
CIRCLE
8
BLACK
10
0.7858267716535433
20
-2.1196850393700788
40
0.0068897637795276
0
CIRCLE
8
BLACK
10
0.8858267716535433
20
-2.1196850393700788
40
0.0068897637795276
0
CIRCLE
8
BLACK
10
0.
20
1.8503937007874016
40
0.0068897637795276
0
CIRCLE
8
BLACK
10
-0.1
20
1.9503937007874015
40
0.0068897637795276
0
CIRCLE
8
BLACK
10
-0.1
20
1.7503937007874015
40
0.0068897637795276
0
CIRCLE
8
BLACK
10
0.1
20
1.9503937007874015
40
0.0068897637795276
0
CIRCLE
8
BLACK
10
0.1
20
1.7503937007874015
40
0.0068897637795276
  0
ENDSEC
  0
EOF
