  0
SECTION
  2
HEADER
  9
$ANGBASE
  50
0.0
  9
$ANGDIR
  70
1
  9
$MEASUREMENT
  70
0
  9
$INSUNITS
  70
1
  0
ENDSEC
  0
SECTION
  2
TABLES
  0
TABLE
  2
LTYPE
  70
4
  0
LTYPE
  5
40F
  2
CONTINUOUS
  70
0
  3
Solid line
  72
65
  73
0
  40
0.0
  0
LTYPE
  5
410
  2
DASHDOT
 70
0
  3
Dash Dot ____ _ ____ _
 72
65
 73
4
 40
2.0
 49
1.25
 49
-0.25
 49
0.25
 49
-0.25
  0
LTYPE
  5
411
  2
DASHED
 70
0
  3
Dashed __ __ __ __ __
 72
65
 73
2
 40
0.75
 49
0.5
 49
-0.25
  0
LTYPE
  5
43B
  2
DOTTED
 70
0
  3
Dotted .  .  .  .
 72
65
 73
2
 40
0.2
 49
0.0
 49
-0.2
  0
ENDTAB
  0
TABLE
  2
STYLE
  70
4
  0
STYLE
  2
KICAD
  70
0
  40
0
  41
1
  42
1
  50
0
  71
0
  3
isocp.shx
  0
STYLE
  2
KICADB
  70
0
  40
0
  41
1
  42
1
  50
0
  71
0
  3
isocp.shx
  0
STYLE
  2
KICADI
  70
0
  40
0
  41
1
  42
1
  50
15
  71
0
  3
isocp.shx
  0
STYLE
  2
KICADBI
  70
0
  40
0
  41
1
  42
1
  50
15
  71
0
  3
isocp.shx
  0
ENDTAB
  0
TABLE
  2
LAYER
  70
1
  0
LAYER
  2
BLACK
  70
0
  62
250
  6
CONTINUOUS
  0
ENDTAB
  0
ENDSEC
  0
SECTION
  2
ENTITIES
0
LINE
8
BLACK
6
CONTINUOUS
10
0.9364028346456693
20
-1.8667890157480314
11
0.9374672440944881
21
-1.8672299212598424
0
LINE
8
BLACK
6
CONTINUOUS
10
0.9374672440944881
20
-1.8672299212598424
11
0.9382818897637795
21
-1.8680445669291339
0
LINE
8
BLACK
6
CONTINUOUS
10
0.9382818897637795
20
-1.8680445669291339
11
0.9387227952755905
21
-1.8691089763779527
0
LINE
8
BLACK
6
CONTINUOUS
10
0.9387227952755905
20
-1.8691089763779527
11
0.9387795275590551
21
-1.8696850393700788
0
LINE
8
BLACK
6
CONTINUOUS
10
0.9387795275590551
20
-1.8696850393700788
11
0.9387795275590551
21
-2.1696850393700786
0
LINE
8
BLACK
6
CONTINUOUS
10
0.9387795275590551
20
-2.1696850393700786
11
0.9387227952755905
21
-2.1702611023622045
0
LINE
8
BLACK
6
CONTINUOUS
10
0.9387227952755905
20
-2.1702611023622045
11
0.9382818897637795
21
-2.1713255118110237
0
LINE
8
BLACK
6
CONTINUOUS
10
0.9382818897637795
20
-2.1713255118110237
11
0.9374672440944881
21
-2.1721401574803147
0
LINE
8
BLACK
6
CONTINUOUS
10
0.9374672440944881
20
-2.1721401574803147
11
0.9364028346456693
21
-2.1725810629921258
0
LINE
8
BLACK
6
CONTINUOUS
10
0.9364028346456693
20
-2.1725810629921258
11
0.9358267716535433
21
-2.1726377952755906
0
LINE
8
BLACK
6
CONTINUOUS
10
0.9358267716535433
20
-2.1726377952755906
11
0.7358267716535433
21
-2.1726377952755906
0
LINE
8
BLACK
6
CONTINUOUS
10
0.7358267716535433
20
-2.1726377952755906
11
0.7352507086614173
21
-2.1725810629921258
0
LINE
8
BLACK
6
CONTINUOUS
10
0.7352507086614173
20
-2.1725810629921258
11
0.7341862992125984
21
-2.1721401574803147
0
LINE
8
BLACK
6
CONTINUOUS
10
0.7341862992125984
20
-2.1721401574803147
11
0.733371653543307
21
-2.1713255118110237
0
LINE
8
BLACK
6
CONTINUOUS
10
0.733371653543307
20
-2.1713255118110237
11
0.732930748031496
21
-2.1702611023622045
0
LINE
8
BLACK
6
CONTINUOUS
10
0.732930748031496
20
-2.1702611023622045
11
0.7328740157480315
21
-2.1696850393700786
0
LINE
8
BLACK
6
CONTINUOUS
10
0.7328740157480315
20
-2.1696850393700786
11
0.7328740157480315
21
-1.8696850393700788
0
LINE
8
BLACK
6
CONTINUOUS
10
0.7328740157480315
20
-1.8696850393700788
11
0.732930748031496
21
-1.8691089763779527
0
LINE
8
BLACK
6
CONTINUOUS
10
0.732930748031496
20
-1.8691089763779527
11
0.733371653543307
21
-1.8680445669291339
0
LINE
8
BLACK
6
CONTINUOUS
10
0.733371653543307
20
-1.8680445669291339
11
0.7341862992125984
21
-1.8672299212598424
0
LINE
8
BLACK
6
CONTINUOUS
10
0.7341862992125984
20
-1.8672299212598424
11
0.7352507086614173
21
-1.8667890157480314
0
LINE
8
BLACK
6
CONTINUOUS
10
0.7352507086614173
20
-1.8667890157480314
11
0.7358267716535433
21
-1.866732283464567
0
LINE
8
BLACK
6
CONTINUOUS
10
0.7358267716535433
20
-1.866732283464567
11
0.9358267716535433
21
-1.866732283464567
0
LINE
8
BLACK
6
CONTINUOUS
10
0.9358267716535433
20
-1.866732283464567
11
0.9364028346456693
21
-1.8667890157480314
0
LINE
8
BLACK
6
CONTINUOUS
10
0.7387795275590551
20
-1.8726377952755906
11
0.7387795275590551
21
-2.166732283464567
0
LINE
8
BLACK
6
CONTINUOUS
10
0.7387795275590551
20
-2.166732283464567
11
0.9328740157480315
21
-2.166732283464567
0
LINE
8
BLACK
6
CONTINUOUS
10
0.9328740157480315
20
-2.166732283464567
11
0.9328740157480315
21
-1.8726377952755906
0
LINE
8
BLACK
6
CONTINUOUS
10
0.9328740157480315
20
-1.8726377952755906
11
0.7387795275590551
21
-1.8726377952755906
0
LINE
8
BLACK
6
CONTINUOUS
10
-1.5937600000000001
20
-1.09765937007874
11
-1.5936822440944882
21
-1.0976538582677164
0
LINE
8
BLACK
6
CONTINUOUS
10
-1.5936822440944882
20
-1.0976538582677164
11
-1.59358
21
-1.0976770866141732
0
LINE
8
BLACK
6
CONTINUOUS
10
-1.59358
20
-1.0976770866141732
11
-1.5934754724409448
21
-1.097687401574803
0
LINE
8
BLACK
6
CONTINUOUS
10
-1.5934754724409448
20
-1.097687401574803
11
-1.5934033858267715
21
-1.0977172440944882
0
LINE
8
BLACK
6
CONTINUOUS
10
-1.5934033858267715
20
-1.0977172440944882
11
-1.5931177952755906
21
-1.0977822047244095
0
LINE
8
BLACK
6
CONTINUOUS
10
-1.5931177952755906
20
-1.0977822047244095
11
-1.5874935039370079
21
-1.099656968503937
0
LINE
8
BLACK
6
CONTINUOUS
10
-1.5874935039370079
20
-1.099656968503937
11
-1.5869649606299212
21
-1.0998929527559056
0
LINE
8
BLACK
6
CONTINUOUS
10
-1.5869649606299212
20
-1.0998929527559056
11
-1.5868848425196851
21
-1.0999624409448818
0
LINE
8
BLACK
6
CONTINUOUS
10
-1.5868848425196851
20
-1.0999624409448818
11
-1.5867867716535433
21
-1.1000030708661417
0
LINE
8
BLACK
6
CONTINUOUS
10
-1.5867867716535433
20
-1.1000030708661417
11
-1.5863393307086613
21
-1.1003702755905511
0
LINE
8
BLACK
6
CONTINUOUS
10
-1.5863393307086613
20
-1.1003702755905511
11
-1.5844645669291337
21
-1.1022450393700787
0
LINE
8
BLACK
6
CONTINUOUS
10
-1.5844645669291337
20
-1.1022450393700787
11
-1.5840973622047243
21
-1.1026924803149607
0
LINE
8
BLACK
6
CONTINUOUS
10
-1.5840973622047243
20
-1.1026924803149607
11
-1.5836564566929134
21
-1.1037568897637795
0
LINE
8
BLACK
6
CONTINUOUS
10
-1.5836564566929134
20
-1.1037568897637795
11
-1.5836564566929134
21
-1.1049089763779527
0
LINE
8
BLACK
6
CONTINUOUS
10
-1.5836564566929134
20
-1.1049089763779527
11
-1.5840973622047243
21
-1.1059733858267717
0
LINE
8
BLACK
6
CONTINUOUS
10
-1.5840973622047243
20
-1.1059733858267717
11
-1.5849120472440945
21
-1.1067880708661417
0
LINE
8
BLACK
6
CONTINUOUS
10
-1.5849120472440945
20
-1.1067880708661417
11
-1.5859764566929133
21
-1.1072289763779528
0
LINE
8
BLACK
6
CONTINUOUS
10
-1.5859764566929133
20
-1.1072289763779528
11
-1.5871285433070865
21
-1.1072289763779528
0
LINE
8
BLACK
6
CONTINUOUS
10
-1.5871285433070865
20
-1.1072289763779528
11
-1.5881929527559056
21
-1.1067880708661417
0
LINE
8
BLACK
6
CONTINUOUS
10
-1.5881929527559056
20
-1.1067880708661417
11
-1.5886403937007874
21
-1.1064208661417323
0
LINE
8
BLACK
6
CONTINUOUS
10
-1.5886403937007874
20
-1.1064208661417323
11
-1.590022283464567
21
-1.1050389763779527
0
LINE
8
BLACK
6
CONTINUOUS
10
-1.590022283464567
20
-1.1050389763779527
11
-1.5945306692913386
21
-1.1035361811023623
0
LINE
8
BLACK
6
CONTINUOUS
10
-1.5945306692913386
20
-1.1035361811023623
11
-1.5973219291338583
21
-1.1035361811023623
0
LINE
8
BLACK
6
CONTINUOUS
10
-1.5973219291338583
20
-1.1035361811023623
11
-1.6018303149606299
21
-1.1050389763779527
0
LINE
8
BLACK
6
CONTINUOUS
10
-1.6018303149606299
20
-1.1050389763779527
11
-1.6047481496062992
21
-1.107956811023622
0
LINE
8
BLACK
6
CONTINUOUS
10
-1.6047481496062992
20
-1.107956811023622
11
-1.6062636614173229
21
-1.1109877952755904
0
LINE
8
BLACK
6
CONTINUOUS
10
-1.6062636614173229
20
-1.1109877952755904
11
-1.6079716535433071
21
-1.117819842519685
0
LINE
8
BLACK
6
CONTINUOUS
10
-1.6079716535433071
20
-1.117819842519685
11
-1.6079716535433071
21
-1.1227170472440944
0
LINE
8
BLACK
6
CONTINUOUS
10
-1.6079716535433071
20
-1.1227170472440944
11
-1.6062636614173229
21
-1.129549094488189
0
LINE
8
BLACK
6
CONTINUOUS
10
-1.6062636614173229
20
-1.129549094488189
11
-1.6047481496062992
21
-1.1325800787401574
0
LINE
8
BLACK
6
CONTINUOUS
10
-1.6047481496062992
20
-1.1325800787401574
11
-1.6018303149606299
21
-1.1354979527559055
0
LINE
8
BLACK
6
CONTINUOUS
10
-1.6018303149606299
20
-1.1354979527559055
11
-1.5973219291338583
21
-1.1370007480314961
0
LINE
8
BLACK
6
CONTINUOUS
10
-1.5973219291338583
20
-1.1370007480314961
11
-1.5945306692913386
21
-1.1370007480314961
0
LINE
8
BLACK
6
CONTINUOUS
10
-1.5945306692913386
20
-1.1370007480314961
11
-1.590022283464567
21
-1.1354979133858267
0
LINE
8
BLACK
6
CONTINUOUS
10
-1.590022283464567
20
-1.1354979133858267
11
-1.5886404330708661
21
-1.1341160629921259
0
LINE
8
BLACK
6
CONTINUOUS
10
-1.5886404330708661
20
-1.1341160629921259
11
-1.5881929527559056
21
-1.1337488188976377
0
LINE
8
BLACK
6
CONTINUOUS
10
-1.5881929527559056
20
-1.1337488188976377
11
-1.5871285433070865
21
-1.1333079133858268
0
LINE
8
BLACK
6
CONTINUOUS
10
-1.5871285433070865
20
-1.1333079133858268
11
-1.5859764566929133
21
-1.1333079133858268
0
LINE
8
BLACK
6
CONTINUOUS
10
-1.5859764566929133
20
-1.1333079133858268
11
-1.5849120472440945
21
-1.1337487795275589
0
LINE
8
BLACK
6
CONTINUOUS
10
-1.5849120472440945
20
-1.1337487795275589
11
-1.5840973622047243
21
-1.1345634645669291
0
LINE
8
BLACK
6
CONTINUOUS
10
-1.5840973622047243
20
-1.1345634645669291
11
-1.5836564566929134
21
-1.1356278740157479
0
LINE
8
BLACK
6
CONTINUOUS
10
-1.5836564566929134
20
-1.1356278740157479
11
-1.5836564566929134
21
-1.1367799606299211
0
LINE
8
BLACK
6
CONTINUOUS
10
-1.5836564566929134
20
-1.1367799606299211
11
-1.5840973228346455
21
-1.1378443700787402
0
LINE
8
BLACK
6
CONTINUOUS
10
-1.5840973228346455
20
-1.1378443700787402
11
-1.5844645669291337
21
-1.1382918503937007
0
LINE
8
BLACK
6
CONTINUOUS
10
-1.5844645669291337
20
-1.1382918503937007
11
-1.5863392913385825
21
-1.1401666141732283
0
LINE
8
BLACK
6
CONTINUOUS
10
-1.5863392913385825
20
-1.1401666141732283
11
-1.5867867716535433
21
-1.1405338582677165
0
LINE
8
BLACK
6
CONTINUOUS
10
-1.5867867716535433
20
-1.1405338582677165
11
-1.5868848425196851
21
-1.1405744488188976
0
LINE
8
BLACK
6
CONTINUOUS
10
-1.5868848425196851
20
-1.1405744488188976
11
-1.5869649606299212
21
-1.1406439763779528
0
LINE
8
BLACK
6
CONTINUOUS
10
-1.5869649606299212
20
-1.1406439763779528
11
-1.5874935039370079
21
-1.1408799606299211
0
LINE
8
BLACK
6
CONTINUOUS
10
-1.5874935039370079
20
-1.1408799606299211
11
-1.5931177952755906
21
-1.1427547244094487
0
LINE
8
BLACK
6
CONTINUOUS
10
-1.5931177952755906
20
-1.1427547244094487
11
-1.5934033858267715
21
-1.1428196456692914
0
LINE
8
BLACK
6
CONTINUOUS
10
-1.5934033858267715
20
-1.1428196456692914
11
-1.5934754724409448
21
-1.1428495275590551
0
LINE
8
BLACK
6
CONTINUOUS
10
-1.5934754724409448
20
-1.1428495275590551
11
-1.59358
21
-1.1428598031496062
0
LINE
8
BLACK
6
CONTINUOUS
10
-1.59358
20
-1.1428598031496062
11
-1.5936822440944882
21
-1.1428830708661417
0
LINE
8
BLACK
6
CONTINUOUS
10
-1.5936822440944882
20
-1.1428830708661417
11
-1.5937600000000001
21
-1.1428775196850394
0
LINE
8
BLACK
6
CONTINUOUS
10
-1.5937600000000001
20
-1.1428775196850394
11
-1.5940515354330709
21
-1.1429062598425197
0
LINE
8
BLACK
6
CONTINUOUS
10
-1.5940515354330709
20
-1.1429062598425197
11
-1.597801062992126
21
-1.1429062598425197
0
LINE
8
BLACK
6
CONTINUOUS
10
-1.597801062992126
20
-1.1429062598425197
11
-1.5980926771653543
21
-1.1428775196850394
0
LINE
8
BLACK
6
CONTINUOUS
10
-1.5980926771653543
20
-1.1428775196850394
11
-1.5981703937007874
21
-1.1428830708661417
0
LINE
8
BLACK
6
CONTINUOUS
10
-1.5981703937007874
20
-1.1428830708661417
11
-1.5982726771653544
21
-1.1428598031496062
0
LINE
8
BLACK
6
CONTINUOUS
10
-1.5982726771653544
20
-1.1428598031496062
11
-1.5983771259842519
21
-1.1428495275590551
0
LINE
8
BLACK
6
CONTINUOUS
10
-1.5983771259842519
20
-1.1428495275590551
11
-1.5984492125984251
21
-1.1428196456692914
0
LINE
8
BLACK
6
CONTINUOUS
10
-1.5984492125984251
20
-1.1428196456692914
11
-1.598734842519685
21
-1.1427547244094487
0
LINE
8
BLACK
6
CONTINUOUS
10
-1.598734842519685
20
-1.1427547244094487
11
-1.6043590944881889
21
-1.1408799606299211
0
LINE
8
BLACK
6
CONTINUOUS
10
-1.6043590944881889
20
-1.1408799606299211
11
-1.6048876771653542
21
-1.1406439763779528
0
LINE
8
BLACK
6
CONTINUOUS
10
-1.6048876771653542
20
-1.1406439763779528
11
-1.6049677952755905
21
-1.1405744881889763
0
LINE
8
BLACK
6
CONTINUOUS
10
-1.6049677952755905
20
-1.1405744881889763
11
-1.6050658267716535
21
-1.1405338976377952
0
LINE
8
BLACK
6
CONTINUOUS
10
-1.6050658267716535
20
-1.1405338976377952
11
-1.6055132677165354
21
-1.140166653543307
0
LINE
8
BLACK
6
CONTINUOUS
10
-1.6055132677165354
20
-1.140166653543307
11
-1.6092627952755905
21
-1.1364170866141732
0
LINE
8
BLACK
6
CONTINUOUS
10
-1.6092627952755905
20
-1.1364170866141732
11
-1.6094485826771654
21
-1.1361907086614174
0
LINE
8
BLACK
6
CONTINUOUS
10
-1.6094485826771654
20
-1.1361907086614174
11
-1.609507559055118
21
-1.1361395669291339
0
LINE
8
BLACK
6
CONTINUOUS
10
-1.609507559055118
20
-1.1361395669291339
11
-1.6095635433070865
21
-1.1360506299212598
0
LINE
8
BLACK
6
CONTINUOUS
10
-1.6095635433070865
20
-1.1360506299212598
11
-1.6096300393700786
21
-1.1359696062992126
0
LINE
8
BLACK
6
CONTINUOUS
10
-1.6096300393700786
20
-1.1359696062992126
11
-1.6096598818897638
21
-1.1358975590551181
0
LINE
8
BLACK
6
CONTINUOUS
10
-1.6096598818897638
20
-1.1358975590551181
11
-1.6098159055118111
21
-1.13564968503937
0
LINE
8
BLACK
6
CONTINUOUS
10
-1.6098159055118111
20
-1.13564968503937
11
-1.6116906692913386
21
-1.1319001574803149
0
LINE
8
BLACK
6
CONTINUOUS
10
-1.6116906692913386
20
-1.1319001574803149
11
-1.6117068110236221
21
-1.1318580314960629
0
LINE
8
BLACK
6
CONTINUOUS
10
-1.6117068110236221
20
-1.1318580314960629
11
-1.6117194881889763
21
-1.131840905511811
0
LINE
8
BLACK
6
CONTINUOUS
10
-1.6117194881889763
20
-1.131840905511811
11
-1.6118059448818898
21
-1.1315989370078741
0
LINE
8
BLACK
6
CONTINUOUS
10
-1.6118059448818898
20
-1.1315989370078741
11
-1.6118975590551181
21
-1.1313595275590551
0
LINE
8
BLACK
6
CONTINUOUS
10
-1.6118975590551181
20
-1.1313595275590551
11
-1.611899094488189
21
-1.1313382677165353
0
LINE
8
BLACK
6
CONTINUOUS
10
-1.611899094488189
20
-1.1313382677165353
11
-1.6119142519685039
21
-1.1312957874015748
0
LINE
8
BLACK
6
CONTINUOUS
10
-1.6119142519685039
20
-1.1312957874015748
11
-1.6137890157480315
21
-1.1237967322834646
0
LINE
8
BLACK
6
CONTINUOUS
10
-1.6137890157480315
20
-1.1237967322834646
11
-1.6138038188976378
21
-1.1236968503937008
0
LINE
8
BLACK
6
CONTINUOUS
10
-1.6138038188976378
20
-1.1236968503937008
11
-1.6138204330708661
21
-1.123656653543307
0
LINE
8
BLACK
6
CONTINUOUS
10
-1.6138204330708661
20
-1.123656653543307
11
-1.6138418110236221
21
-1.1234396062992125
0
LINE
8
BLACK
6
CONTINUOUS
10
-1.6138418110236221
20
-1.1234396062992125
11
-1.6138736614173228
21
-1.1232241338582676
0
LINE
8
BLACK
6
CONTINUOUS
10
-1.6138736614173228
20
-1.1232241338582676
11
-1.6138672834645669
21
-1.1231811023622047
0
LINE
8
BLACK
6
CONTINUOUS
10
-1.6138672834645669
20
-1.1231811023622047
11
-1.6138771653543307
21
-1.1230805905511811
0
LINE
8
BLACK
6
CONTINUOUS
10
-1.6138771653543307
20
-1.1230805905511811
11
-1.6138771653543307
21
-1.1174562992125985
0
LINE
8
BLACK
6
CONTINUOUS
10
-1.6138771653543307
20
-1.1174562992125985
11
-1.6138672834645669
21
-1.117355748031496
0
LINE
8
BLACK
6
CONTINUOUS
10
-1.6138672834645669
20
-1.117355748031496
11
-1.6138736614173228
21
-1.1173127559055118
0
LINE
8
BLACK
6
CONTINUOUS
10
-1.6138736614173228
20
-1.1173127559055118
11
-1.6138418110236221
21
-1.1170972440944882
0
LINE
8
BLACK
6
CONTINUOUS
10
-1.6138418110236221
20
-1.1170972440944882
11
-1.6138204330708661
21
-1.1168802362204724
0
LINE
8
BLACK
6
CONTINUOUS
10
-1.6138204330708661
20
-1.1168802362204724
11
-1.6138038188976378
21
-1.1168400000000001
0
LINE
8
BLACK
6
CONTINUOUS
10
-1.6138038188976378
20
-1.1168400000000001
11
-1.6137890157480315
21
-1.1167401574803149
0
LINE
8
BLACK
6
CONTINUOUS
10
-1.6137890157480315
20
-1.1167401574803149
11
-1.6119142519685039
21
-1.1092411023622046
0
LINE
8
BLACK
6
CONTINUOUS
10
-1.6119142519685039
20
-1.1092411023622046
11
-1.611899094488189
21
-1.1091985826771653
0
LINE
8
BLACK
6
CONTINUOUS
10
-1.611899094488189
20
-1.1091985826771653
11
-1.6118975590551181
21
-1.1091773622047243
0
LINE
8
BLACK
6
CONTINUOUS
10
-1.6118975590551181
20
-1.1091773622047243
11
-1.6118059448818898
21
-1.1089379133858268
0
LINE
8
BLACK
6
CONTINUOUS
10
-1.6118059448818898
20
-1.1089379133858268
11
-1.6117194881889763
21
-1.1086959842519686
0
LINE
8
BLACK
6
CONTINUOUS
10
-1.6117194881889763
20
-1.1086959842519686
11
-1.6117068110236221
21
-1.1086788188976378
0
LINE
8
BLACK
6
CONTINUOUS
10
-1.6117068110236221
20
-1.1086788188976378
11
-1.6116906692913386
21
-1.1086367322834645
0
LINE
8
BLACK
6
CONTINUOUS
10
-1.6116906692913386
20
-1.1086367322834645
11
-1.6098159055118111
21
-1.1048872047244094
0
LINE
8
BLACK
6
CONTINUOUS
10
-1.6098159055118111
20
-1.1048872047244094
11
-1.6096598425196851
21
-1.1046391732283465
0
LINE
8
BLACK
6
CONTINUOUS
10
-1.6096598425196851
20
-1.1046391732283465
11
-1.6096299999999999
21
-1.1045672440944883
0
LINE
8
BLACK
6
CONTINUOUS
10
-1.6096299999999999
20
-1.1045672440944883
11
-1.6095635433070865
21
-1.1044862598425196
0
LINE
8
BLACK
6
CONTINUOUS
10
-1.6095635433070865
20
-1.1044862598425196
11
-1.609507559055118
21
-1.1043973228346455
0
LINE
8
BLACK
6
CONTINUOUS
10
-1.609507559055118
20
-1.1043973228346455
11
-1.6094485826771654
21
-1.1043461417322835
0
LINE
8
BLACK
6
CONTINUOUS
10
-1.6094485826771654
20
-1.1043461417322835
11
-1.6092627952755905
21
-1.1041198031496062
0
LINE
8
BLACK
6
CONTINUOUS
10
-1.6092627952755905
20
-1.1041198031496062
11
-1.6055132677165354
21
-1.1003702755905511
0
LINE
8
BLACK
6
CONTINUOUS
10
-1.6055132677165354
20
-1.1003702755905511
11
-1.6050658267716535
21
-1.1000030314960629
0
LINE
8
BLACK
6
CONTINUOUS
10
-1.6050658267716535
20
-1.1000030314960629
11
-1.6049677952755905
21
-1.0999624015748031
0
LINE
8
BLACK
6
CONTINUOUS
10
-1.6049677952755905
20
-1.0999624015748031
11
-1.6048876771653542
21
-1.0998929527559056
0
LINE
8
BLACK
6
CONTINUOUS
10
-1.6048876771653542
20
-1.0998929527559056
11
-1.6043590944881889
21
-1.099656968503937
0
LINE
8
BLACK
6
CONTINUOUS
10
-1.6043590944881889
20
-1.099656968503937
11
-1.598734842519685
21
-1.0977822047244095
0
LINE
8
BLACK
6
CONTINUOUS
10
-1.598734842519685
20
-1.0977822047244095
11
-1.5984492125984251
21
-1.0977172440944882
0
LINE
8
BLACK
6
CONTINUOUS
10
-1.5984492125984251
20
-1.0977172440944882
11
-1.5983771259842519
21
-1.097687401574803
0
LINE
8
BLACK
6
CONTINUOUS
10
-1.5983771259842519
20
-1.097687401574803
11
-1.5982726771653544
21
-1.0976770866141732
0
LINE
8
BLACK
6
CONTINUOUS
10
-1.5982726771653544
20
-1.0976770866141732
11
-1.5981703937007874
21
-1.0976538582677164
0
LINE
8
BLACK
6
CONTINUOUS
10
-1.5981703937007874
20
-1.0976538582677164
11
-1.5980926771653543
21
-1.09765937007874
0
LINE
8
BLACK
6
CONTINUOUS
10
-1.5980926771653543
20
-1.09765937007874
11
-1.597801062992126
21
-1.0976306692913385
0
LINE
8
BLACK
6
CONTINUOUS
10
-1.597801062992126
20
-1.0976306692913385
11
-1.5940515354330709
21
-1.0976306692913385
0
LINE
8
BLACK
6
CONTINUOUS
10
-1.5940515354330709
20
-1.0976306692913385
11
-1.5937600000000001
21
-1.09765937007874
0
LINE
8
BLACK
6
CONTINUOUS
10
-1.5460552755905512
20
-1.0978542519685039
11
-1.5450966535433071
21
-1.0984933464566928
0
LINE
8
BLACK
6
CONTINUOUS
10
-1.5450966535433071
20
-1.0984933464566928
11
-1.544455590551181
21
-1.0994506299212599
0
LINE
8
BLACK
6
CONTINUOUS
10
-1.544455590551181
20
-1.0994506299212599
11
-1.5442296456692912
21
-1.1005803149606299
0
LINE
8
BLACK
6
CONTINUOUS
10
-1.5442296456692912
20
-1.1005803149606299
11
-1.5444532283464567
21
-1.1017105511811023
0
LINE
8
BLACK
6
CONTINUOUS
10
-1.5444532283464567
20
-1.1017105511811023
11
-1.5447255511811022
21
-1.1022213385826771
0
LINE
8
BLACK
6
CONTINUOUS
10
-1.5447255511811022
20
-1.1022213385826771
11
-1.5567569685039371
21
-1.1202684645669292
0
LINE
8
BLACK
6
CONTINUOUS
10
-1.5567569685039371
20
-1.1202684645669292
11
-1.5447255511811022
21
-1.138315590551181
0
LINE
8
BLACK
6
CONTINUOUS
10
-1.5447255511811022
20
-1.138315590551181
11
-1.5444532283464567
21
-1.1388263779527559
0
LINE
8
BLACK
6
CONTINUOUS
10
-1.5444532283464567
20
-1.1388263779527559
11
-1.5442296456692912
21
-1.1399566141732282
0
LINE
8
BLACK
6
CONTINUOUS
10
-1.5442296456692912
20
-1.1399566141732282
11
-1.544455590551181
21
-1.1410862992125983
0
LINE
8
BLACK
6
CONTINUOUS
10
-1.544455590551181
20
-1.1410862992125983
11
-1.5450966535433071
21
-1.1420435826771653
0
LINE
8
BLACK
6
CONTINUOUS
10
-1.5450966535433071
20
-1.1420435826771653
11
-1.5460552755905512
21
-1.1426826771653542
0
LINE
8
BLACK
6
CONTINUOUS
10
-1.5460552755905512
20
-1.1426826771653542
11
-1.5471855118110236
21
-1.1429062598425197
0
LINE
8
BLACK
6
CONTINUOUS
10
-1.5471855118110236
20
-1.1429062598425197
11
-1.5483151968503936
21
-1.1426803149606299
0
LINE
8
BLACK
6
CONTINUOUS
10
-1.5483151968503936
20
-1.1426803149606299
11
-1.5492724803149607
21
-1.1420392519685039
0
LINE
8
BLACK
6
CONTINUOUS
10
-1.5492724803149607
20
-1.1420392519685039
11
-1.5496392519685038
21
-1.1415913779527558
0
LINE
8
BLACK
6
CONTINUOUS
10
-1.5496392519685038
20
-1.1415913779527558
11
-1.5603057480314961
21
-1.1255916141732283
0
LINE
8
BLACK
6
CONTINUOUS
10
-1.5603057480314961
20
-1.1255916141732283
11
-1.5709722440944882
21
-1.1415913779527558
0
LINE
8
BLACK
6
CONTINUOUS
10
-1.5709722440944882
20
-1.1415913779527558
11
-1.5713390157480314
21
-1.1420392519685039
0
LINE
8
BLACK
6
CONTINUOUS
10
-1.5713390157480314
20
-1.1420392519685039
11
-1.5722962992125984
21
-1.1426803149606299
0
LINE
8
BLACK
6
CONTINUOUS
10
-1.5722962992125984
20
-1.1426803149606299
11
-1.5734259842519684
21
-1.1429062598425197
0
LINE
8
BLACK
6
CONTINUOUS
10
-1.5734259842519684
20
-1.1429062598425197
11
-1.5745562204724408
21
-1.1426826771653542
0
LINE
8
BLACK
6
CONTINUOUS
10
-1.5745562204724408
20
-1.1426826771653542
11
-1.575514842519685
21
-1.1420435826771653
0
LINE
8
BLACK
6
CONTINUOUS
10
-1.575514842519685
20
-1.1420435826771653
11
-1.5761559055118111
21
-1.1410862992125983
0
LINE
8
BLACK
6
CONTINUOUS
10
-1.5761559055118111
20
-1.1410862992125983
11
-1.5763818503937008
21
-1.1399566141732282
0
LINE
8
BLACK
6
CONTINUOUS
10
-1.5763818503937008
20
-1.1399566141732282
11
-1.5761582677165353
21
-1.1388263779527559
0
LINE
8
BLACK
6
CONTINUOUS
10
-1.5761582677165353
20
-1.1388263779527559
11
-1.5758859448818898
21
-1.1383156299212598
0
LINE
8
BLACK
6
CONTINUOUS
10
-1.5758859448818898
20
-1.1383156299212598
11
-1.5638545275590552
21
-1.1202684645669292
0
LINE
8
BLACK
6
CONTINUOUS
10
-1.5638545275590552
20
-1.1202684645669292
11
-1.5758859448818898
21
-1.1022212992125984
0
LINE
8
BLACK
6
CONTINUOUS
10
-1.5758859448818898
20
-1.1022212992125984
11
-1.5761582677165353
21
-1.1017105511811023
0
LINE
8
BLACK
6
CONTINUOUS
10
-1.5761582677165353
20
-1.1017105511811023
11
-1.5763818503937008
21
-1.1005803149606299
0
LINE
8
BLACK
6
CONTINUOUS
10
-1.5763818503937008
20
-1.1005803149606299
11
-1.5761559055118111
21
-1.0994506299212599
0
LINE
8
BLACK
6
CONTINUOUS
10
-1.5761559055118111
20
-1.0994506299212599
11
-1.575514842519685
21
-1.0984933464566928
0
LINE
8
BLACK
6
CONTINUOUS
10
-1.575514842519685
20
-1.0984933464566928
11
-1.5745562204724408
21
-1.0978542519685039
0
LINE
8
BLACK
6
CONTINUOUS
10
-1.5745562204724408
20
-1.0978542519685039
11
-1.5734259842519684
21
-1.0976306692913385
0
LINE
8
BLACK
6
CONTINUOUS
10
-1.5734259842519684
20
-1.0976306692913385
11
-1.5722962992125984
21
-1.0978566141732282
0
LINE
8
BLACK
6
CONTINUOUS
10
-1.5722962992125984
20
-1.0978566141732282
11
-1.5713390157480314
21
-1.0984976771653543
0
LINE
8
BLACK
6
CONTINUOUS
10
-1.5713390157480314
20
-1.0984976771653543
11
-1.5709722440944882
21
-1.0989455511811024
0
LINE
8
BLACK
6
CONTINUOUS
10
-1.5709722440944882
20
-1.0989455511811024
11
-1.5603057480314961
21
-1.1149452755905511
0
LINE
8
BLACK
6
CONTINUOUS
10
-1.5603057480314961
20
-1.1149452755905511
11
-1.5496392519685038
21
-1.0989455511811024
0
LINE
8
BLACK
6
CONTINUOUS
10
-1.5496392519685038
20
-1.0989455511811024
11
-1.5492724803149607
21
-1.0984976771653543
0
LINE
8
BLACK
6
CONTINUOUS
10
-1.5492724803149607
20
-1.0984976771653543
11
-1.5483151968503936
21
-1.0978566141732282
0
LINE
8
BLACK
6
CONTINUOUS
10
-1.5483151968503936
20
-1.0978566141732282
11
-1.5471855118110236
21
-1.0976306692913385
0
LINE
8
BLACK
6
CONTINUOUS
10
-1.5471855118110236
20
-1.0976306692913385
11
-1.5460552755905512
21
-1.0978542519685039
0
LINE
8
BLACK
6
CONTINUOUS
10
1.6112159055118109
20
-1.09765937007874
11
1.6112936614173228
21
-1.0976538582677164
0
LINE
8
BLACK
6
CONTINUOUS
10
1.6112936614173228
20
-1.0976538582677164
11
1.611395905511811
21
-1.0976770866141732
0
LINE
8
BLACK
6
CONTINUOUS
10
1.611395905511811
20
-1.0976770866141732
11
1.6115004330708662
21
-1.097687401574803
0
LINE
8
BLACK
6
CONTINUOUS
10
1.6115004330708662
20
-1.097687401574803
11
1.6115725196850392
21
-1.0977172440944882
0
LINE
8
BLACK
6
CONTINUOUS
10
1.6115725196850392
20
-1.0977172440944882
11
1.6118581102362204
21
-1.0977822047244095
0
LINE
8
BLACK
6
CONTINUOUS
10
1.6118581102362204
20
-1.0977822047244095
11
1.6174824015748031
21
-1.099656968503937
0
LINE
8
BLACK
6
CONTINUOUS
10
1.6174824015748031
20
-1.099656968503937
11
1.6180109448818898
21
-1.0998929527559056
0
LINE
8
BLACK
6
CONTINUOUS
10
1.6180109448818898
20
-1.0998929527559056
11
1.6180910629921259
21
-1.0999624409448818
0
LINE
8
BLACK
6
CONTINUOUS
10
1.6180910629921259
20
-1.0999624409448818
11
1.6181891338582677
21
-1.1000030708661417
0
LINE
8
BLACK
6
CONTINUOUS
10
1.6181891338582677
20
-1.1000030708661417
11
1.6186365748031495
21
-1.1003702755905511
0
LINE
8
BLACK
6
CONTINUOUS
10
1.6186365748031495
20
-1.1003702755905511
11
1.620511338582677
21
-1.1022450393700787
0
LINE
8
BLACK
6
CONTINUOUS
10
1.620511338582677
20
-1.1022450393700787
11
1.6208785433070865
21
-1.1026924803149607
0
LINE
8
BLACK
6
CONTINUOUS
10
1.6208785433070865
20
-1.1026924803149607
11
1.6213194488188976
21
-1.1037568897637795
0
LINE
8
BLACK
6
CONTINUOUS
10
1.6213194488188976
20
-1.1037568897637795
11
1.6213194488188976
21
-1.1049089763779527
0
LINE
8
BLACK
6
CONTINUOUS
10
1.6213194488188976
20
-1.1049089763779527
11
1.6208785433070865
21
-1.1059733858267717
0
LINE
8
BLACK
6
CONTINUOUS
10
1.6208785433070865
20
-1.1059733858267717
11
1.6200638582677165
21
-1.1067880708661417
0
LINE
8
BLACK
6
CONTINUOUS
10
1.6200638582677165
20
-1.1067880708661417
11
1.6189994488188977
21
-1.1072289763779528
0
LINE
8
BLACK
6
CONTINUOUS
10
1.6189994488188977
20
-1.1072289763779528
11
1.6178473622047245
21
-1.1072289763779528
0
LINE
8
BLACK
6
CONTINUOUS
10
1.6178473622047245
20
-1.1072289763779528
11
1.6167829527559054
21
-1.1067880708661417
0
LINE
8
BLACK
6
CONTINUOUS
10
1.6167829527559054
20
-1.1067880708661417
11
1.6163355118110236
21
-1.1064208661417323
0
LINE
8
BLACK
6
CONTINUOUS
10
1.6163355118110236
20
-1.1064208661417323
11
1.614953622047244
21
-1.1050389763779527
0
LINE
8
BLACK
6
CONTINUOUS
10
1.614953622047244
20
-1.1050389763779527
11
1.6104452362204724
21
-1.1035361811023623
0
LINE
8
BLACK
6
CONTINUOUS
10
1.6104452362204724
20
-1.1035361811023623
11
1.6076539763779527
21
-1.1035361811023623
0
LINE
8
BLACK
6
CONTINUOUS
10
1.6076539763779527
20
-1.1035361811023623
11
1.6031455905511811
21
-1.1050389763779527
0
LINE
8
BLACK
6
CONTINUOUS
10
1.6031455905511811
20
-1.1050389763779527
11
1.6002277559055118
21
-1.107956811023622
0
LINE
8
BLACK
6
CONTINUOUS
10
1.6002277559055118
20
-1.107956811023622
11
1.5987122440944881
21
-1.1109877952755904
0
LINE
8
BLACK
6
CONTINUOUS
10
1.5987122440944881
20
-1.1109877952755904
11
1.5970042519685039
21
-1.117819842519685
0
LINE
8
BLACK
6
CONTINUOUS
10
1.5970042519685039
20
-1.117819842519685
11
1.5970042519685039
21
-1.1227170472440944
0
LINE
8
BLACK
6
CONTINUOUS
10
1.5970042519685039
20
-1.1227170472440944
11
1.5987122440944881
21
-1.129549094488189
0
LINE
8
BLACK
6
CONTINUOUS
10
1.5987122440944881
20
-1.129549094488189
11
1.6002277559055118
21
-1.1325800787401574
0
LINE
8
BLACK
6
CONTINUOUS
10
1.6002277559055118
20
-1.1325800787401574
11
1.6031455905511811
21
-1.1354979527559055
0
LINE
8
BLACK
6
CONTINUOUS
10
1.6031455905511811
20
-1.1354979527559055
11
1.6076539763779527
21
-1.1370007480314961
0
LINE
8
BLACK
6
CONTINUOUS
10
1.6076539763779527
20
-1.1370007480314961
11
1.6104452362204724
21
-1.1370007480314961
0
LINE
8
BLACK
6
CONTINUOUS
10
1.6104452362204724
20
-1.1370007480314961
11
1.614953622047244
21
-1.1354979133858267
0
LINE
8
BLACK
6
CONTINUOUS
10
1.614953622047244
20
-1.1354979133858267
11
1.6163354724409449
21
-1.1341160629921259
0
LINE
8
BLACK
6
CONTINUOUS
10
1.6163354724409449
20
-1.1341160629921259
11
1.6167829527559054
21
-1.1337488188976377
0
LINE
8
BLACK
6
CONTINUOUS
10
1.6167829527559054
20
-1.1337488188976377
11
1.6178473622047245
21
-1.1333079133858268
0
LINE
8
BLACK
6
CONTINUOUS
10
1.6178473622047245
20
-1.1333079133858268
11
1.6189994488188977
21
-1.1333079133858268
0
LINE
8
BLACK
6
CONTINUOUS
10
1.6189994488188977
20
-1.1333079133858268
11
1.6200638582677165
21
-1.1337487795275589
0
LINE
8
BLACK
6
CONTINUOUS
10
1.6200638582677165
20
-1.1337487795275589
11
1.6208785433070865
21
-1.1345634645669291
0
LINE
8
BLACK
6
CONTINUOUS
10
1.6208785433070865
20
-1.1345634645669291
11
1.6213194488188976
21
-1.1356278740157479
0
LINE
8
BLACK
6
CONTINUOUS
10
1.6213194488188976
20
-1.1356278740157479
11
1.6213194488188976
21
-1.1367799606299211
0
LINE
8
BLACK
6
CONTINUOUS
10
1.6213194488188976
20
-1.1367799606299211
11
1.6208785826771652
21
-1.1378443700787402
0
LINE
8
BLACK
6
CONTINUOUS
10
1.6208785826771652
20
-1.1378443700787402
11
1.620511338582677
21
-1.1382918503937007
0
LINE
8
BLACK
6
CONTINUOUS
10
1.620511338582677
20
-1.1382918503937007
11
1.6186366141732282
21
-1.1401666141732283
0
LINE
8
BLACK
6
CONTINUOUS
10
1.6186366141732282
20
-1.1401666141732283
11
1.6181891338582677
21
-1.1405338582677165
0
LINE
8
BLACK
6
CONTINUOUS
10
1.6181891338582677
20
-1.1405338582677165
11
1.6180910629921259
21
-1.1405744488188976
0
LINE
8
BLACK
6
CONTINUOUS
10
1.6180910629921259
20
-1.1405744488188976
11
1.6180109448818898
21
-1.1406439763779528
0
LINE
8
BLACK
6
CONTINUOUS
10
1.6180109448818898
20
-1.1406439763779528
11
1.6174824015748031
21
-1.1408799606299211
0
LINE
8
BLACK
6
CONTINUOUS
10
1.6174824015748031
20
-1.1408799606299211
11
1.6118581102362204
21
-1.1427547244094487
0
LINE
8
BLACK
6
CONTINUOUS
10
1.6118581102362204
20
-1.1427547244094487
11
1.6115725196850392
21
-1.1428196456692914
0
LINE
8
BLACK
6
CONTINUOUS
10
1.6115725196850392
20
-1.1428196456692914
11
1.6115004330708662
21
-1.1428495275590551
0
LINE
8
BLACK
6
CONTINUOUS
10
1.6115004330708662
20
-1.1428495275590551
11
1.611395905511811
21
-1.1428598031496062
0
LINE
8
BLACK
6
CONTINUOUS
10
1.611395905511811
20
-1.1428598031496062
11
1.6112936614173228
21
-1.1428830708661417
0
LINE
8
BLACK
6
CONTINUOUS
10
1.6112936614173228
20
-1.1428830708661417
11
1.6112159055118109
21
-1.1428775196850394
0
LINE
8
BLACK
6
CONTINUOUS
10
1.6112159055118109
20
-1.1428775196850394
11
1.6109243700787401
21
-1.1429062598425197
0
LINE
8
BLACK
6
CONTINUOUS
10
1.6109243700787401
20
-1.1429062598425197
11
1.607174842519685
21
-1.1429062598425197
0
LINE
8
BLACK
6
CONTINUOUS
10
1.607174842519685
20
-1.1429062598425197
11
1.6068832283464567
21
-1.1428775196850394
0
LINE
8
BLACK
6
CONTINUOUS
10
1.6068832283464567
20
-1.1428775196850394
11
1.6068055118110236
21
-1.1428830708661417
0
LINE
8
BLACK
6
CONTINUOUS
10
1.6068055118110236
20
-1.1428830708661417
11
1.6067032283464566
21
-1.1428598031496062
0
LINE
8
BLACK
6
CONTINUOUS
10
1.6067032283464566
20
-1.1428598031496062
11
1.6065987795275589
21
-1.1428495275590551
0
LINE
8
BLACK
6
CONTINUOUS
10
1.6065987795275589
20
-1.1428495275590551
11
1.6065266929133859
21
-1.1428196456692914
0
LINE
8
BLACK
6
CONTINUOUS
10
1.6065266929133859
20
-1.1428196456692914
11
1.606241062992126
21
-1.1427547244094487
0
LINE
8
BLACK
6
CONTINUOUS
10
1.606241062992126
20
-1.1427547244094487
11
1.6006168110236221
21
-1.1408799606299211
0
LINE
8
BLACK
6
CONTINUOUS
10
1.6006168110236221
20
-1.1408799606299211
11
1.6000882283464566
21
-1.1406439763779528
0
LINE
8
BLACK
6
CONTINUOUS
10
1.6000882283464566
20
-1.1406439763779528
11
1.6000081102362205
21
-1.1405744881889763
0
LINE
8
BLACK
6
CONTINUOUS
10
1.6000081102362205
20
-1.1405744881889763
11
1.5999100787401574
21
-1.1405338976377952
0
LINE
8
BLACK
6
CONTINUOUS
10
1.5999100787401574
20
-1.1405338976377952
11
1.5994626377952756
21
-1.140166653543307
0
LINE
8
BLACK
6
CONTINUOUS
10
1.5994626377952756
20
-1.140166653543307
11
1.5957131102362205
21
-1.1364170866141732
0
LINE
8
BLACK
6
CONTINUOUS
10
1.5957131102362205
20
-1.1364170866141732
11
1.5955273228346456
21
-1.1361907086614174
0
LINE
8
BLACK
6
CONTINUOUS
10
1.5955273228346456
20
-1.1361907086614174
11
1.5954683464566928
21
-1.1361395669291339
0
LINE
8
BLACK
6
CONTINUOUS
10
1.5954683464566928
20
-1.1361395669291339
11
1.5954123622047243
21
-1.1360506299212598
0
LINE
8
BLACK
6
CONTINUOUS
10
1.5954123622047243
20
-1.1360506299212598
11
1.5953458661417323
21
-1.1359696062992126
0
LINE
8
BLACK
6
CONTINUOUS
10
1.5953458661417323
20
-1.1359696062992126
11
1.5953160236220472
21
-1.1358975590551181
0
LINE
8
BLACK
6
CONTINUOUS
10
1.5953160236220472
20
-1.1358975590551181
11
1.5951599999999999
21
-1.13564968503937
0
LINE
8
BLACK
6
CONTINUOUS
10
1.5951599999999999
20
-1.13564968503937
11
1.5932852362204724
21
-1.1319001574803149
0
LINE
8
BLACK
6
CONTINUOUS
10
1.5932852362204724
20
-1.1319001574803149
11
1.5932690944881889
21
-1.1318580314960629
0
LINE
8
BLACK
6
CONTINUOUS
10
1.5932690944881889
20
-1.1318580314960629
11
1.5932564173228345
21
-1.131840905511811
0
LINE
8
BLACK
6
CONTINUOUS
10
1.5932564173228345
20
-1.131840905511811
11
1.5931699606299212
21
-1.1315989370078741
0
LINE
8
BLACK
6
CONTINUOUS
10
1.5931699606299212
20
-1.1315989370078741
11
1.5930783464566929
21
-1.1313595275590551
0
LINE
8
BLACK
6
CONTINUOUS
10
1.5930783464566929
20
-1.1313595275590551
11
1.593076811023622
21
-1.1313382677165353
0
LINE
8
BLACK
6
CONTINUOUS
10
1.593076811023622
20
-1.1313382677165353
11
1.5930616535433071
21
-1.1312957874015748
0
LINE
8
BLACK
6
CONTINUOUS
10
1.5930616535433071
20
-1.1312957874015748
11
1.5911868897637795
21
-1.1237967322834646
0
LINE
8
BLACK
6
CONTINUOUS
10
1.5911868897637795
20
-1.1237967322834646
11
1.5911720866141732
21
-1.1236968503937008
0
LINE
8
BLACK
6
CONTINUOUS
10
1.5911720866141732
20
-1.1236968503937008
11
1.5911554724409449
21
-1.123656653543307
0
LINE
8
BLACK
6
CONTINUOUS
10
1.5911554724409449
20
-1.123656653543307
11
1.5911340944881889
21
-1.1234396062992125
0
LINE
8
BLACK
6
CONTINUOUS
10
1.5911340944881889
20
-1.1234396062992125
11
1.5911022440944882
21
-1.1232241338582676
0
LINE
8
BLACK
6
CONTINUOUS
10
1.5911022440944882
20
-1.1232241338582676
11
1.5911086220472441
21
-1.1231811023622047
0
LINE
8
BLACK
6
CONTINUOUS
10
1.5911086220472441
20
-1.1231811023622047
11
1.5910987401574803
21
-1.1230805905511811
0
LINE
8
BLACK
6
CONTINUOUS
10
1.5910987401574803
20
-1.1230805905511811
11
1.5910987401574803
21
-1.1174562992125985
0
LINE
8
BLACK
6
CONTINUOUS
10
1.5910987401574803
20
-1.1174562992125985
11
1.5911086220472441
21
-1.117355748031496
0
LINE
8
BLACK
6
CONTINUOUS
10
1.5911086220472441
20
-1.117355748031496
11
1.5911022440944882
21
-1.1173127559055118
0
LINE
8
BLACK
6
CONTINUOUS
10
1.5911022440944882
20
-1.1173127559055118
11
1.5911340944881889
21
-1.1170972440944882
0
LINE
8
BLACK
6
CONTINUOUS
10
1.5911340944881889
20
-1.1170972440944882
11
1.5911554724409449
21
-1.1168802362204724
0
LINE
8
BLACK
6
CONTINUOUS
10
1.5911554724409449
20
-1.1168802362204724
11
1.5911720866141732
21
-1.1168400000000001
0
LINE
8
BLACK
6
CONTINUOUS
10
1.5911720866141732
20
-1.1168400000000001
11
1.5911868897637795
21
-1.1167401574803149
0
LINE
8
BLACK
6
CONTINUOUS
10
1.5911868897637795
20
-1.1167401574803149
11
1.5930616535433071
21
-1.1092411023622046
0
LINE
8
BLACK
6
CONTINUOUS
10
1.5930616535433071
20
-1.1092411023622046
11
1.593076811023622
21
-1.1091985826771653
0
LINE
8
BLACK
6
CONTINUOUS
10
1.593076811023622
20
-1.1091985826771653
11
1.5930783464566929
21
-1.1091773622047243
0
LINE
8
BLACK
6
CONTINUOUS
10
1.5930783464566929
20
-1.1091773622047243
11
1.5931699606299212
21
-1.1089379133858268
0
LINE
8
BLACK
6
CONTINUOUS
10
1.5931699606299212
20
-1.1089379133858268
11
1.5932564173228345
21
-1.1086959842519686
0
LINE
8
BLACK
6
CONTINUOUS
10
1.5932564173228345
20
-1.1086959842519686
11
1.5932690944881889
21
-1.1086788188976378
0
LINE
8
BLACK
6
CONTINUOUS
10
1.5932690944881889
20
-1.1086788188976378
11
1.5932852362204724
21
-1.1086367322834645
0
LINE
8
BLACK
6
CONTINUOUS
10
1.5932852362204724
20
-1.1086367322834645
11
1.5951599999999999
21
-1.1048872047244094
0
LINE
8
BLACK
6
CONTINUOUS
10
1.5951599999999999
20
-1.1048872047244094
11
1.5953160629921259
21
-1.1046391732283465
0
LINE
8
BLACK
6
CONTINUOUS
10
1.5953160629921259
20
-1.1046391732283465
11
1.5953459055118109
21
-1.1045672440944883
0
LINE
8
BLACK
6
CONTINUOUS
10
1.5953459055118109
20
-1.1045672440944883
11
1.5954123622047243
21
-1.1044862598425196
0
LINE
8
BLACK
6
CONTINUOUS
10
1.5954123622047243
20
-1.1044862598425196
11
1.5954683464566928
21
-1.1043973228346455
0
LINE
8
BLACK
6
CONTINUOUS
10
1.5954683464566928
20
-1.1043973228346455
11
1.5955273228346456
21
-1.1043461417322835
0
LINE
8
BLACK
6
CONTINUOUS
10
1.5955273228346456
20
-1.1043461417322835
11
1.5957131102362205
21
-1.1041198031496062
0
LINE
8
BLACK
6
CONTINUOUS
10
1.5957131102362205
20
-1.1041198031496062
11
1.5994626377952756
21
-1.1003702755905511
0
LINE
8
BLACK
6
CONTINUOUS
10
1.5994626377952756
20
-1.1003702755905511
11
1.5999100787401574
21
-1.1000030314960629
0
LINE
8
BLACK
6
CONTINUOUS
10
1.5999100787401574
20
-1.1000030314960629
11
1.6000081102362205
21
-1.0999624015748031
0
LINE
8
BLACK
6
CONTINUOUS
10
1.6000081102362205
20
-1.0999624015748031
11
1.6000882283464566
21
-1.0998929527559056
0
LINE
8
BLACK
6
CONTINUOUS
10
1.6000882283464566
20
-1.0998929527559056
11
1.6006168110236221
21
-1.099656968503937
0
LINE
8
BLACK
6
CONTINUOUS
10
1.6006168110236221
20
-1.099656968503937
11
1.606241062992126
21
-1.0977822047244095
0
LINE
8
BLACK
6
CONTINUOUS
10
1.606241062992126
20
-1.0977822047244095
11
1.6065266929133859
21
-1.0977172440944882
0
LINE
8
BLACK
6
CONTINUOUS
10
1.6065266929133859
20
-1.0977172440944882
11
1.6065987795275589
21
-1.097687401574803
0
LINE
8
BLACK
6
CONTINUOUS
10
1.6065987795275589
20
-1.097687401574803
11
1.6067032283464566
21
-1.0976770866141732
0
LINE
8
BLACK
6
CONTINUOUS
10
1.6067032283464566
20
-1.0976770866141732
11
1.6068055118110236
21
-1.0976538582677164
0
LINE
8
BLACK
6
CONTINUOUS
10
1.6068055118110236
20
-1.0976538582677164
11
1.6068832283464567
21
-1.09765937007874
0
LINE
8
BLACK
6
CONTINUOUS
10
1.6068832283464567
20
-1.09765937007874
11
1.607174842519685
21
-1.0976306692913385
0
LINE
8
BLACK
6
CONTINUOUS
10
1.607174842519685
20
-1.0976306692913385
11
1.6109243700787401
21
-1.0976306692913385
0
LINE
8
BLACK
6
CONTINUOUS
10
1.6109243700787401
20
-1.0976306692913385
11
1.6112159055118109
21
-1.09765937007874
0
LINE
8
BLACK
6
CONTINUOUS
10
1.6589206299212598
20
-1.0978542519685039
11
1.6598792519685039
21
-1.0984933464566928
0
LINE
8
BLACK
6
CONTINUOUS
10
1.6598792519685039
20
-1.0984933464566928
11
1.6605203149606298
21
-1.0994506299212599
0
LINE
8
BLACK
6
CONTINUOUS
10
1.6605203149606298
20
-1.0994506299212599
11
1.6607462598425196
21
-1.1005803149606299
0
LINE
8
BLACK
6
CONTINUOUS
10
1.6607462598425196
20
-1.1005803149606299
11
1.6605226771653543
21
-1.1017105511811023
0
LINE
8
BLACK
6
CONTINUOUS
10
1.6605226771653543
20
-1.1017105511811023
11
1.6602503543307086
21
-1.1022213385826771
0
LINE
8
BLACK
6
CONTINUOUS
10
1.6602503543307086
20
-1.1022213385826771
11
1.6482189370078739
21
-1.1202684645669292
0
LINE
8
BLACK
6
CONTINUOUS
10
1.6482189370078739
20
-1.1202684645669292
11
1.6602503543307086
21
-1.138315590551181
0
LINE
8
BLACK
6
CONTINUOUS
10
1.6602503543307086
20
-1.138315590551181
11
1.6605226771653543
21
-1.1388263779527559
0
LINE
8
BLACK
6
CONTINUOUS
10
1.6605226771653543
20
-1.1388263779527559
11
1.6607462598425196
21
-1.1399566141732282
0
LINE
8
BLACK
6
CONTINUOUS
10
1.6607462598425196
20
-1.1399566141732282
11
1.6605203149606298
21
-1.1410862992125983
0
LINE
8
BLACK
6
CONTINUOUS
10
1.6605203149606298
20
-1.1410862992125983
11
1.6598792519685039
21
-1.1420435826771653
0
LINE
8
BLACK
6
CONTINUOUS
10
1.6598792519685039
20
-1.1420435826771653
11
1.6589206299212598
21
-1.1426826771653542
0
LINE
8
BLACK
6
CONTINUOUS
10
1.6589206299212598
20
-1.1426826771653542
11
1.6577903937007874
21
-1.1429062598425197
0
LINE
8
BLACK
6
CONTINUOUS
10
1.6577903937007874
20
-1.1429062598425197
11
1.6566607086614173
21
-1.1426803149606299
0
LINE
8
BLACK
6
CONTINUOUS
10
1.6566607086614173
20
-1.1426803149606299
11
1.6557034251968503
21
-1.1420392519685039
0
LINE
8
BLACK
6
CONTINUOUS
10
1.6557034251968503
20
-1.1420392519685039
11
1.6553366535433069
21
-1.1415913779527558
0
LINE
8
BLACK
6
CONTINUOUS
10
1.6553366535433069
20
-1.1415913779527558
11
1.6446701574803149
21
-1.1255916141732283
0
LINE
8
BLACK
6
CONTINUOUS
10
1.6446701574803149
20
-1.1255916141732283
11
1.6340036614173228
21
-1.1415913779527558
0
LINE
8
BLACK
6
CONTINUOUS
10
1.6340036614173228
20
-1.1415913779527558
11
1.6336368897637794
21
-1.1420392519685039
0
LINE
8
BLACK
6
CONTINUOUS
10
1.6336368897637794
20
-1.1420392519685039
11
1.6326796062992126
21
-1.1426803149606299
0
LINE
8
BLACK
6
CONTINUOUS
10
1.6326796062992126
20
-1.1426803149606299
11
1.6315499212598426
21
-1.1429062598425197
0
LINE
8
BLACK
6
CONTINUOUS
10
1.6315499212598426
20
-1.1429062598425197
11
1.63041968503937
21
-1.1426826771653542
0
LINE
8
BLACK
6
CONTINUOUS
10
1.63041968503937
20
-1.1426826771653542
11
1.629461062992126
21
-1.1420435826771653
0
LINE
8
BLACK
6
CONTINUOUS
10
1.629461062992126
20
-1.1420435826771653
11
1.6288199999999999
21
-1.1410862992125983
0
LINE
8
BLACK
6
CONTINUOUS
10
1.6288199999999999
20
-1.1410862992125983
11
1.6285940551181102
21
-1.1399566141732282
0
LINE
8
BLACK
6
CONTINUOUS
10
1.6285940551181102
20
-1.1399566141732282
11
1.6288176377952757
21
-1.1388263779527559
0
LINE
8
BLACK
6
CONTINUOUS
10
1.6288176377952757
20
-1.1388263779527559
11
1.6290899606299212
21
-1.1383156299212598
0
LINE
8
BLACK
6
CONTINUOUS
10
1.6290899606299212
20
-1.1383156299212598
11
1.6411213779527558
21
-1.1202684645669292
0
LINE
8
BLACK
6
CONTINUOUS
10
1.6411213779527558
20
-1.1202684645669292
11
1.6290899606299212
21
-1.1022212992125984
0
LINE
8
BLACK
6
CONTINUOUS
10
1.6290899606299212
20
-1.1022212992125984
11
1.6288176377952757
21
-1.1017105511811023
0
LINE
8
BLACK
6
CONTINUOUS
10
1.6288176377952757
20
-1.1017105511811023
11
1.6285940551181102
21
-1.1005803149606299
0
LINE
8
BLACK
6
CONTINUOUS
10
1.6285940551181102
20
-1.1005803149606299
11
1.6288199999999999
21
-1.0994506299212599
0
LINE
8
BLACK
6
CONTINUOUS
10
1.6288199999999999
20
-1.0994506299212599
11
1.629461062992126
21
-1.0984933464566928
0
LINE
8
BLACK
6
CONTINUOUS
10
1.629461062992126
20
-1.0984933464566928
11
1.63041968503937
21
-1.0978542519685039
0
LINE
8
BLACK
6
CONTINUOUS
10
1.63041968503937
20
-1.0978542519685039
11
1.6315499212598426
21
-1.0976306692913385
0
LINE
8
BLACK
6
CONTINUOUS
10
1.6315499212598426
20
-1.0976306692913385
11
1.6326796062992126
21
-1.0978566141732282
0
LINE
8
BLACK
6
CONTINUOUS
10
1.6326796062992126
20
-1.0978566141732282
11
1.6336368897637794
21
-1.0984976771653543
0
LINE
8
BLACK
6
CONTINUOUS
10
1.6336368897637794
20
-1.0984976771653543
11
1.6340036614173228
21
-1.0989455511811024
0
LINE
8
BLACK
6
CONTINUOUS
10
1.6340036614173228
20
-1.0989455511811024
11
1.6446701574803149
21
-1.1149452755905511
0
LINE
8
BLACK
6
CONTINUOUS
10
1.6446701574803149
20
-1.1149452755905511
11
1.6553366535433069
21
-1.0989455511811024
0
LINE
8
BLACK
6
CONTINUOUS
10
1.6553366535433069
20
-1.0989455511811024
11
1.6557034251968503
21
-1.0984976771653543
0
LINE
8
BLACK
6
CONTINUOUS
10
1.6557034251968503
20
-1.0984976771653543
11
1.6566607086614173
21
-1.0978566141732282
0
LINE
8
BLACK
6
CONTINUOUS
10
1.6566607086614173
20
-1.0978566141732282
11
1.6577903937007874
21
-1.0976306692913385
0
LINE
8
BLACK
6
CONTINUOUS
10
1.6577903937007874
20
-1.0976306692913385
11
1.6589206299212598
21
-1.0978542519685039
0
LINE
8
BLACK
6
CONTINUOUS
10
-1.6277333070866142
20
-1.097687401574803
11
-1.6272212598425198
21
-1.097687401574803
0
LINE
8
BLACK
6
CONTINUOUS
10
-1.6272212598425198
20
-1.097687401574803
11
-1.6271605118110235
21
-1.097712559055118
0
LINE
8
BLACK
6
CONTINUOUS
10
-1.6271605118110235
20
-1.097712559055118
11
-1.6270946456692914
21
-1.0977154724409448
0
LINE
8
BLACK
6
CONTINUOUS
10
-1.6270946456692914
20
-1.0977154724409448
11
-1.6266298031496063
21
-1.0979323622047243
0
LINE
8
BLACK
6
CONTINUOUS
10
-1.6266298031496063
20
-1.0979323622047243
11
-1.6261568503937007
21
-1.0981283070866141
0
LINE
8
BLACK
6
CONTINUOUS
10
-1.6261568503937007
20
-1.0981283070866141
11
-1.6261103543307087
21
-1.0981748031496064
0
LINE
8
BLACK
6
CONTINUOUS
10
-1.6261103543307087
20
-1.0981748031496064
11
-1.6260506299212598
21
-1.0982026771653544
0
LINE
8
BLACK
6
CONTINUOUS
10
-1.6260506299212598
20
-1.0982026771653544
11
-1.6257044094488189
21
-1.098580748031496
0
LINE
8
BLACK
6
CONTINUOUS
10
-1.6257044094488189
20
-1.098580748031496
11
-1.6253422047244095
21
-1.0989429527559056
0
LINE
8
BLACK
6
CONTINUOUS
10
-1.6253422047244095
20
-1.0989429527559056
11
-1.6253170078740158
21
-1.0990037795275591
0
LINE
8
BLACK
6
CONTINUOUS
10
-1.6253170078740158
20
-1.0990037795275591
11
-1.6252725196850393
21
-1.0990523622047244
0
LINE
8
BLACK
6
CONTINUOUS
10
-1.6252725196850393
20
-1.0990523622047244
11
-1.625097440944882
21
-1.0995338582677165
0
LINE
8
BLACK
6
CONTINUOUS
10
-1.625097440944882
20
-1.0995338582677165
11
-1.6249012992125984
21
-1.1000073622047244
0
LINE
8
BLACK
6
CONTINUOUS
10
-1.6249012992125984
20
-1.1000073622047244
11
-1.6248924015748032
21
-1.1000977165354331
0
LINE
8
BLACK
6
CONTINUOUS
10
-1.6248924015748032
20
-1.1000977165354331
11
-1.6248788188976377
21
-1.1001350787401574
0
LINE
8
BLACK
6
CONTINUOUS
10
-1.6248788188976377
20
-1.1001350787401574
11
-1.6248818897637796
21
-1.1002046062992126
0
LINE
8
BLACK
6
CONTINUOUS
10
-1.6248818897637796
20
-1.1002046062992126
11
-1.6248445669291338
21
-1.1005834251968503
0
LINE
8
BLACK
6
CONTINUOUS
10
-1.6248445669291338
20
-1.1005834251968503
11
-1.6248445669291338
21
-1.1399535039370079
0
LINE
8
BLACK
6
CONTINUOUS
10
-1.6248445669291338
20
-1.1399535039370079
11
-1.6249012992125984
21
-1.1405295669291338
0
LINE
8
BLACK
6
CONTINUOUS
10
-1.6249012992125984
20
-1.1405295669291338
11
-1.6253422047244095
21
-1.1415939763779528
0
LINE
8
BLACK
6
CONTINUOUS
10
-1.6253422047244095
20
-1.1415939763779528
11
-1.6261568503937007
21
-1.142408622047244
0
LINE
8
BLACK
6
CONTINUOUS
10
-1.6261568503937007
20
-1.142408622047244
11
-1.6272212598425198
21
-1.1428495275590551
0
LINE
8
BLACK
6
CONTINUOUS
10
-1.6272212598425198
20
-1.1428495275590551
11
-1.6283733858267717
21
-1.1428495275590551
0
LINE
8
BLACK
6
CONTINUOUS
10
-1.6283733858267717
20
-1.1428495275590551
11
-1.6294377952755905
21
-1.142408622047244
0
LINE
8
BLACK
6
CONTINUOUS
10
-1.6294377952755905
20
-1.142408622047244
11
-1.6302524409448818
21
-1.1415939763779528
0
LINE
8
BLACK
6
CONTINUOUS
10
-1.6302524409448818
20
-1.1415939763779528
11
-1.6306933464566928
21
-1.1405295669291338
0
LINE
8
BLACK
6
CONTINUOUS
10
-1.6306933464566928
20
-1.1405295669291338
11
-1.6307500787401574
21
-1.1399535039370079
0
LINE
8
BLACK
6
CONTINUOUS
10
-1.6307500787401574
20
-1.1399535039370079
11
-1.6307500787401574
21
-1.1138931496062991
0
LINE
8
BLACK
6
CONTINUOUS
10
-1.6307500787401574
20
-1.1138931496062991
11
-1.6382449212598424
21
-1.1299535433070866
0
LINE
8
BLACK
6
CONTINUOUS
10
-1.6382449212598424
20
-1.1299535433070866
11
-1.6383698818897638
21
-1.1301644488188975
0
LINE
8
BLACK
6
CONTINUOUS
10
-1.6383698818897638
20
-1.1301644488188975
11
-1.6383958661417322
21
-1.1302359448818897
0
LINE
8
BLACK
6
CONTINUOUS
10
-1.6383958661417322
20
-1.1302359448818897
11
-1.6384422047244094
21
-1.1302864960629921
0
LINE
8
BLACK
6
CONTINUOUS
10
-1.6384422047244094
20
-1.1302864960629921
11
-1.6385399606299211
21
-1.1304515748031496
0
LINE
8
BLACK
6
CONTINUOUS
10
-1.6385399606299211
20
-1.1304515748031496
11
-1.6388707874015747
21
-1.1307544881889764
0
LINE
8
BLACK
6
CONTINUOUS
10
-1.6388707874015747
20
-1.1307544881889764
11
-1.6391739763779527
21
-1.1310856299212597
0
LINE
8
BLACK
6
CONTINUOUS
10
-1.6391739763779527
20
-1.1310856299212597
11
-1.6392929527559055
21
-1.1311411023622047
0
LINE
8
BLACK
6
CONTINUOUS
10
-1.6392929527559055
20
-1.1311411023622047
11
-1.6393896062992126
21
-1.1312296850393702
0
LINE
8
BLACK
6
CONTINUOUS
10
-1.6393896062992126
20
-1.1312296850393702
11
-1.6398111023622046
21
-1.1313829133858266
0
LINE
8
BLACK
6
CONTINUOUS
10
-1.6398111023622046
20
-1.1313829133858266
11
-1.6402179921259843
21
-1.1315728346456693
0
LINE
8
BLACK
6
CONTINUOUS
10
-1.6402179921259843
20
-1.1315728346456693
11
-1.6403491732283464
21
-1.1315785826771654
0
LINE
8
BLACK
6
CONTINUOUS
10
-1.6403491732283464
20
-1.1315785826771654
11
-1.6404723228346456
21
-1.1316233858267717
0
LINE
8
BLACK
6
CONTINUOUS
10
-1.6404723228346456
20
-1.1316233858267717
11
-1.6409204330708662
21
-1.1316037007874016
0
LINE
8
BLACK
6
CONTINUOUS
10
-1.6409204330708662
20
-1.1316037007874016
11
-1.6413690157480314
21
-1.1316234251968504
0
LINE
8
BLACK
6
CONTINUOUS
10
-1.6413690157480314
20
-1.1316234251968504
11
-1.6414923228346456
21
-1.1315785826771654
0
LINE
8
BLACK
6
CONTINUOUS
10
-1.6414923228346456
20
-1.1315785826771654
11
-1.6416233464566929
21
-1.1315728346456693
0
LINE
8
BLACK
6
CONTINUOUS
10
-1.6416233464566929
20
-1.1315728346456693
11
-1.6420299999999999
21
-1.1313830314960629
0
LINE
8
BLACK
6
CONTINUOUS
10
-1.6420299999999999
20
-1.1313830314960629
11
-1.6424517322834646
21
-1.1312296850393702
0
LINE
8
BLACK
6
CONTINUOUS
10
-1.6424517322834646
20
-1.1312296850393702
11
-1.6425485433070866
21
-1.1311410236220472
0
LINE
8
BLACK
6
CONTINUOUS
10
-1.6425485433070866
20
-1.1311410236220472
11
-1.6426673622047243
21
-1.1310855905511812
0
LINE
8
BLACK
6
CONTINUOUS
10
-1.6426673622047243
20
-1.1310855905511812
11
-1.6429703149606298
21
-1.1307547637795274
0
LINE
8
BLACK
6
CONTINUOUS
10
-1.6429703149606298
20
-1.1307547637795274
11
-1.6433013779527559
21
-1.1304516141732284
0
LINE
8
BLACK
6
CONTINUOUS
10
-1.6433013779527559
20
-1.1304516141732284
11
-1.6433992519685039
21
-1.1302864173228346
0
LINE
8
BLACK
6
CONTINUOUS
10
-1.6433992519685039
20
-1.1302864173228346
11
-1.6434454724409449
21
-1.1302359448818897
0
LINE
8
BLACK
6
CONTINUOUS
10
-1.6434454724409449
20
-1.1302359448818897
11
-1.6434714566929134
21
-1.1301645669291338
0
LINE
8
BLACK
6
CONTINUOUS
10
-1.6434714566929134
20
-1.1301645669291338
11
-1.6435964173228346
21
-1.1299535826771654
0
LINE
8
BLACK
6
CONTINUOUS
10
-1.6435964173228346
20
-1.1299535826771654
11
-1.6510912598425196
21
-1.1138931496062991
0
LINE
8
BLACK
6
CONTINUOUS
10
-1.6510912598425196
20
-1.1138931496062991
11
-1.6510912598425196
21
-1.1399535039370079
0
LINE
8
BLACK
6
CONTINUOUS
10
-1.6510912598425196
20
-1.1399535039370079
11
-1.6511479921259842
21
-1.1405295669291338
0
LINE
8
BLACK
6
CONTINUOUS
10
-1.6511479921259842
20
-1.1405295669291338
11
-1.6515888976377953
21
-1.1415939763779528
0
LINE
8
BLACK
6
CONTINUOUS
10
-1.6515888976377953
20
-1.1415939763779528
11
-1.6524035433070865
21
-1.142408622047244
0
LINE
8
BLACK
6
CONTINUOUS
10
-1.6524035433070865
20
-1.142408622047244
11
-1.6534679527559055
21
-1.1428495275590551
0
LINE
8
BLACK
6
CONTINUOUS
10
-1.6534679527559055
20
-1.1428495275590551
11
-1.6546200787401575
21
-1.1428495275590551
0
LINE
8
BLACK
6
CONTINUOUS
10
-1.6546200787401575
20
-1.1428495275590551
11
-1.6556844881889763
21
-1.142408622047244
0
LINE
8
BLACK
6
CONTINUOUS
10
-1.6556844881889763
20
-1.142408622047244
11
-1.6564991338582677
21
-1.1415939763779528
0
LINE
8
BLACK
6
CONTINUOUS
10
-1.6564991338582677
20
-1.1415939763779528
11
-1.6569400393700786
21
-1.1405295669291338
0
LINE
8
BLACK
6
CONTINUOUS
10
-1.6569400393700786
20
-1.1405295669291338
11
-1.6569967716535432
21
-1.1399535039370079
0
LINE
8
BLACK
6
CONTINUOUS
10
-1.6569967716535432
20
-1.1399535039370079
11
-1.6569967716535432
21
-1.1005834251968503
0
LINE
8
BLACK
6
CONTINUOUS
10
-1.6569967716535432
20
-1.1005834251968503
11
-1.6569594881889764
21
-1.1002046062992126
0
LINE
8
BLACK
6
CONTINUOUS
10
-1.6569594881889764
20
-1.1002046062992126
11
-1.6569625196850393
21
-1.1001350787401574
0
LINE
8
BLACK
6
CONTINUOUS
10
-1.6569625196850393
20
-1.1001350787401574
11
-1.6569489763779528
21
-1.1000977165354331
0
LINE
8
BLACK
6
CONTINUOUS
10
-1.6569489763779528
20
-1.1000977165354331
11
-1.6569400393700786
21
-1.1000073622047244
0
LINE
8
BLACK
6
CONTINUOUS
10
-1.6569400393700786
20
-1.1000073622047244
11
-1.656743937007874
21
-1.0995338582677165
0
LINE
8
BLACK
6
CONTINUOUS
10
-1.656743937007874
20
-1.0995338582677165
11
-1.6565688188976377
21
-1.0990523622047244
0
LINE
8
BLACK
6
CONTINUOUS
10
-1.6565688188976377
20
-1.0990523622047244
11
-1.6565243700787402
21
-1.0990037795275591
0
LINE
8
BLACK
6
CONTINUOUS
10
-1.6565243700787402
20
-1.0990037795275591
11
-1.6564991338582677
21
-1.0989429527559056
0
LINE
8
BLACK
6
CONTINUOUS
10
-1.6564991338582677
20
-1.0989429527559056
11
-1.6561367322834646
21
-1.0985805118110237
0
LINE
8
BLACK
6
CONTINUOUS
10
-1.6561367322834646
20
-1.0985805118110237
11
-1.6557907086614172
21
-1.0982027165354331
0
LINE
8
BLACK
6
CONTINUOUS
10
-1.6557907086614172
20
-1.0982027165354331
11
-1.655731062992126
21
-1.0981748425196851
0
LINE
8
BLACK
6
CONTINUOUS
10
-1.655731062992126
20
-1.0981748425196851
11
-1.6556844881889763
21
-1.0981283070866141
0
LINE
8
BLACK
6
CONTINUOUS
10
-1.6556844881889763
20
-1.0981283070866141
11
-1.655211220472441
21
-1.0979322440944881
0
LINE
8
BLACK
6
CONTINUOUS
10
-1.655211220472441
20
-1.0979322440944881
11
-1.6547466929133858
21
-1.0977154724409448
0
LINE
8
BLACK
6
CONTINUOUS
10
-1.6547466929133858
20
-1.0977154724409448
11
-1.654680905511811
21
-1.097712559055118
0
LINE
8
BLACK
6
CONTINUOUS
10
-1.654680905511811
20
-1.097712559055118
11
-1.6546200787401575
21
-1.097687401574803
0
LINE
8
BLACK
6
CONTINUOUS
10
-1.6546200787401575
20
-1.097687401574803
11
-1.6541075196850394
21
-1.097687401574803
0
LINE
8
BLACK
6
CONTINUOUS
10
-1.6541075196850394
20
-1.097687401574803
11
-1.6535956692913385
21
-1.0976649212598424
0
LINE
8
BLACK
6
CONTINUOUS
10
-1.6535956692913385
20
-1.0976649212598424
11
-1.6535338582677166
21
-1.097687401574803
0
LINE
8
BLACK
6
CONTINUOUS
10
-1.6535338582677166
20
-1.097687401574803
11
-1.6534679527559055
21
-1.097687401574803
0
LINE
8
BLACK
6
CONTINUOUS
10
-1.6534679527559055
20
-1.097687401574803
11
-1.6529944881889764
21
-1.0978835039370078
0
LINE
8
BLACK
6
CONTINUOUS
10
-1.6529944881889764
20
-1.0978835039370078
11
-1.6525129527559055
21
-1.0980586220472441
0
LINE
8
BLACK
6
CONTINUOUS
10
-1.6525129527559055
20
-1.0980586220472441
11
-1.6524644094488188
21
-1.0981030708661417
0
LINE
8
BLACK
6
CONTINUOUS
10
-1.6524644094488188
20
-1.0981030708661417
11
-1.6524035433070865
21
-1.0981283070866141
0
LINE
8
BLACK
6
CONTINUOUS
10
-1.6524035433070865
20
-1.0981283070866141
11
-1.6520411417322833
21
-1.0984907086614173
0
LINE
8
BLACK
6
CONTINUOUS
10
-1.6520411417322833
20
-1.0984907086614173
11
-1.6516633070866142
21
-1.0988367322834645
0
LINE
8
BLACK
6
CONTINUOUS
10
-1.6516633070866142
20
-1.0988367322834645
11
-1.6516170866141733
21
-1.0989147637795276
0
LINE
8
BLACK
6
CONTINUOUS
10
-1.6516170866141733
20
-1.0989147637795276
11
-1.6515888976377953
21
-1.0989429527559056
0
LINE
8
BLACK
6
CONTINUOUS
10
-1.6515888976377953
20
-1.0989429527559056
11
-1.6515622047244094
21
-1.0990073622047243
0
LINE
8
BLACK
6
CONTINUOUS
10
-1.6515622047244094
20
-1.0990073622047243
11
-1.6513682677165353
21
-1.0993347637795274
0
LINE
8
BLACK
6
CONTINUOUS
10
-1.6513682677165353
20
-1.0993347637795274
11
-1.6409207086614173
21
-1.1217224409448818
0
LINE
8
BLACK
6
CONTINUOUS
10
-1.6409207086614173
20
-1.1217224409448818
11
-1.6304730708661417
21
-1.0993347244094489
0
LINE
8
BLACK
6
CONTINUOUS
10
-1.6304730708661417
20
-1.0993347244094489
11
-1.6302790944881889
21
-1.0990072440944882
0
LINE
8
BLACK
6
CONTINUOUS
10
-1.6302790944881889
20
-1.0990072440944882
11
-1.6302524409448818
21
-1.0989429527559056
0
LINE
8
BLACK
6
CONTINUOUS
10
-1.6302524409448818
20
-1.0989429527559056
11
-1.6302243307086615
21
-1.0989148031496063
0
LINE
8
BLACK
6
CONTINUOUS
10
-1.6302243307086615
20
-1.0989148031496063
11
-1.630178031496063
21
-1.0988366929133857
0
LINE
8
BLACK
6
CONTINUOUS
10
-1.630178031496063
20
-1.0988366929133857
11
-1.6297999606299212
21
-1.098490433070866
0
LINE
8
BLACK
6
CONTINUOUS
10
-1.6297999606299212
20
-1.098490433070866
11
-1.6294377952755905
21
-1.0981283070866141
0
LINE
8
BLACK
6
CONTINUOUS
10
-1.6294377952755905
20
-1.0981283070866141
11
-1.629376968503937
21
-1.0981031102362204
0
LINE
8
BLACK
6
CONTINUOUS
10
-1.629376968503937
20
-1.0981031102362204
11
-1.6293283858267715
21
-1.0980586220472441
0
LINE
8
BLACK
6
CONTINUOUS
10
-1.6293283858267715
20
-1.0980586220472441
11
-1.6288465748031495
21
-1.0978833858267716
0
LINE
8
BLACK
6
CONTINUOUS
10
-1.6288465748031495
20
-1.0978833858267716
11
-1.6283733858267717
21
-1.097687401574803
0
LINE
8
BLACK
6
CONTINUOUS
10
-1.6283733858267717
20
-1.097687401574803
11
-1.6283075984251969
21
-1.097687401574803
0
LINE
8
BLACK
6
CONTINUOUS
10
-1.6283075984251969
20
-1.097687401574803
11
-1.6282456692913385
21
-1.0976648818897639
0
LINE
8
BLACK
6
CONTINUOUS
10
-1.6282456692913385
20
-1.0976648818897639
11
-1.6277333070866142
21
-1.097687401574803
0
LINE
8
BLACK
6
CONTINUOUS
10
1.5772425984251968
20
-1.097687401574803
11
1.5777546456692912
21
-1.097687401574803
0
LINE
8
BLACK
6
CONTINUOUS
10
1.5777546456692912
20
-1.097687401574803
11
1.5778153937007873
21
-1.097712559055118
0
LINE
8
BLACK
6
CONTINUOUS
10
1.5778153937007873
20
-1.097712559055118
11
1.5778812598425196
21
-1.0977154724409448
0
LINE
8
BLACK
6
CONTINUOUS
10
1.5778812598425196
20
-1.0977154724409448
11
1.5783461023622047
21
-1.0979323622047243
0
LINE
8
BLACK
6
CONTINUOUS
10
1.5783461023622047
20
-1.0979323622047243
11
1.5788190551181103
21
-1.0981283070866141
0
LINE
8
BLACK
6
CONTINUOUS
10
1.5788190551181103
20
-1.0981283070866141
11
1.5788655511811023
21
-1.0981748031496064
0
LINE
8
BLACK
6
CONTINUOUS
10
1.5788655511811023
20
-1.0981748031496064
11
1.5789252755905512
21
-1.0982026771653544
0
LINE
8
BLACK
6
CONTINUOUS
10
1.5789252755905512
20
-1.0982026771653544
11
1.5792714960629921
21
-1.098580748031496
0
LINE
8
BLACK
6
CONTINUOUS
10
1.5792714960629921
20
-1.098580748031496
11
1.5796337007874015
21
-1.0989429527559056
0
LINE
8
BLACK
6
CONTINUOUS
10
1.5796337007874015
20
-1.0989429527559056
11
1.5796588976377952
21
-1.0990037795275591
0
LINE
8
BLACK
6
CONTINUOUS
10
1.5796588976377952
20
-1.0990037795275591
11
1.5797033858267717
21
-1.0990523622047244
0
LINE
8
BLACK
6
CONTINUOUS
10
1.5797033858267717
20
-1.0990523622047244
11
1.579878464566929
21
-1.0995338582677165
0
LINE
8
BLACK
6
CONTINUOUS
10
1.579878464566929
20
-1.0995338582677165
11
1.5800746062992126
21
-1.1000073622047244
0
LINE
8
BLACK
6
CONTINUOUS
10
1.5800746062992126
20
-1.1000073622047244
11
1.5800835039370078
21
-1.1000977165354331
0
LINE
8
BLACK
6
CONTINUOUS
10
1.5800835039370078
20
-1.1000977165354331
11
1.5800970866141733
21
-1.1001350787401574
0
LINE
8
BLACK
6
CONTINUOUS
10
1.5800970866141733
20
-1.1001350787401574
11
1.5800940157480314
21
-1.1002046062992126
0
LINE
8
BLACK
6
CONTINUOUS
10
1.5800940157480314
20
-1.1002046062992126
11
1.5801313385826772
21
-1.1005834251968503
0
LINE
8
BLACK
6
CONTINUOUS
10
1.5801313385826772
20
-1.1005834251968503
11
1.5801313385826772
21
-1.1399535039370079
0
LINE
8
BLACK
6
CONTINUOUS
10
1.5801313385826772
20
-1.1399535039370079
11
1.5800746062992126
21
-1.1405295669291338
0
LINE
8
BLACK
6
CONTINUOUS
10
1.5800746062992126
20
-1.1405295669291338
11
1.5796337007874015
21
-1.1415939763779528
0
LINE
8
BLACK
6
CONTINUOUS
10
1.5796337007874015
20
-1.1415939763779528
11
1.5788190551181103
21
-1.142408622047244
0
LINE
8
BLACK
6
CONTINUOUS
10
1.5788190551181103
20
-1.142408622047244
11
1.5777546456692912
21
-1.1428495275590551
0
LINE
8
BLACK
6
CONTINUOUS
10
1.5777546456692912
20
-1.1428495275590551
11
1.5766025196850393
21
-1.1428495275590551
0
LINE
8
BLACK
6
CONTINUOUS
10
1.5766025196850393
20
-1.1428495275590551
11
1.5755381102362205
21
-1.142408622047244
0
LINE
8
BLACK
6
CONTINUOUS
10
1.5755381102362205
20
-1.142408622047244
11
1.574723464566929
21
-1.1415939763779528
0
LINE
8
BLACK
6
CONTINUOUS
10
1.574723464566929
20
-1.1415939763779528
11
1.5742825590551182
21
-1.1405295669291338
0
LINE
8
BLACK
6
CONTINUOUS
10
1.5742825590551182
20
-1.1405295669291338
11
1.5742258267716536
21
-1.1399535039370079
0
LINE
8
BLACK
6
CONTINUOUS
10
1.5742258267716536
20
-1.1399535039370079
11
1.5742258267716536
21
-1.1138931496062991
0
LINE
8
BLACK
6
CONTINUOUS
10
1.5742258267716536
20
-1.1138931496062991
11
1.5667309842519686
21
-1.1299535433070866
0
LINE
8
BLACK
6
CONTINUOUS
10
1.5667309842519686
20
-1.1299535433070866
11
1.5666060236220472
21
-1.1301644488188975
0
LINE
8
BLACK
6
CONTINUOUS
10
1.5666060236220472
20
-1.1301644488188975
11
1.5665800393700786
21
-1.1302359448818897
0
LINE
8
BLACK
6
CONTINUOUS
10
1.5665800393700786
20
-1.1302359448818897
11
1.5665337007874016
21
-1.1302864960629921
0
LINE
8
BLACK
6
CONTINUOUS
10
1.5665337007874016
20
-1.1302864960629921
11
1.5664359448818896
21
-1.1304515748031496
0
LINE
8
BLACK
6
CONTINUOUS
10
1.5664359448818896
20
-1.1304515748031496
11
1.5661051181102361
21
-1.1307544881889764
0
LINE
8
BLACK
6
CONTINUOUS
10
1.5661051181102361
20
-1.1307544881889764
11
1.5658019291338583
21
-1.1310856299212597
0
LINE
8
BLACK
6
CONTINUOUS
10
1.5658019291338583
20
-1.1310856299212597
11
1.5656829527559055
21
-1.1311411023622047
0
LINE
8
BLACK
6
CONTINUOUS
10
1.5656829527559055
20
-1.1311411023622047
11
1.5655862992125984
21
-1.1312296850393702
0
LINE
8
BLACK
6
CONTINUOUS
10
1.5655862992125984
20
-1.1312296850393702
11
1.5651648031496062
21
-1.1313829133858266
0
LINE
8
BLACK
6
CONTINUOUS
10
1.5651648031496062
20
-1.1313829133858266
11
1.5647579133858267
21
-1.1315728346456693
0
LINE
8
BLACK
6
CONTINUOUS
10
1.5647579133858267
20
-1.1315728346456693
11
1.5646267322834646
21
-1.1315785826771654
0
LINE
8
BLACK
6
CONTINUOUS
10
1.5646267322834646
20
-1.1315785826771654
11
1.5645035826771654
21
-1.1316233858267717
0
LINE
8
BLACK
6
CONTINUOUS
10
1.5645035826771654
20
-1.1316233858267717
11
1.5640554724409448
21
-1.1316037007874016
0
LINE
8
BLACK
6
CONTINUOUS
10
1.5640554724409448
20
-1.1316037007874016
11
1.5636068897637796
21
-1.1316234251968504
0
LINE
8
BLACK
6
CONTINUOUS
10
1.5636068897637796
20
-1.1316234251968504
11
1.5634835826771654
21
-1.1315785826771654
0
LINE
8
BLACK
6
CONTINUOUS
10
1.5634835826771654
20
-1.1315785826771654
11
1.5633525590551181
21
-1.1315728346456693
0
LINE
8
BLACK
6
CONTINUOUS
10
1.5633525590551181
20
-1.1315728346456693
11
1.5629459055118109
21
-1.1313830314960629
0
LINE
8
BLACK
6
CONTINUOUS
10
1.5629459055118109
20
-1.1313830314960629
11
1.5625241732283464
21
-1.1312296850393702
0
LINE
8
BLACK
6
CONTINUOUS
10
1.5625241732283464
20
-1.1312296850393702
11
1.5624273622047244
21
-1.1311410236220472
0
LINE
8
BLACK
6
CONTINUOUS
10
1.5624273622047244
20
-1.1311410236220472
11
1.5623085433070867
21
-1.1310855905511812
0
LINE
8
BLACK
6
CONTINUOUS
10
1.5623085433070867
20
-1.1310855905511812
11
1.5620055905511812
21
-1.1307547637795274
0
LINE
8
BLACK
6
CONTINUOUS
10
1.5620055905511812
20
-1.1307547637795274
11
1.5616745275590551
21
-1.1304516141732284
0
LINE
8
BLACK
6
CONTINUOUS
10
1.5616745275590551
20
-1.1304516141732284
11
1.5615766535433071
21
-1.1302864173228346
0
LINE
8
BLACK
6
CONTINUOUS
10
1.5615766535433071
20
-1.1302864173228346
11
1.5615304330708661
21
-1.1302359448818897
0
LINE
8
BLACK
6
CONTINUOUS
10
1.5615304330708661
20
-1.1302359448818897
11
1.5615044488188976
21
-1.1301645669291338
0
LINE
8
BLACK
6
CONTINUOUS
10
1.5615044488188976
20
-1.1301645669291338
11
1.5613794881889764
21
-1.1299535826771654
0
LINE
8
BLACK
6
CONTINUOUS
10
1.5613794881889764
20
-1.1299535826771654
11
1.5538846456692914
21
-1.1138931496062991
0
LINE
8
BLACK
6
CONTINUOUS
10
1.5538846456692914
20
-1.1138931496062991
11
1.5538846456692914
21
-1.1399535039370079
0
LINE
8
BLACK
6
CONTINUOUS
10
1.5538846456692914
20
-1.1399535039370079
11
1.5538279133858268
21
-1.1405295669291338
0
LINE
8
BLACK
6
CONTINUOUS
10
1.5538279133858268
20
-1.1405295669291338
11
1.5533870078740157
21
-1.1415939763779528
0
LINE
8
BLACK
6
CONTINUOUS
10
1.5533870078740157
20
-1.1415939763779528
11
1.5525723622047243
21
-1.142408622047244
0
LINE
8
BLACK
6
CONTINUOUS
10
1.5525723622047243
20
-1.142408622047244
11
1.5515079527559055
21
-1.1428495275590551
0
LINE
8
BLACK
6
CONTINUOUS
10
1.5515079527559055
20
-1.1428495275590551
11
1.5503558267716535
21
-1.1428495275590551
0
LINE
8
BLACK
6
CONTINUOUS
10
1.5503558267716535
20
-1.1428495275590551
11
1.5492914173228347
21
-1.142408622047244
0
LINE
8
BLACK
6
CONTINUOUS
10
1.5492914173228347
20
-1.142408622047244
11
1.5484767716535432
21
-1.1415939763779528
0
LINE
8
BLACK
6
CONTINUOUS
10
1.5484767716535432
20
-1.1415939763779528
11
1.5480358661417322
21
-1.1405295669291338
0
LINE
8
BLACK
6
CONTINUOUS
10
1.5480358661417322
20
-1.1405295669291338
11
1.5479791338582676
21
-1.1399535039370079
0
LINE
8
BLACK
6
CONTINUOUS
10
1.5479791338582676
20
-1.1399535039370079
11
1.5479791338582676
21
-1.1005834251968503
0
LINE
8
BLACK
6
CONTINUOUS
10
1.5479791338582676
20
-1.1005834251968503
11
1.5480164173228346
21
-1.1002046062992126
0
LINE
8
BLACK
6
CONTINUOUS
10
1.5480164173228346
20
-1.1002046062992126
11
1.5480133858267717
21
-1.1001350787401574
0
LINE
8
BLACK
6
CONTINUOUS
10
1.5480133858267717
20
-1.1001350787401574
11
1.5480269291338582
21
-1.1000977165354331
0
LINE
8
BLACK
6
CONTINUOUS
10
1.5480269291338582
20
-1.1000977165354331
11
1.5480358661417322
21
-1.1000073622047244
0
LINE
8
BLACK
6
CONTINUOUS
10
1.5480358661417322
20
-1.1000073622047244
11
1.548231968503937
21
-1.0995338582677165
0
LINE
8
BLACK
6
CONTINUOUS
10
1.548231968503937
20
-1.0995338582677165
11
1.5484070866141733
21
-1.0990523622047244
0
LINE
8
BLACK
6
CONTINUOUS
10
1.5484070866141733
20
-1.0990523622047244
11
1.5484515354330708
21
-1.0990037795275591
0
LINE
8
BLACK
6
CONTINUOUS
10
1.5484515354330708
20
-1.0990037795275591
11
1.5484767716535432
21
-1.0989429527559056
0
LINE
8
BLACK
6
CONTINUOUS
10
1.5484767716535432
20
-1.0989429527559056
11
1.5488391732283464
21
-1.0985805118110237
0
LINE
8
BLACK
6
CONTINUOUS
10
1.5488391732283464
20
-1.0985805118110237
11
1.5491851968503936
21
-1.0982027165354331
0
LINE
8
BLACK
6
CONTINUOUS
10
1.5491851968503936
20
-1.0982027165354331
11
1.549244842519685
21
-1.0981748425196851
0
LINE
8
BLACK
6
CONTINUOUS
10
1.549244842519685
20
-1.0981748425196851
11
1.5492914173228347
21
-1.0981283070866141
0
LINE
8
BLACK
6
CONTINUOUS
10
1.5492914173228347
20
-1.0981283070866141
11
1.54976468503937
21
-1.0979322440944881
0
LINE
8
BLACK
6
CONTINUOUS
10
1.54976468503937
20
-1.0979322440944881
11
1.5502292125984252
21
-1.0977154724409448
0
LINE
8
BLACK
6
CONTINUOUS
10
1.5502292125984252
20
-1.0977154724409448
11
1.550295
21
-1.097712559055118
0
LINE
8
BLACK
6
CONTINUOUS
10
1.550295
20
-1.097712559055118
11
1.5503558267716535
21
-1.097687401574803
0
LINE
8
BLACK
6
CONTINUOUS
10
1.5503558267716535
20
-1.097687401574803
11
1.5508683858267716
21
-1.097687401574803
0
LINE
8
BLACK
6
CONTINUOUS
10
1.5508683858267716
20
-1.097687401574803
11
1.5513802362204725
21
-1.0976649212598424
0
LINE
8
BLACK
6
CONTINUOUS
10
1.5513802362204725
20
-1.0976649212598424
11
1.5514420472440944
21
-1.097687401574803
0
LINE
8
BLACK
6
CONTINUOUS
10
1.5514420472440944
20
-1.097687401574803
11
1.5515079527559055
21
-1.097687401574803
0
LINE
8
BLACK
6
CONTINUOUS
10
1.5515079527559055
20
-1.097687401574803
11
1.5519814173228346
21
-1.0978835039370078
0
LINE
8
BLACK
6
CONTINUOUS
10
1.5519814173228346
20
-1.0978835039370078
11
1.5524629527559055
21
-1.0980586220472441
0
LINE
8
BLACK
6
CONTINUOUS
10
1.5524629527559055
20
-1.0980586220472441
11
1.552511496062992
21
-1.0981030708661417
0
LINE
8
BLACK
6
CONTINUOUS
10
1.552511496062992
20
-1.0981030708661417
11
1.5525723622047243
21
-1.0981283070866141
0
LINE
8
BLACK
6
CONTINUOUS
10
1.5525723622047243
20
-1.0981283070866141
11
1.5529347637795274
21
-1.0984907086614173
0
LINE
8
BLACK
6
CONTINUOUS
10
1.5529347637795274
20
-1.0984907086614173
11
1.5533125984251968
21
-1.0988367322834645
0
LINE
8
BLACK
6
CONTINUOUS
10
1.5533125984251968
20
-1.0988367322834645
11
1.5533588188976377
21
-1.0989147637795276
0
LINE
8
BLACK
6
CONTINUOUS
10
1.5533588188976377
20
-1.0989147637795276
11
1.5533870078740157
21
-1.0989429527559056
0
LINE
8
BLACK
6
CONTINUOUS
10
1.5533870078740157
20
-1.0989429527559056
11
1.5534137007874016
21
-1.0990073622047243
0
LINE
8
BLACK
6
CONTINUOUS
10
1.5534137007874016
20
-1.0990073622047243
11
1.5536076377952757
21
-1.0993347637795274
0
LINE
8
BLACK
6
CONTINUOUS
10
1.5536076377952757
20
-1.0993347637795274
11
1.5640551968503937
21
-1.1217224409448818
0
LINE
8
BLACK
6
CONTINUOUS
10
1.5640551968503937
20
-1.1217224409448818
11
1.5745028346456693
21
-1.0993347244094489
0
LINE
8
BLACK
6
CONTINUOUS
10
1.5745028346456693
20
-1.0993347244094489
11
1.5746968110236219
21
-1.0990072440944882
0
LINE
8
BLACK
6
CONTINUOUS
10
1.5746968110236219
20
-1.0990072440944882
11
1.574723464566929
21
-1.0989429527559056
0
LINE
8
BLACK
6
CONTINUOUS
10
1.574723464566929
20
-1.0989429527559056
11
1.5747515748031495
21
-1.0989148031496063
0
LINE
8
BLACK
6
CONTINUOUS
10
1.5747515748031495
20
-1.0989148031496063
11
1.574797874015748
21
-1.0988366929133857
0
LINE
8
BLACK
6
CONTINUOUS
10
1.574797874015748
20
-1.0988366929133857
11
1.5751759448818898
21
-1.098490433070866
0
LINE
8
BLACK
6
CONTINUOUS
10
1.5751759448818898
20
-1.098490433070866
11
1.5755381102362205
21
-1.0981283070866141
0
LINE
8
BLACK
6
CONTINUOUS
10
1.5755381102362205
20
-1.0981283070866141
11
1.575598937007874
21
-1.0981031102362204
0
LINE
8
BLACK
6
CONTINUOUS
10
1.575598937007874
20
-1.0981031102362204
11
1.5756475196850392
21
-1.0980586220472441
0
LINE
8
BLACK
6
CONTINUOUS
10
1.5756475196850392
20
-1.0980586220472441
11
1.5761293307086615
21
-1.0978833858267716
0
LINE
8
BLACK
6
CONTINUOUS
10
1.5761293307086615
20
-1.0978833858267716
11
1.5766025196850393
21
-1.097687401574803
0
LINE
8
BLACK
6
CONTINUOUS
10
1.5766025196850393
20
-1.097687401574803
11
1.5766683070866141
21
-1.097687401574803
0
LINE
8
BLACK
6
CONTINUOUS
10
1.5766683070866141
20
-1.097687401574803
11
1.5767302362204725
21
-1.0976648818897639
0
LINE
8
BLACK
6
CONTINUOUS
10
1.5767302362204725
20
-1.0976648818897639
11
1.5772425984251968
21
-1.097687401574803
0
LINE
8
BLACK
6
CONTINUOUS
10
-1.6327185039370078
20
-0.9012779133858267
11
-1.6319038582677166
21
-0.9020925590551181
0
LINE
8
BLACK
6
CONTINUOUS
10
-1.6319038582677166
20
-0.9020925590551181
11
-1.6314629527559055
21
-0.903156968503937
0
LINE
8
BLACK
6
CONTINUOUS
10
-1.6314629527559055
20
-0.903156968503937
11
-1.6314062204724409
21
-0.903733031496063
0
LINE
8
BLACK
6
CONTINUOUS
10
-1.6314062204724409
20
-0.903733031496063
11
-1.6314062204724409
21
-0.9318544881889763
0
LINE
8
BLACK
6
CONTINUOUS
10
-1.6314062204724409
20
-0.9318544881889763
11
-1.6314349606299212
21
-0.932146062992126
0
LINE
8
BLACK
6
CONTINUOUS
10
-1.6314349606299212
20
-0.932146062992126
11
-1.6314294094488189
21
-0.9322238188976377
0
LINE
8
BLACK
6
CONTINUOUS
10
-1.6314294094488189
20
-0.9322238188976377
11
-1.6314526771653544
21
-0.9323260629921259
0
LINE
8
BLACK
6
CONTINUOUS
10
-1.6314526771653544
20
-0.9323260629921259
11
-1.6314629527559055
21
-0.9324305511811023
0
LINE
8
BLACK
6
CONTINUOUS
10
-1.6314629527559055
20
-0.9324305511811023
11
-1.6314928346456692
21
-0.9325025984251968
0
LINE
8
BLACK
6
CONTINUOUS
10
-1.6314928346456692
20
-0.9325025984251968
11
-1.6315577559055117
21
-0.9327882677165354
0
LINE
8
BLACK
6
CONTINUOUS
10
-1.6315577559055117
20
-0.9327882677165354
11
-1.6334325196850394
21
-0.9384125196850394
0
LINE
8
BLACK
6
CONTINUOUS
10
-1.6334325196850394
20
-0.9384125196850394
11
-1.6336685039370078
21
-0.9389411023622047
0
LINE
8
BLACK
6
CONTINUOUS
10
-1.6336685039370078
20
-0.9389411023622047
11
-1.633738031496063
21
-0.939021220472441
0
LINE
8
BLACK
6
CONTINUOUS
10
-1.633738031496063
20
-0.939021220472441
11
-1.6337785826771654
21
-0.9391192125984251
0
LINE
8
BLACK
6
CONTINUOUS
10
-1.6337785826771654
20
-0.9391192125984251
11
-1.6341457874015748
21
-0.939566653543307
0
LINE
8
BLACK
6
CONTINUOUS
10
-1.6341457874015748
20
-0.939566653543307
11
-1.6378953543307087
21
-0.9433162598425197
0
LINE
8
BLACK
6
CONTINUOUS
10
-1.6378953543307087
20
-0.9433162598425197
11
-1.6383427952755905
21
-0.9436834645669291
0
LINE
8
BLACK
6
CONTINUOUS
10
-1.6383427952755905
20
-0.9436834645669291
11
-1.6384408661417322
21
-0.9437240551181102
0
LINE
8
BLACK
6
CONTINUOUS
10
-1.6384408661417322
20
-0.9437240551181102
11
-1.6385209842519686
21
-0.9437935826771653
0
LINE
8
BLACK
6
CONTINUOUS
10
-1.6385209842519686
20
-0.9437935826771653
11
-1.6390495275590551
21
-0.9440295669291339
0
LINE
8
BLACK
6
CONTINUOUS
10
-1.6390495275590551
20
-0.9440295669291339
11
-1.6446738188976378
21
-0.9459043307086614
0
LINE
8
BLACK
6
CONTINUOUS
10
-1.6446738188976378
20
-0.9459043307086614
11
-1.6449594094488189
21
-0.9459692519685039
0
LINE
8
BLACK
6
CONTINUOUS
10
-1.6449594094488189
20
-0.9459692519685039
11
-1.6450314960629921
21
-0.9459991338582677
0
LINE
8
BLACK
6
CONTINUOUS
10
-1.6450314960629921
20
-0.9459991338582677
11
-1.6451360236220471
21
-0.9460094094488188
0
LINE
8
BLACK
6
CONTINUOUS
10
-1.6451360236220471
20
-0.9460094094488188
11
-1.6452382677165354
21
-0.9460326771653543
0
LINE
8
BLACK
6
CONTINUOUS
10
-1.6452382677165354
20
-0.9460326771653543
11
-1.6453160236220472
21
-0.946027125984252
0
LINE
8
BLACK
6
CONTINUOUS
10
-1.6453160236220472
20
-0.946027125984252
11
-1.645607559055118
21
-0.9460558661417323
0
LINE
8
BLACK
6
CONTINUOUS
10
-1.645607559055118
20
-0.9460558661417323
11
-1.6493570866141731
21
-0.9460558661417323
0
LINE
8
BLACK
6
CONTINUOUS
10
-1.6493570866141731
20
-0.9460558661417323
11
-1.6499331496062992
21
-0.9459991338582677
0
LINE
8
BLACK
6
CONTINUOUS
10
-1.6499331496062992
20
-0.9459991338582677
11
-1.650997559055118
21
-0.9455582283464566
0
LINE
8
BLACK
6
CONTINUOUS
10
-1.650997559055118
20
-0.9455582283464566
11
-1.6518122047244095
21
-0.9447435826771653
0
LINE
8
BLACK
6
CONTINUOUS
10
-1.6518122047244095
20
-0.9447435826771653
11
-1.6522531102362203
21
-0.9436791732283465
0
LINE
8
BLACK
6
CONTINUOUS
10
-1.6522531102362203
20
-0.9436791732283465
11
-1.6522531102362203
21
-0.9425270472440944
0
LINE
8
BLACK
6
CONTINUOUS
10
-1.6522531102362203
20
-0.9425270472440944
11
-1.6518122047244095
21
-0.9414626377952756
0
LINE
8
BLACK
6
CONTINUOUS
10
-1.6518122047244095
20
-0.9414626377952756
11
-1.650997559055118
21
-0.9406479921259843
0
LINE
8
BLACK
6
CONTINUOUS
10
-1.650997559055118
20
-0.9406479921259843
11
-1.6499331496062992
21
-0.9402070866141732
0
LINE
8
BLACK
6
CONTINUOUS
10
-1.6499331496062992
20
-0.9402070866141732
11
-1.6493570866141731
21
-0.9401503543307086
0
LINE
8
BLACK
6
CONTINUOUS
10
-1.6493570866141731
20
-0.9401503543307086
11
-1.6460866929133857
21
-0.9401503543307086
0
LINE
8
BLACK
6
CONTINUOUS
10
-1.6460866929133857
20
-0.9401503543307086
11
-1.6415783070866141
21
-0.9386475196850393
0
LINE
8
BLACK
6
CONTINUOUS
10
-1.6415783070866141
20
-0.9386475196850393
11
-1.6388145669291339
21
-0.9358837401574803
0
LINE
8
BLACK
6
CONTINUOUS
10
-1.6388145669291339
20
-0.9358837401574803
11
-1.6373117322834645
21
-0.9313753543307086
0
LINE
8
BLACK
6
CONTINUOUS
10
-1.6373117322834645
20
-0.9313753543307086
11
-1.6373117322834645
21
-0.903733031496063
0
LINE
8
BLACK
6
CONTINUOUS
10
-1.6373117322834645
20
-0.903733031496063
11
-1.6372549999999999
21
-0.903156968503937
0
LINE
8
BLACK
6
CONTINUOUS
10
-1.6372549999999999
20
-0.903156968503937
11
-1.636814094488189
21
-0.9020925590551181
0
LINE
8
BLACK
6
CONTINUOUS
10
-1.636814094488189
20
-0.9020925590551181
11
-1.6359994488188976
21
-0.9012779133858267
0
LINE
8
BLACK
6
CONTINUOUS
10
-1.6359994488188976
20
-0.9012779133858267
11
-1.6349350393700788
21
-0.9008370078740158
0
LINE
8
BLACK
6
CONTINUOUS
10
-1.6349350393700788
20
-0.9008370078740158
11
-1.6337829133858268
21
-0.9008370078740158
0
LINE
8
BLACK
6
CONTINUOUS
10
-1.6337829133858268
20
-0.9008370078740158
11
-1.6327185039370078
21
-0.9012779133858267
0
LINE
8
BLACK
6
CONTINUOUS
10
-1.6059538188976377
20
-0.9008370078740158
11
-1.6056614173228345
21
-0.9008370078740158
0
LINE
8
BLACK
6
CONTINUOUS
10
-1.6056614173228345
20
-0.9008370078740158
11
-1.6053941732283463
21
-0.900947716535433
0
LINE
8
BLACK
6
CONTINUOUS
10
-1.6053941732283463
20
-0.900947716535433
11
-1.6051103543307086
21
-0.9010038582677166
0
LINE
8
BLACK
6
CONTINUOUS
10
-1.6051103543307086
20
-0.9010038582677166
11
-1.6048670866141732
21
-0.9011660236220472
0
LINE
8
BLACK
6
CONTINUOUS
10
-1.6048670866141732
20
-0.9011660236220472
11
-1.6045970078740157
21
-0.9012779133858267
0
LINE
8
BLACK
6
CONTINUOUS
10
-1.6045970078740157
20
-0.9012779133858267
11
-1.604392559055118
21
-0.9014823622047244
0
LINE
8
BLACK
6
CONTINUOUS
10
-1.604392559055118
20
-0.9014823622047244
11
-1.6041517322834646
21
-0.9016429133858268
0
LINE
8
BLACK
6
CONTINUOUS
10
-1.6041517322834646
20
-0.9016429133858268
11
-1.6039890157480314
21
-0.901885905511811
0
LINE
8
BLACK
6
CONTINUOUS
10
-1.6039890157480314
20
-0.901885905511811
11
-1.6037823622047245
21
-0.9020925590551181
0
LINE
8
BLACK
6
CONTINUOUS
10
-1.6037823622047245
20
-0.9020925590551181
11
-1.6036716929133858
21
-0.9023597637795275
0
LINE
8
BLACK
6
CONTINUOUS
10
-1.6036716929133858
20
-0.9023597637795275
11
-1.6035106692913386
21
-0.9026001968503937
0
LINE
8
BLACK
6
CONTINUOUS
10
-1.6035106692913386
20
-0.9026001968503937
11
-1.6034533464566929
21
-0.9028868503937008
0
LINE
8
BLACK
6
CONTINUOUS
10
-1.6034533464566929
20
-0.9028868503937008
11
-1.6033414566929134
21
-0.903156968503937
0
LINE
8
BLACK
6
CONTINUOUS
10
-1.6033414566929134
20
-0.903156968503937
11
-1.6032853543307086
21
-0.9037268897637795
0
LINE
8
BLACK
6
CONTINUOUS
10
-1.6032853543307086
20
-0.9037268897637795
11
-1.6032847244094488
21
-0.9037299212598425
0
LINE
8
BLACK
6
CONTINUOUS
10
-1.6032847244094488
20
-0.9037299212598425
11
-1.6032849606299213
21
-0.9037309448818898
0
LINE
8
BLACK
6
CONTINUOUS
10
-1.6032849606299213
20
-0.9037309448818898
11
-1.6032847244094488
21
-0.903733031496063
0
LINE
8
BLACK
6
CONTINUOUS
10
-1.6032847244094488
20
-0.903733031496063
11
-1.6032847244094488
21
-0.9401503543307086
0
LINE
8
BLACK
6
CONTINUOUS
10
-1.6032847244094488
20
-0.9401503543307086
11
-1.5949888976377953
21
-0.9401503543307086
0
LINE
8
BLACK
6
CONTINUOUS
10
-1.5949888976377953
20
-0.9401503543307086
11
-1.5944128346456692
21
-0.9402070866141732
0
LINE
8
BLACK
6
CONTINUOUS
10
-1.5944128346456692
20
-0.9402070866141732
11
-1.5933484251968504
21
-0.9406479921259843
0
LINE
8
BLACK
6
CONTINUOUS
10
-1.5933484251968504
20
-0.9406479921259843
11
-1.5925337795275589
21
-0.9414626377952756
0
LINE
8
BLACK
6
CONTINUOUS
10
-1.5925337795275589
20
-0.9414626377952756
11
-1.5920928740157481
21
-0.9425270472440944
0
LINE
8
BLACK
6
CONTINUOUS
10
-1.5920928740157481
20
-0.9425270472440944
11
-1.5920928740157481
21
-0.9436791732283465
0
LINE
8
BLACK
6
CONTINUOUS
10
-1.5920928740157481
20
-0.9436791732283465
11
-1.5925337795275589
21
-0.9447435826771653
0
LINE
8
BLACK
6
CONTINUOUS
10
-1.5925337795275589
20
-0.9447435826771653
11
-1.5933484251968504
21
-0.9455582283464566
0
LINE
8
BLACK
6
CONTINUOUS
10
-1.5933484251968504
20
-0.9455582283464566
11
-1.5944128346456692
21
-0.9459991338582677
0
LINE
8
BLACK
6
CONTINUOUS
10
-1.5944128346456692
20
-0.9459991338582677
11
-1.5949888976377953
21
-0.9460558661417323
0
LINE
8
BLACK
6
CONTINUOUS
10
-1.5949888976377953
20
-0.9460558661417323
11
-1.6174860629921259
21
-0.9460558661417323
0
LINE
8
BLACK
6
CONTINUOUS
10
-1.6174860629921259
20
-0.9460558661417323
11
-1.618062125984252
21
-0.9459991338582677
0
LINE
8
BLACK
6
CONTINUOUS
10
-1.618062125984252
20
-0.9459991338582677
11
-1.6191265354330708
21
-0.9455582283464566
0
LINE
8
BLACK
6
CONTINUOUS
10
-1.6191265354330708
20
-0.9455582283464566
11
-1.6199411811023621
21
-0.9447435826771653
0
LINE
8
BLACK
6
CONTINUOUS
10
-1.6199411811023621
20
-0.9447435826771653
11
-1.6203820866141732
21
-0.9436791732283465
0
LINE
8
BLACK
6
CONTINUOUS
10
-1.6203820866141732
20
-0.9436791732283465
11
-1.6203820866141732
21
-0.9425270472440944
0
LINE
8
BLACK
6
CONTINUOUS
10
-1.6203820866141732
20
-0.9425270472440944
11
-1.6199411811023621
21
-0.9414626377952756
0
LINE
8
BLACK
6
CONTINUOUS
10
-1.6199411811023621
20
-0.9414626377952756
11
-1.6191265354330708
21
-0.9406479921259843
0
LINE
8
BLACK
6
CONTINUOUS
10
-1.6191265354330708
20
-0.9406479921259843
11
-1.618062125984252
21
-0.9402070866141732
0
LINE
8
BLACK
6
CONTINUOUS
10
-1.618062125984252
20
-0.9402070866141732
11
-1.6174860629921259
21
-0.9401503543307086
0
LINE
8
BLACK
6
CONTINUOUS
10
-1.6174860629921259
20
-0.9401503543307086
11
-1.6091902362204724
21
-0.9401503543307086
0
LINE
8
BLACK
6
CONTINUOUS
10
-1.6091902362204724
20
-0.9401503543307086
11
-1.6091902362204724
21
-0.9127363779527559
0
LINE
8
BLACK
6
CONTINUOUS
10
-1.6091902362204724
20
-0.9127363779527559
11
-1.6116486220472441
21
-0.9151947637795276
0
LINE
8
BLACK
6
CONTINUOUS
10
-1.6116486220472441
20
-0.9151947637795276
11
-1.6118749999999999
21
-0.9153805118110236
0
LINE
8
BLACK
6
CONTINUOUS
10
-1.6118749999999999
20
-0.9153805118110236
11
-1.6119261417322834
21
-0.9154395275590551
0
LINE
8
BLACK
6
CONTINUOUS
10
-1.6119261417322834
20
-0.9154395275590551
11
-1.6120151181102362
21
-0.9154954724409449
0
LINE
8
BLACK
6
CONTINUOUS
10
-1.6120151181102362
20
-0.9154954724409449
11
-1.6120960629921259
21
-0.915561968503937
0
LINE
8
BLACK
6
CONTINUOUS
10
-1.6120960629921259
20
-0.915561968503937
11
-1.6121680314960629
21
-0.9155917716535433
0
LINE
8
BLACK
6
CONTINUOUS
10
-1.6121680314960629
20
-0.9155917716535433
11
-1.6124160236220473
21
-0.915747874015748
0
LINE
8
BLACK
6
CONTINUOUS
10
-1.6124160236220473
20
-0.915747874015748
11
-1.6161655511811024
21
-0.9176226377952755
0
LINE
8
BLACK
6
CONTINUOUS
10
-1.6161655511811024
20
-0.9176226377952755
11
-1.6167061811023622
21
-0.9178295275590551
0
LINE
8
BLACK
6
CONTINUOUS
10
-1.6167061811023622
20
-0.9178295275590551
11
-1.6178553937007873
21
-0.9179111811023621
0
LINE
8
BLACK
6
CONTINUOUS
10
-1.6178553937007873
20
-0.9179111811023621
11
-1.6189483464566929
21
-0.9175468503937008
0
LINE
8
BLACK
6
CONTINUOUS
10
-1.6189483464566929
20
-0.9175468503937008
11
-1.6198187401574802
21
-0.9167920078740157
0
LINE
8
BLACK
6
CONTINUOUS
10
-1.6198187401574802
20
-0.9167920078740157
11
-1.6203339763779527
21
-0.9157614960629921
0
LINE
8
BLACK
6
CONTINUOUS
10
-1.6203339763779527
20
-0.9157614960629921
11
-1.6204156299212598
21
-0.9146122834645669
0
LINE
8
BLACK
6
CONTINUOUS
10
-1.6204156299212598
20
-0.9146122834645669
11
-1.6200512992125984
21
-0.9135193307086614
0
LINE
8
BLACK
6
CONTINUOUS
10
-1.6200512992125984
20
-0.9135193307086614
11
-1.6192964566929133
21
-0.912648937007874
0
LINE
8
BLACK
6
CONTINUOUS
10
-1.6192964566929133
20
-0.912648937007874
11
-1.6188065748031495
21
-0.9123405905511811
0
LINE
8
BLACK
6
CONTINUOUS
10
-1.6188065748031495
20
-0.9123405905511811
11
-1.6154856299212599
21
-0.9106801181102362
0
LINE
8
BLACK
6
CONTINUOUS
10
-1.6154856299212599
20
-0.9106801181102362
11
-1.6122817322834646
21
-0.9074762204724409
0
LINE
8
BLACK
6
CONTINUOUS
10
-1.6122817322834646
20
-0.9074762204724409
11
-1.6086943307086614
21
-0.9020951181102362
0
LINE
8
BLACK
6
CONTINUOUS
10
-1.6086943307086614
20
-0.9020951181102362
11
-1.6086929921259843
21
-0.9020934251968503
0
LINE
8
BLACK
6
CONTINUOUS
10
-1.6086929921259843
20
-0.9020934251968503
11
-1.6086925984251967
21
-0.9020925590551181
0
LINE
8
BLACK
6
CONTINUOUS
10
-1.6086925984251967
20
-0.9020925590551181
11
-1.608690590551181
21
-0.9020905118110236
0
LINE
8
BLACK
6
CONTINUOUS
10
-1.608690590551181
20
-0.9020905118110236
11
-1.608327559055118
21
-0.9016472834645669
0
LINE
8
BLACK
6
CONTINUOUS
10
-1.608327559055118
20
-0.9016472834645669
11
-1.60808468503937
21
-0.9014846062992126
0
LINE
8
BLACK
6
CONTINUOUS
10
-1.60808468503937
20
-0.9014846062992126
11
-1.6078779527559055
21
-0.9012779133858267
0
LINE
8
BLACK
6
CONTINUOUS
10
-1.6078779527559055
20
-0.9012779133858267
11
-1.6076106692913386
21
-0.9011671653543307
0
LINE
8
BLACK
6
CONTINUOUS
10
-1.6076106692913386
20
-0.9011671653543307
11
-1.6073702755905512
21
-0.9010062204724409
0
LINE
8
BLACK
6
CONTINUOUS
10
-1.6073702755905512
20
-0.9010062204724409
11
-1.6070836614173227
21
-0.9009488582677165
0
LINE
8
BLACK
6
CONTINUOUS
10
-1.6070836614173227
20
-0.9009488582677165
11
-1.6068135433070865
21
-0.9008370078740158
0
LINE
8
BLACK
6
CONTINUOUS
10
-1.6068135433070865
20
-0.9008370078740158
11
-1.6065242519685039
21
-0.9008370078740158
0
LINE
8
BLACK
6
CONTINUOUS
10
-1.6065242519685039
20
-0.9008370078740158
11
-1.606240590551181
21
-0.9007802755905512
0
LINE
8
BLACK
6
CONTINUOUS
10
-1.606240590551181
20
-0.9007802755905512
11
-1.6059538188976377
21
-0.9008370078740158
0
LINE
8
BLACK
6
CONTINUOUS
10
-1.5684585039370078
20
-0.9008370078740158
11
-1.5681661023622047
21
-0.9008370078740158
0
LINE
8
BLACK
6
CONTINUOUS
10
-1.5681661023622047
20
-0.9008370078740158
11
-1.5678988582677165
21
-0.900947716535433
0
LINE
8
BLACK
6
CONTINUOUS
10
-1.5678988582677165
20
-0.900947716535433
11
-1.5676150393700787
21
-0.9010038582677166
0
LINE
8
BLACK
6
CONTINUOUS
10
-1.5676150393700787
20
-0.9010038582677166
11
-1.5673717716535434
21
-0.9011660236220472
0
LINE
8
BLACK
6
CONTINUOUS
10
-1.5673717716535434
20
-0.9011660236220472
11
-1.5671016929133859
21
-0.9012779133858267
0
LINE
8
BLACK
6
CONTINUOUS
10
-1.5671016929133859
20
-0.9012779133858267
11
-1.5668972440944882
21
-0.9014823622047244
0
LINE
8
BLACK
6
CONTINUOUS
10
-1.5668972440944882
20
-0.9014823622047244
11
-1.5666564173228346
21
-0.9016429133858268
0
LINE
8
BLACK
6
CONTINUOUS
10
-1.5666564173228346
20
-0.9016429133858268
11
-1.5664937007874016
21
-0.901885905511811
0
LINE
8
BLACK
6
CONTINUOUS
10
-1.5664937007874016
20
-0.901885905511811
11
-1.5662870472440944
21
-0.9020925590551181
0
LINE
8
BLACK
6
CONTINUOUS
10
-1.5662870472440944
20
-0.9020925590551181
11
-1.5661763779527558
21
-0.9023597637795275
0
LINE
8
BLACK
6
CONTINUOUS
10
-1.5661763779527558
20
-0.9023597637795275
11
-1.5660153543307087
21
-0.9026001968503937
0
LINE
8
BLACK
6
CONTINUOUS
10
-1.5660153543307087
20
-0.9026001968503937
11
-1.5659580314960631
21
-0.9028868503937008
0
LINE
8
BLACK
6
CONTINUOUS
10
-1.5659580314960631
20
-0.9028868503937008
11
-1.5658461417322835
21
-0.903156968503937
0
LINE
8
BLACK
6
CONTINUOUS
10
-1.5658461417322835
20
-0.903156968503937
11
-1.5657900393700788
21
-0.9037268897637795
0
LINE
8
BLACK
6
CONTINUOUS
10
-1.5657900393700788
20
-0.9037268897637795
11
-1.5657894094488189
21
-0.9037299212598425
0
LINE
8
BLACK
6
CONTINUOUS
10
-1.5657894094488189
20
-0.9037299212598425
11
-1.5657896456692912
21
-0.9037309448818898
0
LINE
8
BLACK
6
CONTINUOUS
10
-1.5657896456692912
20
-0.9037309448818898
11
-1.5657894094488189
21
-0.903733031496063
0
LINE
8
BLACK
6
CONTINUOUS
10
-1.5657894094488189
20
-0.903733031496063
11
-1.5657894094488189
21
-0.9401503543307086
0
LINE
8
BLACK
6
CONTINUOUS
10
-1.5657894094488189
20
-0.9401503543307086
11
-1.5574935826771654
21
-0.9401503543307086
0
LINE
8
BLACK
6
CONTINUOUS
10
-1.5574935826771654
20
-0.9401503543307086
11
-1.5569175196850393
21
-0.9402070866141732
0
LINE
8
BLACK
6
CONTINUOUS
10
-1.5569175196850393
20
-0.9402070866141732
11
-1.5558531102362205
21
-0.9406479921259843
0
LINE
8
BLACK
6
CONTINUOUS
10
-1.5558531102362205
20
-0.9406479921259843
11
-1.5550384645669291
21
-0.9414626377952756
0
LINE
8
BLACK
6
CONTINUOUS
10
-1.5550384645669291
20
-0.9414626377952756
11
-1.554597559055118
21
-0.9425270472440944
0
LINE
8
BLACK
6
CONTINUOUS
10
-1.554597559055118
20
-0.9425270472440944
11
-1.554597559055118
21
-0.9436791732283465
0
LINE
8
BLACK
6
CONTINUOUS
10
-1.554597559055118
20
-0.9436791732283465
11
-1.5550384645669291
21
-0.9447435826771653
0
LINE
8
BLACK
6
CONTINUOUS
10
-1.5550384645669291
20
-0.9447435826771653
11
-1.5558531102362205
21
-0.9455582283464566
0
LINE
8
BLACK
6
CONTINUOUS
10
-1.5558531102362205
20
-0.9455582283464566
11
-1.5569175196850393
21
-0.9459991338582677
0
LINE
8
BLACK
6
CONTINUOUS
10
-1.5569175196850393
20
-0.9459991338582677
11
-1.5574935826771654
21
-0.9460558661417323
0
LINE
8
BLACK
6
CONTINUOUS
10
-1.5574935826771654
20
-0.9460558661417323
11
-1.5799907480314961
21
-0.9460558661417323
0
LINE
8
BLACK
6
CONTINUOUS
10
-1.5799907480314961
20
-0.9460558661417323
11
-1.580566811023622
21
-0.9459991338582677
0
LINE
8
BLACK
6
CONTINUOUS
10
-1.580566811023622
20
-0.9459991338582677
11
-1.581631220472441
21
-0.9455582283464566
0
LINE
8
BLACK
6
CONTINUOUS
10
-1.581631220472441
20
-0.9455582283464566
11
-1.5824458661417322
21
-0.9447435826771653
0
LINE
8
BLACK
6
CONTINUOUS
10
-1.5824458661417322
20
-0.9447435826771653
11
-1.5828867716535433
21
-0.9436791732283465
0
LINE
8
BLACK
6
CONTINUOUS
10
-1.5828867716535433
20
-0.9436791732283465
11
-1.5828867716535433
21
-0.9425270472440944
0
LINE
8
BLACK
6
CONTINUOUS
10
-1.5828867716535433
20
-0.9425270472440944
11
-1.5824458661417322
21
-0.9414626377952756
0
LINE
8
BLACK
6
CONTINUOUS
10
-1.5824458661417322
20
-0.9414626377952756
11
-1.581631220472441
21
-0.9406479921259843
0
LINE
8
BLACK
6
CONTINUOUS
10
-1.581631220472441
20
-0.9406479921259843
11
-1.580566811023622
21
-0.9402070866141732
0
LINE
8
BLACK
6
CONTINUOUS
10
-1.580566811023622
20
-0.9402070866141732
11
-1.5799907480314961
21
-0.9401503543307086
0
LINE
8
BLACK
6
CONTINUOUS
10
-1.5799907480314961
20
-0.9401503543307086
11
-1.5716949212598426
21
-0.9401503543307086
0
LINE
8
BLACK
6
CONTINUOUS
10
-1.5716949212598426
20
-0.9401503543307086
11
-1.5716949212598426
21
-0.9127363779527559
0
LINE
8
BLACK
6
CONTINUOUS
10
-1.5716949212598426
20
-0.9127363779527559
11
-1.5741533070866141
21
-0.9151947637795276
0
LINE
8
BLACK
6
CONTINUOUS
10
-1.5741533070866141
20
-0.9151947637795276
11
-1.5743796850393701
21
-0.9153805118110236
0
LINE
8
BLACK
6
CONTINUOUS
10
-1.5743796850393701
20
-0.9153805118110236
11
-1.5744308267716536
21
-0.9154395275590551
0
LINE
8
BLACK
6
CONTINUOUS
10
-1.5744308267716536
20
-0.9154395275590551
11
-1.5745198031496062
21
-0.9154954724409449
0
LINE
8
BLACK
6
CONTINUOUS
10
-1.5745198031496062
20
-0.9154954724409449
11
-1.5746007480314961
21
-0.915561968503937
0
LINE
8
BLACK
6
CONTINUOUS
10
-1.5746007480314961
20
-0.915561968503937
11
-1.5746727165354331
21
-0.9155917716535433
0
LINE
8
BLACK
6
CONTINUOUS
10
-1.5746727165354331
20
-0.9155917716535433
11
-1.5749207086614172
21
-0.915747874015748
0
LINE
8
BLACK
6
CONTINUOUS
10
-1.5749207086614172
20
-0.915747874015748
11
-1.5786702362204723
21
-0.9176226377952755
0
LINE
8
BLACK
6
CONTINUOUS
10
-1.5786702362204723
20
-0.9176226377952755
11
-1.5792108661417323
21
-0.9178295275590551
0
LINE
8
BLACK
6
CONTINUOUS
10
-1.5792108661417323
20
-0.9178295275590551
11
-1.5803600787401575
21
-0.9179111811023621
0
LINE
8
BLACK
6
CONTINUOUS
10
-1.5803600787401575
20
-0.9179111811023621
11
-1.5814530314960629
21
-0.9175468503937008
0
LINE
8
BLACK
6
CONTINUOUS
10
-1.5814530314960629
20
-0.9175468503937008
11
-1.5823234251968503
21
-0.9167920078740157
0
LINE
8
BLACK
6
CONTINUOUS
10
-1.5823234251968503
20
-0.9167920078740157
11
-1.5828386614173229
21
-0.9157614960629921
0
LINE
8
BLACK
6
CONTINUOUS
10
-1.5828386614173229
20
-0.9157614960629921
11
-1.5829203149606299
21
-0.9146122834645669
0
LINE
8
BLACK
6
CONTINUOUS
10
-1.5829203149606299
20
-0.9146122834645669
11
-1.5825559842519685
21
-0.9135193307086614
0
LINE
8
BLACK
6
CONTINUOUS
10
-1.5825559842519685
20
-0.9135193307086614
11
-1.5818011417322835
21
-0.912648937007874
0
LINE
8
BLACK
6
CONTINUOUS
10
-1.5818011417322835
20
-0.912648937007874
11
-1.5813112598425196
21
-0.9123405905511811
0
LINE
8
BLACK
6
CONTINUOUS
10
-1.5813112598425196
20
-0.9123405905511811
11
-1.5779903149606298
21
-0.9106801181102362
0
LINE
8
BLACK
6
CONTINUOUS
10
-1.5779903149606298
20
-0.9106801181102362
11
-1.5747864173228345
21
-0.9074762204724409
0
LINE
8
BLACK
6
CONTINUOUS
10
-1.5747864173228345
20
-0.9074762204724409
11
-1.5711990157480316
21
-0.9020951181102362
0
LINE
8
BLACK
6
CONTINUOUS
10
-1.5711990157480316
20
-0.9020951181102362
11
-1.5711976771653542
21
-0.9020934251968503
0
LINE
8
BLACK
6
CONTINUOUS
10
-1.5711976771653542
20
-0.9020934251968503
11
-1.5711972834645669
21
-0.9020925590551181
0
LINE
8
BLACK
6
CONTINUOUS
10
-1.5711972834645669
20
-0.9020925590551181
11
-1.5711952755905512
21
-0.9020905118110236
0
LINE
8
BLACK
6
CONTINUOUS
10
-1.5711952755905512
20
-0.9020905118110236
11
-1.5708322440944882
21
-0.9016472834645669
0
LINE
8
BLACK
6
CONTINUOUS
10
-1.5708322440944882
20
-0.9016472834645669
11
-1.5705893700787401
21
-0.9014846062992126
0
LINE
8
BLACK
6
CONTINUOUS
10
-1.5705893700787401
20
-0.9014846062992126
11
-1.5703826377952756
21
-0.9012779133858267
0
LINE
8
BLACK
6
CONTINUOUS
10
-1.5703826377952756
20
-0.9012779133858267
11
-1.5701153543307087
21
-0.9011671653543307
0
LINE
8
BLACK
6
CONTINUOUS
10
-1.5701153543307087
20
-0.9011671653543307
11
-1.5698749606299212
21
-0.9010062204724409
0
LINE
8
BLACK
6
CONTINUOUS
10
-1.5698749606299212
20
-0.9010062204724409
11
-1.5695883464566929
21
-0.9009488582677165
0
LINE
8
BLACK
6
CONTINUOUS
10
-1.5695883464566929
20
-0.9009488582677165
11
-1.5693182283464566
21
-0.9008370078740158
0
LINE
8
BLACK
6
CONTINUOUS
10
-1.5693182283464566
20
-0.9008370078740158
11
-1.569028937007874
21
-0.9008370078740158
0
LINE
8
BLACK
6
CONTINUOUS
10
-1.569028937007874
20
-0.9008370078740158
11
-1.5687452755905511
21
-0.9007802755905512
0
LINE
8
BLACK
6
CONTINUOUS
10
-1.5687452755905511
20
-0.9007802755905512
11
-1.5684585039370078
21
-0.9008370078740158
0
LINE
8
BLACK
6
CONTINUOUS
10
-1.4767346456692914
20
-0.7983781889763779
11
-1.4756692913385827
21
-0.7994435433070866
0
LINE
8
BLACK
6
CONTINUOUS
10
-1.4756692913385827
20
-0.7994435433070866
11
-1.4755194488188976
21
-0.8001968503937008
0
LINE
8
BLACK
6
CONTINUOUS
10
-1.4755194488188976
20
-0.8001968503937008
11
-1.4755194488188976
21
-1.0501968503937007
0
LINE
8
BLACK
6
CONTINUOUS
10
-1.4755194488188976
20
-1.0501968503937007
11
-1.4756692913385827
21
-1.0509501574803148
0
LINE
8
BLACK
6
CONTINUOUS
10
-1.4756692913385827
20
-1.0509501574803148
11
-1.4767346456692914
21
-1.0520155118110237
0
LINE
8
BLACK
6
CONTINUOUS
10
-1.4767346456692914
20
-1.0520155118110237
11
-1.4774879527559055
21
-1.0521653543307086
0
LINE
8
BLACK
6
CONTINUOUS
10
-1.4774879527559055
20
-1.0521653543307086
11
-1.7274879527559055
21
-1.0521653543307086
0
LINE
8
BLACK
6
CONTINUOUS
10
-1.7274879527559055
20
-1.0521653543307086
11
-1.7282412598425196
21
-1.0520155118110237
0
LINE
8
BLACK
6
CONTINUOUS
10
-1.7282412598425196
20
-1.0520155118110237
11
-1.7293066141732283
21
-1.0509501574803148
0
LINE
8
BLACK
6
CONTINUOUS
10
-1.7293066141732283
20
-1.0509501574803148
11
-1.7294564566929134
21
-1.0501968503937007
0
LINE
8
BLACK
6
CONTINUOUS
10
-1.7294564566929134
20
-1.0501968503937007
11
-1.7294564566929134
21
-0.8001968503937008
0
LINE
8
BLACK
6
CONTINUOUS
10
-1.7294564566929134
20
-0.8001968503937008
11
-1.7293066141732283
21
-0.7994435433070866
0
LINE
8
BLACK
6
CONTINUOUS
10
-1.7293066141732283
20
-0.7994435433070866
11
-1.7282412598425196
21
-0.7983781889763779
0
LINE
8
BLACK
6
CONTINUOUS
10
-1.7282412598425196
20
-0.7983781889763779
11
-1.7274879527559055
21
-0.7982283464566929
0
LINE
8
BLACK
6
CONTINUOUS
10
-1.7274879527559055
20
-0.7982283464566929
11
-1.4774879527559055
21
-0.7982283464566929
0
LINE
8
BLACK
6
CONTINUOUS
10
-1.4774879527559055
20
-0.7982283464566929
11
-1.4767346456692914
21
-0.7983781889763779
0
LINE
8
BLACK
6
CONTINUOUS
10
-1.7255194488188976
20
-1.0482283464566928
11
-1.6331453543307086
21
-1.0482283464566928
0
LINE
8
BLACK
6
CONTINUOUS
10
-1.6331453543307086
20
-1.0482283464566928
11
-1.6376373622047244
21
-1.0472030708661417
0
LINE
8
BLACK
6
CONTINUOUS
10
-1.6376373622047244
20
-1.0472030708661417
11
-1.6510766929133858
21
-1.042500433070866
0
LINE
8
BLACK
6
CONTINUOUS
10
-1.6510766929133858
20
-1.042500433070866
11
-1.663905
21
-1.0363226771653542
0
LINE
8
BLACK
6
CONTINUOUS
10
-1.663905
20
-1.0363226771653542
11
-1.6759609842519685
21
-1.028747401574803
0
LINE
8
BLACK
6
CONTINUOUS
10
-1.6759609842519685
20
-1.028747401574803
11
-1.6870929921259843
21
-1.0198699212598425
0
LINE
8
BLACK
6
CONTINUOUS
10
-1.6870929921259843
20
-1.0198699212598425
11
-1.6971610236220471
21
-1.0098018897637795
0
LINE
8
BLACK
6
CONTINUOUS
10
-1.6971610236220471
20
-1.0098018897637795
11
-1.7060385039370078
21
-0.9986698818897638
0
LINE
8
BLACK
6
CONTINUOUS
10
-1.7060385039370078
20
-0.9986698818897638
11
-1.713613779527559
21
-0.9866138976377953
0
LINE
8
BLACK
6
CONTINUOUS
10
-1.713613779527559
20
-0.9866138976377953
11
-1.7197915354330708
21
-0.9737855905511811
0
LINE
8
BLACK
6
CONTINUOUS
10
-1.7197915354330708
20
-0.9737855905511811
11
-1.7244941732283465
21
-0.9603462598425196
0
LINE
8
BLACK
6
CONTINUOUS
10
-1.7244941732283465
20
-0.9603462598425196
11
-1.7255194488188976
21
-0.9558542125984252
0
LINE
8
BLACK
6
CONTINUOUS
10
-1.7255194488188976
20
-0.9558542125984252
11
-1.7255194488188976
21
-1.0482283464566928
0
LINE
8
BLACK
6
CONTINUOUS
10
-1.4804817322834645
20
-0.9603462598425196
11
-1.4851843700787402
21
-0.9737855905511811
0
LINE
8
BLACK
6
CONTINUOUS
10
-1.4851843700787402
20
-0.9737855905511811
11
-1.491362125984252
21
-0.9866138976377953
0
LINE
8
BLACK
6
CONTINUOUS
10
-1.491362125984252
20
-0.9866138976377953
11
-1.4989374015748032
21
-0.9986698818897638
0
LINE
8
BLACK
6
CONTINUOUS
10
-1.4989374015748032
20
-0.9986698818897638
11
-1.5078148818897636
21
-1.0098018897637795
0
LINE
8
BLACK
6
CONTINUOUS
10
-1.5078148818897636
20
-1.0098018897637795
11
-1.5178829133858267
21
-1.0198699212598425
0
LINE
8
BLACK
6
CONTINUOUS
10
-1.5178829133858267
20
-1.0198699212598425
11
-1.5290149212598425
21
-1.028747401574803
0
LINE
8
BLACK
6
CONTINUOUS
10
-1.5290149212598425
20
-1.028747401574803
11
-1.541070905511811
21
-1.0363226771653542
0
LINE
8
BLACK
6
CONTINUOUS
10
-1.541070905511811
20
-1.0363226771653542
11
-1.5538992125984252
21
-1.042500433070866
0
LINE
8
BLACK
6
CONTINUOUS
10
-1.5538992125984252
20
-1.042500433070866
11
-1.5673385433070866
21
-1.0472030708661417
0
LINE
8
BLACK
6
CONTINUOUS
10
-1.5673385433070866
20
-1.0472030708661417
11
-1.5718305511811024
21
-1.0482283464566928
0
LINE
8
BLACK
6
CONTINUOUS
10
-1.5718305511811024
20
-1.0482283464566928
11
-1.4794564566929134
21
-1.0482283464566928
0
LINE
8
BLACK
6
CONTINUOUS
10
-1.4794564566929134
20
-1.0482283464566928
11
-1.4794564566929134
21
-0.9558542125984252
0
LINE
8
BLACK
6
CONTINUOUS
10
-1.4794564566929134
20
-0.9558542125984252
11
-1.4804817322834645
21
-0.9603462598425196
0
LINE
8
BLACK
6
CONTINUOUS
10
-1.6231289763779526
20
-0.8037125590551181
11
-1.6366011023622047
21
-0.8067874803149606
0
LINE
8
BLACK
6
CONTINUOUS
10
-1.6366011023622047
20
-0.8067874803149606
11
-1.6496442519685039
21
-0.8113514566929134
0
LINE
8
BLACK
6
CONTINUOUS
10
-1.6496442519685039
20
-0.8113514566929134
11
-1.6620943700787401
21
-0.817347125984252
0
LINE
8
BLACK
6
CONTINUOUS
10
-1.6620943700787401
20
-0.817347125984252
11
-1.6737949212598424
21
-0.8246990551181103
0
LINE
8
BLACK
6
CONTINUOUS
10
-1.6737949212598424
20
-0.8246990551181103
11
-1.6845987401574802
21
-0.833314842519685
0
LINE
8
BLACK
6
CONTINUOUS
10
-1.6845987401574802
20
-0.833314842519685
11
-1.6943699606299212
21
-0.843086062992126
0
LINE
8
BLACK
6
CONTINUOUS
10
-1.6943699606299212
20
-0.843086062992126
11
-1.702985748031496
21
-0.8538898818897638
0
LINE
8
BLACK
6
CONTINUOUS
10
-1.702985748031496
20
-0.8538898818897638
11
-1.7103376771653542
21
-0.8655904330708661
0
LINE
8
BLACK
6
CONTINUOUS
10
-1.7103376771653542
20
-0.8655904330708661
11
-1.7163333464566928
21
-0.8780405511811024
0
LINE
8
BLACK
6
CONTINUOUS
10
-1.7163333464566928
20
-0.8780405511811024
11
-1.7208973228346456
21
-0.8910837007874015
0
LINE
8
BLACK
6
CONTINUOUS
10
-1.7208973228346456
20
-0.8910837007874015
11
-1.7239722440944882
21
-0.9045558267716535
0
LINE
8
BLACK
6
CONTINUOUS
10
-1.7239722440944882
20
-0.9045558267716535
11
-1.7255194488188976
21
-0.9182875590551181
0
LINE
8
BLACK
6
CONTINUOUS
10
-1.7255194488188976
20
-0.9182875590551181
11
-1.7255194488188976
21
-0.9321061417322835
0
LINE
8
BLACK
6
CONTINUOUS
10
-1.7255194488188976
20
-0.9321061417322835
11
-1.7239722440944882
21
-0.945837874015748
0
LINE
8
BLACK
6
CONTINUOUS
10
-1.7239722440944882
20
-0.945837874015748
11
-1.7208973228346456
21
-0.95931
0
LINE
8
BLACK
6
CONTINUOUS
10
-1.7208973228346456
20
-0.95931
11
-1.7163333464566928
21
-0.9723531496062991
0
LINE
8
BLACK
6
CONTINUOUS
10
-1.7163333464566928
20
-0.9723531496062991
11
-1.7103376771653542
21
-0.9848032677165354
0
LINE
8
BLACK
6
CONTINUOUS
10
-1.7103376771653542
20
-0.9848032677165354
11
-1.702985748031496
21
-0.9965038188976377
0
LINE
8
BLACK
6
CONTINUOUS
10
-1.702985748031496
20
-0.9965038188976377
11
-1.6943699606299212
21
-1.0073076377952757
0
LINE
8
BLACK
6
CONTINUOUS
10
-1.6943699606299212
20
-1.0073076377952757
11
-1.6845987401574802
21
-1.0170788582677166
0
LINE
8
BLACK
6
CONTINUOUS
10
-1.6845987401574802
20
-1.0170788582677166
11
-1.6737949212598424
21
-1.0256946456692912
0
LINE
8
BLACK
6
CONTINUOUS
10
-1.6737949212598424
20
-1.0256946456692912
11
-1.6620943700787401
21
-1.0330465748031497
0
LINE
8
BLACK
6
CONTINUOUS
10
-1.6620943700787401
20
-1.0330465748031497
11
-1.6496442519685039
21
-1.0390422440944882
0
LINE
8
BLACK
6
CONTINUOUS
10
-1.6496442519685039
20
-1.0390422440944882
11
-1.6366011023622047
21
-1.043606220472441
0
LINE
8
BLACK
6
CONTINUOUS
10
-1.6366011023622047
20
-1.043606220472441
11
-1.6231289763779526
21
-1.0466811417322834
0
LINE
8
BLACK
6
CONTINUOUS
10
-1.6231289763779526
20
-1.0466811417322834
11
-1.6093972440944881
21
-1.0482283464566928
0
LINE
8
BLACK
6
CONTINUOUS
10
-1.6093972440944881
20
-1.0482283464566928
11
-1.5955786614173229
21
-1.0482283464566928
0
LINE
8
BLACK
6
CONTINUOUS
10
-1.5955786614173229
20
-1.0482283464566928
11
-1.5818469291338582
21
-1.0466811417322834
0
LINE
8
BLACK
6
CONTINUOUS
10
-1.5818469291338582
20
-1.0466811417322834
11
-1.5683748031496063
21
-1.043606220472441
0
LINE
8
BLACK
6
CONTINUOUS
10
-1.5683748031496063
20
-1.043606220472441
11
-1.555331653543307
21
-1.0390422440944882
0
LINE
8
BLACK
6
CONTINUOUS
10
-1.555331653543307
20
-1.0390422440944882
11
-1.5428815354330709
21
-1.0330465748031497
0
LINE
8
BLACK
6
CONTINUOUS
10
-1.5428815354330709
20
-1.0330465748031497
11
-1.5311809842519686
21
-1.0256946456692912
0
LINE
8
BLACK
6
CONTINUOUS
10
-1.5311809842519686
20
-1.0256946456692912
11
-1.5203771653543308
21
-1.0170788582677166
0
LINE
8
BLACK
6
CONTINUOUS
10
-1.5203771653543308
20
-1.0170788582677166
11
-1.5106059448818898
21
-1.0073076377952757
0
LINE
8
BLACK
6
CONTINUOUS
10
-1.5106059448818898
20
-1.0073076377952757
11
-1.5019901574803149
21
-0.9965038188976377
0
LINE
8
BLACK
6
CONTINUOUS
10
-1.5019901574803149
20
-0.9965038188976377
11
-1.4946382283464568
21
-0.9848032677165354
0
LINE
8
BLACK
6
CONTINUOUS
10
-1.4946382283464568
20
-0.9848032677165354
11
-1.488642559055118
21
-0.9723531496062991
0
LINE
8
BLACK
6
CONTINUOUS
10
-1.488642559055118
20
-0.9723531496062991
11
-1.4840785826771654
21
-0.95931
0
LINE
8
BLACK
6
CONTINUOUS
10
-1.4840785826771654
20
-0.95931
11
-1.4810036614173228
21
-0.945837874015748
0
LINE
8
BLACK
6
CONTINUOUS
10
-1.4810036614173228
20
-0.945837874015748
11
-1.4794564566929134
21
-0.9321061417322835
0
LINE
8
BLACK
6
CONTINUOUS
10
-1.4794564566929134
20
-0.9321061417322835
11
-1.4794564566929134
21
-0.9182875590551181
0
LINE
8
BLACK
6
CONTINUOUS
10
-1.4794564566929134
20
-0.9182875590551181
11
-1.4810036614173228
21
-0.9045558267716535
0
LINE
8
BLACK
6
CONTINUOUS
10
-1.4810036614173228
20
-0.9045558267716535
11
-1.4840785826771654
21
-0.8910837007874015
0
LINE
8
BLACK
6
CONTINUOUS
10
-1.4840785826771654
20
-0.8910837007874015
11
-1.488642559055118
21
-0.8780405511811024
0
LINE
8
BLACK
6
CONTINUOUS
10
-1.488642559055118
20
-0.8780405511811024
11
-1.4946382283464568
21
-0.8655904330708661
0
LINE
8
BLACK
6
CONTINUOUS
10
-1.4946382283464568
20
-0.8655904330708661
11
-1.5019901574803149
21
-0.8538898818897638
0
LINE
8
BLACK
6
CONTINUOUS
10
-1.5019901574803149
20
-0.8538898818897638
11
-1.5106059448818898
21
-0.843086062992126
0
LINE
8
BLACK
6
CONTINUOUS
10
-1.5106059448818898
20
-0.843086062992126
11
-1.5203771653543308
21
-0.833314842519685
0
LINE
8
BLACK
6
CONTINUOUS
10
-1.5203771653543308
20
-0.833314842519685
11
-1.5311809842519686
21
-0.8246990551181103
0
LINE
8
BLACK
6
CONTINUOUS
10
-1.5311809842519686
20
-0.8246990551181103
11
-1.5428815354330709
21
-0.817347125984252
0
LINE
8
BLACK
6
CONTINUOUS
10
-1.5428815354330709
20
-0.817347125984252
11
-1.555331653543307
21
-0.8113514566929134
0
LINE
8
BLACK
6
CONTINUOUS
10
-1.555331653543307
20
-0.8113514566929134
11
-1.5683748031496063
21
-0.8067874803149606
0
LINE
8
BLACK
6
CONTINUOUS
10
-1.5683748031496063
20
-0.8067874803149606
11
-1.5818469291338582
21
-0.8037125590551181
0
LINE
8
BLACK
6
CONTINUOUS
10
-1.5818469291338582
20
-0.8037125590551181
11
-1.5955786614173229
21
-0.8021653543307087
0
LINE
8
BLACK
6
CONTINUOUS
10
-1.5955786614173229
20
-0.8021653543307087
11
-1.6093972440944881
21
-0.8021653543307087
0
LINE
8
BLACK
6
CONTINUOUS
10
-1.6093972440944881
20
-0.8021653543307087
11
-1.6231289763779526
21
-0.8037125590551181
0
LINE
8
BLACK
6
CONTINUOUS
10
-1.7255194488188976
20
-0.8021653543307087
11
-1.7255194488188976
21
-0.8945394488188976
0
LINE
8
BLACK
6
CONTINUOUS
10
-1.7255194488188976
20
-0.8945394488188976
11
-1.7244941732283465
21
-0.8900474409448819
0
LINE
8
BLACK
6
CONTINUOUS
10
-1.7244941732283465
20
-0.8900474409448819
11
-1.7197915354330708
21
-0.8766081102362204
0
LINE
8
BLACK
6
CONTINUOUS
10
-1.7197915354330708
20
-0.8766081102362204
11
-1.713613779527559
21
-0.8637798031496062
0
LINE
8
BLACK
6
CONTINUOUS
10
-1.713613779527559
20
-0.8637798031496062
11
-1.7060385039370078
21
-0.8517238188976378
0
LINE
8
BLACK
6
CONTINUOUS
10
-1.7060385039370078
20
-0.8517238188976378
11
-1.6971610236220471
21
-0.840591811023622
0
LINE
8
BLACK
6
CONTINUOUS
10
-1.6971610236220471
20
-0.840591811023622
11
-1.6870929921259843
21
-0.8305237795275591
0
LINE
8
BLACK
6
CONTINUOUS
10
-1.6870929921259843
20
-0.8305237795275591
11
-1.6759609842519685
21
-0.8216462992125984
0
LINE
8
BLACK
6
CONTINUOUS
10
-1.6759609842519685
20
-0.8216462992125984
11
-1.663905
21
-0.8140710236220472
0
LINE
8
BLACK
6
CONTINUOUS
10
-1.663905
20
-0.8140710236220472
11
-1.6510766929133858
21
-0.8078932677165355
0
LINE
8
BLACK
6
CONTINUOUS
10
-1.6510766929133858
20
-0.8078932677165355
11
-1.6376373622047244
21
-0.8031906299212598
0
LINE
8
BLACK
6
CONTINUOUS
10
-1.6376373622047244
20
-0.8031906299212598
11
-1.6331453543307086
21
-0.8021653543307087
0
LINE
8
BLACK
6
CONTINUOUS
10
-1.6331453543307086
20
-0.8021653543307087
11
-1.7255194488188976
21
-0.8021653543307087
0
LINE
8
BLACK
6
CONTINUOUS
10
-1.5718305511811024
20
-0.8021653543307087
11
-1.5673385433070866
21
-0.8031906299212598
0
LINE
8
BLACK
6
CONTINUOUS
10
-1.5673385433070866
20
-0.8031906299212598
11
-1.5538992125984252
21
-0.8078932677165355
0
LINE
8
BLACK
6
CONTINUOUS
10
-1.5538992125984252
20
-0.8078932677165355
11
-1.541070905511811
21
-0.8140710236220472
0
LINE
8
BLACK
6
CONTINUOUS
10
-1.541070905511811
20
-0.8140710236220472
11
-1.5290149212598425
21
-0.8216462992125984
0
LINE
8
BLACK
6
CONTINUOUS
10
-1.5290149212598425
20
-0.8216462992125984
11
-1.5178829133858267
21
-0.8305237795275591
0
LINE
8
BLACK
6
CONTINUOUS
10
-1.5178829133858267
20
-0.8305237795275591
11
-1.5078148818897636
21
-0.840591811023622
0
LINE
8
BLACK
6
CONTINUOUS
10
-1.5078148818897636
20
-0.840591811023622
11
-1.4989374015748032
21
-0.8517238188976378
0
LINE
8
BLACK
6
CONTINUOUS
10
-1.4989374015748032
20
-0.8517238188976378
11
-1.491362125984252
21
-0.8637798031496062
0
LINE
8
BLACK
6
CONTINUOUS
10
-1.491362125984252
20
-0.8637798031496062
11
-1.4851843700787402
21
-0.8766081102362204
0
LINE
8
BLACK
6
CONTINUOUS
10
-1.4851843700787402
20
-0.8766081102362204
11
-1.4804817322834645
21
-0.8900474409448819
0
LINE
8
BLACK
6
CONTINUOUS
10
-1.4804817322834645
20
-0.8900474409448819
11
-1.4794564566929134
21
-0.8945394488188976
0
LINE
8
BLACK
6
CONTINUOUS
10
-1.4794564566929134
20
-0.8945394488188976
11
-1.4794564566929134
21
-0.8021653543307087
0
LINE
8
BLACK
6
CONTINUOUS
10
-1.4794564566929134
20
-0.8021653543307087
11
-1.5718305511811024
21
-0.8021653543307087
0
LINE
8
BLACK
6
CONTINUOUS
10
1.5722574015748032
20
-0.9012779133858267
11
1.5730720472440944
21
-0.9020925590551181
0
LINE
8
BLACK
6
CONTINUOUS
10
1.5730720472440944
20
-0.9020925590551181
11
1.5735129527559055
21
-0.903156968503937
0
LINE
8
BLACK
6
CONTINUOUS
10
1.5735129527559055
20
-0.903156968503937
11
1.5735696850393701
21
-0.903733031496063
0
LINE
8
BLACK
6
CONTINUOUS
10
1.5735696850393701
20
-0.903733031496063
11
1.5735696850393701
21
-0.9318544881889763
0
LINE
8
BLACK
6
CONTINUOUS
10
1.5735696850393701
20
-0.9318544881889763
11
1.5735409448818898
21
-0.932146062992126
0
LINE
8
BLACK
6
CONTINUOUS
10
1.5735409448818898
20
-0.932146062992126
11
1.5735464960629921
21
-0.9322238188976377
0
LINE
8
BLACK
6
CONTINUOUS
10
1.5735464960629921
20
-0.9322238188976377
11
1.5735232283464566
21
-0.9323260629921259
0
LINE
8
BLACK
6
CONTINUOUS
10
1.5735232283464566
20
-0.9323260629921259
11
1.5735129527559055
21
-0.9324305511811023
0
LINE
8
BLACK
6
CONTINUOUS
10
1.5735129527559055
20
-0.9324305511811023
11
1.5734830708661416
21
-0.9325025984251968
0
LINE
8
BLACK
6
CONTINUOUS
10
1.5734830708661416
20
-0.9325025984251968
11
1.5734181496062991
21
-0.9327882677165354
0
LINE
8
BLACK
6
CONTINUOUS
10
1.5734181496062991
20
-0.9327882677165354
11
1.5715433858267716
21
-0.9384125196850394
0
LINE
8
BLACK
6
CONTINUOUS
10
1.5715433858267716
20
-0.9384125196850394
11
1.5713074015748032
21
-0.9389411023622047
0
LINE
8
BLACK
6
CONTINUOUS
10
1.5713074015748032
20
-0.9389411023622047
11
1.571237874015748
21
-0.939021220472441
0
LINE
8
BLACK
6
CONTINUOUS
10
1.571237874015748
20
-0.939021220472441
11
1.5711973228346456
21
-0.9391192125984251
0
LINE
8
BLACK
6
CONTINUOUS
10
1.5711973228346456
20
-0.9391192125984251
11
1.5708301181102362
21
-0.939566653543307
0
LINE
8
BLACK
6
CONTINUOUS
10
1.5708301181102362
20
-0.939566653543307
11
1.5670805511811023
21
-0.9433162598425197
0
LINE
8
BLACK
6
CONTINUOUS
10
1.5670805511811023
20
-0.9433162598425197
11
1.5666331102362205
21
-0.9436834645669291
0
LINE
8
BLACK
6
CONTINUOUS
10
1.5666331102362205
20
-0.9436834645669291
11
1.5665350393700788
21
-0.9437240551181102
0
LINE
8
BLACK
6
CONTINUOUS
10
1.5665350393700788
20
-0.9437240551181102
11
1.5664549212598424
21
-0.9437935826771653
0
LINE
8
BLACK
6
CONTINUOUS
10
1.5664549212598424
20
-0.9437935826771653
11
1.5659263779527559
21
-0.9440295669291339
0
LINE
8
BLACK
6
CONTINUOUS
10
1.5659263779527559
20
-0.9440295669291339
11
1.5603020866141732
21
-0.9459043307086614
0
LINE
8
BLACK
6
CONTINUOUS
10
1.5603020866141732
20
-0.9459043307086614
11
1.5600164960629921
21
-0.9459692519685039
0
LINE
8
BLACK
6
CONTINUOUS
10
1.5600164960629921
20
-0.9459692519685039
11
1.5599444094488188
21
-0.9459991338582677
0
LINE
8
BLACK
6
CONTINUOUS
10
1.5599444094488188
20
-0.9459991338582677
11
1.5598398818897636
21
-0.9460094094488188
0
LINE
8
BLACK
6
CONTINUOUS
10
1.5598398818897636
20
-0.9460094094488188
11
1.5597376377952756
21
-0.9460326771653543
0
LINE
8
BLACK
6
CONTINUOUS
10
1.5597376377952756
20
-0.9460326771653543
11
1.5596598818897638
21
-0.946027125984252
0
LINE
8
BLACK
6
CONTINUOUS
10
1.5596598818897638
20
-0.946027125984252
11
1.559368346456693
21
-0.9460558661417323
0
LINE
8
BLACK
6
CONTINUOUS
10
1.559368346456693
20
-0.9460558661417323
11
1.5556188188976379
21
-0.9460558661417323
0
LINE
8
BLACK
6
CONTINUOUS
10
1.5556188188976379
20
-0.9460558661417323
11
1.5550427559055118
21
-0.9459991338582677
0
LINE
8
BLACK
6
CONTINUOUS
10
1.5550427559055118
20
-0.9459991338582677
11
1.553978346456693
21
-0.9455582283464566
0
LINE
8
BLACK
6
CONTINUOUS
10
1.553978346456693
20
-0.9455582283464566
11
1.5531637007874015
21
-0.9447435826771653
0
LINE
8
BLACK
6
CONTINUOUS
10
1.5531637007874015
20
-0.9447435826771653
11
1.5527227952755904
21
-0.9436791732283465
0
LINE
8
BLACK
6
CONTINUOUS
10
1.5527227952755904
20
-0.9436791732283465
11
1.5527227952755904
21
-0.9425270472440944
0
LINE
8
BLACK
6
CONTINUOUS
10
1.5527227952755904
20
-0.9425270472440944
11
1.5531637007874015
21
-0.9414626377952756
0
LINE
8
BLACK
6
CONTINUOUS
10
1.5531637007874015
20
-0.9414626377952756
11
1.553978346456693
21
-0.9406479921259843
0
LINE
8
BLACK
6
CONTINUOUS
10
1.553978346456693
20
-0.9406479921259843
11
1.5550427559055118
21
-0.9402070866141732
0
LINE
8
BLACK
6
CONTINUOUS
10
1.5550427559055118
20
-0.9402070866141732
11
1.5556188188976379
21
-0.9401503543307086
0
LINE
8
BLACK
6
CONTINUOUS
10
1.5556188188976379
20
-0.9401503543307086
11
1.5588892125984251
21
-0.9401503543307086
0
LINE
8
BLACK
6
CONTINUOUS
10
1.5588892125984251
20
-0.9401503543307086
11
1.5633975984251969
21
-0.9386475196850393
0
LINE
8
BLACK
6
CONTINUOUS
10
1.5633975984251969
20
-0.9386475196850393
11
1.5661613385826771
21
-0.9358837401574803
0
LINE
8
BLACK
6
CONTINUOUS
10
1.5661613385826771
20
-0.9358837401574803
11
1.5676641732283465
21
-0.9313753543307086
0
LINE
8
BLACK
6
CONTINUOUS
10
1.5676641732283465
20
-0.9313753543307086
11
1.5676641732283465
21
-0.903733031496063
0
LINE
8
BLACK
6
CONTINUOUS
10
1.5676641732283465
20
-0.903733031496063
11
1.5677209055118111
21
-0.903156968503937
0
LINE
8
BLACK
6
CONTINUOUS
10
1.5677209055118111
20
-0.903156968503937
11
1.568161811023622
21
-0.9020925590551181
0
LINE
8
BLACK
6
CONTINUOUS
10
1.568161811023622
20
-0.9020925590551181
11
1.5689764566929134
21
-0.9012779133858267
0
LINE
8
BLACK
6
CONTINUOUS
10
1.5689764566929134
20
-0.9012779133858267
11
1.5700408661417322
21
-0.9008370078740158
0
LINE
8
BLACK
6
CONTINUOUS
10
1.5700408661417322
20
-0.9008370078740158
11
1.5711929921259842
21
-0.9008370078740158
0
LINE
8
BLACK
6
CONTINUOUS
10
1.5711929921259842
20
-0.9008370078740158
11
1.5722574015748032
21
-0.9012779133858267
0
LINE
8
BLACK
6
CONTINUOUS
10
1.5990220866141731
20
-0.9008370078740158
11
1.5993144881889763
21
-0.9008370078740158
0
LINE
8
BLACK
6
CONTINUOUS
10
1.5993144881889763
20
-0.9008370078740158
11
1.5995817322834645
21
-0.900947716535433
0
LINE
8
BLACK
6
CONTINUOUS
10
1.5995817322834645
20
-0.900947716535433
11
1.5998655511811024
21
-0.9010038582677166
0
LINE
8
BLACK
6
CONTINUOUS
10
1.5998655511811024
20
-0.9010038582677166
11
1.6001088188976378
21
-0.9011660236220472
0
LINE
8
BLACK
6
CONTINUOUS
10
1.6001088188976378
20
-0.9011660236220472
11
1.6003788976377953
21
-0.9012779133858267
0
LINE
8
BLACK
6
CONTINUOUS
10
1.6003788976377953
20
-0.9012779133858267
11
1.600583346456693
21
-0.9014823622047244
0
LINE
8
BLACK
6
CONTINUOUS
10
1.600583346456693
20
-0.9014823622047244
11
1.6008241732283464
21
-0.9016429133858268
0
LINE
8
BLACK
6
CONTINUOUS
10
1.6008241732283464
20
-0.9016429133858268
11
1.6009868897637796
21
-0.901885905511811
0
LINE
8
BLACK
6
CONTINUOUS
10
1.6009868897637796
20
-0.901885905511811
11
1.6011935433070865
21
-0.9020925590551181
0
LINE
8
BLACK
6
CONTINUOUS
10
1.6011935433070865
20
-0.9020925590551181
11
1.6013042125984251
21
-0.9023597637795275
0
LINE
8
BLACK
6
CONTINUOUS
10
1.6013042125984251
20
-0.9023597637795275
11
1.6014652362204724
21
-0.9026001968503937
0
LINE
8
BLACK
6
CONTINUOUS
10
1.6014652362204724
20
-0.9026001968503937
11
1.6015225590551181
21
-0.9028868503937008
0
LINE
8
BLACK
6
CONTINUOUS
10
1.6015225590551181
20
-0.9028868503937008
11
1.6016344488188976
21
-0.903156968503937
0
LINE
8
BLACK
6
CONTINUOUS
10
1.6016344488188976
20
-0.903156968503937
11
1.6016905511811024
21
-0.9037268897637795
0
LINE
8
BLACK
6
CONTINUOUS
10
1.6016905511811024
20
-0.9037268897637795
11
1.6016911811023622
21
-0.9037299212598425
0
LINE
8
BLACK
6
CONTINUOUS
10
1.6016911811023622
20
-0.9037299212598425
11
1.6016909448818897
21
-0.9037309448818898
0
LINE
8
BLACK
6
CONTINUOUS
10
1.6016909448818897
20
-0.9037309448818898
11
1.6016911811023622
21
-0.903733031496063
0
LINE
8
BLACK
6
CONTINUOUS
10
1.6016911811023622
20
-0.903733031496063
11
1.6016911811023622
21
-0.9401503543307086
0
LINE
8
BLACK
6
CONTINUOUS
10
1.6016911811023622
20
-0.9401503543307086
11
1.6099870078740157
21
-0.9401503543307086
0
LINE
8
BLACK
6
CONTINUOUS
10
1.6099870078740157
20
-0.9401503543307086
11
1.6105630708661416
21
-0.9402070866141732
0
LINE
8
BLACK
6
CONTINUOUS
10
1.6105630708661416
20
-0.9402070866141732
11
1.6116274803149606
21
-0.9406479921259843
0
LINE
8
BLACK
6
CONTINUOUS
10
1.6116274803149606
20
-0.9406479921259843
11
1.6124421259842519
21
-0.9414626377952756
0
LINE
8
BLACK
6
CONTINUOUS
10
1.6124421259842519
20
-0.9414626377952756
11
1.6128830314960629
21
-0.9425270472440944
0
LINE
8
BLACK
6
CONTINUOUS
10
1.6128830314960629
20
-0.9425270472440944
11
1.6128830314960629
21
-0.9436791732283465
0
LINE
8
BLACK
6
CONTINUOUS
10
1.6128830314960629
20
-0.9436791732283465
11
1.6124421259842519
21
-0.9447435826771653
0
LINE
8
BLACK
6
CONTINUOUS
10
1.6124421259842519
20
-0.9447435826771653
11
1.6116274803149606
21
-0.9455582283464566
0
LINE
8
BLACK
6
CONTINUOUS
10
1.6116274803149606
20
-0.9455582283464566
11
1.6105630708661416
21
-0.9459991338582677
0
LINE
8
BLACK
6
CONTINUOUS
10
1.6105630708661416
20
-0.9459991338582677
11
1.6099870078740157
21
-0.9460558661417323
0
LINE
8
BLACK
6
CONTINUOUS
10
1.6099870078740157
20
-0.9460558661417323
11
1.5874898425196851
21
-0.9460558661417323
0
LINE
8
BLACK
6
CONTINUOUS
10
1.5874898425196851
20
-0.9460558661417323
11
1.586913779527559
21
-0.9459991338582677
0
LINE
8
BLACK
6
CONTINUOUS
10
1.586913779527559
20
-0.9459991338582677
11
1.5858493700787402
21
-0.9455582283464566
0
LINE
8
BLACK
6
CONTINUOUS
10
1.5858493700787402
20
-0.9455582283464566
11
1.5850347244094487
21
-0.9447435826771653
0
LINE
8
BLACK
6
CONTINUOUS
10
1.5850347244094487
20
-0.9447435826771653
11
1.5845938188976378
21
-0.9436791732283465
0
LINE
8
BLACK
6
CONTINUOUS
10
1.5845938188976378
20
-0.9436791732283465
11
1.5845938188976378
21
-0.9425270472440944
0
LINE
8
BLACK
6
CONTINUOUS
10
1.5845938188976378
20
-0.9425270472440944
11
1.5850347244094487
21
-0.9414626377952756
0
LINE
8
BLACK
6
CONTINUOUS
10
1.5850347244094487
20
-0.9414626377952756
11
1.5858493700787402
21
-0.9406479921259843
0
LINE
8
BLACK
6
CONTINUOUS
10
1.5858493700787402
20
-0.9406479921259843
11
1.586913779527559
21
-0.9402070866141732
0
LINE
8
BLACK
6
CONTINUOUS
10
1.586913779527559
20
-0.9402070866141732
11
1.5874898425196851
21
-0.9401503543307086
0
LINE
8
BLACK
6
CONTINUOUS
10
1.5874898425196851
20
-0.9401503543307086
11
1.5957856692913386
21
-0.9401503543307086
0
LINE
8
BLACK
6
CONTINUOUS
10
1.5957856692913386
20
-0.9401503543307086
11
1.5957856692913386
21
-0.9127363779527559
0
LINE
8
BLACK
6
CONTINUOUS
10
1.5957856692913386
20
-0.9127363779527559
11
1.5933272834645669
21
-0.9151947637795276
0
LINE
8
BLACK
6
CONTINUOUS
10
1.5933272834645669
20
-0.9151947637795276
11
1.593100905511811
21
-0.9153805118110236
0
LINE
8
BLACK
6
CONTINUOUS
10
1.593100905511811
20
-0.9153805118110236
11
1.5930497637795276
21
-0.9154395275590551
0
LINE
8
BLACK
6
CONTINUOUS
10
1.5930497637795276
20
-0.9154395275590551
11
1.5929607874015748
21
-0.9154954724409449
0
LINE
8
BLACK
6
CONTINUOUS
10
1.5929607874015748
20
-0.9154954724409449
11
1.5928798425196851
21
-0.915561968503937
0
LINE
8
BLACK
6
CONTINUOUS
10
1.5928798425196851
20
-0.915561968503937
11
1.5928078740157481
21
-0.9155917716535433
0
LINE
8
BLACK
6
CONTINUOUS
10
1.5928078740157481
20
-0.9155917716535433
11
1.5925598818897637
21
-0.915747874015748
0
LINE
8
BLACK
6
CONTINUOUS
10
1.5925598818897637
20
-0.915747874015748
11
1.5888103543307086
21
-0.9176226377952755
0
LINE
8
BLACK
6
CONTINUOUS
10
1.5888103543307086
20
-0.9176226377952755
11
1.5882697244094488
21
-0.9178295275590551
0
LINE
8
BLACK
6
CONTINUOUS
10
1.5882697244094488
20
-0.9178295275590551
11
1.5871205118110236
21
-0.9179111811023621
0
LINE
8
BLACK
6
CONTINUOUS
10
1.5871205118110236
20
-0.9179111811023621
11
1.5860275590551181
21
-0.9175468503937008
0
LINE
8
BLACK
6
CONTINUOUS
10
1.5860275590551181
20
-0.9175468503937008
11
1.5851571653543306
21
-0.9167920078740157
0
LINE
8
BLACK
6
CONTINUOUS
10
1.5851571653543306
20
-0.9167920078740157
11
1.5846419291338583
21
-0.9157614960629921
0
LINE
8
BLACK
6
CONTINUOUS
10
1.5846419291338583
20
-0.9157614960629921
11
1.5845602755905512
21
-0.9146122834645669
0
LINE
8
BLACK
6
CONTINUOUS
10
1.5845602755905512
20
-0.9146122834645669
11
1.5849246062992126
21
-0.9135193307086614
0
LINE
8
BLACK
6
CONTINUOUS
10
1.5849246062992126
20
-0.9135193307086614
11
1.5856794488188977
21
-0.912648937007874
0
LINE
8
BLACK
6
CONTINUOUS
10
1.5856794488188977
20
-0.912648937007874
11
1.5861693307086613
21
-0.9123405905511811
0
LINE
8
BLACK
6
CONTINUOUS
10
1.5861693307086613
20
-0.9123405905511811
11
1.5894902755905511
21
-0.9106801181102362
0
LINE
8
BLACK
6
CONTINUOUS
10
1.5894902755905511
20
-0.9106801181102362
11
1.5926941732283464
21
-0.9074762204724409
0
LINE
8
BLACK
6
CONTINUOUS
10
1.5926941732283464
20
-0.9074762204724409
11
1.5962815748031496
21
-0.9020951181102362
0
LINE
8
BLACK
6
CONTINUOUS
10
1.5962815748031496
20
-0.9020951181102362
11
1.5962829133858267
21
-0.9020934251968503
0
LINE
8
BLACK
6
CONTINUOUS
10
1.5962829133858267
20
-0.9020934251968503
11
1.596283307086614
21
-0.9020925590551181
0
LINE
8
BLACK
6
CONTINUOUS
10
1.596283307086614
20
-0.9020925590551181
11
1.59628531496063
21
-0.9020905118110236
0
LINE
8
BLACK
6
CONTINUOUS
10
1.59628531496063
20
-0.9020905118110236
11
1.596648346456693
21
-0.9016472834645669
0
LINE
8
BLACK
6
CONTINUOUS
10
1.596648346456693
20
-0.9016472834645669
11
1.5968912204724408
21
-0.9014846062992126
0
LINE
8
BLACK
6
CONTINUOUS
10
1.5968912204724408
20
-0.9014846062992126
11
1.5970979527559055
21
-0.9012779133858267
0
LINE
8
BLACK
6
CONTINUOUS
10
1.5970979527559055
20
-0.9012779133858267
11
1.5973652362204724
21
-0.9011671653543307
0
LINE
8
BLACK
6
CONTINUOUS
10
1.5973652362204724
20
-0.9011671653543307
11
1.5976056299212598
21
-0.9010062204724409
0
LINE
8
BLACK
6
CONTINUOUS
10
1.5976056299212598
20
-0.9010062204724409
11
1.597892244094488
21
-0.9009488582677165
0
LINE
8
BLACK
6
CONTINUOUS
10
1.597892244094488
20
-0.9009488582677165
11
1.5981623622047243
21
-0.9008370078740158
0
LINE
8
BLACK
6
CONTINUOUS
10
1.5981623622047243
20
-0.9008370078740158
11
1.5984516535433071
21
-0.9008370078740158
0
LINE
8
BLACK
6
CONTINUOUS
10
1.5984516535433071
20
-0.9008370078740158
11
1.5987353149606298
21
-0.9007802755905512
0
LINE
8
BLACK
6
CONTINUOUS
10
1.5987353149606298
20
-0.9007802755905512
11
1.5990220866141731
21
-0.9008370078740158
0
LINE
8
BLACK
6
CONTINUOUS
10
1.6386845669291339
20
-0.9008370078740158
11
1.6387825590551182
21
-0.9008775984251969
0
LINE
8
BLACK
6
CONTINUOUS
10
1.6387825590551182
20
-0.9008775984251969
11
1.6388883858267715
21
-0.9008851181102362
0
LINE
8
BLACK
6
CONTINUOUS
10
1.6388883858267715
20
-0.9008851181102362
11
1.6394290157480313
21
-0.9010920078740158
0
LINE
8
BLACK
6
CONTINUOUS
10
1.6394290157480313
20
-0.9010920078740158
11
1.6431785433070867
21
-0.9029667716535433
0
LINE
8
BLACK
6
CONTINUOUS
10
1.6431785433070867
20
-0.9029667716535433
11
1.6434265354330708
21
-0.9031228346456692
0
LINE
8
BLACK
6
CONTINUOUS
10
1.6434265354330708
20
-0.9031228346456692
11
1.6434985039370078
21
-0.9031526771653543
0
LINE
8
BLACK
6
CONTINUOUS
10
1.6434985039370078
20
-0.9031526771653543
11
1.6435794488188975
21
-0.9032191338582677
0
LINE
8
BLACK
6
CONTINUOUS
10
1.6435794488188975
20
-0.9032191338582677
11
1.6436684251968503
21
-0.9032751181102362
0
LINE
8
BLACK
6
CONTINUOUS
10
1.6436684251968503
20
-0.9032751181102362
11
1.6437195669291338
21
-0.9033340944881889
0
LINE
8
BLACK
6
CONTINUOUS
10
1.6437195669291338
20
-0.9033340944881889
11
1.6439459448818898
21
-0.9035198818897637
0
LINE
8
BLACK
6
CONTINUOUS
10
1.6439459448818898
20
-0.9035198818897637
11
1.6458207086614174
21
-0.9053946456692913
0
LINE
8
BLACK
6
CONTINUOUS
10
1.6458207086614174
20
-0.9053946456692913
11
1.6460064566929133
21
-0.9056209842519685
0
LINE
8
BLACK
6
CONTINUOUS
10
1.6460064566929133
20
-0.9056209842519685
11
1.6460654724409449
21
-0.9056721653543307
0
LINE
8
BLACK
6
CONTINUOUS
10
1.6460654724409449
20
-0.9056721653543307
11
1.6461214173228347
21
-0.9057611023622048
0
LINE
8
BLACK
6
CONTINUOUS
10
1.6461214173228347
20
-0.9057611023622048
11
1.6461879133858268
21
-0.9058420866141732
0
LINE
8
BLACK
6
CONTINUOUS
10
1.6461879133858268
20
-0.9058420866141732
11
1.646217716535433
21
-0.9059140157480314
0
LINE
8
BLACK
6
CONTINUOUS
10
1.646217716535433
20
-0.9059140157480314
11
1.6463738188976378
21
-0.9061620472440944
0
LINE
8
BLACK
6
CONTINUOUS
10
1.6463738188976378
20
-0.9061620472440944
11
1.6482485826771653
21
-0.9099115748031495
0
LINE
8
BLACK
6
CONTINUOUS
10
1.6482485826771653
20
-0.9099115748031495
11
1.6482646850393701
21
-0.9099536614173228
0
LINE
8
BLACK
6
CONTINUOUS
10
1.6482646850393701
20
-0.9099536614173228
11
1.6482774015748032
21
-0.9099708267716535
0
LINE
8
BLACK
6
CONTINUOUS
10
1.6482774015748032
20
-0.9099708267716535
11
1.6483637007874015
21
-0.9102124015748031
0
LINE
8
BLACK
6
CONTINUOUS
10
1.6483637007874015
20
-0.9102124015748031
11
1.6484554724409448
21
-0.9104521653543307
0
LINE
8
BLACK
6
CONTINUOUS
10
1.6484554724409448
20
-0.9104521653543307
11
1.648456968503937
21
-0.9104734251968504
0
LINE
8
BLACK
6
CONTINUOUS
10
1.648456968503937
20
-0.9104734251968504
11
1.6484721653543306
21
-0.9105159448818897
0
LINE
8
BLACK
6
CONTINUOUS
10
1.6484721653543306
20
-0.9105159448818897
11
1.6503469291338582
21
-0.918015
0
LINE
8
BLACK
6
CONTINUOUS
10
1.6503469291338582
20
-0.918015
11
1.6503616929133857
21
-0.918114842519685
0
LINE
8
BLACK
6
CONTINUOUS
10
1.6503616929133857
20
-0.918114842519685
11
1.6503783464566928
21
-0.9181550787401574
0
LINE
8
BLACK
6
CONTINUOUS
10
1.6503783464566928
20
-0.9181550787401574
11
1.6503996850393701
21
-0.9183720866141732
0
LINE
8
BLACK
6
CONTINUOUS
10
1.6503996850393701
20
-0.9183720866141732
11
1.6504315748031495
21
-0.9185875984251969
0
LINE
8
BLACK
6
CONTINUOUS
10
1.6504315748031495
20
-0.9185875984251969
11
1.6504251574803148
21
-0.9186305905511811
0
LINE
8
BLACK
6
CONTINUOUS
10
1.6504251574803148
20
-0.9186305905511811
11
1.6504350787401574
21
-0.9187311417322834
0
LINE
8
BLACK
6
CONTINUOUS
10
1.6504350787401574
20
-0.9187311417322834
11
1.6504350787401574
21
-0.9281049606299212
0
LINE
8
BLACK
6
CONTINUOUS
10
1.6504350787401574
20
-0.9281049606299212
11
1.6504251574803148
21
-0.9282054724409449
0
LINE
8
BLACK
6
CONTINUOUS
10
1.6504251574803148
20
-0.9282054724409449
11
1.6504315748031495
21
-0.9282485039370079
0
LINE
8
BLACK
6
CONTINUOUS
10
1.6504315748031495
20
-0.9282485039370079
11
1.6503996850393701
21
-0.9284639763779527
0
LINE
8
BLACK
6
CONTINUOUS
10
1.6503996850393701
20
-0.9284639763779527
11
1.6503783464566928
21
-0.9286810236220472
0
LINE
8
BLACK
6
CONTINUOUS
10
1.6503783464566928
20
-0.9286810236220472
11
1.6503616929133857
21
-0.9287212204724409
0
LINE
8
BLACK
6
CONTINUOUS
10
1.6503616929133857
20
-0.9287212204724409
11
1.6503469291338582
21
-0.9288211023622047
0
LINE
8
BLACK
6
CONTINUOUS
10
1.6503469291338582
20
-0.9288211023622047
11
1.6484721653543306
21
-0.9363201574803149
0
LINE
8
BLACK
6
CONTINUOUS
10
1.6484721653543306
20
-0.9363201574803149
11
1.648456968503937
21
-0.9363626377952756
0
LINE
8
BLACK
6
CONTINUOUS
10
1.648456968503937
20
-0.9363626377952756
11
1.6484554724409448
21
-0.936383937007874
0
LINE
8
BLACK
6
CONTINUOUS
10
1.6484554724409448
20
-0.936383937007874
11
1.6483637007874015
21
-0.9366236614173228
0
LINE
8
BLACK
6
CONTINUOUS
10
1.6483637007874015
20
-0.9366236614173228
11
1.6482774015748032
21
-0.9368652755905511
0
LINE
8
BLACK
6
CONTINUOUS
10
1.6482774015748032
20
-0.9368652755905511
11
1.6482646850393701
21
-0.9368824015748032
0
LINE
8
BLACK
6
CONTINUOUS
10
1.6482646850393701
20
-0.9368824015748032
11
1.6482485826771653
21
-0.9369245275590551
0
LINE
8
BLACK
6
CONTINUOUS
10
1.6482485826771653
20
-0.9369245275590551
11
1.6463738188976378
21
-0.9406740551181102
0
LINE
8
BLACK
6
CONTINUOUS
10
1.6463738188976378
20
-0.9406740551181102
11
1.6462177559055118
21
-0.9409219291338582
0
LINE
8
BLACK
6
CONTINUOUS
10
1.6462177559055118
20
-0.9409219291338582
11
1.6461879527559056
21
-0.9409939763779528
0
LINE
8
BLACK
6
CONTINUOUS
10
1.6461879527559056
20
-0.9409939763779528
11
1.6461214173228347
21
-0.941075
0
LINE
8
BLACK
6
CONTINUOUS
10
1.6461214173228347
20
-0.941075
11
1.6460654724409449
21
-0.941163937007874
0
LINE
8
BLACK
6
CONTINUOUS
10
1.6460654724409449
20
-0.941163937007874
11
1.6460064566929133
21
-0.9412150787401574
0
LINE
8
BLACK
6
CONTINUOUS
10
1.6460064566929133
20
-0.9412150787401574
11
1.6458207086614174
21
-0.9414414566929133
0
LINE
8
BLACK
6
CONTINUOUS
10
1.6458207086614174
20
-0.9414414566929133
11
1.6439459842519684
21
-0.9433162204724409
0
LINE
8
BLACK
6
CONTINUOUS
10
1.6439459842519684
20
-0.9433162204724409
11
1.6437196062992125
21
-0.943501968503937
0
LINE
8
BLACK
6
CONTINUOUS
10
1.6437196062992125
20
-0.943501968503937
11
1.6436684251968503
21
-0.9435610236220472
0
LINE
8
BLACK
6
CONTINUOUS
10
1.6436684251968503
20
-0.9435610236220472
11
1.6435794488188975
21
-0.9436170078740157
0
LINE
8
BLACK
6
CONTINUOUS
10
1.6435794488188975
20
-0.9436170078740157
11
1.6434985039370078
21
-0.9436834645669291
0
LINE
8
BLACK
6
CONTINUOUS
10
1.6434985039370078
20
-0.9436834645669291
11
1.6434265354330708
21
-0.9437132677165354
0
LINE
8
BLACK
6
CONTINUOUS
10
1.6434265354330708
20
-0.9437132677165354
11
1.6431785433070867
21
-0.9438693700787402
0
LINE
8
BLACK
6
CONTINUOUS
10
1.6431785433070867
20
-0.9438693700787402
11
1.6394290157480313
21
-0.9457441338582677
0
LINE
8
BLACK
6
CONTINUOUS
10
1.6394290157480313
20
-0.9457441338582677
11
1.6388883858267715
21
-0.9459510236220472
0
LINE
8
BLACK
6
CONTINUOUS
10
1.6388883858267715
20
-0.9459510236220472
11
1.6387825590551182
21
-0.9459585039370079
0
LINE
8
BLACK
6
CONTINUOUS
10
1.6387825590551182
20
-0.9459585039370079
11
1.6386845669291339
21
-0.9459991338582677
0
LINE
8
BLACK
6
CONTINUOUS
10
1.6386845669291339
20
-0.9459991338582677
11
1.6381085039370078
21
-0.9460558661417323
0
LINE
8
BLACK
6
CONTINUOUS
10
1.6381085039370078
20
-0.9460558661417323
11
1.6343589763779527
21
-0.9460558661417323
0
LINE
8
BLACK
6
CONTINUOUS
10
1.6343589763779527
20
-0.9460558661417323
11
1.6337829133858268
21
-0.9459991338582677
0
LINE
8
BLACK
6
CONTINUOUS
10
1.6337829133858268
20
-0.9459991338582677
11
1.6336849212598425
21
-0.9459585433070866
0
LINE
8
BLACK
6
CONTINUOUS
10
1.6336849212598425
20
-0.9459585433070866
11
1.6335790551181102
21
-0.9459510236220472
0
LINE
8
BLACK
6
CONTINUOUS
10
1.6335790551181102
20
-0.9459510236220472
11
1.6330384645669291
21
-0.9457441338582677
0
LINE
8
BLACK
6
CONTINUOUS
10
1.6330384645669291
20
-0.9457441338582677
11
1.629288937007874
21
-0.9438693700787402
0
LINE
8
BLACK
6
CONTINUOUS
10
1.629288937007874
20
-0.9438693700787402
11
1.6290409055118109
21
-0.9437132677165354
0
LINE
8
BLACK
6
CONTINUOUS
10
1.6290409055118109
20
-0.9437132677165354
11
1.6289689763779527
21
-0.9436834645669291
0
LINE
8
BLACK
6
CONTINUOUS
10
1.6289689763779527
20
-0.9436834645669291
11
1.6288879921259842
21
-0.9436170078740157
0
LINE
8
BLACK
6
CONTINUOUS
10
1.6288879921259842
20
-0.9436170078740157
11
1.6287990551181102
21
-0.9435610236220472
0
LINE
8
BLACK
6
CONTINUOUS
10
1.6287990551181102
20
-0.9435610236220472
11
1.6287478346456692
21
-0.943501968503937
0
LINE
8
BLACK
6
CONTINUOUS
10
1.6287478346456692
20
-0.943501968503937
11
1.6285214960629921
21
-0.9433162204724409
0
LINE
8
BLACK
6
CONTINUOUS
10
1.6285214960629921
20
-0.9433162204724409
11
1.6266467322834646
21
-0.9414414173228346
0
LINE
8
BLACK
6
CONTINUOUS
10
1.6266467322834646
20
-0.9414414173228346
11
1.6264609842519684
21
-0.9412150787401574
0
LINE
8
BLACK
6
CONTINUOUS
10
1.6264609842519684
20
-0.9412150787401574
11
1.6264020078740158
21
-0.941163937007874
0
LINE
8
BLACK
6
CONTINUOUS
10
1.6264020078740158
20
-0.941163937007874
11
1.6263460236220473
21
-0.941075
0
LINE
8
BLACK
6
CONTINUOUS
10
1.6263460236220473
20
-0.941075
11
1.6262795275590551
21
-0.9409939763779528
0
LINE
8
BLACK
6
CONTINUOUS
10
1.6262795275590551
20
-0.9409939763779528
11
1.62624968503937
21
-0.9409219291338582
0
LINE
8
BLACK
6
CONTINUOUS
10
1.62624968503937
20
-0.9409219291338582
11
1.6260936614173227
21
-0.9406740551181102
0
LINE
8
BLACK
6
CONTINUOUS
10
1.6260936614173227
20
-0.9406740551181102
11
1.6242188976377951
21
-0.9369245275590551
0
LINE
8
BLACK
6
CONTINUOUS
10
1.6242188976377951
20
-0.9369245275590551
11
1.6242027559055117
21
-0.9368824015748032
0
LINE
8
BLACK
6
CONTINUOUS
10
1.6242027559055117
20
-0.9368824015748032
11
1.6241900787401575
21
-0.9368652755905511
0
LINE
8
BLACK
6
CONTINUOUS
10
1.6241900787401575
20
-0.9368652755905511
11
1.624103622047244
21
-0.9366233070866141
0
LINE
8
BLACK
6
CONTINUOUS
10
1.624103622047244
20
-0.9366233070866141
11
1.6240120078740157
21
-0.9363838976377953
0
LINE
8
BLACK
6
CONTINUOUS
10
1.6240120078740157
20
-0.9363838976377953
11
1.6240104724409448
21
-0.9363626377952756
0
LINE
8
BLACK
6
CONTINUOUS
10
1.6240104724409448
20
-0.9363626377952756
11
1.6239953149606299
21
-0.9363201574803149
0
LINE
8
BLACK
6
CONTINUOUS
10
1.6239953149606299
20
-0.9363201574803149
11
1.6221205511811023
21
-0.9288211023622047
0
LINE
8
BLACK
6
CONTINUOUS
10
1.6221205511811023
20
-0.9288211023622047
11
1.622105748031496
21
-0.9287212204724409
0
LINE
8
BLACK
6
CONTINUOUS
10
1.622105748031496
20
-0.9287212204724409
11
1.6220891338582677
21
-0.9286810236220472
0
LINE
8
BLACK
6
CONTINUOUS
10
1.6220891338582677
20
-0.9286810236220472
11
1.6220677559055117
21
-0.9284639763779527
0
LINE
8
BLACK
6
CONTINUOUS
10
1.6220677559055117
20
-0.9284639763779527
11
1.622035905511811
21
-0.9282485039370079
0
LINE
8
BLACK
6
CONTINUOUS
10
1.622035905511811
20
-0.9282485039370079
11
1.6220422834645669
21
-0.9282054724409449
0
LINE
8
BLACK
6
CONTINUOUS
10
1.6220422834645669
20
-0.9282054724409449
11
1.6220324015748031
21
-0.9281049606299212
0
LINE
8
BLACK
6
CONTINUOUS
10
1.6220324015748031
20
-0.9281049606299212
11
1.6220324015748031
21
-0.9187311417322834
0
LINE
8
BLACK
6
CONTINUOUS
10
1.6220324015748031
20
-0.9187311417322834
11
1.6220422834645669
21
-0.9186305905511811
0
LINE
8
BLACK
6
CONTINUOUS
10
1.6220422834645669
20
-0.9186305905511811
11
1.622035905511811
21
-0.9185875984251969
0
LINE
8
BLACK
6
CONTINUOUS
10
1.622035905511811
20
-0.9185875984251969
11
1.6220677559055117
21
-0.9183720866141732
0
LINE
8
BLACK
6
CONTINUOUS
10
1.6220677559055117
20
-0.9183720866141732
11
1.6220891338582677
21
-0.9181550787401574
0
LINE
8
BLACK
6
CONTINUOUS
10
1.6220891338582677
20
-0.9181550787401574
11
1.622105748031496
21
-0.918114842519685
0
LINE
8
BLACK
6
CONTINUOUS
10
1.622105748031496
20
-0.918114842519685
11
1.6221205511811023
21
-0.918015
0
LINE
8
BLACK
6
CONTINUOUS
10
1.6221205511811023
20
-0.918015
11
1.6239953149606299
21
-0.9105159448818897
0
LINE
8
BLACK
6
CONTINUOUS
10
1.6239953149606299
20
-0.9105159448818897
11
1.6240104724409448
21
-0.9104734251968504
0
LINE
8
BLACK
6
CONTINUOUS
10
1.6240104724409448
20
-0.9104734251968504
11
1.6240120078740157
21
-0.9104522047244095
0
LINE
8
BLACK
6
CONTINUOUS
10
1.6240120078740157
20
-0.9104522047244095
11
1.624103622047244
21
-0.9102127559055118
0
LINE
8
BLACK
6
CONTINUOUS
10
1.624103622047244
20
-0.9102127559055118
11
1.6241900787401575
21
-0.9099708267716535
0
LINE
8
BLACK
6
CONTINUOUS
10
1.6241900787401575
20
-0.9099708267716535
11
1.6242027559055117
21
-0.9099536614173228
0
LINE
8
BLACK
6
CONTINUOUS
10
1.6242027559055117
20
-0.9099536614173228
11
1.6242188976377951
21
-0.9099115748031495
0
LINE
8
BLACK
6
CONTINUOUS
10
1.6242188976377951
20
-0.9099115748031495
11
1.6260936614173227
21
-0.9061620472440944
0
LINE
8
BLACK
6
CONTINUOUS
10
1.6260936614173227
20
-0.9061620472440944
11
1.6262497244094487
21
-0.9059140157480314
0
LINE
8
BLACK
6
CONTINUOUS
10
1.6262497244094487
20
-0.9059140157480314
11
1.6262795669291339
21
-0.9058420866141732
0
LINE
8
BLACK
6
CONTINUOUS
10
1.6262795669291339
20
-0.9058420866141732
11
1.6263460236220473
21
-0.9057611023622048
0
LINE
8
BLACK
6
CONTINUOUS
10
1.6263460236220473
20
-0.9057611023622048
11
1.6264020078740158
21
-0.9056721653543307
0
LINE
8
BLACK
6
CONTINUOUS
10
1.6264020078740158
20
-0.9056721653543307
11
1.6264609842519684
21
-0.9056209842519685
0
LINE
8
BLACK
6
CONTINUOUS
10
1.6264609842519684
20
-0.9056209842519685
11
1.6266467716535433
21
-0.9053946456692913
0
LINE
8
BLACK
6
CONTINUOUS
10
1.6266467716535433
20
-0.9053946456692913
11
1.6285215354330709
21
-0.9035198818897637
0
LINE
8
BLACK
6
CONTINUOUS
10
1.6285215354330709
20
-0.9035198818897637
11
1.6287478740157479
21
-0.9033340944881889
0
LINE
8
BLACK
6
CONTINUOUS
10
1.6287478740157479
20
-0.9033340944881889
11
1.6287990551181102
21
-0.9032751181102362
0
LINE
8
BLACK
6
CONTINUOUS
10
1.6287990551181102
20
-0.9032751181102362
11
1.6288879921259842
21
-0.9032191338582677
0
LINE
8
BLACK
6
CONTINUOUS
10
1.6288879921259842
20
-0.9032191338582677
11
1.6289689763779527
21
-0.9031526771653543
0
LINE
8
BLACK
6
CONTINUOUS
10
1.6289689763779527
20
-0.9031526771653543
11
1.6290409055118109
21
-0.9031228346456692
0
LINE
8
BLACK
6
CONTINUOUS
10
1.6290409055118109
20
-0.9031228346456692
11
1.629288937007874
21
-0.9029667716535433
0
LINE
8
BLACK
6
CONTINUOUS
10
1.629288937007874
20
-0.9029667716535433
11
1.6330384645669291
21
-0.9010920078740158
0
LINE
8
BLACK
6
CONTINUOUS
10
1.6330384645669291
20
-0.9010920078740158
11
1.6335790551181102
21
-0.9008851181102362
0
LINE
8
BLACK
6
CONTINUOUS
10
1.6335790551181102
20
-0.9008851181102362
11
1.6336849212598425
21
-0.9008775590551181
0
LINE
8
BLACK
6
CONTINUOUS
10
1.6336849212598425
20
-0.9008775590551181
11
1.6337829133858268
21
-0.9008370078740158
0
LINE
8
BLACK
6
CONTINUOUS
10
1.6337829133858268
20
-0.9008370078740158
11
1.6343589763779527
21
-0.9007802755905512
0
LINE
8
BLACK
6
CONTINUOUS
10
1.6343589763779527
20
-0.9007802755905512
11
1.6381085039370078
21
-0.9007802755905512
0
LINE
8
BLACK
6
CONTINUOUS
10
1.6381085039370078
20
-0.9007802755905512
11
1.6386845669291339
21
-0.9008370078740158
0
LINE
8
BLACK
6
CONTINUOUS
10
1.6323585433070866
20
-0.9080345275590551
11
1.6311614173228346
21
-0.909231653543307
0
LINE
8
BLACK
6
CONTINUOUS
10
1.6311614173228346
20
-0.909231653543307
11
1.6296459055118109
21
-0.9122626377952756
0
LINE
8
BLACK
6
CONTINUOUS
10
1.6296459055118109
20
-0.9122626377952756
11
1.6279379133858267
21
-0.9190946850393701
0
LINE
8
BLACK
6
CONTINUOUS
10
1.6279379133858267
20
-0.9190946850393701
11
1.6279379133858267
21
-0.9277414173228347
0
LINE
8
BLACK
6
CONTINUOUS
10
1.6279379133858267
20
-0.9277414173228347
11
1.6296459055118109
21
-0.9345734645669291
0
LINE
8
BLACK
6
CONTINUOUS
10
1.6296459055118109
20
-0.9345734645669291
11
1.6311614173228346
21
-0.9376044488188976
0
LINE
8
BLACK
6
CONTINUOUS
10
1.6311614173228346
20
-0.9376044488188976
11
1.6323585433070866
21
-0.9388016141732283
0
LINE
8
BLACK
6
CONTINUOUS
10
1.6323585433070866
20
-0.9388016141732283
11
1.6350560236220473
21
-0.9401503543307086
0
LINE
8
BLACK
6
CONTINUOUS
10
1.6350560236220473
20
-0.9401503543307086
11
1.6374114566929134
21
-0.9401503543307086
0
LINE
8
BLACK
6
CONTINUOUS
10
1.6374114566929134
20
-0.9401503543307086
11
1.6401088976377953
21
-0.9388016141732283
0
LINE
8
BLACK
6
CONTINUOUS
10
1.6401088976377953
20
-0.9388016141732283
11
1.6413060236220471
21
-0.9376044488188976
0
LINE
8
BLACK
6
CONTINUOUS
10
1.6413060236220471
20
-0.9376044488188976
11
1.6428215354330709
21
-0.9345734645669291
0
LINE
8
BLACK
6
CONTINUOUS
10
1.6428215354330709
20
-0.9345734645669291
11
1.6445295669291338
21
-0.9277414173228347
0
LINE
8
BLACK
6
CONTINUOUS
10
1.6445295669291338
20
-0.9277414173228347
11
1.6445295669291338
21
-0.9190946850393701
0
LINE
8
BLACK
6
CONTINUOUS
10
1.6445295669291338
20
-0.9190946850393701
11
1.6428215354330709
21
-0.9122626377952756
0
LINE
8
BLACK
6
CONTINUOUS
10
1.6428215354330709
20
-0.9122626377952756
11
1.6413060629921259
21
-0.909231653543307
0
LINE
8
BLACK
6
CONTINUOUS
10
1.6413060629921259
20
-0.909231653543307
11
1.6401089370078741
21
-0.9080345275590551
0
LINE
8
BLACK
6
CONTINUOUS
10
1.6401089370078741
20
-0.9080345275590551
11
1.6374114566929134
21
-0.9066857874015748
0
LINE
8
BLACK
6
CONTINUOUS
10
1.6374114566929134
20
-0.9066857874015748
11
1.6350560236220473
21
-0.9066857874015748
0
LINE
8
BLACK
6
CONTINUOUS
10
1.6350560236220473
20
-0.9066857874015748
11
1.6323585433070866
21
-0.9080345275590551
0
LINE
8
BLACK
6
CONTINUOUS
10
1.7282412598425196
20
-0.7983781889763779
11
1.7293066141732283
21
-0.7994435433070866
0
LINE
8
BLACK
6
CONTINUOUS
10
1.7293066141732283
20
-0.7994435433070866
11
1.7294564566929134
21
-0.8001968503937008
0
LINE
8
BLACK
6
CONTINUOUS
10
1.7294564566929134
20
-0.8001968503937008
11
1.7294564566929134
21
-1.0501968503937007
0
LINE
8
BLACK
6
CONTINUOUS
10
1.7294564566929134
20
-1.0501968503937007
11
1.7293066141732283
21
-1.0509501574803148
0
LINE
8
BLACK
6
CONTINUOUS
10
1.7293066141732283
20
-1.0509501574803148
11
1.7282412598425196
21
-1.0520155118110237
0
LINE
8
BLACK
6
CONTINUOUS
10
1.7282412598425196
20
-1.0520155118110237
11
1.7274879527559055
21
-1.0521653543307086
0
LINE
8
BLACK
6
CONTINUOUS
10
1.7274879527559055
20
-1.0521653543307086
11
1.4774879527559055
21
-1.0521653543307086
0
LINE
8
BLACK
6
CONTINUOUS
10
1.4774879527559055
20
-1.0521653543307086
11
1.4767346456692914
21
-1.0520155118110237
0
LINE
8
BLACK
6
CONTINUOUS
10
1.4767346456692914
20
-1.0520155118110237
11
1.4756692913385827
21
-1.0509501574803148
0
LINE
8
BLACK
6
CONTINUOUS
10
1.4756692913385827
20
-1.0509501574803148
11
1.4755194488188976
21
-1.0501968503937007
0
LINE
8
BLACK
6
CONTINUOUS
10
1.4755194488188976
20
-1.0501968503937007
11
1.4755194488188976
21
-0.8001968503937008
0
LINE
8
BLACK
6
CONTINUOUS
10
1.4755194488188976
20
-0.8001968503937008
11
1.4756692913385827
21
-0.7994435433070866
0
LINE
8
BLACK
6
CONTINUOUS
10
1.4756692913385827
20
-0.7994435433070866
11
1.4767346456692914
21
-0.7983781889763779
0
LINE
8
BLACK
6
CONTINUOUS
10
1.4767346456692914
20
-0.7983781889763779
11
1.4774879527559055
21
-0.7982283464566929
0
LINE
8
BLACK
6
CONTINUOUS
10
1.4774879527559055
20
-0.7982283464566929
11
1.7274879527559055
21
-0.7982283464566929
0
LINE
8
BLACK
6
CONTINUOUS
10
1.7274879527559055
20
-0.7982283464566929
11
1.7282412598425196
21
-0.7983781889763779
0
LINE
8
BLACK
6
CONTINUOUS
10
1.4794564566929134
20
-1.0482283464566928
11
1.5718305511811024
21
-1.0482283464566928
0
LINE
8
BLACK
6
CONTINUOUS
10
1.5718305511811024
20
-1.0482283464566928
11
1.5673385433070866
21
-1.0472030708661417
0
LINE
8
BLACK
6
CONTINUOUS
10
1.5673385433070866
20
-1.0472030708661417
11
1.5538992125984252
21
-1.042500433070866
0
LINE
8
BLACK
6
CONTINUOUS
10
1.5538992125984252
20
-1.042500433070866
11
1.541070905511811
21
-1.0363226771653542
0
LINE
8
BLACK
6
CONTINUOUS
10
1.541070905511811
20
-1.0363226771653542
11
1.5290149212598425
21
-1.028747401574803
0
LINE
8
BLACK
6
CONTINUOUS
10
1.5290149212598425
20
-1.028747401574803
11
1.5178829133858267
21
-1.0198699212598425
0
LINE
8
BLACK
6
CONTINUOUS
10
1.5178829133858267
20
-1.0198699212598425
11
1.5078148818897636
21
-1.0098018897637795
0
LINE
8
BLACK
6
CONTINUOUS
10
1.5078148818897636
20
-1.0098018897637795
11
1.4989374015748032
21
-0.9986698818897638
0
LINE
8
BLACK
6
CONTINUOUS
10
1.4989374015748032
20
-0.9986698818897638
11
1.491362125984252
21
-0.9866138976377953
0
LINE
8
BLACK
6
CONTINUOUS
10
1.491362125984252
20
-0.9866138976377953
11
1.4851843700787402
21
-0.9737855905511811
0
LINE
8
BLACK
6
CONTINUOUS
10
1.4851843700787402
20
-0.9737855905511811
11
1.4804817322834645
21
-0.9603462598425196
0
LINE
8
BLACK
6
CONTINUOUS
10
1.4804817322834645
20
-0.9603462598425196
11
1.4794564566929134
21
-0.9558542125984252
0
LINE
8
BLACK
6
CONTINUOUS
10
1.4794564566929134
20
-0.9558542125984252
11
1.4794564566929134
21
-1.0482283464566928
0
LINE
8
BLACK
6
CONTINUOUS
10
1.7244941732283465
20
-0.9603462598425196
11
1.7197915354330708
21
-0.9737855905511811
0
LINE
8
BLACK
6
CONTINUOUS
10
1.7197915354330708
20
-0.9737855905511811
11
1.713613779527559
21
-0.9866138976377953
0
LINE
8
BLACK
6
CONTINUOUS
10
1.713613779527559
20
-0.9866138976377953
11
1.7060385039370078
21
-0.9986698818897638
0
LINE
8
BLACK
6
CONTINUOUS
10
1.7060385039370078
20
-0.9986698818897638
11
1.6971610236220471
21
-1.0098018897637795
0
LINE
8
BLACK
6
CONTINUOUS
10
1.6971610236220471
20
-1.0098018897637795
11
1.6870929921259843
21
-1.0198699212598425
0
LINE
8
BLACK
6
CONTINUOUS
10
1.6870929921259843
20
-1.0198699212598425
11
1.6759609842519685
21
-1.028747401574803
0
LINE
8
BLACK
6
CONTINUOUS
10
1.6759609842519685
20
-1.028747401574803
11
1.663905
21
-1.0363226771653542
0
LINE
8
BLACK
6
CONTINUOUS
10
1.663905
20
-1.0363226771653542
11
1.6510766929133858
21
-1.042500433070866
0
LINE
8
BLACK
6
CONTINUOUS
10
1.6510766929133858
20
-1.042500433070866
11
1.6376373622047244
21
-1.0472030708661417
0
LINE
8
BLACK
6
CONTINUOUS
10
1.6376373622047244
20
-1.0472030708661417
11
1.6331453543307086
21
-1.0482283464566928
0
LINE
8
BLACK
6
CONTINUOUS
10
1.6331453543307086
20
-1.0482283464566928
11
1.7255194488188976
21
-1.0482283464566928
0
LINE
8
BLACK
6
CONTINUOUS
10
1.7255194488188976
20
-1.0482283464566928
11
1.7255194488188976
21
-0.9558542125984252
0
LINE
8
BLACK
6
CONTINUOUS
10
1.7255194488188976
20
-0.9558542125984252
11
1.7244941732283465
21
-0.9603462598425196
0
LINE
8
BLACK
6
CONTINUOUS
10
1.5818469291338582
20
-0.8037125590551181
11
1.5683748031496063
21
-0.8067874803149606
0
LINE
8
BLACK
6
CONTINUOUS
10
1.5683748031496063
20
-0.8067874803149606
11
1.555331653543307
21
-0.8113514566929134
0
LINE
8
BLACK
6
CONTINUOUS
10
1.555331653543307
20
-0.8113514566929134
11
1.5428815354330709
21
-0.817347125984252
0
LINE
8
BLACK
6
CONTINUOUS
10
1.5428815354330709
20
-0.817347125984252
11
1.5311809842519686
21
-0.8246990551181103
0
LINE
8
BLACK
6
CONTINUOUS
10
1.5311809842519686
20
-0.8246990551181103
11
1.5203771653543308
21
-0.833314842519685
0
LINE
8
BLACK
6
CONTINUOUS
10
1.5203771653543308
20
-0.833314842519685
11
1.5106059448818898
21
-0.843086062992126
0
LINE
8
BLACK
6
CONTINUOUS
10
1.5106059448818898
20
-0.843086062992126
11
1.5019901574803149
21
-0.8538898818897638
0
LINE
8
BLACK
6
CONTINUOUS
10
1.5019901574803149
20
-0.8538898818897638
11
1.4946382283464568
21
-0.8655904330708661
0
LINE
8
BLACK
6
CONTINUOUS
10
1.4946382283464568
20
-0.8655904330708661
11
1.488642559055118
21
-0.8780405511811024
0
LINE
8
BLACK
6
CONTINUOUS
10
1.488642559055118
20
-0.8780405511811024
11
1.4840785826771654
21
-0.8910837007874015
0
LINE
8
BLACK
6
CONTINUOUS
10
1.4840785826771654
20
-0.8910837007874015
11
1.4810036614173228
21
-0.9045558267716535
0
LINE
8
BLACK
6
CONTINUOUS
10
1.4810036614173228
20
-0.9045558267716535
11
1.4794564566929134
21
-0.9182875590551181
0
LINE
8
BLACK
6
CONTINUOUS
10
1.4794564566929134
20
-0.9182875590551181
11
1.4794564566929134
21
-0.9321061417322835
0
LINE
8
BLACK
6
CONTINUOUS
10
1.4794564566929134
20
-0.9321061417322835
11
1.4810036614173228
21
-0.945837874015748
0
LINE
8
BLACK
6
CONTINUOUS
10
1.4810036614173228
20
-0.945837874015748
11
1.4840785826771654
21
-0.95931
0
LINE
8
BLACK
6
CONTINUOUS
10
1.4840785826771654
20
-0.95931
11
1.488642559055118
21
-0.9723531496062991
0
LINE
8
BLACK
6
CONTINUOUS
10
1.488642559055118
20
-0.9723531496062991
11
1.4946382283464568
21
-0.9848032677165354
0
LINE
8
BLACK
6
CONTINUOUS
10
1.4946382283464568
20
-0.9848032677165354
11
1.5019901574803149
21
-0.9965038188976377
0
LINE
8
BLACK
6
CONTINUOUS
10
1.5019901574803149
20
-0.9965038188976377
11
1.5106059448818898
21
-1.0073076377952757
0
LINE
8
BLACK
6
CONTINUOUS
10
1.5106059448818898
20
-1.0073076377952757
11
1.5203771653543308
21
-1.0170788582677166
0
LINE
8
BLACK
6
CONTINUOUS
10
1.5203771653543308
20
-1.0170788582677166
11
1.5311809842519686
21
-1.0256946456692912
0
LINE
8
BLACK
6
CONTINUOUS
10
1.5311809842519686
20
-1.0256946456692912
11
1.5428815354330709
21
-1.0330465748031497
0
LINE
8
BLACK
6
CONTINUOUS
10
1.5428815354330709
20
-1.0330465748031497
11
1.555331653543307
21
-1.0390422440944882
0
LINE
8
BLACK
6
CONTINUOUS
10
1.555331653543307
20
-1.0390422440944882
11
1.5683748031496063
21
-1.043606220472441
0
LINE
8
BLACK
6
CONTINUOUS
10
1.5683748031496063
20
-1.043606220472441
11
1.5818469291338582
21
-1.0466811417322834
0
LINE
8
BLACK
6
CONTINUOUS
10
1.5818469291338582
20
-1.0466811417322834
11
1.5955786614173229
21
-1.0482283464566928
0
LINE
8
BLACK
6
CONTINUOUS
10
1.5955786614173229
20
-1.0482283464566928
11
1.6093972440944881
21
-1.0482283464566928
0
LINE
8
BLACK
6
CONTINUOUS
10
1.6093972440944881
20
-1.0482283464566928
11
1.6231289763779526
21
-1.0466811417322834
0
LINE
8
BLACK
6
CONTINUOUS
10
1.6231289763779526
20
-1.0466811417322834
11
1.6366011023622047
21
-1.043606220472441
0
LINE
8
BLACK
6
CONTINUOUS
10
1.6366011023622047
20
-1.043606220472441
11
1.6496442519685039
21
-1.0390422440944882
0
LINE
8
BLACK
6
CONTINUOUS
10
1.6496442519685039
20
-1.0390422440944882
11
1.6620943700787401
21
-1.0330465748031497
0
LINE
8
BLACK
6
CONTINUOUS
10
1.6620943700787401
20
-1.0330465748031497
11
1.6737949212598424
21
-1.0256946456692912
0
LINE
8
BLACK
6
CONTINUOUS
10
1.6737949212598424
20
-1.0256946456692912
11
1.6845987401574802
21
-1.0170788582677166
0
LINE
8
BLACK
6
CONTINUOUS
10
1.6845987401574802
20
-1.0170788582677166
11
1.6943699606299212
21
-1.0073076377952757
0
LINE
8
BLACK
6
CONTINUOUS
10
1.6943699606299212
20
-1.0073076377952757
11
1.702985748031496
21
-0.9965038188976377
0
LINE
8
BLACK
6
CONTINUOUS
10
1.702985748031496
20
-0.9965038188976377
11
1.7103376771653542
21
-0.9848032677165354
0
LINE
8
BLACK
6
CONTINUOUS
10
1.7103376771653542
20
-0.9848032677165354
11
1.7163333464566928
21
-0.9723531496062991
0
LINE
8
BLACK
6
CONTINUOUS
10
1.7163333464566928
20
-0.9723531496062991
11
1.7208973228346456
21
-0.95931
0
LINE
8
BLACK
6
CONTINUOUS
10
1.7208973228346456
20
-0.95931
11
1.7239722440944882
21
-0.945837874015748
0
LINE
8
BLACK
6
CONTINUOUS
10
1.7239722440944882
20
-0.945837874015748
11
1.7255194488188976
21
-0.9321061417322835
0
LINE
8
BLACK
6
CONTINUOUS
10
1.7255194488188976
20
-0.9321061417322835
11
1.7255194488188976
21
-0.9182875590551181
0
LINE
8
BLACK
6
CONTINUOUS
10
1.7255194488188976
20
-0.9182875590551181
11
1.7239722440944882
21
-0.9045558267716535
0
LINE
8
BLACK
6
CONTINUOUS
10
1.7239722440944882
20
-0.9045558267716535
11
1.7208973228346456
21
-0.8910837007874015
0
LINE
8
BLACK
6
CONTINUOUS
10
1.7208973228346456
20
-0.8910837007874015
11
1.7163333464566928
21
-0.8780405511811024
0
LINE
8
BLACK
6
CONTINUOUS
10
1.7163333464566928
20
-0.8780405511811024
11
1.7103376771653542
21
-0.8655904330708661
0
LINE
8
BLACK
6
CONTINUOUS
10
1.7103376771653542
20
-0.8655904330708661
11
1.702985748031496
21
-0.8538898818897638
0
LINE
8
BLACK
6
CONTINUOUS
10
1.702985748031496
20
-0.8538898818897638
11
1.6943699606299212
21
-0.843086062992126
0
LINE
8
BLACK
6
CONTINUOUS
10
1.6943699606299212
20
-0.843086062992126
11
1.6845987401574802
21
-0.833314842519685
0
LINE
8
BLACK
6
CONTINUOUS
10
1.6845987401574802
20
-0.833314842519685
11
1.6737949212598424
21
-0.8246990551181103
0
LINE
8
BLACK
6
CONTINUOUS
10
1.6737949212598424
20
-0.8246990551181103
11
1.6620943700787401
21
-0.817347125984252
0
LINE
8
BLACK
6
CONTINUOUS
10
1.6620943700787401
20
-0.817347125984252
11
1.6496442519685039
21
-0.8113514566929134
0
LINE
8
BLACK
6
CONTINUOUS
10
1.6496442519685039
20
-0.8113514566929134
11
1.6366011023622047
21
-0.8067874803149606
0
LINE
8
BLACK
6
CONTINUOUS
10
1.6366011023622047
20
-0.8067874803149606
11
1.6231289763779526
21
-0.8037125590551181
0
LINE
8
BLACK
6
CONTINUOUS
10
1.6231289763779526
20
-0.8037125590551181
11
1.6093972440944881
21
-0.8021653543307087
0
LINE
8
BLACK
6
CONTINUOUS
10
1.6093972440944881
20
-0.8021653543307087
11
1.5955786614173229
21
-0.8021653543307087
0
LINE
8
BLACK
6
CONTINUOUS
10
1.5955786614173229
20
-0.8021653543307087
11
1.5818469291338582
21
-0.8037125590551181
0
LINE
8
BLACK
6
CONTINUOUS
10
1.4794564566929134
20
-0.8021653543307087
11
1.4794564566929134
21
-0.8945394488188976
0
LINE
8
BLACK
6
CONTINUOUS
10
1.4794564566929134
20
-0.8945394488188976
11
1.4804817322834645
21
-0.8900474409448819
0
LINE
8
BLACK
6
CONTINUOUS
10
1.4804817322834645
20
-0.8900474409448819
11
1.4851843700787402
21
-0.8766081102362204
0
LINE
8
BLACK
6
CONTINUOUS
10
1.4851843700787402
20
-0.8766081102362204
11
1.491362125984252
21
-0.8637798031496062
0
LINE
8
BLACK
6
CONTINUOUS
10
1.491362125984252
20
-0.8637798031496062
11
1.4989374015748032
21
-0.8517238188976378
0
LINE
8
BLACK
6
CONTINUOUS
10
1.4989374015748032
20
-0.8517238188976378
11
1.5078148818897636
21
-0.840591811023622
0
LINE
8
BLACK
6
CONTINUOUS
10
1.5078148818897636
20
-0.840591811023622
11
1.5178829133858267
21
-0.8305237795275591
0
LINE
8
BLACK
6
CONTINUOUS
10
1.5178829133858267
20
-0.8305237795275591
11
1.5290149212598425
21
-0.8216462992125984
0
LINE
8
BLACK
6
CONTINUOUS
10
1.5290149212598425
20
-0.8216462992125984
11
1.541070905511811
21
-0.8140710236220472
0
LINE
8
BLACK
6
CONTINUOUS
10
1.541070905511811
20
-0.8140710236220472
11
1.5538992125984252
21
-0.8078932677165355
0
LINE
8
BLACK
6
CONTINUOUS
10
1.5538992125984252
20
-0.8078932677165355
11
1.5673385433070866
21
-0.8031906299212598
0
LINE
8
BLACK
6
CONTINUOUS
10
1.5673385433070866
20
-0.8031906299212598
11
1.5718305511811024
21
-0.8021653543307087
0
LINE
8
BLACK
6
CONTINUOUS
10
1.5718305511811024
20
-0.8021653543307087
11
1.4794564566929134
21
-0.8021653543307087
0
LINE
8
BLACK
6
CONTINUOUS
10
1.6331453543307086
20
-0.8021653543307087
11
1.6376373622047244
21
-0.8031906299212598
0
LINE
8
BLACK
6
CONTINUOUS
10
1.6376373622047244
20
-0.8031906299212598
11
1.6510766929133858
21
-0.8078932677165355
0
LINE
8
BLACK
6
CONTINUOUS
10
1.6510766929133858
20
-0.8078932677165355
11
1.663905
21
-0.8140710236220472
0
LINE
8
BLACK
6
CONTINUOUS
10
1.663905
20
-0.8140710236220472
11
1.6759609842519685
21
-0.8216462992125984
0
LINE
8
BLACK
6
CONTINUOUS
10
1.6759609842519685
20
-0.8216462992125984
11
1.6870929921259843
21
-0.8305237795275591
0
LINE
8
BLACK
6
CONTINUOUS
10
1.6870929921259843
20
-0.8305237795275591
11
1.6971610236220471
21
-0.840591811023622
0
LINE
8
BLACK
6
CONTINUOUS
10
1.6971610236220471
20
-0.840591811023622
11
1.7060385039370078
21
-0.8517238188976378
0
LINE
8
BLACK
6
CONTINUOUS
10
1.7060385039370078
20
-0.8517238188976378
11
1.713613779527559
21
-0.8637798031496062
0
LINE
8
BLACK
6
CONTINUOUS
10
1.713613779527559
20
-0.8637798031496062
11
1.7197915354330708
21
-0.8766081102362204
0
LINE
8
BLACK
6
CONTINUOUS
10
1.7197915354330708
20
-0.8766081102362204
11
1.7244941732283465
21
-0.8900474409448819
0
LINE
8
BLACK
6
CONTINUOUS
10
1.7244941732283465
20
-0.8900474409448819
11
1.7255194488188976
21
-0.8945394488188976
0
LINE
8
BLACK
6
CONTINUOUS
10
1.7255194488188976
20
-0.8945394488188976
11
1.7255194488188976
21
-0.8021653543307087
0
LINE
8
BLACK
6
CONTINUOUS
10
1.7255194488188976
20
-0.8021653543307087
11
1.6331453543307086
21
-0.8021653543307087
0
CIRCLE
8
BLACK
10
0.45
20
-1.918503937007874
40
0.0068897637795276
0
CIRCLE
8
BLACK
10
0.45
20
-2.0185039370078739
40
0.0068897637795276
0
CIRCLE
8
BLACK
10
0.35
20
-1.918503937007874
40
0.0068897637795276
0
CIRCLE
8
BLACK
10
0.35
20
-2.0185039370078739
40
0.0068897637795276
0
CIRCLE
8
BLACK
10
0.25
20
-1.918503937007874
40
0.0068897637795276
0
CIRCLE
8
BLACK
10
0.25
20
-2.0185039370078739
40
0.0068897637795276
0
CIRCLE
8
BLACK
10
0.15
20
-1.918503937007874
40
0.0068897637795276
0
CIRCLE
8
BLACK
10
0.15
20
-2.0185039370078739
40
0.0068897637795276
0
CIRCLE
8
BLACK
10
0.05
20
-1.918503937007874
40
0.0068897637795276
0
CIRCLE
8
BLACK
10
0.05
20
-2.0185039370078739
40
0.0068897637795276
0
CIRCLE
8
BLACK
10
-0.05
20
-1.918503937007874
40
0.0068897637795276
0
CIRCLE
8
BLACK
10
-0.05
20
-2.0185039370078739
40
0.0068897637795276
0
CIRCLE
8
BLACK
10
-0.15
20
-1.918503937007874
40
0.0068897637795276
0
CIRCLE
8
BLACK
10
-0.15
20
-2.0185039370078739
40
0.0068897637795276
0
CIRCLE
8
BLACK
10
-0.25
20
-1.918503937007874
40
0.0068897637795276
0
CIRCLE
8
BLACK
10
-0.25
20
-2.0185039370078739
40
0.0068897637795276
0
CIRCLE
8
BLACK
10
-0.35
20
-1.918503937007874
40
0.0068897637795276
0
CIRCLE
8
BLACK
10
-0.35
20
-2.0185039370078739
40
0.0068897637795276
0
CIRCLE
8
BLACK
10
-0.45
20
-1.918503937007874
40
0.0068897637795276
0
CIRCLE
8
BLACK
10
-0.45
20
-2.0185039370078739
40
0.0068897637795276
0
CIRCLE
8
BLACK
10
1.6024879527559055
20
-0.9251968503937008
40
0.0068897637795276
0
CIRCLE
8
BLACK
10
1.5024879527559054
20
-0.8251968503937007
40
0.0068897637795276
0
CIRCLE
8
BLACK
10
1.5024879527559054
20
-1.0251968503937008
40
0.0068897637795276
0
CIRCLE
8
BLACK
10
1.7024879527559054
20
-0.8251968503937007
40
0.0068897637795276
0
CIRCLE
8
BLACK
10
1.7024879527559054
20
-1.0251968503937008
40
0.0068897637795276
0
CIRCLE
8
BLACK
10
0.7858267716535433
20
-1.9196850393700786
40
0.0068897637795276
0
CIRCLE
8
BLACK
10
0.8858267716535433
20
-1.9196850393700786
40
0.0068897637795276
0
CIRCLE
8
BLACK
10
0.7858267716535433
20
-2.0196850393700787
40
0.0068897637795276
0
CIRCLE
8
BLACK
10
0.8858267716535433
20
-2.0196850393700787
40
0.0068897637795276
0
CIRCLE
8
BLACK
10
0.7858267716535433
20
-2.1196850393700788
40
0.0068897637795276
0
CIRCLE
8
BLACK
10
0.8858267716535433
20
-2.1196850393700788
40
0.0068897637795276
0
CIRCLE
8
BLACK
10
-1.6024879527559055
20
-0.9251968503937008
40
0.0068897637795276
0
CIRCLE
8
BLACK
10
-1.7024879527559054
20
-0.8251968503937007
40
0.0068897637795276
0
CIRCLE
8
BLACK
10
-1.7024879527559054
20
-1.0251968503937008
40
0.0068897637795276
0
CIRCLE
8
BLACK
10
-1.5024879527559054
20
-0.8251968503937007
40
0.0068897637795276
0
CIRCLE
8
BLACK
10
-1.5024879527559054
20
-1.0251968503937008
40
0.0068897637795276
0
CIRCLE
8
BLACK
10
0.
20
1.8503937007874016
40
0.0068897637795276
0
CIRCLE
8
BLACK
10
-0.1
20
1.9503937007874015
40
0.0068897637795276
0
CIRCLE
8
BLACK
10
-0.1
20
1.7503937007874015
40
0.0068897637795276
0
CIRCLE
8
BLACK
10
0.1
20
1.9503937007874015
40
0.0068897637795276
0
CIRCLE
8
BLACK
10
0.1
20
1.7503937007874015
40
0.0068897637795276
0
CIRCLE
8
BLACK
10
0.45
20
-1.918503937007874
40
0.0068897637795276
0
CIRCLE
8
BLACK
10
0.45
20
-2.0185039370078739
40
0.0068897637795276
0
CIRCLE
8
BLACK
10
0.35
20
-1.918503937007874
40
0.0068897637795276
0
CIRCLE
8
BLACK
10
0.35
20
-2.0185039370078739
40
0.0068897637795276
0
CIRCLE
8
BLACK
10
0.25
20
-1.918503937007874
40
0.0068897637795276
0
CIRCLE
8
BLACK
10
0.25
20
-2.0185039370078739
40
0.0068897637795276
0
CIRCLE
8
BLACK
10
0.15
20
-1.918503937007874
40
0.0068897637795276
0
CIRCLE
8
BLACK
10
0.15
20
-2.0185039370078739
40
0.0068897637795276
0
CIRCLE
8
BLACK
10
0.05
20
-1.918503937007874
40
0.0068897637795276
0
CIRCLE
8
BLACK
10
0.05
20
-2.0185039370078739
40
0.0068897637795276
0
CIRCLE
8
BLACK
10
-0.05
20
-1.918503937007874
40
0.0068897637795276
0
CIRCLE
8
BLACK
10
-0.05
20
-2.0185039370078739
40
0.0068897637795276
0
CIRCLE
8
BLACK
10
-0.15
20
-1.918503937007874
40
0.0068897637795276
0
CIRCLE
8
BLACK
10
-0.15
20
-2.0185039370078739
40
0.0068897637795276
0
CIRCLE
8
BLACK
10
-0.25
20
-1.918503937007874
40
0.0068897637795276
0
CIRCLE
8
BLACK
10
-0.25
20
-2.0185039370078739
40
0.0068897637795276
0
CIRCLE
8
BLACK
10
-0.35
20
-1.918503937007874
40
0.0068897637795276
0
CIRCLE
8
BLACK
10
-0.35
20
-2.0185039370078739
40
0.0068897637795276
0
CIRCLE
8
BLACK
10
-0.45
20
-1.918503937007874
40
0.0068897637795276
0
CIRCLE
8
BLACK
10
-0.45
20
-2.0185039370078739
40
0.0068897637795276
0
CIRCLE
8
BLACK
10
1.6024879527559055
20
-0.9251968503937008
40
0.0068897637795276
0
CIRCLE
8
BLACK
10
1.5024879527559054
20
-0.8251968503937007
40
0.0068897637795276
0
CIRCLE
8
BLACK
10
1.5024879527559054
20
-1.0251968503937008
40
0.0068897637795276
0
CIRCLE
8
BLACK
10
1.7024879527559054
20
-0.8251968503937007
40
0.0068897637795276
0
CIRCLE
8
BLACK
10
1.7024879527559054
20
-1.0251968503937008
40
0.0068897637795276
0
CIRCLE
8
BLACK
10
0.7858267716535433
20
-1.9196850393700786
40
0.0068897637795276
0
CIRCLE
8
BLACK
10
0.8858267716535433
20
-1.9196850393700786
40
0.0068897637795276
0
CIRCLE
8
BLACK
10
0.7858267716535433
20
-2.0196850393700787
40
0.0068897637795276
0
CIRCLE
8
BLACK
10
0.8858267716535433
20
-2.0196850393700787
40
0.0068897637795276
0
CIRCLE
8
BLACK
10
0.7858267716535433
20
-2.1196850393700788
40
0.0068897637795276
0
CIRCLE
8
BLACK
10
0.8858267716535433
20
-2.1196850393700788
40
0.0068897637795276
0
CIRCLE
8
BLACK
10
-1.6024879527559055
20
-0.9251968503937008
40
0.0068897637795276
0
CIRCLE
8
BLACK
10
-1.7024879527559054
20
-0.8251968503937007
40
0.0068897637795276
0
CIRCLE
8
BLACK
10
-1.7024879527559054
20
-1.0251968503937008
40
0.0068897637795276
0
CIRCLE
8
BLACK
10
-1.5024879527559054
20
-0.8251968503937007
40
0.0068897637795276
0
CIRCLE
8
BLACK
10
-1.5024879527559054
20
-1.0251968503937008
40
0.0068897637795276
0
CIRCLE
8
BLACK
10
0.
20
1.8503937007874016
40
0.0068897637795276
0
CIRCLE
8
BLACK
10
-0.1
20
1.9503937007874015
40
0.0068897637795276
0
CIRCLE
8
BLACK
10
-0.1
20
1.7503937007874015
40
0.0068897637795276
0
CIRCLE
8
BLACK
10
0.1
20
1.9503937007874015
40
0.0068897637795276
0
CIRCLE
8
BLACK
10
0.1
20
1.7503937007874015
40
0.0068897637795276
  0
ENDSEC
  0
EOF
