  0
SECTION
  2
HEADER
  9
$ANGBASE
  50
0.0
  9
$ANGDIR
  70
1
  9
$MEASUREMENT
  70
0
  0
ENDSEC
  0
SECTION
  2
TABLES
  0
TABLE
  2
LTYPE
  70
4
  0
LTYPE
  5
40F
  2
CONTINUOUS
  70
0
  3
Solid line
  72
65
  73
0
  40
0.0
  0
LTYPE
  5
410
  2
DASHDOT
 70
0
  3
Dash Dot ____ _ ____ _
 72
65
 73
4
 40
2.0
 49
1.25
 49
-0.25
 49
0.25
 49
-0.25
  0
LTYPE
  5
411
  2
DASHED
 70
0
  3
Dashed __ __ __ __ __
 72
65
 73
2
 40
0.75
 49
0.5
 49
-0.25
  0
LTYPE
  5
43B
  2
DOTTED
 70
0
  3
Dotted .  .  .  .
 72
65
 73
2
 40
0.2
 49
0.0
 49
-0.2
  0
ENDTAB
  0
TABLE
  2
STYLE
  70
4
  0
STYLE
  2
KICAD
  70
0
  40
0
  41
1
  42
1
  50
0
  71
0
  3
isocp.shx
  0
STYLE
  2
KICADB
  70
0
  40
0
  41
1
  42
1
  50
0
  71
0
  3
isocp.shx
  0
STYLE
  2
KICADI
  70
0
  40
0
  41
1
  42
1
  50
15
  71
0
  3
isocp.shx
  0
STYLE
  2
KICADBI
  70
0
  40
0
  41
1
  42
1
  50
15
  71
0
  3
isocp.shx
  0
ENDTAB
  0
TABLE
  2
LAYER
  70
1
  0
LAYER
  2
BLACK
  70
0
  62
7
  6
CONTINUOUS
  0
ENDTAB
  0
ENDSEC
  0
SECTION
  2
ENTITIES
0
LINE
8
BLACK
6
CONTINUOUS
10
0.4565224803149606
20
-1.7714185039370078
11
0.4597156299212598
21
-1.7735520866141732
0
LINE
8
BLACK
6
CONTINUOUS
10
0.4597156299212598
20
-1.7735520866141732
11
0.4618492125984252
21
-1.7767452362204723
0
LINE
8
BLACK
6
CONTINUOUS
10
0.4618492125984252
20
-1.7767452362204723
11
0.4625984251968504
21
-1.780511811023622
0
LINE
8
BLACK
6
CONTINUOUS
10
0.4625984251968504
20
-1.780511811023622
11
0.4625984251968504
21
-1.8179133858267715
0
LINE
8
BLACK
6
CONTINUOUS
10
0.4625984251968504
20
-1.8179133858267715
11
0.4618492125984252
21
-1.8216799606299212
0
LINE
8
BLACK
6
CONTINUOUS
10
0.4618492125984252
20
-1.8216799606299212
11
0.4597156299212598
21
-1.8248731102362203
0
LINE
8
BLACK
6
CONTINUOUS
10
0.4597156299212598
20
-1.8248731102362203
11
0.4565224803149606
21
-1.8270066929133857
0
LINE
8
BLACK
6
CONTINUOUS
10
0.4565224803149606
20
-1.8270066929133857
11
0.452755905511811
21
-1.8277559055118109
0
LINE
8
BLACK
6
CONTINUOUS
10
0.452755905511811
20
-1.8277559055118109
11
0.4330708661417323
21
-1.8277559055118109
0
LINE
8
BLACK
6
CONTINUOUS
10
0.4330708661417323
20
-1.8277559055118109
11
0.4293042913385827
21
-1.8270066929133857
0
LINE
8
BLACK
6
CONTINUOUS
10
0.4293042913385827
20
-1.8270066929133857
11
0.4261111417322834
21
-1.8248731102362203
0
LINE
8
BLACK
6
CONTINUOUS
10
0.4261111417322834
20
-1.8248731102362203
11
0.4239775590551181
21
-1.8216799606299212
0
LINE
8
BLACK
6
CONTINUOUS
10
0.4239775590551181
20
-1.8216799606299212
11
0.4232283464566929
21
-1.8179133858267715
0
LINE
8
BLACK
6
CONTINUOUS
10
0.4232283464566929
20
-1.8179133858267715
11
0.4232283464566929
21
-1.780511811023622
0
LINE
8
BLACK
6
CONTINUOUS
10
0.4232283464566929
20
-1.780511811023622
11
0.4239775590551181
21
-1.7767452362204723
0
LINE
8
BLACK
6
CONTINUOUS
10
0.4239775590551181
20
-1.7767452362204723
11
0.4261111417322834
21
-1.7735520866141732
0
LINE
8
BLACK
6
CONTINUOUS
10
0.4261111417322834
20
-1.7735520866141732
11
0.4293042913385827
21
-1.7714185039370078
0
LINE
8
BLACK
6
CONTINUOUS
10
0.4293042913385827
20
-1.7714185039370078
11
0.4330708661417323
21
-1.7706692913385826
0
LINE
8
BLACK
6
CONTINUOUS
10
0.4330708661417323
20
-1.7706692913385826
11
0.452755905511811
21
-1.7706692913385826
0
LINE
8
BLACK
6
CONTINUOUS
10
0.452755905511811
20
-1.7706692913385826
11
0.4565224803149606
21
-1.7714185039370078
0
LINE
8
BLACK
6
CONTINUOUS
10
0.5313256299212599
20
-1.7714185039370078
11
0.534518779527559
21
-1.7735520866141732
0
LINE
8
BLACK
6
CONTINUOUS
10
0.534518779527559
20
-1.7735520866141732
11
0.5366523622047243
21
-1.7767452362204723
0
LINE
8
BLACK
6
CONTINUOUS
10
0.5366523622047243
20
-1.7767452362204723
11
0.5374015748031495
21
-1.780511811023622
0
LINE
8
BLACK
6
CONTINUOUS
10
0.5374015748031495
20
-1.780511811023622
11
0.5374015748031495
21
-1.8179133858267715
0
LINE
8
BLACK
6
CONTINUOUS
10
0.5374015748031495
20
-1.8179133858267715
11
0.5366523622047243
21
-1.8216799606299212
0
LINE
8
BLACK
6
CONTINUOUS
10
0.5366523622047243
20
-1.8216799606299212
11
0.534518779527559
21
-1.8248731102362203
0
LINE
8
BLACK
6
CONTINUOUS
10
0.534518779527559
20
-1.8248731102362203
11
0.5313256299212599
21
-1.8270066929133857
0
LINE
8
BLACK
6
CONTINUOUS
10
0.5313256299212599
20
-1.8270066929133857
11
0.5275590551181102
21
-1.8277559055118109
0
LINE
8
BLACK
6
CONTINUOUS
10
0.5275590551181102
20
-1.8277559055118109
11
0.5078740157480315
21
-1.8277559055118109
0
LINE
8
BLACK
6
CONTINUOUS
10
0.5078740157480315
20
-1.8277559055118109
11
0.5041074409448819
21
-1.8270066929133857
0
LINE
8
BLACK
6
CONTINUOUS
10
0.5041074409448819
20
-1.8270066929133857
11
0.5009142913385827
21
-1.8248731102362203
0
LINE
8
BLACK
6
CONTINUOUS
10
0.5009142913385827
20
-1.8248731102362203
11
0.4987807086614173
21
-1.8216799606299212
0
LINE
8
BLACK
6
CONTINUOUS
10
0.4987807086614173
20
-1.8216799606299212
11
0.4980314960629921
21
-1.8179133858267715
0
LINE
8
BLACK
6
CONTINUOUS
10
0.4980314960629921
20
-1.8179133858267715
11
0.4980314960629921
21
-1.780511811023622
0
LINE
8
BLACK
6
CONTINUOUS
10
0.4980314960629921
20
-1.780511811023622
11
0.4987807086614173
21
-1.7767452362204723
0
LINE
8
BLACK
6
CONTINUOUS
10
0.4987807086614173
20
-1.7767452362204723
11
0.5009142913385827
21
-1.7735520866141732
0
LINE
8
BLACK
6
CONTINUOUS
10
0.5009142913385827
20
-1.7735520866141732
11
0.5041074409448819
21
-1.7714185039370078
0
LINE
8
BLACK
6
CONTINUOUS
10
0.5041074409448819
20
-1.7714185039370078
11
0.5078740157480315
21
-1.7706692913385826
0
LINE
8
BLACK
6
CONTINUOUS
10
0.5078740157480315
20
-1.7706692913385826
11
0.5275590551181102
21
-1.7706692913385826
0
LINE
8
BLACK
6
CONTINUOUS
10
0.5275590551181102
20
-1.7706692913385826
11
0.5313256299212599
21
-1.7714185039370078
0
LINE
8
BLACK
6
CONTINUOUS
10
-0.3249735826771654
20
-1.752225590551181
11
-0.3217804330708661
21
-1.7543591732283463
0
LINE
8
BLACK
6
CONTINUOUS
10
-0.3217804330708661
20
-1.7543591732283463
11
-0.3196468503937008
21
-1.7575523228346457
0
LINE
8
BLACK
6
CONTINUOUS
10
-0.3196468503937008
20
-1.7575523228346457
11
-0.3188976377952756
21
-1.7613188976377951
0
LINE
8
BLACK
6
CONTINUOUS
10
-0.3188976377952756
20
-1.7613188976377951
11
-0.3188976377952756
21
-1.781988188976378
0
LINE
8
BLACK
6
CONTINUOUS
10
-0.3188976377952756
20
-1.781988188976378
11
-0.3196468503937008
21
-1.7857547637795275
0
LINE
8
BLACK
6
CONTINUOUS
10
-0.3196468503937008
20
-1.7857547637795275
11
-0.3217804330708661
21
-1.7889479133858268
0
LINE
8
BLACK
6
CONTINUOUS
10
-0.3217804330708661
20
-1.7889479133858268
11
-0.3249735826771654
21
-1.7910814960629922
0
LINE
8
BLACK
6
CONTINUOUS
10
-0.3249735826771654
20
-1.7910814960629922
11
-0.3287401574803149
21
-1.7918307086614174
0
LINE
8
BLACK
6
CONTINUOUS
10
-0.3287401574803149
20
-1.7918307086614174
11
-0.3641732283464567
21
-1.7918307086614174
0
LINE
8
BLACK
6
CONTINUOUS
10
-0.3641732283464567
20
-1.7918307086614174
11
-0.3679398031496063
21
-1.7910814960629922
0
LINE
8
BLACK
6
CONTINUOUS
10
-0.3679398031496063
20
-1.7910814960629922
11
-0.3711329527559055
21
-1.7889479133858268
0
LINE
8
BLACK
6
CONTINUOUS
10
-0.3711329527559055
20
-1.7889479133858268
11
-0.3732665354330709
21
-1.7857547637795275
0
LINE
8
BLACK
6
CONTINUOUS
10
-0.3732665354330709
20
-1.7857547637795275
11
-0.3740157480314961
21
-1.781988188976378
0
LINE
8
BLACK
6
CONTINUOUS
10
-0.3740157480314961
20
-1.781988188976378
11
-0.3740157480314961
21
-1.7613188976377951
0
LINE
8
BLACK
6
CONTINUOUS
10
-0.3740157480314961
20
-1.7613188976377951
11
-0.3732665354330709
21
-1.7575523228346457
0
LINE
8
BLACK
6
CONTINUOUS
10
-0.3732665354330709
20
-1.7575523228346457
11
-0.3711329527559055
21
-1.7543591732283463
0
LINE
8
BLACK
6
CONTINUOUS
10
-0.3711329527559055
20
-1.7543591732283463
11
-0.3679398031496063
21
-1.752225590551181
0
LINE
8
BLACK
6
CONTINUOUS
10
-0.3679398031496063
20
-1.752225590551181
11
-0.3641732283464567
21
-1.7514763779527558
0
LINE
8
BLACK
6
CONTINUOUS
10
-0.3641732283464567
20
-1.7514763779527558
11
-0.3287401574803149
21
-1.7514763779527558
0
LINE
8
BLACK
6
CONTINUOUS
10
-0.3287401574803149
20
-1.7514763779527558
11
-0.3249735826771654
21
-1.752225590551181
0
LINE
8
BLACK
6
CONTINUOUS
10
-0.2265483858267716
20
-1.752225590551181
11
-0.2233552362204724
21
-1.7543591732283463
0
LINE
8
BLACK
6
CONTINUOUS
10
-0.2233552362204724
20
-1.7543591732283463
11
-0.2212216535433071
21
-1.7575523228346457
0
LINE
8
BLACK
6
CONTINUOUS
10
-0.2212216535433071
20
-1.7575523228346457
11
-0.2204724409448819
21
-1.7613188976377951
0
LINE
8
BLACK
6
CONTINUOUS
10
-0.2204724409448819
20
-1.7613188976377951
11
-0.2204724409448819
21
-1.781988188976378
0
LINE
8
BLACK
6
CONTINUOUS
10
-0.2204724409448819
20
-1.781988188976378
11
-0.2212216535433071
21
-1.7857547637795275
0
LINE
8
BLACK
6
CONTINUOUS
10
-0.2212216535433071
20
-1.7857547637795275
11
-0.2233552362204724
21
-1.7889479133858268
0
LINE
8
BLACK
6
CONTINUOUS
10
-0.2233552362204724
20
-1.7889479133858268
11
-0.2265483858267716
21
-1.7910814960629922
0
LINE
8
BLACK
6
CONTINUOUS
10
-0.2265483858267716
20
-1.7910814960629922
11
-0.2303149606299213
21
-1.7918307086614174
0
LINE
8
BLACK
6
CONTINUOUS
10
-0.2303149606299213
20
-1.7918307086614174
11
-0.265748031496063
21
-1.7918307086614174
0
LINE
8
BLACK
6
CONTINUOUS
10
-0.265748031496063
20
-1.7918307086614174
11
-0.2695146062992126
21
-1.7910814960629922
0
LINE
8
BLACK
6
CONTINUOUS
10
-0.2695146062992126
20
-1.7910814960629922
11
-0.2727077559055118
21
-1.7889479133858268
0
LINE
8
BLACK
6
CONTINUOUS
10
-0.2727077559055118
20
-1.7889479133858268
11
-0.2748413385826772
21
-1.7857547637795275
0
LINE
8
BLACK
6
CONTINUOUS
10
-0.2748413385826772
20
-1.7857547637795275
11
-0.2755905511811024
21
-1.781988188976378
0
LINE
8
BLACK
6
CONTINUOUS
10
-0.2755905511811024
20
-1.781988188976378
11
-0.2755905511811024
21
-1.7613188976377951
0
LINE
8
BLACK
6
CONTINUOUS
10
-0.2755905511811024
20
-1.7613188976377951
11
-0.2748413385826772
21
-1.7575523228346457
0
LINE
8
BLACK
6
CONTINUOUS
10
-0.2748413385826772
20
-1.7575523228346457
11
-0.2727077559055118
21
-1.7543591732283463
0
LINE
8
BLACK
6
CONTINUOUS
10
-0.2727077559055118
20
-1.7543591732283463
11
-0.2695146062992126
21
-1.752225590551181
0
LINE
8
BLACK
6
CONTINUOUS
10
-0.2695146062992126
20
-1.752225590551181
11
-0.265748031496063
21
-1.7514763779527558
0
LINE
8
BLACK
6
CONTINUOUS
10
-0.265748031496063
20
-1.7514763779527558
11
-0.2303149606299213
21
-1.7514763779527558
0
LINE
8
BLACK
6
CONTINUOUS
10
-0.2303149606299213
20
-1.7514763779527558
11
-0.2265483858267716
21
-1.752225590551181
0
LINE
8
BLACK
6
CONTINUOUS
10
-0.1281231889763779
20
-1.752225590551181
11
-0.1249300393700787
21
-1.7543591732283463
0
LINE
8
BLACK
6
CONTINUOUS
10
-0.1249300393700787
20
-1.7543591732283463
11
-0.1227964566929134
21
-1.7575523228346457
0
LINE
8
BLACK
6
CONTINUOUS
10
-0.1227964566929134
20
-1.7575523228346457
11
-0.1220472440944882
21
-1.7613188976377951
0
LINE
8
BLACK
6
CONTINUOUS
10
-0.1220472440944882
20
-1.7613188976377951
11
-0.1220472440944882
21
-1.781988188976378
0
LINE
8
BLACK
6
CONTINUOUS
10
-0.1220472440944882
20
-1.781988188976378
11
-0.1227964566929134
21
-1.7857547637795275
0
LINE
8
BLACK
6
CONTINUOUS
10
-0.1227964566929134
20
-1.7857547637795275
11
-0.1249300393700787
21
-1.7889479133858268
0
LINE
8
BLACK
6
CONTINUOUS
10
-0.1249300393700787
20
-1.7889479133858268
11
-0.1281231889763779
21
-1.7910814960629922
0
LINE
8
BLACK
6
CONTINUOUS
10
-0.1281231889763779
20
-1.7910814960629922
11
-0.1318897637795275
21
-1.7918307086614174
0
LINE
8
BLACK
6
CONTINUOUS
10
-0.1318897637795275
20
-1.7918307086614174
11
-0.1673228346456693
21
-1.7918307086614174
0
LINE
8
BLACK
6
CONTINUOUS
10
-0.1673228346456693
20
-1.7918307086614174
11
-0.1710894094488189
21
-1.7910814960629922
0
LINE
8
BLACK
6
CONTINUOUS
10
-0.1710894094488189
20
-1.7910814960629922
11
-0.1742825590551181
21
-1.7889479133858268
0
LINE
8
BLACK
6
CONTINUOUS
10
-0.1742825590551181
20
-1.7889479133858268
11
-0.1764161417322835
21
-1.7857547637795275
0
LINE
8
BLACK
6
CONTINUOUS
10
-0.1764161417322835
20
-1.7857547637795275
11
-0.1771653543307087
21
-1.781988188976378
0
LINE
8
BLACK
6
CONTINUOUS
10
-0.1771653543307087
20
-1.781988188976378
11
-0.1771653543307087
21
-1.7613188976377951
0
LINE
8
BLACK
6
CONTINUOUS
10
-0.1771653543307087
20
-1.7613188976377951
11
-0.1764161417322835
21
-1.7575523228346457
0
LINE
8
BLACK
6
CONTINUOUS
10
-0.1764161417322835
20
-1.7575523228346457
11
-0.1742825590551181
21
-1.7543591732283463
0
LINE
8
BLACK
6
CONTINUOUS
10
-0.1742825590551181
20
-1.7543591732283463
11
-0.1710894094488189
21
-1.752225590551181
0
LINE
8
BLACK
6
CONTINUOUS
10
-0.1710894094488189
20
-1.752225590551181
11
-0.1673228346456693
21
-1.7514763779527558
0
LINE
8
BLACK
6
CONTINUOUS
10
-0.1673228346456693
20
-1.7514763779527558
11
-0.1318897637795275
21
-1.7514763779527558
0
LINE
8
BLACK
6
CONTINUOUS
10
-0.1318897637795275
20
-1.7514763779527558
11
-0.1281231889763779
21
-1.752225590551181
0
LINE
8
BLACK
6
CONTINUOUS
10
-0.0218239763779528
20
-1.752225590551181
11
-0.0186308267716535
21
-1.7543591732283463
0
LINE
8
BLACK
6
CONTINUOUS
10
-0.0186308267716535
20
-1.7543591732283463
11
-0.0164972440944882
21
-1.7575523228346457
0
LINE
8
BLACK
6
CONTINUOUS
10
-0.0164972440944882
20
-1.7575523228346457
11
-0.015748031496063
21
-1.7613188976377951
0
LINE
8
BLACK
6
CONTINUOUS
10
-0.015748031496063
20
-1.7613188976377951
11
-0.015748031496063
21
-1.781988188976378
0
LINE
8
BLACK
6
CONTINUOUS
10
-0.015748031496063
20
-1.781988188976378
11
-0.0164972440944882
21
-1.7857547637795275
0
LINE
8
BLACK
6
CONTINUOUS
10
-0.0164972440944882
20
-1.7857547637795275
11
-0.0186308267716535
21
-1.7889479133858268
0
LINE
8
BLACK
6
CONTINUOUS
10
-0.0186308267716535
20
-1.7889479133858268
11
-0.0218239763779528
21
-1.7910814960629922
0
LINE
8
BLACK
6
CONTINUOUS
10
-0.0218239763779528
20
-1.7910814960629922
11
-0.0255905511811024
21
-1.7918307086614174
0
LINE
8
BLACK
6
CONTINUOUS
10
-0.0255905511811024
20
-1.7918307086614174
11
-0.0610236220472441
21
-1.7918307086614174
0
LINE
8
BLACK
6
CONTINUOUS
10
-0.0610236220472441
20
-1.7918307086614174
11
-0.0647901968503937
21
-1.7910814960629922
0
LINE
8
BLACK
6
CONTINUOUS
10
-0.0647901968503937
20
-1.7910814960629922
11
-0.0679833464566929
21
-1.7889479133858268
0
LINE
8
BLACK
6
CONTINUOUS
10
-0.0679833464566929
20
-1.7889479133858268
11
-0.0701169291338583
21
-1.7857547637795275
0
LINE
8
BLACK
6
CONTINUOUS
10
-0.0701169291338583
20
-1.7857547637795275
11
-0.0708661417322835
21
-1.781988188976378
0
LINE
8
BLACK
6
CONTINUOUS
10
-0.0708661417322835
20
-1.781988188976378
11
-0.0708661417322835
21
-1.7613188976377951
0
LINE
8
BLACK
6
CONTINUOUS
10
-0.0708661417322835
20
-1.7613188976377951
11
-0.0701169291338583
21
-1.7575523228346457
0
LINE
8
BLACK
6
CONTINUOUS
10
-0.0701169291338583
20
-1.7575523228346457
11
-0.0679833464566929
21
-1.7543591732283463
0
LINE
8
BLACK
6
CONTINUOUS
10
-0.0679833464566929
20
-1.7543591732283463
11
-0.0647901968503937
21
-1.752225590551181
0
LINE
8
BLACK
6
CONTINUOUS
10
-0.0647901968503937
20
-1.752225590551181
11
-0.0610236220472441
21
-1.7514763779527558
0
LINE
8
BLACK
6
CONTINUOUS
10
-0.0610236220472441
20
-1.7514763779527558
11
-0.0255905511811024
21
-1.7514763779527558
0
LINE
8
BLACK
6
CONTINUOUS
10
-0.0255905511811024
20
-1.7514763779527558
11
-0.0218239763779528
21
-1.752225590551181
0
LINE
8
BLACK
6
CONTINUOUS
10
0.4604594881889764
20
-1.6808673228346456
11
0.4636526377952756
21
-1.6830009055118109
0
LINE
8
BLACK
6
CONTINUOUS
10
0.4636526377952756
20
-1.6830009055118109
11
0.4657862204724409
21
-1.6861940551181103
0
LINE
8
BLACK
6
CONTINUOUS
10
0.4657862204724409
20
-1.6861940551181103
11
0.4665354330708661
21
-1.6899606299212597
0
LINE
8
BLACK
6
CONTINUOUS
10
0.4665354330708661
20
-1.6899606299212597
11
0.4665354330708661
21
-1.7273622047244095
0
LINE
8
BLACK
6
CONTINUOUS
10
0.4665354330708661
20
-1.7273622047244095
11
0.4657862204724409
21
-1.7311287795275589
0
LINE
8
BLACK
6
CONTINUOUS
10
0.4657862204724409
20
-1.7311287795275589
11
0.4636526377952756
21
-1.7343219291338583
0
LINE
8
BLACK
6
CONTINUOUS
10
0.4636526377952756
20
-1.7343219291338583
11
0.4604594881889764
21
-1.7364555118110236
0
LINE
8
BLACK
6
CONTINUOUS
10
0.4604594881889764
20
-1.7364555118110236
11
0.4566929133858267
21
-1.7372047244094488
0
LINE
8
BLACK
6
CONTINUOUS
10
0.4566929133858267
20
-1.7372047244094488
11
0.437007874015748
21
-1.7372047244094488
0
LINE
8
BLACK
6
CONTINUOUS
10
0.437007874015748
20
-1.7372047244094488
11
0.4332412992125984
21
-1.7364555118110236
0
LINE
8
BLACK
6
CONTINUOUS
10
0.4332412992125984
20
-1.7364555118110236
11
0.4300481496062992
21
-1.7343219291338583
0
LINE
8
BLACK
6
CONTINUOUS
10
0.4300481496062992
20
-1.7343219291338583
11
0.4279145669291338
21
-1.7311287795275589
0
LINE
8
BLACK
6
CONTINUOUS
10
0.4279145669291338
20
-1.7311287795275589
11
0.4271653543307086
21
-1.7273622047244095
0
LINE
8
BLACK
6
CONTINUOUS
10
0.4271653543307086
20
-1.7273622047244095
11
0.4271653543307086
21
-1.6899606299212597
0
LINE
8
BLACK
6
CONTINUOUS
10
0.4271653543307086
20
-1.6899606299212597
11
0.4279145669291338
21
-1.6861940551181103
0
LINE
8
BLACK
6
CONTINUOUS
10
0.4279145669291338
20
-1.6861940551181103
11
0.4300481496062992
21
-1.6830009055118109
0
LINE
8
BLACK
6
CONTINUOUS
10
0.4300481496062992
20
-1.6830009055118109
11
0.4332412992125984
21
-1.6808673228346456
0
LINE
8
BLACK
6
CONTINUOUS
10
0.4332412992125984
20
-1.6808673228346456
11
0.437007874015748
21
-1.6801181102362204
0
LINE
8
BLACK
6
CONTINUOUS
10
0.437007874015748
20
-1.6801181102362204
11
0.4566929133858267
21
-1.6801181102362204
0
LINE
8
BLACK
6
CONTINUOUS
10
0.4566929133858267
20
-1.6801181102362204
11
0.4604594881889764
21
-1.6808673228346456
0
LINE
8
BLACK
6
CONTINUOUS
10
0.5352626377952756
20
-1.6808673228346456
11
0.5384557874015747
21
-1.6830009055118109
0
LINE
8
BLACK
6
CONTINUOUS
10
0.5384557874015747
20
-1.6830009055118109
11
0.5405893700787402
21
-1.6861940551181103
0
LINE
8
BLACK
6
CONTINUOUS
10
0.5405893700787402
20
-1.6861940551181103
11
0.5413385826771654
21
-1.6899606299212597
0
LINE
8
BLACK
6
CONTINUOUS
10
0.5413385826771654
20
-1.6899606299212597
11
0.5413385826771654
21
-1.7273622047244095
0
LINE
8
BLACK
6
CONTINUOUS
10
0.5413385826771654
20
-1.7273622047244095
11
0.5405893700787402
21
-1.7311287795275589
0
LINE
8
BLACK
6
CONTINUOUS
10
0.5405893700787402
20
-1.7311287795275589
11
0.5384557874015747
21
-1.7343219291338583
0
LINE
8
BLACK
6
CONTINUOUS
10
0.5384557874015747
20
-1.7343219291338583
11
0.5352626377952756
21
-1.7364555118110236
0
LINE
8
BLACK
6
CONTINUOUS
10
0.5352626377952756
20
-1.7364555118110236
11
0.5314960629921259
21
-1.7372047244094488
0
LINE
8
BLACK
6
CONTINUOUS
10
0.5314960629921259
20
-1.7372047244094488
11
0.5118110236220472
21
-1.7372047244094488
0
LINE
8
BLACK
6
CONTINUOUS
10
0.5118110236220472
20
-1.7372047244094488
11
0.5080444488188977
21
-1.7364555118110236
0
LINE
8
BLACK
6
CONTINUOUS
10
0.5080444488188977
20
-1.7364555118110236
11
0.5048512992125984
21
-1.7343219291338583
0
LINE
8
BLACK
6
CONTINUOUS
10
0.5048512992125984
20
-1.7343219291338583
11
0.5027177165354331
21
-1.7311287795275589
0
LINE
8
BLACK
6
CONTINUOUS
10
0.5027177165354331
20
-1.7311287795275589
11
0.5019685039370079
21
-1.7273622047244095
0
LINE
8
BLACK
6
CONTINUOUS
10
0.5019685039370079
20
-1.7273622047244095
11
0.5019685039370079
21
-1.6899606299212597
0
LINE
8
BLACK
6
CONTINUOUS
10
0.5019685039370079
20
-1.6899606299212597
11
0.5027177165354331
21
-1.6861940551181103
0
LINE
8
BLACK
6
CONTINUOUS
10
0.5027177165354331
20
-1.6861940551181103
11
0.5048512992125984
21
-1.6830009055118109
0
LINE
8
BLACK
6
CONTINUOUS
10
0.5048512992125984
20
-1.6830009055118109
11
0.5080444488188977
21
-1.6808673228346456
0
LINE
8
BLACK
6
CONTINUOUS
10
0.5080444488188977
20
-1.6808673228346456
11
0.5118110236220472
21
-1.6801181102362204
0
LINE
8
BLACK
6
CONTINUOUS
10
0.5118110236220472
20
-1.6801181102362204
11
0.5314960629921259
21
-1.6801181102362204
0
LINE
8
BLACK
6
CONTINUOUS
10
0.5314960629921259
20
-1.6801181102362204
11
0.5352626377952756
21
-1.6808673228346456
0
LINE
8
BLACK
6
CONTINUOUS
10
-0.3249735826771654
20
-1.6803751968503937
11
-0.3217804330708661
21
-1.6825087795275591
0
LINE
8
BLACK
6
CONTINUOUS
10
-0.3217804330708661
20
-1.6825087795275591
11
-0.3196468503937008
21
-1.6857019291338582
0
LINE
8
BLACK
6
CONTINUOUS
10
-0.3196468503937008
20
-1.6857019291338582
11
-0.3188976377952756
21
-1.6894685039370079
0
LINE
8
BLACK
6
CONTINUOUS
10
-0.3188976377952756
20
-1.6894685039370079
11
-0.3188976377952756
21
-1.7101377952755905
0
LINE
8
BLACK
6
CONTINUOUS
10
-0.3188976377952756
20
-1.7101377952755905
11
-0.3196468503937008
21
-1.7139043700787402
0
LINE
8
BLACK
6
CONTINUOUS
10
-0.3196468503937008
20
-1.7139043700787402
11
-0.3217804330708661
21
-1.7170975196850393
0
LINE
8
BLACK
6
CONTINUOUS
10
-0.3217804330708661
20
-1.7170975196850393
11
-0.3249735826771654
21
-1.7192311023622047
0
LINE
8
BLACK
6
CONTINUOUS
10
-0.3249735826771654
20
-1.7192311023622047
11
-0.3287401574803149
21
-1.7199803149606299
0
LINE
8
BLACK
6
CONTINUOUS
10
-0.3287401574803149
20
-1.7199803149606299
11
-0.3641732283464567
21
-1.7199803149606299
0
LINE
8
BLACK
6
CONTINUOUS
10
-0.3641732283464567
20
-1.7199803149606299
11
-0.3679398031496063
21
-1.7192311023622047
0
LINE
8
BLACK
6
CONTINUOUS
10
-0.3679398031496063
20
-1.7192311023622047
11
-0.3711329527559055
21
-1.7170975196850393
0
LINE
8
BLACK
6
CONTINUOUS
10
-0.3711329527559055
20
-1.7170975196850393
11
-0.3732665354330709
21
-1.7139043700787402
0
LINE
8
BLACK
6
CONTINUOUS
10
-0.3732665354330709
20
-1.7139043700787402
11
-0.3740157480314961
21
-1.7101377952755905
0
LINE
8
BLACK
6
CONTINUOUS
10
-0.3740157480314961
20
-1.7101377952755905
11
-0.3740157480314961
21
-1.6894685039370079
0
LINE
8
BLACK
6
CONTINUOUS
10
-0.3740157480314961
20
-1.6894685039370079
11
-0.3732665354330709
21
-1.6857019291338582
0
LINE
8
BLACK
6
CONTINUOUS
10
-0.3732665354330709
20
-1.6857019291338582
11
-0.3711329527559055
21
-1.6825087795275591
0
LINE
8
BLACK
6
CONTINUOUS
10
-0.3711329527559055
20
-1.6825087795275591
11
-0.3679398031496063
21
-1.6803751968503937
0
LINE
8
BLACK
6
CONTINUOUS
10
-0.3679398031496063
20
-1.6803751968503937
11
-0.3641732283464567
21
-1.6796259842519685
0
LINE
8
BLACK
6
CONTINUOUS
10
-0.3641732283464567
20
-1.6796259842519685
11
-0.3287401574803149
21
-1.6796259842519685
0
LINE
8
BLACK
6
CONTINUOUS
10
-0.3287401574803149
20
-1.6796259842519685
11
-0.3249735826771654
21
-1.6803751968503937
0
LINE
8
BLACK
6
CONTINUOUS
10
-0.2265483858267716
20
-1.6803751968503937
11
-0.2233552362204724
21
-1.6825087795275591
0
LINE
8
BLACK
6
CONTINUOUS
10
-0.2233552362204724
20
-1.6825087795275591
11
-0.2212216535433071
21
-1.6857019291338582
0
LINE
8
BLACK
6
CONTINUOUS
10
-0.2212216535433071
20
-1.6857019291338582
11
-0.2204724409448819
21
-1.6894685039370079
0
LINE
8
BLACK
6
CONTINUOUS
10
-0.2204724409448819
20
-1.6894685039370079
11
-0.2204724409448819
21
-1.7101377952755905
0
LINE
8
BLACK
6
CONTINUOUS
10
-0.2204724409448819
20
-1.7101377952755905
11
-0.2212216535433071
21
-1.7139043700787402
0
LINE
8
BLACK
6
CONTINUOUS
10
-0.2212216535433071
20
-1.7139043700787402
11
-0.2233552362204724
21
-1.7170975196850393
0
LINE
8
BLACK
6
CONTINUOUS
10
-0.2233552362204724
20
-1.7170975196850393
11
-0.2265483858267716
21
-1.7192311023622047
0
LINE
8
BLACK
6
CONTINUOUS
10
-0.2265483858267716
20
-1.7192311023622047
11
-0.2303149606299213
21
-1.7199803149606299
0
LINE
8
BLACK
6
CONTINUOUS
10
-0.2303149606299213
20
-1.7199803149606299
11
-0.265748031496063
21
-1.7199803149606299
0
LINE
8
BLACK
6
CONTINUOUS
10
-0.265748031496063
20
-1.7199803149606299
11
-0.2695146062992126
21
-1.7192311023622047
0
LINE
8
BLACK
6
CONTINUOUS
10
-0.2695146062992126
20
-1.7192311023622047
11
-0.2727077559055118
21
-1.7170975196850393
0
LINE
8
BLACK
6
CONTINUOUS
10
-0.2727077559055118
20
-1.7170975196850393
11
-0.2748413385826772
21
-1.7139043700787402
0
LINE
8
BLACK
6
CONTINUOUS
10
-0.2748413385826772
20
-1.7139043700787402
11
-0.2755905511811024
21
-1.7101377952755905
0
LINE
8
BLACK
6
CONTINUOUS
10
-0.2755905511811024
20
-1.7101377952755905
11
-0.2755905511811024
21
-1.6894685039370079
0
LINE
8
BLACK
6
CONTINUOUS
10
-0.2755905511811024
20
-1.6894685039370079
11
-0.2748413385826772
21
-1.6857019291338582
0
LINE
8
BLACK
6
CONTINUOUS
10
-0.2748413385826772
20
-1.6857019291338582
11
-0.2727077559055118
21
-1.6825087795275591
0
LINE
8
BLACK
6
CONTINUOUS
10
-0.2727077559055118
20
-1.6825087795275591
11
-0.2695146062992126
21
-1.6803751968503937
0
LINE
8
BLACK
6
CONTINUOUS
10
-0.2695146062992126
20
-1.6803751968503937
11
-0.265748031496063
21
-1.6796259842519685
0
LINE
8
BLACK
6
CONTINUOUS
10
-0.265748031496063
20
-1.6796259842519685
11
-0.2303149606299213
21
-1.6796259842519685
0
LINE
8
BLACK
6
CONTINUOUS
10
-0.2303149606299213
20
-1.6796259842519685
11
-0.2265483858267716
21
-1.6803751968503937
0
LINE
8
BLACK
6
CONTINUOUS
10
-0.1281231889763779
20
-1.6803751968503937
11
-0.1249300393700787
21
-1.6825087795275591
0
LINE
8
BLACK
6
CONTINUOUS
10
-0.1249300393700787
20
-1.6825087795275591
11
-0.1227964566929134
21
-1.6857019291338582
0
LINE
8
BLACK
6
CONTINUOUS
10
-0.1227964566929134
20
-1.6857019291338582
11
-0.1220472440944882
21
-1.6894685039370079
0
LINE
8
BLACK
6
CONTINUOUS
10
-0.1220472440944882
20
-1.6894685039370079
11
-0.1220472440944882
21
-1.7101377952755905
0
LINE
8
BLACK
6
CONTINUOUS
10
-0.1220472440944882
20
-1.7101377952755905
11
-0.1227964566929134
21
-1.7139043700787402
0
LINE
8
BLACK
6
CONTINUOUS
10
-0.1227964566929134
20
-1.7139043700787402
11
-0.1249300393700787
21
-1.7170975196850393
0
LINE
8
BLACK
6
CONTINUOUS
10
-0.1249300393700787
20
-1.7170975196850393
11
-0.1281231889763779
21
-1.7192311023622047
0
LINE
8
BLACK
6
CONTINUOUS
10
-0.1281231889763779
20
-1.7192311023622047
11
-0.1318897637795275
21
-1.7199803149606299
0
LINE
8
BLACK
6
CONTINUOUS
10
-0.1318897637795275
20
-1.7199803149606299
11
-0.1673228346456693
21
-1.7199803149606299
0
LINE
8
BLACK
6
CONTINUOUS
10
-0.1673228346456693
20
-1.7199803149606299
11
-0.1710894094488189
21
-1.7192311023622047
0
LINE
8
BLACK
6
CONTINUOUS
10
-0.1710894094488189
20
-1.7192311023622047
11
-0.1742825590551181
21
-1.7170975196850393
0
LINE
8
BLACK
6
CONTINUOUS
10
-0.1742825590551181
20
-1.7170975196850393
11
-0.1764161417322835
21
-1.7139043700787402
0
LINE
8
BLACK
6
CONTINUOUS
10
-0.1764161417322835
20
-1.7139043700787402
11
-0.1771653543307087
21
-1.7101377952755905
0
LINE
8
BLACK
6
CONTINUOUS
10
-0.1771653543307087
20
-1.7101377952755905
11
-0.1771653543307087
21
-1.6894685039370079
0
LINE
8
BLACK
6
CONTINUOUS
10
-0.1771653543307087
20
-1.6894685039370079
11
-0.1764161417322835
21
-1.6857019291338582
0
LINE
8
BLACK
6
CONTINUOUS
10
-0.1764161417322835
20
-1.6857019291338582
11
-0.1742825590551181
21
-1.6825087795275591
0
LINE
8
BLACK
6
CONTINUOUS
10
-0.1742825590551181
20
-1.6825087795275591
11
-0.1710894094488189
21
-1.6803751968503937
0
LINE
8
BLACK
6
CONTINUOUS
10
-0.1710894094488189
20
-1.6803751968503937
11
-0.1673228346456693
21
-1.6796259842519685
0
LINE
8
BLACK
6
CONTINUOUS
10
-0.1673228346456693
20
-1.6796259842519685
11
-0.1318897637795275
21
-1.6796259842519685
0
LINE
8
BLACK
6
CONTINUOUS
10
-0.1318897637795275
20
-1.6796259842519685
11
-0.1281231889763779
21
-1.6803751968503937
0
LINE
8
BLACK
6
CONTINUOUS
10
-0.0218239763779528
20
-1.6803751968503937
11
-0.0186308267716535
21
-1.6825087795275591
0
LINE
8
BLACK
6
CONTINUOUS
10
-0.0186308267716535
20
-1.6825087795275591
11
-0.0164972440944882
21
-1.6857019291338582
0
LINE
8
BLACK
6
CONTINUOUS
10
-0.0164972440944882
20
-1.6857019291338582
11
-0.015748031496063
21
-1.6894685039370079
0
LINE
8
BLACK
6
CONTINUOUS
10
-0.015748031496063
20
-1.6894685039370079
11
-0.015748031496063
21
-1.7101377952755905
0
LINE
8
BLACK
6
CONTINUOUS
10
-0.015748031496063
20
-1.7101377952755905
11
-0.0164972440944882
21
-1.7139043700787402
0
LINE
8
BLACK
6
CONTINUOUS
10
-0.0164972440944882
20
-1.7139043700787402
11
-0.0186308267716535
21
-1.7170975196850393
0
LINE
8
BLACK
6
CONTINUOUS
10
-0.0186308267716535
20
-1.7170975196850393
11
-0.0218239763779528
21
-1.7192311023622047
0
LINE
8
BLACK
6
CONTINUOUS
10
-0.0218239763779528
20
-1.7192311023622047
11
-0.0255905511811024
21
-1.7199803149606299
0
LINE
8
BLACK
6
CONTINUOUS
10
-0.0255905511811024
20
-1.7199803149606299
11
-0.0610236220472441
21
-1.7199803149606299
0
LINE
8
BLACK
6
CONTINUOUS
10
-0.0610236220472441
20
-1.7199803149606299
11
-0.0647901968503937
21
-1.7192311023622047
0
LINE
8
BLACK
6
CONTINUOUS
10
-0.0647901968503937
20
-1.7192311023622047
11
-0.0679833464566929
21
-1.7170975196850393
0
LINE
8
BLACK
6
CONTINUOUS
10
-0.0679833464566929
20
-1.7170975196850393
11
-0.0701169291338583
21
-1.7139043700787402
0
LINE
8
BLACK
6
CONTINUOUS
10
-0.0701169291338583
20
-1.7139043700787402
11
-0.0708661417322835
21
-1.7101377952755905
0
LINE
8
BLACK
6
CONTINUOUS
10
-0.0708661417322835
20
-1.7101377952755905
11
-0.0708661417322835
21
-1.6894685039370079
0
LINE
8
BLACK
6
CONTINUOUS
10
-0.0708661417322835
20
-1.6894685039370079
11
-0.0701169291338583
21
-1.6857019291338582
0
LINE
8
BLACK
6
CONTINUOUS
10
-0.0701169291338583
20
-1.6857019291338582
11
-0.0679833464566929
21
-1.6825087795275591
0
LINE
8
BLACK
6
CONTINUOUS
10
-0.0679833464566929
20
-1.6825087795275591
11
-0.0647901968503937
21
-1.6803751968503937
0
LINE
8
BLACK
6
CONTINUOUS
10
-0.0647901968503937
20
-1.6803751968503937
11
-0.0610236220472441
21
-1.6796259842519685
0
LINE
8
BLACK
6
CONTINUOUS
10
-0.0610236220472441
20
-1.6796259842519685
11
-0.0255905511811024
21
-1.6796259842519685
0
LINE
8
BLACK
6
CONTINUOUS
10
-0.0255905511811024
20
-1.6796259842519685
11
-0.0218239763779528
21
-1.6803751968503937
0
LINE
8
BLACK
6
CONTINUOUS
10
0.3285697244094488
20
-1.5735838582677164
11
0.331762874015748
21
-1.5757174409448818
0
LINE
8
BLACK
6
CONTINUOUS
10
0.331762874015748
20
-1.5757174409448818
11
0.3338964566929134
21
-1.5789105905511811
0
LINE
8
BLACK
6
CONTINUOUS
10
0.3338964566929134
20
-1.5789105905511811
11
0.3346456692913386
21
-1.5826771653543306
0
LINE
8
BLACK
6
CONTINUOUS
10
0.3346456692913386
20
-1.5826771653543306
11
0.3346456692913386
21
-1.6299212598425197
0
LINE
8
BLACK
6
CONTINUOUS
10
0.3346456692913386
20
-1.6299212598425197
11
0.3338964566929134
21
-1.6336878346456694
0
LINE
8
BLACK
6
CONTINUOUS
10
0.3338964566929134
20
-1.6336878346456694
11
0.331762874015748
21
-1.6368809842519685
0
LINE
8
BLACK
6
CONTINUOUS
10
0.331762874015748
20
-1.6368809842519685
11
0.3285697244094488
21
-1.6390145669291338
0
LINE
8
BLACK
6
CONTINUOUS
10
0.3285697244094488
20
-1.6390145669291338
11
0.3248031496062992
21
-1.639763779527559
0
LINE
8
BLACK
6
CONTINUOUS
10
0.3248031496062992
20
-1.639763779527559
11
0.2933070866141732
21
-1.639763779527559
0
LINE
8
BLACK
6
CONTINUOUS
10
0.2933070866141732
20
-1.639763779527559
11
0.2895405118110236
21
-1.6390145669291338
0
LINE
8
BLACK
6
CONTINUOUS
10
0.2895405118110236
20
-1.6390145669291338
11
0.2863473622047244
21
-1.6368809842519685
0
LINE
8
BLACK
6
CONTINUOUS
10
0.2863473622047244
20
-1.6368809842519685
11
0.2842137795275591
21
-1.6336878346456694
0
LINE
8
BLACK
6
CONTINUOUS
10
0.2842137795275591
20
-1.6336878346456694
11
0.2834645669291339
21
-1.6299212598425197
0
LINE
8
BLACK
6
CONTINUOUS
10
0.2834645669291339
20
-1.6299212598425197
11
0.2834645669291339
21
-1.5826771653543306
0
LINE
8
BLACK
6
CONTINUOUS
10
0.2834645669291339
20
-1.5826771653543306
11
0.2842137795275591
21
-1.5789105905511811
0
LINE
8
BLACK
6
CONTINUOUS
10
0.2842137795275591
20
-1.5789105905511811
11
0.2863473622047244
21
-1.5757174409448818
0
LINE
8
BLACK
6
CONTINUOUS
10
0.2863473622047244
20
-1.5757174409448818
11
0.2895405118110236
21
-1.5735838582677164
0
LINE
8
BLACK
6
CONTINUOUS
10
0.2895405118110236
20
-1.5735838582677164
11
0.2933070866141732
21
-1.5728346456692912
0
LINE
8
BLACK
6
CONTINUOUS
10
0.2933070866141732
20
-1.5728346456692912
11
0.3248031496062992
21
-1.5728346456692912
0
LINE
8
BLACK
6
CONTINUOUS
10
0.3248031496062992
20
-1.5728346456692912
11
0.3285697244094488
21
-1.5735838582677164
0
LINE
8
BLACK
6
CONTINUOUS
10
0.466365
20
-1.5735838582677164
11
0.4695581496062992
21
-1.5757174409448818
0
LINE
8
BLACK
6
CONTINUOUS
10
0.4695581496062992
20
-1.5757174409448818
11
0.4716917322834646
21
-1.5789105905511811
0
LINE
8
BLACK
6
CONTINUOUS
10
0.4716917322834646
20
-1.5789105905511811
11
0.4724409448818898
21
-1.5826771653543306
0
LINE
8
BLACK
6
CONTINUOUS
10
0.4724409448818898
20
-1.5826771653543306
11
0.4724409448818898
21
-1.6299212598425197
0
LINE
8
BLACK
6
CONTINUOUS
10
0.4724409448818898
20
-1.6299212598425197
11
0.4716917322834646
21
-1.6336878346456694
0
LINE
8
BLACK
6
CONTINUOUS
10
0.4716917322834646
20
-1.6336878346456694
11
0.4695581496062992
21
-1.6368809842519685
0
LINE
8
BLACK
6
CONTINUOUS
10
0.4695581496062992
20
-1.6368809842519685
11
0.466365
21
-1.6390145669291338
0
LINE
8
BLACK
6
CONTINUOUS
10
0.466365
20
-1.6390145669291338
11
0.4625984251968504
21
-1.639763779527559
0
LINE
8
BLACK
6
CONTINUOUS
10
0.4625984251968504
20
-1.639763779527559
11
0.4311023622047244
21
-1.639763779527559
0
LINE
8
BLACK
6
CONTINUOUS
10
0.4311023622047244
20
-1.639763779527559
11
0.4273357874015748
21
-1.6390145669291338
0
LINE
8
BLACK
6
CONTINUOUS
10
0.4273357874015748
20
-1.6390145669291338
11
0.4241426377952756
21
-1.6368809842519685
0
LINE
8
BLACK
6
CONTINUOUS
10
0.4241426377952756
20
-1.6368809842519685
11
0.4220090551181102
21
-1.6336878346456694
0
LINE
8
BLACK
6
CONTINUOUS
10
0.4220090551181102
20
-1.6336878346456694
11
0.421259842519685
21
-1.6299212598425197
0
LINE
8
BLACK
6
CONTINUOUS
10
0.421259842519685
20
-1.6299212598425197
11
0.421259842519685
21
-1.5826771653543306
0
LINE
8
BLACK
6
CONTINUOUS
10
0.421259842519685
20
-1.5826771653543306
11
0.4220090551181102
21
-1.5789105905511811
0
LINE
8
BLACK
6
CONTINUOUS
10
0.4220090551181102
20
-1.5789105905511811
11
0.4241426377952756
21
-1.5757174409448818
0
LINE
8
BLACK
6
CONTINUOUS
10
0.4241426377952756
20
-1.5757174409448818
11
0.4273357874015748
21
-1.5735838582677164
0
LINE
8
BLACK
6
CONTINUOUS
10
0.4273357874015748
20
-1.5735838582677164
11
0.4311023622047244
21
-1.5728346456692912
0
LINE
8
BLACK
6
CONTINUOUS
10
0.4311023622047244
20
-1.5728346456692912
11
0.4625984251968504
21
-1.5728346456692912
0
LINE
8
BLACK
6
CONTINUOUS
10
0.4625984251968504
20
-1.5728346456692912
11
0.466365
21
-1.5735838582677164
0
LINE
8
BLACK
6
CONTINUOUS
10
-1.3740157480314961
20
0.7559055118110236
11
-1.3740157480314961
21
0.7165354330708661
0
LINE
8
BLACK
6
CONTINUOUS
10
-1.3740157480314961
20
0.7165354330708661
11
-1.4645669291338583
21
0.7165354330708661
0
LINE
8
BLACK
6
CONTINUOUS
10
-1.4645669291338583
20
0.7165354330708661
11
-1.5039370078740157
21
0.7165354330708661
0
LINE
8
BLACK
6
CONTINUOUS
10
-1.5039370078740157
20
0.7165354330708661
11
-1.5039370078740157
21
0.7559055118110236
0
LINE
8
BLACK
6
CONTINUOUS
10
-1.5039370078740157
20
0.7559055118110236
11
-1.5039370078740157
21
0.8464566929133858
0
LINE
8
BLACK
6
CONTINUOUS
10
-1.5039370078740157
20
0.8464566929133858
11
-1.4645669291338583
21
0.8464566929133858
0
LINE
8
BLACK
6
CONTINUOUS
10
-1.4645669291338583
20
0.8464566929133858
11
-1.4645669291338583
21
0.7559055118110236
0
LINE
8
BLACK
6
CONTINUOUS
10
-1.4645669291338583
20
0.7559055118110236
11
-1.3740157480314961
21
0.7559055118110236
0
LINE
8
BLACK
6
CONTINUOUS
10
-1.1377952755905512
20
0.7165354330708661
11
-1.2874015748031495
21
0.7165354330708661
0
LINE
8
BLACK
6
CONTINUOUS
10
-1.2874015748031495
20
0.7165354330708661
11
-1.2874015748031495
21
0.7559055118110236
0
LINE
8
BLACK
6
CONTINUOUS
10
-1.2874015748031495
20
0.7559055118110236
11
-1.1377952755905512
21
0.7559055118110236
0
LINE
8
BLACK
6
CONTINUOUS
10
-1.1377952755905512
20
0.7559055118110236
11
-1.1377952755905512
21
0.7165354330708661
0
LINE
8
BLACK
6
CONTINUOUS
10
-0.9015748031496063
20
0.7165354330708661
11
-1.0511811023622046
21
0.7165354330708661
0
LINE
8
BLACK
6
CONTINUOUS
10
-1.0511811023622046
20
0.7165354330708661
11
-1.0511811023622046
21
0.7559055118110236
0
LINE
8
BLACK
6
CONTINUOUS
10
-1.0511811023622046
20
0.7559055118110236
11
-0.9015748031496063
21
0.7559055118110236
0
LINE
8
BLACK
6
CONTINUOUS
10
-0.9015748031496063
20
0.7559055118110236
11
-0.9015748031496063
21
0.7165354330708661
0
LINE
8
BLACK
6
CONTINUOUS
10
-0.6653543307086615
20
0.7165354330708661
11
-0.8149606299212598
21
0.7165354330708661
0
LINE
8
BLACK
6
CONTINUOUS
10
-0.8149606299212598
20
0.7165354330708661
11
-0.8149606299212598
21
0.7559055118110236
0
LINE
8
BLACK
6
CONTINUOUS
10
-0.8149606299212598
20
0.7559055118110236
11
-0.6653543307086615
21
0.7559055118110236
0
LINE
8
BLACK
6
CONTINUOUS
10
-0.6653543307086615
20
0.7559055118110236
11
-0.6653543307086615
21
0.7165354330708661
0
LINE
8
BLACK
6
CONTINUOUS
10
-0.4291338582677166
20
0.7165354330708661
11
-0.5787401574803149
21
0.7165354330708661
0
LINE
8
BLACK
6
CONTINUOUS
10
-0.5787401574803149
20
0.7165354330708661
11
-0.5787401574803149
21
0.7559055118110236
0
LINE
8
BLACK
6
CONTINUOUS
10
-0.5787401574803149
20
0.7559055118110236
11
-0.4291338582677166
21
0.7559055118110236
0
LINE
8
BLACK
6
CONTINUOUS
10
-0.4291338582677166
20
0.7559055118110236
11
-0.4291338582677166
21
0.7165354330708661
0
LINE
8
BLACK
6
CONTINUOUS
10
-0.2519685039370079
20
0.7559055118110236
11
-0.2519685039370079
21
0.8464566929133858
0
LINE
8
BLACK
6
CONTINUOUS
10
-0.2519685039370079
20
0.8464566929133858
11
-0.2125984251968504
21
0.8464566929133858
0
LINE
8
BLACK
6
CONTINUOUS
10
-0.2125984251968504
20
0.8464566929133858
11
-0.2125984251968504
21
0.7559055118110236
0
LINE
8
BLACK
6
CONTINUOUS
10
-0.2125984251968504
20
0.7559055118110236
11
-0.2125984251968504
21
0.7165354330708661
0
LINE
8
BLACK
6
CONTINUOUS
10
-0.2125984251968504
20
0.7165354330708661
11
-0.2519685039370079
21
0.7165354330708661
0
LINE
8
BLACK
6
CONTINUOUS
10
-0.2519685039370079
20
0.7165354330708661
11
-0.3425196850393701
21
0.7165354330708661
0
LINE
8
BLACK
6
CONTINUOUS
10
-0.3425196850393701
20
0.7165354330708661
11
-0.3425196850393701
21
0.7559055118110236
0
LINE
8
BLACK
6
CONTINUOUS
10
-0.3425196850393701
20
0.7559055118110236
11
-0.2519685039370079
21
0.7559055118110236
0
LINE
8
BLACK
6
CONTINUOUS
10
-1.0848161023622047
20
0.838817716535433
11
-1.0816229527559056
21
0.8366841338582677
0
LINE
8
BLACK
6
CONTINUOUS
10
-1.0816229527559056
20
0.8366841338582677
11
-1.0794893700787402
21
0.8334909842519684
0
LINE
8
BLACK
6
CONTINUOUS
10
-1.0794893700787402
20
0.8334909842519684
11
-1.078740157480315
21
0.8297244094488189
0
LINE
8
BLACK
6
CONTINUOUS
10
-1.078740157480315
20
0.8297244094488189
11
-1.078740157480315
21
0.7923228346456693
0
LINE
8
BLACK
6
CONTINUOUS
10
-1.078740157480315
20
0.7923228346456693
11
-1.0794893700787402
21
0.7885562598425196
0
LINE
8
BLACK
6
CONTINUOUS
10
-1.0794893700787402
20
0.7885562598425196
11
-1.0816229527559056
21
0.7853631102362204
0
LINE
8
BLACK
6
CONTINUOUS
10
-1.0816229527559056
20
0.7853631102362204
11
-1.0848161023622047
21
0.7832295275590551
0
LINE
8
BLACK
6
CONTINUOUS
10
-1.0848161023622047
20
0.7832295275590551
11
-1.0885826771653544
21
0.7824803149606299
0
LINE
8
BLACK
6
CONTINUOUS
10
-1.0885826771653544
20
0.7824803149606299
11
-1.1082677165354331
21
0.7824803149606299
0
LINE
8
BLACK
6
CONTINUOUS
10
-1.1082677165354331
20
0.7824803149606299
11
-1.1120342913385826
21
0.7832295275590551
0
LINE
8
BLACK
6
CONTINUOUS
10
-1.1120342913385826
20
0.7832295275590551
11
-1.1152274409448819
21
0.7853631102362204
0
LINE
8
BLACK
6
CONTINUOUS
10
-1.1152274409448819
20
0.7853631102362204
11
-1.1173610236220473
21
0.7885562598425196
0
LINE
8
BLACK
6
CONTINUOUS
10
-1.1173610236220473
20
0.7885562598425196
11
-1.1181102362204725
21
0.7923228346456693
0
LINE
8
BLACK
6
CONTINUOUS
10
-1.1181102362204725
20
0.7923228346456693
11
-1.1181102362204725
21
0.8297244094488189
0
LINE
8
BLACK
6
CONTINUOUS
10
-1.1181102362204725
20
0.8297244094488189
11
-1.1173610236220473
21
0.8334909842519684
0
LINE
8
BLACK
6
CONTINUOUS
10
-1.1173610236220473
20
0.8334909842519684
11
-1.1152274409448819
21
0.8366841338582677
0
LINE
8
BLACK
6
CONTINUOUS
10
-1.1152274409448819
20
0.8366841338582677
11
-1.1120342913385826
21
0.838817716535433
0
LINE
8
BLACK
6
CONTINUOUS
10
-1.1120342913385826
20
0.838817716535433
11
-1.1082677165354331
21
0.8395669291338582
0
LINE
8
BLACK
6
CONTINUOUS
10
-1.1082677165354331
20
0.8395669291338582
11
-1.0885826771653544
21
0.8395669291338582
0
LINE
8
BLACK
6
CONTINUOUS
10
-1.0885826771653544
20
0.8395669291338582
11
-1.0848161023622047
21
0.838817716535433
0
LINE
8
BLACK
6
CONTINUOUS
10
-1.0100129527559054
20
0.838817716535433
11
-1.0068198031496063
21
0.8366841338582677
0
LINE
8
BLACK
6
CONTINUOUS
10
-1.0068198031496063
20
0.8366841338582677
11
-1.0046862204724409
21
0.8334909842519684
0
LINE
8
BLACK
6
CONTINUOUS
10
-1.0046862204724409
20
0.8334909842519684
11
-1.0039370078740157
21
0.8297244094488189
0
LINE
8
BLACK
6
CONTINUOUS
10
-1.0039370078740157
20
0.8297244094488189
11
-1.0039370078740157
21
0.7923228346456693
0
LINE
8
BLACK
6
CONTINUOUS
10
-1.0039370078740157
20
0.7923228346456693
11
-1.0046862204724409
21
0.7885562598425196
0
LINE
8
BLACK
6
CONTINUOUS
10
-1.0046862204724409
20
0.7885562598425196
11
-1.0068198031496063
21
0.7853631102362204
0
LINE
8
BLACK
6
CONTINUOUS
10
-1.0068198031496063
20
0.7853631102362204
11
-1.0100129527559054
21
0.7832295275590551
0
LINE
8
BLACK
6
CONTINUOUS
10
-1.0100129527559054
20
0.7832295275590551
11
-1.0137795275590551
21
0.7824803149606299
0
LINE
8
BLACK
6
CONTINUOUS
10
-1.0137795275590551
20
0.7824803149606299
11
-1.0334645669291338
21
0.7824803149606299
0
LINE
8
BLACK
6
CONTINUOUS
10
-1.0334645669291338
20
0.7824803149606299
11
-1.0372311417322835
21
0.7832295275590551
0
LINE
8
BLACK
6
CONTINUOUS
10
-1.0372311417322835
20
0.7832295275590551
11
-1.0404242913385826
21
0.7853631102362204
0
LINE
8
BLACK
6
CONTINUOUS
10
-1.0404242913385826
20
0.7853631102362204
11
-1.042557874015748
21
0.7885562598425196
0
LINE
8
BLACK
6
CONTINUOUS
10
-1.042557874015748
20
0.7885562598425196
11
-1.0433070866141732
21
0.7923228346456693
0
LINE
8
BLACK
6
CONTINUOUS
10
-1.0433070866141732
20
0.7923228346456693
11
-1.0433070866141732
21
0.8297244094488189
0
LINE
8
BLACK
6
CONTINUOUS
10
-1.0433070866141732
20
0.8297244094488189
11
-1.042557874015748
21
0.8334909842519684
0
LINE
8
BLACK
6
CONTINUOUS
10
-1.042557874015748
20
0.8334909842519684
11
-1.0404242913385826
21
0.8366841338582677
0
LINE
8
BLACK
6
CONTINUOUS
10
-1.0404242913385826
20
0.8366841338582677
11
-1.0372311417322835
21
0.838817716535433
0
LINE
8
BLACK
6
CONTINUOUS
10
-1.0372311417322835
20
0.838817716535433
11
-1.0334645669291338
21
0.8395669291338582
0
LINE
8
BLACK
6
CONTINUOUS
10
-1.0334645669291338
20
0.8395669291338582
11
-1.0137795275590551
21
0.8395669291338582
0
LINE
8
BLACK
6
CONTINUOUS
10
-1.0137795275590551
20
0.8395669291338582
11
-1.0100129527559054
21
0.838817716535433
0
LINE
8
BLACK
6
CONTINUOUS
10
-0.753123188976378
20
0.8772035433070866
11
-0.7499300393700787
21
0.8750699606299213
0
LINE
8
BLACK
6
CONTINUOUS
10
-0.7499300393700787
20
0.8750699606299213
11
-0.7477964566929134
21
0.871876811023622
0
LINE
8
BLACK
6
CONTINUOUS
10
-0.7477964566929134
20
0.871876811023622
11
-0.7470472440944882
21
0.8681102362204725
0
LINE
8
BLACK
6
CONTINUOUS
10
-0.7470472440944882
20
0.8681102362204725
11
-0.7470472440944882
21
0.8484251968503936
0
LINE
8
BLACK
6
CONTINUOUS
10
-0.7470472440944882
20
0.8484251968503936
11
-0.7477964566929134
21
0.8446586220472441
0
LINE
8
BLACK
6
CONTINUOUS
10
-0.7477964566929134
20
0.8446586220472441
11
-0.7499300393700787
21
0.8414654724409448
0
LINE
8
BLACK
6
CONTINUOUS
10
-0.7499300393700787
20
0.8414654724409448
11
-0.753123188976378
21
0.8393318897637795
0
LINE
8
BLACK
6
CONTINUOUS
10
-0.753123188976378
20
0.8393318897637795
11
-0.7568897637795275
21
0.8385826771653543
0
LINE
8
BLACK
6
CONTINUOUS
10
-0.7568897637795275
20
0.8385826771653543
11
-0.7942913385826772
21
0.8385826771653543
0
LINE
8
BLACK
6
CONTINUOUS
10
-0.7942913385826772
20
0.8385826771653543
11
-0.7980579133858268
21
0.8393318897637795
0
LINE
8
BLACK
6
CONTINUOUS
10
-0.7980579133858268
20
0.8393318897637795
11
-0.801251062992126
21
0.8414654724409448
0
LINE
8
BLACK
6
CONTINUOUS
10
-0.801251062992126
20
0.8414654724409448
11
-0.8033846456692914
21
0.8446586220472441
0
LINE
8
BLACK
6
CONTINUOUS
10
-0.8033846456692914
20
0.8446586220472441
11
-0.8041338582677166
21
0.8484251968503936
0
LINE
8
BLACK
6
CONTINUOUS
10
-0.8041338582677166
20
0.8484251968503936
11
-0.8041338582677166
21
0.8681102362204725
0
LINE
8
BLACK
6
CONTINUOUS
10
-0.8041338582677166
20
0.8681102362204725
11
-0.8033846456692914
21
0.871876811023622
0
LINE
8
BLACK
6
CONTINUOUS
10
-0.8033846456692914
20
0.871876811023622
11
-0.801251062992126
21
0.8750699606299213
0
LINE
8
BLACK
6
CONTINUOUS
10
-0.801251062992126
20
0.8750699606299213
11
-0.7980579133858268
21
0.8772035433070866
0
LINE
8
BLACK
6
CONTINUOUS
10
-0.7980579133858268
20
0.8772035433070866
11
-0.7942913385826772
21
0.8779527559055118
0
LINE
8
BLACK
6
CONTINUOUS
10
-0.7942913385826772
20
0.8779527559055118
11
-0.7568897637795275
21
0.8779527559055118
0
LINE
8
BLACK
6
CONTINUOUS
10
-0.7568897637795275
20
0.8779527559055118
11
-0.753123188976378
21
0.8772035433070866
0
LINE
8
BLACK
6
CONTINUOUS
10
-0.6663459055118111
20
0.8757364173228346
11
-0.6644300393700787
21
0.8744562598425196
0
LINE
8
BLACK
6
CONTINUOUS
10
-0.6644300393700787
20
0.8744562598425196
11
-0.6631498818897638
21
0.8725403937007874
0
LINE
8
BLACK
6
CONTINUOUS
10
-0.6631498818897638
20
0.8725403937007874
11
-0.6627003543307086
21
0.8702804330708661
0
LINE
8
BLACK
6
CONTINUOUS
10
-0.6627003543307086
20
0.8702804330708661
11
-0.6627003543307086
21
0.8584694094488189
0
LINE
8
BLACK
6
CONTINUOUS
10
-0.6627003543307086
20
0.8584694094488189
11
-0.6631498818897638
21
0.8562094488188976
0
LINE
8
BLACK
6
CONTINUOUS
10
-0.6631498818897638
20
0.8562094488188976
11
-0.6644300393700787
21
0.8542935826771654
0
LINE
8
BLACK
6
CONTINUOUS
10
-0.6644300393700787
20
0.8542935826771654
11
-0.6663459055118111
21
0.8530134251968504
0
LINE
8
BLACK
6
CONTINUOUS
10
-0.6663459055118111
20
0.8530134251968504
11
-0.6686058661417322
21
0.8525638976377953
0
LINE
8
BLACK
6
CONTINUOUS
10
-0.6686058661417322
20
0.8525638976377953
11
-0.7148657086614173
21
0.8525638976377953
0
LINE
8
BLACK
6
CONTINUOUS
10
-0.7148657086614173
20
0.8525638976377953
11
-0.7171256692913386
21
0.8530134251968504
0
LINE
8
BLACK
6
CONTINUOUS
10
-0.7171256692913386
20
0.8530134251968504
11
-0.7190415354330708
21
0.8542935826771654
0
LINE
8
BLACK
6
CONTINUOUS
10
-0.7190415354330708
20
0.8542935826771654
11
-0.7203216929133858
21
0.8562094488188976
0
LINE
8
BLACK
6
CONTINUOUS
10
-0.7203216929133858
20
0.8562094488188976
11
-0.7207712204724409
21
0.8584694094488189
0
LINE
8
BLACK
6
CONTINUOUS
10
-0.7207712204724409
20
0.8584694094488189
11
-0.7207712204724409
21
0.8702804330708661
0
LINE
8
BLACK
6
CONTINUOUS
10
-0.7207712204724409
20
0.8702804330708661
11
-0.7203216929133858
21
0.8725403937007874
0
LINE
8
BLACK
6
CONTINUOUS
10
-0.7203216929133858
20
0.8725403937007874
11
-0.7190415354330708
21
0.8744562598425196
0
LINE
8
BLACK
6
CONTINUOUS
10
-0.7190415354330708
20
0.8744562598425196
11
-0.7171256692913386
21
0.8757364173228346
0
LINE
8
BLACK
6
CONTINUOUS
10
-0.7171256692913386
20
0.8757364173228346
11
-0.7148657086614173
21
0.8761859448818897
0
LINE
8
BLACK
6
CONTINUOUS
10
-0.7148657086614173
20
0.8761859448818897
11
-0.6686058661417322
21
0.8761859448818897
0
LINE
8
BLACK
6
CONTINUOUS
10
-0.6686058661417322
20
0.8761859448818897
11
-0.6663459055118111
21
0.8757364173228346
0
LINE
8
BLACK
6
CONTINUOUS
10
-1.0926901574803149
20
0.9175578740157481
11
-1.0894970078740158
21
0.9154242913385826
0
LINE
8
BLACK
6
CONTINUOUS
10
-1.0894970078740158
20
0.9154242913385826
11
-1.0873634251968505
21
0.9122311417322835
0
LINE
8
BLACK
6
CONTINUOUS
10
-1.0873634251968505
20
0.9122311417322835
11
-1.0866142125984253
21
0.9084645669291338
0
LINE
8
BLACK
6
CONTINUOUS
10
-1.0866142125984253
20
0.9084645669291338
11
-1.0866142125984253
21
0.8710629921259843
0
LINE
8
BLACK
6
CONTINUOUS
10
-1.0866142125984253
20
0.8710629921259843
11
-1.0873634251968505
21
0.8672964173228346
0
LINE
8
BLACK
6
CONTINUOUS
10
-1.0873634251968505
20
0.8672964173228346
11
-1.0894970078740158
21
0.8641032677165355
0
LINE
8
BLACK
6
CONTINUOUS
10
-1.0894970078740158
20
0.8641032677165355
11
-1.0926901574803149
21
0.8619696850393701
0
LINE
8
BLACK
6
CONTINUOUS
10
-1.0926901574803149
20
0.8619696850393701
11
-1.0964567322834646
21
0.8612204724409449
0
LINE
8
BLACK
6
CONTINUOUS
10
-1.0964567322834646
20
0.8612204724409449
11
-1.1161417716535433
21
0.8612204724409449
0
LINE
8
BLACK
6
CONTINUOUS
10
-1.1161417716535433
20
0.8612204724409449
11
-1.1199083464566928
21
0.8619696850393701
0
LINE
8
BLACK
6
CONTINUOUS
10
-1.1199083464566928
20
0.8619696850393701
11
-1.1231014960629921
21
0.8641032677165355
0
LINE
8
BLACK
6
CONTINUOUS
10
-1.1231014960629921
20
0.8641032677165355
11
-1.1252350787401575
21
0.8672964173228346
0
LINE
8
BLACK
6
CONTINUOUS
10
-1.1252350787401575
20
0.8672964173228346
11
-1.1259842913385827
21
0.8710629921259843
0
LINE
8
BLACK
6
CONTINUOUS
10
-1.1259842913385827
20
0.8710629921259843
11
-1.1259842913385827
21
0.9084645669291338
0
LINE
8
BLACK
6
CONTINUOUS
10
-1.1259842913385827
20
0.9084645669291338
11
-1.1252350787401575
21
0.9122311417322835
0
LINE
8
BLACK
6
CONTINUOUS
10
-1.1252350787401575
20
0.9122311417322835
11
-1.1231014960629921
21
0.9154242913385826
0
LINE
8
BLACK
6
CONTINUOUS
10
-1.1231014960629921
20
0.9154242913385826
11
-1.1199083464566928
21
0.9175578740157481
0
LINE
8
BLACK
6
CONTINUOUS
10
-1.1199083464566928
20
0.9175578740157481
11
-1.1161417716535433
21
0.9183070866141733
0
LINE
8
BLACK
6
CONTINUOUS
10
-1.1161417716535433
20
0.9183070866141733
11
-1.0964567322834646
21
0.9183070866141733
0
LINE
8
BLACK
6
CONTINUOUS
10
-1.0964567322834646
20
0.9183070866141733
11
-1.0926901574803149
21
0.9175578740157481
0
LINE
8
BLACK
6
CONTINUOUS
10
-1.0178870078740156
20
0.9175578740157481
11
-1.0146938582677165
21
0.9154242913385826
0
LINE
8
BLACK
6
CONTINUOUS
10
-1.0146938582677165
20
0.9154242913385826
11
-1.0125602755905512
21
0.9122311417322835
0
LINE
8
BLACK
6
CONTINUOUS
10
-1.0125602755905512
20
0.9122311417322835
11
-1.011811062992126
21
0.9084645669291338
0
LINE
8
BLACK
6
CONTINUOUS
10
-1.011811062992126
20
0.9084645669291338
11
-1.011811062992126
21
0.8710629921259843
0
LINE
8
BLACK
6
CONTINUOUS
10
-1.011811062992126
20
0.8710629921259843
11
-1.0125602755905512
21
0.8672964173228346
0
LINE
8
BLACK
6
CONTINUOUS
10
-1.0125602755905512
20
0.8672964173228346
11
-1.0146938582677165
21
0.8641032677165355
0
LINE
8
BLACK
6
CONTINUOUS
10
-1.0146938582677165
20
0.8641032677165355
11
-1.0178870078740156
21
0.8619696850393701
0
LINE
8
BLACK
6
CONTINUOUS
10
-1.0178870078740156
20
0.8619696850393701
11
-1.0216535826771653
21
0.8612204724409449
0
LINE
8
BLACK
6
CONTINUOUS
10
-1.0216535826771653
20
0.8612204724409449
11
-1.041338622047244
21
0.8612204724409449
0
LINE
8
BLACK
6
CONTINUOUS
10
-1.041338622047244
20
0.8612204724409449
11
-1.0451051968503937
21
0.8619696850393701
0
LINE
8
BLACK
6
CONTINUOUS
10
-1.0451051968503937
20
0.8619696850393701
11
-1.0482983464566928
21
0.8641032677165355
0
LINE
8
BLACK
6
CONTINUOUS
10
-1.0482983464566928
20
0.8641032677165355
11
-1.0504319291338582
21
0.8672964173228346
0
LINE
8
BLACK
6
CONTINUOUS
10
-1.0504319291338582
20
0.8672964173228346
11
-1.0511811417322834
21
0.8710629921259843
0
LINE
8
BLACK
6
CONTINUOUS
10
-1.0511811417322834
20
0.8710629921259843
11
-1.0511811417322834
21
0.9084645669291338
0
LINE
8
BLACK
6
CONTINUOUS
10
-1.0511811417322834
20
0.9084645669291338
11
-1.0504319291338582
21
0.9122311417322835
0
LINE
8
BLACK
6
CONTINUOUS
10
-1.0504319291338582
20
0.9122311417322835
11
-1.0482983464566928
21
0.9154242913385826
0
LINE
8
BLACK
6
CONTINUOUS
10
-1.0482983464566928
20
0.9154242913385826
11
-1.0451051968503937
21
0.9175578740157481
0
LINE
8
BLACK
6
CONTINUOUS
10
-1.0451051968503937
20
0.9175578740157481
11
-1.041338622047244
21
0.9183070866141733
0
LINE
8
BLACK
6
CONTINUOUS
10
-1.041338622047244
20
0.9183070866141733
11
-1.0216535826771653
21
0.9183070866141733
0
LINE
8
BLACK
6
CONTINUOUS
10
-1.0216535826771653
20
0.9183070866141733
11
-1.0178870078740156
21
0.9175578740157481
0
LINE
8
BLACK
6
CONTINUOUS
10
-0.5925270078740157
20
0.9131379921259842
11
-0.5906111417322835
21
0.9118578346456693
0
LINE
8
BLACK
6
CONTINUOUS
10
-0.5906111417322835
20
0.9118578346456693
11
-0.5893309842519685
21
0.9099419685039369
0
LINE
8
BLACK
6
CONTINUOUS
10
-0.5893309842519685
20
0.9099419685039369
11
-0.5888814566929134
21
0.9076820078740158
0
LINE
8
BLACK
6
CONTINUOUS
10
-0.5888814566929134
20
0.9076820078740158
11
-0.5888814566929134
21
0.8958709842519685
0
LINE
8
BLACK
6
CONTINUOUS
10
-0.5888814566929134
20
0.8958709842519685
11
-0.5893309842519685
21
0.8936110236220473
0
LINE
8
BLACK
6
CONTINUOUS
10
-0.5893309842519685
20
0.8936110236220473
11
-0.5906111417322835
21
0.8916951574803149
0
LINE
8
BLACK
6
CONTINUOUS
10
-0.5906111417322835
20
0.8916951574803149
11
-0.5925270078740157
21
0.890415
0
LINE
8
BLACK
6
CONTINUOUS
10
-0.5925270078740157
20
0.890415
11
-0.594786968503937
21
0.8899654724409448
0
LINE
8
BLACK
6
CONTINUOUS
10
-0.594786968503937
20
0.8899654724409448
11
-0.641046811023622
21
0.8899654724409448
0
LINE
8
BLACK
6
CONTINUOUS
10
-0.641046811023622
20
0.8899654724409448
11
-0.6433067716535433
21
0.890415
0
LINE
8
BLACK
6
CONTINUOUS
10
-0.6433067716535433
20
0.890415
11
-0.6452226377952756
21
0.8916951574803149
0
LINE
8
BLACK
6
CONTINUOUS
10
-0.6452226377952756
20
0.8916951574803149
11
-0.6465027952755905
21
0.8936110236220473
0
LINE
8
BLACK
6
CONTINUOUS
10
-0.6465027952755905
20
0.8936110236220473
11
-0.6469523228346457
21
0.8958709842519685
0
LINE
8
BLACK
6
CONTINUOUS
10
-0.6469523228346457
20
0.8958709842519685
11
-0.6469523228346457
21
0.9076820078740158
0
LINE
8
BLACK
6
CONTINUOUS
10
-0.6469523228346457
20
0.9076820078740158
11
-0.6465027952755905
21
0.9099419685039369
0
LINE
8
BLACK
6
CONTINUOUS
10
-0.6465027952755905
20
0.9099419685039369
11
-0.6452226377952756
21
0.9118578346456693
0
LINE
8
BLACK
6
CONTINUOUS
10
-0.6452226377952756
20
0.9118578346456693
11
-0.6433067716535433
21
0.9131379921259842
0
LINE
8
BLACK
6
CONTINUOUS
10
-0.6433067716535433
20
0.9131379921259842
11
-0.641046811023622
21
0.9135875196850394
0
LINE
8
BLACK
6
CONTINUOUS
10
-0.641046811023622
20
0.9135875196850394
11
-0.594786968503937
21
0.9135875196850394
0
LINE
8
BLACK
6
CONTINUOUS
10
-0.594786968503937
20
0.9135875196850394
11
-0.5925270078740157
21
0.9131379921259842
0
LINE
8
BLACK
6
CONTINUOUS
10
-0.753123188976378
20
0.9520066929133858
11
-0.7499300393700787
21
0.9498731102362205
0
LINE
8
BLACK
6
CONTINUOUS
10
-0.7499300393700787
20
0.9498731102362205
11
-0.7477964566929134
21
0.9466799606299212
0
LINE
8
BLACK
6
CONTINUOUS
10
-0.7477964566929134
20
0.9466799606299212
11
-0.7470472440944882
21
0.9429133858267716
0
LINE
8
BLACK
6
CONTINUOUS
10
-0.7470472440944882
20
0.9429133858267716
11
-0.7470472440944882
21
0.9232283464566929
0
LINE
8
BLACK
6
CONTINUOUS
10
-0.7470472440944882
20
0.9232283464566929
11
-0.7477964566929134
21
0.9194617716535433
0
LINE
8
BLACK
6
CONTINUOUS
10
-0.7477964566929134
20
0.9194617716535433
11
-0.7499300393700787
21
0.916268622047244
0
LINE
8
BLACK
6
CONTINUOUS
10
-0.7499300393700787
20
0.916268622047244
11
-0.753123188976378
21
0.9141350393700787
0
LINE
8
BLACK
6
CONTINUOUS
10
-0.753123188976378
20
0.9141350393700787
11
-0.7568897637795275
21
0.9133858267716535
0
LINE
8
BLACK
6
CONTINUOUS
10
-0.7568897637795275
20
0.9133858267716535
11
-0.7942913385826772
21
0.9133858267716535
0
LINE
8
BLACK
6
CONTINUOUS
10
-0.7942913385826772
20
0.9133858267716535
11
-0.7980579133858268
21
0.9141350393700787
0
LINE
8
BLACK
6
CONTINUOUS
10
-0.7980579133858268
20
0.9141350393700787
11
-0.801251062992126
21
0.916268622047244
0
LINE
8
BLACK
6
CONTINUOUS
10
-0.801251062992126
20
0.916268622047244
11
-0.8033846456692914
21
0.9194617716535433
0
LINE
8
BLACK
6
CONTINUOUS
10
-0.8033846456692914
20
0.9194617716535433
11
-0.8041338582677166
21
0.9232283464566929
0
LINE
8
BLACK
6
CONTINUOUS
10
-0.8041338582677166
20
0.9232283464566929
11
-0.8041338582677166
21
0.9429133858267716
0
LINE
8
BLACK
6
CONTINUOUS
10
-0.8041338582677166
20
0.9429133858267716
11
-0.8033846456692914
21
0.9466799606299212
0
LINE
8
BLACK
6
CONTINUOUS
10
-0.8033846456692914
20
0.9466799606299212
11
-0.801251062992126
21
0.9498731102362205
0
LINE
8
BLACK
6
CONTINUOUS
10
-0.801251062992126
20
0.9498731102362205
11
-0.7980579133858268
21
0.9520066929133858
0
LINE
8
BLACK
6
CONTINUOUS
10
-0.7980579133858268
20
0.9520066929133858
11
-0.7942913385826772
21
0.952755905511811
0
LINE
8
BLACK
6
CONTINUOUS
10
-0.7942913385826772
20
0.952755905511811
11
-0.7568897637795275
21
0.952755905511811
0
LINE
8
BLACK
6
CONTINUOUS
10
-0.7568897637795275
20
0.952755905511811
11
-0.753123188976378
21
0.9520066929133858
0
LINE
8
BLACK
6
CONTINUOUS
10
-0.6663459055118111
20
0.9505395669291339
11
-0.6644300393700787
21
0.9492594094488189
0
LINE
8
BLACK
6
CONTINUOUS
10
-0.6644300393700787
20
0.9492594094488189
11
-0.6631498818897638
21
0.9473435433070866
0
LINE
8
BLACK
6
CONTINUOUS
10
-0.6631498818897638
20
0.9473435433070866
11
-0.6627003543307086
21
0.9450835826771653
0
LINE
8
BLACK
6
CONTINUOUS
10
-0.6627003543307086
20
0.9450835826771653
11
-0.6627003543307086
21
0.9332725590551181
0
LINE
8
BLACK
6
CONTINUOUS
10
-0.6627003543307086
20
0.9332725590551181
11
-0.6631498818897638
21
0.9310125984251968
0
LINE
8
BLACK
6
CONTINUOUS
10
-0.6631498818897638
20
0.9310125984251968
11
-0.6644300393700787
21
0.9290967322834646
0
LINE
8
BLACK
6
CONTINUOUS
10
-0.6644300393700787
20
0.9290967322834646
11
-0.6663459055118111
21
0.9278165748031496
0
LINE
8
BLACK
6
CONTINUOUS
10
-0.6663459055118111
20
0.9278165748031496
11
-0.6686058661417322
21
0.9273670472440945
0
LINE
8
BLACK
6
CONTINUOUS
10
-0.6686058661417322
20
0.9273670472440945
11
-0.7148657086614173
21
0.9273670472440945
0
LINE
8
BLACK
6
CONTINUOUS
10
-0.7148657086614173
20
0.9273670472440945
11
-0.7171256692913386
21
0.9278165748031496
0
LINE
8
BLACK
6
CONTINUOUS
10
-0.7171256692913386
20
0.9278165748031496
11
-0.7190415354330708
21
0.9290967322834646
0
LINE
8
BLACK
6
CONTINUOUS
10
-0.7190415354330708
20
0.9290967322834646
11
-0.7203216929133858
21
0.9310125984251968
0
LINE
8
BLACK
6
CONTINUOUS
10
-0.7203216929133858
20
0.9310125984251968
11
-0.7207712204724409
21
0.9332725590551181
0
LINE
8
BLACK
6
CONTINUOUS
10
-0.7207712204724409
20
0.9332725590551181
11
-0.7207712204724409
21
0.9450835826771653
0
LINE
8
BLACK
6
CONTINUOUS
10
-0.7207712204724409
20
0.9450835826771653
11
-0.7203216929133858
21
0.9473435433070866
0
LINE
8
BLACK
6
CONTINUOUS
10
-0.7203216929133858
20
0.9473435433070866
11
-0.7190415354330708
21
0.9492594094488189
0
LINE
8
BLACK
6
CONTINUOUS
10
-0.7190415354330708
20
0.9492594094488189
11
-0.7171256692913386
21
0.9505395669291339
0
LINE
8
BLACK
6
CONTINUOUS
10
-0.7171256692913386
20
0.9505395669291339
11
-0.7148657086614173
21
0.9509890944881889
0
LINE
8
BLACK
6
CONTINUOUS
10
-0.7148657086614173
20
0.9509890944881889
11
-0.6686058661417322
21
0.9509890944881889
0
LINE
8
BLACK
6
CONTINUOUS
10
-0.6686058661417322
20
0.9509890944881889
11
-0.6663459055118111
21
0.9505395669291339
0
LINE
8
BLACK
6
CONTINUOUS
10
-0.9642525984251968
20
0.9942653149606299
11
-0.963135
21
0.9935185826771653
0
LINE
8
BLACK
6
CONTINUOUS
10
-0.963135
20
0.9935185826771653
11
-0.9623882677165354
21
0.9924009842519684
0
LINE
8
BLACK
6
CONTINUOUS
10
-0.9623882677165354
20
0.9924009842519684
11
-0.9621260236220472
21
0.9910826771653543
0
LINE
8
BLACK
6
CONTINUOUS
10
-0.9621260236220472
20
0.9910826771653543
11
-0.9621260236220472
21
0.933996062992126
0
LINE
8
BLACK
6
CONTINUOUS
10
-0.9621260236220472
20
0.933996062992126
11
-0.9623882677165354
21
0.9326777559055118
0
LINE
8
BLACK
6
CONTINUOUS
10
-0.9623882677165354
20
0.9326777559055118
11
-0.963135
21
0.931560157480315
0
LINE
8
BLACK
6
CONTINUOUS
10
-0.963135
20
0.931560157480315
11
-0.9642525984251968
21
0.9308134251968504
0
LINE
8
BLACK
6
CONTINUOUS
10
-0.9642525984251968
20
0.9308134251968504
11
-0.965570905511811
21
0.9305511811023622
0
LINE
8
BLACK
6
CONTINUOUS
10
-0.965570905511811
20
0.9305511811023622
11
-0.9724606692913386
21
0.9305511811023622
0
LINE
8
BLACK
6
CONTINUOUS
10
-0.9724606692913386
20
0.9305511811023622
11
-0.9737789763779527
21
0.9308134251968504
0
LINE
8
BLACK
6
CONTINUOUS
10
-0.9737789763779527
20
0.9308134251968504
11
-0.9748965748031496
21
0.931560157480315
0
LINE
8
BLACK
6
CONTINUOUS
10
-0.9748965748031496
20
0.931560157480315
11
-0.9756433070866142
21
0.9326777559055118
0
LINE
8
BLACK
6
CONTINUOUS
10
-0.9756433070866142
20
0.9326777559055118
11
-0.9759055511811023
21
0.933996062992126
0
LINE
8
BLACK
6
CONTINUOUS
10
-0.9759055511811023
20
0.933996062992126
11
-0.9759055511811023
21
0.9910826771653543
0
LINE
8
BLACK
6
CONTINUOUS
10
-0.9759055511811023
20
0.9910826771653543
11
-0.9756433070866142
21
0.9924009842519684
0
LINE
8
BLACK
6
CONTINUOUS
10
-0.9756433070866142
20
0.9924009842519684
11
-0.9748965748031496
21
0.9935185826771653
0
LINE
8
BLACK
6
CONTINUOUS
10
-0.9748965748031496
20
0.9935185826771653
11
-0.9737789763779527
21
0.9942653149606299
0
LINE
8
BLACK
6
CONTINUOUS
10
-0.9737789763779527
20
0.9942653149606299
11
-0.9724606692913386
21
0.9945275590551181
0
LINE
8
BLACK
6
CONTINUOUS
10
-0.9724606692913386
20
0.9945275590551181
11
-0.965570905511811
21
0.9945275590551181
0
LINE
8
BLACK
6
CONTINUOUS
10
-0.965570905511811
20
0.9945275590551181
11
-0.9642525984251968
21
0.9942653149606299
0
LINE
8
BLACK
6
CONTINUOUS
10
-0.9445675984251968
20
0.9942653149606299
11
-0.94345
21
0.9935185826771653
0
LINE
8
BLACK
6
CONTINUOUS
10
-0.94345
20
0.9935185826771653
11
-0.9427032677165355
21
0.9924009842519684
0
LINE
8
BLACK
6
CONTINUOUS
10
-0.9427032677165355
20
0.9924009842519684
11
-0.9424410236220472
21
0.9910826771653543
0
LINE
8
BLACK
6
CONTINUOUS
10
-0.9424410236220472
20
0.9910826771653543
11
-0.9424410236220472
21
0.933996062992126
0
LINE
8
BLACK
6
CONTINUOUS
10
-0.9424410236220472
20
0.933996062992126
11
-0.9427032677165355
21
0.9326777559055118
0
LINE
8
BLACK
6
CONTINUOUS
10
-0.9427032677165355
20
0.9326777559055118
11
-0.94345
21
0.931560157480315
0
LINE
8
BLACK
6
CONTINUOUS
10
-0.94345
20
0.931560157480315
11
-0.9445675984251968
21
0.9308134251968504
0
LINE
8
BLACK
6
CONTINUOUS
10
-0.9445675984251968
20
0.9308134251968504
11
-0.945885905511811
21
0.9305511811023622
0
LINE
8
BLACK
6
CONTINUOUS
10
-0.945885905511811
20
0.9305511811023622
11
-0.9527756692913386
21
0.9305511811023622
0
LINE
8
BLACK
6
CONTINUOUS
10
-0.9527756692913386
20
0.9305511811023622
11
-0.9540939763779527
21
0.9308134251968504
0
LINE
8
BLACK
6
CONTINUOUS
10
-0.9540939763779527
20
0.9308134251968504
11
-0.9552115748031496
21
0.931560157480315
0
LINE
8
BLACK
6
CONTINUOUS
10
-0.9552115748031496
20
0.931560157480315
11
-0.9559583070866141
21
0.9326777559055118
0
LINE
8
BLACK
6
CONTINUOUS
10
-0.9559583070866141
20
0.9326777559055118
11
-0.9562205511811024
21
0.933996062992126
0
LINE
8
BLACK
6
CONTINUOUS
10
-0.9562205511811024
20
0.933996062992126
11
-0.9562205511811024
21
0.9910826771653543
0
LINE
8
BLACK
6
CONTINUOUS
10
-0.9562205511811024
20
0.9910826771653543
11
-0.9559583070866141
21
0.9924009842519684
0
LINE
8
BLACK
6
CONTINUOUS
10
-0.9559583070866141
20
0.9924009842519684
11
-0.9552115748031496
21
0.9935185826771653
0
LINE
8
BLACK
6
CONTINUOUS
10
-0.9552115748031496
20
0.9935185826771653
11
-0.9540939763779527
21
0.9942653149606299
0
LINE
8
BLACK
6
CONTINUOUS
10
-0.9540939763779527
20
0.9942653149606299
11
-0.9527756692913386
21
0.9945275590551181
0
LINE
8
BLACK
6
CONTINUOUS
10
-0.9527756692913386
20
0.9945275590551181
11
-0.945885905511811
21
0.9945275590551181
0
LINE
8
BLACK
6
CONTINUOUS
10
-0.945885905511811
20
0.9945275590551181
11
-0.9445675984251968
21
0.9942653149606299
0
LINE
8
BLACK
6
CONTINUOUS
10
-0.9248825590551181
20
0.9942653149606299
11
-0.9237649606299212
21
0.9935185826771653
0
LINE
8
BLACK
6
CONTINUOUS
10
-0.9237649606299212
20
0.9935185826771653
11
-0.9230182283464566
21
0.9924009842519684
0
LINE
8
BLACK
6
CONTINUOUS
10
-0.9230182283464566
20
0.9924009842519684
11
-0.9227559842519685
21
0.9910826771653543
0
LINE
8
BLACK
6
CONTINUOUS
10
-0.9227559842519685
20
0.9910826771653543
11
-0.9227559842519685
21
0.933996062992126
0
LINE
8
BLACK
6
CONTINUOUS
10
-0.9227559842519685
20
0.933996062992126
11
-0.9230182283464566
21
0.9326777559055118
0
LINE
8
BLACK
6
CONTINUOUS
10
-0.9230182283464566
20
0.9326777559055118
11
-0.9237649606299212
21
0.931560157480315
0
LINE
8
BLACK
6
CONTINUOUS
10
-0.9237649606299212
20
0.931560157480315
11
-0.9248825590551181
21
0.9308134251968504
0
LINE
8
BLACK
6
CONTINUOUS
10
-0.9248825590551181
20
0.9308134251968504
11
-0.9262008661417322
21
0.9305511811023622
0
LINE
8
BLACK
6
CONTINUOUS
10
-0.9262008661417322
20
0.9305511811023622
11
-0.9330906299212598
21
0.9305511811023622
0
LINE
8
BLACK
6
CONTINUOUS
10
-0.9330906299212598
20
0.9305511811023622
11
-0.934408937007874
21
0.9308134251968504
0
LINE
8
BLACK
6
CONTINUOUS
10
-0.934408937007874
20
0.9308134251968504
11
-0.9355265354330708
21
0.931560157480315
0
LINE
8
BLACK
6
CONTINUOUS
10
-0.9355265354330708
20
0.931560157480315
11
-0.9362732677165354
21
0.9326777559055118
0
LINE
8
BLACK
6
CONTINUOUS
10
-0.9362732677165354
20
0.9326777559055118
11
-0.9365355118110236
21
0.933996062992126
0
LINE
8
BLACK
6
CONTINUOUS
10
-0.9365355118110236
20
0.933996062992126
11
-0.9365355118110236
21
0.9910826771653543
0
LINE
8
BLACK
6
CONTINUOUS
10
-0.9365355118110236
20
0.9910826771653543
11
-0.9362732677165354
21
0.9924009842519684
0
LINE
8
BLACK
6
CONTINUOUS
10
-0.9362732677165354
20
0.9924009842519684
11
-0.9355265354330708
21
0.9935185826771653
0
LINE
8
BLACK
6
CONTINUOUS
10
-0.9355265354330708
20
0.9935185826771653
11
-0.934408937007874
21
0.9942653149606299
0
LINE
8
BLACK
6
CONTINUOUS
10
-0.934408937007874
20
0.9942653149606299
11
-0.9330906299212598
21
0.9945275590551181
0
LINE
8
BLACK
6
CONTINUOUS
10
-0.9330906299212598
20
0.9945275590551181
11
-0.9262008661417322
21
0.9945275590551181
0
LINE
8
BLACK
6
CONTINUOUS
10
-0.9262008661417322
20
0.9945275590551181
11
-0.9248825590551181
21
0.9942653149606299
0
LINE
8
BLACK
6
CONTINUOUS
10
-0.9051975196850394
20
0.9942653149606299
11
-0.9040799212598425
21
0.9935185826771653
0
LINE
8
BLACK
6
CONTINUOUS
10
-0.9040799212598425
20
0.9935185826771653
11
-0.9033331889763779
21
0.9924009842519684
0
LINE
8
BLACK
6
CONTINUOUS
10
-0.9033331889763779
20
0.9924009842519684
11
-0.9030709448818898
21
0.9910826771653543
0
LINE
8
BLACK
6
CONTINUOUS
10
-0.9030709448818898
20
0.9910826771653543
11
-0.9030709448818898
21
0.933996062992126
0
LINE
8
BLACK
6
CONTINUOUS
10
-0.9030709448818898
20
0.933996062992126
11
-0.9033331889763779
21
0.9326777559055118
0
LINE
8
BLACK
6
CONTINUOUS
10
-0.9033331889763779
20
0.9326777559055118
11
-0.9040799212598425
21
0.931560157480315
0
LINE
8
BLACK
6
CONTINUOUS
10
-0.9040799212598425
20
0.931560157480315
11
-0.9051975196850394
21
0.9308134251968504
0
LINE
8
BLACK
6
CONTINUOUS
10
-0.9051975196850394
20
0.9308134251968504
11
-0.9065158267716535
21
0.9305511811023622
0
LINE
8
BLACK
6
CONTINUOUS
10
-0.9065158267716535
20
0.9305511811023622
11
-0.9134055905511811
21
0.9305511811023622
0
LINE
8
BLACK
6
CONTINUOUS
10
-0.9134055905511811
20
0.9305511811023622
11
-0.9147238976377953
21
0.9308134251968504
0
LINE
8
BLACK
6
CONTINUOUS
10
-0.9147238976377953
20
0.9308134251968504
11
-0.9158414960629921
21
0.931560157480315
0
LINE
8
BLACK
6
CONTINUOUS
10
-0.9158414960629921
20
0.931560157480315
11
-0.9165882283464567
21
0.9326777559055118
0
LINE
8
BLACK
6
CONTINUOUS
10
-0.9165882283464567
20
0.9326777559055118
11
-0.9168504724409449
21
0.933996062992126
0
LINE
8
BLACK
6
CONTINUOUS
10
-0.9168504724409449
20
0.933996062992126
11
-0.9168504724409449
21
0.9910826771653543
0
LINE
8
BLACK
6
CONTINUOUS
10
-0.9168504724409449
20
0.9910826771653543
11
-0.9165882283464567
21
0.9924009842519684
0
LINE
8
BLACK
6
CONTINUOUS
10
-0.9165882283464567
20
0.9924009842519684
11
-0.9158414960629921
21
0.9935185826771653
0
LINE
8
BLACK
6
CONTINUOUS
10
-0.9158414960629921
20
0.9935185826771653
11
-0.9147238976377953
21
0.9942653149606299
0
LINE
8
BLACK
6
CONTINUOUS
10
-0.9147238976377953
20
0.9942653149606299
11
-0.9134055905511811
21
0.9945275590551181
0
LINE
8
BLACK
6
CONTINUOUS
10
-0.9134055905511811
20
0.9945275590551181
11
-0.9065158267716535
21
0.9945275590551181
0
LINE
8
BLACK
6
CONTINUOUS
10
-0.9065158267716535
20
0.9945275590551181
11
-0.9051975196850394
21
0.9942653149606299
0
LINE
8
BLACK
6
CONTINUOUS
10
-0.8855125196850393
20
0.9942653149606299
11
-0.8843949212598425
21
0.9935185826771653
0
LINE
8
BLACK
6
CONTINUOUS
10
-0.8843949212598425
20
0.9935185826771653
11
-0.883648188976378
21
0.9924009842519684
0
LINE
8
BLACK
6
CONTINUOUS
10
-0.883648188976378
20
0.9924009842519684
11
-0.8833859448818897
21
0.9910826771653543
0
LINE
8
BLACK
6
CONTINUOUS
10
-0.8833859448818897
20
0.9910826771653543
11
-0.8833859448818897
21
0.933996062992126
0
LINE
8
BLACK
6
CONTINUOUS
10
-0.8833859448818897
20
0.933996062992126
11
-0.883648188976378
21
0.9326777559055118
0
LINE
8
BLACK
6
CONTINUOUS
10
-0.883648188976378
20
0.9326777559055118
11
-0.8843949212598425
21
0.931560157480315
0
LINE
8
BLACK
6
CONTINUOUS
10
-0.8843949212598425
20
0.931560157480315
11
-0.8855125196850393
21
0.9308134251968504
0
LINE
8
BLACK
6
CONTINUOUS
10
-0.8855125196850393
20
0.9308134251968504
11
-0.8868308267716535
21
0.9305511811023622
0
LINE
8
BLACK
6
CONTINUOUS
10
-0.8868308267716535
20
0.9305511811023622
11
-0.893720590551181
21
0.9305511811023622
0
LINE
8
BLACK
6
CONTINUOUS
10
-0.893720590551181
20
0.9305511811023622
11
-0.8950388976377952
21
0.9308134251968504
0
LINE
8
BLACK
6
CONTINUOUS
10
-0.8950388976377952
20
0.9308134251968504
11
-0.8961564960629921
21
0.931560157480315
0
LINE
8
BLACK
6
CONTINUOUS
10
-0.8961564960629921
20
0.931560157480315
11
-0.8969032283464566
21
0.9326777559055118
0
LINE
8
BLACK
6
CONTINUOUS
10
-0.8969032283464566
20
0.9326777559055118
11
-0.8971654724409449
21
0.933996062992126
0
LINE
8
BLACK
6
CONTINUOUS
10
-0.8971654724409449
20
0.933996062992126
11
-0.8971654724409449
21
0.9910826771653543
0
LINE
8
BLACK
6
CONTINUOUS
10
-0.8971654724409449
20
0.9910826771653543
11
-0.8969032283464566
21
0.9924009842519684
0
LINE
8
BLACK
6
CONTINUOUS
10
-0.8969032283464566
20
0.9924009842519684
11
-0.8961564960629921
21
0.9935185826771653
0
LINE
8
BLACK
6
CONTINUOUS
10
-0.8961564960629921
20
0.9935185826771653
11
-0.8950388976377952
21
0.9942653149606299
0
LINE
8
BLACK
6
CONTINUOUS
10
-0.8950388976377952
20
0.9942653149606299
11
-0.893720590551181
21
0.9945275590551181
0
LINE
8
BLACK
6
CONTINUOUS
10
-0.893720590551181
20
0.9945275590551181
11
-0.8868308267716535
21
0.9945275590551181
0
LINE
8
BLACK
6
CONTINUOUS
10
-0.8868308267716535
20
0.9945275590551181
11
-0.8855125196850393
21
0.9942653149606299
0
LINE
8
BLACK
6
CONTINUOUS
10
-1.4645669291338583
20
0.9330708661417323
11
-1.5039370078740157
21
0.9330708661417323
0
LINE
8
BLACK
6
CONTINUOUS
10
-1.5039370078740157
20
0.9330708661417323
11
-1.5039370078740157
21
1.0826771653543308
0
LINE
8
BLACK
6
CONTINUOUS
10
-1.5039370078740157
20
1.0826771653543308
11
-1.4645669291338583
21
1.0826771653543308
0
LINE
8
BLACK
6
CONTINUOUS
10
-1.4645669291338583
20
1.0826771653543308
11
-1.4645669291338583
21
0.9330708661417323
0
LINE
8
BLACK
6
CONTINUOUS
10
-0.2125984251968504
20
0.9330708661417323
11
-0.2519685039370079
21
0.9330708661417323
0
LINE
8
BLACK
6
CONTINUOUS
10
-0.2519685039370079
20
0.9330708661417323
11
-0.2519685039370079
21
1.0826771653543308
0
LINE
8
BLACK
6
CONTINUOUS
10
-0.2519685039370079
20
1.0826771653543308
11
-0.2125984251968504
21
1.0826771653543308
0
LINE
8
BLACK
6
CONTINUOUS
10
-0.2125984251968504
20
1.0826771653543308
11
-0.2125984251968504
21
0.9330708661417323
0
LINE
8
BLACK
6
CONTINUOUS
10
-1.0211783464566928
20
0.9812429133858267
11
-1.0179851968503937
21
0.9791093307086614
0
LINE
8
BLACK
6
CONTINUOUS
10
-1.0179851968503937
20
0.9791093307086614
11
-1.0158516141732283
21
0.9759161811023622
0
LINE
8
BLACK
6
CONTINUOUS
10
-1.0158516141732283
20
0.9759161811023622
11
-1.0151024015748031
21
0.9721496062992125
0
LINE
8
BLACK
6
CONTINUOUS
10
-1.0151024015748031
20
0.9721496062992125
11
-1.0151024015748031
21
0.9524645669291338
0
LINE
8
BLACK
6
CONTINUOUS
10
-1.0151024015748031
20
0.9524645669291338
11
-1.0158516141732283
21
0.9486979921259843
0
LINE
8
BLACK
6
CONTINUOUS
10
-1.0158516141732283
20
0.9486979921259843
11
-1.0179851968503937
21
0.945504842519685
0
LINE
8
BLACK
6
CONTINUOUS
10
-1.0179851968503937
20
0.945504842519685
11
-1.0211783464566928
21
0.9433712598425197
0
LINE
8
BLACK
6
CONTINUOUS
10
-1.0211783464566928
20
0.9433712598425197
11
-1.0249449212598425
21
0.9426220472440945
0
LINE
8
BLACK
6
CONTINUOUS
10
-1.0249449212598425
20
0.9426220472440945
11
-1.062346496062992
21
0.9426220472440945
0
LINE
8
BLACK
6
CONTINUOUS
10
-1.062346496062992
20
0.9426220472440945
11
-1.0661130708661417
21
0.9433712598425197
0
LINE
8
BLACK
6
CONTINUOUS
10
-1.0661130708661417
20
0.9433712598425197
11
-1.0693062204724408
21
0.945504842519685
0
LINE
8
BLACK
6
CONTINUOUS
10
-1.0693062204724408
20
0.945504842519685
11
-1.0714398031496062
21
0.9486979921259843
0
LINE
8
BLACK
6
CONTINUOUS
10
-1.0714398031496062
20
0.9486979921259843
11
-1.0721890157480314
21
0.9524645669291338
0
LINE
8
BLACK
6
CONTINUOUS
10
-1.0721890157480314
20
0.9524645669291338
11
-1.0721890157480314
21
0.9721496062992125
0
LINE
8
BLACK
6
CONTINUOUS
10
-1.0721890157480314
20
0.9721496062992125
11
-1.0714398031496062
21
0.9759161811023622
0
LINE
8
BLACK
6
CONTINUOUS
10
-1.0714398031496062
20
0.9759161811023622
11
-1.0693062204724408
21
0.9791093307086614
0
LINE
8
BLACK
6
CONTINUOUS
10
-1.0693062204724408
20
0.9791093307086614
11
-1.0661130708661417
21
0.9812429133858267
0
LINE
8
BLACK
6
CONTINUOUS
10
-1.0661130708661417
20
0.9812429133858267
11
-1.062346496062992
21
0.9819921259842519
0
LINE
8
BLACK
6
CONTINUOUS
10
-1.062346496062992
20
0.9819921259842519
11
-1.0249449212598425
21
0.9819921259842519
0
LINE
8
BLACK
6
CONTINUOUS
10
-1.0249449212598425
20
0.9819921259842519
11
-1.0211783464566928
21
0.9812429133858267
0
LINE
8
BLACK
6
CONTINUOUS
10
-0.6871783070866142
20
1.04305
11
-0.683985157480315
21
1.0409164173228347
0
LINE
8
BLACK
6
CONTINUOUS
10
-0.683985157480315
20
1.0409164173228347
11
-0.6818515748031496
21
1.0377232677165353
0
LINE
8
BLACK
6
CONTINUOUS
10
-0.6818515748031496
20
1.0377232677165353
11
-0.6811023622047244
21
1.0339566929133859
0
LINE
8
BLACK
6
CONTINUOUS
10
-0.6811023622047244
20
1.0339566929133859
11
-0.6811023622047244
21
1.0132874015748032
0
LINE
8
BLACK
6
CONTINUOUS
10
-0.6811023622047244
20
1.0132874015748032
11
-0.6818515748031496
21
1.0095208267716536
0
LINE
8
BLACK
6
CONTINUOUS
10
-0.6818515748031496
20
1.0095208267716536
11
-0.683985157480315
21
1.0063276771653542
0
LINE
8
BLACK
6
CONTINUOUS
10
-0.683985157480315
20
1.0063276771653542
11
-0.6871783070866142
21
1.0041940944881889
0
LINE
8
BLACK
6
CONTINUOUS
10
-0.6871783070866142
20
1.0041940944881889
11
-0.6909448818897638
21
1.0034448818897637
0
LINE
8
BLACK
6
CONTINUOUS
10
-0.6909448818897638
20
1.0034448818897637
11
-0.7263779527559054
21
1.0034448818897637
0
LINE
8
BLACK
6
CONTINUOUS
10
-0.7263779527559054
20
1.0034448818897637
11
-0.7301445275590551
21
1.0041940944881889
0
LINE
8
BLACK
6
CONTINUOUS
10
-0.7301445275590551
20
1.0041940944881889
11
-0.7333376771653544
21
1.0063276771653542
0
LINE
8
BLACK
6
CONTINUOUS
10
-0.7333376771653544
20
1.0063276771653542
11
-0.7354712598425197
21
1.0095208267716536
0
LINE
8
BLACK
6
CONTINUOUS
10
-0.7354712598425197
20
1.0095208267716536
11
-0.7362204724409449
21
1.0132874015748032
0
LINE
8
BLACK
6
CONTINUOUS
10
-0.7362204724409449
20
1.0132874015748032
11
-0.7362204724409449
21
1.0339566929133859
0
LINE
8
BLACK
6
CONTINUOUS
10
-0.7362204724409449
20
1.0339566929133859
11
-0.7354712598425197
21
1.0377232677165353
0
LINE
8
BLACK
6
CONTINUOUS
10
-0.7354712598425197
20
1.0377232677165353
11
-0.7333376771653544
21
1.0409164173228347
0
LINE
8
BLACK
6
CONTINUOUS
10
-0.7333376771653544
20
1.0409164173228347
11
-0.7301445275590551
21
1.04305
0
LINE
8
BLACK
6
CONTINUOUS
10
-0.7301445275590551
20
1.04305
11
-0.7263779527559054
21
1.0437992125984252
0
LINE
8
BLACK
6
CONTINUOUS
10
-0.7263779527559054
20
1.0437992125984252
11
-0.6909448818897638
21
1.0437992125984252
0
LINE
8
BLACK
6
CONTINUOUS
10
-0.6909448818897638
20
1.0437992125984252
11
-0.6871783070866142
21
1.04305
0
LINE
8
BLACK
6
CONTINUOUS
10
-1.0211783464566928
20
1.056046062992126
11
-1.0179851968503937
21
1.0539124803149607
0
LINE
8
BLACK
6
CONTINUOUS
10
-1.0179851968503937
20
1.0539124803149607
11
-1.0158516141732283
21
1.0507193307086613
0
LINE
8
BLACK
6
CONTINUOUS
10
-1.0158516141732283
20
1.0507193307086613
11
-1.0151024015748031
21
1.0469527559055118
0
LINE
8
BLACK
6
CONTINUOUS
10
-1.0151024015748031
20
1.0469527559055118
11
-1.0151024015748031
21
1.0272677165354331
0
LINE
8
BLACK
6
CONTINUOUS
10
-1.0151024015748031
20
1.0272677165354331
11
-1.0158516141732283
21
1.0235011417322835
0
LINE
8
BLACK
6
CONTINUOUS
10
-1.0158516141732283
20
1.0235011417322835
11
-1.0179851968503937
21
1.0203079921259843
0
LINE
8
BLACK
6
CONTINUOUS
10
-1.0179851968503937
20
1.0203079921259843
11
-1.0211783464566928
21
1.018174409448819
0
LINE
8
BLACK
6
CONTINUOUS
10
-1.0211783464566928
20
1.018174409448819
11
-1.0249449212598425
21
1.0174251968503938
0
LINE
8
BLACK
6
CONTINUOUS
10
-1.0249449212598425
20
1.0174251968503938
11
-1.062346496062992
21
1.0174251968503938
0
LINE
8
BLACK
6
CONTINUOUS
10
-1.062346496062992
20
1.0174251968503938
11
-1.0661130708661417
21
1.018174409448819
0
LINE
8
BLACK
6
CONTINUOUS
10
-1.0661130708661417
20
1.018174409448819
11
-1.0693062204724408
21
1.0203079921259843
0
LINE
8
BLACK
6
CONTINUOUS
10
-1.0693062204724408
20
1.0203079921259843
11
-1.0714398031496062
21
1.0235011417322835
0
LINE
8
BLACK
6
CONTINUOUS
10
-1.0714398031496062
20
1.0235011417322835
11
-1.0721890157480314
21
1.0272677165354331
0
LINE
8
BLACK
6
CONTINUOUS
10
-1.0721890157480314
20
1.0272677165354331
11
-1.0721890157480314
21
1.0469527559055118
0
LINE
8
BLACK
6
CONTINUOUS
10
-1.0721890157480314
20
1.0469527559055118
11
-1.0714398031496062
21
1.0507193307086613
0
LINE
8
BLACK
6
CONTINUOUS
10
-1.0714398031496062
20
1.0507193307086613
11
-1.0693062204724408
21
1.0539124803149607
0
LINE
8
BLACK
6
CONTINUOUS
10
-1.0693062204724408
20
1.0539124803149607
11
-1.0661130708661417
21
1.056046062992126
0
LINE
8
BLACK
6
CONTINUOUS
10
-1.0661130708661417
20
1.056046062992126
11
-1.062346496062992
21
1.0567952755905512
0
LINE
8
BLACK
6
CONTINUOUS
10
-1.062346496062992
20
1.0567952755905512
11
-1.0249449212598425
21
1.0567952755905512
0
LINE
8
BLACK
6
CONTINUOUS
10
-1.0249449212598425
20
1.0567952755905512
11
-1.0211783464566928
21
1.056046062992126
0
LINE
8
BLACK
6
CONTINUOUS
10
-0.6871783070866142
20
1.1149003937007873
11
-0.683985157480315
21
1.112766811023622
0
LINE
8
BLACK
6
CONTINUOUS
10
-0.683985157480315
20
1.112766811023622
11
-0.6818515748031496
21
1.1095736614173228
0
LINE
8
BLACK
6
CONTINUOUS
10
-0.6818515748031496
20
1.1095736614173228
11
-0.6811023622047244
21
1.1058070866141732
0
LINE
8
BLACK
6
CONTINUOUS
10
-0.6811023622047244
20
1.1058070866141732
11
-0.6811023622047244
21
1.0851377952755905
0
LINE
8
BLACK
6
CONTINUOUS
10
-0.6811023622047244
20
1.0851377952755905
11
-0.6818515748031496
21
1.0813712204724408
0
LINE
8
BLACK
6
CONTINUOUS
10
-0.6818515748031496
20
1.0813712204724408
11
-0.683985157480315
21
1.0781780708661417
0
LINE
8
BLACK
6
CONTINUOUS
10
-0.683985157480315
20
1.0781780708661417
11
-0.6871783070866142
21
1.0760444881889764
0
LINE
8
BLACK
6
CONTINUOUS
10
-0.6871783070866142
20
1.0760444881889764
11
-0.6909448818897638
21
1.0752952755905512
0
LINE
8
BLACK
6
CONTINUOUS
10
-0.6909448818897638
20
1.0752952755905512
11
-0.7263779527559054
21
1.0752952755905512
0
LINE
8
BLACK
6
CONTINUOUS
10
-0.7263779527559054
20
1.0752952755905512
11
-0.7301445275590551
21
1.0760444881889764
0
LINE
8
BLACK
6
CONTINUOUS
10
-0.7301445275590551
20
1.0760444881889764
11
-0.7333376771653544
21
1.0781780708661417
0
LINE
8
BLACK
6
CONTINUOUS
10
-0.7333376771653544
20
1.0781780708661417
11
-0.7354712598425197
21
1.0813712204724408
0
LINE
8
BLACK
6
CONTINUOUS
10
-0.7354712598425197
20
1.0813712204724408
11
-0.7362204724409449
21
1.0851377952755905
0
LINE
8
BLACK
6
CONTINUOUS
10
-0.7362204724409449
20
1.0851377952755905
11
-0.7362204724409449
21
1.1058070866141732
0
LINE
8
BLACK
6
CONTINUOUS
10
-0.7362204724409449
20
1.1058070866141732
11
-0.7354712598425197
21
1.1095736614173228
0
LINE
8
BLACK
6
CONTINUOUS
10
-0.7354712598425197
20
1.1095736614173228
11
-0.7333376771653544
21
1.112766811023622
0
LINE
8
BLACK
6
CONTINUOUS
10
-0.7333376771653544
20
1.112766811023622
11
-0.7301445275590551
21
1.1149003937007873
0
LINE
8
BLACK
6
CONTINUOUS
10
-0.7301445275590551
20
1.1149003937007873
11
-0.7263779527559054
21
1.1156496062992125
0
LINE
8
BLACK
6
CONTINUOUS
10
-0.7263779527559054
20
1.1156496062992125
11
-0.6909448818897638
21
1.1156496062992125
0
LINE
8
BLACK
6
CONTINUOUS
10
-0.6909448818897638
20
1.1156496062992125
11
-0.6871783070866142
21
1.1149003937007873
0
LINE
8
BLACK
6
CONTINUOUS
10
-0.9642525984251968
20
1.1606038976377953
11
-0.963135
21
1.1598571653543306
0
LINE
8
BLACK
6
CONTINUOUS
10
-0.963135
20
1.1598571653543306
11
-0.9623882677165354
21
1.1587395669291338
0
LINE
8
BLACK
6
CONTINUOUS
10
-0.9623882677165354
20
1.1587395669291338
11
-0.9621260236220472
21
1.1574212598425198
0
LINE
8
BLACK
6
CONTINUOUS
10
-0.9621260236220472
20
1.1574212598425198
11
-0.9621260236220472
21
1.1003346456692913
0
LINE
8
BLACK
6
CONTINUOUS
10
-0.9621260236220472
20
1.1003346456692913
11
-0.9623882677165354
21
1.0990163385826772
0
LINE
8
BLACK
6
CONTINUOUS
10
-0.9623882677165354
20
1.0990163385826772
11
-0.963135
21
1.0978987401574802
0
LINE
8
BLACK
6
CONTINUOUS
10
-0.963135
20
1.0978987401574802
11
-0.9642525984251968
21
1.0971520078740158
0
LINE
8
BLACK
6
CONTINUOUS
10
-0.9642525984251968
20
1.0971520078740158
11
-0.965570905511811
21
1.0968897637795276
0
LINE
8
BLACK
6
CONTINUOUS
10
-0.965570905511811
20
1.0968897637795276
11
-0.9724606692913386
21
1.0968897637795276
0
LINE
8
BLACK
6
CONTINUOUS
10
-0.9724606692913386
20
1.0968897637795276
11
-0.9737789763779527
21
1.0971520078740158
0
LINE
8
BLACK
6
CONTINUOUS
10
-0.9737789763779527
20
1.0971520078740158
11
-0.9748965748031496
21
1.0978987401574802
0
LINE
8
BLACK
6
CONTINUOUS
10
-0.9748965748031496
20
1.0978987401574802
11
-0.9756433070866142
21
1.0990163385826772
0
LINE
8
BLACK
6
CONTINUOUS
10
-0.9756433070866142
20
1.0990163385826772
11
-0.9759055511811023
21
1.1003346456692913
0
LINE
8
BLACK
6
CONTINUOUS
10
-0.9759055511811023
20
1.1003346456692913
11
-0.9759055511811023
21
1.1574212598425198
0
LINE
8
BLACK
6
CONTINUOUS
10
-0.9759055511811023
20
1.1574212598425198
11
-0.9756433070866142
21
1.1587395669291338
0
LINE
8
BLACK
6
CONTINUOUS
10
-0.9756433070866142
20
1.1587395669291338
11
-0.9748965748031496
21
1.1598571653543306
0
LINE
8
BLACK
6
CONTINUOUS
10
-0.9748965748031496
20
1.1598571653543306
11
-0.9737789763779527
21
1.1606038976377953
0
LINE
8
BLACK
6
CONTINUOUS
10
-0.9737789763779527
20
1.1606038976377953
11
-0.9724606692913386
21
1.1608661417322834
0
LINE
8
BLACK
6
CONTINUOUS
10
-0.9724606692913386
20
1.1608661417322834
11
-0.965570905511811
21
1.1608661417322834
0
LINE
8
BLACK
6
CONTINUOUS
10
-0.965570905511811
20
1.1608661417322834
11
-0.9642525984251968
21
1.1606038976377953
0
LINE
8
BLACK
6
CONTINUOUS
10
-0.9445675984251968
20
1.1606038976377953
11
-0.94345
21
1.1598571653543306
0
LINE
8
BLACK
6
CONTINUOUS
10
-0.94345
20
1.1598571653543306
11
-0.9427032677165355
21
1.1587395669291338
0
LINE
8
BLACK
6
CONTINUOUS
10
-0.9427032677165355
20
1.1587395669291338
11
-0.9424410236220472
21
1.1574212598425198
0
LINE
8
BLACK
6
CONTINUOUS
10
-0.9424410236220472
20
1.1574212598425198
11
-0.9424410236220472
21
1.1003346456692913
0
LINE
8
BLACK
6
CONTINUOUS
10
-0.9424410236220472
20
1.1003346456692913
11
-0.9427032677165355
21
1.0990163385826772
0
LINE
8
BLACK
6
CONTINUOUS
10
-0.9427032677165355
20
1.0990163385826772
11
-0.94345
21
1.0978987401574802
0
LINE
8
BLACK
6
CONTINUOUS
10
-0.94345
20
1.0978987401574802
11
-0.9445675984251968
21
1.0971520078740158
0
LINE
8
BLACK
6
CONTINUOUS
10
-0.9445675984251968
20
1.0971520078740158
11
-0.945885905511811
21
1.0968897637795276
0
LINE
8
BLACK
6
CONTINUOUS
10
-0.945885905511811
20
1.0968897637795276
11
-0.9527756692913386
21
1.0968897637795276
0
LINE
8
BLACK
6
CONTINUOUS
10
-0.9527756692913386
20
1.0968897637795276
11
-0.9540939763779527
21
1.0971520078740158
0
LINE
8
BLACK
6
CONTINUOUS
10
-0.9540939763779527
20
1.0971520078740158
11
-0.9552115748031496
21
1.0978987401574802
0
LINE
8
BLACK
6
CONTINUOUS
10
-0.9552115748031496
20
1.0978987401574802
11
-0.9559583070866141
21
1.0990163385826772
0
LINE
8
BLACK
6
CONTINUOUS
10
-0.9559583070866141
20
1.0990163385826772
11
-0.9562205511811024
21
1.1003346456692913
0
LINE
8
BLACK
6
CONTINUOUS
10
-0.9562205511811024
20
1.1003346456692913
11
-0.9562205511811024
21
1.1574212598425198
0
LINE
8
BLACK
6
CONTINUOUS
10
-0.9562205511811024
20
1.1574212598425198
11
-0.9559583070866141
21
1.1587395669291338
0
LINE
8
BLACK
6
CONTINUOUS
10
-0.9559583070866141
20
1.1587395669291338
11
-0.9552115748031496
21
1.1598571653543306
0
LINE
8
BLACK
6
CONTINUOUS
10
-0.9552115748031496
20
1.1598571653543306
11
-0.9540939763779527
21
1.1606038976377953
0
LINE
8
BLACK
6
CONTINUOUS
10
-0.9540939763779527
20
1.1606038976377953
11
-0.9527756692913386
21
1.1608661417322834
0
LINE
8
BLACK
6
CONTINUOUS
10
-0.9527756692913386
20
1.1608661417322834
11
-0.945885905511811
21
1.1608661417322834
0
LINE
8
BLACK
6
CONTINUOUS
10
-0.945885905511811
20
1.1608661417322834
11
-0.9445675984251968
21
1.1606038976377953
0
LINE
8
BLACK
6
CONTINUOUS
10
-0.9248825590551181
20
1.1606038976377953
11
-0.9237649606299212
21
1.1598571653543306
0
LINE
8
BLACK
6
CONTINUOUS
10
-0.9237649606299212
20
1.1598571653543306
11
-0.9230182283464566
21
1.1587395669291338
0
LINE
8
BLACK
6
CONTINUOUS
10
-0.9230182283464566
20
1.1587395669291338
11
-0.9227559842519685
21
1.1574212598425198
0
LINE
8
BLACK
6
CONTINUOUS
10
-0.9227559842519685
20
1.1574212598425198
11
-0.9227559842519685
21
1.1003346456692913
0
LINE
8
BLACK
6
CONTINUOUS
10
-0.9227559842519685
20
1.1003346456692913
11
-0.9230182283464566
21
1.0990163385826772
0
LINE
8
BLACK
6
CONTINUOUS
10
-0.9230182283464566
20
1.0990163385826772
11
-0.9237649606299212
21
1.0978987401574802
0
LINE
8
BLACK
6
CONTINUOUS
10
-0.9237649606299212
20
1.0978987401574802
11
-0.9248825590551181
21
1.0971520078740158
0
LINE
8
BLACK
6
CONTINUOUS
10
-0.9248825590551181
20
1.0971520078740158
11
-0.9262008661417322
21
1.0968897637795276
0
LINE
8
BLACK
6
CONTINUOUS
10
-0.9262008661417322
20
1.0968897637795276
11
-0.9330906299212598
21
1.0968897637795276
0
LINE
8
BLACK
6
CONTINUOUS
10
-0.9330906299212598
20
1.0968897637795276
11
-0.934408937007874
21
1.0971520078740158
0
LINE
8
BLACK
6
CONTINUOUS
10
-0.934408937007874
20
1.0971520078740158
11
-0.9355265354330708
21
1.0978987401574802
0
LINE
8
BLACK
6
CONTINUOUS
10
-0.9355265354330708
20
1.0978987401574802
11
-0.9362732677165354
21
1.0990163385826772
0
LINE
8
BLACK
6
CONTINUOUS
10
-0.9362732677165354
20
1.0990163385826772
11
-0.9365355118110236
21
1.1003346456692913
0
LINE
8
BLACK
6
CONTINUOUS
10
-0.9365355118110236
20
1.1003346456692913
11
-0.9365355118110236
21
1.1574212598425198
0
LINE
8
BLACK
6
CONTINUOUS
10
-0.9365355118110236
20
1.1574212598425198
11
-0.9362732677165354
21
1.1587395669291338
0
LINE
8
BLACK
6
CONTINUOUS
10
-0.9362732677165354
20
1.1587395669291338
11
-0.9355265354330708
21
1.1598571653543306
0
LINE
8
BLACK
6
CONTINUOUS
10
-0.9355265354330708
20
1.1598571653543306
11
-0.934408937007874
21
1.1606038976377953
0
LINE
8
BLACK
6
CONTINUOUS
10
-0.934408937007874
20
1.1606038976377953
11
-0.9330906299212598
21
1.1608661417322834
0
LINE
8
BLACK
6
CONTINUOUS
10
-0.9330906299212598
20
1.1608661417322834
11
-0.9262008661417322
21
1.1608661417322834
0
LINE
8
BLACK
6
CONTINUOUS
10
-0.9262008661417322
20
1.1608661417322834
11
-0.9248825590551181
21
1.1606038976377953
0
LINE
8
BLACK
6
CONTINUOUS
10
-0.9051975196850394
20
1.1606038976377953
11
-0.9040799212598425
21
1.1598571653543306
0
LINE
8
BLACK
6
CONTINUOUS
10
-0.9040799212598425
20
1.1598571653543306
11
-0.9033331889763779
21
1.1587395669291338
0
LINE
8
BLACK
6
CONTINUOUS
10
-0.9033331889763779
20
1.1587395669291338
11
-0.9030709448818898
21
1.1574212598425198
0
LINE
8
BLACK
6
CONTINUOUS
10
-0.9030709448818898
20
1.1574212598425198
11
-0.9030709448818898
21
1.1003346456692913
0
LINE
8
BLACK
6
CONTINUOUS
10
-0.9030709448818898
20
1.1003346456692913
11
-0.9033331889763779
21
1.0990163385826772
0
LINE
8
BLACK
6
CONTINUOUS
10
-0.9033331889763779
20
1.0990163385826772
11
-0.9040799212598425
21
1.0978987401574802
0
LINE
8
BLACK
6
CONTINUOUS
10
-0.9040799212598425
20
1.0978987401574802
11
-0.9051975196850394
21
1.0971520078740158
0
LINE
8
BLACK
6
CONTINUOUS
10
-0.9051975196850394
20
1.0971520078740158
11
-0.9065158267716535
21
1.0968897637795276
0
LINE
8
BLACK
6
CONTINUOUS
10
-0.9065158267716535
20
1.0968897637795276
11
-0.9134055905511811
21
1.0968897637795276
0
LINE
8
BLACK
6
CONTINUOUS
10
-0.9134055905511811
20
1.0968897637795276
11
-0.9147238976377953
21
1.0971520078740158
0
LINE
8
BLACK
6
CONTINUOUS
10
-0.9147238976377953
20
1.0971520078740158
11
-0.9158414960629921
21
1.0978987401574802
0
LINE
8
BLACK
6
CONTINUOUS
10
-0.9158414960629921
20
1.0978987401574802
11
-0.9165882283464567
21
1.0990163385826772
0
LINE
8
BLACK
6
CONTINUOUS
10
-0.9165882283464567
20
1.0990163385826772
11
-0.9168504724409449
21
1.1003346456692913
0
LINE
8
BLACK
6
CONTINUOUS
10
-0.9168504724409449
20
1.1003346456692913
11
-0.9168504724409449
21
1.1574212598425198
0
LINE
8
BLACK
6
CONTINUOUS
10
-0.9168504724409449
20
1.1574212598425198
11
-0.9165882283464567
21
1.1587395669291338
0
LINE
8
BLACK
6
CONTINUOUS
10
-0.9165882283464567
20
1.1587395669291338
11
-0.9158414960629921
21
1.1598571653543306
0
LINE
8
BLACK
6
CONTINUOUS
10
-0.9158414960629921
20
1.1598571653543306
11
-0.9147238976377953
21
1.1606038976377953
0
LINE
8
BLACK
6
CONTINUOUS
10
-0.9147238976377953
20
1.1606038976377953
11
-0.9134055905511811
21
1.1608661417322834
0
LINE
8
BLACK
6
CONTINUOUS
10
-0.9134055905511811
20
1.1608661417322834
11
-0.9065158267716535
21
1.1608661417322834
0
LINE
8
BLACK
6
CONTINUOUS
10
-0.9065158267716535
20
1.1608661417322834
11
-0.9051975196850394
21
1.1606038976377953
0
LINE
8
BLACK
6
CONTINUOUS
10
-0.8855125196850393
20
1.1606038976377953
11
-0.8843949212598425
21
1.1598571653543306
0
LINE
8
BLACK
6
CONTINUOUS
10
-0.8843949212598425
20
1.1598571653543306
11
-0.883648188976378
21
1.1587395669291338
0
LINE
8
BLACK
6
CONTINUOUS
10
-0.883648188976378
20
1.1587395669291338
11
-0.8833859448818897
21
1.1574212598425198
0
LINE
8
BLACK
6
CONTINUOUS
10
-0.8833859448818897
20
1.1574212598425198
11
-0.8833859448818897
21
1.1003346456692913
0
LINE
8
BLACK
6
CONTINUOUS
10
-0.8833859448818897
20
1.1003346456692913
11
-0.883648188976378
21
1.0990163385826772
0
LINE
8
BLACK
6
CONTINUOUS
10
-0.883648188976378
20
1.0990163385826772
11
-0.8843949212598425
21
1.0978987401574802
0
LINE
8
BLACK
6
CONTINUOUS
10
-0.8843949212598425
20
1.0978987401574802
11
-0.8855125196850393
21
1.0971520078740158
0
LINE
8
BLACK
6
CONTINUOUS
10
-0.8855125196850393
20
1.0971520078740158
11
-0.8868308267716535
21
1.0968897637795276
0
LINE
8
BLACK
6
CONTINUOUS
10
-0.8868308267716535
20
1.0968897637795276
11
-0.893720590551181
21
1.0968897637795276
0
LINE
8
BLACK
6
CONTINUOUS
10
-0.893720590551181
20
1.0968897637795276
11
-0.8950388976377952
21
1.0971520078740158
0
LINE
8
BLACK
6
CONTINUOUS
10
-0.8950388976377952
20
1.0971520078740158
11
-0.8961564960629921
21
1.0978987401574802
0
LINE
8
BLACK
6
CONTINUOUS
10
-0.8961564960629921
20
1.0978987401574802
11
-0.8969032283464566
21
1.0990163385826772
0
LINE
8
BLACK
6
CONTINUOUS
10
-0.8969032283464566
20
1.0990163385826772
11
-0.8971654724409449
21
1.1003346456692913
0
LINE
8
BLACK
6
CONTINUOUS
10
-0.8971654724409449
20
1.1003346456692913
11
-0.8971654724409449
21
1.1574212598425198
0
LINE
8
BLACK
6
CONTINUOUS
10
-0.8971654724409449
20
1.1574212598425198
11
-0.8969032283464566
21
1.1587395669291338
0
LINE
8
BLACK
6
CONTINUOUS
10
-0.8969032283464566
20
1.1587395669291338
11
-0.8961564960629921
21
1.1598571653543306
0
LINE
8
BLACK
6
CONTINUOUS
10
-0.8961564960629921
20
1.1598571653543306
11
-0.8950388976377952
21
1.1606038976377953
0
LINE
8
BLACK
6
CONTINUOUS
10
-0.8950388976377952
20
1.1606038976377953
11
-0.893720590551181
21
1.1608661417322834
0
LINE
8
BLACK
6
CONTINUOUS
10
-0.893720590551181
20
1.1608661417322834
11
-0.8868308267716535
21
1.1608661417322834
0
LINE
8
BLACK
6
CONTINUOUS
10
-0.8868308267716535
20
1.1608661417322834
11
-0.8855125196850393
21
1.1606038976377953
0
LINE
8
BLACK
6
CONTINUOUS
10
-0.6871783070866142
20
1.1769082677165355
11
-0.683985157480315
21
1.1747746850393701
0
LINE
8
BLACK
6
CONTINUOUS
10
-0.683985157480315
20
1.1747746850393701
11
-0.6818515748031496
21
1.1715815354330708
0
LINE
8
BLACK
6
CONTINUOUS
10
-0.6818515748031496
20
1.1715815354330708
11
-0.6811023622047244
21
1.1678149606299213
0
LINE
8
BLACK
6
CONTINUOUS
10
-0.6811023622047244
20
1.1678149606299213
11
-0.6811023622047244
21
1.1471456692913387
0
LINE
8
BLACK
6
CONTINUOUS
10
-0.6811023622047244
20
1.1471456692913387
11
-0.6818515748031496
21
1.143379094488189
0
LINE
8
BLACK
6
CONTINUOUS
10
-0.6818515748031496
20
1.143379094488189
11
-0.683985157480315
21
1.1401859448818898
0
LINE
8
BLACK
6
CONTINUOUS
10
-0.683985157480315
20
1.1401859448818898
11
-0.6871783070866142
21
1.1380523622047243
0
LINE
8
BLACK
6
CONTINUOUS
10
-0.6871783070866142
20
1.1380523622047243
11
-0.6909448818897638
21
1.1373031496062991
0
LINE
8
BLACK
6
CONTINUOUS
10
-0.6909448818897638
20
1.1373031496062991
11
-0.7263779527559054
21
1.1373031496062991
0
LINE
8
BLACK
6
CONTINUOUS
10
-0.7263779527559054
20
1.1373031496062991
11
-0.7301445275590551
21
1.1380523622047243
0
LINE
8
BLACK
6
CONTINUOUS
10
-0.7301445275590551
20
1.1380523622047243
11
-0.7333376771653544
21
1.1401859448818898
0
LINE
8
BLACK
6
CONTINUOUS
10
-0.7333376771653544
20
1.1401859448818898
11
-0.7354712598425197
21
1.143379094488189
0
LINE
8
BLACK
6
CONTINUOUS
10
-0.7354712598425197
20
1.143379094488189
11
-0.7362204724409449
21
1.1471456692913387
0
LINE
8
BLACK
6
CONTINUOUS
10
-0.7362204724409449
20
1.1471456692913387
11
-0.7362204724409449
21
1.1678149606299213
0
LINE
8
BLACK
6
CONTINUOUS
10
-0.7362204724409449
20
1.1678149606299213
11
-0.7354712598425197
21
1.1715815354330708
0
LINE
8
BLACK
6
CONTINUOUS
10
-0.7354712598425197
20
1.1715815354330708
11
-0.7333376771653544
21
1.1747746850393701
0
LINE
8
BLACK
6
CONTINUOUS
10
-0.7333376771653544
20
1.1747746850393701
11
-0.7301445275590551
21
1.1769082677165355
0
LINE
8
BLACK
6
CONTINUOUS
10
-0.7301445275590551
20
1.1769082677165355
11
-0.7263779527559054
21
1.1776574803149606
0
LINE
8
BLACK
6
CONTINUOUS
10
-0.7263779527559054
20
1.1776574803149606
11
-0.6909448818897638
21
1.1776574803149606
0
LINE
8
BLACK
6
CONTINUOUS
10
-0.6909448818897638
20
1.1776574803149606
11
-0.6871783070866142
21
1.1769082677165355
0
LINE
8
BLACK
6
CONTINUOUS
10
-1.4645669291338583
20
1.1692913385826771
11
-1.5039370078740157
21
1.1692913385826771
0
LINE
8
BLACK
6
CONTINUOUS
10
-1.5039370078740157
20
1.1692913385826771
11
-1.5039370078740157
21
1.3188976377952755
0
LINE
8
BLACK
6
CONTINUOUS
10
-1.5039370078740157
20
1.3188976377952755
11
-1.4645669291338583
21
1.3188976377952755
0
LINE
8
BLACK
6
CONTINUOUS
10
-1.4645669291338583
20
1.3188976377952755
11
-1.4645669291338583
21
1.1692913385826771
0
LINE
8
BLACK
6
CONTINUOUS
10
-0.2125984251968504
20
1.1692913385826771
11
-0.2519685039370079
21
1.1692913385826771
0
LINE
8
BLACK
6
CONTINUOUS
10
-0.2519685039370079
20
1.1692913385826771
11
-0.2519685039370079
21
1.3188976377952755
0
LINE
8
BLACK
6
CONTINUOUS
10
-0.2519685039370079
20
1.3188976377952755
11
-0.2125984251968504
21
1.3188976377952755
0
LINE
8
BLACK
6
CONTINUOUS
10
-0.2125984251968504
20
1.3188976377952755
11
-0.2125984251968504
21
1.1692913385826771
0
LINE
8
BLACK
6
CONTINUOUS
10
-0.9334381496062992
20
1.2635027952755906
11
-0.930245
21
1.2613692125984253
0
LINE
8
BLACK
6
CONTINUOUS
10
-0.930245
20
1.2613692125984253
11
-0.9281114173228346
21
1.2581760629921259
0
LINE
8
BLACK
6
CONTINUOUS
10
-0.9281114173228346
20
1.2581760629921259
11
-0.9273622047244094
21
1.2544094881889762
0
LINE
8
BLACK
6
CONTINUOUS
10
-0.9273622047244094
20
1.2544094881889762
11
-0.9273622047244094
21
1.2170079133858267
0
LINE
8
BLACK
6
CONTINUOUS
10
-0.9273622047244094
20
1.2170079133858267
11
-0.9281114173228346
21
1.2132413385826772
0
LINE
8
BLACK
6
CONTINUOUS
10
-0.9281114173228346
20
1.2132413385826772
11
-0.930245
21
1.2100481889763779
0
LINE
8
BLACK
6
CONTINUOUS
10
-0.930245
20
1.2100481889763779
11
-0.9334381496062992
21
1.2079146062992125
0
LINE
8
BLACK
6
CONTINUOUS
10
-0.9334381496062992
20
1.2079146062992125
11
-0.9372047244094488
21
1.2071653937007873
0
LINE
8
BLACK
6
CONTINUOUS
10
-0.9372047244094488
20
1.2071653937007873
11
-0.9568897637795275
21
1.2071653937007873
0
LINE
8
BLACK
6
CONTINUOUS
10
-0.9568897637795275
20
1.2071653937007873
11
-0.9606563385826772
21
1.2079146062992125
0
LINE
8
BLACK
6
CONTINUOUS
10
-0.9606563385826772
20
1.2079146062992125
11
-0.9638494881889763
21
1.2100481889763779
0
LINE
8
BLACK
6
CONTINUOUS
10
-0.9638494881889763
20
1.2100481889763779
11
-0.9659830708661417
21
1.2132413385826772
0
LINE
8
BLACK
6
CONTINUOUS
10
-0.9659830708661417
20
1.2132413385826772
11
-0.9667322834645669
21
1.2170079133858267
0
LINE
8
BLACK
6
CONTINUOUS
10
-0.9667322834645669
20
1.2170079133858267
11
-0.9667322834645669
21
1.2544094881889762
0
LINE
8
BLACK
6
CONTINUOUS
10
-0.9667322834645669
20
1.2544094881889762
11
-0.9659830708661417
21
1.2581760629921259
0
LINE
8
BLACK
6
CONTINUOUS
10
-0.9659830708661417
20
1.2581760629921259
11
-0.9638494881889763
21
1.2613692125984253
0
LINE
8
BLACK
6
CONTINUOUS
10
-0.9638494881889763
20
1.2613692125984253
11
-0.9606563385826772
21
1.2635027952755906
0
LINE
8
BLACK
6
CONTINUOUS
10
-0.9606563385826772
20
1.2635027952755906
11
-0.9568897637795275
21
1.2642520078740158
0
LINE
8
BLACK
6
CONTINUOUS
10
-0.9568897637795275
20
1.2642520078740158
11
-0.9372047244094488
21
1.2642520078740158
0
LINE
8
BLACK
6
CONTINUOUS
10
-0.9372047244094488
20
1.2642520078740158
11
-0.9334381496062992
21
1.2635027952755906
0
LINE
8
BLACK
6
CONTINUOUS
10
-0.8586349999999999
20
1.2635027952755906
11
-0.8554418503937008
21
1.2613692125984253
0
LINE
8
BLACK
6
CONTINUOUS
10
-0.8554418503937008
20
1.2613692125984253
11
-0.8533082677165355
21
1.2581760629921259
0
LINE
8
BLACK
6
CONTINUOUS
10
-0.8533082677165355
20
1.2581760629921259
11
-0.8525590551181103
21
1.2544094881889762
0
LINE
8
BLACK
6
CONTINUOUS
10
-0.8525590551181103
20
1.2544094881889762
11
-0.8525590551181103
21
1.2170079133858267
0
LINE
8
BLACK
6
CONTINUOUS
10
-0.8525590551181103
20
1.2170079133858267
11
-0.8533082677165355
21
1.2132413385826772
0
LINE
8
BLACK
6
CONTINUOUS
10
-0.8533082677165355
20
1.2132413385826772
11
-0.8554418503937008
21
1.2100481889763779
0
LINE
8
BLACK
6
CONTINUOUS
10
-0.8554418503937008
20
1.2100481889763779
11
-0.8586349999999999
21
1.2079146062992125
0
LINE
8
BLACK
6
CONTINUOUS
10
-0.8586349999999999
20
1.2079146062992125
11
-0.8624015748031496
21
1.2071653937007873
0
LINE
8
BLACK
6
CONTINUOUS
10
-0.8624015748031496
20
1.2071653937007873
11
-0.8820866141732283
21
1.2071653937007873
0
LINE
8
BLACK
6
CONTINUOUS
10
-0.8820866141732283
20
1.2071653937007873
11
-0.8858531889763779
21
1.2079146062992125
0
LINE
8
BLACK
6
CONTINUOUS
10
-0.8858531889763779
20
1.2079146062992125
11
-0.8890463385826771
21
1.2100481889763779
0
LINE
8
BLACK
6
CONTINUOUS
10
-0.8890463385826771
20
1.2100481889763779
11
-0.8911799212598425
21
1.2132413385826772
0
LINE
8
BLACK
6
CONTINUOUS
10
-0.8911799212598425
20
1.2132413385826772
11
-0.8919291338582677
21
1.2170079133858267
0
LINE
8
BLACK
6
CONTINUOUS
10
-0.8919291338582677
20
1.2170079133858267
11
-0.8919291338582677
21
1.2544094881889762
0
LINE
8
BLACK
6
CONTINUOUS
10
-0.8919291338582677
20
1.2544094881889762
11
-0.8911799212598425
21
1.2581760629921259
0
LINE
8
BLACK
6
CONTINUOUS
10
-0.8911799212598425
20
1.2581760629921259
11
-0.8890463385826771
21
1.2613692125984253
0
LINE
8
BLACK
6
CONTINUOUS
10
-0.8890463385826771
20
1.2613692125984253
11
-0.8858531889763779
21
1.2635027952755906
0
LINE
8
BLACK
6
CONTINUOUS
10
-0.8858531889763779
20
1.2635027952755906
11
-0.8820866141732283
21
1.2642520078740158
0
LINE
8
BLACK
6
CONTINUOUS
10
-0.8820866141732283
20
1.2642520078740158
11
-0.8624015748031496
21
1.2642520078740158
0
LINE
8
BLACK
6
CONTINUOUS
10
-0.8624015748031496
20
1.2642520078740158
11
-0.8586349999999999
21
1.2635027952755906
0
LINE
8
BLACK
6
CONTINUOUS
10
-0.6871783070866142
20
1.2487586614173227
11
-0.683985157480315
21
1.2466250787401574
0
LINE
8
BLACK
6
CONTINUOUS
10
-0.683985157480315
20
1.2466250787401574
11
-0.6818515748031496
21
1.2434319291338582
0
LINE
8
BLACK
6
CONTINUOUS
10
-0.6818515748031496
20
1.2434319291338582
11
-0.6811023622047244
21
1.2396653543307086
0
LINE
8
BLACK
6
CONTINUOUS
10
-0.6811023622047244
20
1.2396653543307086
11
-0.6811023622047244
21
1.2189960629921259
0
LINE
8
BLACK
6
CONTINUOUS
10
-0.6811023622047244
20
1.2189960629921259
11
-0.6818515748031496
21
1.2152294881889762
0
LINE
8
BLACK
6
CONTINUOUS
10
-0.6818515748031496
20
1.2152294881889762
11
-0.683985157480315
21
1.2120363385826771
0
LINE
8
BLACK
6
CONTINUOUS
10
-0.683985157480315
20
1.2120363385826771
11
-0.6871783070866142
21
1.2099027559055118
0
LINE
8
BLACK
6
CONTINUOUS
10
-0.6871783070866142
20
1.2099027559055118
11
-0.6909448818897638
21
1.2091535433070866
0
LINE
8
BLACK
6
CONTINUOUS
10
-0.6909448818897638
20
1.2091535433070866
11
-0.7263779527559054
21
1.2091535433070866
0
LINE
8
BLACK
6
CONTINUOUS
10
-0.7263779527559054
20
1.2091535433070866
11
-0.7301445275590551
21
1.2099027559055118
0
LINE
8
BLACK
6
CONTINUOUS
10
-0.7301445275590551
20
1.2099027559055118
11
-0.7333376771653544
21
1.2120363385826771
0
LINE
8
BLACK
6
CONTINUOUS
10
-0.7333376771653544
20
1.2120363385826771
11
-0.7354712598425197
21
1.2152294881889762
0
LINE
8
BLACK
6
CONTINUOUS
10
-0.7354712598425197
20
1.2152294881889762
11
-0.7362204724409449
21
1.2189960629921259
0
LINE
8
BLACK
6
CONTINUOUS
10
-0.7362204724409449
20
1.2189960629921259
11
-0.7362204724409449
21
1.2396653543307086
0
LINE
8
BLACK
6
CONTINUOUS
10
-0.7362204724409449
20
1.2396653543307086
11
-0.7354712598425197
21
1.2434319291338582
0
LINE
8
BLACK
6
CONTINUOUS
10
-0.7354712598425197
20
1.2434319291338582
11
-0.7333376771653544
21
1.2466250787401574
0
LINE
8
BLACK
6
CONTINUOUS
10
-0.7333376771653544
20
1.2466250787401574
11
-0.7301445275590551
21
1.2487586614173227
0
LINE
8
BLACK
6
CONTINUOUS
10
-0.7301445275590551
20
1.2487586614173227
11
-0.7263779527559054
21
1.2495078740157479
0
LINE
8
BLACK
6
CONTINUOUS
10
-0.7263779527559054
20
1.2495078740157479
11
-0.6909448818897638
21
1.2495078740157479
0
LINE
8
BLACK
6
CONTINUOUS
10
-0.6909448818897638
20
1.2495078740157479
11
-0.6871783070866142
21
1.2487586614173227
0
LINE
8
BLACK
6
CONTINUOUS
10
-0.7654565748031495
20
1.3509284251968503
11
-0.7635407086614173
21
1.3496482677165353
0
LINE
8
BLACK
6
CONTINUOUS
10
-0.7635407086614173
20
1.3496482677165353
11
-0.7622605511811024
21
1.3477324015748031
0
LINE
8
BLACK
6
CONTINUOUS
10
-0.7622605511811024
20
1.3477324015748031
11
-0.7618110236220472
21
1.3454724409448819
0
LINE
8
BLACK
6
CONTINUOUS
10
-0.7618110236220472
20
1.3454724409448819
11
-0.7618110236220472
21
1.3051181102362204
0
LINE
8
BLACK
6
CONTINUOUS
10
-0.7618110236220472
20
1.3051181102362204
11
-0.7622605511811024
21
1.3028581496062992
0
LINE
8
BLACK
6
CONTINUOUS
10
-0.7622605511811024
20
1.3028581496062992
11
-0.7635407086614173
21
1.300942283464567
0
LINE
8
BLACK
6
CONTINUOUS
10
-0.7635407086614173
20
1.300942283464567
11
-0.7654565748031495
21
1.299662125984252
0
LINE
8
BLACK
6
CONTINUOUS
10
-0.7654565748031495
20
1.299662125984252
11
-0.7677165354330708
21
1.2992125984251968
0
LINE
8
BLACK
6
CONTINUOUS
10
-0.7677165354330708
20
1.2992125984251968
11
-0.7795275590551181
21
1.2992125984251968
0
LINE
8
BLACK
6
CONTINUOUS
10
-0.7795275590551181
20
1.2992125984251968
11
-0.7817875196850393
21
1.299662125984252
0
LINE
8
BLACK
6
CONTINUOUS
10
-0.7817875196850393
20
1.299662125984252
11
-0.7837033858267717
21
1.300942283464567
0
LINE
8
BLACK
6
CONTINUOUS
10
-0.7837033858267717
20
1.300942283464567
11
-0.7849835433070866
21
1.3028581496062992
0
LINE
8
BLACK
6
CONTINUOUS
10
-0.7849835433070866
20
1.3028581496062992
11
-0.7854330708661417
21
1.3051181102362204
0
LINE
8
BLACK
6
CONTINUOUS
10
-0.7854330708661417
20
1.3051181102362204
11
-0.7854330708661417
21
1.3454724409448819
0
LINE
8
BLACK
6
CONTINUOUS
10
-0.7854330708661417
20
1.3454724409448819
11
-0.7849835433070866
21
1.3477324015748031
0
LINE
8
BLACK
6
CONTINUOUS
10
-0.7849835433070866
20
1.3477324015748031
11
-0.7837033858267717
21
1.3496482677165353
0
LINE
8
BLACK
6
CONTINUOUS
10
-0.7837033858267717
20
1.3496482677165353
11
-0.7817875196850393
21
1.3509284251968503
0
LINE
8
BLACK
6
CONTINUOUS
10
-0.7817875196850393
20
1.3509284251968503
11
-0.7795275590551181
21
1.3513779527559056
0
LINE
8
BLACK
6
CONTINUOUS
10
-0.7795275590551181
20
1.3513779527559056
11
-0.7677165354330708
21
1.3513779527559056
0
LINE
8
BLACK
6
CONTINUOUS
10
-0.7677165354330708
20
1.3513779527559056
11
-0.7654565748031495
21
1.3509284251968503
0
LINE
8
BLACK
6
CONTINUOUS
10
-0.728055
20
1.3509284251968503
11
-0.7261391338582677
21
1.3496482677165353
0
LINE
8
BLACK
6
CONTINUOUS
10
-0.7261391338582677
20
1.3496482677165353
11
-0.7248589763779527
21
1.3477324015748031
0
LINE
8
BLACK
6
CONTINUOUS
10
-0.7248589763779527
20
1.3477324015748031
11
-0.7244094488188976
21
1.3454724409448819
0
LINE
8
BLACK
6
CONTINUOUS
10
-0.7244094488188976
20
1.3454724409448819
11
-0.7244094488188976
21
1.3051181102362204
0
LINE
8
BLACK
6
CONTINUOUS
10
-0.7244094488188976
20
1.3051181102362204
11
-0.7248589763779527
21
1.3028581496062992
0
LINE
8
BLACK
6
CONTINUOUS
10
-0.7248589763779527
20
1.3028581496062992
11
-0.7261391338582677
21
1.300942283464567
0
LINE
8
BLACK
6
CONTINUOUS
10
-0.7261391338582677
20
1.300942283464567
11
-0.728055
21
1.299662125984252
0
LINE
8
BLACK
6
CONTINUOUS
10
-0.728055
20
1.299662125984252
11
-0.7303149606299213
21
1.2992125984251968
0
LINE
8
BLACK
6
CONTINUOUS
10
-0.7303149606299213
20
1.2992125984251968
11
-0.7421259842519685
21
1.2992125984251968
0
LINE
8
BLACK
6
CONTINUOUS
10
-0.7421259842519685
20
1.2992125984251968
11
-0.7443859448818897
21
1.299662125984252
0
LINE
8
BLACK
6
CONTINUOUS
10
-0.7443859448818897
20
1.299662125984252
11
-0.746301811023622
21
1.300942283464567
0
LINE
8
BLACK
6
CONTINUOUS
10
-0.746301811023622
20
1.300942283464567
11
-0.747581968503937
21
1.3028581496062992
0
LINE
8
BLACK
6
CONTINUOUS
10
-0.747581968503937
20
1.3028581496062992
11
-0.7480314960629921
21
1.3051181102362204
0
LINE
8
BLACK
6
CONTINUOUS
10
-0.7480314960629921
20
1.3051181102362204
11
-0.7480314960629921
21
1.3454724409448819
0
LINE
8
BLACK
6
CONTINUOUS
10
-0.7480314960629921
20
1.3454724409448819
11
-0.747581968503937
21
1.3477324015748031
0
LINE
8
BLACK
6
CONTINUOUS
10
-0.747581968503937
20
1.3477324015748031
11
-0.746301811023622
21
1.3496482677165353
0
LINE
8
BLACK
6
CONTINUOUS
10
-0.746301811023622
20
1.3496482677165353
11
-0.7443859448818897
21
1.3509284251968503
0
LINE
8
BLACK
6
CONTINUOUS
10
-0.7443859448818897
20
1.3509284251968503
11
-0.7421259842519685
21
1.3513779527559056
0
LINE
8
BLACK
6
CONTINUOUS
10
-0.7421259842519685
20
1.3513779527559056
11
-0.7303149606299213
21
1.3513779527559056
0
LINE
8
BLACK
6
CONTINUOUS
10
-0.7303149606299213
20
1.3513779527559056
11
-0.728055
21
1.3509284251968503
0
LINE
8
BLACK
6
CONTINUOUS
10
-0.6906534251968504
20
1.3509284251968503
11
-0.6887375590551181
21
1.3496482677165353
0
LINE
8
BLACK
6
CONTINUOUS
10
-0.6887375590551181
20
1.3496482677165353
11
-0.6874574015748032
21
1.3477324015748031
0
LINE
8
BLACK
6
CONTINUOUS
10
-0.6874574015748032
20
1.3477324015748031
11
-0.687007874015748
21
1.3454724409448819
0
LINE
8
BLACK
6
CONTINUOUS
10
-0.687007874015748
20
1.3454724409448819
11
-0.687007874015748
21
1.3051181102362204
0
LINE
8
BLACK
6
CONTINUOUS
10
-0.687007874015748
20
1.3051181102362204
11
-0.6874574015748032
21
1.3028581496062992
0
LINE
8
BLACK
6
CONTINUOUS
10
-0.6874574015748032
20
1.3028581496062992
11
-0.6887375590551181
21
1.300942283464567
0
LINE
8
BLACK
6
CONTINUOUS
10
-0.6887375590551181
20
1.300942283464567
11
-0.6906534251968504
21
1.299662125984252
0
LINE
8
BLACK
6
CONTINUOUS
10
-0.6906534251968504
20
1.299662125984252
11
-0.6929133858267716
21
1.2992125984251968
0
LINE
8
BLACK
6
CONTINUOUS
10
-0.6929133858267716
20
1.2992125984251968
11
-0.7047244094488189
21
1.2992125984251968
0
LINE
8
BLACK
6
CONTINUOUS
10
-0.7047244094488189
20
1.2992125984251968
11
-0.7069843700787402
21
1.299662125984252
0
LINE
8
BLACK
6
CONTINUOUS
10
-0.7069843700787402
20
1.299662125984252
11
-0.7089002362204724
21
1.300942283464567
0
LINE
8
BLACK
6
CONTINUOUS
10
-0.7089002362204724
20
1.300942283464567
11
-0.7101803937007873
21
1.3028581496062992
0
LINE
8
BLACK
6
CONTINUOUS
10
-0.7101803937007873
20
1.3028581496062992
11
-0.7106299212598425
21
1.3051181102362204
0
LINE
8
BLACK
6
CONTINUOUS
10
-0.7106299212598425
20
1.3051181102362204
11
-0.7106299212598425
21
1.3454724409448819
0
LINE
8
BLACK
6
CONTINUOUS
10
-0.7106299212598425
20
1.3454724409448819
11
-0.7101803937007873
21
1.3477324015748031
0
LINE
8
BLACK
6
CONTINUOUS
10
-0.7101803937007873
20
1.3477324015748031
11
-0.7089002362204724
21
1.3496482677165353
0
LINE
8
BLACK
6
CONTINUOUS
10
-0.7089002362204724
20
1.3496482677165353
11
-0.7069843700787402
21
1.3509284251968503
0
LINE
8
BLACK
6
CONTINUOUS
10
-0.7069843700787402
20
1.3509284251968503
11
-0.7047244094488189
21
1.3513779527559056
0
LINE
8
BLACK
6
CONTINUOUS
10
-0.7047244094488189
20
1.3513779527559056
11
-0.6929133858267716
21
1.3513779527559056
0
LINE
8
BLACK
6
CONTINUOUS
10
-0.6929133858267716
20
1.3513779527559056
11
-0.6906534251968504
21
1.3509284251968503
0
LINE
8
BLACK
6
CONTINUOUS
10
-0.5917058661417323
20
1.3575185039370079
11
-0.588512716535433
21
1.3553849212598426
0
LINE
8
BLACK
6
CONTINUOUS
10
-0.588512716535433
20
1.3553849212598426
11
-0.5863791338582677
21
1.3521917716535432
0
LINE
8
BLACK
6
CONTINUOUS
10
-0.5863791338582677
20
1.3521917716535432
11
-0.5856299212598425
21
1.3484251968503937
0
LINE
8
BLACK
6
CONTINUOUS
10
-0.5856299212598425
20
1.3484251968503937
11
-0.5856299212598425
21
1.3287401574803148
0
LINE
8
BLACK
6
CONTINUOUS
10
-0.5856299212598425
20
1.3287401574803148
11
-0.5863791338582677
21
1.3249735826771654
0
LINE
8
BLACK
6
CONTINUOUS
10
-0.5863791338582677
20
1.3249735826771654
11
-0.588512716535433
21
1.321780433070866
0
LINE
8
BLACK
6
CONTINUOUS
10
-0.588512716535433
20
1.321780433070866
11
-0.5917058661417323
21
1.3196468503937007
0
LINE
8
BLACK
6
CONTINUOUS
10
-0.5917058661417323
20
1.3196468503937007
11
-0.5954724409448818
21
1.3188976377952755
0
LINE
8
BLACK
6
CONTINUOUS
10
-0.5954724409448818
20
1.3188976377952755
11
-0.6328740157480315
21
1.3188976377952755
0
LINE
8
BLACK
6
CONTINUOUS
10
-0.6328740157480315
20
1.3188976377952755
11
-0.6366405905511811
21
1.3196468503937007
0
LINE
8
BLACK
6
CONTINUOUS
10
-0.6366405905511811
20
1.3196468503937007
11
-0.6398337401574803
21
1.321780433070866
0
LINE
8
BLACK
6
CONTINUOUS
10
-0.6398337401574803
20
1.321780433070866
11
-0.6419673228346456
21
1.3249735826771654
0
LINE
8
BLACK
6
CONTINUOUS
10
-0.6419673228346456
20
1.3249735826771654
11
-0.6427165354330708
21
1.3287401574803148
0
LINE
8
BLACK
6
CONTINUOUS
10
-0.6427165354330708
20
1.3287401574803148
11
-0.6427165354330708
21
1.3484251968503937
0
LINE
8
BLACK
6
CONTINUOUS
10
-0.6427165354330708
20
1.3484251968503937
11
-0.6419673228346456
21
1.3521917716535432
0
LINE
8
BLACK
6
CONTINUOUS
10
-0.6419673228346456
20
1.3521917716535432
11
-0.6398337401574803
21
1.3553849212598426
0
LINE
8
BLACK
6
CONTINUOUS
10
-0.6398337401574803
20
1.3553849212598426
11
-0.6366405905511811
21
1.3575185039370079
0
LINE
8
BLACK
6
CONTINUOUS
10
-0.6366405905511811
20
1.3575185039370079
11
-0.6328740157480315
21
1.3582677165354331
0
LINE
8
BLACK
6
CONTINUOUS
10
-0.6328740157480315
20
1.3582677165354331
11
-0.5954724409448818
21
1.3582677165354331
0
LINE
8
BLACK
6
CONTINUOUS
10
-0.5954724409448818
20
1.3582677165354331
11
-0.5917058661417323
21
1.3575185039370079
0
LINE
8
BLACK
6
CONTINUOUS
10
-0.7654565748031495
20
1.4404953543307086
11
-0.7635407086614173
21
1.4392151968503937
0
LINE
8
BLACK
6
CONTINUOUS
10
-0.7635407086614173
20
1.4392151968503937
11
-0.7622605511811024
21
1.4372993307086614
0
LINE
8
BLACK
6
CONTINUOUS
10
-0.7622605511811024
20
1.4372993307086614
11
-0.7618110236220472
21
1.4350393700787401
0
LINE
8
BLACK
6
CONTINUOUS
10
-0.7618110236220472
20
1.4350393700787401
11
-0.7618110236220472
21
1.3946850393700787
0
LINE
8
BLACK
6
CONTINUOUS
10
-0.7618110236220472
20
1.3946850393700787
11
-0.7622605511811024
21
1.3924250787401575
0
LINE
8
BLACK
6
CONTINUOUS
10
-0.7622605511811024
20
1.3924250787401575
11
-0.7635407086614173
21
1.3905092125984251
0
LINE
8
BLACK
6
CONTINUOUS
10
-0.7635407086614173
20
1.3905092125984251
11
-0.7654565748031495
21
1.3892290551181101
0
LINE
8
BLACK
6
CONTINUOUS
10
-0.7654565748031495
20
1.3892290551181101
11
-0.7677165354330708
21
1.3887795275590551
0
LINE
8
BLACK
6
CONTINUOUS
10
-0.7677165354330708
20
1.3887795275590551
11
-0.7795275590551181
21
1.3887795275590551
0
LINE
8
BLACK
6
CONTINUOUS
10
-0.7795275590551181
20
1.3887795275590551
11
-0.7817875196850393
21
1.3892290551181101
0
LINE
8
BLACK
6
CONTINUOUS
10
-0.7817875196850393
20
1.3892290551181101
11
-0.7837033858267717
21
1.3905092125984251
0
LINE
8
BLACK
6
CONTINUOUS
10
-0.7837033858267717
20
1.3905092125984251
11
-0.7849835433070866
21
1.3924250787401575
0
LINE
8
BLACK
6
CONTINUOUS
10
-0.7849835433070866
20
1.3924250787401575
11
-0.7854330708661417
21
1.3946850393700787
0
LINE
8
BLACK
6
CONTINUOUS
10
-0.7854330708661417
20
1.3946850393700787
11
-0.7854330708661417
21
1.4350393700787401
0
LINE
8
BLACK
6
CONTINUOUS
10
-0.7854330708661417
20
1.4350393700787401
11
-0.7849835433070866
21
1.4372993307086614
0
LINE
8
BLACK
6
CONTINUOUS
10
-0.7849835433070866
20
1.4372993307086614
11
-0.7837033858267717
21
1.4392151968503937
0
LINE
8
BLACK
6
CONTINUOUS
10
-0.7837033858267717
20
1.4392151968503937
11
-0.7817875196850393
21
1.4404953543307086
0
LINE
8
BLACK
6
CONTINUOUS
10
-0.7817875196850393
20
1.4404953543307086
11
-0.7795275590551181
21
1.4409448818897637
0
LINE
8
BLACK
6
CONTINUOUS
10
-0.7795275590551181
20
1.4409448818897637
11
-0.7677165354330708
21
1.4409448818897637
0
LINE
8
BLACK
6
CONTINUOUS
10
-0.7677165354330708
20
1.4409448818897637
11
-0.7654565748031495
21
1.4404953543307086
0
LINE
8
BLACK
6
CONTINUOUS
10
-0.6906534251968504
20
1.4404953543307086
11
-0.6887375590551181
21
1.4392151968503937
0
LINE
8
BLACK
6
CONTINUOUS
10
-0.6887375590551181
20
1.4392151968503937
11
-0.6874574015748032
21
1.4372993307086614
0
LINE
8
BLACK
6
CONTINUOUS
10
-0.6874574015748032
20
1.4372993307086614
11
-0.687007874015748
21
1.4350393700787401
0
LINE
8
BLACK
6
CONTINUOUS
10
-0.687007874015748
20
1.4350393700787401
11
-0.687007874015748
21
1.3946850393700787
0
LINE
8
BLACK
6
CONTINUOUS
10
-0.687007874015748
20
1.3946850393700787
11
-0.6874574015748032
21
1.3924250787401575
0
LINE
8
BLACK
6
CONTINUOUS
10
-0.6874574015748032
20
1.3924250787401575
11
-0.6887375590551181
21
1.3905092125984251
0
LINE
8
BLACK
6
CONTINUOUS
10
-0.6887375590551181
20
1.3905092125984251
11
-0.6906534251968504
21
1.3892290551181101
0
LINE
8
BLACK
6
CONTINUOUS
10
-0.6906534251968504
20
1.3892290551181101
11
-0.6929133858267716
21
1.3887795275590551
0
LINE
8
BLACK
6
CONTINUOUS
10
-0.6929133858267716
20
1.3887795275590551
11
-0.7047244094488189
21
1.3887795275590551
0
LINE
8
BLACK
6
CONTINUOUS
10
-0.7047244094488189
20
1.3887795275590551
11
-0.7069843700787402
21
1.3892290551181101
0
LINE
8
BLACK
6
CONTINUOUS
10
-0.7069843700787402
20
1.3892290551181101
11
-0.7089002362204724
21
1.3905092125984251
0
LINE
8
BLACK
6
CONTINUOUS
10
-0.7089002362204724
20
1.3905092125984251
11
-0.7101803937007873
21
1.3924250787401575
0
LINE
8
BLACK
6
CONTINUOUS
10
-0.7101803937007873
20
1.3924250787401575
11
-0.7106299212598425
21
1.3946850393700787
0
LINE
8
BLACK
6
CONTINUOUS
10
-0.7106299212598425
20
1.3946850393700787
11
-0.7106299212598425
21
1.4350393700787401
0
LINE
8
BLACK
6
CONTINUOUS
10
-0.7106299212598425
20
1.4350393700787401
11
-0.7101803937007873
21
1.4372993307086614
0
LINE
8
BLACK
6
CONTINUOUS
10
-0.7101803937007873
20
1.4372993307086614
11
-0.7089002362204724
21
1.4392151968503937
0
LINE
8
BLACK
6
CONTINUOUS
10
-0.7089002362204724
20
1.4392151968503937
11
-0.7069843700787402
21
1.4404953543307086
0
LINE
8
BLACK
6
CONTINUOUS
10
-0.7069843700787402
20
1.4404953543307086
11
-0.7047244094488189
21
1.4409448818897637
0
LINE
8
BLACK
6
CONTINUOUS
10
-0.7047244094488189
20
1.4409448818897637
11
-0.6929133858267716
21
1.4409448818897637
0
LINE
8
BLACK
6
CONTINUOUS
10
-0.6929133858267716
20
1.4409448818897637
11
-0.6906534251968504
21
1.4404953543307086
0
LINE
8
BLACK
6
CONTINUOUS
10
-0.5917058661417323
20
1.432321653543307
11
-0.588512716535433
21
1.4301880708661416
0
LINE
8
BLACK
6
CONTINUOUS
10
-0.588512716535433
20
1.4301880708661416
11
-0.5863791338582677
21
1.4269949212598425
0
LINE
8
BLACK
6
CONTINUOUS
10
-0.5863791338582677
20
1.4269949212598425
11
-0.5856299212598425
21
1.4232283464566928
0
LINE
8
BLACK
6
CONTINUOUS
10
-0.5856299212598425
20
1.4232283464566928
11
-0.5856299212598425
21
1.4035433070866141
0
LINE
8
BLACK
6
CONTINUOUS
10
-0.5856299212598425
20
1.4035433070866141
11
-0.5863791338582677
21
1.3997767322834644
0
LINE
8
BLACK
6
CONTINUOUS
10
-0.5863791338582677
20
1.3997767322834644
11
-0.588512716535433
21
1.3965835826771653
0
LINE
8
BLACK
6
CONTINUOUS
10
-0.588512716535433
20
1.3965835826771653
11
-0.5917058661417323
21
1.39445
0
LINE
8
BLACK
6
CONTINUOUS
10
-0.5917058661417323
20
1.39445
11
-0.5954724409448818
21
1.3937007874015748
0
LINE
8
BLACK
6
CONTINUOUS
10
-0.5954724409448818
20
1.3937007874015748
11
-0.6328740157480315
21
1.3937007874015748
0
LINE
8
BLACK
6
CONTINUOUS
10
-0.6328740157480315
20
1.3937007874015748
11
-0.6366405905511811
21
1.39445
0
LINE
8
BLACK
6
CONTINUOUS
10
-0.6366405905511811
20
1.39445
11
-0.6398337401574803
21
1.3965835826771653
0
LINE
8
BLACK
6
CONTINUOUS
10
-0.6398337401574803
20
1.3965835826771653
11
-0.6419673228346456
21
1.3997767322834644
0
LINE
8
BLACK
6
CONTINUOUS
10
-0.6419673228346456
20
1.3997767322834644
11
-0.6427165354330708
21
1.4035433070866141
0
LINE
8
BLACK
6
CONTINUOUS
10
-0.6427165354330708
20
1.4035433070866141
11
-0.6427165354330708
21
1.4232283464566928
0
LINE
8
BLACK
6
CONTINUOUS
10
-0.6427165354330708
20
1.4232283464566928
11
-0.6419673228346456
21
1.4269949212598425
0
LINE
8
BLACK
6
CONTINUOUS
10
-0.6419673228346456
20
1.4269949212598425
11
-0.6398337401574803
21
1.4301880708661416
0
LINE
8
BLACK
6
CONTINUOUS
10
-0.6398337401574803
20
1.4301880708661416
11
-0.6366405905511811
21
1.432321653543307
0
LINE
8
BLACK
6
CONTINUOUS
10
-0.6366405905511811
20
1.432321653543307
11
-0.6328740157480315
21
1.4330708661417322
0
LINE
8
BLACK
6
CONTINUOUS
10
-0.6328740157480315
20
1.4330708661417322
11
-0.5954724409448818
21
1.4330708661417322
0
LINE
8
BLACK
6
CONTINUOUS
10
-0.5954724409448818
20
1.4330708661417322
11
-0.5917058661417323
21
1.432321653543307
0
LINE
8
BLACK
6
CONTINUOUS
10
-1.4645669291338583
20
1.405511811023622
11
-1.5039370078740157
21
1.405511811023622
0
LINE
8
BLACK
6
CONTINUOUS
10
-1.5039370078740157
20
1.405511811023622
11
-1.5039370078740157
21
1.5551181102362204
0
LINE
8
BLACK
6
CONTINUOUS
10
-1.5039370078740157
20
1.5551181102362204
11
-1.4645669291338583
21
1.5551181102362204
0
LINE
8
BLACK
6
CONTINUOUS
10
-1.4645669291338583
20
1.5551181102362204
11
-1.4645669291338583
21
1.405511811023622
0
LINE
8
BLACK
6
CONTINUOUS
10
-0.2125984251968504
20
1.405511811023622
11
-0.2519685039370079
21
1.405511811023622
0
LINE
8
BLACK
6
CONTINUOUS
10
-0.2519685039370079
20
1.405511811023622
11
-0.2519685039370079
21
1.5551181102362204
0
LINE
8
BLACK
6
CONTINUOUS
10
-0.2519685039370079
20
1.5551181102362204
11
-0.2125984251968504
21
1.5551181102362204
0
LINE
8
BLACK
6
CONTINUOUS
10
-0.2125984251968504
20
1.5551181102362204
11
-0.2125984251968504
21
1.405511811023622
0
LINE
8
BLACK
6
CONTINUOUS
10
-1.1184381496062992
20
1.5135027559055119
11
-1.115245
21
1.5113691732283465
0
LINE
8
BLACK
6
CONTINUOUS
10
-1.115245
20
1.5113691732283465
11
-1.1131114173228347
21
1.5081760236220472
0
LINE
8
BLACK
6
CONTINUOUS
10
-1.1131114173228347
20
1.5081760236220472
11
-1.1123622047244095
21
1.5044094488188977
0
LINE
8
BLACK
6
CONTINUOUS
10
-1.1123622047244095
20
1.5044094488188977
11
-1.1123622047244095
21
1.4670078740157479
0
LINE
8
BLACK
6
CONTINUOUS
10
-1.1123622047244095
20
1.4670078740157479
11
-1.1131114173228347
21
1.4632412992125985
0
LINE
8
BLACK
6
CONTINUOUS
10
-1.1131114173228347
20
1.4632412992125985
11
-1.115245
21
1.4600481496062991
0
LINE
8
BLACK
6
CONTINUOUS
10
-1.115245
20
1.4600481496062991
11
-1.1184381496062992
21
1.4579145669291338
0
LINE
8
BLACK
6
CONTINUOUS
10
-1.1184381496062992
20
1.4579145669291338
11
-1.1222047244094489
21
1.4571653543307086
0
LINE
8
BLACK
6
CONTINUOUS
10
-1.1222047244094489
20
1.4571653543307086
11
-1.1418897637795276
21
1.4571653543307086
0
LINE
8
BLACK
6
CONTINUOUS
10
-1.1418897637795276
20
1.4571653543307086
11
-1.1456563385826772
21
1.4579145669291338
0
LINE
8
BLACK
6
CONTINUOUS
10
-1.1456563385826772
20
1.4579145669291338
11
-1.1488494881889764
21
1.4600481496062991
0
LINE
8
BLACK
6
CONTINUOUS
10
-1.1488494881889764
20
1.4600481496062991
11
-1.1509830708661417
21
1.4632412992125985
0
LINE
8
BLACK
6
CONTINUOUS
10
-1.1509830708661417
20
1.4632412992125985
11
-1.1517322834645669
21
1.4670078740157479
0
LINE
8
BLACK
6
CONTINUOUS
10
-1.1517322834645669
20
1.4670078740157479
11
-1.1517322834645669
21
1.5044094488188977
0
LINE
8
BLACK
6
CONTINUOUS
10
-1.1517322834645669
20
1.5044094488188977
11
-1.1509830708661417
21
1.5081760236220472
0
LINE
8
BLACK
6
CONTINUOUS
10
-1.1509830708661417
20
1.5081760236220472
11
-1.1488494881889764
21
1.5113691732283465
0
LINE
8
BLACK
6
CONTINUOUS
10
-1.1488494881889764
20
1.5113691732283465
11
-1.1456563385826772
21
1.5135027559055119
0
LINE
8
BLACK
6
CONTINUOUS
10
-1.1456563385826772
20
1.5135027559055119
11
-1.1418897637795276
21
1.5142519685039371
0
LINE
8
BLACK
6
CONTINUOUS
10
-1.1418897637795276
20
1.5142519685039371
11
-1.1222047244094489
21
1.5142519685039371
0
LINE
8
BLACK
6
CONTINUOUS
10
-1.1222047244094489
20
1.5142519685039371
11
-1.1184381496062992
21
1.5135027559055119
0
LINE
8
BLACK
6
CONTINUOUS
10
-1.0436349999999999
20
1.5135027559055119
11
-1.0404418503937007
21
1.5113691732283465
0
LINE
8
BLACK
6
CONTINUOUS
10
-1.0404418503937007
20
1.5113691732283465
11
-1.0383082677165354
21
1.5081760236220472
0
LINE
8
BLACK
6
CONTINUOUS
10
-1.0383082677165354
20
1.5081760236220472
11
-1.0375590551181102
21
1.5044094488188977
0
LINE
8
BLACK
6
CONTINUOUS
10
-1.0375590551181102
20
1.5044094488188977
11
-1.0375590551181102
21
1.4670078740157479
0
LINE
8
BLACK
6
CONTINUOUS
10
-1.0375590551181102
20
1.4670078740157479
11
-1.0383082677165354
21
1.4632412992125985
0
LINE
8
BLACK
6
CONTINUOUS
10
-1.0383082677165354
20
1.4632412992125985
11
-1.0404418503937007
21
1.4600481496062991
0
LINE
8
BLACK
6
CONTINUOUS
10
-1.0404418503937007
20
1.4600481496062991
11
-1.0436349999999999
21
1.4579145669291338
0
LINE
8
BLACK
6
CONTINUOUS
10
-1.0436349999999999
20
1.4579145669291338
11
-1.0474015748031495
21
1.4571653543307086
0
LINE
8
BLACK
6
CONTINUOUS
10
-1.0474015748031495
20
1.4571653543307086
11
-1.0670866141732283
21
1.4571653543307086
0
LINE
8
BLACK
6
CONTINUOUS
10
-1.0670866141732283
20
1.4571653543307086
11
-1.0708531889763779
21
1.4579145669291338
0
LINE
8
BLACK
6
CONTINUOUS
10
-1.0708531889763779
20
1.4579145669291338
11
-1.0740463385826771
21
1.4600481496062991
0
LINE
8
BLACK
6
CONTINUOUS
10
-1.0740463385826771
20
1.4600481496062991
11
-1.0761799212598424
21
1.4632412992125985
0
LINE
8
BLACK
6
CONTINUOUS
10
-1.0761799212598424
20
1.4632412992125985
11
-1.0769291338582676
21
1.4670078740157479
0
LINE
8
BLACK
6
CONTINUOUS
10
-1.0769291338582676
20
1.4670078740157479
11
-1.0769291338582676
21
1.5044094488188977
0
LINE
8
BLACK
6
CONTINUOUS
10
-1.0769291338582676
20
1.5044094488188977
11
-1.0761799212598424
21
1.5081760236220472
0
LINE
8
BLACK
6
CONTINUOUS
10
-1.0761799212598424
20
1.5081760236220472
11
-1.0740463385826771
21
1.5113691732283465
0
LINE
8
BLACK
6
CONTINUOUS
10
-1.0740463385826771
20
1.5113691732283465
11
-1.0708531889763779
21
1.5135027559055119
0
LINE
8
BLACK
6
CONTINUOUS
10
-1.0708531889763779
20
1.5135027559055119
11
-1.0670866141732283
21
1.5142519685039371
0
LINE
8
BLACK
6
CONTINUOUS
10
-1.0670866141732283
20
1.5142519685039371
11
-1.0474015748031495
21
1.5142519685039371
0
LINE
8
BLACK
6
CONTINUOUS
10
-1.0474015748031495
20
1.5142519685039371
11
-1.0436349999999999
21
1.5135027559055119
0
LINE
8
BLACK
6
CONTINUOUS
10
-0.7615090551181102
20
1.5235027165354331
11
-0.7583159055118111
21
1.5213691338582678
0
LINE
8
BLACK
6
CONTINUOUS
10
-0.7583159055118111
20
1.5213691338582678
11
-0.7561823228346457
21
1.5181759842519684
0
LINE
8
BLACK
6
CONTINUOUS
10
-0.7561823228346457
20
1.5181759842519684
11
-0.7554331102362205
21
1.514409409448819
0
LINE
8
BLACK
6
CONTINUOUS
10
-0.7554331102362205
20
1.514409409448819
11
-0.7554331102362205
21
1.4770078346456692
0
LINE
8
BLACK
6
CONTINUOUS
10
-0.7554331102362205
20
1.4770078346456692
11
-0.7561823228346457
21
1.4732412598425197
0
LINE
8
BLACK
6
CONTINUOUS
10
-0.7561823228346457
20
1.4732412598425197
11
-0.7583159055118111
21
1.4700481102362204
0
LINE
8
BLACK
6
CONTINUOUS
10
-0.7583159055118111
20
1.4700481102362204
11
-0.7615090551181102
21
1.467914527559055
0
LINE
8
BLACK
6
CONTINUOUS
10
-0.7615090551181102
20
1.467914527559055
11
-0.7652756299212599
21
1.4671653149606299
0
LINE
8
BLACK
6
CONTINUOUS
10
-0.7652756299212599
20
1.4671653149606299
11
-0.7849606692913386
21
1.4671653149606299
0
LINE
8
BLACK
6
CONTINUOUS
10
-0.7849606692913386
20
1.4671653149606299
11
-0.7887272440944881
21
1.467914527559055
0
LINE
8
BLACK
6
CONTINUOUS
10
-0.7887272440944881
20
1.467914527559055
11
-0.7919203937007874
21
1.4700481102362204
0
LINE
8
BLACK
6
CONTINUOUS
10
-0.7919203937007874
20
1.4700481102362204
11
-0.7940539763779527
21
1.4732412598425197
0
LINE
8
BLACK
6
CONTINUOUS
10
-0.7940539763779527
20
1.4732412598425197
11
-0.7948031889763779
21
1.4770078346456692
0
LINE
8
BLACK
6
CONTINUOUS
10
-0.7948031889763779
20
1.4770078346456692
11
-0.7948031889763779
21
1.514409409448819
0
LINE
8
BLACK
6
CONTINUOUS
10
-0.7948031889763779
20
1.514409409448819
11
-0.7940539763779527
21
1.5181759842519684
0
LINE
8
BLACK
6
CONTINUOUS
10
-0.7940539763779527
20
1.5181759842519684
11
-0.7919203937007874
21
1.5213691338582678
0
LINE
8
BLACK
6
CONTINUOUS
10
-0.7919203937007874
20
1.5213691338582678
11
-0.7887272440944881
21
1.5235027165354331
0
LINE
8
BLACK
6
CONTINUOUS
10
-0.7887272440944881
20
1.5235027165354331
11
-0.7849606692913386
21
1.5242519291338583
0
LINE
8
BLACK
6
CONTINUOUS
10
-0.7849606692913386
20
1.5242519291338583
11
-0.7652756299212599
21
1.5242519291338583
0
LINE
8
BLACK
6
CONTINUOUS
10
-0.7652756299212599
20
1.5242519291338583
11
-0.7615090551181102
21
1.5235027165354331
0
LINE
8
BLACK
6
CONTINUOUS
10
-0.686705905511811
20
1.5235027165354331
11
-0.6835127559055117
21
1.5213691338582678
0
LINE
8
BLACK
6
CONTINUOUS
10
-0.6835127559055117
20
1.5213691338582678
11
-0.6813791732283464
21
1.5181759842519684
0
LINE
8
BLACK
6
CONTINUOUS
10
-0.6813791732283464
20
1.5181759842519684
11
-0.6806299606299212
21
1.514409409448819
0
LINE
8
BLACK
6
CONTINUOUS
10
-0.6806299606299212
20
1.514409409448819
11
-0.6806299606299212
21
1.4770078346456692
0
LINE
8
BLACK
6
CONTINUOUS
10
-0.6806299606299212
20
1.4770078346456692
11
-0.6813791732283464
21
1.4732412598425197
0
LINE
8
BLACK
6
CONTINUOUS
10
-0.6813791732283464
20
1.4732412598425197
11
-0.6835127559055117
21
1.4700481102362204
0
LINE
8
BLACK
6
CONTINUOUS
10
-0.6835127559055117
20
1.4700481102362204
11
-0.686705905511811
21
1.467914527559055
0
LINE
8
BLACK
6
CONTINUOUS
10
-0.686705905511811
20
1.467914527559055
11
-0.6904724803149607
21
1.4671653149606299
0
LINE
8
BLACK
6
CONTINUOUS
10
-0.6904724803149607
20
1.4671653149606299
11
-0.7101575196850394
21
1.4671653149606299
0
LINE
8
BLACK
6
CONTINUOUS
10
-0.7101575196850394
20
1.4671653149606299
11
-0.7139240944881889
21
1.467914527559055
0
LINE
8
BLACK
6
CONTINUOUS
10
-0.7139240944881889
20
1.467914527559055
11
-0.7171172440944882
21
1.4700481102362204
0
LINE
8
BLACK
6
CONTINUOUS
10
-0.7171172440944882
20
1.4700481102362204
11
-0.7192508267716535
21
1.4732412598425197
0
LINE
8
BLACK
6
CONTINUOUS
10
-0.7192508267716535
20
1.4732412598425197
11
-0.7200000393700787
21
1.4770078346456692
0
LINE
8
BLACK
6
CONTINUOUS
10
-0.7200000393700787
20
1.4770078346456692
11
-0.7200000393700787
21
1.514409409448819
0
LINE
8
BLACK
6
CONTINUOUS
10
-0.7200000393700787
20
1.514409409448819
11
-0.7192508267716535
21
1.5181759842519684
0
LINE
8
BLACK
6
CONTINUOUS
10
-0.7192508267716535
20
1.5181759842519684
11
-0.7171172440944882
21
1.5213691338582678
0
LINE
8
BLACK
6
CONTINUOUS
10
-0.7171172440944882
20
1.5213691338582678
11
-0.7139240944881889
21
1.5235027165354331
0
LINE
8
BLACK
6
CONTINUOUS
10
-0.7139240944881889
20
1.5235027165354331
11
-0.7101575196850394
21
1.5242519291338583
0
LINE
8
BLACK
6
CONTINUOUS
10
-0.7101575196850394
20
1.5242519291338583
11
-0.6904724803149607
21
1.5242519291338583
0
LINE
8
BLACK
6
CONTINUOUS
10
-0.6904724803149607
20
1.5242519291338583
11
-0.686705905511811
21
1.5235027165354331
0
LINE
8
BLACK
6
CONTINUOUS
10
-0.9561783070866141
20
1.5862428740157479
11
-0.952985157480315
21
1.5841092913385826
0
LINE
8
BLACK
6
CONTINUOUS
10
-0.952985157480315
20
1.5841092913385826
11
-0.9508515748031496
21
1.5809161417322835
0
LINE
8
BLACK
6
CONTINUOUS
10
-0.9508515748031496
20
1.5809161417322835
11
-0.9501023622047244
21
1.5771495669291338
0
LINE
8
BLACK
6
CONTINUOUS
10
-0.9501023622047244
20
1.5771495669291338
11
-0.9501023622047244
21
1.5574645275590551
0
LINE
8
BLACK
6
CONTINUOUS
10
-0.9501023622047244
20
1.5574645275590551
11
-0.9508515748031496
21
1.5536979527559054
0
LINE
8
BLACK
6
CONTINUOUS
10
-0.9508515748031496
20
1.5536979527559054
11
-0.952985157480315
21
1.5505048031496063
0
LINE
8
BLACK
6
CONTINUOUS
10
-0.952985157480315
20
1.5505048031496063
11
-0.9561783070866141
21
1.5483712204724409
0
LINE
8
BLACK
6
CONTINUOUS
10
-0.9561783070866141
20
1.5483712204724409
11
-0.9599448818897638
21
1.5476220078740157
0
LINE
8
BLACK
6
CONTINUOUS
10
-0.9599448818897638
20
1.5476220078740157
11
-0.9973464566929133
21
1.5476220078740157
0
LINE
8
BLACK
6
CONTINUOUS
10
-0.9973464566929133
20
1.5476220078740157
11
-1.001113031496063
21
1.5483712204724409
0
LINE
8
BLACK
6
CONTINUOUS
10
-1.001113031496063
20
1.5483712204724409
11
-1.0043061811023621
21
1.5505048031496063
0
LINE
8
BLACK
6
CONTINUOUS
10
-1.0043061811023621
20
1.5505048031496063
11
-1.0064397637795275
21
1.5536979527559054
0
LINE
8
BLACK
6
CONTINUOUS
10
-1.0064397637795275
20
1.5536979527559054
11
-1.0071889763779527
21
1.5574645275590551
0
LINE
8
BLACK
6
CONTINUOUS
10
-1.0071889763779527
20
1.5574645275590551
11
-1.0071889763779527
21
1.5771495669291338
0
LINE
8
BLACK
6
CONTINUOUS
10
-1.0071889763779527
20
1.5771495669291338
11
-1.0064397637795275
21
1.5809161417322835
0
LINE
8
BLACK
6
CONTINUOUS
10
-1.0064397637795275
20
1.5809161417322835
11
-1.0043061811023621
21
1.5841092913385826
0
LINE
8
BLACK
6
CONTINUOUS
10
-1.0043061811023621
20
1.5841092913385826
11
-1.001113031496063
21
1.5862428740157479
0
LINE
8
BLACK
6
CONTINUOUS
10
-1.001113031496063
20
1.5862428740157479
11
-0.9973464566929133
21
1.5869920866141731
0
LINE
8
BLACK
6
CONTINUOUS
10
-0.9973464566929133
20
1.5869920866141731
11
-0.9599448818897638
21
1.5869920866141731
0
LINE
8
BLACK
6
CONTINUOUS
10
-0.9599448818897638
20
1.5869920866141731
11
-0.9561783070866141
21
1.5862428740157479
0
LINE
8
BLACK
6
CONTINUOUS
10
-0.8751625590551181
20
1.588211338582677
11
-0.8719694094488188
21
1.5860777559055117
0
LINE
8
BLACK
6
CONTINUOUS
10
-0.8719694094488188
20
1.5860777559055117
11
-0.8698358267716535
21
1.5828846062992126
0
LINE
8
BLACK
6
CONTINUOUS
10
-0.8698358267716535
20
1.5828846062992126
11
-0.8690866141732283
21
1.5791180314960629
0
LINE
8
BLACK
6
CONTINUOUS
10
-0.8690866141732283
20
1.5791180314960629
11
-0.8690866141732283
21
1.5584487401574803
0
LINE
8
BLACK
6
CONTINUOUS
10
-0.8690866141732283
20
1.5584487401574803
11
-0.8698358267716535
21
1.5546821653543306
0
LINE
8
BLACK
6
CONTINUOUS
10
-0.8698358267716535
20
1.5546821653543306
11
-0.8719694094488188
21
1.5514890157480314
0
LINE
8
BLACK
6
CONTINUOUS
10
-0.8719694094488188
20
1.5514890157480314
11
-0.8751625590551181
21
1.5493554330708661
0
LINE
8
BLACK
6
CONTINUOUS
10
-0.8751625590551181
20
1.5493554330708661
11
-0.8789291338582677
21
1.5486062204724409
0
LINE
8
BLACK
6
CONTINUOUS
10
-0.8789291338582677
20
1.5486062204724409
11
-0.9143622047244094
21
1.5486062204724409
0
LINE
8
BLACK
6
CONTINUOUS
10
-0.9143622047244094
20
1.5486062204724409
11
-0.918128779527559
21
1.5493554330708661
0
LINE
8
BLACK
6
CONTINUOUS
10
-0.918128779527559
20
1.5493554330708661
11
-0.9213219291338582
21
1.5514890157480314
0
LINE
8
BLACK
6
CONTINUOUS
10
-0.9213219291338582
20
1.5514890157480314
11
-0.9234555118110236
21
1.5546821653543306
0
LINE
8
BLACK
6
CONTINUOUS
10
-0.9234555118110236
20
1.5546821653543306
11
-0.9242047244094488
21
1.5584487401574803
0
LINE
8
BLACK
6
CONTINUOUS
10
-0.9242047244094488
20
1.5584487401574803
11
-0.9242047244094488
21
1.5791180314960629
0
LINE
8
BLACK
6
CONTINUOUS
10
-0.9242047244094488
20
1.5791180314960629
11
-0.9234555118110236
21
1.5828846062992126
0
LINE
8
BLACK
6
CONTINUOUS
10
-0.9234555118110236
20
1.5828846062992126
11
-0.9213219291338582
21
1.5860777559055117
0
LINE
8
BLACK
6
CONTINUOUS
10
-0.9213219291338582
20
1.5860777559055117
11
-0.918128779527559
21
1.588211338582677
0
LINE
8
BLACK
6
CONTINUOUS
10
-0.918128779527559
20
1.588211338582677
11
-0.9143622047244094
21
1.5889605511811022
0
LINE
8
BLACK
6
CONTINUOUS
10
-0.9143622047244094
20
1.5889605511811022
11
-0.8789291338582677
21
1.5889605511811022
0
LINE
8
BLACK
6
CONTINUOUS
10
-0.8789291338582677
20
1.5889605511811022
11
-0.8751625590551181
21
1.588211338582677
0
LINE
8
BLACK
6
CONTINUOUS
10
-1.1238818110236219
20
1.635558346456693
11
-1.1219659448818897
21
1.634278188976378
0
LINE
8
BLACK
6
CONTINUOUS
10
-1.1219659448818897
20
1.634278188976378
11
-1.1206857874015748
21
1.6323623228346456
0
LINE
8
BLACK
6
CONTINUOUS
10
-1.1206857874015748
20
1.6323623228346456
11
-1.1202362598425197
21
1.6301023622047244
0
LINE
8
BLACK
6
CONTINUOUS
10
-1.1202362598425197
20
1.6301023622047244
11
-1.1202362598425197
21
1.589748031496063
0
LINE
8
BLACK
6
CONTINUOUS
10
-1.1202362598425197
20
1.589748031496063
11
-1.1206857874015748
21
1.5874880708661416
0
LINE
8
BLACK
6
CONTINUOUS
10
-1.1206857874015748
20
1.5874880708661416
11
-1.1219659448818897
21
1.5855722047244094
0
LINE
8
BLACK
6
CONTINUOUS
10
-1.1219659448818897
20
1.5855722047244094
11
-1.1238818110236219
21
1.5842920472440944
0
LINE
8
BLACK
6
CONTINUOUS
10
-1.1238818110236219
20
1.5842920472440944
11
-1.1261417716535433
21
1.5838425196850394
0
LINE
8
BLACK
6
CONTINUOUS
10
-1.1261417716535433
20
1.5838425196850394
11
-1.1379527952755906
21
1.5838425196850394
0
LINE
8
BLACK
6
CONTINUOUS
10
-1.1379527952755906
20
1.5838425196850394
11
-1.1402127559055117
21
1.5842920472440944
0
LINE
8
BLACK
6
CONTINUOUS
10
-1.1402127559055117
20
1.5842920472440944
11
-1.142128622047244
21
1.5855722047244094
0
LINE
8
BLACK
6
CONTINUOUS
10
-1.142128622047244
20
1.5855722047244094
11
-1.1434087795275589
21
1.5874880708661416
0
LINE
8
BLACK
6
CONTINUOUS
10
-1.1434087795275589
20
1.5874880708661416
11
-1.1438583070866142
21
1.589748031496063
0
LINE
8
BLACK
6
CONTINUOUS
10
-1.1438583070866142
20
1.589748031496063
11
-1.1438583070866142
21
1.6301023622047244
0
LINE
8
BLACK
6
CONTINUOUS
10
-1.1438583070866142
20
1.6301023622047244
11
-1.1434087795275589
21
1.6323623228346456
0
LINE
8
BLACK
6
CONTINUOUS
10
-1.1434087795275589
20
1.6323623228346456
11
-1.142128622047244
21
1.634278188976378
0
LINE
8
BLACK
6
CONTINUOUS
10
-1.142128622047244
20
1.634278188976378
11
-1.1402127559055117
21
1.635558346456693
0
LINE
8
BLACK
6
CONTINUOUS
10
-1.1402127559055117
20
1.635558346456693
11
-1.1379527952755906
21
1.636007874015748
0
LINE
8
BLACK
6
CONTINUOUS
10
-1.1379527952755906
20
1.636007874015748
11
-1.1261417716535433
21
1.636007874015748
0
LINE
8
BLACK
6
CONTINUOUS
10
-1.1261417716535433
20
1.636007874015748
11
-1.1238818110236219
21
1.635558346456693
0
LINE
8
BLACK
6
CONTINUOUS
10
-1.0490786614173229
20
1.635558346456693
11
-1.0471627952755904
21
1.634278188976378
0
LINE
8
BLACK
6
CONTINUOUS
10
-1.0471627952755904
20
1.634278188976378
11
-1.0458826377952755
21
1.6323623228346456
0
LINE
8
BLACK
6
CONTINUOUS
10
-1.0458826377952755
20
1.6323623228346456
11
-1.0454331102362204
21
1.6301023622047244
0
LINE
8
BLACK
6
CONTINUOUS
10
-1.0454331102362204
20
1.6301023622047244
11
-1.0454331102362204
21
1.589748031496063
0
LINE
8
BLACK
6
CONTINUOUS
10
-1.0454331102362204
20
1.589748031496063
11
-1.0458826377952755
21
1.5874880708661416
0
LINE
8
BLACK
6
CONTINUOUS
10
-1.0458826377952755
20
1.5874880708661416
11
-1.0471627952755904
21
1.5855722047244094
0
LINE
8
BLACK
6
CONTINUOUS
10
-1.0471627952755904
20
1.5855722047244094
11
-1.0490786614173229
21
1.5842920472440944
0
LINE
8
BLACK
6
CONTINUOUS
10
-1.0490786614173229
20
1.5842920472440944
11
-1.051338622047244
21
1.5838425196850394
0
LINE
8
BLACK
6
CONTINUOUS
10
-1.051338622047244
20
1.5838425196850394
11
-1.0631496456692913
21
1.5838425196850394
0
LINE
8
BLACK
6
CONTINUOUS
10
-1.0631496456692913
20
1.5838425196850394
11
-1.0654096062992127
21
1.5842920472440944
0
LINE
8
BLACK
6
CONTINUOUS
10
-1.0654096062992127
20
1.5842920472440944
11
-1.0673254724409449
21
1.5855722047244094
0
LINE
8
BLACK
6
CONTINUOUS
10
-1.0673254724409449
20
1.5855722047244094
11
-1.0686056299212598
21
1.5874880708661416
0
LINE
8
BLACK
6
CONTINUOUS
10
-1.0686056299212598
20
1.5874880708661416
11
-1.0690551574803149
21
1.589748031496063
0
LINE
8
BLACK
6
CONTINUOUS
10
-1.0690551574803149
20
1.589748031496063
11
-1.0690551574803149
21
1.6301023622047244
0
LINE
8
BLACK
6
CONTINUOUS
10
-1.0690551574803149
20
1.6301023622047244
11
-1.0686056299212598
21
1.6323623228346456
0
LINE
8
BLACK
6
CONTINUOUS
10
-1.0686056299212598
20
1.6323623228346456
11
-1.0673254724409449
21
1.634278188976378
0
LINE
8
BLACK
6
CONTINUOUS
10
-1.0673254724409449
20
1.634278188976378
11
-1.0654096062992127
21
1.635558346456693
0
LINE
8
BLACK
6
CONTINUOUS
10
-1.0654096062992127
20
1.635558346456693
11
-1.0631496456692913
21
1.636007874015748
0
LINE
8
BLACK
6
CONTINUOUS
10
-1.0631496456692913
20
1.636007874015748
11
-1.051338622047244
21
1.636007874015748
0
LINE
8
BLACK
6
CONTINUOUS
10
-1.051338622047244
20
1.636007874015748
11
-1.0490786614173229
21
1.635558346456693
0
LINE
8
BLACK
6
CONTINUOUS
10
-0.5670995669291339
20
1.7020066929133857
11
-0.5639064173228346
21
1.6998731102362203
0
LINE
8
BLACK
6
CONTINUOUS
10
-0.5639064173228346
20
1.6998731102362203
11
-0.5617728346456693
21
1.6966799606299212
0
LINE
8
BLACK
6
CONTINUOUS
10
-0.5617728346456693
20
1.6966799606299212
11
-0.5610236220472441
21
1.6929133858267715
0
LINE
8
BLACK
6
CONTINUOUS
10
-0.5610236220472441
20
1.6929133858267715
11
-0.5610236220472441
21
1.6141732283464567
0
LINE
8
BLACK
6
CONTINUOUS
10
-0.5610236220472441
20
1.6141732283464567
11
-0.5617728346456693
21
1.610406653543307
0
LINE
8
BLACK
6
CONTINUOUS
10
-0.5617728346456693
20
1.610406653543307
11
-0.5639064173228346
21
1.6072135039370079
0
LINE
8
BLACK
6
CONTINUOUS
10
-0.5639064173228346
20
1.6072135039370079
11
-0.5670995669291339
21
1.6050799212598426
0
LINE
8
BLACK
6
CONTINUOUS
10
-0.5670995669291339
20
1.6050799212598426
11
-0.5708661417322834
21
1.6043307086614174
0
LINE
8
BLACK
6
CONTINUOUS
10
-0.5708661417322834
20
1.6043307086614174
11
-0.6417322834645669
21
1.6043307086614174
0
LINE
8
BLACK
6
CONTINUOUS
10
-0.6417322834645669
20
1.6043307086614174
11
-0.6454988582677165
21
1.6050799212598426
0
LINE
8
BLACK
6
CONTINUOUS
10
-0.6454988582677165
20
1.6050799212598426
11
-0.6486920078740157
21
1.6072135039370079
0
LINE
8
BLACK
6
CONTINUOUS
10
-0.6486920078740157
20
1.6072135039370079
11
-0.6508255905511811
21
1.610406653543307
0
LINE
8
BLACK
6
CONTINUOUS
10
-0.6508255905511811
20
1.610406653543307
11
-0.6515748031496063
21
1.6141732283464567
0
LINE
8
BLACK
6
CONTINUOUS
10
-0.6515748031496063
20
1.6141732283464567
11
-0.6515748031496063
21
1.6929133858267715
0
LINE
8
BLACK
6
CONTINUOUS
10
-0.6515748031496063
20
1.6929133858267715
11
-0.6508255905511811
21
1.6966799606299212
0
LINE
8
BLACK
6
CONTINUOUS
10
-0.6508255905511811
20
1.6966799606299212
11
-0.6486920078740157
21
1.6998731102362203
0
LINE
8
BLACK
6
CONTINUOUS
10
-0.6486920078740157
20
1.6998731102362203
11
-0.6454988582677165
21
1.7020066929133857
0
LINE
8
BLACK
6
CONTINUOUS
10
-0.6454988582677165
20
1.7020066929133857
11
-0.6417322834645669
21
1.7027559055118109
0
LINE
8
BLACK
6
CONTINUOUS
10
-0.6417322834645669
20
1.7027559055118109
11
-0.5708661417322834
21
1.7027559055118109
0
LINE
8
BLACK
6
CONTINUOUS
10
-0.5708661417322834
20
1.7027559055118109
11
-0.5670995669291339
21
1.7020066929133857
0
LINE
8
BLACK
6
CONTINUOUS
10
-0.8104696850393701
20
1.6685185039370078
11
-0.8072765354330709
21
1.6663849212598425
0
LINE
8
BLACK
6
CONTINUOUS
10
-0.8072765354330709
20
1.6663849212598425
11
-0.8051429527559055
21
1.6631917716535434
0
LINE
8
BLACK
6
CONTINUOUS
10
-0.8051429527559055
20
1.6631917716535434
11
-0.8043937401574803
21
1.6594251968503937
0
LINE
8
BLACK
6
CONTINUOUS
10
-0.8043937401574803
20
1.6594251968503937
11
-0.8043937401574803
21
1.623992125984252
0
LINE
8
BLACK
6
CONTINUOUS
10
-0.8043937401574803
20
1.623992125984252
11
-0.8051429527559055
21
1.6202255511811023
0
LINE
8
BLACK
6
CONTINUOUS
10
-0.8051429527559055
20
1.6202255511811023
11
-0.8072765354330709
21
1.6170324015748032
0
LINE
8
BLACK
6
CONTINUOUS
10
-0.8072765354330709
20
1.6170324015748032
11
-0.8104696850393701
21
1.6148988188976379
0
LINE
8
BLACK
6
CONTINUOUS
10
-0.8104696850393701
20
1.6148988188976379
11
-0.8142362598425197
21
1.6141496062992127
0
LINE
8
BLACK
6
CONTINUOUS
10
-0.8142362598425197
20
1.6141496062992127
11
-0.8349055511811023
21
1.6141496062992127
0
LINE
8
BLACK
6
CONTINUOUS
10
-0.8349055511811023
20
1.6141496062992127
11
-0.838672125984252
21
1.6148988188976379
0
LINE
8
BLACK
6
CONTINUOUS
10
-0.838672125984252
20
1.6148988188976379
11
-0.8418652755905511
21
1.6170324015748032
0
LINE
8
BLACK
6
CONTINUOUS
10
-0.8418652755905511
20
1.6170324015748032
11
-0.8439988582677165
21
1.6202255511811023
0
LINE
8
BLACK
6
CONTINUOUS
10
-0.8439988582677165
20
1.6202255511811023
11
-0.8447480708661417
21
1.623992125984252
0
LINE
8
BLACK
6
CONTINUOUS
10
-0.8447480708661417
20
1.623992125984252
11
-0.8447480708661417
21
1.6594251968503937
0
LINE
8
BLACK
6
CONTINUOUS
10
-0.8447480708661417
20
1.6594251968503937
11
-0.8439988582677165
21
1.6631917716535434
0
LINE
8
BLACK
6
CONTINUOUS
10
-0.8439988582677165
20
1.6631917716535434
11
-0.8418652755905511
21
1.6663849212598425
0
LINE
8
BLACK
6
CONTINUOUS
10
-0.8418652755905511
20
1.6663849212598425
11
-0.838672125984252
21
1.6685185039370078
0
LINE
8
BLACK
6
CONTINUOUS
10
-0.838672125984252
20
1.6685185039370078
11
-0.8349055511811023
21
1.669267716535433
0
LINE
8
BLACK
6
CONTINUOUS
10
-0.8349055511811023
20
1.669267716535433
11
-0.8142362598425197
21
1.669267716535433
0
LINE
8
BLACK
6
CONTINUOUS
10
-0.8142362598425197
20
1.669267716535433
11
-0.8104696850393701
21
1.6685185039370078
0
LINE
8
BLACK
6
CONTINUOUS
10
-0.7386192913385826
20
1.6685185039370078
11
-0.7354261417322835
21
1.6663849212598425
0
LINE
8
BLACK
6
CONTINUOUS
10
-0.7354261417322835
20
1.6663849212598425
11
-0.7332925590551181
21
1.6631917716535434
0
LINE
8
BLACK
6
CONTINUOUS
10
-0.7332925590551181
20
1.6631917716535434
11
-0.7325433464566929
21
1.6594251968503937
0
LINE
8
BLACK
6
CONTINUOUS
10
-0.7325433464566929
20
1.6594251968503937
11
-0.7325433464566929
21
1.623992125984252
0
LINE
8
BLACK
6
CONTINUOUS
10
-0.7325433464566929
20
1.623992125984252
11
-0.7332925590551181
21
1.6202255511811023
0
LINE
8
BLACK
6
CONTINUOUS
10
-0.7332925590551181
20
1.6202255511811023
11
-0.7354261417322835
21
1.6170324015748032
0
LINE
8
BLACK
6
CONTINUOUS
10
-0.7354261417322835
20
1.6170324015748032
11
-0.7386192913385826
21
1.6148988188976379
0
LINE
8
BLACK
6
CONTINUOUS
10
-0.7386192913385826
20
1.6148988188976379
11
-0.7423858661417323
21
1.6141496062992127
0
LINE
8
BLACK
6
CONTINUOUS
10
-0.7423858661417323
20
1.6141496062992127
11
-0.7630551574803149
21
1.6141496062992127
0
LINE
8
BLACK
6
CONTINUOUS
10
-0.7630551574803149
20
1.6141496062992127
11
-0.7668217322834645
21
1.6148988188976379
0
LINE
8
BLACK
6
CONTINUOUS
10
-0.7668217322834645
20
1.6148988188976379
11
-0.7700148818897637
21
1.6170324015748032
0
LINE
8
BLACK
6
CONTINUOUS
10
-0.7700148818897637
20
1.6170324015748032
11
-0.7721484645669291
21
1.6202255511811023
0
LINE
8
BLACK
6
CONTINUOUS
10
-0.7721484645669291
20
1.6202255511811023
11
-0.7728976771653543
21
1.623992125984252
0
LINE
8
BLACK
6
CONTINUOUS
10
-0.7728976771653543
20
1.623992125984252
11
-0.7728976771653543
21
1.6594251968503937
0
LINE
8
BLACK
6
CONTINUOUS
10
-0.7728976771653543
20
1.6594251968503937
11
-0.7721484645669291
21
1.6631917716535434
0
LINE
8
BLACK
6
CONTINUOUS
10
-0.7721484645669291
20
1.6631917716535434
11
-0.7700148818897637
21
1.6663849212598425
0
LINE
8
BLACK
6
CONTINUOUS
10
-0.7700148818897637
20
1.6663849212598425
11
-0.7668217322834645
21
1.6685185039370078
0
LINE
8
BLACK
6
CONTINUOUS
10
-0.7668217322834645
20
1.6685185039370078
11
-0.7630551574803149
21
1.669267716535433
0
LINE
8
BLACK
6
CONTINUOUS
10
-0.7630551574803149
20
1.669267716535433
11
-0.7423858661417323
21
1.669267716535433
0
LINE
8
BLACK
6
CONTINUOUS
10
-0.7423858661417323
20
1.669267716535433
11
-0.7386192913385826
21
1.6685185039370078
0
LINE
8
BLACK
6
CONTINUOUS
10
-0.8751625590551181
20
1.6600617322834645
11
-0.8719694094488188
21
1.6579281496062992
0
LINE
8
BLACK
6
CONTINUOUS
10
-0.8719694094488188
20
1.6579281496062992
11
-0.8698358267716535
21
1.6547350000000001
0
LINE
8
BLACK
6
CONTINUOUS
10
-0.8698358267716535
20
1.6547350000000001
11
-0.8690866141732283
21
1.6509684251968504
0
LINE
8
BLACK
6
CONTINUOUS
10
-0.8690866141732283
20
1.6509684251968504
11
-0.8690866141732283
21
1.6302991338582677
0
LINE
8
BLACK
6
CONTINUOUS
10
-0.8690866141732283
20
1.6302991338582677
11
-0.8698358267716535
21
1.6265325590551181
0
LINE
8
BLACK
6
CONTINUOUS
10
-0.8698358267716535
20
1.6265325590551181
11
-0.8719694094488188
21
1.6233394094488189
0
LINE
8
BLACK
6
CONTINUOUS
10
-0.8719694094488188
20
1.6233394094488189
11
-0.8751625590551181
21
1.6212058267716536
0
LINE
8
BLACK
6
CONTINUOUS
10
-0.8751625590551181
20
1.6212058267716536
11
-0.8789291338582677
21
1.6204566141732284
0
LINE
8
BLACK
6
CONTINUOUS
10
-0.8789291338582677
20
1.6204566141732284
11
-0.9143622047244094
21
1.6204566141732284
0
LINE
8
BLACK
6
CONTINUOUS
10
-0.9143622047244094
20
1.6204566141732284
11
-0.918128779527559
21
1.6212058267716536
0
LINE
8
BLACK
6
CONTINUOUS
10
-0.918128779527559
20
1.6212058267716536
11
-0.9213219291338582
21
1.6233394094488189
0
LINE
8
BLACK
6
CONTINUOUS
10
-0.9213219291338582
20
1.6233394094488189
11
-0.9234555118110236
21
1.6265325590551181
0
LINE
8
BLACK
6
CONTINUOUS
10
-0.9234555118110236
20
1.6265325590551181
11
-0.9242047244094488
21
1.6302991338582677
0
LINE
8
BLACK
6
CONTINUOUS
10
-0.9242047244094488
20
1.6302991338582677
11
-0.9242047244094488
21
1.6509684251968504
0
LINE
8
BLACK
6
CONTINUOUS
10
-0.9242047244094488
20
1.6509684251968504
11
-0.9234555118110236
21
1.6547350000000001
0
LINE
8
BLACK
6
CONTINUOUS
10
-0.9234555118110236
20
1.6547350000000001
11
-0.9213219291338582
21
1.6579281496062992
0
LINE
8
BLACK
6
CONTINUOUS
10
-0.9213219291338582
20
1.6579281496062992
11
-0.918128779527559
21
1.6600617322834645
0
LINE
8
BLACK
6
CONTINUOUS
10
-0.918128779527559
20
1.6600617322834645
11
-0.9143622047244094
21
1.6608109448818897
0
LINE
8
BLACK
6
CONTINUOUS
10
-0.9143622047244094
20
1.6608109448818897
11
-0.8789291338582677
21
1.6608109448818897
0
LINE
8
BLACK
6
CONTINUOUS
10
-0.8789291338582677
20
1.6608109448818897
11
-0.8751625590551181
21
1.6600617322834645
0
LINE
8
BLACK
6
CONTINUOUS
10
-0.9561783070866141
20
1.6610460236220472
11
-0.952985157480315
21
1.6589124409448819
0
LINE
8
BLACK
6
CONTINUOUS
10
-0.952985157480315
20
1.6589124409448819
11
-0.9508515748031496
21
1.6557192913385825
0
LINE
8
BLACK
6
CONTINUOUS
10
-0.9508515748031496
20
1.6557192913385825
11
-0.9501023622047244
21
1.6519527165354331
0
LINE
8
BLACK
6
CONTINUOUS
10
-0.9501023622047244
20
1.6519527165354331
11
-0.9501023622047244
21
1.6322676771653544
0
LINE
8
BLACK
6
CONTINUOUS
10
-0.9501023622047244
20
1.6322676771653544
11
-0.9508515748031496
21
1.6285011023622047
0
LINE
8
BLACK
6
CONTINUOUS
10
-0.9508515748031496
20
1.6285011023622047
11
-0.952985157480315
21
1.6253079527559056
0
LINE
8
BLACK
6
CONTINUOUS
10
-0.952985157480315
20
1.6253079527559056
11
-0.9561783070866141
21
1.6231743700787402
0
LINE
8
BLACK
6
CONTINUOUS
10
-0.9561783070866141
20
1.6231743700787402
11
-0.9599448818897638
21
1.622425157480315
0
LINE
8
BLACK
6
CONTINUOUS
10
-0.9599448818897638
20
1.622425157480315
11
-0.9973464566929133
21
1.622425157480315
0
LINE
8
BLACK
6
CONTINUOUS
10
-0.9973464566929133
20
1.622425157480315
11
-1.001113031496063
21
1.6231743700787402
0
LINE
8
BLACK
6
CONTINUOUS
10
-1.001113031496063
20
1.6231743700787402
11
-1.0043061811023621
21
1.6253079527559056
0
LINE
8
BLACK
6
CONTINUOUS
10
-1.0043061811023621
20
1.6253079527559056
11
-1.0064397637795275
21
1.6285011023622047
0
LINE
8
BLACK
6
CONTINUOUS
10
-1.0064397637795275
20
1.6285011023622047
11
-1.0071889763779527
21
1.6322676771653544
0
LINE
8
BLACK
6
CONTINUOUS
10
-1.0071889763779527
20
1.6322676771653544
11
-1.0071889763779527
21
1.6519527165354331
0
LINE
8
BLACK
6
CONTINUOUS
10
-1.0071889763779527
20
1.6519527165354331
11
-1.0064397637795275
21
1.6557192913385825
0
LINE
8
BLACK
6
CONTINUOUS
10
-1.0064397637795275
20
1.6557192913385825
11
-1.0043061811023621
21
1.6589124409448819
0
LINE
8
BLACK
6
CONTINUOUS
10
-1.0043061811023621
20
1.6589124409448819
11
-1.001113031496063
21
1.6610460236220472
0
LINE
8
BLACK
6
CONTINUOUS
10
-1.001113031496063
20
1.6610460236220472
11
-0.9973464566929133
21
1.6617952362204724
0
LINE
8
BLACK
6
CONTINUOUS
10
-0.9973464566929133
20
1.6617952362204724
11
-0.9599448818897638
21
1.6617952362204724
0
LINE
8
BLACK
6
CONTINUOUS
10
-0.9599448818897638
20
1.6617952362204724
11
-0.9561783070866141
21
1.6610460236220472
0
LINE
8
BLACK
6
CONTINUOUS
10
-1.4645669291338583
20
1.6417322834645669
11
-1.5039370078740157
21
1.6417322834645669
0
LINE
8
BLACK
6
CONTINUOUS
10
-1.5039370078740157
20
1.6417322834645669
11
-1.5039370078740157
21
1.7913385826771653
0
LINE
8
BLACK
6
CONTINUOUS
10
-1.5039370078740157
20
1.7913385826771653
11
-1.4645669291338583
21
1.7913385826771653
0
LINE
8
BLACK
6
CONTINUOUS
10
-1.4645669291338583
20
1.7913385826771653
11
-1.4645669291338583
21
1.6417322834645669
0
LINE
8
BLACK
6
CONTINUOUS
10
-0.2125984251968504
20
1.6417322834645669
11
-0.2519685039370079
21
1.6417322834645669
0
LINE
8
BLACK
6
CONTINUOUS
10
-0.2519685039370079
20
1.6417322834645669
11
-0.2519685039370079
21
1.7913385826771653
0
LINE
8
BLACK
6
CONTINUOUS
10
-0.2519685039370079
20
1.7913385826771653
11
-0.2125984251968504
21
1.7913385826771653
0
LINE
8
BLACK
6
CONTINUOUS
10
-0.2125984251968504
20
1.7913385826771653
11
-0.2125984251968504
21
1.6417322834645669
0
LINE
8
BLACK
6
CONTINUOUS
10
-1.1238818110236219
20
1.7251252755905511
11
-1.1219659448818897
21
1.7238451181102361
0
LINE
8
BLACK
6
CONTINUOUS
10
-1.1219659448818897
20
1.7238451181102361
11
-1.1206857874015748
21
1.7219292519685039
0
LINE
8
BLACK
6
CONTINUOUS
10
-1.1206857874015748
20
1.7219292519685039
11
-1.1202362598425197
21
1.7196692913385827
0
LINE
8
BLACK
6
CONTINUOUS
10
-1.1202362598425197
20
1.7196692913385827
11
-1.1202362598425197
21
1.6793149606299211
0
LINE
8
BLACK
6
CONTINUOUS
10
-1.1202362598425197
20
1.6793149606299211
11
-1.1206857874015748
21
1.677055
0
LINE
8
BLACK
6
CONTINUOUS
10
-1.1206857874015748
20
1.677055
11
-1.1219659448818897
21
1.6751391338582677
0
LINE
8
BLACK
6
CONTINUOUS
10
-1.1219659448818897
20
1.6751391338582677
11
-1.1238818110236219
21
1.6738589763779528
0
LINE
8
BLACK
6
CONTINUOUS
10
-1.1238818110236219
20
1.6738589763779528
11
-1.1261417716535433
21
1.6734094488188975
0
LINE
8
BLACK
6
CONTINUOUS
10
-1.1261417716535433
20
1.6734094488188975
11
-1.1379527952755906
21
1.6734094488188975
0
LINE
8
BLACK
6
CONTINUOUS
10
-1.1379527952755906
20
1.6734094488188975
11
-1.1402127559055117
21
1.6738589763779528
0
LINE
8
BLACK
6
CONTINUOUS
10
-1.1402127559055117
20
1.6738589763779528
11
-1.142128622047244
21
1.6751391338582677
0
LINE
8
BLACK
6
CONTINUOUS
10
-1.142128622047244
20
1.6751391338582677
11
-1.1434087795275589
21
1.677055
0
LINE
8
BLACK
6
CONTINUOUS
10
-1.1434087795275589
20
1.677055
11
-1.1438583070866142
21
1.6793149606299211
0
LINE
8
BLACK
6
CONTINUOUS
10
-1.1438583070866142
20
1.6793149606299211
11
-1.1438583070866142
21
1.7196692913385827
0
LINE
8
BLACK
6
CONTINUOUS
10
-1.1438583070866142
20
1.7196692913385827
11
-1.1434087795275589
21
1.7219292519685039
0
LINE
8
BLACK
6
CONTINUOUS
10
-1.1434087795275589
20
1.7219292519685039
11
-1.142128622047244
21
1.7238451181102361
0
LINE
8
BLACK
6
CONTINUOUS
10
-1.142128622047244
20
1.7238451181102361
11
-1.1402127559055117
21
1.7251252755905511
0
LINE
8
BLACK
6
CONTINUOUS
10
-1.1402127559055117
20
1.7251252755905511
11
-1.1379527952755906
21
1.7255748031496063
0
LINE
8
BLACK
6
CONTINUOUS
10
-1.1379527952755906
20
1.7255748031496063
11
-1.1261417716535433
21
1.7255748031496063
0
LINE
8
BLACK
6
CONTINUOUS
10
-1.1261417716535433
20
1.7255748031496063
11
-1.1238818110236219
21
1.7251252755905511
0
LINE
8
BLACK
6
CONTINUOUS
10
-1.0864802362204724
20
1.7251252755905511
11
-1.0845643700787402
21
1.7238451181102361
0
LINE
8
BLACK
6
CONTINUOUS
10
-1.0845643700787402
20
1.7238451181102361
11
-1.0832842125984252
21
1.7219292519685039
0
LINE
8
BLACK
6
CONTINUOUS
10
-1.0832842125984252
20
1.7219292519685039
11
-1.08283468503937
21
1.7196692913385827
0
LINE
8
BLACK
6
CONTINUOUS
10
-1.08283468503937
20
1.7196692913385827
11
-1.08283468503937
21
1.6793149606299211
0
LINE
8
BLACK
6
CONTINUOUS
10
-1.08283468503937
20
1.6793149606299211
11
-1.0832842125984252
21
1.677055
0
LINE
8
BLACK
6
CONTINUOUS
10
-1.0832842125984252
20
1.677055
11
-1.0845643700787402
21
1.6751391338582677
0
LINE
8
BLACK
6
CONTINUOUS
10
-1.0845643700787402
20
1.6751391338582677
11
-1.0864802362204724
21
1.6738589763779528
0
LINE
8
BLACK
6
CONTINUOUS
10
-1.0864802362204724
20
1.6738589763779528
11
-1.0887401968503936
21
1.6734094488188975
0
LINE
8
BLACK
6
CONTINUOUS
10
-1.0887401968503936
20
1.6734094488188975
11
-1.100551220472441
21
1.6734094488188975
0
LINE
8
BLACK
6
CONTINUOUS
10
-1.100551220472441
20
1.6734094488188975
11
-1.1028111811023622
21
1.6738589763779528
0
LINE
8
BLACK
6
CONTINUOUS
10
-1.1028111811023622
20
1.6738589763779528
11
-1.1047270472440944
21
1.6751391338582677
0
LINE
8
BLACK
6
CONTINUOUS
10
-1.1047270472440944
20
1.6751391338582677
11
-1.1060072047244094
21
1.677055
0
LINE
8
BLACK
6
CONTINUOUS
10
-1.1060072047244094
20
1.677055
11
-1.1064567322834646
21
1.6793149606299211
0
LINE
8
BLACK
6
CONTINUOUS
10
-1.1064567322834646
20
1.6793149606299211
11
-1.1064567322834646
21
1.7196692913385827
0
LINE
8
BLACK
6
CONTINUOUS
10
-1.1064567322834646
20
1.7196692913385827
11
-1.1060072047244094
21
1.7219292519685039
0
LINE
8
BLACK
6
CONTINUOUS
10
-1.1060072047244094
20
1.7219292519685039
11
-1.1047270472440944
21
1.7238451181102361
0
LINE
8
BLACK
6
CONTINUOUS
10
-1.1047270472440944
20
1.7238451181102361
11
-1.1028111811023622
21
1.7251252755905511
0
LINE
8
BLACK
6
CONTINUOUS
10
-1.1028111811023622
20
1.7251252755905511
11
-1.100551220472441
21
1.7255748031496063
0
LINE
8
BLACK
6
CONTINUOUS
10
-1.100551220472441
20
1.7255748031496063
11
-1.0887401968503936
21
1.7255748031496063
0
LINE
8
BLACK
6
CONTINUOUS
10
-1.0887401968503936
20
1.7255748031496063
11
-1.0864802362204724
21
1.7251252755905511
0
LINE
8
BLACK
6
CONTINUOUS
10
-1.0490786614173229
20
1.7251252755905511
11
-1.0471627952755904
21
1.7238451181102361
0
LINE
8
BLACK
6
CONTINUOUS
10
-1.0471627952755904
20
1.7238451181102361
11
-1.0458826377952755
21
1.7219292519685039
0
LINE
8
BLACK
6
CONTINUOUS
10
-1.0458826377952755
20
1.7219292519685039
11
-1.0454331102362204
21
1.7196692913385827
0
LINE
8
BLACK
6
CONTINUOUS
10
-1.0454331102362204
20
1.7196692913385827
11
-1.0454331102362204
21
1.6793149606299211
0
LINE
8
BLACK
6
CONTINUOUS
10
-1.0454331102362204
20
1.6793149606299211
11
-1.0458826377952755
21
1.677055
0
LINE
8
BLACK
6
CONTINUOUS
10
-1.0458826377952755
20
1.677055
11
-1.0471627952755904
21
1.6751391338582677
0
LINE
8
BLACK
6
CONTINUOUS
10
-1.0471627952755904
20
1.6751391338582677
11
-1.0490786614173229
21
1.6738589763779528
0
LINE
8
BLACK
6
CONTINUOUS
10
-1.0490786614173229
20
1.6738589763779528
11
-1.051338622047244
21
1.6734094488188975
0
LINE
8
BLACK
6
CONTINUOUS
10
-1.051338622047244
20
1.6734094488188975
11
-1.0631496456692913
21
1.6734094488188975
0
LINE
8
BLACK
6
CONTINUOUS
10
-1.0631496456692913
20
1.6734094488188975
11
-1.0654096062992127
21
1.6738589763779528
0
LINE
8
BLACK
6
CONTINUOUS
10
-1.0654096062992127
20
1.6738589763779528
11
-1.0673254724409449
21
1.6751391338582677
0
LINE
8
BLACK
6
CONTINUOUS
10
-1.0673254724409449
20
1.6751391338582677
11
-1.0686056299212598
21
1.677055
0
LINE
8
BLACK
6
CONTINUOUS
10
-1.0686056299212598
20
1.677055
11
-1.0690551574803149
21
1.6793149606299211
0
LINE
8
BLACK
6
CONTINUOUS
10
-1.0690551574803149
20
1.6793149606299211
11
-1.0690551574803149
21
1.7196692913385827
0
LINE
8
BLACK
6
CONTINUOUS
10
-1.0690551574803149
20
1.7196692913385827
11
-1.0686056299212598
21
1.7219292519685039
0
LINE
8
BLACK
6
CONTINUOUS
10
-1.0686056299212598
20
1.7219292519685039
11
-1.0673254724409449
21
1.7238451181102361
0
LINE
8
BLACK
6
CONTINUOUS
10
-1.0673254724409449
20
1.7238451181102361
11
-1.0654096062992127
21
1.7251252755905511
0
LINE
8
BLACK
6
CONTINUOUS
10
-1.0654096062992127
20
1.7251252755905511
11
-1.0631496456692913
21
1.7255748031496063
0
LINE
8
BLACK
6
CONTINUOUS
10
-1.0631496456692913
20
1.7255748031496063
11
-1.051338622047244
21
1.7255748031496063
0
LINE
8
BLACK
6
CONTINUOUS
10
-1.051338622047244
20
1.7255748031496063
11
-1.0490786614173229
21
1.7251252755905511
0
LINE
8
BLACK
6
CONTINUOUS
10
-1.0414696456692913
20
1.8025184251968505
11
-1.038276496062992
21
1.8003848425196849
0
LINE
8
BLACK
6
CONTINUOUS
10
-1.038276496062992
20
1.8003848425196849
11
-1.0361429133858266
21
1.7971916929133858
0
LINE
8
BLACK
6
CONTINUOUS
10
-1.0361429133858266
20
1.7971916929133858
11
-1.0353937007874014
21
1.7934251181102361
0
LINE
8
BLACK
6
CONTINUOUS
10
-1.0353937007874014
20
1.7934251181102361
11
-1.0353937007874014
21
1.7579920472440944
0
LINE
8
BLACK
6
CONTINUOUS
10
-1.0353937007874014
20
1.7579920472440944
11
-1.0361429133858266
21
1.7542254724409447
0
LINE
8
BLACK
6
CONTINUOUS
10
-1.0361429133858266
20
1.7542254724409447
11
-1.038276496062992
21
1.7510323228346456
0
LINE
8
BLACK
6
CONTINUOUS
10
-1.038276496062992
20
1.7510323228346456
11
-1.0414696456692913
21
1.7488987401574803
0
LINE
8
BLACK
6
CONTINUOUS
10
-1.0414696456692913
20
1.7488987401574803
11
-1.045236220472441
21
1.7481495275590551
0
LINE
8
BLACK
6
CONTINUOUS
10
-1.045236220472441
20
1.7481495275590551
11
-1.0659055118110237
21
1.7481495275590551
0
LINE
8
BLACK
6
CONTINUOUS
10
-1.0659055118110237
20
1.7481495275590551
11
-1.0696720866141731
21
1.7488987401574803
0
LINE
8
BLACK
6
CONTINUOUS
10
-1.0696720866141731
20
1.7488987401574803
11
-1.0728652362204725
21
1.7510323228346456
0
LINE
8
BLACK
6
CONTINUOUS
10
-1.0728652362204725
20
1.7510323228346456
11
-1.0749988188976378
21
1.7542254724409447
0
LINE
8
BLACK
6
CONTINUOUS
10
-1.0749988188976378
20
1.7542254724409447
11
-1.075748031496063
21
1.7579920472440944
0
LINE
8
BLACK
6
CONTINUOUS
10
-1.075748031496063
20
1.7579920472440944
11
-1.075748031496063
21
1.7934251181102361
0
LINE
8
BLACK
6
CONTINUOUS
10
-1.075748031496063
20
1.7934251181102361
11
-1.0749988188976378
21
1.7971916929133858
0
LINE
8
BLACK
6
CONTINUOUS
10
-1.0749988188976378
20
1.7971916929133858
11
-1.0728652362204725
21
1.8003848425196849
0
LINE
8
BLACK
6
CONTINUOUS
10
-1.0728652362204725
20
1.8003848425196849
11
-1.0696720866141731
21
1.8025184251968505
0
LINE
8
BLACK
6
CONTINUOUS
10
-1.0696720866141731
20
1.8025184251968505
11
-1.0659055118110237
21
1.8032676377952757
0
LINE
8
BLACK
6
CONTINUOUS
10
-1.0659055118110237
20
1.8032676377952757
11
-1.045236220472441
21
1.8032676377952757
0
LINE
8
BLACK
6
CONTINUOUS
10
-1.045236220472441
20
1.8032676377952757
11
-1.0414696456692913
21
1.8025184251968505
0
LINE
8
BLACK
6
CONTINUOUS
10
-0.969619251968504
20
1.8025184251968505
11
-0.9664261023622047
21
1.8003848425196849
0
LINE
8
BLACK
6
CONTINUOUS
10
-0.9664261023622047
20
1.8003848425196849
11
-0.9642925196850394
21
1.7971916929133858
0
LINE
8
BLACK
6
CONTINUOUS
10
-0.9642925196850394
20
1.7971916929133858
11
-0.9635433070866142
21
1.7934251181102361
0
LINE
8
BLACK
6
CONTINUOUS
10
-0.9635433070866142
20
1.7934251181102361
11
-0.9635433070866142
21
1.7579920472440944
0
LINE
8
BLACK
6
CONTINUOUS
10
-0.9635433070866142
20
1.7579920472440944
11
-0.9642925196850394
21
1.7542254724409447
0
LINE
8
BLACK
6
CONTINUOUS
10
-0.9642925196850394
20
1.7542254724409447
11
-0.9664261023622047
21
1.7510323228346456
0
LINE
8
BLACK
6
CONTINUOUS
10
-0.9664261023622047
20
1.7510323228346456
11
-0.969619251968504
21
1.7488987401574803
0
LINE
8
BLACK
6
CONTINUOUS
10
-0.969619251968504
20
1.7488987401574803
11
-0.9733858267716535
21
1.7481495275590551
0
LINE
8
BLACK
6
CONTINUOUS
10
-0.9733858267716535
20
1.7481495275590551
11
-0.9940551181102362
21
1.7481495275590551
0
LINE
8
BLACK
6
CONTINUOUS
10
-0.9940551181102362
20
1.7481495275590551
11
-0.9978216929133858
21
1.7488987401574803
0
LINE
8
BLACK
6
CONTINUOUS
10
-0.9978216929133858
20
1.7488987401574803
11
-1.001014842519685
21
1.7510323228346456
0
LINE
8
BLACK
6
CONTINUOUS
10
-1.001014842519685
20
1.7510323228346456
11
-1.0031484251968503
21
1.7542254724409447
0
LINE
8
BLACK
6
CONTINUOUS
10
-1.0031484251968503
20
1.7542254724409447
11
-1.0038976377952755
21
1.7579920472440944
0
LINE
8
BLACK
6
CONTINUOUS
10
-1.0038976377952755
20
1.7579920472440944
11
-1.0038976377952755
21
1.7934251181102361
0
LINE
8
BLACK
6
CONTINUOUS
10
-1.0038976377952755
20
1.7934251181102361
11
-1.0031484251968503
21
1.7971916929133858
0
LINE
8
BLACK
6
CONTINUOUS
10
-1.0031484251968503
20
1.7971916929133858
11
-1.001014842519685
21
1.8003848425196849
0
LINE
8
BLACK
6
CONTINUOUS
10
-1.001014842519685
20
1.8003848425196849
11
-0.9978216929133858
21
1.8025184251968505
0
LINE
8
BLACK
6
CONTINUOUS
10
-0.9978216929133858
20
1.8025184251968505
11
-0.9940551181102362
21
1.8032676377952757
0
LINE
8
BLACK
6
CONTINUOUS
10
-0.9940551181102362
20
1.8032676377952757
11
-0.9733858267716535
21
1.8032676377952757
0
LINE
8
BLACK
6
CONTINUOUS
10
-0.9733858267716535
20
1.8032676377952757
11
-0.969619251968504
21
1.8025184251968505
0
LINE
8
BLACK
6
CONTINUOUS
10
-0.5670995669291339
20
1.871298031496063
11
-0.5639064173228346
21
1.8691644488188977
0
LINE
8
BLACK
6
CONTINUOUS
10
-0.5639064173228346
20
1.8691644488188977
11
-0.5617728346456693
21
1.8659712992125983
0
LINE
8
BLACK
6
CONTINUOUS
10
-0.5617728346456693
20
1.8659712992125983
11
-0.5610236220472441
21
1.8622047244094488
0
LINE
8
BLACK
6
CONTINUOUS
10
-0.5610236220472441
20
1.8622047244094488
11
-0.5610236220472441
21
1.7834645669291338
0
LINE
8
BLACK
6
CONTINUOUS
10
-0.5610236220472441
20
1.7834645669291338
11
-0.5617728346456693
21
1.7796979921259841
0
LINE
8
BLACK
6
CONTINUOUS
10
-0.5617728346456693
20
1.7796979921259841
11
-0.5639064173228346
21
1.776504842519685
0
LINE
8
BLACK
6
CONTINUOUS
10
-0.5639064173228346
20
1.776504842519685
11
-0.5670995669291339
21
1.7743712598425196
0
LINE
8
BLACK
6
CONTINUOUS
10
-0.5670995669291339
20
1.7743712598425196
11
-0.5708661417322834
21
1.7736220472440944
0
LINE
8
BLACK
6
CONTINUOUS
10
-0.5708661417322834
20
1.7736220472440944
11
-0.6417322834645669
21
1.7736220472440944
0
LINE
8
BLACK
6
CONTINUOUS
10
-0.6417322834645669
20
1.7736220472440944
11
-0.6454988582677165
21
1.7743712598425196
0
LINE
8
BLACK
6
CONTINUOUS
10
-0.6454988582677165
20
1.7743712598425196
11
-0.6486920078740157
21
1.776504842519685
0
LINE
8
BLACK
6
CONTINUOUS
10
-0.6486920078740157
20
1.776504842519685
11
-0.6508255905511811
21
1.7796979921259841
0
LINE
8
BLACK
6
CONTINUOUS
10
-0.6508255905511811
20
1.7796979921259841
11
-0.6515748031496063
21
1.7834645669291338
0
LINE
8
BLACK
6
CONTINUOUS
10
-0.6515748031496063
20
1.7834645669291338
11
-0.6515748031496063
21
1.8622047244094488
0
LINE
8
BLACK
6
CONTINUOUS
10
-0.6515748031496063
20
1.8622047244094488
11
-0.6508255905511811
21
1.8659712992125983
0
LINE
8
BLACK
6
CONTINUOUS
10
-0.6508255905511811
20
1.8659712992125983
11
-0.6486920078740157
21
1.8691644488188977
0
LINE
8
BLACK
6
CONTINUOUS
10
-0.6486920078740157
20
1.8691644488188977
11
-0.6454988582677165
21
1.871298031496063
0
LINE
8
BLACK
6
CONTINUOUS
10
-0.6454988582677165
20
1.871298031496063
11
-0.6417322834645669
21
1.8720472440944882
0
LINE
8
BLACK
6
CONTINUOUS
10
-0.6417322834645669
20
1.8720472440944882
11
-0.5708661417322834
21
1.8720472440944882
0
LINE
8
BLACK
6
CONTINUOUS
10
-0.5708661417322834
20
1.8720472440944882
11
-0.5670995669291339
21
1.871298031496063
0
LINE
8
BLACK
6
CONTINUOUS
10
-0.439146811023622
20
1.8742507874015748
11
-0.4359536614173228
21
1.8721172047244095
0
LINE
8
BLACK
6
CONTINUOUS
10
-0.4359536614173228
20
1.8721172047244095
11
-0.4338200787401575
21
1.8689240551181101
0
LINE
8
BLACK
6
CONTINUOUS
10
-0.4338200787401575
20
1.8689240551181101
11
-0.4330708661417323
21
1.8651574803149606
0
LINE
8
BLACK
6
CONTINUOUS
10
-0.4330708661417323
20
1.8651574803149606
11
-0.4330708661417323
21
1.8277559055118109
0
LINE
8
BLACK
6
CONTINUOUS
10
-0.4330708661417323
20
1.8277559055118109
11
-0.4338200787401575
21
1.8239893307086614
0
LINE
8
BLACK
6
CONTINUOUS
10
-0.4338200787401575
20
1.8239893307086614
11
-0.4359536614173228
21
1.8207961811023621
0
LINE
8
BLACK
6
CONTINUOUS
10
-0.4359536614173228
20
1.8207961811023621
11
-0.439146811023622
21
1.8186625984251967
0
LINE
8
BLACK
6
CONTINUOUS
10
-0.439146811023622
20
1.8186625984251967
11
-0.4429133858267716
21
1.8179133858267715
0
LINE
8
BLACK
6
CONTINUOUS
10
-0.4429133858267716
20
1.8179133858267715
11
-0.4625984251968504
21
1.8179133858267715
0
LINE
8
BLACK
6
CONTINUOUS
10
-0.4625984251968504
20
1.8179133858267715
11
-0.466365
21
1.8186625984251967
0
LINE
8
BLACK
6
CONTINUOUS
10
-0.466365
20
1.8186625984251967
11
-0.4695581496062992
21
1.8207961811023621
0
LINE
8
BLACK
6
CONTINUOUS
10
-0.4695581496062992
20
1.8207961811023621
11
-0.4716917322834646
21
1.8239893307086614
0
LINE
8
BLACK
6
CONTINUOUS
10
-0.4716917322834646
20
1.8239893307086614
11
-0.4724409448818898
21
1.8277559055118109
0
LINE
8
BLACK
6
CONTINUOUS
10
-0.4724409448818898
20
1.8277559055118109
11
-0.4724409448818898
21
1.8651574803149606
0
LINE
8
BLACK
6
CONTINUOUS
10
-0.4724409448818898
20
1.8651574803149606
11
-0.4716917322834646
21
1.8689240551181101
0
LINE
8
BLACK
6
CONTINUOUS
10
-0.4716917322834646
20
1.8689240551181101
11
-0.4695581496062992
21
1.8721172047244095
0
LINE
8
BLACK
6
CONTINUOUS
10
-0.4695581496062992
20
1.8721172047244095
11
-0.466365
21
1.8742507874015748
0
LINE
8
BLACK
6
CONTINUOUS
10
-0.466365
20
1.8742507874015748
11
-0.4625984251968504
21
1.875
0
LINE
8
BLACK
6
CONTINUOUS
10
-0.4625984251968504
20
1.875
11
-0.4429133858267716
21
1.875
0
LINE
8
BLACK
6
CONTINUOUS
10
-0.4429133858267716
20
1.875
11
-0.439146811023622
21
1.8742507874015748
0
LINE
8
BLACK
6
CONTINUOUS
10
-0.3643436614173228
20
1.8742507874015748
11
-0.3611505118110236
21
1.8721172047244095
0
LINE
8
BLACK
6
CONTINUOUS
10
-0.3611505118110236
20
1.8721172047244095
11
-0.3590169291338582
21
1.8689240551181101
0
LINE
8
BLACK
6
CONTINUOUS
10
-0.3590169291338582
20
1.8689240551181101
11
-0.358267716535433
21
1.8651574803149606
0
LINE
8
BLACK
6
CONTINUOUS
10
-0.358267716535433
20
1.8651574803149606
11
-0.358267716535433
21
1.8277559055118109
0
LINE
8
BLACK
6
CONTINUOUS
10
-0.358267716535433
20
1.8277559055118109
11
-0.3590169291338582
21
1.8239893307086614
0
LINE
8
BLACK
6
CONTINUOUS
10
-0.3590169291338582
20
1.8239893307086614
11
-0.3611505118110236
21
1.8207961811023621
0
LINE
8
BLACK
6
CONTINUOUS
10
-0.3611505118110236
20
1.8207961811023621
11
-0.3643436614173228
21
1.8186625984251967
0
LINE
8
BLACK
6
CONTINUOUS
10
-0.3643436614173228
20
1.8186625984251967
11
-0.3681102362204725
21
1.8179133858267715
0
LINE
8
BLACK
6
CONTINUOUS
10
-0.3681102362204725
20
1.8179133858267715
11
-0.3877952755905512
21
1.8179133858267715
0
LINE
8
BLACK
6
CONTINUOUS
10
-0.3877952755905512
20
1.8179133858267715
11
-0.3915618503937008
21
1.8186625984251967
0
LINE
8
BLACK
6
CONTINUOUS
10
-0.3915618503937008
20
1.8186625984251967
11
-0.394755
21
1.8207961811023621
0
LINE
8
BLACK
6
CONTINUOUS
10
-0.394755
20
1.8207961811023621
11
-0.3968885826771654
21
1.8239893307086614
0
LINE
8
BLACK
6
CONTINUOUS
10
-0.3968885826771654
20
1.8239893307086614
11
-0.3976377952755906
21
1.8277559055118109
0
LINE
8
BLACK
6
CONTINUOUS
10
-0.3976377952755906
20
1.8277559055118109
11
-0.3976377952755906
21
1.8651574803149606
0
LINE
8
BLACK
6
CONTINUOUS
10
-0.3976377952755906
20
1.8651574803149606
11
-0.3968885826771654
21
1.8689240551181101
0
LINE
8
BLACK
6
CONTINUOUS
10
-0.3968885826771654
20
1.8689240551181101
11
-0.394755
21
1.8721172047244095
0
LINE
8
BLACK
6
CONTINUOUS
10
-0.394755
20
1.8721172047244095
11
-0.3915618503937008
21
1.8742507874015748
0
LINE
8
BLACK
6
CONTINUOUS
10
-0.3915618503937008
20
1.8742507874015748
11
-0.3877952755905512
21
1.875
0
LINE
8
BLACK
6
CONTINUOUS
10
-0.3877952755905512
20
1.875
11
-0.3681102362204725
21
1.875
0
LINE
8
BLACK
6
CONTINUOUS
10
-0.3681102362204725
20
1.875
11
-0.3643436614173228
21
1.8742507874015748
0
LINE
8
BLACK
6
CONTINUOUS
10
-1.4645669291338583
20
1.8779527559055118
11
-1.5039370078740157
21
1.8779527559055118
0
LINE
8
BLACK
6
CONTINUOUS
10
-1.5039370078740157
20
1.8779527559055118
11
-1.5039370078740157
21
1.9685039370078741
0
LINE
8
BLACK
6
CONTINUOUS
10
-1.5039370078740157
20
1.9685039370078741
11
-1.5039370078740157
21
2.0078740157480315
0
LINE
8
BLACK
6
CONTINUOUS
10
-1.5039370078740157
20
2.0078740157480315
11
-1.4645669291338583
21
2.0078740157480315
0
LINE
8
BLACK
6
CONTINUOUS
10
-1.4645669291338583
20
2.0078740157480315
11
-1.3740157480314961
21
2.0078740157480315
0
LINE
8
BLACK
6
CONTINUOUS
10
-1.3740157480314961
20
2.0078740157480315
11
-1.3740157480314961
21
1.9685039370078741
0
LINE
8
BLACK
6
CONTINUOUS
10
-1.3740157480314961
20
1.9685039370078741
11
-1.4645669291338583
21
1.9685039370078741
0
LINE
8
BLACK
6
CONTINUOUS
10
-1.4645669291338583
20
1.9685039370078741
11
-1.4645669291338583
21
1.8779527559055118
0
LINE
8
BLACK
6
CONTINUOUS
10
-0.2125984251968504
20
1.8779527559055118
11
-0.2519685039370079
21
1.8779527559055118
0
LINE
8
BLACK
6
CONTINUOUS
10
-0.2519685039370079
20
1.8779527559055118
11
-0.2519685039370079
21
1.9685039370078741
0
LINE
8
BLACK
6
CONTINUOUS
10
-0.2519685039370079
20
1.9685039370078741
11
-0.3425196850393701
21
1.9685039370078741
0
LINE
8
BLACK
6
CONTINUOUS
10
-0.3425196850393701
20
1.9685039370078741
11
-0.3425196850393701
21
2.0078740157480315
0
LINE
8
BLACK
6
CONTINUOUS
10
-0.3425196850393701
20
2.0078740157480315
11
-0.2519685039370079
21
2.0078740157480315
0
LINE
8
BLACK
6
CONTINUOUS
10
-0.2519685039370079
20
2.0078740157480315
11
-0.2125984251968504
21
2.0078740157480315
0
LINE
8
BLACK
6
CONTINUOUS
10
-0.2125984251968504
20
2.0078740157480315
11
-0.2125984251968504
21
1.9685039370078741
0
LINE
8
BLACK
6
CONTINUOUS
10
-0.2125984251968504
20
1.9685039370078741
11
-0.2125984251968504
21
1.8779527559055118
0
LINE
8
BLACK
6
CONTINUOUS
10
-1.1377952755905512
20
1.9685039370078741
11
-1.2874015748031495
21
1.9685039370078741
0
LINE
8
BLACK
6
CONTINUOUS
10
-1.2874015748031495
20
1.9685039370078741
11
-1.2874015748031495
21
2.0078740157480315
0
LINE
8
BLACK
6
CONTINUOUS
10
-1.2874015748031495
20
2.0078740157480315
11
-1.1377952755905512
21
2.0078740157480315
0
LINE
8
BLACK
6
CONTINUOUS
10
-1.1377952755905512
20
2.0078740157480315
11
-1.1377952755905512
21
1.9685039370078741
0
LINE
8
BLACK
6
CONTINUOUS
10
-0.9015748031496063
20
1.9685039370078741
11
-1.0511811023622046
21
1.9685039370078741
0
LINE
8
BLACK
6
CONTINUOUS
10
-1.0511811023622046
20
1.9685039370078741
11
-1.0511811023622046
21
2.0078740157480315
0
LINE
8
BLACK
6
CONTINUOUS
10
-1.0511811023622046
20
2.0078740157480315
11
-0.9015748031496063
21
2.0078740157480315
0
LINE
8
BLACK
6
CONTINUOUS
10
-0.9015748031496063
20
2.0078740157480315
11
-0.9015748031496063
21
1.9685039370078741
0
LINE
8
BLACK
6
CONTINUOUS
10
-0.6653543307086615
20
1.9685039370078741
11
-0.8149606299212598
21
1.9685039370078741
0
LINE
8
BLACK
6
CONTINUOUS
10
-0.8149606299212598
20
1.9685039370078741
11
-0.8149606299212598
21
2.0078740157480315
0
LINE
8
BLACK
6
CONTINUOUS
10
-0.8149606299212598
20
2.0078740157480315
11
-0.6653543307086615
21
2.0078740157480315
0
LINE
8
BLACK
6
CONTINUOUS
10
-0.6653543307086615
20
2.0078740157480315
11
-0.6653543307086615
21
1.9685039370078741
0
LINE
8
BLACK
6
CONTINUOUS
10
-0.4291338582677166
20
1.9685039370078741
11
-0.5787401574803149
21
1.9685039370078741
0
LINE
8
BLACK
6
CONTINUOUS
10
-0.5787401574803149
20
1.9685039370078741
11
-0.5787401574803149
21
2.0078740157480315
0
LINE
8
BLACK
6
CONTINUOUS
10
-0.5787401574803149
20
2.0078740157480315
11
-0.4291338582677166
21
2.0078740157480315
0
LINE
8
BLACK
6
CONTINUOUS
10
-0.4291338582677166
20
2.0078740157480315
11
-0.4291338582677166
21
1.9685039370078741
  0
ENDSEC
  0
EOF
