%TF.GenerationSoftware,KiCad,Pcbnew,9.0.7+1*%
%TF.CreationDate,2026-05-15T03:56:33+00:00*%
%TF.ProjectId,USTEFMADC01,55535445-464d-4414-9443-30312e6b6963,rev?*%
%TF.SameCoordinates,Original*%
%TF.FileFunction,Legend,Top*%
%TF.FilePolarity,Positive*%
%FSLAX46Y46*%
G04 Gerber Fmt 4.6, Leading zero omitted, Abs format (unit mm)*
G04 Created by KiCad (PCBNEW 9.0.7+1) date 2026-05-15 03:56:33*
%MOMM*%
%LPD*%
G01*
G04 APERTURE LIST*
%ADD10C,0.150000*%
%ADD11C,0.050000*%
%ADD12R,1.524000X1.524000*%
G04 APERTURE END LIST*
D10*
X-8425420Y-46291792D02*
X-8377800Y-46339411D01*
X-8377800Y-46339411D02*
X-8330181Y-46482268D01*
X-8330181Y-46482268D02*
X-8330181Y-46577506D01*
X-8330181Y-46577506D02*
X-8377800Y-46720363D01*
X-8377800Y-46720363D02*
X-8473039Y-46815601D01*
X-8473039Y-46815601D02*
X-8568277Y-46863220D01*
X-8568277Y-46863220D02*
X-8758753Y-46910839D01*
X-8758753Y-46910839D02*
X-8901610Y-46910839D01*
X-8901610Y-46910839D02*
X-9092086Y-46863220D01*
X-9092086Y-46863220D02*
X-9187324Y-46815601D01*
X-9187324Y-46815601D02*
X-9282562Y-46720363D01*
X-9282562Y-46720363D02*
X-9330181Y-46577506D01*
X-9330181Y-46577506D02*
X-9330181Y-46482268D01*
X-9330181Y-46482268D02*
X-9282562Y-46339411D01*
X-9282562Y-46339411D02*
X-9234943Y-46291792D01*
X-9330181Y-45672744D02*
X-9330181Y-45482268D01*
X-9330181Y-45482268D02*
X-9282562Y-45387030D01*
X-9282562Y-45387030D02*
X-9187324Y-45291792D01*
X-9187324Y-45291792D02*
X-8996848Y-45244173D01*
X-8996848Y-45244173D02*
X-8663515Y-45244173D01*
X-8663515Y-45244173D02*
X-8473039Y-45291792D01*
X-8473039Y-45291792D02*
X-8377800Y-45387030D01*
X-8377800Y-45387030D02*
X-8330181Y-45482268D01*
X-8330181Y-45482268D02*
X-8330181Y-45672744D01*
X-8330181Y-45672744D02*
X-8377800Y-45767982D01*
X-8377800Y-45767982D02*
X-8473039Y-45863220D01*
X-8473039Y-45863220D02*
X-8663515Y-45910839D01*
X-8663515Y-45910839D02*
X-8996848Y-45910839D01*
X-8996848Y-45910839D02*
X-9187324Y-45863220D01*
X-9187324Y-45863220D02*
X-9282562Y-45767982D01*
X-9282562Y-45767982D02*
X-9330181Y-45672744D01*
X-8330181Y-44815601D02*
X-9330181Y-44815601D01*
X-9330181Y-44815601D02*
X-8330181Y-44244173D01*
X-8330181Y-44244173D02*
X-9330181Y-44244173D01*
X-9330181Y-43910839D02*
X-8330181Y-43577506D01*
X-8330181Y-43577506D02*
X-9330181Y-43244173D01*
X25182788Y-48029838D02*
X25087550Y-47982219D01*
X25087550Y-47982219D02*
X24944693Y-47982219D01*
X24944693Y-47982219D02*
X24801836Y-48029838D01*
X24801836Y-48029838D02*
X24706598Y-48125076D01*
X24706598Y-48125076D02*
X24658979Y-48220314D01*
X24658979Y-48220314D02*
X24611360Y-48410790D01*
X24611360Y-48410790D02*
X24611360Y-48553647D01*
X24611360Y-48553647D02*
X24658979Y-48744123D01*
X24658979Y-48744123D02*
X24706598Y-48839361D01*
X24706598Y-48839361D02*
X24801836Y-48934600D01*
X24801836Y-48934600D02*
X24944693Y-48982219D01*
X24944693Y-48982219D02*
X25039931Y-48982219D01*
X25039931Y-48982219D02*
X25182788Y-48934600D01*
X25182788Y-48934600D02*
X25230407Y-48886980D01*
X25230407Y-48886980D02*
X25230407Y-48553647D01*
X25230407Y-48553647D02*
X25039931Y-48553647D01*
X25658979Y-48982219D02*
X25658979Y-47982219D01*
X25658979Y-47982219D02*
X26230407Y-48982219D01*
X26230407Y-48982219D02*
X26230407Y-47982219D01*
X26706598Y-48982219D02*
X26706598Y-47982219D01*
X26706598Y-47982219D02*
X26944693Y-47982219D01*
X26944693Y-47982219D02*
X27087550Y-48029838D01*
X27087550Y-48029838D02*
X27182788Y-48125076D01*
X27182788Y-48125076D02*
X27230407Y-48220314D01*
X27230407Y-48220314D02*
X27278026Y-48410790D01*
X27278026Y-48410790D02*
X27278026Y-48553647D01*
X27278026Y-48553647D02*
X27230407Y-48744123D01*
X27230407Y-48744123D02*
X27182788Y-48839361D01*
X27182788Y-48839361D02*
X27087550Y-48934600D01*
X27087550Y-48934600D02*
X26944693Y-48982219D01*
X26944693Y-48982219D02*
X26706598Y-48982219D01*
X-5977800Y-47010839D02*
X-5930181Y-46867982D01*
X-5930181Y-46867982D02*
X-5930181Y-46629887D01*
X-5930181Y-46629887D02*
X-5977800Y-46534649D01*
X-5977800Y-46534649D02*
X-6025420Y-46487030D01*
X-6025420Y-46487030D02*
X-6120658Y-46439411D01*
X-6120658Y-46439411D02*
X-6215896Y-46439411D01*
X-6215896Y-46439411D02*
X-6311134Y-46487030D01*
X-6311134Y-46487030D02*
X-6358753Y-46534649D01*
X-6358753Y-46534649D02*
X-6406372Y-46629887D01*
X-6406372Y-46629887D02*
X-6453991Y-46820363D01*
X-6453991Y-46820363D02*
X-6501610Y-46915601D01*
X-6501610Y-46915601D02*
X-6549229Y-46963220D01*
X-6549229Y-46963220D02*
X-6644467Y-47010839D01*
X-6644467Y-47010839D02*
X-6739705Y-47010839D01*
X-6739705Y-47010839D02*
X-6834943Y-46963220D01*
X-6834943Y-46963220D02*
X-6882562Y-46915601D01*
X-6882562Y-46915601D02*
X-6930181Y-46820363D01*
X-6930181Y-46820363D02*
X-6930181Y-46582268D01*
X-6930181Y-46582268D02*
X-6882562Y-46439411D01*
X-5930181Y-46010839D02*
X-6930181Y-46010839D01*
X-6930181Y-46010839D02*
X-6930181Y-45772744D01*
X-6930181Y-45772744D02*
X-6882562Y-45629887D01*
X-6882562Y-45629887D02*
X-6787324Y-45534649D01*
X-6787324Y-45534649D02*
X-6692086Y-45487030D01*
X-6692086Y-45487030D02*
X-6501610Y-45439411D01*
X-6501610Y-45439411D02*
X-6358753Y-45439411D01*
X-6358753Y-45439411D02*
X-6168277Y-45487030D01*
X-6168277Y-45487030D02*
X-6073039Y-45534649D01*
X-6073039Y-45534649D02*
X-5977800Y-45629887D01*
X-5977800Y-45629887D02*
X-5930181Y-45772744D01*
X-5930181Y-45772744D02*
X-5930181Y-46010839D01*
X-5930181Y-45010839D02*
X-6930181Y-45010839D01*
X25309788Y-53160638D02*
X25214550Y-53113019D01*
X25214550Y-53113019D02*
X25071693Y-53113019D01*
X25071693Y-53113019D02*
X24928836Y-53160638D01*
X24928836Y-53160638D02*
X24833598Y-53255876D01*
X24833598Y-53255876D02*
X24785979Y-53351114D01*
X24785979Y-53351114D02*
X24738360Y-53541590D01*
X24738360Y-53541590D02*
X24738360Y-53684447D01*
X24738360Y-53684447D02*
X24785979Y-53874923D01*
X24785979Y-53874923D02*
X24833598Y-53970161D01*
X24833598Y-53970161D02*
X24928836Y-54065400D01*
X24928836Y-54065400D02*
X25071693Y-54113019D01*
X25071693Y-54113019D02*
X25166931Y-54113019D01*
X25166931Y-54113019D02*
X25309788Y-54065400D01*
X25309788Y-54065400D02*
X25357407Y-54017780D01*
X25357407Y-54017780D02*
X25357407Y-53684447D01*
X25357407Y-53684447D02*
X25166931Y-53684447D01*
X25785979Y-54113019D02*
X25785979Y-53113019D01*
X25785979Y-53113019D02*
X26357407Y-54113019D01*
X26357407Y-54113019D02*
X26357407Y-53113019D01*
X26833598Y-54113019D02*
X26833598Y-53113019D01*
X26833598Y-53113019D02*
X27071693Y-53113019D01*
X27071693Y-53113019D02*
X27214550Y-53160638D01*
X27214550Y-53160638D02*
X27309788Y-53255876D01*
X27309788Y-53255876D02*
X27357407Y-53351114D01*
X27357407Y-53351114D02*
X27405026Y-53541590D01*
X27405026Y-53541590D02*
X27405026Y-53684447D01*
X27405026Y-53684447D02*
X27357407Y-53874923D01*
X27357407Y-53874923D02*
X27309788Y-53970161D01*
X27309788Y-53970161D02*
X27214550Y-54065400D01*
X27214550Y-54065400D02*
X27071693Y-54113019D01*
X27071693Y-54113019D02*
X26833598Y-54113019D01*
X-3377800Y-46910839D02*
X-3330181Y-46767982D01*
X-3330181Y-46767982D02*
X-3330181Y-46529887D01*
X-3330181Y-46529887D02*
X-3377800Y-46434649D01*
X-3377800Y-46434649D02*
X-3425420Y-46387030D01*
X-3425420Y-46387030D02*
X-3520658Y-46339411D01*
X-3520658Y-46339411D02*
X-3615896Y-46339411D01*
X-3615896Y-46339411D02*
X-3711134Y-46387030D01*
X-3711134Y-46387030D02*
X-3758753Y-46434649D01*
X-3758753Y-46434649D02*
X-3806372Y-46529887D01*
X-3806372Y-46529887D02*
X-3853991Y-46720363D01*
X-3853991Y-46720363D02*
X-3901610Y-46815601D01*
X-3901610Y-46815601D02*
X-3949229Y-46863220D01*
X-3949229Y-46863220D02*
X-4044467Y-46910839D01*
X-4044467Y-46910839D02*
X-4139705Y-46910839D01*
X-4139705Y-46910839D02*
X-4234943Y-46863220D01*
X-4234943Y-46863220D02*
X-4282562Y-46815601D01*
X-4282562Y-46815601D02*
X-4330181Y-46720363D01*
X-4330181Y-46720363D02*
X-4330181Y-46482268D01*
X-4330181Y-46482268D02*
X-4282562Y-46339411D01*
X-3330181Y-45910839D02*
X-4330181Y-45910839D01*
X-4330181Y-45910839D02*
X-4330181Y-45672744D01*
X-4330181Y-45672744D02*
X-4282562Y-45529887D01*
X-4282562Y-45529887D02*
X-4187324Y-45434649D01*
X-4187324Y-45434649D02*
X-4092086Y-45387030D01*
X-4092086Y-45387030D02*
X-3901610Y-45339411D01*
X-3901610Y-45339411D02*
X-3758753Y-45339411D01*
X-3758753Y-45339411D02*
X-3568277Y-45387030D01*
X-3568277Y-45387030D02*
X-3473039Y-45434649D01*
X-3473039Y-45434649D02*
X-3377800Y-45529887D01*
X-3377800Y-45529887D02*
X-3330181Y-45672744D01*
X-3330181Y-45672744D02*
X-3330181Y-45910839D01*
X-4330181Y-44720363D02*
X-4330181Y-44529887D01*
X-4330181Y-44529887D02*
X-4282562Y-44434649D01*
X-4282562Y-44434649D02*
X-4187324Y-44339411D01*
X-4187324Y-44339411D02*
X-3996848Y-44291792D01*
X-3996848Y-44291792D02*
X-3663515Y-44291792D01*
X-3663515Y-44291792D02*
X-3473039Y-44339411D01*
X-3473039Y-44339411D02*
X-3377800Y-44434649D01*
X-3377800Y-44434649D02*
X-3330181Y-44529887D01*
X-3330181Y-44529887D02*
X-3330181Y-44720363D01*
X-3330181Y-44720363D02*
X-3377800Y-44815601D01*
X-3377800Y-44815601D02*
X-3473039Y-44910839D01*
X-3473039Y-44910839D02*
X-3663515Y-44958458D01*
X-3663515Y-44958458D02*
X-3996848Y-44958458D01*
X-3996848Y-44958458D02*
X-4187324Y-44910839D01*
X-4187324Y-44910839D02*
X-4282562Y-44815601D01*
X-4282562Y-44815601D02*
X-4330181Y-44720363D01*
X-9404764Y-54736065D02*
X-9071431Y-54736065D01*
X-8928574Y-55259875D02*
X-9404764Y-55259875D01*
X-9404764Y-55259875D02*
X-9404764Y-54259875D01*
X-9404764Y-54259875D02*
X-8928574Y-54259875D01*
X-8357145Y-55259875D02*
X-8452383Y-55212256D01*
X-8452383Y-55212256D02*
X-8500002Y-55117017D01*
X-8500002Y-55117017D02*
X-8500002Y-54259875D01*
X-7595240Y-55212256D02*
X-7690478Y-55259875D01*
X-7690478Y-55259875D02*
X-7880954Y-55259875D01*
X-7880954Y-55259875D02*
X-7976192Y-55212256D01*
X-7976192Y-55212256D02*
X-8023811Y-55117017D01*
X-8023811Y-55117017D02*
X-8023811Y-54736065D01*
X-8023811Y-54736065D02*
X-7976192Y-54640827D01*
X-7976192Y-54640827D02*
X-7880954Y-54593208D01*
X-7880954Y-54593208D02*
X-7690478Y-54593208D01*
X-7690478Y-54593208D02*
X-7595240Y-54640827D01*
X-7595240Y-54640827D02*
X-7547621Y-54736065D01*
X-7547621Y-54736065D02*
X-7547621Y-54831303D01*
X-7547621Y-54831303D02*
X-8023811Y-54926541D01*
X-6690478Y-55212256D02*
X-6785716Y-55259875D01*
X-6785716Y-55259875D02*
X-6976192Y-55259875D01*
X-6976192Y-55259875D02*
X-7071430Y-55212256D01*
X-7071430Y-55212256D02*
X-7119049Y-55164636D01*
X-7119049Y-55164636D02*
X-7166668Y-55069398D01*
X-7166668Y-55069398D02*
X-7166668Y-54783684D01*
X-7166668Y-54783684D02*
X-7119049Y-54688446D01*
X-7119049Y-54688446D02*
X-7071430Y-54640827D01*
X-7071430Y-54640827D02*
X-6976192Y-54593208D01*
X-6976192Y-54593208D02*
X-6785716Y-54593208D01*
X-6785716Y-54593208D02*
X-6690478Y-54640827D01*
X-6404763Y-54593208D02*
X-6023811Y-54593208D01*
X-6261906Y-54259875D02*
X-6261906Y-55117017D01*
X-6261906Y-55117017D02*
X-6214287Y-55212256D01*
X-6214287Y-55212256D02*
X-6119049Y-55259875D01*
X-6119049Y-55259875D02*
X-6023811Y-55259875D01*
X-5690477Y-55259875D02*
X-5690477Y-54593208D01*
X-5690477Y-54783684D02*
X-5642858Y-54688446D01*
X-5642858Y-54688446D02*
X-5595239Y-54640827D01*
X-5595239Y-54640827D02*
X-5500001Y-54593208D01*
X-5500001Y-54593208D02*
X-5404763Y-54593208D01*
X-5071429Y-55259875D02*
X-5071429Y-54593208D01*
X-5071429Y-54259875D02*
X-5119048Y-54307494D01*
X-5119048Y-54307494D02*
X-5071429Y-54355113D01*
X-5071429Y-54355113D02*
X-5023810Y-54307494D01*
X-5023810Y-54307494D02*
X-5071429Y-54259875D01*
X-5071429Y-54259875D02*
X-5071429Y-54355113D01*
X-4166668Y-55212256D02*
X-4261906Y-55259875D01*
X-4261906Y-55259875D02*
X-4452382Y-55259875D01*
X-4452382Y-55259875D02*
X-4547620Y-55212256D01*
X-4547620Y-55212256D02*
X-4595239Y-55164636D01*
X-4595239Y-55164636D02*
X-4642858Y-55069398D01*
X-4642858Y-55069398D02*
X-4642858Y-54783684D01*
X-4642858Y-54783684D02*
X-4595239Y-54688446D01*
X-4595239Y-54688446D02*
X-4547620Y-54640827D01*
X-4547620Y-54640827D02*
X-4452382Y-54593208D01*
X-4452382Y-54593208D02*
X-4261906Y-54593208D01*
X-4261906Y-54593208D02*
X-4166668Y-54640827D01*
X-2642858Y-54736065D02*
X-2976191Y-54736065D01*
X-2976191Y-55259875D02*
X-2976191Y-54259875D01*
X-2976191Y-54259875D02*
X-2500001Y-54259875D01*
X-2119048Y-55259875D02*
X-2119048Y-54593208D01*
X-2119048Y-54259875D02*
X-2166667Y-54307494D01*
X-2166667Y-54307494D02*
X-2119048Y-54355113D01*
X-2119048Y-54355113D02*
X-2071429Y-54307494D01*
X-2071429Y-54307494D02*
X-2119048Y-54259875D01*
X-2119048Y-54259875D02*
X-2119048Y-54355113D01*
X-1261906Y-55212256D02*
X-1357144Y-55259875D01*
X-1357144Y-55259875D02*
X-1547620Y-55259875D01*
X-1547620Y-55259875D02*
X-1642858Y-55212256D01*
X-1642858Y-55212256D02*
X-1690477Y-55117017D01*
X-1690477Y-55117017D02*
X-1690477Y-54736065D01*
X-1690477Y-54736065D02*
X-1642858Y-54640827D01*
X-1642858Y-54640827D02*
X-1547620Y-54593208D01*
X-1547620Y-54593208D02*
X-1357144Y-54593208D01*
X-1357144Y-54593208D02*
X-1261906Y-54640827D01*
X-1261906Y-54640827D02*
X-1214287Y-54736065D01*
X-1214287Y-54736065D02*
X-1214287Y-54831303D01*
X-1214287Y-54831303D02*
X-1690477Y-54926541D01*
X-642858Y-55259875D02*
X-738096Y-55212256D01*
X-738096Y-55212256D02*
X-785715Y-55117017D01*
X-785715Y-55117017D02*
X-785715Y-54259875D01*
X166666Y-55259875D02*
X166666Y-54259875D01*
X166666Y-55212256D02*
X71428Y-55259875D01*
X71428Y-55259875D02*
X-119048Y-55259875D01*
X-119048Y-55259875D02*
X-214286Y-55212256D01*
X-214286Y-55212256D02*
X-261905Y-55164636D01*
X-261905Y-55164636D02*
X-309524Y-55069398D01*
X-309524Y-55069398D02*
X-309524Y-54783684D01*
X-309524Y-54783684D02*
X-261905Y-54688446D01*
X-261905Y-54688446D02*
X-214286Y-54640827D01*
X-214286Y-54640827D02*
X-119048Y-54593208D01*
X-119048Y-54593208D02*
X71428Y-54593208D01*
X71428Y-54593208D02*
X166666Y-54640827D01*
X1404762Y-55259875D02*
X1404762Y-54259875D01*
X1404762Y-54259875D02*
X1738095Y-54974160D01*
X1738095Y-54974160D02*
X2071428Y-54259875D01*
X2071428Y-54259875D02*
X2071428Y-55259875D01*
X2547619Y-55259875D02*
X2547619Y-54593208D01*
X2547619Y-54259875D02*
X2500000Y-54307494D01*
X2500000Y-54307494D02*
X2547619Y-54355113D01*
X2547619Y-54355113D02*
X2595238Y-54307494D01*
X2595238Y-54307494D02*
X2547619Y-54259875D01*
X2547619Y-54259875D02*
X2547619Y-54355113D01*
X3166666Y-55259875D02*
X3071428Y-55212256D01*
X3071428Y-55212256D02*
X3023809Y-55117017D01*
X3023809Y-55117017D02*
X3023809Y-54259875D01*
X3690476Y-55259875D02*
X3595238Y-55212256D01*
X3595238Y-55212256D02*
X3547619Y-55117017D01*
X3547619Y-55117017D02*
X3547619Y-54259875D01*
X5261905Y-55259875D02*
X5261905Y-54736065D01*
X5261905Y-54736065D02*
X5214286Y-54640827D01*
X5214286Y-54640827D02*
X5119048Y-54593208D01*
X5119048Y-54593208D02*
X4928572Y-54593208D01*
X4928572Y-54593208D02*
X4833334Y-54640827D01*
X5261905Y-55212256D02*
X5166667Y-55259875D01*
X5166667Y-55259875D02*
X4928572Y-55259875D01*
X4928572Y-55259875D02*
X4833334Y-55212256D01*
X4833334Y-55212256D02*
X4785715Y-55117017D01*
X4785715Y-55117017D02*
X4785715Y-55021779D01*
X4785715Y-55021779D02*
X4833334Y-54926541D01*
X4833334Y-54926541D02*
X4928572Y-54878922D01*
X4928572Y-54878922D02*
X5166667Y-54878922D01*
X5166667Y-54878922D02*
X5261905Y-54831303D01*
X5738096Y-54593208D02*
X5738096Y-55259875D01*
X5738096Y-54688446D02*
X5785715Y-54640827D01*
X5785715Y-54640827D02*
X5880953Y-54593208D01*
X5880953Y-54593208D02*
X6023810Y-54593208D01*
X6023810Y-54593208D02*
X6119048Y-54640827D01*
X6119048Y-54640827D02*
X6166667Y-54736065D01*
X6166667Y-54736065D02*
X6166667Y-55259875D01*
X7071429Y-55259875D02*
X7071429Y-54736065D01*
X7071429Y-54736065D02*
X7023810Y-54640827D01*
X7023810Y-54640827D02*
X6928572Y-54593208D01*
X6928572Y-54593208D02*
X6738096Y-54593208D01*
X6738096Y-54593208D02*
X6642858Y-54640827D01*
X7071429Y-55212256D02*
X6976191Y-55259875D01*
X6976191Y-55259875D02*
X6738096Y-55259875D01*
X6738096Y-55259875D02*
X6642858Y-55212256D01*
X6642858Y-55212256D02*
X6595239Y-55117017D01*
X6595239Y-55117017D02*
X6595239Y-55021779D01*
X6595239Y-55021779D02*
X6642858Y-54926541D01*
X6642858Y-54926541D02*
X6738096Y-54878922D01*
X6738096Y-54878922D02*
X6976191Y-54878922D01*
X6976191Y-54878922D02*
X7071429Y-54831303D01*
X7690477Y-55259875D02*
X7595239Y-55212256D01*
X7595239Y-55212256D02*
X7547620Y-55117017D01*
X7547620Y-55117017D02*
X7547620Y-54259875D01*
X8214287Y-55259875D02*
X8119049Y-55212256D01*
X8119049Y-55212256D02*
X8071430Y-55164636D01*
X8071430Y-55164636D02*
X8023811Y-55069398D01*
X8023811Y-55069398D02*
X8023811Y-54783684D01*
X8023811Y-54783684D02*
X8071430Y-54688446D01*
X8071430Y-54688446D02*
X8119049Y-54640827D01*
X8119049Y-54640827D02*
X8214287Y-54593208D01*
X8214287Y-54593208D02*
X8357144Y-54593208D01*
X8357144Y-54593208D02*
X8452382Y-54640827D01*
X8452382Y-54640827D02*
X8500001Y-54688446D01*
X8500001Y-54688446D02*
X8547620Y-54783684D01*
X8547620Y-54783684D02*
X8547620Y-55069398D01*
X8547620Y-55069398D02*
X8500001Y-55164636D01*
X8500001Y-55164636D02*
X8452382Y-55212256D01*
X8452382Y-55212256D02*
X8357144Y-55259875D01*
X8357144Y-55259875D02*
X8214287Y-55259875D01*
X9404763Y-54593208D02*
X9404763Y-55402732D01*
X9404763Y-55402732D02*
X9357144Y-55497970D01*
X9357144Y-55497970D02*
X9309525Y-55545589D01*
X9309525Y-55545589D02*
X9214287Y-55593208D01*
X9214287Y-55593208D02*
X9071430Y-55593208D01*
X9071430Y-55593208D02*
X8976192Y-55545589D01*
X9404763Y-55212256D02*
X9309525Y-55259875D01*
X9309525Y-55259875D02*
X9119049Y-55259875D01*
X9119049Y-55259875D02*
X9023811Y-55212256D01*
X9023811Y-55212256D02*
X8976192Y-55164636D01*
X8976192Y-55164636D02*
X8928573Y-55069398D01*
X8928573Y-55069398D02*
X8928573Y-54783684D01*
X8928573Y-54783684D02*
X8976192Y-54688446D01*
X8976192Y-54688446D02*
X9023811Y-54640827D01*
X9023811Y-54640827D02*
X9119049Y-54593208D01*
X9119049Y-54593208D02*
X9309525Y-54593208D01*
X9309525Y-54593208D02*
X9404763Y-54640827D01*
X-7571430Y-56203152D02*
X-7190478Y-56203152D01*
X-7428573Y-56869819D02*
X-7428573Y-56012676D01*
X-7428573Y-56012676D02*
X-7380954Y-55917438D01*
X-7380954Y-55917438D02*
X-7285716Y-55869819D01*
X-7285716Y-55869819D02*
X-7190478Y-55869819D01*
X-6857144Y-56869819D02*
X-6857144Y-56203152D01*
X-6857144Y-56393628D02*
X-6809525Y-56298390D01*
X-6809525Y-56298390D02*
X-6761906Y-56250771D01*
X-6761906Y-56250771D02*
X-6666668Y-56203152D01*
X-6666668Y-56203152D02*
X-6571430Y-56203152D01*
X-6095239Y-56869819D02*
X-6190477Y-56822200D01*
X-6190477Y-56822200D02*
X-6238096Y-56774580D01*
X-6238096Y-56774580D02*
X-6285715Y-56679342D01*
X-6285715Y-56679342D02*
X-6285715Y-56393628D01*
X-6285715Y-56393628D02*
X-6238096Y-56298390D01*
X-6238096Y-56298390D02*
X-6190477Y-56250771D01*
X-6190477Y-56250771D02*
X-6095239Y-56203152D01*
X-6095239Y-56203152D02*
X-5952382Y-56203152D01*
X-5952382Y-56203152D02*
X-5857144Y-56250771D01*
X-5857144Y-56250771D02*
X-5809525Y-56298390D01*
X-5809525Y-56298390D02*
X-5761906Y-56393628D01*
X-5761906Y-56393628D02*
X-5761906Y-56679342D01*
X-5761906Y-56679342D02*
X-5809525Y-56774580D01*
X-5809525Y-56774580D02*
X-5857144Y-56822200D01*
X-5857144Y-56822200D02*
X-5952382Y-56869819D01*
X-5952382Y-56869819D02*
X-6095239Y-56869819D01*
X-5333334Y-56203152D02*
X-5333334Y-56869819D01*
X-5333334Y-56298390D02*
X-5285715Y-56250771D01*
X-5285715Y-56250771D02*
X-5190477Y-56203152D01*
X-5190477Y-56203152D02*
X-5047620Y-56203152D01*
X-5047620Y-56203152D02*
X-4952382Y-56250771D01*
X-4952382Y-56250771D02*
X-4904763Y-56346009D01*
X-4904763Y-56346009D02*
X-4904763Y-56869819D01*
X-4571429Y-56203152D02*
X-4190477Y-56203152D01*
X-4428572Y-55869819D02*
X-4428572Y-56726961D01*
X-4428572Y-56726961D02*
X-4380953Y-56822200D01*
X-4380953Y-56822200D02*
X-4285715Y-56869819D01*
X-4285715Y-56869819D02*
X-4190477Y-56869819D01*
X-3857143Y-56488866D02*
X-3095238Y-56488866D01*
X-2238096Y-56822200D02*
X-2333334Y-56869819D01*
X-2333334Y-56869819D02*
X-2523810Y-56869819D01*
X-2523810Y-56869819D02*
X-2619048Y-56822200D01*
X-2619048Y-56822200D02*
X-2666667Y-56726961D01*
X-2666667Y-56726961D02*
X-2666667Y-56346009D01*
X-2666667Y-56346009D02*
X-2619048Y-56250771D01*
X-2619048Y-56250771D02*
X-2523810Y-56203152D01*
X-2523810Y-56203152D02*
X-2333334Y-56203152D01*
X-2333334Y-56203152D02*
X-2238096Y-56250771D01*
X-2238096Y-56250771D02*
X-2190477Y-56346009D01*
X-2190477Y-56346009D02*
X-2190477Y-56441247D01*
X-2190477Y-56441247D02*
X-2666667Y-56536485D01*
X-1761905Y-56203152D02*
X-1761905Y-56869819D01*
X-1761905Y-56298390D02*
X-1714286Y-56250771D01*
X-1714286Y-56250771D02*
X-1619048Y-56203152D01*
X-1619048Y-56203152D02*
X-1476191Y-56203152D01*
X-1476191Y-56203152D02*
X-1380953Y-56250771D01*
X-1380953Y-56250771D02*
X-1333334Y-56346009D01*
X-1333334Y-56346009D02*
X-1333334Y-56869819D01*
X-428572Y-56869819D02*
X-428572Y-55869819D01*
X-428572Y-56822200D02*
X-523810Y-56869819D01*
X-523810Y-56869819D02*
X-714286Y-56869819D01*
X-714286Y-56869819D02*
X-809524Y-56822200D01*
X-809524Y-56822200D02*
X-857143Y-56774580D01*
X-857143Y-56774580D02*
X-904762Y-56679342D01*
X-904762Y-56679342D02*
X-904762Y-56393628D01*
X-904762Y-56393628D02*
X-857143Y-56298390D01*
X-857143Y-56298390D02*
X-809524Y-56250771D01*
X-809524Y-56250771D02*
X-714286Y-56203152D01*
X-714286Y-56203152D02*
X-523810Y-56203152D01*
X-523810Y-56203152D02*
X-428572Y-56250771D01*
X1238095Y-56869819D02*
X1238095Y-56346009D01*
X1238095Y-56346009D02*
X1190476Y-56250771D01*
X1190476Y-56250771D02*
X1095238Y-56203152D01*
X1095238Y-56203152D02*
X904762Y-56203152D01*
X904762Y-56203152D02*
X809524Y-56250771D01*
X1238095Y-56822200D02*
X1142857Y-56869819D01*
X1142857Y-56869819D02*
X904762Y-56869819D01*
X904762Y-56869819D02*
X809524Y-56822200D01*
X809524Y-56822200D02*
X761905Y-56726961D01*
X761905Y-56726961D02*
X761905Y-56631723D01*
X761905Y-56631723D02*
X809524Y-56536485D01*
X809524Y-56536485D02*
X904762Y-56488866D01*
X904762Y-56488866D02*
X1142857Y-56488866D01*
X1142857Y-56488866D02*
X1238095Y-56441247D01*
X1714286Y-56203152D02*
X1714286Y-56869819D01*
X1714286Y-56298390D02*
X1761905Y-56250771D01*
X1761905Y-56250771D02*
X1857143Y-56203152D01*
X1857143Y-56203152D02*
X2000000Y-56203152D01*
X2000000Y-56203152D02*
X2095238Y-56250771D01*
X2095238Y-56250771D02*
X2142857Y-56346009D01*
X2142857Y-56346009D02*
X2142857Y-56869819D01*
X3047619Y-56869819D02*
X3047619Y-55869819D01*
X3047619Y-56822200D02*
X2952381Y-56869819D01*
X2952381Y-56869819D02*
X2761905Y-56869819D01*
X2761905Y-56869819D02*
X2666667Y-56822200D01*
X2666667Y-56822200D02*
X2619048Y-56774580D01*
X2619048Y-56774580D02*
X2571429Y-56679342D01*
X2571429Y-56679342D02*
X2571429Y-56393628D01*
X2571429Y-56393628D02*
X2619048Y-56298390D01*
X2619048Y-56298390D02*
X2666667Y-56250771D01*
X2666667Y-56250771D02*
X2761905Y-56203152D01*
X2761905Y-56203152D02*
X2952381Y-56203152D01*
X2952381Y-56203152D02*
X3047619Y-56250771D01*
X4238096Y-56584104D02*
X4714286Y-56584104D01*
X4142858Y-56869819D02*
X4476191Y-55869819D01*
X4476191Y-55869819D02*
X4809524Y-56869819D01*
X5142858Y-56869819D02*
X5142858Y-55869819D01*
X5142858Y-55869819D02*
X5380953Y-55869819D01*
X5380953Y-55869819D02*
X5523810Y-55917438D01*
X5523810Y-55917438D02*
X5619048Y-56012676D01*
X5619048Y-56012676D02*
X5666667Y-56107914D01*
X5666667Y-56107914D02*
X5714286Y-56298390D01*
X5714286Y-56298390D02*
X5714286Y-56441247D01*
X5714286Y-56441247D02*
X5666667Y-56631723D01*
X5666667Y-56631723D02*
X5619048Y-56726961D01*
X5619048Y-56726961D02*
X5523810Y-56822200D01*
X5523810Y-56822200D02*
X5380953Y-56869819D01*
X5380953Y-56869819D02*
X5142858Y-56869819D01*
X6714286Y-56774580D02*
X6666667Y-56822200D01*
X6666667Y-56822200D02*
X6523810Y-56869819D01*
X6523810Y-56869819D02*
X6428572Y-56869819D01*
X6428572Y-56869819D02*
X6285715Y-56822200D01*
X6285715Y-56822200D02*
X6190477Y-56726961D01*
X6190477Y-56726961D02*
X6142858Y-56631723D01*
X6142858Y-56631723D02*
X6095239Y-56441247D01*
X6095239Y-56441247D02*
X6095239Y-56298390D01*
X6095239Y-56298390D02*
X6142858Y-56107914D01*
X6142858Y-56107914D02*
X6190477Y-56012676D01*
X6190477Y-56012676D02*
X6285715Y-55917438D01*
X6285715Y-55917438D02*
X6428572Y-55869819D01*
X6428572Y-55869819D02*
X6523810Y-55869819D01*
X6523810Y-55869819D02*
X6666667Y-55917438D01*
X6666667Y-55917438D02*
X6714286Y-55965057D01*
X24693922Y-50369819D02*
X25027255Y-51369819D01*
X25027255Y-51369819D02*
X25360588Y-50369819D01*
X26265350Y-51274580D02*
X26217731Y-51322200D01*
X26217731Y-51322200D02*
X26074874Y-51369819D01*
X26074874Y-51369819D02*
X25979636Y-51369819D01*
X25979636Y-51369819D02*
X25836779Y-51322200D01*
X25836779Y-51322200D02*
X25741541Y-51226961D01*
X25741541Y-51226961D02*
X25693922Y-51131723D01*
X25693922Y-51131723D02*
X25646303Y-50941247D01*
X25646303Y-50941247D02*
X25646303Y-50798390D01*
X25646303Y-50798390D02*
X25693922Y-50607914D01*
X25693922Y-50607914D02*
X25741541Y-50512676D01*
X25741541Y-50512676D02*
X25836779Y-50417438D01*
X25836779Y-50417438D02*
X25979636Y-50369819D01*
X25979636Y-50369819D02*
X26074874Y-50369819D01*
X26074874Y-50369819D02*
X26217731Y-50417438D01*
X26217731Y-50417438D02*
X26265350Y-50465057D01*
X27265350Y-51274580D02*
X27217731Y-51322200D01*
X27217731Y-51322200D02*
X27074874Y-51369819D01*
X27074874Y-51369819D02*
X26979636Y-51369819D01*
X26979636Y-51369819D02*
X26836779Y-51322200D01*
X26836779Y-51322200D02*
X26741541Y-51226961D01*
X26741541Y-51226961D02*
X26693922Y-51131723D01*
X26693922Y-51131723D02*
X26646303Y-50941247D01*
X26646303Y-50941247D02*
X26646303Y-50798390D01*
X26646303Y-50798390D02*
X26693922Y-50607914D01*
X26693922Y-50607914D02*
X26741541Y-50512676D01*
X26741541Y-50512676D02*
X26836779Y-50417438D01*
X26836779Y-50417438D02*
X26979636Y-50369819D01*
X26979636Y-50369819D02*
X27074874Y-50369819D01*
X27074874Y-50369819D02*
X27217731Y-50417438D01*
X27217731Y-50417438D02*
X27265350Y-50465057D01*
X-877800Y-46810839D02*
X-830181Y-46667982D01*
X-830181Y-46667982D02*
X-830181Y-46429887D01*
X-830181Y-46429887D02*
X-877800Y-46334649D01*
X-877800Y-46334649D02*
X-925420Y-46287030D01*
X-925420Y-46287030D02*
X-1020658Y-46239411D01*
X-1020658Y-46239411D02*
X-1115896Y-46239411D01*
X-1115896Y-46239411D02*
X-1211134Y-46287030D01*
X-1211134Y-46287030D02*
X-1258753Y-46334649D01*
X-1258753Y-46334649D02*
X-1306372Y-46429887D01*
X-1306372Y-46429887D02*
X-1353991Y-46620363D01*
X-1353991Y-46620363D02*
X-1401610Y-46715601D01*
X-1401610Y-46715601D02*
X-1449229Y-46763220D01*
X-1449229Y-46763220D02*
X-1544467Y-46810839D01*
X-1544467Y-46810839D02*
X-1639705Y-46810839D01*
X-1639705Y-46810839D02*
X-1734943Y-46763220D01*
X-1734943Y-46763220D02*
X-1782562Y-46715601D01*
X-1782562Y-46715601D02*
X-1830181Y-46620363D01*
X-1830181Y-46620363D02*
X-1830181Y-46382268D01*
X-1830181Y-46382268D02*
X-1782562Y-46239411D01*
X-925420Y-45239411D02*
X-877800Y-45287030D01*
X-877800Y-45287030D02*
X-830181Y-45429887D01*
X-830181Y-45429887D02*
X-830181Y-45525125D01*
X-830181Y-45525125D02*
X-877800Y-45667982D01*
X-877800Y-45667982D02*
X-973039Y-45763220D01*
X-973039Y-45763220D02*
X-1068277Y-45810839D01*
X-1068277Y-45810839D02*
X-1258753Y-45858458D01*
X-1258753Y-45858458D02*
X-1401610Y-45858458D01*
X-1401610Y-45858458D02*
X-1592086Y-45810839D01*
X-1592086Y-45810839D02*
X-1687324Y-45763220D01*
X-1687324Y-45763220D02*
X-1782562Y-45667982D01*
X-1782562Y-45667982D02*
X-1830181Y-45525125D01*
X-1830181Y-45525125D02*
X-1830181Y-45429887D01*
X-1830181Y-45429887D02*
X-1782562Y-45287030D01*
X-1782562Y-45287030D02*
X-1734943Y-45239411D01*
X-830181Y-44810839D02*
X-1830181Y-44810839D01*
X-830181Y-44239411D02*
X-1401610Y-44667982D01*
X-1830181Y-44239411D02*
X-1258753Y-44810839D01*
D11*
X11658709Y-46936142D02*
X11658709Y-47221856D01*
X11658709Y-47078999D02*
X11158709Y-47078999D01*
X11158709Y-47078999D02*
X11230138Y-47126618D01*
X11230138Y-47126618D02*
X11277757Y-47174237D01*
X11277757Y-47174237D02*
X11301566Y-47221856D01*
D10*
%TO.C,J1001*%
X-12700001Y-52540000D02*
X-12700000Y-47459999D01*
X-12700000Y-47459999D02*
X12700001Y-47460000D01*
X12700000Y-52540001D02*
X-12700001Y-52540000D01*
X12700001Y-47460000D02*
X12700000Y-52540001D01*
%TO.C,J1*%
X18690000Y-47490000D02*
X23770000Y-47490000D01*
X18690000Y-55110000D02*
X18690000Y-47490000D01*
X23770000Y-47490000D02*
X23770000Y-55110000D01*
X23770000Y-55110000D02*
X18690000Y-55110000D01*
%TD*%
D12*
%TO.C,J1001*%
X11430000Y-48730000D03*
X11430000Y-51270000D03*
X8890000Y-48730000D03*
X8890000Y-51270000D03*
X6350000Y-48730000D03*
X6350000Y-51270000D03*
X3810000Y-48730000D03*
X3810000Y-51270000D03*
X1270000Y-48730000D03*
X1270000Y-51270000D03*
X-1270000Y-48730000D03*
X-1270000Y-51270000D03*
X-3810000Y-48730000D03*
X-3810000Y-51270000D03*
X-6350000Y-48730000D03*
X-6350000Y-51270000D03*
X-8890000Y-48730000D03*
X-8890000Y-51270000D03*
X-11430000Y-48730000D03*
X-11430000Y-51270000D03*
%TD*%
M02*
