%TF.GenerationSoftware,KiCad,Pcbnew,10.0.1-10.0.1~ubuntu25.10.1*%
%TF.CreationDate,2026-06-06T04:05:44+00:00*%
%TF.ProjectId,USTEFMADC01,55535445-464d-4414-9443-30312e6b6963,rev?*%
%TF.SameCoordinates,Original*%
%TF.FileFunction,Copper,L1,Top*%
%TF.FilePolarity,Positive*%
%FSLAX46Y46*%
G04 Gerber Fmt 4.6, Leading zero omitted, Abs format (unit mm)*
G04 Created by KiCad (PCBNEW 10.0.1-10.0.1~ubuntu25.10.1) date 2026-06-06 04:05:44*
%MOMM*%
%LPD*%
G01*
G04 APERTURE LIST*
%ADD10C,0.300000*%
%TA.AperFunction,ComponentPad*%
%ADD11R,1.524000X1.524000*%
%TD*%
%TA.AperFunction,ComponentPad*%
%ADD12C,2.050000*%
%TD*%
%TA.AperFunction,ComponentPad*%
%ADD13C,2.250000*%
%TD*%
%TA.AperFunction,ViaPad*%
%ADD14C,0.800000*%
%TD*%
%TA.AperFunction,Conductor*%
%ADD15C,0.300000*%
%TD*%
%TA.AperFunction,Conductor*%
%ADD16C,0.450000*%
%TD*%
G04 APERTURE END LIST*
D10*
G36*
X2168972Y-59380861D02*
G01*
X2269579Y-59481468D01*
X2322758Y-59587827D01*
X2385714Y-59839648D01*
X2385714Y-60017007D01*
X2322758Y-60268828D01*
X2269579Y-60375188D01*
X2168973Y-60475794D01*
X2011371Y-60528328D01*
X1828571Y-60528328D01*
X1828571Y-59328328D01*
X2011374Y-59328328D01*
X2168972Y-59380861D01*
G37*
G36*
X5161147Y-59373035D02*
G01*
X5198151Y-59410039D01*
X5251329Y-59516397D01*
X5314286Y-59768221D01*
X5314286Y-60088435D01*
X5251329Y-60340259D01*
X5198150Y-60446617D01*
X5161145Y-60483622D01*
X5071733Y-60528328D01*
X4999696Y-60528328D01*
X4910282Y-60483621D01*
X4873278Y-60446617D01*
X4820097Y-60340257D01*
X4757143Y-60088436D01*
X4757143Y-59768220D01*
X4820097Y-59516398D01*
X4873278Y-59410038D01*
X4910282Y-59373035D01*
X4999696Y-59328328D01*
X5071733Y-59328328D01*
X5161147Y-59373035D01*
G37*
G36*
X827602Y-60099757D02*
G01*
X529543Y-60099757D01*
X678572Y-59652669D01*
X827602Y-60099757D01*
G37*
G36*
X7970458Y-60099757D02*
G01*
X7672399Y-60099757D01*
X7821428Y-59652669D01*
X7970458Y-60099757D01*
G37*
G36*
X8636918Y-60994995D02*
G01*
X-8423810Y-60994995D01*
X-8423810Y-59178328D01*
X-8257143Y-59178328D01*
X-8257143Y-60392614D01*
X-8254261Y-60421878D01*
X-8252198Y-60426858D01*
X-8251816Y-60432233D01*
X-8241307Y-60459696D01*
X-8169878Y-60602553D01*
X-8161951Y-60615146D01*
X-8160435Y-60618806D01*
X-8157054Y-60622925D01*
X-8154213Y-60627439D01*
X-8151220Y-60630035D01*
X-8141780Y-60641537D01*
X-8070351Y-60712966D01*
X-8058847Y-60722407D01*
X-8056252Y-60725399D01*
X-8051743Y-60728237D01*
X-8047620Y-60731621D01*
X-8043959Y-60733137D01*
X-8031367Y-60741064D01*
X-7888509Y-60812492D01*
X-7861046Y-60823002D01*
X-7855671Y-60823383D01*
X-7850692Y-60825446D01*
X-7821428Y-60828328D01*
X-7535714Y-60828328D01*
X-7506450Y-60825446D01*
X-7501472Y-60823383D01*
X-7496096Y-60823002D01*
X-7468632Y-60812492D01*
X-7325775Y-60741064D01*
X-7313182Y-60733136D01*
X-7309522Y-60731621D01*
X-7305403Y-60728239D01*
X-7300889Y-60725399D01*
X-7298293Y-60722405D01*
X-7286791Y-60712966D01*
X-7215362Y-60641537D01*
X-7205921Y-60630032D01*
X-7202929Y-60627438D01*
X-7200091Y-60622928D01*
X-7196707Y-60618806D01*
X-7195191Y-60615144D01*
X-7187264Y-60602553D01*
X-7115836Y-60459695D01*
X-7105326Y-60432232D01*
X-7104945Y-60426856D01*
X-7102882Y-60421878D01*
X-7100000Y-60392614D01*
X-7100000Y-59464042D01*
X-6757142Y-59464042D01*
X-6757142Y-59606900D01*
X-6754260Y-59636164D01*
X-6752198Y-59641142D01*
X-6751816Y-59646518D01*
X-6741306Y-59673982D01*
X-6669878Y-59816839D01*
X-6661950Y-59829434D01*
X-6660434Y-59833093D01*
X-6657055Y-59837210D01*
X-6654213Y-59841725D01*
X-6651219Y-59844321D01*
X-6641779Y-59855824D01*
X-6570350Y-59927252D01*
X-6558850Y-59936690D01*
X-6556253Y-59939684D01*
X-6551741Y-59942524D01*
X-6547620Y-59945906D01*
X-6543961Y-59947421D01*
X-6531367Y-59955349D01*
X-6388511Y-60026778D01*
X-6386369Y-60027597D01*
X-6385499Y-60028242D01*
X-6373228Y-60032626D01*
X-6361047Y-60037287D01*
X-6359967Y-60037363D01*
X-6357808Y-60038135D01*
X-6088070Y-60105569D01*
X-5981711Y-60158748D01*
X-5944707Y-60195753D01*
X-5899999Y-60285167D01*
X-5899999Y-60357203D01*
X-5944707Y-60446617D01*
X-5981710Y-60483621D01*
X-6071123Y-60528328D01*
X-6368513Y-60528328D01*
X-6559708Y-60464597D01*
X-6588382Y-60458077D01*
X-6646762Y-60462227D01*
X-6699109Y-60488401D01*
X-6737457Y-60532615D01*
X-6755965Y-60588140D01*
X-6751815Y-60646520D01*
X-6725641Y-60698867D01*
X-6681427Y-60737215D01*
X-6654576Y-60749203D01*
X-6440290Y-60820631D01*
X-6425778Y-60823930D01*
X-6422120Y-60825446D01*
X-6416818Y-60825968D01*
X-6411616Y-60827151D01*
X-6407662Y-60826869D01*
X-6392856Y-60828328D01*
X-6035714Y-60828328D01*
X-6006450Y-60825446D01*
X-6001472Y-60823383D01*
X-5996096Y-60823002D01*
X-5968633Y-60812492D01*
X-5825774Y-60741064D01*
X-5813180Y-60733135D01*
X-5809520Y-60731620D01*
X-5805400Y-60728238D01*
X-5800889Y-60725399D01*
X-5798295Y-60722407D01*
X-5786789Y-60712965D01*
X-5715361Y-60641536D01*
X-5705923Y-60630035D01*
X-5702929Y-60627439D01*
X-5700089Y-60622926D01*
X-5696707Y-60618806D01*
X-5695192Y-60615146D01*
X-5687264Y-60602553D01*
X-5615835Y-60459697D01*
X-5605326Y-60432233D01*
X-5604945Y-60426858D01*
X-5602881Y-60421878D01*
X-5599999Y-60392614D01*
X-5599999Y-60249757D01*
X-5602881Y-60220493D01*
X-5604945Y-60215512D01*
X-5605326Y-60210138D01*
X-5615835Y-60182674D01*
X-5687264Y-60039818D01*
X-5695192Y-60027224D01*
X-5696707Y-60023565D01*
X-5700089Y-60019444D01*
X-5702929Y-60014932D01*
X-5705923Y-60012335D01*
X-5715361Y-60000835D01*
X-5786789Y-59929406D01*
X-5798292Y-59919966D01*
X-5800888Y-59916972D01*
X-5805403Y-59914130D01*
X-5809520Y-59910751D01*
X-5813179Y-59909235D01*
X-5825774Y-59901307D01*
X-5968632Y-59829878D01*
X-5970773Y-59829058D01*
X-5971643Y-59828414D01*
X-5983899Y-59824035D01*
X-5996095Y-59819368D01*
X-5997179Y-59819291D01*
X-5999334Y-59818521D01*
X-6269072Y-59751086D01*
X-6375432Y-59697906D01*
X-6412437Y-59660901D01*
X-6457142Y-59571490D01*
X-6457142Y-59499451D01*
X-6412437Y-59410040D01*
X-6375432Y-59373035D01*
X-6286018Y-59328328D01*
X-5988625Y-59328328D01*
X-5797434Y-59392059D01*
X-5768760Y-59398579D01*
X-5710380Y-59394430D01*
X-5658033Y-59368256D01*
X-5619685Y-59324042D01*
X-5601177Y-59268518D01*
X-5605326Y-59210138D01*
X-5631500Y-59157790D01*
X-5641561Y-59149064D01*
X-5468546Y-59149064D01*
X-5468546Y-59207592D01*
X-5446148Y-59261664D01*
X-5404764Y-59303048D01*
X-5350692Y-59325446D01*
X-5321428Y-59328328D01*
X-5042857Y-59328328D01*
X-5042857Y-60678328D01*
X-5039975Y-60707592D01*
X-5017577Y-60761664D01*
X-4976193Y-60803048D01*
X-4922121Y-60825446D01*
X-4863593Y-60825446D01*
X-4809521Y-60803048D01*
X-4768137Y-60761664D01*
X-4745739Y-60707592D01*
X-4742857Y-60678328D01*
X-4742857Y-59328328D01*
X-4464285Y-59328328D01*
X-4435021Y-59325446D01*
X-4380949Y-59303048D01*
X-4339565Y-59261664D01*
X-4317167Y-59207592D01*
X-4317167Y-59178328D01*
X-4114286Y-59178328D01*
X-4114286Y-60678328D01*
X-4111404Y-60707592D01*
X-4089006Y-60761664D01*
X-4047622Y-60803048D01*
X-3993550Y-60825446D01*
X-3964286Y-60828328D01*
X-3250000Y-60828328D01*
X-3220736Y-60825446D01*
X-3166664Y-60803048D01*
X-3125280Y-60761664D01*
X-3102882Y-60707592D01*
X-3102882Y-60649064D01*
X-3125280Y-60594992D01*
X-3166664Y-60553608D01*
X-3220736Y-60531210D01*
X-3250000Y-60528328D01*
X-3814286Y-60528328D01*
X-3814286Y-60042614D01*
X-3464286Y-60042614D01*
X-3435022Y-60039732D01*
X-3380950Y-60017334D01*
X-3339566Y-59975950D01*
X-3317168Y-59921878D01*
X-3317168Y-59863350D01*
X-3339566Y-59809278D01*
X-3380950Y-59767894D01*
X-3435022Y-59745496D01*
X-3464286Y-59742614D01*
X-3814286Y-59742614D01*
X-3814286Y-59328328D01*
X-3250000Y-59328328D01*
X-3220736Y-59325446D01*
X-3166664Y-59303048D01*
X-3125280Y-59261664D01*
X-3102882Y-59207592D01*
X-3102882Y-59178328D01*
X-2757143Y-59178328D01*
X-2757143Y-60678328D01*
X-2754261Y-60707592D01*
X-2731863Y-60761664D01*
X-2690479Y-60803048D01*
X-2636407Y-60825446D01*
X-2577879Y-60825446D01*
X-2523807Y-60803048D01*
X-2482423Y-60761664D01*
X-2460025Y-60707592D01*
X-2457143Y-60678328D01*
X-2457143Y-60042614D01*
X-2107143Y-60042614D01*
X-2077879Y-60039732D01*
X-2023807Y-60017334D01*
X-1982423Y-59975950D01*
X-1960025Y-59921878D01*
X-1960025Y-59863350D01*
X-1982423Y-59809278D01*
X-2023807Y-59767894D01*
X-2077879Y-59745496D01*
X-2107143Y-59742614D01*
X-2457143Y-59742614D01*
X-2457143Y-59328328D01*
X-1892857Y-59328328D01*
X-1863593Y-59325446D01*
X-1809521Y-59303048D01*
X-1768137Y-59261664D01*
X-1745739Y-59207592D01*
X-1745739Y-59178328D01*
X-1471429Y-59178328D01*
X-1471429Y-60678328D01*
X-1468547Y-60707592D01*
X-1446149Y-60761664D01*
X-1404765Y-60803048D01*
X-1350693Y-60825446D01*
X-1292165Y-60825446D01*
X-1238093Y-60803048D01*
X-1196709Y-60761664D01*
X-1174311Y-60707592D01*
X-1171429Y-60678328D01*
X-1171429Y-59854461D01*
X-957356Y-60313190D01*
X-951010Y-60323903D01*
X-949689Y-60327535D01*
X-947338Y-60330103D01*
X-942369Y-60338490D01*
X-925564Y-60353880D01*
X-910162Y-60370698D01*
X-904119Y-60373518D01*
X-899206Y-60378017D01*
X-877786Y-60385806D01*
X-857124Y-60395448D01*
X-850467Y-60395740D01*
X-844204Y-60398018D01*
X-821425Y-60397017D01*
X-798654Y-60398018D01*
X-792395Y-60395741D01*
X-785733Y-60395449D01*
X-765066Y-60385804D01*
X-743651Y-60378017D01*
X-738738Y-60373517D01*
X-732696Y-60370698D01*
X-717301Y-60353885D01*
X-700488Y-60338490D01*
X-695520Y-60330101D01*
X-693169Y-60327535D01*
X-691850Y-60323905D01*
X-685502Y-60313190D01*
X-471429Y-59854462D01*
X-471429Y-60678328D01*
X-468547Y-60707592D01*
X-446149Y-60761664D01*
X-404765Y-60803048D01*
X-350693Y-60825446D01*
X-292165Y-60825446D01*
X-238093Y-60803048D01*
X-196709Y-60761664D01*
X-174311Y-60707592D01*
X-171429Y-60678328D01*
X-171429Y-60659567D01*
X29750Y-60659567D01*
X33899Y-60717948D01*
X60073Y-60770295D01*
X104287Y-60808642D01*
X159811Y-60827150D01*
X218192Y-60823001D01*
X270539Y-60796827D01*
X308886Y-60752613D01*
X320874Y-60725762D01*
X429543Y-60399757D01*
X927602Y-60399757D01*
X1036270Y-60725762D01*
X1048258Y-60752613D01*
X1086605Y-60796828D01*
X1138953Y-60823001D01*
X1197333Y-60827151D01*
X1252857Y-60808642D01*
X1297071Y-60770295D01*
X1323245Y-60717948D01*
X1327395Y-60659568D01*
X1320875Y-60630894D01*
X836685Y-59178328D01*
X1528571Y-59178328D01*
X1528571Y-60678328D01*
X1531453Y-60707592D01*
X1553851Y-60761664D01*
X1595235Y-60803048D01*
X1649307Y-60825446D01*
X1678571Y-60828328D01*
X2035714Y-60828328D01*
X2050519Y-60826869D01*
X2054474Y-60827151D01*
X2059675Y-60825968D01*
X2064978Y-60825446D01*
X2068635Y-60823930D01*
X2083148Y-60820631D01*
X2297434Y-60749203D01*
X2324285Y-60737215D01*
X2328356Y-60733683D01*
X2333336Y-60731621D01*
X2356066Y-60712966D01*
X2498923Y-60570108D01*
X2508361Y-60558606D01*
X2511356Y-60556010D01*
X2514196Y-60551496D01*
X2517578Y-60547377D01*
X2519093Y-60543717D01*
X2527021Y-60531124D01*
X2598450Y-60388268D01*
X2599269Y-60386125D01*
X2599914Y-60385256D01*
X2604298Y-60372984D01*
X2608959Y-60360804D01*
X2609035Y-60359723D01*
X2609807Y-60357565D01*
X2681235Y-60071851D01*
X2681984Y-60066779D01*
X2682832Y-60064735D01*
X2683917Y-60053712D01*
X2685537Y-60042762D01*
X2685211Y-60040574D01*
X2685714Y-60035471D01*
X2685714Y-59821185D01*
X2957143Y-59821185D01*
X2957143Y-60035471D01*
X2957645Y-60040574D01*
X2957320Y-60042762D01*
X2958939Y-60053712D01*
X2960025Y-60064735D01*
X2960872Y-60066779D01*
X2961622Y-60071851D01*
X3033050Y-60357565D01*
X3033821Y-60359723D01*
X3033898Y-60360804D01*
X3038556Y-60372978D01*
X3042943Y-60385256D01*
X3043587Y-60386126D01*
X3044407Y-60388267D01*
X3115836Y-60531124D01*
X3123763Y-60543717D01*
X3125279Y-60547377D01*
X3128660Y-60551496D01*
X3131501Y-60556010D01*
X3134494Y-60558606D01*
X3143934Y-60570108D01*
X3286791Y-60712966D01*
X3309521Y-60731621D01*
X3314500Y-60733683D01*
X3318572Y-60737215D01*
X3345423Y-60749203D01*
X3559709Y-60820631D01*
X3574221Y-60823930D01*
X3577879Y-60825446D01*
X3583181Y-60825968D01*
X3588383Y-60827151D01*
X3592337Y-60826869D01*
X3607143Y-60828328D01*
X3750000Y-60828328D01*
X3764805Y-60826869D01*
X3768760Y-60827151D01*
X3773961Y-60825968D01*
X3779264Y-60825446D01*
X3782921Y-60823930D01*
X3797434Y-60820631D01*
X4011720Y-60749203D01*
X4038571Y-60737215D01*
X4042644Y-60733681D01*
X4047622Y-60731620D01*
X4070353Y-60712965D01*
X4141781Y-60641536D01*
X4160435Y-60618806D01*
X4182832Y-60564733D01*
X4182831Y-60506207D01*
X4160434Y-60452135D01*
X4119048Y-60410750D01*
X4064976Y-60388353D01*
X4006450Y-60388354D01*
X3952378Y-60410751D01*
X3929647Y-60429406D01*
X3883259Y-60475794D01*
X3725657Y-60528328D01*
X3631486Y-60528328D01*
X3473883Y-60475794D01*
X3373278Y-60375188D01*
X3320097Y-60268828D01*
X3257143Y-60017007D01*
X3257143Y-59839648D01*
X3279615Y-59749757D01*
X4457143Y-59749757D01*
X4457143Y-60106900D01*
X4457645Y-60112003D01*
X4457320Y-60114191D01*
X4458939Y-60125141D01*
X4460025Y-60136164D01*
X4460872Y-60138208D01*
X4461622Y-60143280D01*
X4533050Y-60428994D01*
X4533821Y-60431152D01*
X4533898Y-60432233D01*
X4538556Y-60444407D01*
X4542943Y-60456685D01*
X4543587Y-60457555D01*
X4544407Y-60459696D01*
X4615836Y-60602553D01*
X4623763Y-60615146D01*
X4625279Y-60618806D01*
X4628660Y-60622925D01*
X4631501Y-60627439D01*
X4634494Y-60630035D01*
X4643934Y-60641537D01*
X4715363Y-60712966D01*
X4726867Y-60722407D01*
X4729462Y-60725399D01*
X4733971Y-60728237D01*
X4738094Y-60731621D01*
X4741755Y-60733137D01*
X4754347Y-60741064D01*
X4897205Y-60812492D01*
X4924668Y-60823002D01*
X4930043Y-60823383D01*
X4935022Y-60825446D01*
X4964286Y-60828328D01*
X5107143Y-60828328D01*
X5136407Y-60825446D01*
X5141385Y-60823383D01*
X5146761Y-60823002D01*
X5174225Y-60812492D01*
X5317082Y-60741064D01*
X5329675Y-60733136D01*
X5333335Y-60731621D01*
X5337454Y-60728239D01*
X5341968Y-60725399D01*
X5344564Y-60722405D01*
X5356066Y-60712966D01*
X5427495Y-60641537D01*
X5436936Y-60630032D01*
X5439928Y-60627438D01*
X5442766Y-60622928D01*
X5446150Y-60618806D01*
X5447666Y-60615144D01*
X5455593Y-60602553D01*
X5527021Y-60459695D01*
X5527838Y-60457558D01*
X5528485Y-60456686D01*
X5532874Y-60444399D01*
X5537531Y-60432232D01*
X5537607Y-60431150D01*
X5538378Y-60428995D01*
X5609807Y-60143281D01*
X5610557Y-60138208D01*
X5611404Y-60136164D01*
X5612489Y-60125144D01*
X5614109Y-60114192D01*
X5613783Y-60112003D01*
X5614286Y-60106900D01*
X5614286Y-59749757D01*
X5613783Y-59744653D01*
X5614109Y-59742465D01*
X5612489Y-59731512D01*
X5611404Y-59720493D01*
X5610557Y-59718448D01*
X5609807Y-59713376D01*
X5578498Y-59588139D01*
X5886892Y-59588139D01*
X5891041Y-59646519D01*
X5917215Y-59698868D01*
X5961430Y-59737215D01*
X6016953Y-59755722D01*
X6075333Y-59751573D01*
X6102796Y-59741064D01*
X6245653Y-59669635D01*
X6258246Y-59661707D01*
X6261906Y-59660192D01*
X6266025Y-59656810D01*
X6270539Y-59653970D01*
X6273135Y-59650976D01*
X6284637Y-59641537D01*
X6314285Y-59611889D01*
X6314285Y-60528328D01*
X6035714Y-60528328D01*
X6006450Y-60531210D01*
X5952378Y-60553608D01*
X5910994Y-60594992D01*
X5888596Y-60649064D01*
X5888596Y-60707592D01*
X5910994Y-60761664D01*
X5952378Y-60803048D01*
X6006450Y-60825446D01*
X6035714Y-60828328D01*
X6892857Y-60828328D01*
X6922121Y-60825446D01*
X6976193Y-60803048D01*
X7017577Y-60761664D01*
X7039975Y-60707592D01*
X7039975Y-60659567D01*
X7172606Y-60659567D01*
X7176755Y-60717948D01*
X7202929Y-60770295D01*
X7247143Y-60808642D01*
X7302667Y-60827150D01*
X7361048Y-60823001D01*
X7413395Y-60796827D01*
X7451742Y-60752613D01*
X7463730Y-60725762D01*
X7572399Y-60399757D01*
X8070458Y-60399757D01*
X8179126Y-60725762D01*
X8191114Y-60752613D01*
X8229461Y-60796828D01*
X8281809Y-60823001D01*
X8340189Y-60827151D01*
X8395713Y-60808642D01*
X8439927Y-60770295D01*
X8466101Y-60717948D01*
X8470251Y-60659568D01*
X8463731Y-60630894D01*
X7963730Y-59130894D01*
X7951742Y-59104043D01*
X7944719Y-59095946D01*
X7939927Y-59086361D01*
X7925718Y-59074037D01*
X7913395Y-59059829D01*
X7903809Y-59055036D01*
X7895713Y-59048014D01*
X7877869Y-59042065D01*
X7861048Y-59033655D01*
X7850359Y-59032895D01*
X7840189Y-59029505D01*
X7821423Y-59030838D01*
X7802667Y-59029506D01*
X7792499Y-59032895D01*
X7781809Y-59033655D01*
X7764985Y-59042066D01*
X7747143Y-59048014D01*
X7739048Y-59055034D01*
X7729461Y-59059828D01*
X7717135Y-59074039D01*
X7702929Y-59086361D01*
X7698136Y-59095945D01*
X7691114Y-59104043D01*
X7679126Y-59130894D01*
X7179126Y-60630894D01*
X7172606Y-60659567D01*
X7039975Y-60659567D01*
X7039975Y-60649064D01*
X7017577Y-60594992D01*
X6976193Y-60553608D01*
X6922121Y-60531210D01*
X6892857Y-60528328D01*
X6614285Y-60528328D01*
X6614285Y-59178328D01*
X6614274Y-59178222D01*
X6614285Y-59178170D01*
X6614254Y-59178016D01*
X6611403Y-59149064D01*
X6605719Y-59135343D01*
X6602807Y-59120781D01*
X6594628Y-59108568D01*
X6589005Y-59094992D01*
X6578506Y-59084493D01*
X6570241Y-59072151D01*
X6558010Y-59063997D01*
X6547621Y-59053608D01*
X6533902Y-59047925D01*
X6521542Y-59039685D01*
X6507123Y-59036832D01*
X6493549Y-59031210D01*
X6478698Y-59031210D01*
X6464128Y-59028328D01*
X6449718Y-59031210D01*
X6435021Y-59031210D01*
X6421299Y-59036893D01*
X6406738Y-59039806D01*
X6394525Y-59047984D01*
X6380949Y-59053608D01*
X6370450Y-59064106D01*
X6358108Y-59072372D01*
X6339676Y-59094880D01*
X6339565Y-59094992D01*
X6339544Y-59095042D01*
X6339478Y-59095123D01*
X6204858Y-59297051D01*
X6089717Y-59412192D01*
X5968632Y-59472736D01*
X5943746Y-59488401D01*
X5905399Y-59532616D01*
X5886892Y-59588139D01*
X5578498Y-59588139D01*
X5538378Y-59427662D01*
X5537607Y-59425506D01*
X5537531Y-59424424D01*
X5532871Y-59412249D01*
X5528485Y-59399970D01*
X5527838Y-59399097D01*
X5527021Y-59396961D01*
X5455593Y-59254103D01*
X5447664Y-59241508D01*
X5446149Y-59237849D01*
X5442767Y-59233728D01*
X5439928Y-59229218D01*
X5436936Y-59226623D01*
X5427494Y-59215118D01*
X5356065Y-59143690D01*
X5344565Y-59134252D01*
X5341968Y-59131258D01*
X5337451Y-59128415D01*
X5333334Y-59125036D01*
X5329677Y-59123521D01*
X5317082Y-59115593D01*
X5174225Y-59044164D01*
X5146762Y-59033655D01*
X5141387Y-59033273D01*
X5136407Y-59031210D01*
X5107143Y-59028328D01*
X4964286Y-59028328D01*
X4935022Y-59031210D01*
X4930041Y-59033273D01*
X4924667Y-59033655D01*
X4897203Y-59044164D01*
X4754347Y-59115593D01*
X4741753Y-59123520D01*
X4738094Y-59125036D01*
X4733973Y-59128417D01*
X4729461Y-59131258D01*
X4726864Y-59134251D01*
X4715364Y-59143690D01*
X4643935Y-59215118D01*
X4634495Y-59226620D01*
X4631501Y-59229217D01*
X4628659Y-59233731D01*
X4625280Y-59237849D01*
X4623764Y-59241507D01*
X4615836Y-59254103D01*
X4544407Y-59396960D01*
X4543587Y-59399100D01*
X4542943Y-59399971D01*
X4538556Y-59412248D01*
X4533898Y-59424423D01*
X4533821Y-59425503D01*
X4533050Y-59427662D01*
X4461622Y-59713377D01*
X4460872Y-59718448D01*
X4460025Y-59720493D01*
X4458939Y-59731515D01*
X4457320Y-59742466D01*
X4457645Y-59744653D01*
X4457143Y-59749757D01*
X3279615Y-59749757D01*
X3320097Y-59587827D01*
X3373278Y-59481467D01*
X3473884Y-59380861D01*
X3631486Y-59328328D01*
X3725660Y-59328328D01*
X3883258Y-59380861D01*
X3929648Y-59427251D01*
X3952378Y-59445906D01*
X4006451Y-59468302D01*
X4064977Y-59468302D01*
X4119049Y-59445906D01*
X4160435Y-59404520D01*
X4182831Y-59350448D01*
X4182831Y-59291922D01*
X4160435Y-59237849D01*
X4141780Y-59215119D01*
X4070352Y-59143691D01*
X4047621Y-59125036D01*
X4042641Y-59122973D01*
X4038571Y-59119443D01*
X4011720Y-59107454D01*
X3797434Y-59036026D01*
X3782926Y-59032727D01*
X3779264Y-59031210D01*
X3773955Y-59030687D01*
X3768761Y-59029506D01*
X3764811Y-59029786D01*
X3750000Y-59028328D01*
X3607143Y-59028328D01*
X3592331Y-59029786D01*
X3588382Y-59029506D01*
X3583187Y-59030687D01*
X3577879Y-59031210D01*
X3574217Y-59032726D01*
X3559708Y-59036026D01*
X3345423Y-59107455D01*
X3318572Y-59119443D01*
X3314502Y-59122972D01*
X3309521Y-59125036D01*
X3286791Y-59143691D01*
X3143934Y-59286548D01*
X3134494Y-59298049D01*
X3131501Y-59300646D01*
X3128660Y-59305159D01*
X3125279Y-59309279D01*
X3123763Y-59312938D01*
X3115836Y-59325532D01*
X3044407Y-59468389D01*
X3043587Y-59470529D01*
X3042943Y-59471400D01*
X3038556Y-59483677D01*
X3033898Y-59495852D01*
X3033821Y-59496932D01*
X3033050Y-59499091D01*
X2961622Y-59784805D01*
X2960872Y-59789876D01*
X2960025Y-59791921D01*
X2958939Y-59802943D01*
X2957320Y-59813894D01*
X2957645Y-59816081D01*
X2957143Y-59821185D01*
X2685714Y-59821185D01*
X2685211Y-59816081D01*
X2685537Y-59813894D01*
X2683917Y-59802943D01*
X2682832Y-59791921D01*
X2681984Y-59789876D01*
X2681235Y-59784805D01*
X2609807Y-59499091D01*
X2609035Y-59496932D01*
X2608959Y-59495852D01*
X2604298Y-59483671D01*
X2599914Y-59471400D01*
X2599269Y-59470530D01*
X2598450Y-59468388D01*
X2527021Y-59325532D01*
X2519094Y-59312940D01*
X2517578Y-59309278D01*
X2514194Y-59305155D01*
X2511356Y-59300646D01*
X2508363Y-59298050D01*
X2498923Y-59286548D01*
X2356066Y-59143691D01*
X2333335Y-59125036D01*
X2328355Y-59122973D01*
X2324285Y-59119443D01*
X2297434Y-59107454D01*
X2083148Y-59036026D01*
X2068640Y-59032727D01*
X2064978Y-59031210D01*
X2059669Y-59030687D01*
X2054475Y-59029506D01*
X2050525Y-59029786D01*
X2035714Y-59028328D01*
X1678571Y-59028328D01*
X1649307Y-59031210D01*
X1595235Y-59053608D01*
X1553851Y-59094992D01*
X1531453Y-59149064D01*
X1528571Y-59178328D01*
X836685Y-59178328D01*
X820874Y-59130894D01*
X808886Y-59104043D01*
X801863Y-59095946D01*
X797071Y-59086361D01*
X782862Y-59074037D01*
X770539Y-59059829D01*
X760953Y-59055036D01*
X752857Y-59048014D01*
X735013Y-59042065D01*
X718192Y-59033655D01*
X707503Y-59032895D01*
X697333Y-59029505D01*
X678567Y-59030838D01*
X659811Y-59029506D01*
X649643Y-59032895D01*
X638953Y-59033655D01*
X622129Y-59042066D01*
X604287Y-59048014D01*
X596192Y-59055034D01*
X586605Y-59059828D01*
X574279Y-59074039D01*
X560073Y-59086361D01*
X555280Y-59095945D01*
X548258Y-59104043D01*
X536270Y-59130894D01*
X36270Y-60630894D01*
X29750Y-60659567D01*
X-171429Y-60659567D01*
X-171429Y-59178328D01*
X-173324Y-59159090D01*
X-173168Y-59155552D01*
X-173860Y-59153651D01*
X-174311Y-59149064D01*
X-184272Y-59125018D01*
X-193169Y-59100550D01*
X-195429Y-59098082D01*
X-196709Y-59094992D01*
X-215107Y-59076594D01*
X-232696Y-59057387D01*
X-235730Y-59055971D01*
X-238093Y-59053608D01*
X-262124Y-59043654D01*
X-285733Y-59032636D01*
X-289078Y-59032489D01*
X-292165Y-59031210D01*
X-318189Y-59031210D01*
X-344204Y-59030067D01*
X-347347Y-59031210D01*
X-350693Y-59031210D01*
X-374746Y-59041173D01*
X-399206Y-59050068D01*
X-401674Y-59052327D01*
X-404765Y-59053608D01*
X-423174Y-59072016D01*
X-442369Y-59089595D01*
X-444719Y-59093561D01*
X-446149Y-59094992D01*
X-447505Y-59098264D01*
X-457356Y-59114895D01*
X-821429Y-59895051D01*
X-1185502Y-59114895D01*
X-1195356Y-59098260D01*
X-1196709Y-59094992D01*
X-1198138Y-59093563D01*
X-1200488Y-59089595D01*
X-1219696Y-59072005D01*
X-1238093Y-59053608D01*
X-1241184Y-59052327D01*
X-1243651Y-59050068D01*
X-1268117Y-59041171D01*
X-1292165Y-59031210D01*
X-1295511Y-59031210D01*
X-1298654Y-59030067D01*
X-1324658Y-59031210D01*
X-1350693Y-59031210D01*
X-1353784Y-59032490D01*
X-1357124Y-59032637D01*
X-1380720Y-59043647D01*
X-1404765Y-59053608D01*
X-1407129Y-59055971D01*
X-1410162Y-59057387D01*
X-1427752Y-59076594D01*
X-1446149Y-59094992D01*
X-1447430Y-59098082D01*
X-1449689Y-59100550D01*
X-1458586Y-59125015D01*
X-1468547Y-59149064D01*
X-1468999Y-59153652D01*
X-1469690Y-59155553D01*
X-1469535Y-59159091D01*
X-1471429Y-59178328D01*
X-1745739Y-59178328D01*
X-1745739Y-59149064D01*
X-1768137Y-59094992D01*
X-1809521Y-59053608D01*
X-1863593Y-59031210D01*
X-1892857Y-59028328D01*
X-2607143Y-59028328D01*
X-2636407Y-59031210D01*
X-2690479Y-59053608D01*
X-2731863Y-59094992D01*
X-2754261Y-59149064D01*
X-2757143Y-59178328D01*
X-3102882Y-59178328D01*
X-3102882Y-59149064D01*
X-3125280Y-59094992D01*
X-3166664Y-59053608D01*
X-3220736Y-59031210D01*
X-3250000Y-59028328D01*
X-3964286Y-59028328D01*
X-3993550Y-59031210D01*
X-4047622Y-59053608D01*
X-4089006Y-59094992D01*
X-4111404Y-59149064D01*
X-4114286Y-59178328D01*
X-4317167Y-59178328D01*
X-4317167Y-59149064D01*
X-4339565Y-59094992D01*
X-4380949Y-59053608D01*
X-4435021Y-59031210D01*
X-4464285Y-59028328D01*
X-5321428Y-59028328D01*
X-5350692Y-59031210D01*
X-5404764Y-59053608D01*
X-5446148Y-59094992D01*
X-5468546Y-59149064D01*
X-5641561Y-59149064D01*
X-5675714Y-59119443D01*
X-5702565Y-59107454D01*
X-5916851Y-59036026D01*
X-5931359Y-59032727D01*
X-5935021Y-59031210D01*
X-5940330Y-59030687D01*
X-5945524Y-59029506D01*
X-5949474Y-59029786D01*
X-5964285Y-59028328D01*
X-6321428Y-59028328D01*
X-6350692Y-59031210D01*
X-6355673Y-59033273D01*
X-6361047Y-59033655D01*
X-6388511Y-59044164D01*
X-6531367Y-59115593D01*
X-6543961Y-59123520D01*
X-6547620Y-59125036D01*
X-6551741Y-59128417D01*
X-6556253Y-59131258D01*
X-6558850Y-59134251D01*
X-6570350Y-59143690D01*
X-6641779Y-59215118D01*
X-6651219Y-59226620D01*
X-6654213Y-59229217D01*
X-6657055Y-59233731D01*
X-6660434Y-59237849D01*
X-6661950Y-59241507D01*
X-6669878Y-59254103D01*
X-6741306Y-59396960D01*
X-6751816Y-59424424D01*
X-6752198Y-59429799D01*
X-6754260Y-59434778D01*
X-6757142Y-59464042D01*
X-7100000Y-59464042D01*
X-7100000Y-59178328D01*
X-7102882Y-59149064D01*
X-7125280Y-59094992D01*
X-7166664Y-59053608D01*
X-7220736Y-59031210D01*
X-7279264Y-59031210D01*
X-7333336Y-59053608D01*
X-7374720Y-59094992D01*
X-7397118Y-59149064D01*
X-7400000Y-59178328D01*
X-7400000Y-60357204D01*
X-7444707Y-60446617D01*
X-7481712Y-60483622D01*
X-7571124Y-60528328D01*
X-7786018Y-60528328D01*
X-7875432Y-60483621D01*
X-7912436Y-60446617D01*
X-7957143Y-60357203D01*
X-7957143Y-59178328D01*
X-7960025Y-59149064D01*
X-7982423Y-59094992D01*
X-8023807Y-59053608D01*
X-8077879Y-59031210D01*
X-8136407Y-59031210D01*
X-8190479Y-59053608D01*
X-8231863Y-59094992D01*
X-8254261Y-59149064D01*
X-8257143Y-59178328D01*
X-8423810Y-59178328D01*
X-8423810Y-58861661D01*
X8636918Y-58861661D01*
X8636918Y-60994995D01*
G37*
D11*
%TO.P,J1001,1*%
%TO.N,VCC*%
X11430000Y-48730000D03*
%TO.P,J1001,2*%
X11430000Y-51270000D03*
%TO.P,J1001,3*%
%TO.N,unconnected-(J1001-Pad3)*%
X8890000Y-48730000D03*
%TO.P,J1001,4*%
%TO.N,unconnected-(J1001-Pad4)*%
X8890000Y-51270000D03*
%TO.P,J1001,5*%
%TO.N,unconnected-(J1001-Pad5)*%
X6350000Y-48730000D03*
%TO.P,J1001,6*%
%TO.N,unconnected-(J1001-Pad6)*%
X6350000Y-51270000D03*
%TO.P,J1001,7*%
%TO.N,unconnected-(J1001-Pad7)*%
X3810000Y-48730000D03*
%TO.P,J1001,8*%
%TO.N,unconnected-(J1001-Pad8)*%
X3810000Y-51270000D03*
%TO.P,J1001,9*%
%TO.N,unconnected-(J1001-Pad9)*%
X1270000Y-48730000D03*
%TO.P,J1001,10*%
%TO.N,unconnected-(J1001-Pad10)*%
X1270000Y-51270000D03*
%TO.P,J1001,11*%
%TO.N,/SCK*%
X-1270000Y-48730000D03*
%TO.P,J1001,12*%
%TO.N,unconnected-(J1001-Pad12)*%
X-1270000Y-51270000D03*
%TO.P,J1001,13*%
%TO.N,/SDO*%
X-3810000Y-48730000D03*
%TO.P,J1001,14*%
%TO.N,unconnected-(J1001-Pad14)*%
X-3810000Y-51270000D03*
%TO.P,J1001,15*%
%TO.N,/SDI*%
X-6350000Y-48730000D03*
%TO.P,J1001,16*%
%TO.N,unconnected-(J1001-Pad16)*%
X-6350000Y-51270000D03*
%TO.P,J1001,17*%
%TO.N,/CONV*%
X-8890000Y-48730000D03*
%TO.P,J1001,18*%
%TO.N,unconnected-(J1001-Pad18)*%
X-8890000Y-51270000D03*
%TO.P,J1001,19*%
%TO.N,GND*%
X-11430000Y-48730000D03*
%TO.P,J1001,20*%
X-11430000Y-51270000D03*
%TD*%
%TO.P,J1,1*%
%TO.N,GND*%
X19960000Y-48760000D03*
%TO.P,J1,2*%
X22500000Y-48760000D03*
%TO.P,J1,3*%
%TO.N,VCC*%
X19960000Y-51300000D03*
%TO.P,J1,4*%
X22500000Y-51300000D03*
%TO.P,J1,5*%
%TO.N,GND*%
X19960000Y-53840000D03*
%TO.P,J1,6*%
X22500000Y-53840000D03*
%TD*%
D12*
%TO.P,J9,1,In_1*%
%TO.N,Net-(J9-In)*%
X0Y47000000D03*
D13*
%TO.P,J9,2,Ext_2*%
%TO.N,GND*%
X-2540000Y49540000D03*
X-2540000Y44460000D03*
X2540000Y49540000D03*
X2540000Y44460000D03*
%TD*%
D14*
%TO.N,GNDA*%
X-28600000Y24000000D03*
X-26200000Y27800000D03*
X-26200000Y29600000D03*
X-21100000Y47700000D03*
X-21100000Y46100000D03*
X-30300000Y24000000D03*
%TO.N,VCC*%
X-28800000Y35100000D03*
X-15600000Y35900000D03*
X-20918001Y24881999D03*
%TO.N,Net-(U4-SCK)*%
X-24400000Y21200000D03*
X-1100000Y-43175000D03*
%TO.N,Net-(U4-SDO)*%
X-23266636Y21166636D03*
X-3800000Y-34900000D03*
%TO.N,Net-(U4-SDI)*%
X-22100000Y21200000D03*
X-6200000Y-31000000D03*
%TO.N,GND*%
X-18400000Y-10600000D03*
X-24300000Y-10400000D03*
X-14785786Y-35114214D03*
X-16971573Y-37728427D03*
X-34300000Y-4900000D03*
X-17285281Y-27314719D03*
X-14313708Y-9486292D03*
X-24300000Y1400000D03*
X-34300000Y-6900000D03*
X11142136Y-34942136D03*
X-24685281Y-25214719D03*
X-171573Y-23628427D03*
X-15727922Y-8072078D03*
X-21700000Y4600000D03*
X-18500000Y-20500000D03*
X-29800000Y-15200000D03*
X-34300000Y-8900000D03*
X-10214214Y-34385786D03*
X-15871068Y-28728932D03*
X-34300000Y-12900000D03*
X-26871068Y-27828932D03*
X-1585786Y-22214214D03*
X-21856854Y-28043146D03*
X9727922Y-33527922D03*
X-18100000Y4200000D03*
X-8656854Y-15143146D03*
X-34300000Y-16900000D03*
X-16899495Y-21800505D03*
X-23271068Y-26628932D03*
X-24300000Y3400000D03*
X-29800000Y-3200000D03*
X8313708Y-32113708D03*
X-16200000Y-33700000D03*
X-18100000Y-3800000D03*
X-3000000Y-20800000D03*
X-12571068Y-17028932D03*
X-34300000Y-18900000D03*
X-34300000Y1100000D03*
X-6914214Y-22685786D03*
X-29800000Y800000D03*
X-1343146Y-37356854D03*
X-34300000Y11100000D03*
X-21700000Y-15400000D03*
X-24300000Y-12400000D03*
X-14071068Y-24628932D03*
X-22900000Y-21800000D03*
X4399495Y-33999495D03*
X-15399495Y-14200505D03*
X-26900000Y-13300000D03*
X-21214214Y-33485786D03*
X-10071068Y-13728932D03*
X-11485281Y-12314719D03*
X5813708Y-35413708D03*
X-21700000Y-1400000D03*
X-29800000Y8800000D03*
X-21700000Y-11400000D03*
X6899495Y-30699495D03*
X-27513708Y-22386292D03*
X-21700000Y-7400000D03*
X1571068Y-31171068D03*
X-18400000Y-14600000D03*
X2656854Y-26456854D03*
X-20442641Y-29457359D03*
X-24300000Y9400000D03*
X-26900000Y-5300000D03*
X7227922Y-36827922D03*
X-24300000Y-4400000D03*
X8642136Y-38242136D03*
X-5828427Y-17971573D03*
X-21700000Y10600000D03*
X-24300000Y7400000D03*
X-29699495Y-25000505D03*
X-12656854Y-26043146D03*
X-21962002Y28719999D03*
X-26900000Y-9300000D03*
X-12728932Y-41971068D03*
X-34300000Y-2900000D03*
X-19028427Y-30871573D03*
X-34300000Y3100000D03*
X-21700000Y8600000D03*
X-26900000Y-15300000D03*
X-29800000Y-7200000D03*
X-34300000Y13100000D03*
X-14143146Y-40556854D03*
X-8800000Y-35800000D03*
X-24300000Y13400000D03*
X-28100000Y22500000D03*
X-34300000Y-900000D03*
X-13371573Y-36528427D03*
X-29800000Y-17200000D03*
X-24300000Y-8400000D03*
X-26900000Y-3300000D03*
X-18385786Y-36314214D03*
X-21700000Y600000D03*
X-11314719Y-43385281D03*
X-1257359Y-28342641D03*
X-34300000Y-14900000D03*
X-26900000Y-11300000D03*
X-26099495Y-23800505D03*
X-24300000Y-6400000D03*
X-17614214Y-32285786D03*
X-19727922Y-18972078D03*
X-18100000Y6200000D03*
X-28100000Y20600000D03*
X-15485281Y-23214719D03*
X-32527922Y-22172078D03*
X-18100000Y2200000D03*
X-18400000Y-12600000D03*
X-29800000Y6800000D03*
X-18699495Y-25900505D03*
X-18100000Y7700000D03*
X-26900000Y-17300000D03*
X-11957359Y-37942641D03*
X-29800000Y-9200000D03*
X-15557359Y-39142641D03*
X-18100000Y14200000D03*
X-10543146Y-39356854D03*
X-29800000Y-13200000D03*
X-34300000Y9100000D03*
X-28927922Y-20972078D03*
X1242641Y-25042641D03*
X-34300000Y7100000D03*
X-29800000Y10800000D03*
X5485281Y-29285281D03*
X-29800000Y-19200000D03*
X-8414214Y-30285786D03*
X-11628427Y-32971573D03*
X-21700000Y-13400000D03*
X-12899495Y-10900505D03*
X-21700000Y6600000D03*
X-21700000Y-9400000D03*
X2985281Y-32585281D03*
X-21700000Y2600000D03*
X-31113708Y-23586292D03*
X-24300000Y11400000D03*
X-21200000Y-17400000D03*
X-29800000Y4800000D03*
X-22628427Y-32071573D03*
X-14456854Y-30143146D03*
X-21700000Y12600000D03*
X-24300000Y5400000D03*
X-18100000Y12200000D03*
X-29800000Y-5200000D03*
X-9828427Y-28871573D03*
X-11156854Y-18443146D03*
X-26900000Y-19300000D03*
X71068Y-38771068D03*
X-18100000Y200000D03*
X-24300000Y-16400000D03*
X-4414214Y-19385786D03*
X-24042641Y-30657359D03*
X-11242641Y-27457359D03*
X-24300000Y-18400000D03*
X-5500000Y-24100000D03*
X-13042641Y-31557359D03*
X-24300000Y-20400000D03*
X-20113708Y-24486292D03*
X156854Y-29756854D03*
X-7242641Y-16557359D03*
X-13985281Y-15614719D03*
X-25456854Y-29243146D03*
X-8328427Y-21271573D03*
X-18100000Y-5800000D03*
X-34300000Y5100000D03*
X-9742641Y-19857359D03*
X-29800000Y2800000D03*
X-26900000Y-7300000D03*
X-4085786Y-25514214D03*
X-2671573Y-26928427D03*
X-29800000Y-1200000D03*
X-29800000Y-11200000D03*
X-19800000Y-34900000D03*
X-34300000Y-20900000D03*
X-18100000Y-1800000D03*
X-34300000Y-10900000D03*
X1485281Y-40185281D03*
X-21500000Y-23200000D03*
X-24300000Y-14400000D03*
X-28285281Y-26414719D03*
X4071068Y-27871068D03*
%TD*%
%TO.N,GNDA*%
D15*
X-21100000Y47700000D02*
X-21100000Y46100000D01*
X-26200000Y27800000D02*
X-26200000Y29600000D01*
X-28600000Y24000000D02*
X-30300000Y24000000D01*
%TO.N,Net-(J9-In)*%
D16*
X-100000Y46900000D02*
X0Y47000000D01*
%TO.N,VCC*%
D15*
X-20900000Y35100000D02*
X-20900000Y24900000D01*
X-20900000Y35100000D02*
X-16400000Y35100000D01*
X-16400000Y35100000D02*
X-15600000Y35900000D01*
X-28800000Y35100000D02*
X-20900000Y35100000D01*
X-20900000Y24900000D02*
X-20918001Y24881999D01*
%TO.N,Net-(U4-SCK)*%
D16*
X-7100000Y-40100000D02*
X-4175000Y-40100000D01*
X-24400000Y21200000D02*
X-25400000Y20200000D01*
X-25400000Y20200000D02*
X-25400000Y-21800000D01*
X-4175000Y-40100000D02*
X-1100000Y-43175000D01*
X-25400000Y-21800000D02*
X-7100000Y-40100000D01*
%TO.N,Net-(U4-SDO)*%
X-23266636Y-18733364D02*
X-7100000Y-34900000D01*
X-23266636Y21166636D02*
X-23266636Y-18733364D01*
X-7100000Y-34900000D02*
X-3800000Y-34900000D01*
%TO.N,Net-(U4-SDI)*%
X-19700000Y-15800000D02*
X-6200000Y-29300000D01*
X-19700000Y13000000D02*
X-19700000Y-15800000D01*
X-22100000Y15400000D02*
X-19700000Y13000000D01*
X-6200000Y-29300000D02*
X-6200000Y-31000000D01*
X-22100000Y21200000D02*
X-22100000Y15400000D01*
%TD*%
%TA.AperFunction,Conductor*%
%TO.N,GND*%
G36*
X22085792Y-53668429D02*
G01*
X22055500Y-53781480D01*
X22055500Y-53898520D01*
X22085792Y-54011571D01*
X22131073Y-54090000D01*
X20328927Y-54090000D01*
X20374208Y-54011571D01*
X20404500Y-53898520D01*
X20404500Y-53781480D01*
X20374208Y-53668429D01*
X20328927Y-53590000D01*
X22131073Y-53590000D01*
X22085792Y-53668429D01*
G37*
%TD.AperFunction*%
%TA.AperFunction,Conductor*%
G36*
X-11180000Y-50901072D02*
G01*
X-11258429Y-50855792D01*
X-11371480Y-50825500D01*
X-11488520Y-50825500D01*
X-11601571Y-50855792D01*
X-11680000Y-50901072D01*
X-11680000Y-49098927D01*
X-11601571Y-49144208D01*
X-11488520Y-49174500D01*
X-11371480Y-49174500D01*
X-11258429Y-49144208D01*
X-11180000Y-49098927D01*
X-11180000Y-50901072D01*
G37*
%TD.AperFunction*%
%TA.AperFunction,Conductor*%
G36*
X22085792Y-48588429D02*
G01*
X22055500Y-48701480D01*
X22055500Y-48818520D01*
X22085792Y-48931571D01*
X22131073Y-49010000D01*
X20328927Y-49010000D01*
X20374208Y-48931571D01*
X20404500Y-48818520D01*
X20404500Y-48701480D01*
X20374208Y-48588429D01*
X20328927Y-48510000D01*
X22131073Y-48510000D01*
X22085792Y-48588429D01*
G37*
%TD.AperFunction*%
%TA.AperFunction,Conductor*%
G36*
X667378Y64994604D02*
G01*
X668375Y64994598D01*
X840837Y64993528D01*
X842857Y64993497D01*
X2250498Y64958940D01*
X2250894Y64958929D01*
X2442450Y64952980D01*
X2444483Y64952899D01*
X3834346Y64884620D01*
X3834781Y64884596D01*
X4042530Y64872976D01*
X4044646Y64872839D01*
X5417661Y64771560D01*
X5417824Y64771547D01*
X5640094Y64753568D01*
X5642231Y64753376D01*
X6999085Y64619737D01*
X7234207Y64594828D01*
X7236226Y64594596D01*
X8576897Y64429240D01*
X8577629Y64429148D01*
X8823876Y64396858D01*
X8825688Y64396605D01*
X10151219Y64199981D01*
X10152124Y64199843D01*
X10407910Y64159818D01*
X10409803Y64159506D01*
X11720671Y63932048D01*
X11721095Y63931973D01*
X11985590Y63883829D01*
X11987342Y63883495D01*
X13283737Y63625626D01*
X13283982Y63625576D01*
X13555871Y63569077D01*
X13557537Y63568717D01*
X14839224Y63280905D01*
X14840126Y63280698D01*
X15117798Y63215765D01*
X15119414Y63215373D01*
X16386847Y62897898D01*
X16387675Y62897686D01*
X16670476Y62824101D01*
X16672020Y62823687D01*
X17925176Y62476892D01*
X17925691Y62476747D01*
X18212833Y62394368D01*
X18214458Y62393888D01*
X19453196Y62018121D01*
X19454032Y62017863D01*
X19744012Y61926817D01*
X19745628Y61926296D01*
X20970036Y61521806D01*
X20970943Y61521501D01*
X21263148Y61421721D01*
X21264533Y61421236D01*
X22474508Y60988300D01*
X22475706Y60987865D01*
X22512410Y60974305D01*
X22769145Y60879455D01*
X22770525Y60878934D01*
X23966161Y60417726D01*
X23967241Y60417303D01*
X24261173Y60300336D01*
X24262630Y60299744D01*
X25443663Y59810544D01*
X25444698Y59810109D01*
X25738417Y59684691D01*
X25739689Y59684138D01*
X26906160Y59167076D01*
X26907315Y59166556D01*
X27199685Y59033035D01*
X27200986Y59032431D01*
X28352654Y58487733D01*
X28353880Y58487143D01*
X28644360Y58345665D01*
X28645756Y58344975D01*
X29782299Y57772888D01*
X29783402Y57772324D01*
X30071755Y57622912D01*
X30072886Y57622316D01*
X31194266Y57022926D01*
X31195349Y57022339D01*
X31452711Y56880770D01*
X31480311Y56865587D01*
X31481665Y56864831D01*
X32587606Y56238324D01*
X32588602Y56237752D01*
X32869943Y56073763D01*
X32871046Y56073111D01*
X33961364Y55419599D01*
X33962455Y55418936D01*
X34108884Y55328640D01*
X34239155Y55248308D01*
X34240410Y55247524D01*
X35314700Y54567238D01*
X35316046Y54566373D01*
X35587586Y54389473D01*
X35588791Y54388678D01*
X36646974Y53681622D01*
X36648254Y53680756D01*
X36914332Y53497844D01*
X36915205Y53497237D01*
X37957147Y52763419D01*
X37958480Y52762467D01*
X38074477Y52678410D01*
X38218225Y52574244D01*
X38219331Y52573433D01*
X39244575Y51813059D01*
X39245940Y51812032D01*
X39498844Y51619010D01*
X39499901Y51618194D01*
X40508384Y50831165D01*
X40509751Y50830082D01*
X40755241Y50632882D01*
X40756234Y50632076D01*
X41656126Y49893554D01*
X41747674Y49818423D01*
X41749029Y49817295D01*
X41986911Y49616286D01*
X41987699Y49615613D01*
X42948593Y48786740D01*
X42961854Y48775301D01*
X42963190Y48774131D01*
X43140993Y48616157D01*
X43192617Y48570289D01*
X43193530Y48569470D01*
X44150036Y47702544D01*
X44151336Y47701349D01*
X44372208Y47495069D01*
X44372897Y47494419D01*
X45311644Y46600657D01*
X45312865Y46599477D01*
X45446091Y46468710D01*
X45524409Y46391837D01*
X45525229Y46391024D01*
X46445709Y45470544D01*
X46447060Y45469173D01*
X46599731Y45311687D01*
X46648806Y45261065D01*
X46649581Y45260258D01*
X47551834Y44312591D01*
X47553174Y44311160D01*
X47744672Y44103547D01*
X47745403Y44102748D01*
X48629092Y43127747D01*
X48630421Y43126257D01*
X48811415Y42919981D01*
X48812095Y42919199D01*
X49676980Y41916557D01*
X49678155Y41915173D01*
X49825892Y41738118D01*
X49848261Y41711309D01*
X49848904Y41710531D01*
X50694722Y40679900D01*
X50696022Y40678289D01*
X50854595Y40478354D01*
X50855197Y40477589D01*
X51681764Y39418443D01*
X51683045Y39416772D01*
X51829910Y39221847D01*
X51830472Y39221096D01*
X52637492Y38132957D01*
X52638752Y38131226D01*
X52773610Y37942672D01*
X52773988Y37942139D01*
X53050337Y37549753D01*
X53561327Y36824202D01*
X53562564Y36822412D01*
X53684937Y36642009D01*
X53685308Y36641458D01*
X54427098Y35531291D01*
X54452635Y35493073D01*
X54453794Y35491304D01*
X54563485Y35320623D01*
X54563824Y35320091D01*
X54849970Y34868217D01*
X55083457Y34499500D01*
X55310940Y34140266D01*
X55312126Y34138354D01*
X55408601Y33979706D01*
X55409011Y33979027D01*
X56135670Y32766671D01*
X56136827Y32764700D01*
X56219893Y32620135D01*
X56220269Y32619476D01*
X56926375Y31373024D01*
X56927500Y31370994D01*
X56996792Y31243153D01*
X56997134Y31242517D01*
X57682474Y29960336D01*
X57683565Y29958248D01*
X57704037Y29918132D01*
X57739105Y29849413D01*
X58403589Y28529310D01*
X58404645Y28527161D01*
X58445698Y28441524D01*
X58445977Y28440938D01*
X59089252Y27080846D01*
X59090269Y27078640D01*
X59116735Y27019723D01*
X59116985Y27019162D01*
X59738978Y25615969D01*
X59739956Y25613702D01*
X59751754Y25585588D01*
X59751975Y25585058D01*
X60351850Y24136834D01*
X60352980Y24134008D01*
X60926026Y22648443D01*
X60927081Y22645604D01*
X61244106Y21759577D01*
X61463487Y21146448D01*
X61464477Y21143571D01*
X61963930Y19631706D01*
X61964850Y19628804D01*
X62427069Y18105073D01*
X62427916Y18102150D01*
X62852575Y16567629D01*
X62853351Y16564687D01*
X63240242Y15020131D01*
X63240945Y15017170D01*
X63589810Y13463604D01*
X63590440Y13460626D01*
X63901068Y11898991D01*
X63901625Y11895999D01*
X64173834Y10327225D01*
X64174318Y10324221D01*
X64407956Y8749160D01*
X64408365Y8746144D01*
X64603267Y7165920D01*
X64603603Y7162895D01*
X64759673Y5578293D01*
X64759934Y5575261D01*
X64877064Y3987350D01*
X64877251Y3984312D01*
X64955380Y2393971D01*
X64955492Y2390930D01*
X64994569Y799152D01*
X64994606Y796109D01*
X64994606Y-796108D01*
X64994569Y-799151D01*
X64955492Y-2390929D01*
X64955380Y-2393970D01*
X64877251Y-3984311D01*
X64877064Y-3987349D01*
X64759934Y-5575260D01*
X64759673Y-5578292D01*
X64603603Y-7162894D01*
X64603267Y-7165919D01*
X64408365Y-8746143D01*
X64407956Y-8749159D01*
X64174318Y-10324220D01*
X64173834Y-10327224D01*
X63901625Y-11895998D01*
X63901068Y-11898990D01*
X63590440Y-13460625D01*
X63589810Y-13463603D01*
X63240945Y-15017169D01*
X63240242Y-15020130D01*
X62853351Y-16564686D01*
X62852575Y-16567628D01*
X62427916Y-18102149D01*
X62427069Y-18105072D01*
X61964850Y-19628803D01*
X61963930Y-19631705D01*
X61464477Y-21143570D01*
X61463487Y-21146447D01*
X60927086Y-22645589D01*
X60926026Y-22648442D01*
X60352980Y-24134007D01*
X60351850Y-24136833D01*
X59751975Y-25585056D01*
X59751754Y-25585586D01*
X59739956Y-25613700D01*
X59738978Y-25615967D01*
X59116985Y-27019160D01*
X59116735Y-27019721D01*
X59090269Y-27078638D01*
X59089252Y-27080844D01*
X58445977Y-28440936D01*
X58445698Y-28441522D01*
X58404645Y-28527159D01*
X58403589Y-28529308D01*
X57739202Y-29849220D01*
X57738891Y-29849833D01*
X57683565Y-29958246D01*
X57682474Y-29960334D01*
X56997134Y-31242515D01*
X56996792Y-31243151D01*
X56927500Y-31370992D01*
X56926375Y-31373022D01*
X56220269Y-32619474D01*
X56219893Y-32620133D01*
X56136827Y-32764698D01*
X56135670Y-32766669D01*
X55409011Y-33979025D01*
X55408601Y-33979704D01*
X55312126Y-34138352D01*
X55310940Y-34140264D01*
X54563824Y-35320089D01*
X54563378Y-35320788D01*
X54453849Y-35491219D01*
X54452635Y-35493071D01*
X53685320Y-36641438D01*
X53684836Y-36642157D01*
X53562564Y-36822410D01*
X53561327Y-36824200D01*
X52774051Y-37942049D01*
X52773528Y-37942785D01*
X52638752Y-38131224D01*
X52637492Y-38132955D01*
X51830472Y-39221094D01*
X51829910Y-39221845D01*
X51683045Y-39416770D01*
X51681764Y-39418441D01*
X50855197Y-40477587D01*
X50854595Y-40478352D01*
X50696022Y-40678287D01*
X50694722Y-40679898D01*
X49848904Y-41710529D01*
X49848261Y-41711307D01*
X49678253Y-41915056D01*
X49676937Y-41916606D01*
X48812102Y-42919189D01*
X48811415Y-42919979D01*
X48630421Y-43126255D01*
X48629092Y-43127745D01*
X47745403Y-44102746D01*
X47744672Y-44103545D01*
X47553174Y-44311158D01*
X47551834Y-44312589D01*
X46649581Y-45260256D01*
X46648806Y-45261063D01*
X46447060Y-45469171D01*
X46445709Y-45470542D01*
X45525229Y-46391022D01*
X45524409Y-46391835D01*
X45312933Y-46599409D01*
X45311575Y-46600722D01*
X44372939Y-47494377D01*
X44372073Y-47495194D01*
X44151400Y-47701288D01*
X44150036Y-47702542D01*
X43193530Y-48569468D01*
X43192617Y-48570287D01*
X42963221Y-48774102D01*
X42961854Y-48775299D01*
X41987790Y-49615533D01*
X41986830Y-49616353D01*
X41749042Y-49817282D01*
X41747674Y-49818421D01*
X40756250Y-50632061D01*
X40755241Y-50632880D01*
X40509751Y-50830080D01*
X40508384Y-50831163D01*
X39499901Y-51618192D01*
X39498844Y-51619008D01*
X39245940Y-51812030D01*
X39244575Y-51813057D01*
X38219331Y-52573431D01*
X38218225Y-52574242D01*
X37958508Y-52762445D01*
X37957147Y-52763417D01*
X36915289Y-53497176D01*
X36914134Y-53497980D01*
X36648328Y-53680703D01*
X36646974Y-53681620D01*
X35588791Y-54388676D01*
X35587586Y-54389471D01*
X35316046Y-54566371D01*
X35314700Y-54567236D01*
X34240410Y-55247522D01*
X34239155Y-55248306D01*
X33962571Y-55418863D01*
X33961235Y-55419675D01*
X32871092Y-56073081D01*
X32869787Y-56073853D01*
X32588817Y-56237626D01*
X32587492Y-56238387D01*
X31481665Y-56864829D01*
X31480311Y-56865585D01*
X31195453Y-57022280D01*
X31194141Y-57022991D01*
X30073032Y-57622237D01*
X30071627Y-57622977D01*
X29783498Y-57772273D01*
X29782202Y-57772935D01*
X28645816Y-58344943D01*
X28644360Y-58345663D01*
X28353880Y-58487141D01*
X28352601Y-58487756D01*
X27201082Y-59032384D01*
X27199576Y-59033083D01*
X26907369Y-59166529D01*
X26906108Y-59167097D01*
X25739832Y-59684073D01*
X25738276Y-59684750D01*
X25444800Y-59810064D01*
X25443559Y-59810586D01*
X24262706Y-60299711D01*
X24261101Y-60300363D01*
X23967308Y-60417275D01*
X23966087Y-60417753D01*
X22770688Y-60878870D01*
X22769033Y-60879495D01*
X22475706Y-60987863D01*
X22474508Y-60988298D01*
X21264703Y-61421174D01*
X21263000Y-61421770D01*
X20971068Y-61521457D01*
X20969894Y-61521851D01*
X19745698Y-61926271D01*
X19743946Y-61926836D01*
X19454179Y-62017815D01*
X19453029Y-62018170D01*
X18214546Y-62393860D01*
X18212747Y-62394391D01*
X17925958Y-62476670D01*
X17924834Y-62476986D01*
X16672173Y-62823643D01*
X16670326Y-62824139D01*
X16387815Y-62897648D01*
X16386720Y-62897928D01*
X15119558Y-63215336D01*
X15117663Y-63215795D01*
X14840199Y-63280679D01*
X14839133Y-63280923D01*
X13557671Y-63568686D01*
X13555731Y-63569105D01*
X13284360Y-63625497D01*
X13283322Y-63625708D01*
X11987460Y-63883470D01*
X11985475Y-63883848D01*
X11721350Y-63931925D01*
X11720343Y-63932104D01*
X10409880Y-64159491D01*
X10407850Y-64159826D01*
X10152139Y-64199838D01*
X10151165Y-64199987D01*
X8825820Y-64396584D01*
X8823746Y-64396874D01*
X8577695Y-64429137D01*
X8576753Y-64429256D01*
X7236275Y-64594588D01*
X7234160Y-64594831D01*
X6999503Y-64619692D01*
X6998593Y-64619785D01*
X5642240Y-64753373D01*
X5640084Y-64753566D01*
X5418122Y-64771521D01*
X5417246Y-64771589D01*
X4044685Y-64872834D01*
X4042488Y-64872976D01*
X3835043Y-64884580D01*
X3834202Y-64884625D01*
X2444579Y-64952893D01*
X2442344Y-64952982D01*
X2251114Y-64958920D01*
X2250308Y-64958943D01*
X842987Y-64993492D01*
X840714Y-64993527D01*
X667379Y-64994604D01*
X666609Y-64994606D01*
X-759271Y-64994606D01*
X-761581Y-64994584D01*
X-914318Y-64991738D01*
X-915051Y-64991723D01*
X-2361168Y-64956222D01*
X-2363513Y-64956142D01*
X-2493233Y-64950500D01*
X-2493929Y-64950468D01*
X-3961696Y-64878362D01*
X-3964075Y-64878222D01*
X-4067997Y-64871113D01*
X-4068656Y-64871066D01*
X-5559786Y-64761075D01*
X-5562195Y-64760874D01*
X-5637348Y-64753855D01*
X-5637971Y-64753795D01*
X-7154741Y-64604405D01*
X-7157181Y-64604140D01*
X-7199192Y-64599161D01*
X-7199777Y-64599090D01*
X-8745260Y-64408473D01*
X-8747709Y-64408147D01*
X-8752562Y-64407450D01*
X-8753129Y-64407367D01*
X-10324221Y-64174318D01*
X-10327225Y-64173834D01*
X-11895999Y-63901625D01*
X-11898991Y-63901068D01*
X-13460626Y-63590440D01*
X-13463604Y-63589810D01*
X-15017170Y-63240945D01*
X-15020131Y-63240242D01*
X-15714490Y-63066314D01*
X-16564691Y-62853350D01*
X-16567629Y-62852575D01*
X-16670384Y-62824139D01*
X-16706192Y-62814229D01*
X-18102150Y-62427916D01*
X-18105073Y-62427069D01*
X-19628804Y-61964850D01*
X-19631706Y-61963930D01*
X-21143571Y-61464477D01*
X-21146448Y-61463487D01*
X-21440886Y-61358135D01*
X-22645604Y-60927081D01*
X-22648430Y-60926031D01*
X-23290576Y-60678328D01*
X-24134008Y-60352980D01*
X-24136834Y-60351850D01*
X-25607881Y-59742522D01*
X-25610678Y-59741323D01*
X-26631901Y-59288646D01*
X-26880774Y-59178328D01*
X-8257143Y-59178328D01*
X-8257143Y-60392614D01*
X-8254261Y-60421878D01*
X-8252198Y-60426858D01*
X-8251816Y-60432233D01*
X-8241307Y-60459696D01*
X-8169878Y-60602553D01*
X-8163413Y-60612823D01*
X-8161278Y-60617398D01*
X-8160438Y-60618800D01*
X-8160435Y-60618806D01*
X-8160432Y-60618810D01*
X-8159488Y-60620384D01*
X-8155407Y-60626046D01*
X-8154216Y-60627434D01*
X-8154213Y-60627439D01*
X-8154210Y-60627442D01*
X-8148473Y-60634129D01*
X-8144560Y-60638150D01*
X-8141780Y-60641537D01*
X-8105996Y-60677321D01*
X-8070349Y-60712968D01*
X-8066969Y-60715742D01*
X-8058845Y-60722410D01*
X-8056252Y-60725399D01*
X-8051750Y-60728232D01*
X-8047625Y-60731618D01*
X-8040039Y-60736164D01*
X-8035062Y-60738738D01*
X-8031367Y-60741064D01*
X-7992482Y-60760506D01*
X-7888505Y-60812494D01*
X-7888497Y-60812497D01*
X-7861052Y-60823000D01*
X-7861051Y-60823000D01*
X-7861046Y-60823002D01*
X-7861042Y-60823002D01*
X-7857530Y-60823781D01*
X-7854227Y-60824561D01*
X-7850698Y-60825445D01*
X-7850694Y-60825445D01*
X-7850692Y-60825446D01*
X-7821428Y-60828328D01*
X-7821425Y-60828328D01*
X-7535716Y-60828328D01*
X-7535714Y-60828328D01*
X-7506450Y-60825446D01*
X-7501472Y-60823383D01*
X-7496096Y-60823002D01*
X-7468632Y-60812492D01*
X-7325775Y-60741064D01*
X-7315504Y-60734597D01*
X-7310932Y-60732464D01*
X-7309533Y-60731625D01*
X-7309522Y-60731621D01*
X-7307604Y-60730045D01*
X-7305398Y-60728235D01*
X-7300889Y-60725399D01*
X-7298295Y-60722406D01*
X-7290163Y-60715734D01*
X-7290161Y-60715732D01*
X-7286801Y-60712974D01*
X-7286791Y-60712966D01*
X-7215362Y-60641537D01*
X-7205921Y-60630032D01*
X-7202929Y-60627438D01*
X-7200091Y-60622928D01*
X-7196707Y-60618806D01*
X-7196706Y-60618801D01*
X-7192149Y-60611199D01*
X-7189583Y-60606235D01*
X-7187264Y-60602553D01*
X-7115836Y-60459695D01*
X-7110831Y-60446617D01*
X-7105329Y-60432241D01*
X-7105329Y-60432238D01*
X-7105326Y-60432232D01*
X-7105326Y-60432225D01*
X-7104543Y-60428695D01*
X-7103758Y-60425372D01*
X-7102884Y-60421882D01*
X-7102882Y-60421878D01*
X-7100000Y-60392614D01*
X-7100000Y-59464042D01*
X-6757142Y-59464042D01*
X-6757142Y-59606900D01*
X-6754260Y-59636164D01*
X-6752198Y-59641142D01*
X-6751816Y-59646518D01*
X-6750278Y-59650539D01*
X-6750277Y-59650540D01*
X-6741306Y-59673982D01*
X-6669884Y-59816828D01*
X-6669879Y-59816837D01*
X-6669878Y-59816839D01*
X-6661950Y-59829434D01*
X-6660434Y-59833093D01*
X-6657058Y-59837206D01*
X-6654215Y-59841723D01*
X-6648448Y-59848444D01*
X-6644544Y-59852455D01*
X-6642897Y-59854462D01*
X-6641779Y-59855824D01*
X-6570348Y-59927254D01*
X-6566973Y-59930024D01*
X-6566970Y-59930026D01*
X-6558850Y-59936690D01*
X-6556253Y-59939684D01*
X-6551741Y-59942524D01*
X-6547620Y-59945906D01*
X-6547618Y-59945906D01*
X-6540035Y-59950452D01*
X-6535062Y-59953023D01*
X-6531367Y-59955349D01*
X-6388511Y-60026778D01*
X-6386369Y-60027597D01*
X-6385499Y-60028242D01*
X-6373228Y-60032626D01*
X-6361047Y-60037287D01*
X-6360759Y-60037397D01*
X-6360752Y-60037399D01*
X-6357809Y-60038134D01*
X-6357808Y-60038135D01*
X-6156603Y-60088436D01*
X-6101274Y-60102268D01*
X-6075899Y-60111654D01*
X-5999707Y-60149750D01*
X-5967485Y-60172975D01*
X-5958934Y-60181526D01*
X-5935709Y-60213748D01*
X-5929991Y-60225184D01*
X-5913091Y-60258983D01*
X-5899999Y-60314438D01*
X-5899999Y-60327931D01*
X-5913091Y-60383386D01*
X-5935708Y-60428619D01*
X-5937444Y-60431027D01*
X-5937784Y-60432591D01*
X-5958935Y-60460845D01*
X-5967481Y-60469391D01*
X-5999706Y-60492618D01*
X-6044940Y-60515236D01*
X-6100396Y-60528328D01*
X-6348390Y-60528328D01*
X-6387601Y-60521965D01*
X-6559711Y-60464596D01*
X-6559714Y-60464595D01*
X-6588385Y-60458076D01*
X-6646760Y-60462226D01*
X-6646762Y-60462227D01*
X-6699109Y-60488400D01*
X-6737459Y-60532617D01*
X-6755965Y-60588139D01*
X-6751816Y-60646517D01*
X-6751815Y-60646519D01*
X-6725642Y-60698866D01*
X-6725639Y-60698869D01*
X-6681432Y-60737211D01*
X-6681430Y-60737213D01*
X-6681429Y-60737213D01*
X-6681427Y-60737215D01*
X-6654576Y-60749203D01*
X-6440290Y-60820631D01*
X-6437375Y-60821293D01*
X-6436050Y-60821595D01*
X-6436036Y-60821598D01*
X-6425775Y-60823931D01*
X-6422120Y-60825446D01*
X-6416819Y-60825967D01*
X-6411616Y-60827151D01*
X-6402762Y-60827827D01*
X-6397181Y-60827901D01*
X-6392856Y-60828328D01*
X-6392852Y-60828328D01*
X-6035716Y-60828328D01*
X-6035714Y-60828328D01*
X-6006450Y-60825446D01*
X-6001472Y-60823383D01*
X-5996096Y-60823002D01*
X-5968633Y-60812492D01*
X-5825774Y-60741064D01*
X-5815502Y-60734596D01*
X-5810919Y-60732458D01*
X-5809526Y-60731622D01*
X-5809520Y-60731620D01*
X-5805400Y-60728238D01*
X-5800889Y-60725399D01*
X-5798295Y-60722407D01*
X-5786789Y-60712965D01*
X-5715361Y-60641536D01*
X-5705923Y-60630035D01*
X-5702929Y-60627439D01*
X-5700089Y-60622926D01*
X-5696707Y-60618806D01*
X-5696704Y-60618798D01*
X-5692149Y-60611200D01*
X-5689583Y-60606235D01*
X-5687264Y-60602553D01*
X-5615835Y-60459697D01*
X-5605326Y-60432233D01*
X-5605326Y-60432231D01*
X-5605325Y-60432229D01*
X-5604545Y-60428712D01*
X-5603763Y-60425397D01*
X-5602883Y-60421881D01*
X-5602881Y-60421878D01*
X-5599999Y-60392614D01*
X-5599999Y-60249757D01*
X-5602881Y-60220493D01*
X-5604945Y-60215512D01*
X-5605326Y-60210138D01*
X-5615835Y-60182674D01*
X-5687264Y-60039818D01*
X-5693731Y-60029545D01*
X-5695868Y-60024966D01*
X-5696708Y-60023564D01*
X-5700089Y-60019444D01*
X-5702929Y-60014932D01*
X-5705923Y-60012335D01*
X-5712587Y-60004215D01*
X-5712588Y-60004213D01*
X-5712589Y-60004212D01*
X-5715358Y-60000838D01*
X-5786789Y-59929406D01*
X-5795962Y-59921878D01*
X-5798294Y-59919963D01*
X-5800888Y-59916972D01*
X-5805399Y-59914132D01*
X-5809513Y-59910756D01*
X-5809517Y-59910753D01*
X-5809520Y-59910751D01*
X-5809525Y-59910749D01*
X-5817074Y-59906223D01*
X-5822061Y-59903644D01*
X-5825767Y-59901311D01*
X-5825785Y-59901301D01*
X-5966525Y-59830931D01*
X-5966530Y-59830929D01*
X-5968632Y-59829878D01*
X-5970773Y-59829058D01*
X-5971643Y-59828414D01*
X-5983899Y-59824035D01*
X-5989183Y-59822013D01*
X-5996375Y-59819260D01*
X-5996404Y-59819254D01*
X-5999330Y-59818522D01*
X-5999334Y-59818521D01*
X-6139477Y-59783485D01*
X-6255870Y-59754386D01*
X-6281249Y-59744997D01*
X-6357434Y-59706905D01*
X-6389661Y-59683677D01*
X-6398208Y-59675130D01*
X-6421436Y-59642903D01*
X-6444051Y-59597672D01*
X-6457142Y-59542218D01*
X-6457142Y-59528722D01*
X-6444051Y-59473268D01*
X-6443117Y-59471400D01*
X-6421435Y-59428034D01*
X-6419697Y-59425624D01*
X-6419356Y-59424058D01*
X-6398206Y-59395808D01*
X-6389656Y-59387259D01*
X-6357434Y-59364036D01*
X-6312200Y-59341419D01*
X-6256746Y-59328328D01*
X-6008749Y-59328328D01*
X-5969537Y-59334691D01*
X-5929571Y-59348013D01*
X-5797434Y-59392059D01*
X-5768760Y-59398579D01*
X-5710380Y-59394430D01*
X-5658033Y-59368256D01*
X-5619685Y-59324042D01*
X-5619684Y-59324037D01*
X-5614518Y-59314977D01*
X-5564217Y-59266483D01*
X-5495684Y-59252882D01*
X-5430677Y-59278493D01*
X-5419110Y-59288703D01*
X-5404766Y-59303047D01*
X-5404765Y-59303047D01*
X-5404764Y-59303048D01*
X-5398282Y-59305733D01*
X-5354082Y-59324042D01*
X-5350692Y-59325446D01*
X-5321428Y-59328328D01*
X-5166857Y-59328328D01*
X-5099818Y-59348013D01*
X-5054063Y-59400817D01*
X-5042857Y-59452328D01*
X-5042857Y-60678328D01*
X-5040834Y-60698866D01*
X-5039975Y-60707589D01*
X-5039974Y-60707596D01*
X-5017577Y-60761665D01*
X-4976196Y-60803046D01*
X-4976192Y-60803049D01*
X-4926141Y-60823781D01*
X-4922121Y-60825446D01*
X-4922120Y-60825446D01*
X-4863594Y-60825446D01*
X-4863593Y-60825446D01*
X-4809521Y-60803048D01*
X-4768137Y-60761664D01*
X-4745739Y-60707592D01*
X-4742857Y-60678328D01*
X-4742857Y-59452328D01*
X-4723172Y-59385289D01*
X-4670368Y-59339534D01*
X-4618857Y-59328328D01*
X-4464289Y-59328328D01*
X-4464285Y-59328328D01*
X-4435021Y-59325446D01*
X-4380949Y-59303048D01*
X-4356394Y-59278493D01*
X-4330929Y-59253029D01*
X-4329500Y-59254458D01*
X-4287782Y-59219590D01*
X-4218457Y-59210879D01*
X-4155428Y-59241030D01*
X-4118706Y-59300471D01*
X-4114286Y-59333283D01*
X-4114286Y-60678328D01*
X-4112263Y-60698866D01*
X-4111404Y-60707589D01*
X-4111403Y-60707596D01*
X-4089006Y-60761665D01*
X-4047624Y-60803047D01*
X-4047623Y-60803047D01*
X-4047622Y-60803048D01*
X-3993550Y-60825446D01*
X-3964286Y-60828328D01*
X-3964282Y-60828328D01*
X-3250004Y-60828328D01*
X-3250000Y-60828328D01*
X-3220736Y-60825446D01*
X-3166664Y-60803048D01*
X-3125280Y-60761664D01*
X-3120117Y-60749201D01*
X-3112994Y-60732004D01*
X-3102882Y-60707592D01*
X-3102882Y-60649064D01*
X-3106000Y-60641536D01*
X-3125279Y-60594993D01*
X-3125282Y-60594989D01*
X-3166663Y-60553608D01*
X-3220732Y-60531211D01*
X-3220735Y-60531210D01*
X-3220736Y-60531210D01*
X-3250000Y-60528328D01*
X-3250004Y-60528328D01*
X-3690286Y-60528328D01*
X-3698972Y-60525777D01*
X-3707933Y-60527066D01*
X-3731974Y-60516087D01*
X-3757325Y-60508643D01*
X-3763253Y-60501802D01*
X-3771489Y-60498041D01*
X-3785779Y-60475806D01*
X-3803080Y-60455839D01*
X-3805368Y-60445324D01*
X-3809263Y-60439263D01*
X-3814286Y-60404328D01*
X-3814286Y-60166614D01*
X-3794601Y-60099575D01*
X-3741797Y-60053820D01*
X-3690286Y-60042614D01*
X-3464290Y-60042614D01*
X-3464286Y-60042614D01*
X-3435022Y-60039732D01*
X-3380950Y-60017334D01*
X-3339566Y-59975950D01*
X-3317168Y-59921878D01*
X-3317168Y-59863350D01*
X-3320663Y-59854913D01*
X-3339565Y-59809279D01*
X-3339568Y-59809275D01*
X-3380949Y-59767894D01*
X-3435018Y-59745497D01*
X-3435021Y-59745496D01*
X-3435022Y-59745496D01*
X-3464286Y-59742614D01*
X-3464290Y-59742614D01*
X-3690286Y-59742614D01*
X-3698972Y-59740063D01*
X-3707933Y-59741352D01*
X-3731974Y-59730373D01*
X-3757325Y-59722929D01*
X-3763253Y-59716088D01*
X-3771489Y-59712327D01*
X-3785779Y-59690092D01*
X-3803080Y-59670125D01*
X-3805368Y-59659610D01*
X-3809263Y-59653549D01*
X-3814286Y-59618614D01*
X-3814286Y-59452328D01*
X-3794601Y-59385289D01*
X-3741797Y-59339534D01*
X-3690286Y-59328328D01*
X-3250004Y-59328328D01*
X-3250000Y-59328328D01*
X-3220736Y-59325446D01*
X-3166664Y-59303048D01*
X-3125280Y-59261664D01*
X-3122150Y-59254109D01*
X-3115412Y-59237841D01*
X-3102882Y-59207592D01*
X-3102882Y-59178328D01*
X-2757143Y-59178328D01*
X-2757143Y-60678328D01*
X-2755120Y-60698866D01*
X-2754261Y-60707589D01*
X-2754260Y-60707596D01*
X-2731863Y-60761665D01*
X-2690482Y-60803046D01*
X-2690478Y-60803049D01*
X-2640427Y-60823781D01*
X-2636407Y-60825446D01*
X-2636406Y-60825446D01*
X-2577880Y-60825446D01*
X-2577879Y-60825446D01*
X-2523807Y-60803048D01*
X-2482423Y-60761664D01*
X-2460025Y-60707592D01*
X-2457143Y-60678328D01*
X-2457143Y-60166614D01*
X-2437458Y-60099575D01*
X-2384654Y-60053820D01*
X-2333143Y-60042614D01*
X-2107147Y-60042614D01*
X-2107143Y-60042614D01*
X-2077879Y-60039732D01*
X-2023807Y-60017334D01*
X-1982423Y-59975950D01*
X-1960025Y-59921878D01*
X-1960025Y-59863350D01*
X-1963520Y-59854913D01*
X-1982422Y-59809279D01*
X-1982425Y-59809275D01*
X-2023806Y-59767894D01*
X-2077875Y-59745497D01*
X-2077878Y-59745496D01*
X-2077879Y-59745496D01*
X-2107143Y-59742614D01*
X-2107147Y-59742614D01*
X-2333143Y-59742614D01*
X-2341829Y-59740063D01*
X-2350790Y-59741352D01*
X-2374831Y-59730373D01*
X-2400182Y-59722929D01*
X-2406110Y-59716088D01*
X-2414346Y-59712327D01*
X-2428636Y-59690092D01*
X-2445937Y-59670125D01*
X-2448225Y-59659610D01*
X-2452120Y-59653549D01*
X-2457143Y-59618614D01*
X-2457143Y-59452328D01*
X-2437458Y-59385289D01*
X-2384654Y-59339534D01*
X-2333143Y-59328328D01*
X-1892861Y-59328328D01*
X-1892857Y-59328328D01*
X-1863593Y-59325446D01*
X-1809521Y-59303048D01*
X-1768137Y-59261664D01*
X-1765007Y-59254109D01*
X-1758269Y-59237841D01*
X-1745739Y-59207592D01*
X-1745739Y-59178328D01*
X-1471429Y-59178328D01*
X-1471429Y-60678328D01*
X-1469406Y-60698866D01*
X-1468547Y-60707589D01*
X-1468546Y-60707596D01*
X-1446149Y-60761665D01*
X-1404768Y-60803046D01*
X-1404764Y-60803049D01*
X-1354713Y-60823781D01*
X-1350693Y-60825446D01*
X-1350692Y-60825446D01*
X-1292166Y-60825446D01*
X-1292165Y-60825446D01*
X-1238093Y-60803048D01*
X-1196709Y-60761664D01*
X-1174311Y-60707592D01*
X-1171429Y-60678328D01*
X-1171429Y-60404433D01*
X-1151744Y-60337394D01*
X-1098940Y-60291639D01*
X-1029782Y-60281695D01*
X-966226Y-60310720D01*
X-956006Y-60320660D01*
X-947311Y-60330149D01*
X-942369Y-60338490D01*
X-925574Y-60353871D01*
X-922829Y-60356866D01*
X-921903Y-60357878D01*
X-921901Y-60357882D01*
X-921879Y-60357904D01*
X-910161Y-60370699D01*
X-904869Y-60374582D01*
X-899204Y-60378018D01*
X-882902Y-60383946D01*
X-872855Y-60388107D01*
X-857124Y-60395448D01*
X-857122Y-60395448D01*
X-850731Y-60397014D01*
X-844211Y-60398015D01*
X-844204Y-60398018D01*
X-821425Y-60397017D01*
X-798654Y-60398018D01*
X-792395Y-60395741D01*
X-785733Y-60395449D01*
X-765066Y-60385804D01*
X-743651Y-60378017D01*
X-738738Y-60373517D01*
X-732696Y-60370698D01*
X-719737Y-60356544D01*
X-717288Y-60353872D01*
X-700488Y-60338490D01*
X-695555Y-60330159D01*
X-686844Y-60320655D01*
X-667531Y-60308989D01*
X-651028Y-60293599D01*
X-638198Y-60291272D01*
X-627037Y-60284532D01*
X-604483Y-60285160D01*
X-582279Y-60281135D01*
X-570228Y-60286114D01*
X-557195Y-60286478D01*
X-538561Y-60299200D01*
X-517705Y-60307818D01*
X-510260Y-60318521D01*
X-499491Y-60325874D01*
X-490692Y-60346654D01*
X-477808Y-60365177D01*
X-474670Y-60384493D01*
X-472247Y-60390214D01*
X-473016Y-60394672D01*
X-471429Y-60404433D01*
X-471429Y-60678328D01*
X-469406Y-60698866D01*
X-468547Y-60707589D01*
X-468546Y-60707596D01*
X-446149Y-60761665D01*
X-404768Y-60803046D01*
X-404764Y-60803049D01*
X-354713Y-60823781D01*
X-350693Y-60825446D01*
X-350692Y-60825446D01*
X-292166Y-60825446D01*
X-292165Y-60825446D01*
X-238093Y-60803048D01*
X-196709Y-60761664D01*
X-186290Y-60736509D01*
X-142452Y-60682109D01*
X-76158Y-60660043D01*
X-8458Y-60677321D01*
X39153Y-60728458D01*
X60070Y-60770292D01*
X60072Y-60770294D01*
X60073Y-60770295D01*
X104287Y-60808642D01*
X159811Y-60827150D01*
X218192Y-60823001D01*
X239210Y-60812492D01*
X270536Y-60796829D01*
X270536Y-60796828D01*
X270539Y-60796827D01*
X308886Y-60752613D01*
X320874Y-60725762D01*
X401280Y-60484542D01*
X441155Y-60427170D01*
X505718Y-60400461D01*
X518917Y-60399757D01*
X838228Y-60399757D01*
X905267Y-60419442D01*
X951022Y-60472246D01*
X955862Y-60484538D01*
X1036270Y-60725762D01*
X1039806Y-60733681D01*
X1048257Y-60752611D01*
X1048258Y-60752614D01*
X1063593Y-60770295D01*
X1086605Y-60796828D01*
X1138953Y-60823001D01*
X1197333Y-60827151D01*
X1197333Y-60827150D01*
X1197334Y-60827151D01*
X1216898Y-60820629D01*
X1252857Y-60808642D01*
X1297071Y-60770295D01*
X1317964Y-60728509D01*
X1365548Y-60677354D01*
X1433239Y-60660043D01*
X1499543Y-60682077D01*
X1543410Y-60736460D01*
X1543431Y-60736510D01*
X1553851Y-60761664D01*
X1553852Y-60761666D01*
X1595233Y-60803047D01*
X1595234Y-60803047D01*
X1595235Y-60803048D01*
X1649307Y-60825446D01*
X1678571Y-60828328D01*
X1678575Y-60828328D01*
X2035705Y-60828328D01*
X2035714Y-60828328D01*
X2050519Y-60826869D01*
X2054474Y-60827151D01*
X2059675Y-60825968D01*
X2064978Y-60825446D01*
X2064984Y-60825443D01*
X2073597Y-60823285D01*
X2078901Y-60821596D01*
X2083148Y-60820631D01*
X2297434Y-60749203D01*
X2324285Y-60737215D01*
X2324290Y-60737210D01*
X2327340Y-60735268D01*
X2330238Y-60733477D01*
X2333329Y-60731623D01*
X2333336Y-60731621D01*
X2356066Y-60712966D01*
X2498923Y-60570108D01*
X2505431Y-60562175D01*
X2508363Y-60558603D01*
X2511356Y-60556010D01*
X2514191Y-60551502D01*
X2517573Y-60547383D01*
X2517572Y-60547383D01*
X2517578Y-60547377D01*
X2517581Y-60547369D01*
X2522139Y-60539764D01*
X2524702Y-60534806D01*
X2527021Y-60531124D01*
X2598450Y-60388268D01*
X2599269Y-60386125D01*
X2599914Y-60385256D01*
X2604298Y-60372984D01*
X2608959Y-60360804D01*
X2608959Y-60360803D01*
X2609065Y-60360527D01*
X2609079Y-60360469D01*
X2609800Y-60357583D01*
X2609807Y-60357565D01*
X2681235Y-60071851D01*
X2681984Y-60066779D01*
X2682832Y-60064735D01*
X2683917Y-60053712D01*
X2685537Y-60042762D01*
X2685536Y-60042755D01*
X2685536Y-60042202D01*
X2685687Y-60036018D01*
X2685714Y-60035470D01*
X2685714Y-59821199D01*
X2685714Y-59821185D01*
X2685713Y-59821176D01*
X2957143Y-59821176D01*
X2957143Y-60035479D01*
X2957171Y-60036051D01*
X2957320Y-60042160D01*
X2957319Y-60042760D01*
X2958496Y-60050714D01*
X2959232Y-60056690D01*
X2960024Y-60064733D01*
X2960164Y-60065289D01*
X2961512Y-60071295D01*
X2961622Y-60071852D01*
X3031766Y-60352431D01*
X3033050Y-60357565D01*
X3033821Y-60359723D01*
X3033898Y-60360804D01*
X3038556Y-60372978D01*
X3039239Y-60374890D01*
X3039254Y-60374933D01*
X3043049Y-60385553D01*
X3043050Y-60385553D01*
X3115835Y-60531123D01*
X3118164Y-60534823D01*
X3118164Y-60534824D01*
X3123765Y-60543722D01*
X3125279Y-60547377D01*
X3128653Y-60551488D01*
X3131495Y-60556002D01*
X3131498Y-60556006D01*
X3131501Y-60556010D01*
X3131504Y-60556012D01*
X3137241Y-60562700D01*
X3141154Y-60566721D01*
X3143934Y-60570108D01*
X3251146Y-60677321D01*
X3286791Y-60712966D01*
X3302384Y-60725764D01*
X3309521Y-60731621D01*
X3309524Y-60731622D01*
X3312616Y-60733475D01*
X3315497Y-60735256D01*
X3318572Y-60737215D01*
X3345423Y-60749203D01*
X3559709Y-60820631D01*
X3562624Y-60821293D01*
X3563949Y-60821595D01*
X3563963Y-60821598D01*
X3574224Y-60823931D01*
X3577879Y-60825446D01*
X3583180Y-60825967D01*
X3588383Y-60827151D01*
X3597237Y-60827827D01*
X3602818Y-60827901D01*
X3607143Y-60828328D01*
X3607147Y-60828328D01*
X3749991Y-60828328D01*
X3750000Y-60828328D01*
X3764805Y-60826869D01*
X3768760Y-60827151D01*
X3773961Y-60825968D01*
X3779264Y-60825446D01*
X3779270Y-60825443D01*
X3787883Y-60823285D01*
X3793187Y-60821596D01*
X3797434Y-60820631D01*
X4011720Y-60749203D01*
X4038571Y-60737215D01*
X4038579Y-60737207D01*
X4041640Y-60735258D01*
X4044549Y-60733460D01*
X4047610Y-60731624D01*
X4047622Y-60731620D01*
X4070353Y-60712965D01*
X4141781Y-60641536D01*
X4160435Y-60618806D01*
X4182832Y-60564733D01*
X4182831Y-60506207D01*
X4160434Y-60452135D01*
X4119048Y-60410750D01*
X4064976Y-60388353D01*
X4064974Y-60388353D01*
X4006449Y-60388353D01*
X3952382Y-60410748D01*
X3952376Y-60410752D01*
X3929646Y-60429406D01*
X3903956Y-60455096D01*
X3892953Y-60461895D01*
X3887043Y-60469237D01*
X3855489Y-60485049D01*
X3744747Y-60521964D01*
X3705534Y-60528328D01*
X3651609Y-60528328D01*
X3612397Y-60521965D01*
X3501654Y-60485051D01*
X3453184Y-60455095D01*
X3423486Y-60425397D01*
X3387505Y-60389415D01*
X3385768Y-60387005D01*
X3384394Y-60386189D01*
X3364278Y-60357189D01*
X3363324Y-60355282D01*
X3326183Y-60281001D01*
X3316795Y-60255621D01*
X3301828Y-60195753D01*
X3260845Y-60031814D01*
X3257143Y-60001741D01*
X3257143Y-59854913D01*
X3260845Y-59824840D01*
X3269074Y-59791924D01*
X3279618Y-59749748D01*
X4457143Y-59749748D01*
X4457143Y-60106908D01*
X4457171Y-60107480D01*
X4457320Y-60113589D01*
X4457319Y-60114189D01*
X4458496Y-60122143D01*
X4459232Y-60128119D01*
X4460024Y-60136162D01*
X4460164Y-60136718D01*
X4461512Y-60142724D01*
X4461622Y-60143281D01*
X4532482Y-60426726D01*
X4532485Y-60426736D01*
X4533050Y-60428994D01*
X4533821Y-60431152D01*
X4533898Y-60432233D01*
X4538556Y-60444407D01*
X4539208Y-60446233D01*
X4539235Y-60446310D01*
X4543049Y-60456982D01*
X4543050Y-60456982D01*
X4615835Y-60602552D01*
X4618164Y-60606252D01*
X4618164Y-60606253D01*
X4623765Y-60615151D01*
X4625279Y-60618806D01*
X4628653Y-60622917D01*
X4631495Y-60627431D01*
X4631498Y-60627435D01*
X4631501Y-60627439D01*
X4631504Y-60627441D01*
X4637241Y-60634129D01*
X4641154Y-60638150D01*
X4643934Y-60641537D01*
X4679718Y-60677321D01*
X4715365Y-60712968D01*
X4718745Y-60715742D01*
X4726869Y-60722410D01*
X4729462Y-60725399D01*
X4733964Y-60728232D01*
X4738089Y-60731618D01*
X4745675Y-60736164D01*
X4750652Y-60738738D01*
X4754347Y-60741064D01*
X4793232Y-60760506D01*
X4897209Y-60812494D01*
X4897217Y-60812497D01*
X4924662Y-60823000D01*
X4924663Y-60823000D01*
X4924668Y-60823002D01*
X4924672Y-60823002D01*
X4928184Y-60823781D01*
X4931487Y-60824561D01*
X4935016Y-60825445D01*
X4935020Y-60825445D01*
X4935022Y-60825446D01*
X4964286Y-60828328D01*
X4964289Y-60828328D01*
X5107141Y-60828328D01*
X5107143Y-60828328D01*
X5136407Y-60825446D01*
X5141385Y-60823383D01*
X5146761Y-60823002D01*
X5174225Y-60812492D01*
X5317082Y-60741064D01*
X5327353Y-60734597D01*
X5331925Y-60732464D01*
X5333324Y-60731625D01*
X5333335Y-60731621D01*
X5335253Y-60730045D01*
X5337459Y-60728235D01*
X5341968Y-60725399D01*
X5344562Y-60722406D01*
X5352694Y-60715734D01*
X5352696Y-60715732D01*
X5356056Y-60712974D01*
X5356066Y-60712966D01*
X5427495Y-60641537D01*
X5436936Y-60630032D01*
X5439928Y-60627438D01*
X5442766Y-60622928D01*
X5446150Y-60618806D01*
X5446151Y-60618801D01*
X5450708Y-60611199D01*
X5453274Y-60606235D01*
X5455593Y-60602553D01*
X5527021Y-60459695D01*
X5527838Y-60457558D01*
X5528485Y-60456686D01*
X5532874Y-60444399D01*
X5537531Y-60432232D01*
X5537531Y-60432226D01*
X5537638Y-60431948D01*
X5537648Y-60431910D01*
X5538373Y-60429006D01*
X5538378Y-60428995D01*
X5609807Y-60143281D01*
X5610557Y-60138208D01*
X5611404Y-60136164D01*
X5612489Y-60125144D01*
X5614109Y-60114192D01*
X5614108Y-60114185D01*
X5614108Y-60113628D01*
X5614258Y-60107471D01*
X5614286Y-60106901D01*
X5614286Y-59750806D01*
X5614286Y-59749757D01*
X5613783Y-59744653D01*
X5614109Y-59742465D01*
X5612489Y-59731512D01*
X5611404Y-59720493D01*
X5611400Y-59720485D01*
X5611264Y-59719937D01*
X5609913Y-59713914D01*
X5609809Y-59713392D01*
X5609807Y-59713376D01*
X5585168Y-59614820D01*
X5585168Y-59614818D01*
X5578498Y-59588138D01*
X5886891Y-59588138D01*
X5891041Y-59646519D01*
X5891041Y-59646520D01*
X5910156Y-59684750D01*
X5917215Y-59698868D01*
X5961430Y-59737215D01*
X6016953Y-59755722D01*
X6075333Y-59751573D01*
X6102796Y-59741064D01*
X6134830Y-59725046D01*
X6203594Y-59712671D01*
X6268134Y-59739438D01*
X6307957Y-59796848D01*
X6314285Y-59835955D01*
X6314285Y-60404328D01*
X6294600Y-60471367D01*
X6241796Y-60517122D01*
X6190285Y-60528328D01*
X6035714Y-60528328D01*
X6006450Y-60531210D01*
X6006448Y-60531210D01*
X6006445Y-60531211D01*
X5952376Y-60553608D01*
X5910995Y-60594989D01*
X5910992Y-60594993D01*
X5888597Y-60649059D01*
X5888596Y-60649065D01*
X5888596Y-60707590D01*
X5888597Y-60707596D01*
X5910992Y-60761662D01*
X5910995Y-60761666D01*
X5952376Y-60803047D01*
X5952377Y-60803047D01*
X5952378Y-60803048D01*
X6006450Y-60825446D01*
X6035714Y-60828328D01*
X6035718Y-60828328D01*
X6892853Y-60828328D01*
X6892857Y-60828328D01*
X6922121Y-60825446D01*
X6976193Y-60803048D01*
X7017577Y-60761664D01*
X7018735Y-60760506D01*
X7080058Y-60727020D01*
X7149749Y-60732004D01*
X7192634Y-60763526D01*
X7193704Y-60762293D01*
X7202927Y-60770292D01*
X7202929Y-60770295D01*
X7247143Y-60808642D01*
X7302667Y-60827150D01*
X7361048Y-60823001D01*
X7382066Y-60812492D01*
X7413392Y-60796829D01*
X7413392Y-60796828D01*
X7413395Y-60796827D01*
X7451742Y-60752613D01*
X7463730Y-60725762D01*
X7544136Y-60484542D01*
X7584011Y-60427170D01*
X7648574Y-60400461D01*
X7661773Y-60399757D01*
X7981084Y-60399757D01*
X8048123Y-60419442D01*
X8093878Y-60472246D01*
X8098718Y-60484538D01*
X8179126Y-60725762D01*
X8182662Y-60733681D01*
X8191113Y-60752611D01*
X8191114Y-60752614D01*
X8206449Y-60770295D01*
X8229461Y-60796828D01*
X8281809Y-60823001D01*
X8340189Y-60827151D01*
X8340189Y-60827150D01*
X8340190Y-60827151D01*
X8359754Y-60820629D01*
X8395713Y-60808642D01*
X8439927Y-60770295D01*
X8466101Y-60717948D01*
X8470251Y-60659568D01*
X8466150Y-60641533D01*
X8463732Y-60630898D01*
X8463731Y-60630894D01*
X7963730Y-59130894D01*
X7951742Y-59104043D01*
X7944719Y-59095946D01*
X7939927Y-59086361D01*
X7925718Y-59074037D01*
X7919944Y-59067380D01*
X7919944Y-59067379D01*
X7913397Y-59059831D01*
X7913396Y-59059830D01*
X7913395Y-59059829D01*
X7913393Y-59059828D01*
X7906533Y-59054504D01*
X7903257Y-59052315D01*
X7895715Y-59048016D01*
X7895713Y-59048014D01*
X7895446Y-59047925D01*
X7886230Y-59044852D01*
X7877869Y-59042065D01*
X7861048Y-59033655D01*
X7850359Y-59032895D01*
X7840189Y-59029505D01*
X7840185Y-59029505D01*
X7830202Y-59030214D01*
X7830201Y-59030213D01*
X7821417Y-59030837D01*
X7802667Y-59029506D01*
X7792503Y-59032893D01*
X7781810Y-59033654D01*
X7781806Y-59033655D01*
X7772856Y-59038130D01*
X7764980Y-59042067D01*
X7747143Y-59048014D01*
X7739050Y-59055032D01*
X7729464Y-59059825D01*
X7729459Y-59059829D01*
X7722906Y-59067385D01*
X7717137Y-59074037D01*
X7717135Y-59074039D01*
X7702929Y-59086361D01*
X7698136Y-59095943D01*
X7691112Y-59104043D01*
X7679130Y-59130883D01*
X7679126Y-59130894D01*
X7211161Y-60534788D01*
X7171287Y-60592163D01*
X7106723Y-60618871D01*
X7037969Y-60606435D01*
X7005843Y-60583257D01*
X6976194Y-60553608D01*
X6922125Y-60531211D01*
X6922122Y-60531210D01*
X6922121Y-60531210D01*
X6892857Y-60528328D01*
X6892853Y-60528328D01*
X6738285Y-60528328D01*
X6671246Y-60508643D01*
X6625491Y-60455839D01*
X6614285Y-60404328D01*
X6614285Y-59182559D01*
X6614285Y-59178328D01*
X6614274Y-59178222D01*
X6614285Y-59178170D01*
X6614254Y-59178016D01*
X6611403Y-59149064D01*
X6610369Y-59146567D01*
X6605718Y-59135339D01*
X6602807Y-59120781D01*
X6594629Y-59108570D01*
X6589930Y-59097225D01*
X6589929Y-59097224D01*
X6589005Y-59094992D01*
X6589003Y-59094990D01*
X6589003Y-59094989D01*
X6587097Y-59093083D01*
X6571746Y-59074398D01*
X6570241Y-59072151D01*
X6558010Y-59063997D01*
X6547621Y-59053608D01*
X6533902Y-59047925D01*
X6521542Y-59039685D01*
X6521540Y-59039684D01*
X6519154Y-59039212D01*
X6519154Y-59039211D01*
X6507120Y-59036830D01*
X6493549Y-59031210D01*
X6478703Y-59031210D01*
X6466786Y-59028853D01*
X6466782Y-59028853D01*
X6464128Y-59028328D01*
X6464127Y-59028328D01*
X6464126Y-59028328D01*
X6461758Y-59028802D01*
X6437440Y-59031210D01*
X6435021Y-59031210D01*
X6435015Y-59031211D01*
X6432523Y-59032242D01*
X6432524Y-59032243D01*
X6421297Y-59036893D01*
X6406738Y-59039806D01*
X6394528Y-59047981D01*
X6383193Y-59052677D01*
X6383189Y-59052680D01*
X6380947Y-59053608D01*
X6379036Y-59055520D01*
X6360366Y-59070859D01*
X6358114Y-59072366D01*
X6358103Y-59072376D01*
X6344165Y-59089396D01*
X6344119Y-59089454D01*
X6339676Y-59094880D01*
X6339565Y-59094992D01*
X6339544Y-59095042D01*
X6339478Y-59095123D01*
X6338453Y-59096659D01*
X6338425Y-59096696D01*
X6333073Y-59104702D01*
X6332996Y-59104845D01*
X6211668Y-59286835D01*
X6196175Y-59305733D01*
X6103945Y-59397963D01*
X6071720Y-59421190D01*
X5968626Y-59472738D01*
X5943746Y-59488400D01*
X5905399Y-59532614D01*
X5886891Y-59588138D01*
X5578498Y-59588138D01*
X5547473Y-59464042D01*
X5538378Y-59427662D01*
X5538377Y-59427659D01*
X5537653Y-59424763D01*
X5537640Y-59424708D01*
X5533612Y-59414185D01*
X5532871Y-59412249D01*
X5528485Y-59399970D01*
X5527838Y-59399097D01*
X5527021Y-59396961D01*
X5455593Y-59254103D01*
X5453270Y-59250412D01*
X5447663Y-59241506D01*
X5446149Y-59237849D01*
X5442767Y-59233728D01*
X5439928Y-59229218D01*
X5439925Y-59229215D01*
X5434182Y-59222520D01*
X5430268Y-59218498D01*
X5427494Y-59215118D01*
X5392430Y-59180054D01*
X5356070Y-59143694D01*
X5352688Y-59140918D01*
X5344565Y-59134252D01*
X5341968Y-59131258D01*
X5337451Y-59128415D01*
X5333334Y-59125036D01*
X5333332Y-59125035D01*
X5333331Y-59125034D01*
X5325779Y-59120507D01*
X5320790Y-59117927D01*
X5317082Y-59115593D01*
X5317075Y-59115589D01*
X5317066Y-59115584D01*
X5174222Y-59044162D01*
X5150426Y-59035057D01*
X5146762Y-59033655D01*
X5146761Y-59033654D01*
X5146759Y-59033654D01*
X5143201Y-59032865D01*
X5139923Y-59032091D01*
X5136407Y-59031210D01*
X5107143Y-59028328D01*
X4964286Y-59028328D01*
X4961908Y-59028562D01*
X4939714Y-59030747D01*
X4939711Y-59030748D01*
X4935022Y-59031210D01*
X4930041Y-59033273D01*
X4924667Y-59033655D01*
X4897203Y-59044164D01*
X4754347Y-59115593D01*
X4744078Y-59122056D01*
X4739492Y-59124197D01*
X4736545Y-59125963D01*
X4730835Y-59130078D01*
X4722794Y-59136976D01*
X4718763Y-59140899D01*
X4715367Y-59143686D01*
X4643935Y-59215117D01*
X4641154Y-59218506D01*
X4640265Y-59219590D01*
X4634495Y-59226620D01*
X4631501Y-59229217D01*
X4628661Y-59233727D01*
X4625285Y-59237841D01*
X4620757Y-59245395D01*
X4618179Y-59250379D01*
X4615840Y-59254094D01*
X4546857Y-59392060D01*
X4544407Y-59396960D01*
X4543587Y-59399100D01*
X4542943Y-59399971D01*
X4538556Y-59412248D01*
X4537849Y-59414093D01*
X4537792Y-59414240D01*
X4533786Y-59424712D01*
X4533787Y-59424713D01*
X4461618Y-59713392D01*
X4461511Y-59713932D01*
X4460172Y-59719899D01*
X4460026Y-59720480D01*
X4460025Y-59720493D01*
X4459260Y-59728264D01*
X4459236Y-59728505D01*
X4458501Y-59734478D01*
X4457319Y-59742470D01*
X4457320Y-59743068D01*
X4457171Y-59749177D01*
X4457143Y-59749748D01*
X3279618Y-59749748D01*
X3316796Y-59601028D01*
X3326182Y-59575656D01*
X3364281Y-59499459D01*
X3387504Y-59467240D01*
X3453186Y-59401558D01*
X3501652Y-59371605D01*
X3572430Y-59348013D01*
X3612398Y-59334691D01*
X3651609Y-59328328D01*
X3705537Y-59328328D01*
X3744748Y-59334690D01*
X3855488Y-59371604D01*
X3903957Y-59401560D01*
X3929645Y-59427248D01*
X3929661Y-59427263D01*
X3952376Y-59445905D01*
X3952378Y-59445906D01*
X4006451Y-59468302D01*
X4006452Y-59468302D01*
X4064974Y-59468302D01*
X4064977Y-59468302D01*
X4119049Y-59445906D01*
X4160435Y-59404520D01*
X4182831Y-59350448D01*
X4182831Y-59291922D01*
X4160435Y-59237849D01*
X4160434Y-59237847D01*
X4141792Y-59215132D01*
X4141786Y-59215126D01*
X4141784Y-59215124D01*
X4141780Y-59215119D01*
X4070352Y-59143691D01*
X4066974Y-59140919D01*
X4047621Y-59125036D01*
X4044509Y-59123171D01*
X4041633Y-59121393D01*
X4038573Y-59119443D01*
X4011720Y-59107454D01*
X3797431Y-59036025D01*
X3795328Y-59035547D01*
X3787003Y-59033654D01*
X3782924Y-59032726D01*
X3779264Y-59031210D01*
X3773958Y-59030687D01*
X3768764Y-59029506D01*
X3760003Y-59028835D01*
X3754383Y-59028758D01*
X3750009Y-59028328D01*
X3750000Y-59028328D01*
X3607143Y-59028328D01*
X3607129Y-59028328D01*
X3602789Y-59028754D01*
X3602790Y-59028755D01*
X3592328Y-59029785D01*
X3588382Y-59029506D01*
X3583189Y-59030686D01*
X3577877Y-59031210D01*
X3569374Y-59033339D01*
X3563997Y-59035050D01*
X3559708Y-59036025D01*
X3345419Y-59107456D01*
X3318567Y-59119445D01*
X3315515Y-59121389D01*
X3312669Y-59123148D01*
X3309523Y-59125033D01*
X3286802Y-59143681D01*
X3286788Y-59143693D01*
X3143940Y-59286541D01*
X3143922Y-59286561D01*
X3141137Y-59289954D01*
X3134491Y-59298051D01*
X3131501Y-59300646D01*
X3128667Y-59305147D01*
X3125283Y-59309271D01*
X3120758Y-59316820D01*
X3118178Y-59321808D01*
X3115842Y-59325519D01*
X3046581Y-59464042D01*
X3044407Y-59468389D01*
X3043587Y-59470529D01*
X3042943Y-59471400D01*
X3038556Y-59483677D01*
X3037849Y-59485522D01*
X3037792Y-59485669D01*
X3033786Y-59496141D01*
X3033787Y-59496142D01*
X2961875Y-59783790D01*
X2961873Y-59783797D01*
X2961622Y-59784805D01*
X2960872Y-59789876D01*
X2960025Y-59791921D01*
X2958939Y-59802943D01*
X2958495Y-59805947D01*
X2958471Y-59806106D01*
X2957319Y-59813898D01*
X2957320Y-59814496D01*
X2957171Y-59820605D01*
X2957143Y-59821176D01*
X2685713Y-59821176D01*
X2685712Y-59821170D01*
X2685686Y-59820631D01*
X2685686Y-59820628D01*
X2685536Y-59814454D01*
X2685536Y-59813898D01*
X2685537Y-59813894D01*
X2684359Y-59805931D01*
X2683624Y-59799970D01*
X2682832Y-59791921D01*
X2682827Y-59791910D01*
X2682698Y-59791391D01*
X2681341Y-59785344D01*
X2681239Y-59784832D01*
X2681235Y-59784805D01*
X2614134Y-59516398D01*
X2610376Y-59501366D01*
X2610375Y-59501363D01*
X2609807Y-59499091D01*
X2609035Y-59496932D01*
X2608959Y-59495852D01*
X2604298Y-59483671D01*
X2599914Y-59471400D01*
X2599912Y-59471397D01*
X2599807Y-59471103D01*
X2598450Y-59468389D01*
X2598450Y-59468388D01*
X2527021Y-59325532D01*
X2521537Y-59316820D01*
X2519092Y-59312937D01*
X2517578Y-59309278D01*
X2514194Y-59305155D01*
X2511356Y-59300646D01*
X2511353Y-59300641D01*
X2505628Y-59293968D01*
X2501702Y-59289934D01*
X2498923Y-59286548D01*
X2356066Y-59143691D01*
X2352688Y-59140919D01*
X2333335Y-59125036D01*
X2330223Y-59123171D01*
X2327347Y-59121393D01*
X2324287Y-59119443D01*
X2297434Y-59107454D01*
X2083145Y-59036025D01*
X2081042Y-59035547D01*
X2072717Y-59033654D01*
X2068638Y-59032726D01*
X2064978Y-59031210D01*
X2059672Y-59030687D01*
X2054478Y-59029506D01*
X2045717Y-59028835D01*
X2040097Y-59028758D01*
X2035723Y-59028328D01*
X2035714Y-59028328D01*
X1678571Y-59028328D01*
X1649307Y-59031210D01*
X1649305Y-59031210D01*
X1649302Y-59031211D01*
X1595233Y-59053608D01*
X1553851Y-59094990D01*
X1531454Y-59149059D01*
X1531453Y-59149062D01*
X1531453Y-59149064D01*
X1528582Y-59178222D01*
X1528571Y-59178332D01*
X1528571Y-60489860D01*
X1508886Y-60556899D01*
X1456082Y-60602654D01*
X1386924Y-60612598D01*
X1323368Y-60583573D01*
X1286934Y-60529072D01*
X1286686Y-60528328D01*
X820874Y-59130894D01*
X808886Y-59104043D01*
X801863Y-59095946D01*
X797071Y-59086361D01*
X782862Y-59074037D01*
X777088Y-59067380D01*
X777088Y-59067379D01*
X770541Y-59059831D01*
X770540Y-59059830D01*
X770539Y-59059829D01*
X770537Y-59059828D01*
X763677Y-59054504D01*
X760401Y-59052315D01*
X752859Y-59048016D01*
X752857Y-59048014D01*
X752590Y-59047925D01*
X743374Y-59044852D01*
X735013Y-59042065D01*
X718192Y-59033655D01*
X707503Y-59032895D01*
X697333Y-59029505D01*
X697329Y-59029505D01*
X687346Y-59030214D01*
X687345Y-59030213D01*
X678561Y-59030837D01*
X659811Y-59029506D01*
X649647Y-59032893D01*
X638954Y-59033654D01*
X638950Y-59033655D01*
X630000Y-59038130D01*
X622124Y-59042067D01*
X604287Y-59048014D01*
X596194Y-59055032D01*
X586608Y-59059825D01*
X586603Y-59059829D01*
X580050Y-59067385D01*
X574281Y-59074037D01*
X574279Y-59074039D01*
X560073Y-59086361D01*
X555280Y-59095943D01*
X548256Y-59104043D01*
X536274Y-59130883D01*
X536271Y-59130891D01*
X536270Y-59130894D01*
X70880Y-60527066D01*
X70208Y-60529081D01*
X30334Y-60586456D01*
X-34230Y-60613164D01*
X-102984Y-60600728D01*
X-154099Y-60553094D01*
X-171429Y-60489869D01*
X-171429Y-59178327D01*
X-172458Y-59167885D01*
X-173324Y-59159090D01*
X-173168Y-59155552D01*
X-173860Y-59153651D01*
X-174311Y-59149064D01*
X-175275Y-59146738D01*
X-183231Y-59127531D01*
X-184272Y-59125018D01*
X-193169Y-59100550D01*
X-195429Y-59098082D01*
X-196709Y-59094992D01*
X-196711Y-59094990D01*
X-196711Y-59094989D01*
X-213176Y-59078525D01*
X-216946Y-59074586D01*
X-219310Y-59072005D01*
X-232696Y-59057387D01*
X-232697Y-59057386D01*
X-237506Y-59053857D01*
X-237519Y-59053848D01*
X-237525Y-59053843D01*
X-251598Y-59048014D01*
X-259616Y-59044693D01*
X-264575Y-59042510D01*
X-285733Y-59032636D01*
X-285735Y-59032635D01*
X-291552Y-59031210D01*
X-292165Y-59031210D01*
X-318189Y-59031210D01*
X-344204Y-59030067D01*
X-347347Y-59031210D01*
X-350693Y-59031210D01*
X-350694Y-59031210D01*
X-372221Y-59040126D01*
X-377290Y-59042096D01*
X-399208Y-59050067D01*
X-404319Y-59053165D01*
X-404334Y-59053175D01*
X-421263Y-59070103D01*
X-425190Y-59073862D01*
X-442375Y-59089600D01*
X-443352Y-59090802D01*
X-447811Y-59097478D01*
X-451988Y-59105829D01*
X-457346Y-59114875D01*
X-457357Y-59114896D01*
X-709062Y-59654264D01*
X-755250Y-59706690D01*
X-822449Y-59725822D01*
X-889325Y-59705586D01*
X-933796Y-59654264D01*
X-1036223Y-59434778D01*
X-1185502Y-59114895D01*
X-1194019Y-59100517D01*
X-1195358Y-59098257D01*
X-1196709Y-59094992D01*
X-1198137Y-59093564D01*
X-1200487Y-59089596D01*
X-1200489Y-59089594D01*
X-1217688Y-59073844D01*
X-1219696Y-59072005D01*
X-1238093Y-59053608D01*
X-1241184Y-59052327D01*
X-1243651Y-59050068D01*
X-1243653Y-59050067D01*
X-1265557Y-59042102D01*
X-1265557Y-59042101D01*
X-1268136Y-59041163D01*
X-1292165Y-59031210D01*
X-1295507Y-59031210D01*
X-1298653Y-59030066D01*
X-1320982Y-59031048D01*
X-1321929Y-59031090D01*
X-1327374Y-59031210D01*
X-1350695Y-59031210D01*
X-1356561Y-59032376D01*
X-1356572Y-59032378D01*
X-1378248Y-59042493D01*
X-1383220Y-59044682D01*
X-1404767Y-59053608D01*
X-1409753Y-59056939D01*
X-1425907Y-59074578D01*
X-1427764Y-59076605D01*
X-1446149Y-59094992D01*
X-1447430Y-59098082D01*
X-1449689Y-59100550D01*
X-1449690Y-59100551D01*
X-1449690Y-59100552D01*
X-1457654Y-59122450D01*
X-1459622Y-59127512D01*
X-1468548Y-59149063D01*
X-1468927Y-59150576D01*
X-1470145Y-59158506D01*
X-1470398Y-59167855D01*
X-1471429Y-59178328D01*
X-1745739Y-59178328D01*
X-1745739Y-59149064D01*
X-1750746Y-59136976D01*
X-1768136Y-59094993D01*
X-1768139Y-59094989D01*
X-1809520Y-59053608D01*
X-1863589Y-59031211D01*
X-1863592Y-59031210D01*
X-1863593Y-59031210D01*
X-1892857Y-59028328D01*
X-2607143Y-59028328D01*
X-2636407Y-59031210D01*
X-2636409Y-59031210D01*
X-2636412Y-59031211D01*
X-2690481Y-59053608D01*
X-2731863Y-59094990D01*
X-2754260Y-59149059D01*
X-2754261Y-59149062D01*
X-2754261Y-59149064D01*
X-2757143Y-59178328D01*
X-3102882Y-59178328D01*
X-3102882Y-59149064D01*
X-3107889Y-59136976D01*
X-3125279Y-59094993D01*
X-3125282Y-59094989D01*
X-3166663Y-59053608D01*
X-3220732Y-59031211D01*
X-3220735Y-59031210D01*
X-3220736Y-59031210D01*
X-3250000Y-59028328D01*
X-3964286Y-59028328D01*
X-3993550Y-59031210D01*
X-3993552Y-59031210D01*
X-3993555Y-59031211D01*
X-4047624Y-59053608D01*
X-4089005Y-59094989D01*
X-4089006Y-59094991D01*
X-4099726Y-59120870D01*
X-4143569Y-59175272D01*
X-4209864Y-59197335D01*
X-4277563Y-59180054D01*
X-4325172Y-59128915D01*
X-4328847Y-59120867D01*
X-4331329Y-59114875D01*
X-4339565Y-59094992D01*
X-4339566Y-59094991D01*
X-4339566Y-59094990D01*
X-4380948Y-59053608D01*
X-4435017Y-59031211D01*
X-4435020Y-59031210D01*
X-4435021Y-59031210D01*
X-4464285Y-59028328D01*
X-5321428Y-59028328D01*
X-5350692Y-59031210D01*
X-5350694Y-59031210D01*
X-5350697Y-59031211D01*
X-5404766Y-59053608D01*
X-5446147Y-59094989D01*
X-5446149Y-59094992D01*
X-5448437Y-59100517D01*
X-5492279Y-59154919D01*
X-5558573Y-59176983D01*
X-5626272Y-59159703D01*
X-5644242Y-59146738D01*
X-5675709Y-59119446D01*
X-5675714Y-59119443D01*
X-5684337Y-59115593D01*
X-5702565Y-59107454D01*
X-5916851Y-59036026D01*
X-5916854Y-59036025D01*
X-5918957Y-59035547D01*
X-5927282Y-59033654D01*
X-5931361Y-59032726D01*
X-5935021Y-59031210D01*
X-5940327Y-59030687D01*
X-5945521Y-59029506D01*
X-5954282Y-59028835D01*
X-5959902Y-59028758D01*
X-5964276Y-59028328D01*
X-5964285Y-59028328D01*
X-6321428Y-59028328D01*
X-6323806Y-59028562D01*
X-6346000Y-59030747D01*
X-6346003Y-59030748D01*
X-6350692Y-59031210D01*
X-6355673Y-59033273D01*
X-6361047Y-59033655D01*
X-6388511Y-59044164D01*
X-6531367Y-59115593D01*
X-6541636Y-59122056D01*
X-6546222Y-59124197D01*
X-6549169Y-59125963D01*
X-6554879Y-59130078D01*
X-6562920Y-59136976D01*
X-6566951Y-59140899D01*
X-6570347Y-59143686D01*
X-6641779Y-59215117D01*
X-6644560Y-59218506D01*
X-6645449Y-59219590D01*
X-6651219Y-59226620D01*
X-6654213Y-59229217D01*
X-6657053Y-59233727D01*
X-6660429Y-59237841D01*
X-6664951Y-59245384D01*
X-6667533Y-59250377D01*
X-6669882Y-59254109D01*
X-6741306Y-59396959D01*
X-6751817Y-59424426D01*
X-6752609Y-59427998D01*
X-6753382Y-59431271D01*
X-6754261Y-59434778D01*
X-6757004Y-59462636D01*
X-6757142Y-59464042D01*
X-7100000Y-59464042D01*
X-7100000Y-59178328D01*
X-7102882Y-59149064D01*
X-7125280Y-59094992D01*
X-7125281Y-59094991D01*
X-7125281Y-59094990D01*
X-7166662Y-59053609D01*
X-7166666Y-59053606D01*
X-7220732Y-59031211D01*
X-7220736Y-59031210D01*
X-7279264Y-59031210D01*
X-7279265Y-59031210D01*
X-7279269Y-59031211D01*
X-7333335Y-59053606D01*
X-7333339Y-59053609D01*
X-7374720Y-59094990D01*
X-7397117Y-59149059D01*
X-7397118Y-59149062D01*
X-7397118Y-59149064D01*
X-7399989Y-59178222D01*
X-7400000Y-59178332D01*
X-7400000Y-60327930D01*
X-7402973Y-60340519D01*
X-7401960Y-60349893D01*
X-7413092Y-60383385D01*
X-7435710Y-60428620D01*
X-7458932Y-60460841D01*
X-7467478Y-60469388D01*
X-7499710Y-60492621D01*
X-7544942Y-60515237D01*
X-7600396Y-60528328D01*
X-7756746Y-60528328D01*
X-7769336Y-60525356D01*
X-7778708Y-60526368D01*
X-7812200Y-60515237D01*
X-7857434Y-60492620D01*
X-7889661Y-60469392D01*
X-7898207Y-60460846D01*
X-7921435Y-60428619D01*
X-7922316Y-60426856D01*
X-7922381Y-60426726D01*
X-7923058Y-60425372D01*
X-7924805Y-60421878D01*
X-7924806Y-60421876D01*
X-7926023Y-60419442D01*
X-7930368Y-60410752D01*
X-7930369Y-60410750D01*
X-7930370Y-60410748D01*
X-7936735Y-60398018D01*
X-7937116Y-60397256D01*
X-7937237Y-60397014D01*
X-7937874Y-60395740D01*
X-7939437Y-60392614D01*
X-7939438Y-60392612D01*
X-7939439Y-60392610D01*
X-7941610Y-60388268D01*
X-7941689Y-60388110D01*
X-7942842Y-60385804D01*
X-7943771Y-60383946D01*
X-7944052Y-60383385D01*
X-7957143Y-60327931D01*
X-7957143Y-59178332D01*
X-7957143Y-59178327D01*
X-7960025Y-59149064D01*
X-7982423Y-59094992D01*
X-7982424Y-59094991D01*
X-7982424Y-59094990D01*
X-8023805Y-59053609D01*
X-8023809Y-59053606D01*
X-8077875Y-59031211D01*
X-8077879Y-59031210D01*
X-8136407Y-59031210D01*
X-8136408Y-59031210D01*
X-8136412Y-59031211D01*
X-8190478Y-59053606D01*
X-8190482Y-59053609D01*
X-8231863Y-59094990D01*
X-8254260Y-59149059D01*
X-8254261Y-59149062D01*
X-8254261Y-59149064D01*
X-8257143Y-59178328D01*
X-26880774Y-59178328D01*
X-27066309Y-59096086D01*
X-27069076Y-59094819D01*
X-28508465Y-58414039D01*
X-28511200Y-58412704D01*
X-29933447Y-57696805D01*
X-29936148Y-57695403D01*
X-30982537Y-57136097D01*
X-31340374Y-56944829D01*
X-31342996Y-56943386D01*
X-31853101Y-56654415D01*
X-32728425Y-56158550D01*
X-32731055Y-56157017D01*
X-34096747Y-55338453D01*
X-34099338Y-55336857D01*
X-34695745Y-54959187D01*
X-35444593Y-54484984D01*
X-35447129Y-54483334D01*
X-35587605Y-54389471D01*
X-36771015Y-53598741D01*
X-36773519Y-53597023D01*
X-36933558Y-53484311D01*
X-37578410Y-53030155D01*
X18698000Y-53030155D01*
X18698000Y-53590000D01*
X19591073Y-53590000D01*
X19545792Y-53668429D01*
X19515500Y-53781480D01*
X19515500Y-53898520D01*
X19545792Y-54011571D01*
X19591073Y-54090000D01*
X18698000Y-54090000D01*
X18698000Y-54649844D01*
X18704401Y-54709372D01*
X18704403Y-54709379D01*
X18754645Y-54844086D01*
X18754649Y-54844093D01*
X18840809Y-54959187D01*
X18840812Y-54959190D01*
X18955906Y-55045350D01*
X18955913Y-55045354D01*
X19090620Y-55095596D01*
X19090627Y-55095598D01*
X19150155Y-55101999D01*
X19150172Y-55102000D01*
X19710000Y-55102000D01*
X19710000Y-54208927D01*
X19788429Y-54254208D01*
X19901480Y-54284500D01*
X20018520Y-54284500D01*
X20131571Y-54254208D01*
X20210000Y-54208927D01*
X20210000Y-55102000D01*
X20769828Y-55102000D01*
X20769844Y-55101999D01*
X20829372Y-55095598D01*
X20829379Y-55095596D01*
X20964086Y-55045354D01*
X20964093Y-55045350D01*
X21079186Y-54959191D01*
X21130733Y-54890334D01*
X21186667Y-54848463D01*
X21256359Y-54843479D01*
X21317682Y-54876964D01*
X21329267Y-54890334D01*
X21380813Y-54959191D01*
X21495906Y-55045350D01*
X21495913Y-55045354D01*
X21630620Y-55095596D01*
X21630627Y-55095598D01*
X21690155Y-55101999D01*
X21690172Y-55102000D01*
X22250000Y-55102000D01*
X22250000Y-54208927D01*
X22328429Y-54254208D01*
X22441480Y-54284500D01*
X22558520Y-54284500D01*
X22671571Y-54254208D01*
X22750000Y-54208927D01*
X22750000Y-55102000D01*
X23309828Y-55102000D01*
X23309844Y-55101999D01*
X23369372Y-55095598D01*
X23369379Y-55095596D01*
X23504086Y-55045354D01*
X23504093Y-55045350D01*
X23619187Y-54959190D01*
X23619190Y-54959187D01*
X23705350Y-54844093D01*
X23705354Y-54844086D01*
X23755596Y-54709379D01*
X23755598Y-54709372D01*
X23761999Y-54649844D01*
X23762000Y-54649827D01*
X23762000Y-54090000D01*
X22868927Y-54090000D01*
X22914208Y-54011571D01*
X22944500Y-53898520D01*
X22944500Y-53781480D01*
X22914208Y-53668429D01*
X22868927Y-53590000D01*
X23762000Y-53590000D01*
X23762000Y-53030172D01*
X23761999Y-53030155D01*
X23755598Y-52970627D01*
X23755596Y-52970620D01*
X23705354Y-52835913D01*
X23705350Y-52835906D01*
X23619190Y-52720812D01*
X23619187Y-52720809D01*
X23504093Y-52634649D01*
X23504086Y-52634645D01*
X23369379Y-52584403D01*
X23369372Y-52584401D01*
X23309844Y-52578000D01*
X22750000Y-52578000D01*
X22750000Y-53471072D01*
X22671571Y-53425792D01*
X22558520Y-53395500D01*
X22441480Y-53395500D01*
X22328429Y-53425792D01*
X22250000Y-53471072D01*
X22250000Y-52578000D01*
X21690155Y-52578000D01*
X21630627Y-52584401D01*
X21630620Y-52584403D01*
X21495913Y-52634645D01*
X21495906Y-52634649D01*
X21380812Y-52720809D01*
X21329266Y-52789666D01*
X21273332Y-52831536D01*
X21203641Y-52836520D01*
X21142318Y-52803034D01*
X21130734Y-52789666D01*
X21079187Y-52720809D01*
X20964093Y-52634649D01*
X20964086Y-52634645D01*
X20829379Y-52584403D01*
X20829372Y-52584401D01*
X20769844Y-52578000D01*
X20210000Y-52578000D01*
X20210000Y-53471072D01*
X20131571Y-53425792D01*
X20018520Y-53395500D01*
X19901480Y-53395500D01*
X19788429Y-53425792D01*
X19710000Y-53471072D01*
X19710000Y-52578000D01*
X19150155Y-52578000D01*
X19090627Y-52584401D01*
X19090620Y-52584403D01*
X18955913Y-52634645D01*
X18955906Y-52634649D01*
X18840812Y-52720809D01*
X18840809Y-52720812D01*
X18754649Y-52835906D01*
X18754645Y-52835913D01*
X18704403Y-52970620D01*
X18704401Y-52970627D01*
X18698000Y-53030155D01*
X-37578410Y-53030155D01*
X-38075324Y-52680189D01*
X-38077787Y-52678409D01*
X-39356707Y-51729896D01*
X-39359121Y-51728060D01*
X-39828479Y-51361769D01*
X-40614364Y-50748457D01*
X-40616740Y-50746555D01*
X-41847556Y-49736451D01*
X-41849884Y-49734492D01*
X-42675244Y-49022532D01*
X-42961856Y-48775299D01*
X-43055561Y-48694469D01*
X-43057821Y-48692470D01*
X-43080980Y-48671480D01*
X-43909939Y-47920155D01*
X-12692000Y-47920155D01*
X-12692000Y-48480000D01*
X-11798927Y-48480000D01*
X-11844208Y-48558429D01*
X-11874500Y-48671480D01*
X-11874500Y-48788520D01*
X-11844208Y-48901571D01*
X-11798927Y-48980000D01*
X-12692000Y-48980000D01*
X-12692000Y-49539844D01*
X-12685599Y-49599372D01*
X-12685597Y-49599379D01*
X-12635355Y-49734086D01*
X-12635351Y-49734093D01*
X-12549191Y-49849187D01*
X-12480334Y-49900734D01*
X-12438464Y-49956668D01*
X-12433480Y-50026359D01*
X-12466966Y-50087682D01*
X-12480334Y-50099266D01*
X-12549191Y-50150812D01*
X-12635351Y-50265906D01*
X-12635355Y-50265913D01*
X-12685597Y-50400620D01*
X-12685599Y-50400627D01*
X-12692000Y-50460155D01*
X-12692000Y-51020000D01*
X-11798927Y-51020000D01*
X-11844208Y-51098429D01*
X-11874500Y-51211480D01*
X-11874500Y-51328520D01*
X-11844208Y-51441571D01*
X-11798927Y-51520000D01*
X-12692000Y-51520000D01*
X-12692000Y-52079844D01*
X-12685599Y-52139372D01*
X-12685597Y-52139379D01*
X-12635355Y-52274086D01*
X-12635351Y-52274093D01*
X-12549191Y-52389187D01*
X-12549188Y-52389190D01*
X-12434094Y-52475350D01*
X-12434087Y-52475354D01*
X-12299380Y-52525596D01*
X-12299373Y-52525598D01*
X-12239845Y-52531999D01*
X-12239828Y-52532000D01*
X-11680000Y-52532000D01*
X-11680000Y-51638927D01*
X-11601571Y-51684208D01*
X-11488520Y-51714500D01*
X-11371480Y-51714500D01*
X-11258429Y-51684208D01*
X-11180000Y-51638927D01*
X-11180000Y-52532000D01*
X-10620172Y-52532000D01*
X-10620156Y-52531999D01*
X-10560628Y-52525598D01*
X-10560621Y-52525596D01*
X-10425914Y-52475354D01*
X-10425907Y-52475350D01*
X-10310813Y-52389190D01*
X-10310810Y-52389187D01*
X-10224650Y-52274093D01*
X-10224646Y-52274086D01*
X-10174404Y-52139379D01*
X-10174402Y-52139372D01*
X-10168001Y-52079844D01*
X-10168000Y-52079827D01*
X-10168000Y-51520000D01*
X-11061073Y-51520000D01*
X-11015792Y-51441571D01*
X-10985500Y-51328520D01*
X-10985500Y-51211480D01*
X-11015792Y-51098429D01*
X-11061073Y-51020000D01*
X-10168000Y-51020000D01*
X-10168000Y-50488247D01*
X-9852500Y-50488247D01*
X-9852500Y-52051752D01*
X-9840869Y-52110229D01*
X-9840868Y-52110230D01*
X-9796553Y-52176552D01*
X-9730231Y-52220867D01*
X-9730230Y-52220868D01*
X-9671753Y-52232499D01*
X-9671750Y-52232500D01*
X-9671748Y-52232500D01*
X-8108250Y-52232500D01*
X-8108249Y-52232499D01*
X-8093432Y-52229552D01*
X-8049771Y-52220868D01*
X-8049771Y-52220867D01*
X-8049769Y-52220867D01*
X-7983448Y-52176552D01*
X-7939133Y-52110231D01*
X-7939133Y-52110229D01*
X-7939132Y-52110229D01*
X-7927501Y-52051752D01*
X-7927500Y-52051750D01*
X-7927500Y-50488249D01*
X-7927501Y-50488247D01*
X-7312500Y-50488247D01*
X-7312500Y-52051752D01*
X-7300869Y-52110229D01*
X-7300868Y-52110230D01*
X-7256553Y-52176552D01*
X-7190231Y-52220867D01*
X-7190230Y-52220868D01*
X-7131753Y-52232499D01*
X-7131750Y-52232500D01*
X-7131748Y-52232500D01*
X-5568250Y-52232500D01*
X-5568249Y-52232499D01*
X-5553432Y-52229552D01*
X-5509771Y-52220868D01*
X-5509771Y-52220867D01*
X-5509769Y-52220867D01*
X-5443448Y-52176552D01*
X-5399133Y-52110231D01*
X-5399133Y-52110229D01*
X-5399132Y-52110229D01*
X-5387501Y-52051752D01*
X-5387500Y-52051750D01*
X-5387500Y-50488249D01*
X-5387501Y-50488247D01*
X-4772500Y-50488247D01*
X-4772500Y-52051752D01*
X-4760869Y-52110229D01*
X-4760868Y-52110230D01*
X-4716553Y-52176552D01*
X-4650231Y-52220867D01*
X-4650230Y-52220868D01*
X-4591753Y-52232499D01*
X-4591750Y-52232500D01*
X-4591748Y-52232500D01*
X-3028250Y-52232500D01*
X-3028249Y-52232499D01*
X-3013432Y-52229552D01*
X-2969771Y-52220868D01*
X-2969771Y-52220867D01*
X-2969769Y-52220867D01*
X-2903448Y-52176552D01*
X-2859133Y-52110231D01*
X-2859133Y-52110229D01*
X-2859132Y-52110229D01*
X-2847501Y-52051752D01*
X-2847500Y-52051750D01*
X-2847500Y-50488249D01*
X-2847501Y-50488247D01*
X-2232500Y-50488247D01*
X-2232500Y-52051752D01*
X-2220869Y-52110229D01*
X-2220868Y-52110230D01*
X-2176553Y-52176552D01*
X-2110231Y-52220867D01*
X-2110230Y-52220868D01*
X-2051753Y-52232499D01*
X-2051750Y-52232500D01*
X-2051748Y-52232500D01*
X-488250Y-52232500D01*
X-488249Y-52232499D01*
X-473432Y-52229552D01*
X-429771Y-52220868D01*
X-429771Y-52220867D01*
X-429769Y-52220867D01*
X-363448Y-52176552D01*
X-319133Y-52110231D01*
X-319133Y-52110229D01*
X-319132Y-52110229D01*
X-307501Y-52051752D01*
X-307500Y-52051750D01*
X-307500Y-50488249D01*
X-307501Y-50488247D01*
X307500Y-50488247D01*
X307500Y-52051752D01*
X319131Y-52110229D01*
X319132Y-52110230D01*
X363447Y-52176552D01*
X429769Y-52220867D01*
X429770Y-52220868D01*
X488247Y-52232499D01*
X488250Y-52232500D01*
X488252Y-52232500D01*
X2051750Y-52232500D01*
X2051751Y-52232499D01*
X2066568Y-52229552D01*
X2110229Y-52220868D01*
X2110229Y-52220867D01*
X2110231Y-52220867D01*
X2176552Y-52176552D01*
X2220867Y-52110231D01*
X2220867Y-52110229D01*
X2220868Y-52110229D01*
X2232499Y-52051752D01*
X2232500Y-52051750D01*
X2232500Y-50488249D01*
X2232499Y-50488247D01*
X2847500Y-50488247D01*
X2847500Y-52051752D01*
X2859131Y-52110229D01*
X2859132Y-52110230D01*
X2903447Y-52176552D01*
X2969769Y-52220867D01*
X2969770Y-52220868D01*
X3028247Y-52232499D01*
X3028250Y-52232500D01*
X3028252Y-52232500D01*
X4591750Y-52232500D01*
X4591751Y-52232499D01*
X4606568Y-52229552D01*
X4650229Y-52220868D01*
X4650229Y-52220867D01*
X4650231Y-52220867D01*
X4716552Y-52176552D01*
X4760867Y-52110231D01*
X4760867Y-52110229D01*
X4760868Y-52110229D01*
X4772499Y-52051752D01*
X4772500Y-52051750D01*
X4772500Y-50488249D01*
X4772499Y-50488247D01*
X5387500Y-50488247D01*
X5387500Y-52051752D01*
X5399131Y-52110229D01*
X5399132Y-52110230D01*
X5443447Y-52176552D01*
X5509769Y-52220867D01*
X5509770Y-52220868D01*
X5568247Y-52232499D01*
X5568250Y-52232500D01*
X5568252Y-52232500D01*
X7131750Y-52232500D01*
X7131751Y-52232499D01*
X7146568Y-52229552D01*
X7190229Y-52220868D01*
X7190229Y-52220867D01*
X7190231Y-52220867D01*
X7256552Y-52176552D01*
X7300867Y-52110231D01*
X7300867Y-52110229D01*
X7300868Y-52110229D01*
X7312499Y-52051752D01*
X7312500Y-52051750D01*
X7312500Y-50488249D01*
X7312499Y-50488247D01*
X7927500Y-50488247D01*
X7927500Y-52051752D01*
X7939131Y-52110229D01*
X7939132Y-52110230D01*
X7983447Y-52176552D01*
X8049769Y-52220867D01*
X8049770Y-52220868D01*
X8108247Y-52232499D01*
X8108250Y-52232500D01*
X8108252Y-52232500D01*
X9671750Y-52232500D01*
X9671751Y-52232499D01*
X9686568Y-52229552D01*
X9730229Y-52220868D01*
X9730229Y-52220867D01*
X9730231Y-52220867D01*
X9796552Y-52176552D01*
X9840867Y-52110231D01*
X9840867Y-52110229D01*
X9840868Y-52110229D01*
X9852499Y-52051752D01*
X9852500Y-52051750D01*
X9852500Y-50488249D01*
X9852499Y-50488247D01*
X10467500Y-50488247D01*
X10467500Y-52051752D01*
X10479131Y-52110229D01*
X10479132Y-52110230D01*
X10523447Y-52176552D01*
X10589769Y-52220867D01*
X10589770Y-52220868D01*
X10648247Y-52232499D01*
X10648250Y-52232500D01*
X10648252Y-52232500D01*
X12211750Y-52232500D01*
X12211751Y-52232499D01*
X12226568Y-52229552D01*
X12270229Y-52220868D01*
X12270229Y-52220867D01*
X12270231Y-52220867D01*
X12336552Y-52176552D01*
X12380867Y-52110231D01*
X12380867Y-52110229D01*
X12380868Y-52110229D01*
X12392499Y-52051752D01*
X12392500Y-52051750D01*
X12392500Y-50518247D01*
X18997500Y-50518247D01*
X18997500Y-52081752D01*
X19009131Y-52140229D01*
X19009132Y-52140230D01*
X19053447Y-52206552D01*
X19119769Y-52250867D01*
X19119770Y-52250868D01*
X19178247Y-52262499D01*
X19178250Y-52262500D01*
X19178252Y-52262500D01*
X20741750Y-52262500D01*
X20741751Y-52262499D01*
X20756568Y-52259552D01*
X20800229Y-52250868D01*
X20800229Y-52250867D01*
X20800231Y-52250867D01*
X20866552Y-52206552D01*
X20910867Y-52140231D01*
X20910867Y-52140229D01*
X20910868Y-52140229D01*
X20922499Y-52081752D01*
X20922500Y-52081750D01*
X20922500Y-50518249D01*
X20922499Y-50518247D01*
X21537500Y-50518247D01*
X21537500Y-52081752D01*
X21549131Y-52140229D01*
X21549132Y-52140230D01*
X21593447Y-52206552D01*
X21659769Y-52250867D01*
X21659770Y-52250868D01*
X21718247Y-52262499D01*
X21718250Y-52262500D01*
X21718252Y-52262500D01*
X23281750Y-52262500D01*
X23281751Y-52262499D01*
X23296568Y-52259552D01*
X23340229Y-52250868D01*
X23340229Y-52250867D01*
X23340231Y-52250867D01*
X23406552Y-52206552D01*
X23450867Y-52140231D01*
X23450867Y-52140229D01*
X23450868Y-52140229D01*
X23462499Y-52081752D01*
X23462500Y-52081750D01*
X23462500Y-50518249D01*
X23462499Y-50518247D01*
X23450868Y-50459770D01*
X23450867Y-50459769D01*
X23406552Y-50393447D01*
X23340230Y-50349132D01*
X23340229Y-50349131D01*
X23281752Y-50337500D01*
X23281748Y-50337500D01*
X21718252Y-50337500D01*
X21718247Y-50337500D01*
X21659770Y-50349131D01*
X21659769Y-50349132D01*
X21593447Y-50393447D01*
X21549132Y-50459769D01*
X21549131Y-50459770D01*
X21537500Y-50518247D01*
X20922499Y-50518247D01*
X20910868Y-50459770D01*
X20910867Y-50459769D01*
X20866552Y-50393447D01*
X20800230Y-50349132D01*
X20800229Y-50349131D01*
X20741752Y-50337500D01*
X20741748Y-50337500D01*
X19178252Y-50337500D01*
X19178247Y-50337500D01*
X19119770Y-50349131D01*
X19119769Y-50349132D01*
X19053447Y-50393447D01*
X19009132Y-50459769D01*
X19009131Y-50459770D01*
X18997500Y-50518247D01*
X12392500Y-50518247D01*
X12392500Y-50488249D01*
X12392499Y-50488247D01*
X12380868Y-50429770D01*
X12380867Y-50429769D01*
X12336552Y-50363447D01*
X12270230Y-50319132D01*
X12270229Y-50319131D01*
X12211752Y-50307500D01*
X12211748Y-50307500D01*
X10648252Y-50307500D01*
X10648247Y-50307500D01*
X10589770Y-50319131D01*
X10589769Y-50319132D01*
X10523447Y-50363447D01*
X10479132Y-50429769D01*
X10479131Y-50429770D01*
X10467500Y-50488247D01*
X9852499Y-50488247D01*
X9840868Y-50429770D01*
X9840867Y-50429769D01*
X9796552Y-50363447D01*
X9730230Y-50319132D01*
X9730229Y-50319131D01*
X9671752Y-50307500D01*
X9671748Y-50307500D01*
X8108252Y-50307500D01*
X8108247Y-50307500D01*
X8049770Y-50319131D01*
X8049769Y-50319132D01*
X7983447Y-50363447D01*
X7939132Y-50429769D01*
X7939131Y-50429770D01*
X7927500Y-50488247D01*
X7312499Y-50488247D01*
X7300868Y-50429770D01*
X7300867Y-50429769D01*
X7256552Y-50363447D01*
X7190230Y-50319132D01*
X7190229Y-50319131D01*
X7131752Y-50307500D01*
X7131748Y-50307500D01*
X5568252Y-50307500D01*
X5568247Y-50307500D01*
X5509770Y-50319131D01*
X5509769Y-50319132D01*
X5443447Y-50363447D01*
X5399132Y-50429769D01*
X5399131Y-50429770D01*
X5387500Y-50488247D01*
X4772499Y-50488247D01*
X4760868Y-50429770D01*
X4760867Y-50429769D01*
X4716552Y-50363447D01*
X4650230Y-50319132D01*
X4650229Y-50319131D01*
X4591752Y-50307500D01*
X4591748Y-50307500D01*
X3028252Y-50307500D01*
X3028247Y-50307500D01*
X2969770Y-50319131D01*
X2969769Y-50319132D01*
X2903447Y-50363447D01*
X2859132Y-50429769D01*
X2859131Y-50429770D01*
X2847500Y-50488247D01*
X2232499Y-50488247D01*
X2220868Y-50429770D01*
X2220867Y-50429769D01*
X2176552Y-50363447D01*
X2110230Y-50319132D01*
X2110229Y-50319131D01*
X2051752Y-50307500D01*
X2051748Y-50307500D01*
X488252Y-50307500D01*
X488247Y-50307500D01*
X429770Y-50319131D01*
X429769Y-50319132D01*
X363447Y-50363447D01*
X319132Y-50429769D01*
X319131Y-50429770D01*
X307500Y-50488247D01*
X-307501Y-50488247D01*
X-319132Y-50429770D01*
X-319133Y-50429769D01*
X-363448Y-50363447D01*
X-429770Y-50319132D01*
X-429771Y-50319131D01*
X-488248Y-50307500D01*
X-488252Y-50307500D01*
X-2051748Y-50307500D01*
X-2051753Y-50307500D01*
X-2110230Y-50319131D01*
X-2110231Y-50319132D01*
X-2176553Y-50363447D01*
X-2220868Y-50429769D01*
X-2220869Y-50429770D01*
X-2232500Y-50488247D01*
X-2847501Y-50488247D01*
X-2859132Y-50429770D01*
X-2859133Y-50429769D01*
X-2903448Y-50363447D01*
X-2969770Y-50319132D01*
X-2969771Y-50319131D01*
X-3028248Y-50307500D01*
X-3028252Y-50307500D01*
X-4591748Y-50307500D01*
X-4591753Y-50307500D01*
X-4650230Y-50319131D01*
X-4650231Y-50319132D01*
X-4716553Y-50363447D01*
X-4760868Y-50429769D01*
X-4760869Y-50429770D01*
X-4772500Y-50488247D01*
X-5387501Y-50488247D01*
X-5399132Y-50429770D01*
X-5399133Y-50429769D01*
X-5443448Y-50363447D01*
X-5509770Y-50319132D01*
X-5509771Y-50319131D01*
X-5568248Y-50307500D01*
X-5568252Y-50307500D01*
X-7131748Y-50307500D01*
X-7131753Y-50307500D01*
X-7190230Y-50319131D01*
X-7190231Y-50319132D01*
X-7256553Y-50363447D01*
X-7300868Y-50429769D01*
X-7300869Y-50429770D01*
X-7312500Y-50488247D01*
X-7927501Y-50488247D01*
X-7939132Y-50429770D01*
X-7939133Y-50429769D01*
X-7983448Y-50363447D01*
X-8049770Y-50319132D01*
X-8049771Y-50319131D01*
X-8108248Y-50307500D01*
X-8108252Y-50307500D01*
X-9671748Y-50307500D01*
X-9671753Y-50307500D01*
X-9730230Y-50319131D01*
X-9730231Y-50319132D01*
X-9796553Y-50363447D01*
X-9840868Y-50429769D01*
X-9840869Y-50429770D01*
X-9852500Y-50488247D01*
X-10168000Y-50488247D01*
X-10168000Y-50460172D01*
X-10168001Y-50460155D01*
X-10174402Y-50400627D01*
X-10174404Y-50400620D01*
X-10224646Y-50265913D01*
X-10224650Y-50265906D01*
X-10310809Y-50150813D01*
X-10379666Y-50099267D01*
X-10421537Y-50043333D01*
X-10426521Y-49973641D01*
X-10393036Y-49912318D01*
X-10379666Y-49900733D01*
X-10310809Y-49849186D01*
X-10224650Y-49734093D01*
X-10224646Y-49734086D01*
X-10174404Y-49599379D01*
X-10174402Y-49599372D01*
X-10168001Y-49539844D01*
X-10168000Y-49539827D01*
X-10168000Y-48980000D01*
X-11061073Y-48980000D01*
X-11015792Y-48901571D01*
X-10985500Y-48788520D01*
X-10985500Y-48671480D01*
X-11015792Y-48558429D01*
X-11061073Y-48480000D01*
X-10168000Y-48480000D01*
X-10168000Y-47948247D01*
X-9852500Y-47948247D01*
X-9852500Y-49511752D01*
X-9840869Y-49570229D01*
X-9840868Y-49570230D01*
X-9796553Y-49636552D01*
X-9730231Y-49680867D01*
X-9730230Y-49680868D01*
X-9671753Y-49692499D01*
X-9671750Y-49692500D01*
X-9671748Y-49692500D01*
X-8108250Y-49692500D01*
X-8108249Y-49692499D01*
X-8093432Y-49689552D01*
X-8049771Y-49680868D01*
X-8049771Y-49680867D01*
X-8049769Y-49680867D01*
X-7983448Y-49636552D01*
X-7939133Y-49570231D01*
X-7939133Y-49570229D01*
X-7939132Y-49570229D01*
X-7927501Y-49511752D01*
X-7927500Y-49511750D01*
X-7927500Y-47948249D01*
X-7927501Y-47948247D01*
X-7312500Y-47948247D01*
X-7312500Y-49511752D01*
X-7300869Y-49570229D01*
X-7300868Y-49570230D01*
X-7256553Y-49636552D01*
X-7190231Y-49680867D01*
X-7190230Y-49680868D01*
X-7131753Y-49692499D01*
X-7131750Y-49692500D01*
X-7131748Y-49692500D01*
X-5568250Y-49692500D01*
X-5568249Y-49692499D01*
X-5553432Y-49689552D01*
X-5509771Y-49680868D01*
X-5509771Y-49680867D01*
X-5509769Y-49680867D01*
X-5443448Y-49636552D01*
X-5399133Y-49570231D01*
X-5399133Y-49570229D01*
X-5399132Y-49570229D01*
X-5387501Y-49511752D01*
X-5387500Y-49511750D01*
X-5387500Y-47948249D01*
X-5387501Y-47948247D01*
X-4772500Y-47948247D01*
X-4772500Y-49511752D01*
X-4760869Y-49570229D01*
X-4760868Y-49570230D01*
X-4716553Y-49636552D01*
X-4650231Y-49680867D01*
X-4650230Y-49680868D01*
X-4591753Y-49692499D01*
X-4591750Y-49692500D01*
X-4591748Y-49692500D01*
X-3028250Y-49692500D01*
X-3028249Y-49692499D01*
X-3013432Y-49689552D01*
X-2969771Y-49680868D01*
X-2969771Y-49680867D01*
X-2969769Y-49680867D01*
X-2903448Y-49636552D01*
X-2859133Y-49570231D01*
X-2859133Y-49570229D01*
X-2859132Y-49570229D01*
X-2847501Y-49511752D01*
X-2847500Y-49511750D01*
X-2847500Y-47948249D01*
X-2847501Y-47948247D01*
X-2232500Y-47948247D01*
X-2232500Y-49511752D01*
X-2220869Y-49570229D01*
X-2220868Y-49570230D01*
X-2176553Y-49636552D01*
X-2110231Y-49680867D01*
X-2110230Y-49680868D01*
X-2051753Y-49692499D01*
X-2051750Y-49692500D01*
X-2051748Y-49692500D01*
X-488250Y-49692500D01*
X-488249Y-49692499D01*
X-473432Y-49689552D01*
X-429771Y-49680868D01*
X-429771Y-49680867D01*
X-429769Y-49680867D01*
X-363448Y-49636552D01*
X-319133Y-49570231D01*
X-319133Y-49570229D01*
X-319132Y-49570229D01*
X-307501Y-49511752D01*
X-307500Y-49511750D01*
X-307500Y-47948249D01*
X-307501Y-47948247D01*
X307500Y-47948247D01*
X307500Y-49511752D01*
X319131Y-49570229D01*
X319132Y-49570230D01*
X363447Y-49636552D01*
X429769Y-49680867D01*
X429770Y-49680868D01*
X488247Y-49692499D01*
X488250Y-49692500D01*
X488252Y-49692500D01*
X2051750Y-49692500D01*
X2051751Y-49692499D01*
X2066568Y-49689552D01*
X2110229Y-49680868D01*
X2110229Y-49680867D01*
X2110231Y-49680867D01*
X2176552Y-49636552D01*
X2220867Y-49570231D01*
X2220867Y-49570229D01*
X2220868Y-49570229D01*
X2232499Y-49511752D01*
X2232500Y-49511750D01*
X2232500Y-47948249D01*
X2232499Y-47948247D01*
X2847500Y-47948247D01*
X2847500Y-49511752D01*
X2859131Y-49570229D01*
X2859132Y-49570230D01*
X2903447Y-49636552D01*
X2969769Y-49680867D01*
X2969770Y-49680868D01*
X3028247Y-49692499D01*
X3028250Y-49692500D01*
X3028252Y-49692500D01*
X4591750Y-49692500D01*
X4591751Y-49692499D01*
X4606568Y-49689552D01*
X4650229Y-49680868D01*
X4650229Y-49680867D01*
X4650231Y-49680867D01*
X4716552Y-49636552D01*
X4760867Y-49570231D01*
X4760867Y-49570229D01*
X4760868Y-49570229D01*
X4772499Y-49511752D01*
X4772500Y-49511750D01*
X4772500Y-47948249D01*
X4772499Y-47948247D01*
X5387500Y-47948247D01*
X5387500Y-49511752D01*
X5399131Y-49570229D01*
X5399132Y-49570230D01*
X5443447Y-49636552D01*
X5509769Y-49680867D01*
X5509770Y-49680868D01*
X5568247Y-49692499D01*
X5568250Y-49692500D01*
X5568252Y-49692500D01*
X7131750Y-49692500D01*
X7131751Y-49692499D01*
X7146568Y-49689552D01*
X7190229Y-49680868D01*
X7190229Y-49680867D01*
X7190231Y-49680867D01*
X7256552Y-49636552D01*
X7300867Y-49570231D01*
X7300867Y-49570229D01*
X7300868Y-49570229D01*
X7312499Y-49511752D01*
X7312500Y-49511750D01*
X7312500Y-47948249D01*
X7312499Y-47948247D01*
X7927500Y-47948247D01*
X7927500Y-49511752D01*
X7939131Y-49570229D01*
X7939132Y-49570230D01*
X7983447Y-49636552D01*
X8049769Y-49680867D01*
X8049770Y-49680868D01*
X8108247Y-49692499D01*
X8108250Y-49692500D01*
X8108252Y-49692500D01*
X9671750Y-49692500D01*
X9671751Y-49692499D01*
X9686568Y-49689552D01*
X9730229Y-49680868D01*
X9730229Y-49680867D01*
X9730231Y-49680867D01*
X9796552Y-49636552D01*
X9840867Y-49570231D01*
X9840867Y-49570229D01*
X9840868Y-49570229D01*
X9852499Y-49511752D01*
X9852500Y-49511750D01*
X9852500Y-47948249D01*
X9852499Y-47948247D01*
X10467500Y-47948247D01*
X10467500Y-49511752D01*
X10479131Y-49570229D01*
X10479132Y-49570230D01*
X10523447Y-49636552D01*
X10589769Y-49680867D01*
X10589770Y-49680868D01*
X10648247Y-49692499D01*
X10648250Y-49692500D01*
X10648252Y-49692500D01*
X12211750Y-49692500D01*
X12211751Y-49692499D01*
X12226568Y-49689552D01*
X12270229Y-49680868D01*
X12270229Y-49680867D01*
X12270231Y-49680867D01*
X12336552Y-49636552D01*
X12380867Y-49570231D01*
X12380867Y-49570229D01*
X12380868Y-49570229D01*
X12392499Y-49511752D01*
X12392500Y-49511750D01*
X12392500Y-47950155D01*
X18698000Y-47950155D01*
X18698000Y-48510000D01*
X19591073Y-48510000D01*
X19545792Y-48588429D01*
X19515500Y-48701480D01*
X19515500Y-48818520D01*
X19545792Y-48931571D01*
X19591073Y-49010000D01*
X18698000Y-49010000D01*
X18698000Y-49569844D01*
X18704401Y-49629372D01*
X18704403Y-49629379D01*
X18754645Y-49764086D01*
X18754649Y-49764093D01*
X18840809Y-49879187D01*
X18840812Y-49879190D01*
X18955906Y-49965350D01*
X18955913Y-49965354D01*
X19090620Y-50015596D01*
X19090627Y-50015598D01*
X19150155Y-50021999D01*
X19150172Y-50022000D01*
X19710000Y-50022000D01*
X19710000Y-49128927D01*
X19788429Y-49174208D01*
X19901480Y-49204500D01*
X20018520Y-49204500D01*
X20131571Y-49174208D01*
X20210000Y-49128927D01*
X20210000Y-50022000D01*
X20769828Y-50022000D01*
X20769844Y-50021999D01*
X20829372Y-50015598D01*
X20829379Y-50015596D01*
X20964086Y-49965354D01*
X20964093Y-49965350D01*
X21079186Y-49879191D01*
X21130733Y-49810334D01*
X21186667Y-49768463D01*
X21256359Y-49763479D01*
X21317682Y-49796964D01*
X21329267Y-49810334D01*
X21380813Y-49879191D01*
X21495906Y-49965350D01*
X21495913Y-49965354D01*
X21630620Y-50015596D01*
X21630627Y-50015598D01*
X21690155Y-50021999D01*
X21690172Y-50022000D01*
X22250000Y-50022000D01*
X22250000Y-49128927D01*
X22328429Y-49174208D01*
X22441480Y-49204500D01*
X22558520Y-49204500D01*
X22671571Y-49174208D01*
X22750000Y-49128927D01*
X22750000Y-50022000D01*
X23309828Y-50022000D01*
X23309844Y-50021999D01*
X23369372Y-50015598D01*
X23369379Y-50015596D01*
X23504086Y-49965354D01*
X23504093Y-49965350D01*
X23619187Y-49879190D01*
X23619190Y-49879187D01*
X23705350Y-49764093D01*
X23705354Y-49764086D01*
X23755596Y-49629379D01*
X23755598Y-49629372D01*
X23761999Y-49569844D01*
X23762000Y-49569827D01*
X23762000Y-49010000D01*
X22868927Y-49010000D01*
X22914208Y-48931571D01*
X22944500Y-48818520D01*
X22944500Y-48701480D01*
X22914208Y-48588429D01*
X22868927Y-48510000D01*
X23762000Y-48510000D01*
X23762000Y-47950172D01*
X23761999Y-47950155D01*
X23755598Y-47890627D01*
X23755596Y-47890620D01*
X23705354Y-47755913D01*
X23705350Y-47755906D01*
X23619190Y-47640812D01*
X23619187Y-47640809D01*
X23504093Y-47554649D01*
X23504086Y-47554645D01*
X23369379Y-47504403D01*
X23369372Y-47504401D01*
X23309844Y-47498000D01*
X22750000Y-47498000D01*
X22750000Y-48391072D01*
X22671571Y-48345792D01*
X22558520Y-48315500D01*
X22441480Y-48315500D01*
X22328429Y-48345792D01*
X22250000Y-48391072D01*
X22250000Y-47498000D01*
X21690155Y-47498000D01*
X21630627Y-47504401D01*
X21630620Y-47504403D01*
X21495913Y-47554645D01*
X21495906Y-47554649D01*
X21380812Y-47640809D01*
X21329266Y-47709666D01*
X21273332Y-47751536D01*
X21203641Y-47756520D01*
X21142318Y-47723034D01*
X21130734Y-47709666D01*
X21079187Y-47640809D01*
X20964093Y-47554649D01*
X20964086Y-47554645D01*
X20829379Y-47504403D01*
X20829372Y-47504401D01*
X20769844Y-47498000D01*
X20210000Y-47498000D01*
X20210000Y-48391072D01*
X20131571Y-48345792D01*
X20018520Y-48315500D01*
X19901480Y-48315500D01*
X19788429Y-48345792D01*
X19710000Y-48391072D01*
X19710000Y-47498000D01*
X19150155Y-47498000D01*
X19090627Y-47504401D01*
X19090620Y-47504403D01*
X18955913Y-47554645D01*
X18955906Y-47554649D01*
X18840812Y-47640809D01*
X18840809Y-47640812D01*
X18754649Y-47755906D01*
X18754645Y-47755913D01*
X18704403Y-47890620D01*
X18704401Y-47890627D01*
X18698000Y-47950155D01*
X12392500Y-47950155D01*
X12392500Y-47948249D01*
X12392499Y-47948247D01*
X12380868Y-47889770D01*
X12380867Y-47889769D01*
X12336552Y-47823447D01*
X12270230Y-47779132D01*
X12270229Y-47779131D01*
X12211752Y-47767500D01*
X12211748Y-47767500D01*
X10648252Y-47767500D01*
X10648247Y-47767500D01*
X10589770Y-47779131D01*
X10589769Y-47779132D01*
X10523447Y-47823447D01*
X10479132Y-47889769D01*
X10479131Y-47889770D01*
X10467500Y-47948247D01*
X9852499Y-47948247D01*
X9840868Y-47889770D01*
X9840867Y-47889769D01*
X9796552Y-47823447D01*
X9730230Y-47779132D01*
X9730229Y-47779131D01*
X9671752Y-47767500D01*
X9671748Y-47767500D01*
X8108252Y-47767500D01*
X8108247Y-47767500D01*
X8049770Y-47779131D01*
X8049769Y-47779132D01*
X7983447Y-47823447D01*
X7939132Y-47889769D01*
X7939131Y-47889770D01*
X7927500Y-47948247D01*
X7312499Y-47948247D01*
X7300868Y-47889770D01*
X7300867Y-47889769D01*
X7256552Y-47823447D01*
X7190230Y-47779132D01*
X7190229Y-47779131D01*
X7131752Y-47767500D01*
X7131748Y-47767500D01*
X5568252Y-47767500D01*
X5568247Y-47767500D01*
X5509770Y-47779131D01*
X5509769Y-47779132D01*
X5443447Y-47823447D01*
X5399132Y-47889769D01*
X5399131Y-47889770D01*
X5387500Y-47948247D01*
X4772499Y-47948247D01*
X4760868Y-47889770D01*
X4760867Y-47889769D01*
X4716552Y-47823447D01*
X4650230Y-47779132D01*
X4650229Y-47779131D01*
X4591752Y-47767500D01*
X4591748Y-47767500D01*
X3028252Y-47767500D01*
X3028247Y-47767500D01*
X2969770Y-47779131D01*
X2969769Y-47779132D01*
X2903447Y-47823447D01*
X2859132Y-47889769D01*
X2859131Y-47889770D01*
X2847500Y-47948247D01*
X2232499Y-47948247D01*
X2220868Y-47889770D01*
X2220867Y-47889769D01*
X2176552Y-47823447D01*
X2110230Y-47779132D01*
X2110229Y-47779131D01*
X2051752Y-47767500D01*
X2051748Y-47767500D01*
X488252Y-47767500D01*
X488247Y-47767500D01*
X429770Y-47779131D01*
X429769Y-47779132D01*
X363447Y-47823447D01*
X319132Y-47889769D01*
X319131Y-47889770D01*
X307500Y-47948247D01*
X-307501Y-47948247D01*
X-319132Y-47889770D01*
X-319133Y-47889769D01*
X-363448Y-47823447D01*
X-429770Y-47779132D01*
X-429771Y-47779131D01*
X-488248Y-47767500D01*
X-488252Y-47767500D01*
X-2051748Y-47767500D01*
X-2051753Y-47767500D01*
X-2110230Y-47779131D01*
X-2110231Y-47779132D01*
X-2176553Y-47823447D01*
X-2220868Y-47889769D01*
X-2220869Y-47889770D01*
X-2232500Y-47948247D01*
X-2847501Y-47948247D01*
X-2859132Y-47889770D01*
X-2859133Y-47889769D01*
X-2903448Y-47823447D01*
X-2969770Y-47779132D01*
X-2969771Y-47779131D01*
X-3028248Y-47767500D01*
X-3028252Y-47767500D01*
X-4591748Y-47767500D01*
X-4591753Y-47767500D01*
X-4650230Y-47779131D01*
X-4650231Y-47779132D01*
X-4716553Y-47823447D01*
X-4760868Y-47889769D01*
X-4760869Y-47889770D01*
X-4772500Y-47948247D01*
X-5387501Y-47948247D01*
X-5399132Y-47889770D01*
X-5399133Y-47889769D01*
X-5443448Y-47823447D01*
X-5509770Y-47779132D01*
X-5509771Y-47779131D01*
X-5568248Y-47767500D01*
X-5568252Y-47767500D01*
X-7131748Y-47767500D01*
X-7131753Y-47767500D01*
X-7190230Y-47779131D01*
X-7190231Y-47779132D01*
X-7256553Y-47823447D01*
X-7300868Y-47889769D01*
X-7300869Y-47889770D01*
X-7312500Y-47948247D01*
X-7927501Y-47948247D01*
X-7939132Y-47889770D01*
X-7939133Y-47889769D01*
X-7983448Y-47823447D01*
X-8049770Y-47779132D01*
X-8049771Y-47779131D01*
X-8108248Y-47767500D01*
X-8108252Y-47767500D01*
X-9671748Y-47767500D01*
X-9671753Y-47767500D01*
X-9730230Y-47779131D01*
X-9730231Y-47779132D01*
X-9796553Y-47823447D01*
X-9840868Y-47889769D01*
X-9840869Y-47889770D01*
X-9852500Y-47948247D01*
X-10168000Y-47948247D01*
X-10168000Y-47920172D01*
X-10168001Y-47920155D01*
X-10174402Y-47860627D01*
X-10174404Y-47860620D01*
X-10224646Y-47725913D01*
X-10224650Y-47725906D01*
X-10310810Y-47610812D01*
X-10310813Y-47610809D01*
X-10425907Y-47524649D01*
X-10425914Y-47524645D01*
X-10560621Y-47474403D01*
X-10560628Y-47474401D01*
X-10620156Y-47468000D01*
X-11180000Y-47468000D01*
X-11180000Y-48361072D01*
X-11258429Y-48315792D01*
X-11371480Y-48285500D01*
X-11488520Y-48285500D01*
X-11601571Y-48315792D01*
X-11680000Y-48361072D01*
X-11680000Y-47468000D01*
X-12239845Y-47468000D01*
X-12299373Y-47474401D01*
X-12299380Y-47474403D01*
X-12434087Y-47524645D01*
X-12434094Y-47524649D01*
X-12549188Y-47610809D01*
X-12549191Y-47610812D01*
X-12635351Y-47725906D01*
X-12635355Y-47725913D01*
X-12685597Y-47860620D01*
X-12685599Y-47860627D01*
X-12692000Y-47920155D01*
X-43909939Y-47920155D01*
X-44218150Y-47640809D01*
X-44237585Y-47623194D01*
X-44239815Y-47621123D01*
X-45393022Y-46523179D01*
X-45395200Y-46521053D01*
X-46521054Y-45395199D01*
X-46523180Y-45393021D01*
X-47621124Y-44239814D01*
X-47623195Y-44237584D01*
X-47843346Y-43994685D01*
X-48692493Y-43057795D01*
X-48694465Y-43055565D01*
X-49156976Y-42519386D01*
X-49734493Y-41849883D01*
X-49736452Y-41847555D01*
X-50746556Y-40616739D01*
X-50748458Y-40614363D01*
X-51719119Y-39370577D01*
X-51719465Y-39370131D01*
X-51730382Y-39356010D01*
X-51731879Y-39354034D01*
X-52637494Y-38132955D01*
X-52652885Y-38112202D01*
X-52684941Y-38068538D01*
X-52686281Y-38066674D01*
X-53558375Y-36828395D01*
X-53607335Y-36758112D01*
X-53608662Y-36756167D01*
X-53684841Y-36642157D01*
X-54434384Y-35520388D01*
X-54434665Y-35519964D01*
X-54497133Y-35425364D01*
X-54498420Y-35423375D01*
X-54879906Y-34820943D01*
X-55280518Y-34188307D01*
X-55353839Y-34071040D01*
X-55354924Y-34069267D01*
X-56094941Y-32834623D01*
X-56095284Y-32834048D01*
X-56176785Y-32696199D01*
X-56177832Y-32694389D01*
X-56877695Y-31458958D01*
X-56877888Y-31458614D01*
X-56965548Y-31301572D01*
X-56966554Y-31299730D01*
X-57627400Y-30063375D01*
X-57627772Y-30062674D01*
X-57719634Y-29888050D01*
X-57720652Y-29886072D01*
X-57914355Y-29501252D01*
X-58343972Y-28647748D01*
X-58344092Y-28647507D01*
X-58438646Y-28456395D01*
X-58439551Y-28454525D01*
X-59026344Y-27213854D01*
X-59122147Y-27007474D01*
X-59123002Y-27005589D01*
X-59673633Y-25763387D01*
X-59674005Y-25762539D01*
X-59769721Y-25542179D01*
X-59770439Y-25540485D01*
X-60285976Y-24295868D01*
X-60286341Y-24294977D01*
X-60380866Y-24061668D01*
X-60381631Y-24059733D01*
X-60484508Y-23793035D01*
X-60862770Y-22812428D01*
X-60862882Y-22812135D01*
X-60955363Y-22566513D01*
X-60956067Y-22564593D01*
X-61136161Y-22061265D01*
X-61403158Y-21315058D01*
X-61403394Y-21314389D01*
X-61492816Y-21057742D01*
X-61493414Y-21055980D01*
X-61907015Y-19803993D01*
X-61907318Y-19803062D01*
X-61968214Y-19613240D01*
X-61992883Y-19536343D01*
X-61993433Y-19534581D01*
X-62373969Y-18280123D01*
X-62374271Y-18279109D01*
X-62408449Y-18162710D01*
X-62455293Y-18003173D01*
X-62455783Y-18001455D01*
X-62803665Y-16744370D01*
X-62803822Y-16743791D01*
X-62879731Y-16459318D01*
X-62880167Y-16457632D01*
X-63195661Y-15198109D01*
X-63195790Y-15197585D01*
X-63266027Y-14905425D01*
X-63266375Y-14903929D01*
X-63549651Y-13642444D01*
X-63549857Y-13641502D01*
X-63613883Y-13342716D01*
X-63614185Y-13341256D01*
X-63865475Y-12077935D01*
X-63865696Y-12076792D01*
X-63873099Y-12037509D01*
X-63923096Y-11772192D01*
X-63923410Y-11770454D01*
X-64142888Y-10505578D01*
X-64143047Y-10504633D01*
X-64193562Y-10194426D01*
X-64193780Y-10193025D01*
X-64381670Y-8926372D01*
X-64381817Y-8925339D01*
X-64425045Y-8610837D01*
X-64425227Y-8609434D01*
X-64581609Y-7341519D01*
X-64581762Y-7340220D01*
X-64591963Y-7249325D01*
X-64617432Y-7022372D01*
X-64617606Y-7020723D01*
X-64742592Y-5751721D01*
X-64742690Y-5750666D01*
X-64770680Y-5429470D01*
X-64770789Y-5428111D01*
X-64864472Y-4158079D01*
X-64864543Y-4157029D01*
X-64884650Y-3833594D01*
X-64884705Y-3832604D01*
X-64947139Y-2561739D01*
X-64947191Y-2560526D01*
X-64959289Y-2235926D01*
X-64959335Y-2234417D01*
X-64990536Y-963461D01*
X-64990556Y-962339D01*
X-64994596Y-636963D01*
X-64994606Y-635424D01*
X-64994606Y635426D01*
X-64994596Y636965D01*
X-64992483Y807139D01*
X-64990556Y962346D01*
X-64990536Y963453D01*
X-64959333Y2234490D01*
X-64959286Y2235994D01*
X-64947190Y2560542D01*
X-64947139Y2561732D01*
X-64884705Y3832621D01*
X-64884651Y3833577D01*
X-64864542Y4157054D01*
X-64864475Y4158034D01*
X-64770787Y5428139D01*
X-64770682Y5429448D01*
X-64742688Y5750700D01*
X-64742599Y5751654D01*
X-64617601Y7020780D01*
X-64617429Y7022400D01*
X-64581751Y7340316D01*
X-64581615Y7341477D01*
X-64425222Y8609481D01*
X-64425050Y8610802D01*
X-64381810Y8925394D01*
X-64381680Y8926301D01*
X-64193773Y10193075D01*
X-64193569Y10194384D01*
X-64143037Y10504692D01*
X-64142898Y10505520D01*
X-63923396Y11770534D01*
X-63923105Y11772145D01*
X-63865667Y12076947D01*
X-63865494Y12077838D01*
X-63614172Y13341324D01*
X-63613895Y13342663D01*
X-63549837Y13641595D01*
X-63549669Y13642363D01*
X-63266360Y14903997D01*
X-63266041Y14905368D01*
X-63195766Y15197684D01*
X-63195688Y15198002D01*
X-62880151Y16457697D01*
X-62879748Y16459254D01*
X-62803794Y16743898D01*
X-62803728Y16744142D01*
X-62455762Y18001532D01*
X-62455313Y18003107D01*
X-62374216Y18279298D01*
X-62374013Y18279979D01*
X-61993410Y19534659D01*
X-61992906Y19536273D01*
X-61907242Y19803299D01*
X-61907128Y19803650D01*
X-61757686Y20256018D01*
X-25825500Y20256018D01*
X-25825500Y-21743982D01*
X-25825500Y-21856018D01*
X-25796503Y-21964237D01*
X-25740485Y-22061263D01*
X-7361263Y-40440485D01*
X-7264237Y-40496503D01*
X-7156019Y-40525500D01*
X-7156018Y-40525500D01*
X-4402610Y-40525500D01*
X-4335571Y-40545185D01*
X-4314929Y-40561819D01*
X-1736819Y-43139929D01*
X-1703334Y-43201252D01*
X-1700500Y-43227610D01*
X-1700500Y-43254056D01*
X-1659577Y-43406783D01*
X-1659574Y-43406790D01*
X-1580525Y-43543709D01*
X-1580521Y-43543714D01*
X-1580520Y-43543716D01*
X-1468716Y-43655520D01*
X-1468714Y-43655521D01*
X-1468710Y-43655524D01*
X-1331791Y-43734573D01*
X-1331784Y-43734577D01*
X-1179057Y-43775500D01*
X-1179055Y-43775500D01*
X-1020945Y-43775500D01*
X-1020943Y-43775500D01*
X-868216Y-43734577D01*
X-731284Y-43655520D01*
X-619480Y-43543716D01*
X-540423Y-43406784D01*
X-499500Y-43254057D01*
X-499500Y-43095943D01*
X-540423Y-42943216D01*
X-554295Y-42919189D01*
X-619476Y-42806290D01*
X-619482Y-42806282D01*
X-731283Y-42694481D01*
X-731291Y-42694475D01*
X-868210Y-42615426D01*
X-868214Y-42615424D01*
X-868216Y-42615423D01*
X-1020943Y-42574500D01*
X-1020944Y-42574500D01*
X-1047390Y-42574500D01*
X-1114429Y-42554815D01*
X-1135071Y-42538181D01*
X-3913735Y-39759517D01*
X-3913737Y-39759515D01*
X-4010763Y-39703497D01*
X-4118982Y-39674500D01*
X-4118983Y-39674500D01*
X-6872390Y-39674500D01*
X-6939429Y-39654815D01*
X-6960071Y-39638181D01*
X-24938181Y-21660071D01*
X-24971666Y-21598748D01*
X-24974500Y-21572390D01*
X-24974500Y19972390D01*
X-24954815Y20039429D01*
X-24938181Y20060071D01*
X-24435071Y20563181D01*
X-24373748Y20596666D01*
X-24347390Y20599500D01*
X-24320945Y20599500D01*
X-24320943Y20599500D01*
X-24168216Y20640423D01*
X-24031284Y20719480D01*
X-23936439Y20814326D01*
X-23926505Y20819751D01*
X-23919391Y20828561D01*
X-23896390Y20836194D01*
X-23875120Y20847808D01*
X-23863826Y20847001D01*
X-23853077Y20850567D01*
X-23829600Y20844553D01*
X-23805428Y20842824D01*
X-23794612Y20835590D01*
X-23785393Y20833228D01*
X-23768065Y20817835D01*
X-23757931Y20811057D01*
X-23749509Y20801995D01*
X-23747156Y20797920D01*
X-23726846Y20777610D01*
X-23725306Y20775953D01*
X-23710666Y20746640D01*
X-23694970Y20717896D01*
X-23694603Y20714480D01*
X-23694087Y20713447D01*
X-23694291Y20711573D01*
X-23692136Y20691538D01*
X-23692136Y-18677346D01*
X-23692136Y-18789382D01*
X-23663139Y-18897601D01*
X-23607121Y-18994627D01*
X-7440485Y-35161263D01*
X-7361263Y-35240485D01*
X-7264237Y-35296503D01*
X-7156018Y-35325500D01*
X-4275098Y-35325500D01*
X-4208059Y-35345185D01*
X-4187417Y-35361819D01*
X-4168716Y-35380520D01*
X-4168714Y-35380521D01*
X-4168710Y-35380524D01*
X-4055557Y-35445852D01*
X-4031784Y-35459577D01*
X-3879057Y-35500500D01*
X-3879055Y-35500500D01*
X-3720945Y-35500500D01*
X-3720943Y-35500500D01*
X-3568216Y-35459577D01*
X-3431284Y-35380520D01*
X-3319480Y-35268716D01*
X-3240423Y-35131784D01*
X-3199500Y-34979057D01*
X-3199500Y-34820943D01*
X-3240423Y-34668216D01*
X-3240427Y-34668209D01*
X-3319476Y-34531290D01*
X-3319482Y-34531282D01*
X-3431283Y-34419481D01*
X-3431291Y-34419475D01*
X-3568210Y-34340426D01*
X-3568214Y-34340424D01*
X-3568216Y-34340423D01*
X-3720943Y-34299500D01*
X-3879057Y-34299500D01*
X-4031784Y-34340423D01*
X-4031791Y-34340426D01*
X-4168710Y-34419475D01*
X-4168718Y-34419481D01*
X-4187417Y-34438181D01*
X-4248740Y-34471666D01*
X-4275098Y-34474500D01*
X-6872390Y-34474500D01*
X-6939429Y-34454815D01*
X-6960071Y-34438181D01*
X-22804817Y-18593435D01*
X-22838302Y-18532112D01*
X-22841136Y-18505754D01*
X-22841136Y20691538D01*
X-22834294Y20714843D01*
X-22831696Y20738994D01*
X-22823678Y20750994D01*
X-22821451Y20758577D01*
X-22813686Y20769347D01*
X-22809522Y20774515D01*
X-22786116Y20797920D01*
X-22774640Y20817799D01*
X-22768614Y20825275D01*
X-22747496Y20839937D01*
X-22728891Y20857678D01*
X-22719269Y20859534D01*
X-22711220Y20865121D01*
X-22685530Y20866038D01*
X-22660284Y20870905D01*
X-22651187Y20867264D01*
X-22641395Y20867613D01*
X-22619288Y20854496D01*
X-22595418Y20844941D01*
X-22584383Y20835147D01*
X-22561819Y20812583D01*
X-22528334Y20751260D01*
X-22525500Y20724902D01*
X-22525500Y15456018D01*
X-22525500Y15343982D01*
X-22496503Y15235763D01*
X-22440485Y15138737D01*
X-22440483Y15138735D01*
X-20161819Y12860071D01*
X-20128334Y12798748D01*
X-20125500Y12772390D01*
X-20125500Y-15743982D01*
X-20125500Y-15856018D01*
X-20096503Y-15964237D01*
X-20040485Y-16061263D01*
X-20040483Y-16061265D01*
X-6661819Y-29439929D01*
X-6628334Y-29501252D01*
X-6625500Y-29527610D01*
X-6625500Y-30524902D01*
X-6645185Y-30591941D01*
X-6661819Y-30612583D01*
X-6680519Y-30631282D01*
X-6680525Y-30631290D01*
X-6759574Y-30768209D01*
X-6759577Y-30768216D01*
X-6800500Y-30920943D01*
X-6800500Y-31079056D01*
X-6759577Y-31231783D01*
X-6759574Y-31231790D01*
X-6680525Y-31368709D01*
X-6680521Y-31368714D01*
X-6680520Y-31368716D01*
X-6568716Y-31480520D01*
X-6568714Y-31480521D01*
X-6568710Y-31480524D01*
X-6431791Y-31559573D01*
X-6431784Y-31559577D01*
X-6279057Y-31600500D01*
X-6279055Y-31600500D01*
X-6120945Y-31600500D01*
X-6120943Y-31600500D01*
X-5968216Y-31559577D01*
X-5831284Y-31480520D01*
X-5719480Y-31368716D01*
X-5640423Y-31231784D01*
X-5599500Y-31079057D01*
X-5599500Y-30920943D01*
X-5640423Y-30768216D01*
X-5640427Y-30768209D01*
X-5719476Y-30631290D01*
X-5719482Y-30631282D01*
X-5738181Y-30612583D01*
X-5771666Y-30551260D01*
X-5774500Y-30524902D01*
X-5774500Y-29243984D01*
X-5774500Y-29243982D01*
X-5803497Y-29135763D01*
X-5859515Y-29038737D01*
X-5938737Y-28959515D01*
X-16024214Y-18874038D01*
X-1600500Y-18874038D01*
X-1600500Y-19125961D01*
X-1561090Y-19374785D01*
X-1483240Y-19614383D01*
X-1474255Y-19632016D01*
X-1386584Y-19804080D01*
X-1368868Y-19838848D01*
X-1220799Y-20042649D01*
X-1220795Y-20042654D01*
X-1042655Y-20220794D01*
X-1042650Y-20220798D01*
X-864883Y-20349952D01*
X-838845Y-20368870D01*
X-695816Y-20441747D01*
X-614384Y-20483239D01*
X-614382Y-20483239D01*
X-614379Y-20483241D01*
X-374785Y-20561090D01*
X-125962Y-20600500D01*
X-125961Y-20600500D01*
X125961Y-20600500D01*
X125962Y-20600500D01*
X374785Y-20561090D01*
X614379Y-20483241D01*
X838845Y-20368870D01*
X1042656Y-20220793D01*
X1220793Y-20042656D01*
X1368870Y-19838845D01*
X1483241Y-19614379D01*
X1561090Y-19374785D01*
X1600500Y-19125962D01*
X1600500Y-18874038D01*
X1561090Y-18625215D01*
X1483241Y-18385621D01*
X1483239Y-18385618D01*
X1483239Y-18385616D01*
X1441747Y-18304184D01*
X1368870Y-18161155D01*
X1328276Y-18105282D01*
X1220798Y-17957350D01*
X1220794Y-17957345D01*
X1042654Y-17779205D01*
X1042649Y-17779201D01*
X838848Y-17631132D01*
X838847Y-17631131D01*
X838845Y-17631130D01*
X768747Y-17595413D01*
X614383Y-17516760D01*
X374785Y-17438910D01*
X125962Y-17399500D01*
X-125962Y-17399500D01*
X-250374Y-17419205D01*
X-374786Y-17438910D01*
X-614384Y-17516760D01*
X-838849Y-17631132D01*
X-1042650Y-17779201D01*
X-1042655Y-17779205D01*
X-1220795Y-17957345D01*
X-1220799Y-17957350D01*
X-1368868Y-18161151D01*
X-1483240Y-18385616D01*
X-1561090Y-18625214D01*
X-1600500Y-18874038D01*
X-16024214Y-18874038D01*
X-19238181Y-15660071D01*
X-19271666Y-15598748D01*
X-19274500Y-15572390D01*
X-19274500Y368242D01*
X-15000500Y368242D01*
X-15000500Y368106D01*
X-15000500Y-368242D01*
X-14972866Y-930756D01*
X-14964362Y-1103842D01*
X-14892176Y-1836762D01*
X-14892175Y-1836768D01*
X-14784114Y-2565263D01*
X-14784112Y-2565274D01*
X-14784110Y-2565286D01*
X-14770612Y-2633149D01*
X-14760081Y-2686090D01*
X-14759578Y-2688621D01*
X-14759416Y-2689657D01*
X-14758482Y-2694130D01*
X-14758364Y-2694722D01*
X-14758356Y-2694759D01*
X-14758357Y-2694761D01*
X-14758355Y-2694768D01*
X-14640428Y-3287623D01*
X-14605012Y-3429013D01*
X-14604416Y-3431394D01*
X-14601387Y-3445887D01*
X-14589085Y-3492602D01*
X-14588903Y-3493326D01*
X-14588893Y-3493363D01*
X-14461480Y-4002023D01*
X-14461477Y-4002033D01*
X-14412430Y-4163725D01*
X-14411751Y-4165963D01*
X-14404636Y-4192980D01*
X-14382924Y-4260995D01*
X-14382673Y-4261820D01*
X-14382636Y-4261937D01*
X-14247688Y-4706800D01*
X-14247684Y-4706810D01*
X-14182717Y-4888386D01*
X-14181988Y-4890423D01*
X-14169688Y-4928953D01*
X-14140472Y-5006454D01*
X-14140117Y-5007444D01*
X-14140104Y-5007478D01*
X-14050393Y-5258205D01*
X-13999570Y-5400247D01*
X-13916310Y-5601252D01*
X-13916310Y-5601253D01*
X-13915538Y-5603117D01*
X-13897164Y-5651856D01*
X-13862432Y-5731329D01*
X-13861960Y-5732469D01*
X-13861944Y-5732505D01*
X-13717747Y-6080626D01*
X-13717734Y-6080657D01*
X-13613671Y-6300680D01*
X-13612880Y-6302353D01*
X-13587787Y-6359770D01*
X-13549415Y-6436539D01*
X-13548827Y-6437783D01*
X-13548818Y-6437801D01*
X-13426113Y-6697238D01*
X-13402855Y-6746413D01*
X-13402845Y-6746433D01*
X-13402838Y-6746448D01*
X-13275352Y-6984955D01*
X-13274542Y-6986470D01*
X-13242378Y-7050820D01*
X-13202228Y-7121761D01*
X-13201514Y-7123097D01*
X-13055677Y-7395938D01*
X-13055659Y-7395970D01*
X-12931978Y-7602318D01*
X-12901790Y-7652683D01*
X-12901019Y-7653969D01*
X-12861852Y-7723173D01*
X-12821778Y-7786176D01*
X-12820928Y-7787594D01*
X-12677049Y-8027641D01*
X-12677030Y-8027672D01*
X-12493495Y-8302353D01*
X-12493494Y-8302353D01*
X-12492689Y-8303558D01*
X-12447219Y-8375044D01*
X-12409023Y-8428771D01*
X-12408019Y-8430274D01*
X-12267887Y-8639998D01*
X-12267876Y-8640013D01*
X-12050694Y-8932851D01*
X-12050693Y-8932851D01*
X-12049945Y-8933860D01*
X-11999578Y-9004707D01*
X-11964988Y-9048410D01*
X-11963835Y-9049965D01*
X-11963835Y-9049967D01*
X-11831672Y-9228166D01*
X-11829153Y-9231562D01*
X-11572755Y-9543983D01*
X-11520117Y-9610491D01*
X-11490773Y-9643879D01*
X-11489446Y-9645496D01*
X-11361930Y-9800875D01*
X-11178952Y-10002759D01*
X-11061140Y-10132745D01*
X-11061134Y-10132751D01*
X-11060543Y-10133403D01*
X-11010106Y-10190790D01*
X-10987608Y-10213875D01*
X-10867344Y-10346566D01*
X-10867336Y-10346574D01*
X-10511226Y-10702684D01*
X-10470898Y-10744064D01*
X-10456761Y-10757149D01*
X-10346564Y-10867346D01*
X-9920853Y-11253188D01*
X-9920306Y-11253683D01*
X-9903924Y-11268847D01*
X-9899547Y-11272499D01*
X-9897659Y-11274209D01*
X-9897658Y-11274211D01*
X-9800876Y-11361929D01*
X-9800871Y-11361933D01*
X-9231562Y-11829153D01*
X-8640013Y-12267876D01*
X-8027649Y-12677044D01*
X-8027642Y-12677048D01*
X-7395971Y-13055658D01*
X-7395961Y-13055663D01*
X-7395947Y-13055672D01*
X-7222742Y-13148252D01*
X-6746449Y-13402837D01*
X-6746435Y-13402844D01*
X-6746431Y-13402846D01*
X-6746427Y-13402848D01*
X-6080654Y-13717735D01*
X-5400232Y-13999575D01*
X-4706800Y-14247688D01*
X-4572192Y-14288521D01*
X-4562479Y-14291900D01*
X-4527248Y-14302154D01*
X-4002030Y-14461478D01*
X-3843396Y-14501214D01*
X-3820700Y-14507821D01*
X-3757089Y-14522832D01*
X-3287618Y-14640429D01*
X-3104193Y-14676914D01*
X-3068790Y-14685270D01*
X-2990050Y-14699619D01*
X-2565286Y-14784110D01*
X-2565277Y-14784111D01*
X-2565275Y-14784112D01*
X-2522914Y-14790395D01*
X-2356262Y-14815115D01*
X-2308741Y-14823776D01*
X-2223360Y-14834829D01*
X-1836775Y-14892174D01*
X-1836750Y-14892176D01*
X-1836746Y-14892177D01*
X-1807268Y-14895080D01*
X-1601348Y-14915361D01*
X-1542571Y-14922972D01*
X-1456226Y-14929654D01*
X-1103838Y-14964362D01*
X-841141Y-14977267D01*
X-772309Y-14982596D01*
X-689024Y-14984740D01*
X-368242Y-15000500D01*
X-368228Y-15000500D01*
X-77184Y-15000500D01*
X0Y-15002488D01*
X77184Y-15000500D01*
X368228Y-15000500D01*
X368242Y-15000500D01*
X689034Y-14984740D01*
X772309Y-14982596D01*
X841145Y-14977267D01*
X1103838Y-14964362D01*
X1456218Y-14929655D01*
X1542571Y-14922972D01*
X1601339Y-14915362D01*
X1836775Y-14892174D01*
X2223369Y-14834828D01*
X2308741Y-14823776D01*
X2356245Y-14815118D01*
X2541899Y-14787578D01*
X2565274Y-14784112D01*
X2565275Y-14784111D01*
X2565286Y-14784110D01*
X2990109Y-14699607D01*
X3068790Y-14685270D01*
X3104172Y-14676918D01*
X3287618Y-14640429D01*
X3757118Y-14522825D01*
X3820700Y-14507821D01*
X3843387Y-14501215D01*
X4002030Y-14461478D01*
X4527235Y-14302158D01*
X4562479Y-14291900D01*
X4572192Y-14288520D01*
X4706800Y-14247688D01*
X5400232Y-13999575D01*
X6080654Y-13717735D01*
X6746427Y-13402848D01*
X6755651Y-13397918D01*
X6887433Y-13327478D01*
X7395947Y-13055672D01*
X8027649Y-12677044D01*
X8640013Y-12267876D01*
X9231562Y-11829153D01*
X9800871Y-11361933D01*
X9899562Y-11272484D01*
X9903924Y-11268847D01*
X9920308Y-11253681D01*
X10346569Y-10867341D01*
X10456774Y-10757135D01*
X10470898Y-10744064D01*
X10511187Y-10702722D01*
X10867341Y-10346569D01*
X10987624Y-10213856D01*
X11010106Y-10190790D01*
X11060478Y-10133475D01*
X11361933Y-9800871D01*
X11490784Y-9643865D01*
X11520117Y-9610491D01*
X11572730Y-9544013D01*
X11829153Y-9231562D01*
X11964990Y-9048406D01*
X11999578Y-9004707D01*
X12049944Y-8933860D01*
X12267876Y-8640013D01*
X12409024Y-8428768D01*
X12447219Y-8375044D01*
X12492697Y-8303543D01*
X12677044Y-8027649D01*
X12821782Y-7786166D01*
X12861852Y-7723173D01*
X12900991Y-7654015D01*
X13055672Y-7395947D01*
X13202230Y-7121755D01*
X13242378Y-7050820D01*
X13274523Y-6986504D01*
X13402848Y-6746427D01*
X13549414Y-6436539D01*
X13587787Y-6359770D01*
X13612879Y-6302353D01*
X13717735Y-6080654D01*
X13862400Y-5731399D01*
X13897164Y-5651856D01*
X13915537Y-5603117D01*
X13999575Y-5400232D01*
X14140476Y-5006438D01*
X14169688Y-4928953D01*
X14181997Y-4890392D01*
X14247688Y-4706800D01*
X14382922Y-4260995D01*
X14404636Y-4192980D01*
X14411755Y-4165942D01*
X14461478Y-4002030D01*
X14589074Y-3492636D01*
X14601387Y-3445887D01*
X14604415Y-3431392D01*
X14629144Y-3332667D01*
X14640423Y-3287645D01*
X14640426Y-3287630D01*
X14640426Y-3287629D01*
X14640429Y-3287618D01*
X14758484Y-2694114D01*
X14759416Y-2689657D01*
X14759577Y-2688621D01*
X14784110Y-2565286D01*
X14892174Y-1836775D01*
X14964362Y-1103838D01*
X15000500Y-368242D01*
X15000500Y368242D01*
X14964362Y1103838D01*
X14892174Y1836775D01*
X14784110Y2565286D01*
X14759576Y2688627D01*
X14759416Y2689657D01*
X14758489Y2694090D01*
X14640429Y3287618D01*
X14604419Y3431377D01*
X14601387Y3445887D01*
X14589066Y3492671D01*
X14461478Y4002030D01*
X14411760Y4165926D01*
X14404636Y4192980D01*
X14382903Y4261054D01*
X14247688Y4706800D01*
X14182717Y4888382D01*
X14181994Y4890404D01*
X14169688Y4928953D01*
X14140462Y5006477D01*
X14140147Y5007359D01*
X14140110Y5007461D01*
X14140099Y5007493D01*
X13999575Y5400232D01*
X13915544Y5603100D01*
X13897164Y5651856D01*
X13862392Y5731419D01*
X13717735Y6080654D01*
X13612882Y6302348D01*
X13587787Y6359770D01*
X13549397Y6436575D01*
X13402848Y6746427D01*
X13274538Y6986477D01*
X13242378Y7050820D01*
X13202224Y7121767D01*
X13055672Y7395947D01*
X13055668Y7395954D01*
X13055659Y7395971D01*
X12957455Y7559812D01*
X12901001Y7654000D01*
X12861852Y7723173D01*
X12821760Y7786205D01*
X12726765Y7944694D01*
X12677048Y8027643D01*
X12677041Y8027653D01*
X12493492Y8302355D01*
X12492701Y8303539D01*
X12447219Y8375044D01*
X12409022Y8428773D01*
X12408033Y8430253D01*
X12389927Y8457351D01*
X12267876Y8640013D01*
X12049967Y8933830D01*
X11999578Y9004707D01*
X11964986Y9048412D01*
X11829153Y9231562D01*
X11573460Y9543124D01*
X11572084Y9544832D01*
X11564923Y9553880D01*
X11564922Y9553881D01*
X11520130Y9610476D01*
X11520117Y9610491D01*
X11506520Y9625962D01*
X14853983Y9625962D01*
X14853983Y9374039D01*
X14893393Y9125215D01*
X14971243Y8885617D01*
X15085615Y8661152D01*
X15233684Y8457351D01*
X15233688Y8457346D01*
X15411828Y8279206D01*
X15411833Y8279202D01*
X15589600Y8150048D01*
X15615638Y8131130D01*
X15758667Y8058253D01*
X15840099Y8016761D01*
X15840101Y8016761D01*
X15840104Y8016759D01*
X16079698Y7938910D01*
X16328521Y7899500D01*
X16328522Y7899500D01*
X16580444Y7899500D01*
X16580445Y7899500D01*
X16829268Y7938910D01*
X17068862Y8016759D01*
X17293328Y8131130D01*
X17497139Y8279207D01*
X17675276Y8457344D01*
X17823353Y8661155D01*
X17937724Y8885621D01*
X18015573Y9125215D01*
X18054983Y9374038D01*
X18054983Y9625962D01*
X18015573Y9874785D01*
X17937724Y10114379D01*
X17937722Y10114382D01*
X17937722Y10114384D01*
X17887033Y10213865D01*
X17823353Y10338845D01*
X17804435Y10364883D01*
X17675281Y10542650D01*
X17675277Y10542655D01*
X17497137Y10720795D01*
X17497132Y10720799D01*
X17293331Y10868868D01*
X17293330Y10868869D01*
X17293328Y10868870D01*
X17223230Y10904587D01*
X17068866Y10983240D01*
X16829268Y11061090D01*
X16580445Y11100500D01*
X16328521Y11100500D01*
X16204109Y11080795D01*
X16079697Y11061090D01*
X15840099Y10983240D01*
X15615634Y10868868D01*
X15411833Y10720799D01*
X15411828Y10720795D01*
X15233688Y10542655D01*
X15233684Y10542650D01*
X15085615Y10338849D01*
X14971243Y10114384D01*
X14893393Y9874786D01*
X14853983Y9625962D01*
X11506520Y9625962D01*
X11492123Y9642343D01*
X11489444Y9645498D01*
X11489443Y9645499D01*
X11364892Y9797266D01*
X11361929Y9800877D01*
X11100834Y10088949D01*
X11060504Y10133447D01*
X11010106Y10190790D01*
X10987617Y10213865D01*
X10986095Y10215545D01*
X10867346Y10346564D01*
X10511225Y10702685D01*
X10470898Y10744064D01*
X10456760Y10757150D01*
X10346563Y10867347D01*
X9920850Y11253190D01*
X9920849Y11253191D01*
X9920810Y11253226D01*
X9920352Y11253642D01*
X9903924Y11268847D01*
X9899551Y11272495D01*
X9897680Y11274191D01*
X9897657Y11274211D01*
X9800871Y11361933D01*
X9800862Y11361940D01*
X9301026Y11772145D01*
X9231562Y11829153D01*
X8640013Y12267876D01*
X8027649Y12677044D01*
X8027641Y12677049D01*
X7395970Y13055659D01*
X7395938Y13055677D01*
X6746448Y13402838D01*
X6746434Y13402845D01*
X6080641Y13717741D01*
X6080626Y13717747D01*
X5412665Y13994425D01*
X5400232Y13999575D01*
X4706800Y14247688D01*
X4706797Y14247689D01*
X4706780Y14247695D01*
X4574582Y14287797D01*
X4574580Y14287797D01*
X4572189Y14288523D01*
X4562479Y14291900D01*
X4527316Y14302136D01*
X4526556Y14302366D01*
X4002027Y14461479D01*
X3845692Y14500640D01*
X3845692Y14500641D01*
X3843357Y14501226D01*
X3820700Y14507821D01*
X3757163Y14522816D01*
X3756303Y14523031D01*
X3756238Y14523046D01*
X3287622Y14640428D01*
X3287621Y14640429D01*
X3287618Y14640429D01*
X3265751Y14644779D01*
X3106355Y14676486D01*
X3106355Y14676485D01*
X3104191Y14676916D01*
X3068790Y14685270D01*
X2990030Y14699623D01*
X2989042Y14699820D01*
X2989040Y14699821D01*
X2565285Y14784111D01*
X2358294Y14814815D01*
X2358294Y14814816D01*
X2356223Y14815124D01*
X2308741Y14823776D01*
X2223346Y14834833D01*
X2222187Y14835004D01*
X1998300Y14868215D01*
X1836775Y14892174D01*
X1836771Y14892175D01*
X1836767Y14892175D01*
X1603261Y14915174D01*
X1603261Y14915175D01*
X1601307Y14915368D01*
X1542571Y14922972D01*
X1456247Y14929655D01*
X1454898Y14929787D01*
X1103842Y14964362D01*
X842870Y14977184D01*
X842870Y14977185D01*
X841069Y14977274D01*
X772309Y14982596D01*
X689060Y14984741D01*
X687576Y14984813D01*
X492170Y14994412D01*
X368242Y15000500D01*
X77149Y15000500D01*
X0Y15002487D01*
X-77149Y15000500D01*
X-368242Y15000500D01*
X-485661Y14994732D01*
X-687578Y14984813D01*
X-689065Y14984740D01*
X-772309Y14982596D01*
X-841076Y14977273D01*
X-842866Y14977185D01*
X-842869Y14977184D01*
X-1103838Y14964362D01*
X-1103848Y14964361D01*
X-1454900Y14929788D01*
X-1454899Y14929787D01*
X-1456253Y14929654D01*
X-1542571Y14922972D01*
X-1601349Y14915363D01*
X-1603258Y14915174D01*
X-1603259Y14915175D01*
X-1603259Y14915174D01*
X-1836763Y14892176D01*
X-1836770Y14892175D01*
X-2222175Y14835006D01*
X-2223358Y14834831D01*
X-2308741Y14823776D01*
X-2356218Y14815125D01*
X-2358282Y14814818D01*
X-2358290Y14814816D01*
X-2565286Y14784111D01*
X-2989044Y14699820D01*
X-2989045Y14699819D01*
X-2990055Y14699619D01*
X-3068790Y14685270D01*
X-3104181Y14676918D01*
X-3106357Y14676485D01*
X-3106360Y14676486D01*
X-3287628Y14640427D01*
X-3756225Y14523050D01*
X-3757127Y14522825D01*
X-3820700Y14507821D01*
X-3843365Y14501224D01*
X-3845655Y14500650D01*
X-3845679Y14500643D01*
X-4002028Y14461479D01*
X-4526538Y14302371D01*
X-4526539Y14302372D01*
X-4527386Y14302116D01*
X-4562479Y14291900D01*
X-4572169Y14288530D01*
X-4574593Y14287794D01*
X-4706781Y14247695D01*
X-5400230Y13999576D01*
X-6080627Y13717747D01*
X-6080642Y13717741D01*
X-6746435Y13402845D01*
X-6746449Y13402838D01*
X-7395939Y13055677D01*
X-7395971Y13055659D01*
X-8027642Y12677049D01*
X-8027653Y12677042D01*
X-8639996Y12267888D01*
X-8640005Y12267882D01*
X-8640013Y12267876D01*
X-8896001Y12078022D01*
X-9231568Y11829149D01*
X-9231576Y11829142D01*
X-9800864Y11361940D01*
X-9800867Y11361937D01*
X-9897660Y11274211D01*
X-9899581Y11272471D01*
X-9903924Y11268847D01*
X-9920139Y11253840D01*
X-9920719Y11253313D01*
X-9920812Y11253226D01*
X-10346586Y10867326D01*
X-10455076Y10758837D01*
X-10456801Y10757113D01*
X-10470898Y10744064D01*
X-10511149Y10702764D01*
X-10511809Y10702103D01*
X-10511810Y10702102D01*
X-10867344Y10346567D01*
X-10867349Y10346562D01*
X-10986110Y10215532D01*
X-10986109Y10215531D01*
X-10987637Y10213846D01*
X-11010106Y10190790D01*
X-11060424Y10133538D01*
X-11061163Y10132722D01*
X-11361921Y9800886D01*
X-11489445Y9645499D01*
X-11489446Y9645500D01*
X-11490822Y9643824D01*
X-11520117Y9610491D01*
X-11572718Y9544033D01*
X-11573415Y9543182D01*
X-11573457Y9543129D01*
X-11711843Y9374505D01*
X-11829141Y9231576D01*
X-11829162Y9231551D01*
X-11829169Y9231542D01*
X-11963833Y9049970D01*
X-11965016Y9048377D01*
X-11999578Y9004707D01*
X-12049880Y8933952D01*
X-12050678Y8932875D01*
X-12050693Y8932854D01*
X-12267876Y8640014D01*
X-12267887Y8639999D01*
X-12408030Y8430259D01*
X-12408031Y8430260D01*
X-12409067Y8428711D01*
X-12447219Y8375044D01*
X-12492682Y8303570D01*
X-12493493Y8302355D01*
X-12493499Y8302346D01*
X-12677030Y8027673D01*
X-12677049Y8027642D01*
X-12820912Y7787622D01*
X-12821792Y7786156D01*
X-12861852Y7723173D01*
X-12900992Y7654018D01*
X-12901802Y7652665D01*
X-13055669Y7395954D01*
X-13201507Y7123111D01*
X-13201508Y7123112D01*
X-13202265Y7121698D01*
X-13242378Y7050820D01*
X-13274527Y6986503D01*
X-13275344Y6984972D01*
X-13402838Y6746449D01*
X-13402854Y6746417D01*
X-13548828Y6437787D01*
X-13548827Y6437786D01*
X-13549442Y6436488D01*
X-13587787Y6359770D01*
X-13612863Y6302393D01*
X-13613671Y6300683D01*
X-13717733Y6080658D01*
X-13717747Y6080627D01*
X-13861926Y5732550D01*
X-13862424Y5731350D01*
X-13897164Y5651856D01*
X-13915528Y5603146D01*
X-13916309Y5601258D01*
X-13916310Y5601255D01*
X-13999565Y5400260D01*
X-13999588Y5400201D01*
X-14140100Y5007493D01*
X-14140100Y5007492D01*
X-14140475Y5006445D01*
X-14169688Y4928953D01*
X-14181973Y4890474D01*
X-14182715Y4888397D01*
X-14182719Y4888382D01*
X-14247691Y4706792D01*
X-14247695Y4706782D01*
X-14382636Y4261942D01*
X-14382924Y4260994D01*
X-14404636Y4192980D01*
X-14411742Y4165999D01*
X-14412419Y4163766D01*
X-14412424Y4163746D01*
X-14461477Y4002035D01*
X-14461480Y4002024D01*
X-14588879Y3493421D01*
X-14588880Y3493422D01*
X-14589106Y3492522D01*
X-14601387Y3445887D01*
X-14604413Y3431408D01*
X-14605010Y3429023D01*
X-14605014Y3429005D01*
X-14640428Y3287624D01*
X-14758358Y2694755D01*
X-14758362Y2694733D01*
X-14758499Y2694046D01*
X-14759416Y2689657D01*
X-14759570Y2688669D01*
X-14760073Y2686143D01*
X-14760075Y2686128D01*
X-14784114Y2565268D01*
X-14892175Y1836769D01*
X-14892176Y1836763D01*
X-14892241Y1836099D01*
X-14964362Y1103838D01*
X-15000500Y368242D01*
X-19274500Y368242D01*
X-19274500Y9625962D01*
X-18054983Y9625962D01*
X-18054983Y9374039D01*
X-18015573Y9125215D01*
X-17937723Y8885617D01*
X-17823351Y8661152D01*
X-17675282Y8457351D01*
X-17675278Y8457346D01*
X-17497138Y8279206D01*
X-17497133Y8279202D01*
X-17319366Y8150048D01*
X-17293328Y8131130D01*
X-17150299Y8058253D01*
X-17068867Y8016761D01*
X-17068865Y8016761D01*
X-17068862Y8016759D01*
X-16829268Y7938910D01*
X-16580445Y7899500D01*
X-16580444Y7899500D01*
X-16328522Y7899500D01*
X-16328521Y7899500D01*
X-16079698Y7938910D01*
X-15840104Y8016759D01*
X-15615638Y8131130D01*
X-15411827Y8279207D01*
X-15233690Y8457344D01*
X-15085613Y8661155D01*
X-14971242Y8885621D01*
X-14893393Y9125215D01*
X-14853983Y9374038D01*
X-14853983Y9625962D01*
X-14893393Y9874785D01*
X-14971242Y10114379D01*
X-14971244Y10114382D01*
X-14971244Y10114384D01*
X-15021933Y10213865D01*
X-15085613Y10338845D01*
X-15104531Y10364883D01*
X-15233685Y10542650D01*
X-15233689Y10542655D01*
X-15411829Y10720795D01*
X-15411834Y10720799D01*
X-15615635Y10868868D01*
X-15615636Y10868869D01*
X-15615638Y10868870D01*
X-15685736Y10904587D01*
X-15840100Y10983240D01*
X-16079698Y11061090D01*
X-16328521Y11100500D01*
X-16580445Y11100500D01*
X-16704857Y11080795D01*
X-16829269Y11061090D01*
X-17068867Y10983240D01*
X-17293332Y10868868D01*
X-17497133Y10720799D01*
X-17497138Y10720795D01*
X-17675278Y10542655D01*
X-17675282Y10542650D01*
X-17823351Y10338849D01*
X-17937723Y10114384D01*
X-18015573Y9874786D01*
X-18054983Y9625962D01*
X-19274500Y9625962D01*
X-19274500Y13056016D01*
X-19274500Y13056018D01*
X-19303497Y13164237D01*
X-19359515Y13261263D01*
X-19438737Y13340485D01*
X-21638181Y15539929D01*
X-21671666Y15601252D01*
X-21674500Y15627610D01*
X-21674500Y20724902D01*
X-21654815Y20791941D01*
X-21638181Y20812583D01*
X-21631013Y20819751D01*
X-21619480Y20831284D01*
X-21540423Y20968216D01*
X-21499500Y21120943D01*
X-21499500Y21279057D01*
X-21540423Y21431784D01*
X-21540427Y21431791D01*
X-21619476Y21568710D01*
X-21619482Y21568718D01*
X-21731283Y21680519D01*
X-21731291Y21680525D01*
X-21868210Y21759574D01*
X-21868214Y21759576D01*
X-21868216Y21759577D01*
X-22020943Y21800500D01*
X-22179057Y21800500D01*
X-22331784Y21759577D01*
X-22331791Y21759574D01*
X-22468710Y21680525D01*
X-22468718Y21680519D01*
X-22580519Y21568718D01*
X-22580523Y21568713D01*
X-22587186Y21557171D01*
X-22637753Y21508955D01*
X-22706360Y21495733D01*
X-22771225Y21521701D01*
X-22782254Y21531490D01*
X-22897919Y21647155D01*
X-22897927Y21647161D01*
X-23034846Y21726210D01*
X-23034850Y21726212D01*
X-23034852Y21726213D01*
X-23187579Y21767136D01*
X-23345693Y21767136D01*
X-23498420Y21726213D01*
X-23498427Y21726210D01*
X-23635346Y21647161D01*
X-23635350Y21647158D01*
X-23730195Y21552313D01*
X-23791519Y21518829D01*
X-23861210Y21523813D01*
X-23916251Y21564508D01*
X-23919480Y21568716D01*
X-24031283Y21680519D01*
X-24031291Y21680525D01*
X-24168210Y21759574D01*
X-24168214Y21759576D01*
X-24168216Y21759577D01*
X-24320943Y21800500D01*
X-24479057Y21800500D01*
X-24631784Y21759577D01*
X-24631791Y21759574D01*
X-24768710Y21680525D01*
X-24768718Y21680519D01*
X-24880519Y21568718D01*
X-24880525Y21568710D01*
X-24959574Y21431791D01*
X-24959577Y21431784D01*
X-25000500Y21279057D01*
X-25000500Y21252610D01*
X-25020185Y21185571D01*
X-25036819Y21164929D01*
X-25740483Y20461266D01*
X-25740487Y20461260D01*
X-25796502Y20364240D01*
X-25796503Y20364237D01*
X-25825500Y20256018D01*
X-61757686Y20256018D01*
X-61493384Y21056069D01*
X-61492842Y21057670D01*
X-61403349Y21314521D01*
X-61403275Y21314731D01*
X-60956037Y22564678D01*
X-60955391Y22566439D01*
X-60862858Y22812202D01*
X-60381612Y24059785D01*
X-60380901Y24061584D01*
X-60373822Y24079057D01*
X-30900500Y24079057D01*
X-30900500Y23920944D01*
X-30859577Y23768217D01*
X-30859574Y23768210D01*
X-30780525Y23631291D01*
X-30780521Y23631286D01*
X-30780520Y23631284D01*
X-30668716Y23519480D01*
X-30668714Y23519479D01*
X-30668710Y23519476D01*
X-30531791Y23440427D01*
X-30531784Y23440423D01*
X-30379057Y23399500D01*
X-30379055Y23399500D01*
X-30220945Y23399500D01*
X-30220943Y23399500D01*
X-30068216Y23440423D01*
X-29931284Y23519480D01*
X-29837583Y23613181D01*
X-29776260Y23646666D01*
X-29749902Y23649500D01*
X-29150098Y23649500D01*
X-29083059Y23629815D01*
X-29062417Y23613181D01*
X-28968716Y23519480D01*
X-28968714Y23519479D01*
X-28968710Y23519476D01*
X-28831791Y23440427D01*
X-28831784Y23440423D01*
X-28679057Y23399500D01*
X-28679055Y23399500D01*
X-28520945Y23399500D01*
X-28520943Y23399500D01*
X-28368216Y23440423D01*
X-28231284Y23519480D01*
X-28119480Y23631284D01*
X-28040423Y23768216D01*
X-27999500Y23920943D01*
X-27999500Y24079057D01*
X-28040423Y24231784D01*
X-28040427Y24231791D01*
X-28119476Y24368710D01*
X-28119482Y24368718D01*
X-28231283Y24480519D01*
X-28231291Y24480525D01*
X-28368210Y24559574D01*
X-28368214Y24559576D01*
X-28368216Y24559577D01*
X-28520943Y24600500D01*
X-28679057Y24600500D01*
X-28831784Y24559577D01*
X-28831791Y24559574D01*
X-28968710Y24480525D01*
X-28968718Y24480519D01*
X-29062417Y24386819D01*
X-29123740Y24353334D01*
X-29150098Y24350500D01*
X-29749902Y24350500D01*
X-29816941Y24370185D01*
X-29837583Y24386819D01*
X-29931283Y24480519D01*
X-29931291Y24480525D01*
X-30068210Y24559574D01*
X-30068214Y24559576D01*
X-30068216Y24559577D01*
X-30220943Y24600500D01*
X-30379057Y24600500D01*
X-30531784Y24559577D01*
X-30531791Y24559574D01*
X-30668710Y24480525D01*
X-30668718Y24480519D01*
X-30780519Y24368718D01*
X-30780525Y24368710D01*
X-30859574Y24231791D01*
X-30859577Y24231784D01*
X-30900500Y24079057D01*
X-60373822Y24079057D01*
X-60286291Y24295103D01*
X-60286042Y24295711D01*
X-59770404Y25540572D01*
X-59769757Y25542096D01*
X-59673880Y25762828D01*
X-59673817Y25762973D01*
X-59122948Y27005712D01*
X-59122187Y27007390D01*
X-59026317Y27213913D01*
X-58439508Y28454618D01*
X-58438692Y28456303D01*
X-58344042Y28647611D01*
X-57824856Y29679057D01*
X-26800500Y29679057D01*
X-26800500Y29520944D01*
X-26759577Y29368217D01*
X-26759574Y29368210D01*
X-26680525Y29231291D01*
X-26680519Y29231283D01*
X-26586819Y29137583D01*
X-26553334Y29076260D01*
X-26550500Y29049902D01*
X-26550500Y28350098D01*
X-26570185Y28283059D01*
X-26586819Y28262417D01*
X-26680519Y28168718D01*
X-26680525Y28168710D01*
X-26759574Y28031791D01*
X-26759577Y28031784D01*
X-26800500Y27879057D01*
X-26800500Y27720944D01*
X-26759577Y27568217D01*
X-26759574Y27568210D01*
X-26680525Y27431291D01*
X-26680521Y27431286D01*
X-26680520Y27431284D01*
X-26568716Y27319480D01*
X-26568714Y27319479D01*
X-26568710Y27319476D01*
X-26431791Y27240427D01*
X-26431784Y27240423D01*
X-26279057Y27199500D01*
X-26279055Y27199500D01*
X-26120945Y27199500D01*
X-26120943Y27199500D01*
X-25968216Y27240423D01*
X-25831284Y27319480D01*
X-25719480Y27431284D01*
X-25640423Y27568216D01*
X-25599500Y27720943D01*
X-25599500Y27879057D01*
X-25640423Y28031784D01*
X-25640427Y28031791D01*
X-25719476Y28168710D01*
X-25719482Y28168718D01*
X-25813181Y28262417D01*
X-25846666Y28323740D01*
X-25849500Y28350098D01*
X-25849500Y29049902D01*
X-25829815Y29116941D01*
X-25813181Y29137583D01*
X-25719480Y29231284D01*
X-25640423Y29368216D01*
X-25599500Y29520943D01*
X-25599500Y29679057D01*
X-25640423Y29831784D01*
X-25672909Y29888052D01*
X-25719476Y29968710D01*
X-25719482Y29968718D01*
X-25831283Y30080519D01*
X-25831291Y30080525D01*
X-25968210Y30159574D01*
X-25968214Y30159576D01*
X-25968216Y30159577D01*
X-26120943Y30200500D01*
X-26279057Y30200500D01*
X-26431784Y30159577D01*
X-26431791Y30159574D01*
X-26568710Y30080525D01*
X-26568718Y30080519D01*
X-26680519Y29968718D01*
X-26680525Y29968710D01*
X-26759574Y29831791D01*
X-26759577Y29831784D01*
X-26800500Y29679057D01*
X-57824856Y29679057D01*
X-57720632Y29886115D01*
X-57719634Y29888052D01*
X-57627653Y30062901D01*
X-57627643Y30062921D01*
X-56966501Y31299830D01*
X-56965598Y31301483D01*
X-56877839Y31458704D01*
X-56177775Y32694490D01*
X-56176839Y32696108D01*
X-56095152Y32834274D01*
X-55354863Y34069370D01*
X-55353897Y34070948D01*
X-55280443Y34188427D01*
X-54653134Y35179057D01*
X-29400500Y35179057D01*
X-29400500Y35020944D01*
X-29359577Y34868217D01*
X-29359574Y34868210D01*
X-29280525Y34731291D01*
X-29280521Y34731286D01*
X-29280520Y34731284D01*
X-29168716Y34619480D01*
X-29168714Y34619479D01*
X-29168710Y34619476D01*
X-29031791Y34540427D01*
X-29031784Y34540423D01*
X-28879057Y34499500D01*
X-28879055Y34499500D01*
X-28720945Y34499500D01*
X-28720943Y34499500D01*
X-28568216Y34540423D01*
X-28431284Y34619480D01*
X-28337583Y34713181D01*
X-28276260Y34746666D01*
X-28249902Y34749500D01*
X-21374500Y34749500D01*
X-21307461Y34729815D01*
X-21261706Y34677011D01*
X-21250500Y34625500D01*
X-21250500Y25450098D01*
X-21270185Y25383059D01*
X-21286819Y25362417D01*
X-21398520Y25250717D01*
X-21398526Y25250709D01*
X-21477575Y25113790D01*
X-21477578Y25113783D01*
X-21518501Y24961056D01*
X-21518501Y24802943D01*
X-21477578Y24650216D01*
X-21477575Y24650209D01*
X-21398526Y24513290D01*
X-21398522Y24513285D01*
X-21398521Y24513283D01*
X-21286717Y24401479D01*
X-21286715Y24401478D01*
X-21286711Y24401475D01*
X-21229959Y24368710D01*
X-21149785Y24322422D01*
X-20997058Y24281499D01*
X-20997056Y24281499D01*
X-20838946Y24281499D01*
X-20838944Y24281499D01*
X-20686217Y24322422D01*
X-20549285Y24401479D01*
X-20437481Y24513283D01*
X-20358424Y24650215D01*
X-20317501Y24802942D01*
X-20317501Y24961056D01*
X-20358424Y25113783D01*
X-20358428Y25113790D01*
X-20437477Y25250709D01*
X-20437480Y25250713D01*
X-20437481Y25250715D01*
X-20513182Y25326416D01*
X-20546666Y25387740D01*
X-20549500Y25414097D01*
X-20549500Y34625500D01*
X-20529815Y34692539D01*
X-20477011Y34738294D01*
X-20425500Y34749500D01*
X-16353858Y34749500D01*
X-16353856Y34749500D01*
X-16264712Y34773386D01*
X-16254088Y34779520D01*
X-16184788Y34819530D01*
X-15741138Y35263182D01*
X-15679815Y35296666D01*
X-15653457Y35299500D01*
X-15520945Y35299500D01*
X-15520943Y35299500D01*
X-15368216Y35340423D01*
X-15231284Y35419480D01*
X-15119480Y35531284D01*
X-15040423Y35668216D01*
X-14999500Y35820943D01*
X-14999500Y35979057D01*
X-15040423Y36131784D01*
X-15040427Y36131791D01*
X-15119476Y36268710D01*
X-15119482Y36268718D01*
X-15231283Y36380519D01*
X-15231291Y36380525D01*
X-15368210Y36459574D01*
X-15368214Y36459576D01*
X-15368216Y36459577D01*
X-15520943Y36500500D01*
X-15679057Y36500500D01*
X-15831784Y36459577D01*
X-15831791Y36459574D01*
X-15968710Y36380525D01*
X-15968718Y36380519D01*
X-16080519Y36268718D01*
X-16080525Y36268710D01*
X-16159574Y36131791D01*
X-16159577Y36131784D01*
X-16200500Y35979057D01*
X-16200500Y35846545D01*
X-16220185Y35779506D01*
X-16236819Y35758864D01*
X-16508863Y35486819D01*
X-16570186Y35453334D01*
X-16596544Y35450500D01*
X-28249902Y35450500D01*
X-28316941Y35470185D01*
X-28337583Y35486819D01*
X-28431283Y35580519D01*
X-28431291Y35580525D01*
X-28568210Y35659574D01*
X-28568214Y35659576D01*
X-28568216Y35659577D01*
X-28720943Y35700500D01*
X-28879057Y35700500D01*
X-29031784Y35659577D01*
X-29031791Y35659574D01*
X-29168710Y35580525D01*
X-29168718Y35580519D01*
X-29280519Y35468718D01*
X-29280525Y35468710D01*
X-29359574Y35331791D01*
X-29359577Y35331784D01*
X-29400500Y35179057D01*
X-54653134Y35179057D01*
X-54498380Y35423441D01*
X-54497133Y35425366D01*
X-54480536Y35450500D01*
X-54434636Y35520011D01*
X-53608582Y36756287D01*
X-53607401Y36758018D01*
X-53558409Y36828348D01*
X-52686211Y38066775D01*
X-52685011Y38068443D01*
X-52652864Y38112231D01*
X-51731823Y39354111D01*
X-51730456Y39355916D01*
X-51719329Y39370310D01*
X-50748446Y40614380D01*
X-50746556Y40616740D01*
X-49736452Y41847556D01*
X-49734493Y41849884D01*
X-49678174Y41915173D01*
X-48694430Y43055607D01*
X-48692530Y43057756D01*
X-47623164Y44237620D01*
X-47621155Y44239783D01*
X-47289730Y44587890D01*
X-4165000Y44587890D01*
X-4165000Y44332111D01*
X-4124987Y44079477D01*
X-4045949Y43836219D01*
X-4045948Y43836216D01*
X-3929825Y43608314D01*
X-3852150Y43501405D01*
X-3852150Y43501404D01*
X-3294116Y44059439D01*
X-3293260Y44057374D01*
X-3200238Y43918156D01*
X-3081844Y43799762D01*
X-2942626Y43706740D01*
X-2940563Y43705886D01*
X-3498598Y43147852D01*
X-3391687Y43070176D01*
X-3163785Y42954053D01*
X-3163782Y42954052D01*
X-2920524Y42875014D01*
X-2667889Y42835000D01*
X-2412111Y42835000D01*
X-2159477Y42875014D01*
X-1916219Y42954052D01*
X-1916216Y42954053D01*
X-1688315Y43070175D01*
X-1581405Y43147852D01*
X-1581404Y43147852D01*
X-2139438Y43705886D01*
X-2137374Y43706740D01*
X-1998156Y43799762D01*
X-1879762Y43918156D01*
X-1786740Y44057374D01*
X-1785886Y44059438D01*
X-1227852Y43501404D01*
X-1227852Y43501405D01*
X-1150175Y43608315D01*
X-1034053Y43836216D01*
X-1034052Y43836219D01*
X-955014Y44079477D01*
X-915000Y44332111D01*
X-915000Y44587890D01*
X915000Y44587890D01*
X915000Y44332111D01*
X955013Y44079477D01*
X1034051Y43836219D01*
X1034052Y43836216D01*
X1150175Y43608314D01*
X1227850Y43501405D01*
X1227850Y43501404D01*
X1785884Y44059439D01*
X1786740Y44057374D01*
X1879762Y43918156D01*
X1998156Y43799762D01*
X2137374Y43706740D01*
X2139437Y43705886D01*
X1581402Y43147852D01*
X1688313Y43070176D01*
X1916215Y42954053D01*
X1916218Y42954052D01*
X2159476Y42875014D01*
X2412111Y42835000D01*
X2667889Y42835000D01*
X2920523Y42875014D01*
X3163781Y42954052D01*
X3163784Y42954053D01*
X3391685Y43070175D01*
X3498595Y43147852D01*
X3498596Y43147852D01*
X2940562Y43705886D01*
X2942626Y43706740D01*
X3081844Y43799762D01*
X3200238Y43918156D01*
X3293260Y44057374D01*
X3294114Y44059438D01*
X3852148Y43501404D01*
X3852148Y43501405D01*
X3929825Y43608315D01*
X4045947Y43836216D01*
X4045948Y43836219D01*
X4124986Y44079477D01*
X4165000Y44332111D01*
X4165000Y44587890D01*
X4124986Y44840524D01*
X4045948Y45083782D01*
X4045947Y45083785D01*
X3929824Y45311687D01*
X3852148Y45418597D01*
X3852148Y45418598D01*
X3294114Y44860564D01*
X3293260Y44862626D01*
X3200238Y45001844D01*
X3081844Y45120238D01*
X2942626Y45213260D01*
X2940560Y45214116D01*
X3498596Y45772150D01*
X3391686Y45849825D01*
X3163784Y45965948D01*
X3163781Y45965949D01*
X2920523Y46044987D01*
X2667889Y46085000D01*
X2412111Y46085000D01*
X2159476Y46044987D01*
X1916218Y45965949D01*
X1916215Y45965948D01*
X1688310Y45849823D01*
X1581403Y45772151D01*
X1581402Y45772150D01*
X2139437Y45214115D01*
X2137374Y45213260D01*
X1998156Y45120238D01*
X1879762Y45001844D01*
X1786740Y44862626D01*
X1785885Y44860563D01*
X1227850Y45418598D01*
X1227849Y45418597D01*
X1150177Y45311690D01*
X1034052Y45083785D01*
X1034051Y45083782D01*
X955013Y44840524D01*
X915000Y44587890D01*
X-915000Y44587890D01*
X-955014Y44840524D01*
X-1034052Y45083782D01*
X-1034053Y45083785D01*
X-1150176Y45311687D01*
X-1227852Y45418597D01*
X-1227852Y45418598D01*
X-1785886Y44860564D01*
X-1786740Y44862626D01*
X-1879762Y45001844D01*
X-1998156Y45120238D01*
X-2137374Y45213260D01*
X-2139440Y45214116D01*
X-1581404Y45772150D01*
X-1688314Y45849825D01*
X-1916216Y45965948D01*
X-1916219Y45965949D01*
X-2159477Y46044987D01*
X-2412111Y46085000D01*
X-2667889Y46085000D01*
X-2920524Y46044987D01*
X-3163782Y45965949D01*
X-3163785Y45965948D01*
X-3391690Y45849823D01*
X-3498597Y45772151D01*
X-3498598Y45772150D01*
X-2940563Y45214115D01*
X-2942626Y45213260D01*
X-3081844Y45120238D01*
X-3200238Y45001844D01*
X-3293260Y44862626D01*
X-3294115Y44860563D01*
X-3852150Y45418598D01*
X-3852151Y45418597D01*
X-3929823Y45311690D01*
X-4045948Y45083785D01*
X-4045949Y45083782D01*
X-4124987Y44840524D01*
X-4165000Y44587890D01*
X-47289730Y44587890D01*
X-46523140Y45393064D01*
X-46521095Y45395159D01*
X-45395159Y46521095D01*
X-45393064Y46523140D01*
X-44239783Y47621155D01*
X-44237620Y47623164D01*
X-44065619Y47779057D01*
X-21700500Y47779057D01*
X-21700500Y47620944D01*
X-21659577Y47468217D01*
X-21659574Y47468210D01*
X-21580525Y47331291D01*
X-21580519Y47331283D01*
X-21486819Y47237583D01*
X-21453334Y47176260D01*
X-21450500Y47149902D01*
X-21450500Y46650098D01*
X-21470185Y46583059D01*
X-21486819Y46562417D01*
X-21580519Y46468718D01*
X-21580525Y46468710D01*
X-21659574Y46331791D01*
X-21659577Y46331784D01*
X-21700500Y46179057D01*
X-21700500Y46020944D01*
X-21659577Y45868217D01*
X-21659574Y45868210D01*
X-21580525Y45731291D01*
X-21580521Y45731286D01*
X-21580520Y45731284D01*
X-21468716Y45619480D01*
X-21468714Y45619479D01*
X-21468710Y45619476D01*
X-21331791Y45540427D01*
X-21331784Y45540423D01*
X-21179057Y45499500D01*
X-21179055Y45499500D01*
X-21020945Y45499500D01*
X-21020943Y45499500D01*
X-20868216Y45540423D01*
X-20731284Y45619480D01*
X-20619480Y45731284D01*
X-20577107Y45804676D01*
X-20540426Y45868210D01*
X-20540426Y45868212D01*
X-20540423Y45868216D01*
X-20499500Y46020943D01*
X-20499500Y46179057D01*
X-20540423Y46331784D01*
X-20575094Y46391837D01*
X-20619476Y46468710D01*
X-20619482Y46468718D01*
X-20713181Y46562417D01*
X-20746666Y46623740D01*
X-20749500Y46650098D01*
X-20749500Y47096449D01*
X-1225500Y47096449D01*
X-1225500Y46903552D01*
X-1195325Y46713031D01*
X-1195324Y46713028D01*
X-1135715Y46529571D01*
X-1048141Y46357698D01*
X-934759Y46201641D01*
X-798359Y46065241D01*
X-642302Y45951859D01*
X-470429Y45864285D01*
X-286972Y45804676D01*
X-96449Y45774500D01*
X-96448Y45774500D01*
X96448Y45774500D01*
X96449Y45774500D01*
X286972Y45804676D01*
X470429Y45864285D01*
X642302Y45951859D01*
X798359Y46065241D01*
X934759Y46201641D01*
X1048141Y46357698D01*
X1135715Y46529571D01*
X1195324Y46713028D01*
X1225500Y46903551D01*
X1225500Y47096449D01*
X1195324Y47286972D01*
X1135715Y47470429D01*
X1048141Y47642302D01*
X934759Y47798359D01*
X798359Y47934759D01*
X642302Y48048141D01*
X470429Y48135715D01*
X286972Y48195324D01*
X286969Y48195325D01*
X140614Y48218505D01*
X96449Y48225500D01*
X-96449Y48225500D01*
X-132303Y48219822D01*
X-286970Y48195325D01*
X-470432Y48135714D01*
X-642303Y48048141D01*
X-731339Y47983453D01*
X-798359Y47934759D01*
X-798361Y47934757D01*
X-798362Y47934757D01*
X-934757Y47798362D01*
X-934757Y47798361D01*
X-934759Y47798359D01*
X-948784Y47779055D01*
X-1048141Y47642303D01*
X-1135714Y47470432D01*
X-1195325Y47286970D01*
X-1225500Y47096449D01*
X-20749500Y47096449D01*
X-20749500Y47149902D01*
X-20729815Y47216941D01*
X-20713181Y47237583D01*
X-20619480Y47331284D01*
X-20540423Y47468216D01*
X-20499500Y47620943D01*
X-20499500Y47779057D01*
X-20540423Y47931784D01*
X-20607601Y48048141D01*
X-20619476Y48068710D01*
X-20619482Y48068718D01*
X-20731284Y48180520D01*
X-20731289Y48180524D01*
X-20868210Y48259574D01*
X-20868214Y48259576D01*
X-20868216Y48259577D01*
X-21020943Y48300500D01*
X-21179057Y48300500D01*
X-21331784Y48259577D01*
X-21331791Y48259574D01*
X-21468710Y48180525D01*
X-21468718Y48180519D01*
X-21580519Y48068718D01*
X-21580525Y48068710D01*
X-21659574Y47931791D01*
X-21659577Y47931784D01*
X-21700500Y47779057D01*
X-44065619Y47779057D01*
X-43057756Y48692530D01*
X-43055607Y48694430D01*
X-41927096Y49667890D01*
X-4165000Y49667890D01*
X-4165000Y49412111D01*
X-4124987Y49159477D01*
X-4045949Y48916219D01*
X-4045948Y48916216D01*
X-3929825Y48688314D01*
X-3852150Y48581405D01*
X-3852150Y48581404D01*
X-3294116Y49139439D01*
X-3293260Y49137374D01*
X-3200238Y48998156D01*
X-3081844Y48879762D01*
X-2942626Y48786740D01*
X-2940563Y48785886D01*
X-3498598Y48227852D01*
X-3391687Y48150176D01*
X-3163785Y48034053D01*
X-3163782Y48034052D01*
X-2920524Y47955014D01*
X-2667889Y47915000D01*
X-2412111Y47915000D01*
X-2159477Y47955014D01*
X-1916219Y48034052D01*
X-1916216Y48034053D01*
X-1688315Y48150175D01*
X-1581405Y48227852D01*
X-1581404Y48227852D01*
X-2139438Y48785886D01*
X-2137374Y48786740D01*
X-1998156Y48879762D01*
X-1879762Y48998156D01*
X-1786740Y49137374D01*
X-1785886Y49139438D01*
X-1227852Y48581404D01*
X-1227852Y48581405D01*
X-1150175Y48688315D01*
X-1034053Y48916216D01*
X-1034052Y48916219D01*
X-955014Y49159477D01*
X-915000Y49412111D01*
X-915000Y49667890D01*
X915000Y49667890D01*
X915000Y49412111D01*
X955013Y49159477D01*
X1034051Y48916219D01*
X1034052Y48916216D01*
X1150175Y48688314D01*
X1227850Y48581405D01*
X1227850Y48581404D01*
X1785884Y49139439D01*
X1786740Y49137374D01*
X1879762Y48998156D01*
X1998156Y48879762D01*
X2137374Y48786740D01*
X2139437Y48785886D01*
X1581402Y48227852D01*
X1688313Y48150176D01*
X1916215Y48034053D01*
X1916218Y48034052D01*
X2159476Y47955014D01*
X2412111Y47915000D01*
X2667889Y47915000D01*
X2920523Y47955014D01*
X3163781Y48034052D01*
X3163784Y48034053D01*
X3391685Y48150175D01*
X3498595Y48227852D01*
X3498596Y48227852D01*
X2940562Y48785886D01*
X2942626Y48786740D01*
X3081844Y48879762D01*
X3200238Y48998156D01*
X3293260Y49137374D01*
X3294114Y49139438D01*
X3852148Y48581404D01*
X3852148Y48581405D01*
X3929825Y48688315D01*
X4045947Y48916216D01*
X4045948Y48916219D01*
X4124986Y49159477D01*
X4165000Y49412111D01*
X4165000Y49667890D01*
X4124986Y49920524D01*
X4045948Y50163782D01*
X4045947Y50163785D01*
X3929824Y50391687D01*
X3852148Y50498597D01*
X3852148Y50498598D01*
X3294114Y49940564D01*
X3293260Y49942626D01*
X3200238Y50081844D01*
X3081844Y50200238D01*
X2942626Y50293260D01*
X2940560Y50294116D01*
X3498596Y50852150D01*
X3391686Y50929825D01*
X3163784Y51045948D01*
X3163781Y51045949D01*
X2920523Y51124987D01*
X2667889Y51165000D01*
X2412111Y51165000D01*
X2159476Y51124987D01*
X1916218Y51045949D01*
X1916215Y51045948D01*
X1688310Y50929823D01*
X1581403Y50852151D01*
X1581402Y50852150D01*
X2139437Y50294115D01*
X2137374Y50293260D01*
X1998156Y50200238D01*
X1879762Y50081844D01*
X1786740Y49942626D01*
X1785885Y49940563D01*
X1227850Y50498598D01*
X1227849Y50498597D01*
X1150177Y50391690D01*
X1034052Y50163785D01*
X1034051Y50163782D01*
X955013Y49920524D01*
X915000Y49667890D01*
X-915000Y49667890D01*
X-955014Y49920524D01*
X-1034052Y50163782D01*
X-1034053Y50163785D01*
X-1150176Y50391687D01*
X-1227852Y50498597D01*
X-1227852Y50498598D01*
X-1785886Y49940564D01*
X-1786740Y49942626D01*
X-1879762Y50081844D01*
X-1998156Y50200238D01*
X-2137374Y50293260D01*
X-2139440Y50294116D01*
X-1581404Y50852150D01*
X-1688314Y50929825D01*
X-1916216Y51045948D01*
X-1916219Y51045949D01*
X-2159477Y51124987D01*
X-2412111Y51165000D01*
X-2667889Y51165000D01*
X-2920524Y51124987D01*
X-3163782Y51045949D01*
X-3163785Y51045948D01*
X-3391690Y50929823D01*
X-3498597Y50852151D01*
X-3498598Y50852150D01*
X-2940563Y50294115D01*
X-2942626Y50293260D01*
X-3081844Y50200238D01*
X-3200238Y50081844D01*
X-3293260Y49942626D01*
X-3294115Y49940563D01*
X-3852150Y50498598D01*
X-3852151Y50498597D01*
X-3929823Y50391690D01*
X-4045948Y50163785D01*
X-4045949Y50163782D01*
X-4124987Y49920524D01*
X-4165000Y49667890D01*
X-41927096Y49667890D01*
X-41849876Y49734500D01*
X-41847555Y49736453D01*
X-41808364Y49768616D01*
X-40616724Y50746569D01*
X-40614364Y50748458D01*
X-40609656Y50752132D01*
X-39359061Y51728107D01*
X-39356759Y51729859D01*
X-38077731Y52678451D01*
X-38075378Y52680152D01*
X-36773461Y53597065D01*
X-36771071Y53598704D01*
X-35447057Y54483383D01*
X-35444650Y54484949D01*
X-34099289Y55336889D01*
X-34096797Y55338424D01*
X-32731032Y56157032D01*
X-32728448Y56158539D01*
X-31342934Y56943422D01*
X-31340438Y56944796D01*
X-29936148Y57695405D01*
X-29933447Y57696806D01*
X-29924392Y57701364D01*
X-28511162Y58412724D01*
X-28508503Y58414022D01*
X-27069033Y59094840D01*
X-27066354Y59096067D01*
X-25610676Y59741325D01*
X-25607881Y59742523D01*
X-25444714Y59810109D01*
X-24136784Y60351872D01*
X-24134058Y60352962D01*
X-22648359Y60926059D01*
X-22645677Y60927056D01*
X-21146379Y61463513D01*
X-21143640Y61464455D01*
X-19631660Y61963946D01*
X-19628849Y61964837D01*
X-18105045Y62427079D01*
X-18102180Y62427909D01*
X-16567548Y62852598D01*
X-16564766Y62853332D01*
X-15020058Y63240261D01*
X-15017245Y63240929D01*
X-13463554Y63589822D01*
X-13460677Y63590431D01*
X-11898962Y63901075D01*
X-11896029Y63901621D01*
X-10327176Y64173843D01*
X-10324269Y64174312D01*
X-8752724Y64407428D01*
X-8747635Y64408159D01*
X-8745327Y64408467D01*
X-7199330Y64599147D01*
X-7157107Y64604151D01*
X-7154829Y64604398D01*
X-5637385Y64753854D01*
X-5562072Y64760887D01*
X-5559926Y64761066D01*
X-4068410Y64871086D01*
X-4068181Y64871102D01*
X-3963968Y64878231D01*
X-3961804Y64878358D01*
X-2493823Y64950475D01*
X-2493347Y64950497D01*
X-2363401Y64956148D01*
X-2361277Y64956221D01*
X-914675Y64991734D01*
X-761527Y64994585D01*
X-759219Y64994606D01*
X666609Y64994606D01*
X667378Y64994604D01*
G37*
%TD.AperFunction*%
%TD*%
M02*
