M48
; DRILL file {KiCad 9.0.1+1} date 2025-06-28T01:58:47+0000
; FORMAT={3:3/ absolute / metric / suppress leading zeros}
; #@! TF.CreationDate,2025-06-28T01:58:47+00:00
; #@! TF.GenerationSoftware,Kicad,Pcbnew,9.0.1+1
; #@! TF.FileFunction,Plated,1,2,PTH
FMAT,2
METRIC,TZ
; #@! TA.AperFunction,Plated,PTH,ViaDrill
T1C0.400
; #@! TA.AperFunction,Plated,PTH,ComponentDrill
T2C0.889
; #@! TA.AperFunction,Plated,PTH,ComponentDrill
T3C1.500
; #@! TA.AperFunction,Plated,PTH,ComponentDrill
T4C1.700
%
G90
G05
T1
X-34300Y13100
X-34300Y11100
X-34300Y9100
X-34300Y7100
X-34300Y5100
X-34300Y3100
X-34300Y1100
X-34300Y-900
X-34300Y-2900
X-34300Y-4900
X-34300Y-6900
X-34300Y-8900
X-34300Y-10900
X-34300Y-12900
X-34300Y-14900
X-34300Y-16900
X-34300Y-18900
X-34300Y-20900
X-32528Y-22172
X-31114Y-23586
X-30300Y24000
X-29800Y10800
X-29800Y8800
X-29800Y6800
X-29800Y4800
X-29800Y2800
X-29800Y800
X-29800Y-1200
X-29800Y-3200
X-29800Y-5200
X-29800Y-7200
X-29800Y-9200
X-29800Y-11200
X-29800Y-13200
X-29800Y-15200
X-29800Y-17200
X-29800Y-19200
X-29699Y-25001
X-28928Y-20972
X-28800Y35100
X-28600Y24000
X-28285Y-26415
X-28100Y22500
X-28100Y20600
X-27514Y-22386
X-26900Y-3300
X-26900Y-5300
X-26900Y-7300
X-26900Y-9300
X-26900Y-11300
X-26900Y-13300
X-26900Y-15300
X-26900Y-17300
X-26900Y-19300
X-26871Y-27829
X-26200Y29600
X-26200Y27800
X-26099Y-23801
X-25457Y-29243
X-24685Y-25215
X-24400Y21200
X-24300Y13400
X-24300Y11400
X-24300Y9400
X-24300Y7400
X-24300Y5400
X-24300Y3400
X-24300Y1400
X-24300Y-4400
X-24300Y-6400
X-24300Y-8400
X-24300Y-10400
X-24300Y-12400
X-24300Y-14400
X-24300Y-16400
X-24300Y-18400
X-24300Y-20400
X-24043Y-30657
X-23271Y-26629
X-23267Y21167
X-22900Y-21800
X-22628Y-32072
X-22100Y21200
X-21962Y28720
X-21857Y-28043
X-21700Y12600
X-21700Y10600
X-21700Y8600
X-21700Y6600
X-21700Y4600
X-21700Y2600
X-21700Y600
X-21700Y-1400
X-21700Y-7400
X-21700Y-9400
X-21700Y-11400
X-21700Y-13400
X-21700Y-15400
X-21500Y-23200
X-21214Y-33486
X-21200Y-17400
X-21100Y47700
X-21100Y46100
X-20918Y24882
X-20443Y-29457
X-20114Y-24486
X-19800Y-34900
X-19728Y-18972
X-19028Y-30872
X-18699Y-25901
X-18500Y-20500
X-18400Y-10600
X-18400Y-12600
X-18400Y-14600
X-18386Y-36314
X-18100Y14200
X-18100Y12200
X-18100Y7700
X-18100Y6200
X-18100Y4200
X-18100Y2200
X-18100Y200
X-18100Y-1800
X-18100Y-3800
X-18100Y-5800
X-17614Y-32286
X-17285Y-27315
X-16972Y-37728
X-16899Y-21801
X-16200Y-33700
X-15871Y-28729
X-15728Y-8072
X-15600Y35900
X-15557Y-39143
X-15485Y-23215
X-15399Y-14201
X-14786Y-35114
X-14457Y-30143
X-14314Y-9486
X-14143Y-40557
X-14071Y-24629
X-13985Y-15615
X-13372Y-36528
X-13043Y-31557
X-12899Y-10901
X-12729Y-41971
X-12657Y-26043
X-12571Y-17029
X-11957Y-37943
X-11628Y-32972
X-11485Y-12315
X-11315Y-43385
X-11243Y-27457
X-11157Y-18443
X-10543Y-39357
X-10214Y-34386
X-10071Y-13729
X-9828Y-28872
X-9743Y-19857
X-8800Y-35800
X-8657Y-15143
X-8414Y-30286
X-8328Y-21272
X-7243Y-16557
X-6914Y-22686
X-6200Y-31000
X-5828Y-17972
X-5500Y-24100
X-4414Y-19386
X-4086Y-25514
X-3800Y-34900
X-3000Y-20800
X-2672Y-26928
X-1586Y-22214
X-1343Y-37357
X-1257Y-28343
X-1100Y-43175
X-172Y-23628
X71Y-38771
X157Y-29757
X1243Y-25043
X1485Y-40185
X1571Y-31171
X2657Y-26457
X2985Y-32585
X4071Y-27871
X4399Y-33999
X5485Y-29285
X5814Y-35414
X6899Y-30699
X7228Y-36828
X8314Y-32114
X8642Y-38242
X9728Y-33528
X11142Y-34942
T2
X-11430Y-48730
X-11430Y-51270
X-8890Y-48730
X-8890Y-51270
X-6350Y-48730
X-6350Y-51270
X-3810Y-48730
X-3810Y-51270
X-1270Y-48730
X-1270Y-51270
X1270Y-48730
X1270Y-51270
X3810Y-48730
X3810Y-51270
X6350Y-48730
X6350Y-51270
X8890Y-48730
X8890Y-51270
X11430Y-48730
X11430Y-51270
X19960Y-48760
X19960Y-51300
X19960Y-53840
X22500Y-48760
X22500Y-51300
X22500Y-53840
T3
X0Y47000
T4
X-2540Y49540
X-2540Y44460
X2540Y49540
X2540Y44460
M30
