%TF.GenerationSoftware,KiCad,Pcbnew,10.0.1-10.0.1~ubuntu25.10.1*%
%TF.CreationDate,2026-06-25T18:59:34+00:00*%
%TF.ProjectId,USTEFMADC01,55535445-464d-4414-9443-30312e6b6963,rev?*%
%TF.SameCoordinates,Original*%
%TF.FileFunction,Paste,Bot*%
%TF.FilePolarity,Positive*%
%FSLAX46Y46*%
G04 Gerber Fmt 4.6, Leading zero omitted, Abs format (unit mm)*
G04 Created by KiCad (PCBNEW 10.0.1-10.0.1~ubuntu25.10.1) date 2026-06-25 18:59:34*
%MOMM*%
%LPD*%
G01*
G04 APERTURE LIST*
G04 Aperture macros list*
%AMRoundRect*
0 Rectangle with rounded corners*
0 $1 Rounding radius*
0 $2 $3 $4 $5 $6 $7 $8 $9 X,Y pos of 4 corners*
0 Add a 4 corners polygon primitive as box body*
4,1,4,$2,$3,$4,$5,$6,$7,$8,$9,$2,$3,0*
0 Add four circle primitives for the rounded corners*
1,1,$1+$1,$2,$3*
1,1,$1+$1,$4,$5*
1,1,$1+$1,$6,$7*
1,1,$1+$1,$8,$9*
0 Add four rect primitives between the rounded corners*
20,1,$1+$1,$2,$3,$4,$5,0*
20,1,$1+$1,$4,$5,$6,$7,0*
20,1,$1+$1,$6,$7,$8,$9,0*
20,1,$1+$1,$8,$9,$2,$3,0*%
G04 Aperture macros list end*
%ADD10RoundRect,0.250000X-0.450000X0.262500X-0.450000X-0.262500X0.450000X-0.262500X0.450000X0.262500X0*%
%ADD11RoundRect,0.250000X0.450000X-0.262500X0.450000X0.262500X-0.450000X0.262500X-0.450000X-0.262500X0*%
%ADD12RoundRect,0.150000X-0.587500X-0.150000X0.587500X-0.150000X0.587500X0.150000X-0.587500X0.150000X0*%
%ADD13RoundRect,0.250000X0.250000X0.475000X-0.250000X0.475000X-0.250000X-0.475000X0.250000X-0.475000X0*%
%ADD14RoundRect,0.150000X0.150000X-0.512500X0.150000X0.512500X-0.150000X0.512500X-0.150000X-0.512500X0*%
%ADD15R,1.000000X1.000000*%
%ADD16R,1.000000X2.300000*%
%ADD17R,1.000000X3.800000*%
%ADD18R,2.300000X1.000000*%
%ADD19R,3.800000X1.000000*%
%ADD20RoundRect,0.250000X-0.475000X0.250000X-0.475000X-0.250000X0.475000X-0.250000X0.475000X0.250000X0*%
%ADD21RoundRect,0.250000X-0.250000X-0.475000X0.250000X-0.475000X0.250000X0.475000X-0.250000X0.475000X0*%
%ADD22RoundRect,0.250000X0.400000X0.600000X-0.400000X0.600000X-0.400000X-0.600000X0.400000X-0.600000X0*%
%ADD23RoundRect,0.250000X0.262500X0.450000X-0.262500X0.450000X-0.262500X-0.450000X0.262500X-0.450000X0*%
%ADD24RoundRect,0.087500X-0.087500X0.725000X-0.087500X-0.725000X0.087500X-0.725000X0.087500X0.725000X0*%
%ADD25RoundRect,0.250000X-0.900000X1.000000X-0.900000X-1.000000X0.900000X-1.000000X0.900000X1.000000X0*%
%ADD26RoundRect,0.150000X-0.150000X0.512500X-0.150000X-0.512500X0.150000X-0.512500X0.150000X0.512500X0*%
%ADD27RoundRect,0.250000X0.475000X-0.250000X0.475000X0.250000X-0.475000X0.250000X-0.475000X-0.250000X0*%
G04 APERTURE END LIST*
D10*
%TO.C,R6*%
X-6300000Y-43175000D03*
X-6300000Y-45000000D03*
%TD*%
D11*
%TO.C,R8*%
X-18000000Y29400000D03*
X-18000000Y31225000D03*
%TD*%
D10*
%TO.C,R7*%
X-8800000Y-43175000D03*
X-8800000Y-45000000D03*
%TD*%
D12*
%TO.C,U3*%
X-17570089Y21955123D03*
X-17570089Y23855123D03*
X-15695089Y22905123D03*
%TD*%
D13*
%TO.C,C5*%
X-26854000Y37737000D03*
X-28754000Y37737000D03*
%TD*%
D14*
%TO.C,U5*%
X-17750000Y33662500D03*
X-18700000Y33662500D03*
X-19650000Y33662500D03*
X-19650000Y35937500D03*
X-17750000Y35937500D03*
%TD*%
D15*
%TO.C,M1*%
X-5900000Y18700000D03*
D16*
X-5900000Y20350000D03*
D17*
X-5900000Y25600000D03*
X-5900000Y31600000D03*
X-5900000Y37600000D03*
X-5900000Y43600000D03*
D16*
X-5900000Y48850000D03*
D15*
X-5900000Y50500000D03*
D18*
X-7550000Y18700000D03*
X-7550000Y50500000D03*
D19*
X-12800000Y18700000D03*
X-12800000Y50500000D03*
X-18800000Y18700000D03*
X-18800000Y50500000D03*
X-24800000Y18700000D03*
X-24800000Y50500000D03*
X-30800000Y18700000D03*
X-30800000Y50500000D03*
D18*
X-36050000Y18700000D03*
X-36050000Y50500000D03*
D15*
X-37700000Y18700000D03*
D16*
X-37700000Y20350000D03*
D17*
X-37700000Y25600000D03*
X-37700000Y31600000D03*
X-37700000Y37600000D03*
X-37700000Y43600000D03*
D16*
X-37700000Y48850000D03*
D15*
X-37700000Y50500000D03*
%TD*%
D10*
%TO.C,R4*%
X-1100000Y-43175000D03*
X-1100000Y-45000000D03*
%TD*%
D20*
%TO.C,C12*%
X-19700000Y23700000D03*
X-19700000Y21800000D03*
%TD*%
D13*
%TO.C,C2*%
X-9600000Y46900000D03*
X-11500000Y46900000D03*
%TD*%
D21*
%TO.C,C6*%
X11350000Y-43400000D03*
X13250000Y-43400000D03*
%TD*%
D13*
%TO.C,C10*%
X-26200001Y22600000D03*
X-28100001Y22600000D03*
%TD*%
D10*
%TO.C,R3*%
X-22774800Y41672098D03*
X-22774800Y39847098D03*
%TD*%
D13*
%TO.C,C3*%
X-17788001Y37990999D03*
X-19688001Y37990999D03*
%TD*%
D22*
%TO.C,D2*%
X11350000Y-40800000D03*
X7850000Y-40800000D03*
%TD*%
D23*
%TO.C,R1*%
X-24986500Y45102998D03*
X-26811500Y45102998D03*
%TD*%
D10*
%TO.C,R5*%
X-3800000Y-43175000D03*
X-3800000Y-45000000D03*
%TD*%
D24*
%TO.C,U4*%
X-24613001Y28673500D03*
X-24113002Y28673500D03*
X-23613002Y28673500D03*
X-23113002Y28673500D03*
X-22613003Y28673500D03*
X-22613003Y24448500D03*
X-23113002Y24448500D03*
X-23613002Y24448500D03*
X-24113002Y24448500D03*
X-24613001Y24448500D03*
%TD*%
D25*
%TO.C,D1*%
X-15400000Y46300000D03*
X-15400000Y42000000D03*
%TD*%
D23*
%TO.C,R2*%
X-19119101Y41699400D03*
X-20944101Y41699400D03*
%TD*%
D26*
%TO.C,U2*%
X-28754001Y43167100D03*
X-27804001Y43167100D03*
X-26854001Y43167100D03*
X-26854001Y40892100D03*
X-28754001Y40892100D03*
%TD*%
D11*
%TO.C,R9*%
X-18000000Y26000000D03*
X-18000000Y27825000D03*
%TD*%
D21*
%TO.C,C1*%
X-24055000Y31387001D03*
X-22155000Y31387001D03*
%TD*%
%TO.C,C8*%
X11250000Y-45700000D03*
X13150000Y-45700000D03*
%TD*%
D27*
%TO.C,C13*%
X-15600000Y34000000D03*
X-15600000Y35900000D03*
%TD*%
D20*
%TO.C,C4*%
X-24857600Y41709599D03*
X-24857600Y39809599D03*
%TD*%
D13*
%TO.C,C9*%
X-26000000Y20600000D03*
X-27900000Y20600000D03*
%TD*%
D27*
%TO.C,C11*%
X-26508601Y24442600D03*
X-26508601Y26342600D03*
%TD*%
M02*
