M48
; DRILL file {KiCad 9.0.1+1} date 2025-05-14T21:42:47+0000
; FORMAT={-:-/ absolute / metric / decimal}
; #@! TF.CreationDate,2025-05-14T21:42:47+00:00
; #@! TF.GenerationSoftware,Kicad,Pcbnew,9.0.1+1
; #@! TF.FileFunction,Plated,1,2,PTH
FMAT,2
METRIC
; #@! TA.AperFunction,Plated,PTH,ViaDrill
T1C0.400
; #@! TA.AperFunction,Plated,PTH,ComponentDrill
T2C0.889
; #@! TA.AperFunction,Plated,PTH,ComponentDrill
T3C1.500
; #@! TA.AperFunction,Plated,PTH,ComponentDrill
T4C1.700
%
G90
G05
T1
X-34.3Y13.1
X-34.3Y11.1
X-34.3Y9.1
X-34.3Y7.1
X-34.3Y5.1
X-34.3Y3.1
X-34.3Y1.1
X-34.3Y-0.9
X-34.3Y-2.9
X-34.3Y-4.9
X-34.3Y-6.9
X-34.3Y-8.9
X-34.3Y-10.9
X-34.3Y-12.9
X-34.3Y-14.9
X-34.3Y-16.9
X-34.3Y-18.9
X-34.3Y-20.9
X-32.528Y-22.172
X-31.114Y-23.586
X-30.3Y24.0
X-29.8Y10.8
X-29.8Y8.8
X-29.8Y6.8
X-29.8Y4.8
X-29.8Y2.8
X-29.8Y0.8
X-29.8Y-1.2
X-29.8Y-3.2
X-29.8Y-5.2
X-29.8Y-7.2
X-29.8Y-9.2
X-29.8Y-11.2
X-29.8Y-13.2
X-29.8Y-15.2
X-29.8Y-17.2
X-29.8Y-19.2
X-29.699Y-25.001
X-28.928Y-20.972
X-28.8Y35.1
X-28.6Y24.0
X-28.285Y-26.415
X-28.1Y22.5
X-28.1Y20.6
X-27.514Y-22.386
X-26.871Y-27.829
X-26.2Y29.6
X-26.2Y27.8
X-26.099Y-23.801
X-25.457Y-29.243
X-24.685Y-25.215
X-24.5Y13.7
X-24.5Y11.7
X-24.5Y9.7
X-24.5Y7.7
X-24.5Y5.7
X-24.5Y3.7
X-24.5Y1.7
X-24.5Y-4.3
X-24.5Y-6.3
X-24.5Y-8.3
X-24.5Y-10.3
X-24.5Y-12.3
X-24.5Y-14.3
X-24.5Y-16.3
X-24.5Y-18.3
X-24.5Y-20.3
X-24.4Y21.2
X-24.043Y-30.657
X-23.271Y-26.629
X-23.267Y21.167
X-22.628Y-32.072
X-22.1Y21.2
X-21.962Y28.72
X-21.857Y-28.043
X-21.7Y12.6
X-21.7Y10.6
X-21.7Y8.6
X-21.7Y6.6
X-21.7Y4.6
X-21.7Y2.6
X-21.7Y0.6
X-21.7Y-1.4
X-21.7Y-7.4
X-21.7Y-9.4
X-21.7Y-11.4
X-21.7Y-13.4
X-21.7Y-15.4
X-21.7Y-17.4
X-21.214Y-33.486
X-21.1Y47.7
X-21.1Y46.1
X-20.918Y24.882
X-20.443Y-29.457
X-20.114Y-24.486
X-19.8Y-34.9
X-19.728Y-18.972
X-19.028Y-30.872
X-18.699Y-25.901
X-18.4Y-10.6
X-18.4Y-12.6
X-18.4Y-14.6
X-18.386Y-36.314
X-18.1Y14.2
X-18.1Y12.2
X-18.1Y10.2
X-18.1Y8.2
X-18.1Y6.2
X-18.1Y4.2
X-18.1Y2.2
X-18.1Y0.2
X-18.1Y-1.8
X-18.1Y-3.8
X-18.1Y-5.8
X-17.614Y-32.286
X-17.285Y-27.315
X-16.972Y-37.728
X-16.899Y-21.801
X-16.2Y-33.7
X-15.871Y-28.729
X-15.728Y-8.072
X-15.6Y35.9
X-15.557Y-39.143
X-15.485Y-23.215
X-15.399Y-14.201
X-14.786Y-35.114
X-14.457Y-30.143
X-14.314Y-9.486
X-14.143Y-40.557
X-14.071Y-24.629
X-13.985Y-15.615
X-13.372Y-36.528
X-13.043Y-31.557
X-12.899Y-10.901
X-12.729Y-41.971
X-12.657Y-26.043
X-12.571Y-17.029
X-11.957Y-37.943
X-11.628Y-32.972
X-11.485Y-12.315
X-11.315Y-43.385
X-11.243Y-27.457
X-11.157Y-18.443
X-10.543Y-39.357
X-10.214Y-34.386
X-10.071Y-13.729
X-9.828Y-28.872
X-9.743Y-19.857
X-8.8Y-35.8
X-8.657Y-15.143
X-8.414Y-30.286
X-8.328Y-21.272
X-7.243Y-16.557
X-6.914Y-22.686
X-6.2Y-31.0
X-5.828Y-17.972
X-5.658Y-49.042
X-5.5Y-24.1
X-4.414Y-19.386
X-4.086Y-25.514
X-3.8Y-34.9
X-3.0Y-20.8
X-2.672Y-26.928
X-1.586Y-22.214
X-1.343Y-37.357
X-1.257Y-28.343
X-1.1Y-43.175
X-0.172Y-23.628
X0.071Y-38.771
X0.157Y-29.757
X1.243Y-25.043
X1.485Y-40.185
X1.571Y-31.171
X2.657Y-26.457
X2.985Y-32.585
X4.071Y-27.871
X4.399Y-33.999
X5.485Y-29.285
X5.814Y-35.414
X6.899Y-30.699
X7.228Y-36.828
X8.314Y-32.114
X8.642Y-38.242
X9.728Y-33.528
X11.142Y-34.942
T2
X-11.43Y-48.73
X-11.43Y-51.27
X-8.89Y-48.73
X-8.89Y-51.27
X-6.35Y-48.73
X-6.35Y-51.27
X-3.81Y-48.73
X-3.81Y-51.27
X-1.27Y-48.73
X-1.27Y-51.27
X1.27Y-48.73
X1.27Y-51.27
X3.81Y-48.73
X3.81Y-51.27
X6.35Y-48.73
X6.35Y-51.27
X8.89Y-48.73
X8.89Y-51.27
X11.43Y-48.73
X11.43Y-51.27
X19.96Y-48.76
X19.96Y-51.3
X19.96Y-53.84
X22.5Y-48.76
X22.5Y-51.3
X22.5Y-53.84
T3
X0.0Y47.0
T4
X-2.54Y49.54
X-2.54Y44.46
X2.54Y49.54
X2.54Y44.46
M30
