%TF.GenerationSoftware,KiCad,Pcbnew,9.0.7+1*%
%TF.CreationDate,2026-03-29T02:55:45+00:00*%
%TF.ProjectId,USTEFMADC01,55535445-464d-4414-9443-30312e6b6963,rev?*%
%TF.SameCoordinates,Original*%
%TF.FileFunction,Soldermask,Bot*%
%TF.FilePolarity,Negative*%
%FSLAX46Y46*%
G04 Gerber Fmt 4.6, Leading zero omitted, Abs format (unit mm)*
G04 Created by KiCad (PCBNEW 9.0.7+1) date 2026-03-29 02:55:45*
%MOMM*%
%LPD*%
G01*
G04 APERTURE LIST*
G04 Aperture macros list*
%AMRoundRect*
0 Rectangle with rounded corners*
0 $1 Rounding radius*
0 $2 $3 $4 $5 $6 $7 $8 $9 X,Y pos of 4 corners*
0 Add a 4 corners polygon primitive as box body*
4,1,4,$2,$3,$4,$5,$6,$7,$8,$9,$2,$3,0*
0 Add four circle primitives for the rounded corners*
1,1,$1+$1,$2,$3*
1,1,$1+$1,$4,$5*
1,1,$1+$1,$6,$7*
1,1,$1+$1,$8,$9*
0 Add four rect primitives between the rounded corners*
20,1,$1+$1,$2,$3,$4,$5,0*
20,1,$1+$1,$4,$5,$6,$7,0*
20,1,$1+$1,$6,$7,$8,$9,0*
20,1,$1+$1,$8,$9,$2,$3,0*%
G04 Aperture macros list end*
%ADD10RoundRect,0.050000X-0.762000X0.762000X-0.762000X-0.762000X0.762000X-0.762000X0.762000X0.762000X0*%
%ADD11RoundRect,0.050000X-0.762000X-0.762000X0.762000X-0.762000X0.762000X0.762000X-0.762000X0.762000X0*%
%ADD12RoundRect,0.274390X-0.475610X0.288110X-0.475610X-0.288110X0.475610X-0.288110X0.475610X0.288110X0*%
%ADD13RoundRect,0.274390X0.475610X-0.288110X0.475610X0.288110X-0.475610X0.288110X-0.475610X-0.288110X0*%
%ADD14RoundRect,0.175000X-0.612500X-0.175000X0.612500X-0.175000X0.612500X0.175000X-0.612500X0.175000X0*%
%ADD15RoundRect,0.275000X0.275000X0.500000X-0.275000X0.500000X-0.275000X-0.500000X0.275000X-0.500000X0*%
%ADD16RoundRect,0.175000X0.175000X-0.537500X0.175000X0.537500X-0.175000X0.537500X-0.175000X-0.537500X0*%
%ADD17RoundRect,0.050000X0.500000X0.500000X-0.500000X0.500000X-0.500000X-0.500000X0.500000X-0.500000X0*%
%ADD18RoundRect,0.050000X0.500000X1.150000X-0.500000X1.150000X-0.500000X-1.150000X0.500000X-1.150000X0*%
%ADD19RoundRect,0.050000X0.500000X1.900000X-0.500000X1.900000X-0.500000X-1.900000X0.500000X-1.900000X0*%
%ADD20RoundRect,0.050000X1.150000X0.500000X-1.150000X0.500000X-1.150000X-0.500000X1.150000X-0.500000X0*%
%ADD21RoundRect,0.050000X1.900000X0.500000X-1.900000X0.500000X-1.900000X-0.500000X1.900000X-0.500000X0*%
%ADD22C,2.000000*%
%ADD23RoundRect,0.275000X-0.500000X0.275000X-0.500000X-0.275000X0.500000X-0.275000X0.500000X0.275000X0*%
%ADD24RoundRect,0.275000X-0.275000X-0.500000X0.275000X-0.500000X0.275000X0.500000X-0.275000X0.500000X0*%
%ADD25RoundRect,0.269231X0.430769X0.630769X-0.430769X0.630769X-0.430769X-0.630769X0.430769X-0.630769X0*%
%ADD26RoundRect,0.274390X0.288110X0.475610X-0.288110X0.475610X-0.288110X-0.475610X0.288110X-0.475610X0*%
%ADD27RoundRect,0.112500X-0.112500X0.750000X-0.112500X-0.750000X0.112500X-0.750000X0.112500X0.750000X0*%
%ADD28RoundRect,0.260870X-0.939130X1.039130X-0.939130X-1.039130X0.939130X-1.039130X0.939130X1.039130X0*%
%ADD29RoundRect,0.175000X-0.175000X0.537500X-0.175000X-0.537500X0.175000X-0.537500X0.175000X0.537500X0*%
%ADD30C,2.150000*%
%ADD31C,2.350000*%
%ADD32RoundRect,0.275000X0.500000X-0.275000X0.500000X0.275000X-0.500000X0.275000X-0.500000X-0.275000X0*%
G04 APERTURE END LIST*
D10*
%TO.C,J1001*%
X11430000Y-48730000D03*
X11430000Y-51270000D03*
X8890000Y-48730000D03*
X8890000Y-51270000D03*
X6350000Y-48730000D03*
X6350000Y-51270000D03*
X3810000Y-48730000D03*
X3810000Y-51270000D03*
X1270000Y-48730000D03*
X1270000Y-51270000D03*
X-1270000Y-48730000D03*
X-1270000Y-51270000D03*
X-3810000Y-48730000D03*
X-3810000Y-51270000D03*
X-6350000Y-48730000D03*
X-6350000Y-51270000D03*
X-8890000Y-48730000D03*
X-8890000Y-51270000D03*
X-11430000Y-48730000D03*
X-11430000Y-51270000D03*
%TD*%
D11*
%TO.C,J1*%
X19960000Y-48760000D03*
X22500000Y-48760000D03*
X19960000Y-51300000D03*
X22500000Y-51300000D03*
X19960000Y-53840000D03*
X22500000Y-53840000D03*
%TD*%
D12*
%TO.C,R6*%
X-6300000Y-43175000D03*
X-6300000Y-45000000D03*
%TD*%
D13*
%TO.C,R8*%
X-18000000Y29400000D03*
X-18000000Y31225000D03*
%TD*%
D12*
%TO.C,R7*%
X-8800000Y-43175000D03*
X-8800000Y-45000000D03*
%TD*%
D14*
%TO.C,U3*%
X-17570089Y21955123D03*
X-17570089Y23855123D03*
X-15695089Y22905123D03*
%TD*%
D15*
%TO.C,C5*%
X-26854000Y37737000D03*
X-28754000Y37737000D03*
%TD*%
D16*
%TO.C,U5*%
X-17750000Y33662500D03*
X-18700000Y33662500D03*
X-19650000Y33662500D03*
X-19650000Y35937500D03*
X-17750000Y35937500D03*
%TD*%
D17*
%TO.C,M1*%
X-5900000Y18700000D03*
D18*
X-5900000Y20350000D03*
D19*
X-5900000Y25600000D03*
X-5900000Y31600000D03*
X-5900000Y37600000D03*
X-5900000Y43600000D03*
D18*
X-5900000Y48850000D03*
D17*
X-5900000Y50500000D03*
D20*
X-7550000Y18700000D03*
X-7550000Y50500000D03*
D21*
X-12800000Y18700000D03*
X-12800000Y50500000D03*
X-18800000Y18700000D03*
X-18800000Y50500000D03*
X-24800000Y18700000D03*
X-24800000Y50500000D03*
X-30800000Y18700000D03*
X-30800000Y50500000D03*
D20*
X-36050000Y18700000D03*
X-36050000Y50500000D03*
D17*
X-37700000Y18700000D03*
D18*
X-37700000Y20350000D03*
D19*
X-37700000Y25600000D03*
X-37700000Y31600000D03*
X-37700000Y37600000D03*
X-37700000Y43600000D03*
D18*
X-37700000Y48850000D03*
D17*
X-37700000Y50500000D03*
%TD*%
D22*
%TO.C,FID2*%
X-8000000Y53000000D03*
%TD*%
D12*
%TO.C,R4*%
X-1100000Y-43175000D03*
X-1100000Y-45000000D03*
%TD*%
D23*
%TO.C,C12*%
X-19700000Y23700000D03*
X-19700000Y21800000D03*
%TD*%
D15*
%TO.C,C2*%
X-9600000Y46900000D03*
X-11500000Y46900000D03*
%TD*%
D24*
%TO.C,C6*%
X11350000Y-43400000D03*
X13250000Y-43400000D03*
%TD*%
D15*
%TO.C,C10*%
X-26200001Y22600000D03*
X-28100001Y22600000D03*
%TD*%
D12*
%TO.C,R3*%
X-22774800Y41672098D03*
X-22774800Y39847098D03*
%TD*%
D15*
%TO.C,C3*%
X-17788001Y37990999D03*
X-19688001Y37990999D03*
%TD*%
D25*
%TO.C,D2*%
X11350000Y-40800000D03*
X7850000Y-40800000D03*
%TD*%
D26*
%TO.C,R1*%
X-24986500Y45102998D03*
X-26811500Y45102998D03*
%TD*%
D12*
%TO.C,R5*%
X-3800000Y-43175000D03*
X-3800000Y-45000000D03*
%TD*%
D27*
%TO.C,U4*%
X-24613001Y28673500D03*
X-24113002Y28673500D03*
X-23613002Y28673500D03*
X-23113002Y28673500D03*
X-22613003Y28673500D03*
X-22613003Y24448500D03*
X-23113002Y24448500D03*
X-23613002Y24448500D03*
X-24113002Y24448500D03*
X-24613001Y24448500D03*
%TD*%
D28*
%TO.C,D1*%
X-15400000Y46300000D03*
X-15400000Y42000000D03*
%TD*%
D22*
%TO.C,FID1*%
X-40900000Y20800000D03*
%TD*%
D26*
%TO.C,R2*%
X-19119101Y41699400D03*
X-20944101Y41699400D03*
%TD*%
D29*
%TO.C,U2*%
X-28754001Y43167100D03*
X-27804001Y43167100D03*
X-26854001Y43167100D03*
X-26854001Y40892100D03*
X-28754001Y40892100D03*
%TD*%
D13*
%TO.C,R9*%
X-18000000Y26000000D03*
X-18000000Y27825000D03*
%TD*%
D24*
%TO.C,C1*%
X-24055000Y31387001D03*
X-22155000Y31387001D03*
%TD*%
%TO.C,C8*%
X11250000Y-45700000D03*
X13150000Y-45700000D03*
%TD*%
D30*
%TO.C,J9*%
X0Y47000000D03*
D31*
X-2540000Y49540000D03*
X-2540000Y44460000D03*
X2540000Y49540000D03*
X2540000Y44460000D03*
%TD*%
D32*
%TO.C,C13*%
X-15600000Y34000000D03*
X-15600000Y35900000D03*
%TD*%
D23*
%TO.C,C4*%
X-24857600Y41709599D03*
X-24857600Y39809599D03*
%TD*%
D15*
%TO.C,C9*%
X-26000000Y20600000D03*
X-27900000Y20600000D03*
%TD*%
D32*
%TO.C,C11*%
X-26508601Y24442600D03*
X-26508601Y26342600D03*
%TD*%
M02*
