%TF.GenerationSoftware,KiCad,Pcbnew,10.0.1-10.0.1~ubuntu25.10.1*%
%TF.CreationDate,2026-06-25T07:10:36+00:00*%
%TF.ProjectId,USTEFMADC01,55535445-464d-4414-9443-30312e6b6963,rev?*%
%TF.SameCoordinates,Original*%
%TF.FileFunction,Profile,NP*%
%FSLAX46Y46*%
G04 Gerber Fmt 4.6, Leading zero omitted, Abs format (unit mm)*
G04 Created by KiCad (PCBNEW 10.0.1-10.0.1~ubuntu25.10.1) date 2026-06-25 07:10:36*
%MOMM*%
%LPD*%
G01*
G04 APERTURE LIST*
%TA.AperFunction,Profile*%
%ADD10C,0.150000*%
%TD*%
%TA.AperFunction,Profile*%
%ADD11C,0.050000*%
%TD*%
G04 APERTURE END LIST*
D10*
X7308455Y14234836D02*
X7513596Y14127281D01*
X7829331Y13952699D01*
X8141113Y13771150D01*
X8448787Y13582725D01*
X8752202Y13387515D01*
X9051208Y13185618D01*
X9345659Y12977132D01*
X9635409Y12762161D01*
X9920315Y12540811D01*
X10200237Y12313190D01*
X10475036Y12079411D01*
X10744578Y11839589D01*
X11008729Y11593842D01*
X11267360Y11342291D01*
X11520342Y11085061D01*
X11767552Y10822277D01*
X12008866Y10554071D01*
X12244167Y10280573D01*
X12473338Y10001919D01*
X12696267Y9718246D01*
X12912843Y9429694D01*
X13122959Y9136405D01*
X13326513Y8838523D01*
X13523404Y8536197D01*
X13713534Y8229573D01*
X13896810Y7918804D01*
X14073142Y7604043D01*
X14242443Y7285445D01*
X14404629Y6963167D01*
X14559621Y6637368D01*
X14707341Y6308208D01*
X14847718Y5975850D01*
X14980681Y5640458D01*
X15106166Y5302196D01*
X15224111Y4961232D01*
X15334457Y4617733D01*
X15437150Y4271870D01*
X15532140Y3923811D01*
X15619379Y3573730D01*
X15698825Y3221799D01*
X15770438Y2868190D01*
X15834183Y2513079D01*
X15890030Y2156640D01*
X15937949Y1799049D01*
X15977918Y1440483D01*
X16009917Y1081117D01*
X16033929Y721130D01*
X16049945Y360698D01*
X16057954Y0D01*
X16058455Y-180394D01*
X16057954Y-360788D01*
X16049945Y-721486D01*
X16033929Y-1081918D01*
X16009917Y-1441905D01*
X15977918Y-1801271D01*
X15937949Y-2159837D01*
X15890030Y-2517428D01*
X15834183Y-2873867D01*
X15770438Y-3228978D01*
X15698825Y-3582587D01*
X15619379Y-3934518D01*
X15532140Y-4284599D01*
X15437150Y-4632658D01*
X15334457Y-4978521D01*
X15224111Y-5322020D01*
X15106166Y-5662984D01*
X14980681Y-6001246D01*
X14847718Y-6336638D01*
X14707341Y-6668996D01*
X14559621Y-6998156D01*
X14404629Y-7323955D01*
X14242443Y-7646233D01*
X14073142Y-7964831D01*
X13896810Y-8279592D01*
X13713534Y-8590361D01*
X13523404Y-8896985D01*
X13326513Y-9199311D01*
X13122959Y-9497193D01*
X12912843Y-9790482D01*
X12696267Y-10079034D01*
X12473338Y-10362707D01*
X12244167Y-10641361D01*
X12008866Y-10914859D01*
X11767552Y-11183065D01*
X11520342Y-11445849D01*
X11267360Y-11703079D01*
X11008729Y-11954630D01*
X10744578Y-12200377D01*
X10475036Y-12440199D01*
X10200237Y-12673978D01*
X9920315Y-12901599D01*
X9635409Y-13122949D01*
X9345659Y-13337920D01*
X9051208Y-13546406D01*
X8752202Y-13748303D01*
X8448787Y-13943513D01*
X8141113Y-14131938D01*
X7829331Y-14313487D01*
X7513596Y-14488069D01*
X7194063Y-14655599D01*
X6870890Y-14815994D01*
X6544236Y-14969174D01*
X6214261Y-15115066D01*
X5881129Y-15253595D01*
X5545004Y-15384695D01*
X5206051Y-15508301D01*
X4864437Y-15624351D01*
X4520331Y-15732789D01*
X4173903Y-15833561D01*
X3825323Y-15926617D01*
X3474763Y-16011912D01*
X3122396Y-16089403D01*
X2768395Y-16159052D01*
X2412936Y-16220826D01*
X2056192Y-16274692D01*
X1698341Y-16320626D01*
X1339558Y-16358604D01*
X980021Y-16388608D01*
X619906Y-16410622D01*
X259391Y-16424637D01*
X-101347Y-16430644D01*
X-462129Y-16428642D01*
X-822777Y-16418630D01*
X-1183114Y-16400615D01*
X-1542963Y-16374604D01*
X-1902145Y-16340611D01*
X-2260484Y-16298653D01*
X-2617804Y-16248749D01*
X-2973927Y-16190925D01*
X-3328679Y-16125210D01*
X-3681885Y-16051635D01*
X-4033370Y-15970237D01*
X-4382961Y-15881056D01*
X-4730487Y-15784136D01*
X-5075775Y-15679525D01*
X-5418656Y-15567274D01*
X-5758960Y-15447439D01*
X-6096520Y-15320078D01*
X-6431169Y-15185255D01*
X-6762743Y-15043036D01*
X-7091078Y-14893491D01*
X-7416012Y-14736693D01*
X-7737385Y-14572721D01*
X-8055038Y-14401654D01*
X-8368816Y-14223578D01*
X-8678563Y-14038579D01*
X-8984126Y-13846750D01*
X-9285355Y-13648184D01*
X-9582102Y-13442980D01*
X-9874221Y-13231239D01*
X-10161566Y-13013065D01*
X-10443998Y-12788565D01*
X-10721375Y-12557851D01*
X-10993563Y-12321036D01*
X-11260426Y-12078236D01*
X-11521833Y-11829572D01*
X-11777655Y-11575166D01*
X-12027766Y-11315143D01*
X-12272043Y-11049632D01*
X-12510366Y-10778763D01*
X-12742616Y-10502670D01*
X-12968680Y-10221489D01*
X-13188445Y-9935359D01*
X-13401805Y-9644421D01*
X-13608653Y-9348817D01*
X-13808887Y-9048694D01*
X-14002410Y-8744200D01*
X-14189125Y-8435485D01*
X-14368940Y-8122701D01*
X-14541767Y-7806002D01*
X-14707521Y-7485544D01*
X-14866119Y-7161486D01*
X-15017484Y-6833986D01*
X-15161542Y-6503207D01*
X-15298220Y-6169311D01*
X-15427453Y-5832463D01*
X-15549175Y-5492829D01*
X-15663327Y-5150577D01*
X-15769854Y-4805874D01*
X-15868701Y-4458892D01*
X-15959821Y-4109801D01*
X-16043169Y-3758773D01*
X-16118703Y-3405981D01*
X-16186386Y-3051599D01*
X-16246186Y-2695802D01*
X-16298072Y-2338766D01*
X-16342018Y-1980665D01*
X-16378004Y-1621677D01*
X-16406012Y-1261978D01*
X-16426027Y-901746D01*
X-16438040Y-541159D01*
X-16442045Y-180394D01*
X-16438040Y180371D01*
X-16426027Y540958D01*
X-16406012Y901190D01*
X-16378004Y1260889D01*
X-16342018Y1619877D01*
X-16298072Y1977978D01*
X-16246186Y2335014D01*
X-16186386Y2690811D01*
X-16118703Y3045193D01*
X-16043169Y3397985D01*
X-15959821Y3749013D01*
X-15868701Y4098104D01*
X-15769854Y4445086D01*
X-15663327Y4789789D01*
X-15549175Y5132041D01*
X-15427453Y5471675D01*
X-15298220Y5808523D01*
X-15161542Y6142419D01*
X-15017484Y6473198D01*
X-14866119Y6800698D01*
X-14707521Y7124756D01*
X-14541767Y7445214D01*
X-14368940Y7761913D01*
X-14189125Y8074697D01*
X-14002410Y8383412D01*
X-13808887Y8687906D01*
X-13608653Y8988029D01*
X-13401805Y9283633D01*
X-13188445Y9574571D01*
X-12968680Y9860701D01*
X-12742616Y10141882D01*
X-12510366Y10417975D01*
X-12272043Y10688844D01*
X-12027766Y10954355D01*
X-11777655Y11214378D01*
X-11521833Y11468784D01*
X-11260426Y11717448D01*
X-10993563Y11960248D01*
X-10721375Y12197063D01*
X-10443998Y12427777D01*
X-10161566Y12652277D01*
X-9874221Y12870451D01*
X-9582102Y13082192D01*
X-9285355Y13287396D01*
X-8984126Y13485962D01*
X-8678563Y13677791D01*
X-8368816Y13862790D01*
X-8055038Y14040866D01*
X-7737385Y14211933D01*
X-7691545Y14235322D01*
X-7691545Y17900000D01*
X7308455Y17900000D01*
X7308455Y14234836D01*
D11*
X-14854483Y9500000D02*
G75*
G02*
X-18054483Y9500000I-1600000J0D01*
G01*
X-18054483Y9500000D02*
G75*
G02*
X-14854483Y9500000I1600000J0D01*
G01*
X65000000Y0D02*
G75*
G02*
X-65000000Y0I-65000000J0D01*
G01*
X-65000000Y0D02*
G75*
G02*
X65000000Y0I65000000J0D01*
G01*
X1600000Y-19000000D02*
G75*
G02*
X-1600000Y-19000000I-1600000J0D01*
G01*
X-1600000Y-19000000D02*
G75*
G02*
X1600000Y-19000000I1600000J0D01*
G01*
X18054483Y9500000D02*
G75*
G02*
X14854483Y9500000I-1600000J0D01*
G01*
X14854483Y9500000D02*
G75*
G02*
X18054483Y9500000I1600000J0D01*
G01*
M02*
